<?xml version="1.0" encoding="UTF-8" standalone="no"?>
<!DOCTYPE svg PUBLIC "-//W3C//DTD SVG 1.1//EN"
 "http://www.w3.org/Graphics/SVG/1.1/DTD/svg11.dtd">
<!-- Generated by graphviz version 9.0.0 (20230911.1827)
 -->
<!-- Title: mal_math::vec&lt; 2, T &gt; Pages: 1 -->
<svg width="316pt" height="306pt"
 viewBox="0.00 0.00 315.50 305.50" xmlns="http://www.w3.org/2000/svg" xmlns:xlink="http://www.w3.org/1999/xlink">
<g id="graph0" class="graph" transform="scale(1 1) rotate(0) translate(4 301.5)">
<title>mal_math::vec&lt; 2, T &gt;</title>
<!-- Node1 -->
<g id="Node000001" class="node">
<title>Node1</title>
<g id="a_Node000001"><a xlink:title="2D vector template class.">
<polygon fill="#999999" stroke="#666666" points="184.88,-19.25 78.88,-19.25 78.88,0 184.88,0 184.88,-19.25"/>
<text text-anchor="middle" x="131.88" y="-5.75" font-family="Times,serif" font-size="10.00">mal_math::vec&lt; 2, T &gt;</text>
</a>
</g>
</g>
<!-- Node1&#45;&gt;Node1 -->
<g id="edge7_Node000001_Node000001" class="edge">
<title>Node1&#45;&gt;Node1</title>
<g id="a_edge7_Node000001_Node000001"><a xlink:title=" ">
<path fill="none" stroke="#9a32cd" stroke-dasharray="5,2" d="M196.33,-14.02C200.41,-12.98 202.88,-11.52 202.88,-9.62 202.88,-6.35 195.51,-4.36 185.13,-3.67"/>
<polygon fill="#9a32cd" stroke="#9a32cd" points="196.05,-10.52 186.63,-15.37 197.02,-17.45 196.05,-10.52"/>
</a>
</g>
<text text-anchor="middle" x="213.75" y="-5.75" font-family="Times,serif" font-size="10.00" fill="grey"> @47</text>
</g>
<!-- Node2 -->
<g id="Node000002" class="node">
<title>Node2</title>
<g id="a_Node000002"><a xlink:title=" ">
<polygon fill="white" stroke="#666666" points="103.75,-85.75 0,-85.75 0,-66.5 103.75,-66.5 103.75,-85.75"/>
<text text-anchor="middle" x="51.88" y="-72.25" font-family="Times,serif" font-size="10.00">static constexpr size_t</text>
</a>
</g>
</g>
<!-- Node2&#45;&gt;Node1 -->
<g id="edge1_Node000001_Node000002" class="edge">
<title>Node2&#45;&gt;Node1</title>
<g id="a_edge1_Node000001_Node000002"><a xlink:title=" ">
<path fill="none" stroke="#9a32cd" stroke-dasharray="5,2" d="M71.77,-59.08C87.17,-46.67 107.93,-29.93 120.59,-19.73"/>
<polygon fill="#9a32cd" stroke="#9a32cd" points="69.77,-56.21 64.18,-65.21 74.16,-61.65 69.77,-56.21"/>
</a>
</g>
<text text-anchor="middle" x="105.88" y="-39" font-family="Times,serif" font-size="10.00" fill="grey"> size</text>
</g>
<!-- Node3 -->
<g id="Node000003" class="node">
<title>Node3</title>
<g id="a_Node000003"><a xlink:title=" ">
<polygon fill="white" stroke="#666666" points="192.28,-297.5 163.47,-297.5 163.47,-278.25 192.28,-278.25 192.28,-297.5"/>
<text text-anchor="middle" x="177.88" y="-284" font-family="Times,serif" font-size="10.00">T</text>
</a>
</g>
</g>
<!-- Node3&#45;&gt;Node1 -->
<g id="edge2_Node000001_Node000003" class="edge">
<title>Node3&#45;&gt;Node1</title>
<g id="a_edge2_Node000001_Node000003"><a xlink:title=" ">
<path fill="none" stroke="#9a32cd" stroke-dasharray="5,2" d="M174.51,-266.65C165.27,-211.19 139.81,-58.29 133.37,-19.61"/>
<polygon fill="#9a32cd" stroke="#9a32cd" points="171.05,-267.21 176.15,-276.5 177.96,-266.06 171.05,-267.21"/>
</a>
</g>
<text text-anchor="middle" x="166.25" y="-184.25" font-family="Times,serif" font-size="10.00" fill="grey"> g</text>
<text text-anchor="middle" x="166.25" y="-173" font-family="Times,serif" font-size="10.00" fill="grey">r</text>
<text text-anchor="middle" x="166.25" y="-161.75" font-family="Times,serif" font-size="10.00" fill="grey">s</text>
<text text-anchor="middle" x="166.25" y="-150.5" font-family="Times,serif" font-size="10.00" fill="grey">t</text>
<text text-anchor="middle" x="166.25" y="-139.25" font-family="Times,serif" font-size="10.00" fill="grey">u</text>
<text text-anchor="middle" x="166.25" y="-128" font-family="Times,serif" font-size="10.00" fill="grey">v</text>
<text text-anchor="middle" x="166.25" y="-116.75" font-family="Times,serif" font-size="10.00" fill="grey">x</text>
<text text-anchor="middle" x="166.25" y="-105.5" font-family="Times,serif" font-size="10.00" fill="grey">y</text>
</g>
<!-- Node4 -->
<g id="Node000004" class="node">
<title>Node4</title>
<g id="a_Node000004"><a xlink:title=" ">
<polygon fill="white" stroke="#666666" points="245.38,-85.75 160.38,-85.75 160.38,-66.5 245.38,-66.5 245.38,-85.75"/>
<text text-anchor="middle" x="202.88" y="-72.25" font-family="Times,serif" font-size="10.00">std::array&lt; T, 2 &gt;</text>
</a>
</g>
</g>
<!-- Node3&#45;&gt;Node4 -->
<g id="edge4_Node000004_Node000003" class="edge">
<title>Node3&#45;&gt;Node4</title>
<g id="a_edge4_Node000004_Node000003"><a xlink:title=" ">
<path fill="none" stroke="#9a32cd" stroke-dasharray="5,2" d="M179.98,-267.02C181.6,-251.87 183.93,-230.48 186.12,-211.75 191.69,-164.26 198.96,-107.44 201.73,-85.94"/>
<polygon fill="#9a32cd" stroke="#9a32cd" points="176.54,-266.26 178.96,-276.58 183.5,-267 176.54,-266.26"/>
</a>
</g>
<text text-anchor="middle" x="205.25" y="-217.5" font-family="Times,serif" font-size="10.00" fill="grey"> elements</text>
</g>
<!-- Node5 -->
<g id="Node000005" class="node">
<title>Node5</title>
<g id="a_Node000005"><a xlink:title=" ">
<polygon fill="white" stroke="#666666" points="307.5,-231 232.25,-231 232.25,-211.75 307.5,-211.75 307.5,-231"/>
<text text-anchor="middle" x="269.88" y="-217.5" font-family="Times,serif" font-size="10.00">std::array&lt; T &gt;</text>
</a>
</g>
</g>
<!-- Node3&#45;&gt;Node5 -->
<g id="edge6_Node000005_Node000003" class="edge">
<title>Node3&#45;&gt;Node5</title>
<g id="a_edge6_Node000005_Node000003"><a xlink:title=" ">
<path fill="none" stroke="#9a32cd" stroke-dasharray="5,2" d="M199.76,-271.53C217.56,-259.06 242.07,-241.87 256.89,-231.48"/>
<polygon fill="#9a32cd" stroke="#9a32cd" points="198.09,-268.43 191.91,-277.04 202.1,-274.16 198.09,-268.43"/>
</a>
</g>
<text text-anchor="middle" x="248.25" y="-250.75" font-family="Times,serif" font-size="10.00" fill="grey"> elements</text>
</g>
<!-- Node4&#45;&gt;Node1 -->
<g id="edge3_Node000001_Node000004" class="edge">
<title>Node4&#45;&gt;Node1</title>
<g id="a_edge3_Node000001_Node000004"><a xlink:title=" ">
<path fill="none" stroke="#9a32cd" stroke-dasharray="5,2" d="M184.78,-58.69C171.07,-46.23 152.75,-29.59 141.66,-19.52"/>
<polygon fill="#9a32cd" stroke="#9a32cd" points="182.13,-61.01 191.88,-65.14 186.83,-55.82 182.13,-61.01"/>
</a>
</g>
<text text-anchor="middle" x="181.62" y="-39" font-family="Times,serif" font-size="10.00" fill="grey"> data</text>
</g>
<!-- Node5&#45;&gt;Node4 -->
<g id="edge5_Node000004_Node000005" class="edge">
<title>Node5&#45;&gt;Node4</title>
<g id="a_edge5_Node000004_Node000005"><a xlink:title=" ">
<path fill="none" stroke="orange" stroke-dasharray="5,2" d="M260.99,-201.37C246.36,-170.1 217.78,-108.99 207.06,-86.08"/>
<polygon fill="orange" stroke="orange" points="257.64,-202.47 265.04,-210.04 263.98,-199.5 257.64,-202.47"/>
</a>
</g>
<text text-anchor="middle" x="274.12" y="-144.88" font-family="Times,serif" font-size="10.00" fill="grey"> &lt; T, 2 &gt;</text>
</g>
</g>
</svg>
