<?xml version="1.0" encoding="UTF-8" standalone="no"?>
<!DOCTYPE svg PUBLIC "-//W3C//DTD SVG 1.1//EN"
 "http://www.w3.org/Graphics/SVG/1.1/DTD/svg11.dtd">
<!-- Generated by graphviz version 9.0.0 (20230911.1827)
 -->
<!-- Title: mal_math::Intersection Pages: 1 -->
<svg width="319pt" height="371pt"
 viewBox="0.00 0.00 319.00 371.00" xmlns="http://www.w3.org/2000/svg" xmlns:xlink="http://www.w3.org/1999/xlink">
<g id="graph0" class="graph" transform="scale(1 1) rotate(0) translate(4 367)">
<title>mal_math::Intersection</title>
<!-- Node1 -->
<g id="Node000001" class="node">
<title>Node1</title>
<g id="a_Node000001"><a xlink:title="Represents the data of a ray&#39;s intersection with an object.">
<polygon fill="#999999" stroke="#666666" points="106.75,-19.25 0,-19.25 0,0 106.75,0 106.75,-19.25"/>
<text text-anchor="middle" x="53.38" y="-5.75" font-family="Times,serif" font-size="10.00">mal_math::Intersection</text>
</a>
</g>
</g>
<!-- Node2 -->
<g id="Node000002" class="node">
<title>Node2</title>
<g id="a_Node000002"><a xlink:title=" ">
<polygon fill="white" stroke="#666666" points="56.38,-97 22.38,-97 22.38,-77.75 56.38,-77.75 56.38,-97"/>
<text text-anchor="middle" x="39.38" y="-83.5" font-family="Times,serif" font-size="10.00">float</text>
</a>
</g>
</g>
<!-- Node2&#45;&gt;Node1 -->
<g id="edge1_Node000001_Node000002" class="edge">
<title>Node2&#45;&gt;Node1</title>
<g id="a_edge1_Node000001_Node000002"><a xlink:title=" ">
<path fill="none" stroke="#9a32cd" stroke-dasharray="5,2" d="M43.12,-66.1C45.92,-50.95 49.61,-30.98 51.72,-19.6"/>
<polygon fill="#9a32cd" stroke="#9a32cd" points="39.69,-65.43 41.31,-75.9 46.57,-66.7 39.69,-65.43"/>
</a>
</g>
<text text-anchor="middle" x="52" y="-44.62" font-family="Times,serif" font-size="10.00" fill="grey"> t</text>
</g>
<!-- Node3 -->
<g id="Node000003" class="node">
<title>Node3</title>
<g id="a_Node000003"><a xlink:href="../../dd/dce/structmal__math_1_1vec.html" target="_top" xlink:title=" ">
<polygon fill="white" stroke="#666666" points="192.38,-97 74.38,-97 74.38,-77.75 192.38,-77.75 192.38,-97"/>
<text text-anchor="middle" x="133.38" y="-83.5" font-family="Times,serif" font-size="10.00">mal_math::vec&lt; 3, float &gt;</text>
</a>
</g>
</g>
<!-- Node3&#45;&gt;Node1 -->
<g id="edge2_Node000001_Node000003" class="edge">
<title>Node3&#45;&gt;Node1</title>
<g id="a_edge2_Node000001_Node000003"><a xlink:title=" ">
<path fill="none" stroke="#9a32cd" stroke-dasharray="5,2" d="M115.69,-69.63C99.4,-54.2 75.84,-31.89 62.85,-19.6"/>
<polygon fill="#9a32cd" stroke="#9a32cd" points="113.12,-72.01 122.78,-76.35 117.93,-66.93 113.12,-72.01"/>
</a>
</g>
<text text-anchor="middle" x="120" y="-50.25" font-family="Times,serif" font-size="10.00" fill="grey"> normal</text>
<text text-anchor="middle" x="120" y="-39" font-family="Times,serif" font-size="10.00" fill="grey">point</text>
</g>
<!-- Node4 -->
<g id="Node000004" class="node">
<title>Node4</title>
<g id="a_Node000004"><a xlink:title=" ">
<polygon fill="white" stroke="#666666" points="136.25,-230 32.5,-230 32.5,-210.75 136.25,-210.75 136.25,-230"/>
<text text-anchor="middle" x="84.38" y="-216.5" font-family="Times,serif" font-size="10.00">static constexpr size_t</text>
</a>
</g>
</g>
<!-- Node4&#45;&gt;Node3 -->
<g id="edge3_Node000003_Node000004" class="edge">
<title>Node4&#45;&gt;Node3</title>
<g id="a_edge3_Node000003_Node000004"><a xlink:title=" ">
<path fill="none" stroke="#9a32cd" stroke-dasharray="5,2" d="M68.36,-201.78C56.31,-186.3 43.44,-163.31 53.38,-144.25 65.2,-121.57 90.91,-106.2 110.01,-97.42"/>
<polygon fill="#9a32cd" stroke="#9a32cd" points="65.47,-203.78 74.58,-209.19 70.83,-199.28 65.47,-203.78"/>
</a>
</g>
<text text-anchor="middle" x="62.38" y="-150" font-family="Times,serif" font-size="10.00" fill="grey"> size</text>
</g>
<!-- Node8 -->
<g id="Node000008" class="node">
<title>Node8</title>
<g id="a_Node000008"><a xlink:href="../../dd/dce/structmal__math_1_1vec.html" target="_top" xlink:title="Definition of the mathematical vector with fixed size L and type T">
<polygon fill="white" stroke="#666666" points="186.75,-163.5 80,-163.5 80,-144.25 186.75,-144.25 186.75,-163.5"/>
<text text-anchor="middle" x="133.38" y="-150" font-family="Times,serif" font-size="10.00">mal_math::vec&lt; L, T &gt;</text>
</a>
</g>
</g>
<!-- Node4&#45;&gt;Node8 -->
<g id="edge9_Node000008_Node000004" class="edge">
<title>Node4&#45;&gt;Node8</title>
<g id="a_edge9_Node000008_Node000004"><a xlink:title=" ">
<path fill="none" stroke="#9a32cd" stroke-dasharray="5,2" d="M97.59,-201.26C102.22,-194.97 107.49,-187.9 112.38,-181.5 116.95,-175.51 122.2,-168.85 126.31,-163.7"/>
<polygon fill="#9a32cd" stroke="#9a32cd" points="94.96,-198.93 91.87,-209.07 100.6,-203.07 94.96,-198.93"/>
</a>
</g>
<text text-anchor="middle" x="121.38" y="-183.25" font-family="Times,serif" font-size="10.00" fill="grey"> size</text>
</g>
<!-- Node5 -->
<g id="Node000005" class="node">
<title>Node5</title>
<g id="a_Node000005"><a xlink:title=" ">
<polygon fill="white" stroke="#666666" points="260.12,-230 164.62,-230 164.62,-210.75 260.12,-210.75 260.12,-230"/>
<text text-anchor="middle" x="212.38" y="-216.5" font-family="Times,serif" font-size="10.00">std::array&lt; T, size &gt;</text>
</a>
</g>
</g>
<!-- Node5&#45;&gt;Node3 -->
<g id="edge4_Node000003_Node000005" class="edge">
<title>Node5&#45;&gt;Node3</title>
<g id="a_edge4_Node000003_Node000005"><a xlink:title=" ">
<path fill="none" stroke="#9a32cd" stroke-dasharray="5,2" d="M211.94,-198.8C210.38,-175.67 204.46,-138.31 183.38,-115 176.58,-107.49 167.16,-101.71 158.32,-97.49"/>
<polygon fill="#9a32cd" stroke="#9a32cd" points="208.44,-198.93 212.37,-208.77 215.44,-198.63 208.44,-198.93"/>
</a>
</g>
<text text-anchor="middle" x="217.12" y="-150" font-family="Times,serif" font-size="10.00" fill="grey"> data</text>
</g>
<!-- Node5&#45;&gt;Node8 -->
<g id="edge10_Node000008_Node000005" class="edge">
<title>Node5&#45;&gt;Node8</title>
<g id="a_edge10_Node000008_Node000005"><a xlink:title=" ">
<path fill="none" stroke="#9a32cd" stroke-dasharray="5,2" d="M192.73,-203.33C177.53,-190.92 157.02,-174.18 144.52,-163.98"/>
<polygon fill="#9a32cd" stroke="#9a32cd" points="190.26,-205.84 200.22,-209.45 194.69,-200.41 190.26,-205.84"/>
</a>
</g>
<text text-anchor="middle" x="188.12" y="-183.25" font-family="Times,serif" font-size="10.00" fill="grey"> data</text>
</g>
<!-- Node6 -->
<g id="Node000006" class="node">
<title>Node6</title>
<g id="a_Node000006"><a xlink:title=" ">
<polygon fill="white" stroke="#666666" points="211.78,-363 182.97,-363 182.97,-343.75 211.78,-343.75 211.78,-363"/>
<text text-anchor="middle" x="197.38" y="-349.5" font-family="Times,serif" font-size="10.00">T</text>
</a>
</g>
</g>
<!-- Node6&#45;&gt;Node5 -->
<g id="edge5_Node000005_Node000006" class="edge">
<title>Node6&#45;&gt;Node5</title>
<g id="a_edge5_Node000005_Node000006"><a xlink:title=" ">
<path fill="none" stroke="#9a32cd" stroke-dasharray="5,2" d="M192.12,-332.38C188.89,-317.16 186,-295.75 189.62,-277.25 193.05,-259.78 201.96,-240.87 207.56,-230.14"/>
<polygon fill="#9a32cd" stroke="#9a32cd" points="188.7,-333.12 194.43,-342.04 195.51,-331.5 188.7,-333.12"/>
</a>
</g>
<text text-anchor="middle" x="208.75" y="-283" font-family="Times,serif" font-size="10.00" fill="grey"> elements</text>
</g>
<!-- Node7 -->
<g id="Node000007" class="node">
<title>Node7</title>
<g id="a_Node000007"><a xlink:title=" ">
<polygon fill="white" stroke="#666666" points="311,-296.5 235.75,-296.5 235.75,-277.25 311,-277.25 311,-296.5"/>
<text text-anchor="middle" x="273.38" y="-283" font-family="Times,serif" font-size="10.00">std::array&lt; T &gt;</text>
</a>
</g>
</g>
<!-- Node6&#45;&gt;Node7 -->
<g id="edge7_Node000007_Node000006" class="edge">
<title>Node6&#45;&gt;Node7</title>
<g id="a_edge7_Node000007_Node000006"><a xlink:title=" ">
<path fill="none" stroke="#9a32cd" stroke-dasharray="5,2" d="M216.33,-336.29C231.05,-323.8 250.91,-306.94 262.9,-296.77"/>
<polygon fill="#9a32cd" stroke="#9a32cd" points="214.46,-333.29 209.1,-342.43 218.99,-338.63 214.46,-333.29"/>
</a>
</g>
<text text-anchor="middle" x="257.75" y="-316.25" font-family="Times,serif" font-size="10.00" fill="grey"> elements</text>
</g>
<!-- Node7&#45;&gt;Node5 -->
<g id="edge6_Node000005_Node000007" class="edge">
<title>Node7&#45;&gt;Node5</title>
<g id="a_edge6_Node000005_Node000007"><a xlink:title=" ">
<path fill="none" stroke="orange" stroke-dasharray="5,2" d="M257.15,-268.72C245.45,-256.35 230.13,-240.15 220.78,-230.27"/>
<polygon fill="orange" stroke="orange" points="254.44,-270.95 263.85,-275.81 259.52,-266.14 254.44,-270.95"/>
</a>
</g>
<text text-anchor="middle" x="268.88" y="-249.75" font-family="Times,serif" font-size="10.00" fill="grey"> &lt; T, size &gt;</text>
</g>
<!-- Node8&#45;&gt;Node3 -->
<g id="edge8_Node000003_Node000008" class="edge">
<title>Node8&#45;&gt;Node3</title>
<g id="a_edge8_Node000003_Node000008"><a xlink:title=" ">
<path fill="none" stroke="orange" stroke-dasharray="5,2" d="M133.38,-132.4C133.38,-120.57 133.38,-106.29 133.38,-97.27"/>
<polygon fill="orange" stroke="orange" points="129.88,-132.39 133.38,-142.39 136.88,-132.39 129.88,-132.39"/>
</a>
</g>
<text text-anchor="middle" x="156.62" y="-116.75" font-family="Times,serif" font-size="10.00" fill="grey"> &lt; 3, float &gt;</text>
</g>
</g>
</svg>
