<?xml version="1.0" encoding="UTF-8" standalone="no"?>
<!DOCTYPE svg PUBLIC "-//W3C//DTD SVG 1.1//EN"
 "http://www.w3.org/Graphics/SVG/1.1/DTD/svg11.dtd">
<!-- Generated by graphviz version 9.0.0 (20230911.1827)
 -->
<!-- Title: include/math/vec4.hpp Pages: 1 -->
<svg width="449pt" height="138pt"
 viewBox="0.00 0.00 448.50 137.75" xmlns="http://www.w3.org/2000/svg" xmlns:xlink="http://www.w3.org/1999/xlink">

<svg id="main" version="1.1" xmlns="http://www.w3.org/2000/svg" xmlns:xlink="http://www.w3.org/1999/xlink" xml:space="preserve" onload="init(evt)">
<style type="text/css"><![CDATA[
.node, .edge {opacity: 0.7;}
.node.selected, .edge.selected {opacity: 1;}
.edge:hover path { stroke: red; }
.edge:hover polygon { stroke: red; fill: red; }
]]></style>
<script type="application/ecmascript" xlink:href="../../svg.min.js"/>
<svg id="graph" class="graph">
<g id="graph0" class="graph" transform="scale(1 1) rotate(0) translate(4 133.75)">
<title>include/math/vec4.hpp</title>
<!-- Node1 -->
<g id="Node000001" class="node">
<title>Node1</title>
<g id="a_Node000001"><a xlink:title="Contains the definition of the vec&lt;4, T&gt; structure.">
<polygon fill="#999999" stroke="#666666" points="345.25,-129.75 237,-129.75 237,-110.5 345.25,-110.5 345.25,-129.75"/>
<text text-anchor="middle" x="291.12" y="-116.25" font-family="Times,serif" font-size="10.00">include/math/vec4.hpp</text>
</a>
</g>
</g>
<!-- Node2 -->
<g id="Node000002" class="node">
<title>Node2</title>
<g id="a_Node000002"><a xlink:href="../../d8/d24/math-common_8hpp.html" target="_top" xlink:title=" ">
<polygon fill="white" stroke="#666666" points="249.62,-74.5 158.62,-74.5 158.62,-55.25 249.62,-55.25 249.62,-74.5"/>
<text text-anchor="middle" x="204.12" y="-61" font-family="Times,serif" font-size="10.00">math&#45;common.hpp</text>
</a>
</g>
</g>
<!-- Node1&#45;&gt;Node2 -->
<g id="edge1_Node000001_Node000002" class="edge">
<title>Node1&#45;&gt;Node2</title>
<g id="a_edge1_Node000001_Node000002"><a xlink:title=" ">
<path fill="none" stroke="#63b8ff" d="M276.37,-110.09C263.24,-102.06 243.8,-90.16 228.39,-80.73"/>
<polygon fill="#63b8ff" stroke="#63b8ff" points="230.6,-77.98 220.25,-75.74 226.95,-83.95 230.6,-77.98"/>
</a>
</g>
</g>
<!-- Node10 -->
<g id="Node000010" class="node">
<title>Node10</title>
<g id="a_Node000010"><a xlink:href="../../da/d28/vec4_8inl.html" target="_top" xlink:title=" ">
<polygon fill="white" stroke="#666666" points="314.88,-74.5 267.38,-74.5 267.38,-55.25 314.88,-55.25 314.88,-74.5"/>
<text text-anchor="middle" x="291.12" y="-61" font-family="Times,serif" font-size="10.00">vec4.inl</text>
</a>
</g>
</g>
<!-- Node1&#45;&gt;Node10 -->
<g id="edge9_Node000001_Node000010" class="edge">
<title>Node1&#45;&gt;Node10</title>
<g id="a_edge9_Node000001_Node000010"><a xlink:title=" ">
<path fill="none" stroke="#63b8ff" d="M285.96,-110.33C284.55,-103.74 284.08,-94.46 284.55,-86.07"/>
<polygon fill="#63b8ff" stroke="#63b8ff" points="288,-86.71 285.74,-76.36 281.05,-85.87 288,-86.71"/>
</a>
</g>
</g>
<!-- Node3 -->
<g id="Node000003" class="node">
<title>Node3</title>
<g id="a_Node000003"><a xlink:title=" ">
<polygon fill="#e0e0e0" stroke="#999999" points="36.25,-19.25 0,-19.25 0,0 36.25,0 36.25,-19.25"/>
<text text-anchor="middle" x="18.12" y="-5.75" font-family="Times,serif" font-size="10.00">array</text>
</a>
</g>
</g>
<!-- Node2&#45;&gt;Node3 -->
<g id="edge2_Node000002_Node000003" class="edge">
<title>Node2&#45;&gt;Node3</title>
<g id="a_edge2_Node000002_Node000003"><a xlink:title=" ">
<path fill="none" stroke="#63b8ff" d="M171.07,-54.78C141.25,-46.53 95.92,-33.84 47.24,-19.52"/>
<polygon fill="#63b8ff" stroke="#63b8ff" points="48.51,-16.25 37.93,-16.78 46.53,-22.96 48.51,-16.25"/>
</a>
</g>
</g>
<!-- Node4 -->
<g id="Node000004" class="node">
<title>Node4</title>
<g id="a_Node000004"><a xlink:title=" ">
<polygon fill="#e0e0e0" stroke="#999999" points="101.5,-19.25 54.75,-19.25 54.75,0 101.5,0 101.5,-19.25"/>
<text text-anchor="middle" x="78.12" y="-5.75" font-family="Times,serif" font-size="10.00">assert.h</text>
</a>
</g>
</g>
<!-- Node2&#45;&gt;Node4 -->
<g id="edge3_Node000002_Node000004" class="edge">
<title>Node2&#45;&gt;Node4</title>
<g id="a_edge3_Node000002_Node000004"><a xlink:title=" ">
<path fill="none" stroke="#63b8ff" d="M182.75,-54.84C162.84,-46.43 132.89,-33.77 110.12,-24.15"/>
<polygon fill="#63b8ff" stroke="#63b8ff" points="111.57,-20.96 101,-20.29 108.85,-27.41 111.57,-20.96"/>
</a>
</g>
</g>
<!-- Node5 -->
<g id="Node000005" class="node">
<title>Node5</title>
<g id="a_Node000005"><a xlink:title=" ">
<polygon fill="#e0e0e0" stroke="#999999" points="160.5,-19.25 119.75,-19.25 119.75,0 160.5,0 160.5,-19.25"/>
<text text-anchor="middle" x="140.12" y="-5.75" font-family="Times,serif" font-size="10.00">cmath</text>
</a>
</g>
</g>
<!-- Node2&#45;&gt;Node5 -->
<g id="edge4_Node000002_Node000005" class="edge">
<title>Node2&#45;&gt;Node5</title>
<g id="a_edge4_Node000002_Node000005"><a xlink:title=" ">
<path fill="none" stroke="#63b8ff" d="M193.27,-54.84C184.02,-47.15 170.5,-35.9 159.42,-26.68"/>
<polygon fill="#63b8ff" stroke="#63b8ff" points="161.91,-24.2 151.98,-20.49 157.43,-29.58 161.91,-24.2"/>
</a>
</g>
</g>
<!-- Node6 -->
<g id="Node000006" class="node">
<title>Node6</title>
<g id="a_Node000006"><a xlink:title=" ">
<polygon fill="#e0e0e0" stroke="#999999" points="229.38,-19.25 178.88,-19.25 178.88,0 229.38,0 229.38,-19.25"/>
<text text-anchor="middle" x="204.12" y="-5.75" font-family="Times,serif" font-size="10.00">concepts</text>
</a>
</g>
</g>
<!-- Node2&#45;&gt;Node6 -->
<g id="edge5_Node000002_Node000006" class="edge">
<title>Node2&#45;&gt;Node6</title>
<g id="a_edge5_Node000002_Node000006"><a xlink:title=" ">
<path fill="none" stroke="#63b8ff" d="M204.12,-55.08C204.12,-48.57 204.12,-39.42 204.12,-31.12"/>
<polygon fill="#63b8ff" stroke="#63b8ff" points="207.63,-31.12 204.13,-21.12 200.63,-31.12 207.63,-31.12"/>
</a>
</g>
</g>
<!-- Node7 -->
<g id="Node000007" class="node">
<title>Node7</title>
<g id="a_Node000007"><a xlink:title=" ">
<polygon fill="#e0e0e0" stroke="#999999" points="298.38,-19.25 247.88,-19.25 247.88,0 298.38,0 298.38,-19.25"/>
<text text-anchor="middle" x="273.12" y="-5.75" font-family="Times,serif" font-size="10.00">numbers</text>
</a>
</g>
</g>
<!-- Node2&#45;&gt;Node7 -->
<g id="edge6_Node000002_Node000007" class="edge">
<title>Node2&#45;&gt;Node7</title>
<g id="a_edge6_Node000002_Node000007"><a xlink:title=" ">
<path fill="none" stroke="#63b8ff" d="M215.83,-54.84C225.9,-47.07 240.67,-35.67 252.69,-26.4"/>
<polygon fill="#63b8ff" stroke="#63b8ff" points="254.62,-29.33 260.39,-20.45 250.34,-23.79 254.62,-29.33"/>
</a>
</g>
</g>
<!-- Node8 -->
<g id="Node000008" class="node">
<title>Node8</title>
<g id="a_Node000008"><a xlink:title=" ">
<polygon fill="#e0e0e0" stroke="#999999" points="363.88,-19.25 316.38,-19.25 316.38,0 363.88,0 363.88,-19.25"/>
<text text-anchor="middle" x="340.12" y="-5.75" font-family="Times,serif" font-size="10.00">ostream</text>
</a>
</g>
</g>
<!-- Node2&#45;&gt;Node8 -->
<g id="edge7_Node000002_Node000008" class="edge">
<title>Node2&#45;&gt;Node8</title>
<g id="a_edge7_Node000002_Node000008"><a xlink:title=" ">
<path fill="none" stroke="#63b8ff" d="M227.2,-54.84C248.88,-46.35 281.61,-33.54 306.25,-23.89"/>
<polygon fill="#63b8ff" stroke="#63b8ff" points="307.5,-27.16 315.53,-20.25 304.94,-20.64 307.5,-27.16"/>
</a>
</g>
</g>
<!-- Node9 -->
<g id="Node000009" class="node">
<title>Node9</title>
<g id="a_Node000009"><a xlink:title=" ">
<polygon fill="#e0e0e0" stroke="#999999" points="440.5,-19.25 381.75,-19.25 381.75,0 440.5,0 440.5,-19.25"/>
<text text-anchor="middle" x="411.12" y="-5.75" font-family="Times,serif" font-size="10.00">type_traits</text>
</a>
</g>
</g>
<!-- Node2&#45;&gt;Node9 -->
<g id="edge8_Node000002_Node000009" class="edge">
<title>Node2&#45;&gt;Node9</title>
<g id="a_edge8_Node000002_Node000009"><a xlink:title=" ">
<path fill="none" stroke="#63b8ff" d="M239.24,-54.84C275.67,-45.47 332.56,-30.84 370.8,-21"/>
<polygon fill="#63b8ff" stroke="#63b8ff" points="371.27,-24.49 380.08,-18.61 369.53,-17.71 371.27,-24.49"/>
</a>
</g>
</g>
<!-- Node10&#45;&gt;Node1 -->
<g id="edge10_Node000010_Node000001" class="edge">
<title>Node10&#45;&gt;Node1</title>
<g id="a_edge10_Node000010_Node000001"><a xlink:title=" ">
<path fill="none" stroke="#63b8ff" d="M296.33,-74.86C297.72,-81.5 298.17,-90.8 297.68,-99.17"/>
<polygon fill="#63b8ff" stroke="#63b8ff" points="294.24,-98.47 296.48,-108.83 301.19,-99.34 294.24,-98.47"/>
</a>
</g>
</g>
</g>
</svg>
</svg>

<style type='text/css'>
<![CDATA[
[data-mouse-over-selected='false'] { opacity: 0.7; }
[data-mouse-over-selected='true']  { opacity: 1.0; }
]]>
</style>
<script type="application/ecmascript"><![CDATA[
document.addEventListener('DOMContentLoaded', (event) => {
  highlightEdges();
  highlightAdjacentNodes();
});
]]></script>
</svg>
