<?xml version="1.0" encoding="UTF-8" standalone="no"?>
<!DOCTYPE svg PUBLIC "-//W3C//DTD SVG 1.1//EN"
 "http://www.w3.org/Graphics/SVG/1.1/DTD/svg11.dtd">
<!-- Generated by graphviz version 9.0.0 (20230911.1827)
 -->
<!-- Title: mal_math::mat::unpack_data Pages: 1 -->
<svg width="307pt" height="64pt"
 viewBox="0.00 0.00 307.00 64.25" xmlns="http://www.w3.org/2000/svg" xmlns:xlink="http://www.w3.org/1999/xlink">
<g id="graph0" class="graph" transform="scale(1 1) rotate(0) translate(4 60.25)">
<title>mal_math::mat::unpack_data</title>
<!-- Node1 -->
<g id="Node000001" class="node">
<title>Node1</title>
<g id="a_Node000001"><a xlink:title="Recursively unpacks multiple values into the matrix data.">
<polygon fill="#999999" stroke="#666666" points="132.25,-37.25 0,-37.25 0,-18 132.25,-18 132.25,-37.25"/>
<text text-anchor="middle" x="66.12" y="-23.75" font-family="Times,serif" font-size="10.00">mal_math::mat::unpack_data</text>
</a>
</g>
</g>
<!-- Node2 -->
<g id="Node000002" class="node">
<title>Node2</title>
<g id="a_Node000002"><a xlink:href="../../dd/dce/structmal__math_1_1vec.html#a67813dc45c4bd24932563730ea5e7b42" target="_top" xlink:title="Unpacks a single primitive value into the vector data.">
<polygon fill="white" stroke="#666666" points="299,-56.25 168.25,-56.25 168.25,-37 299,-37 299,-56.25"/>
<text text-anchor="middle" x="233.62" y="-42.75" font-family="Times,serif" font-size="10.00">mal_math::vec::unpack_data</text>
</a>
</g>
</g>
<!-- Node1&#45;&gt;Node2 -->
<g id="edge1_Node000001_Node000002" class="edge">
<title>Node1&#45;&gt;Node2</title>
<g id="a_edge1_Node000001_Node000002"><a xlink:title=" ">
<path fill="none" stroke="#63b8ff" d="M132.53,-35.13C140.46,-36.04 148.6,-36.98 156.66,-37.9"/>
<polygon fill="#63b8ff" stroke="#63b8ff" points="156.12,-41.37 166.46,-39.03 156.92,-34.41 156.12,-41.37"/>
</a>
</g>
</g>
<!-- Node3 -->
<g id="Node000003" class="node">
<title>Node3</title>
<g id="a_Node000003"><a xlink:href="../../dd/dce/structmal__math_1_1vec.html#a9dd6ae5456770afade593ebb10ee6f76" target="_top" xlink:title="Default constructor.">
<polygon fill="white" stroke="#666666" points="279.5,-19.25 187.75,-19.25 187.75,0 279.5,0 279.5,-19.25"/>
<text text-anchor="middle" x="233.62" y="-5.75" font-family="Times,serif" font-size="10.00">mal_math::vec::vec</text>
</a>
</g>
</g>
<!-- Node1&#45;&gt;Node3 -->
<g id="edge2_Node000001_Node000003" class="edge">
<title>Node1&#45;&gt;Node3</title>
<g id="a_edge2_Node000001_Node000003"><a xlink:title=" ">
<path fill="none" stroke="#63b8ff" d="M132.53,-20.51C147.08,-18.93 162.37,-17.27 176.5,-15.73"/>
<polygon fill="#63b8ff" stroke="#63b8ff" points="176.48,-19.25 186.05,-14.69 175.73,-12.29 176.48,-19.25"/>
</a>
</g>
</g>
</g>
</svg>
