<?xml version="1.0" encoding="UTF-8" standalone="no"?>
<!DOCTYPE svg PUBLIC "-//W3C//DTD SVG 1.1//EN"
 "http://www.w3.org/Graphics/SVG/1.1/DTD/svg11.dtd">
<!-- Generated by graphviz version 9.0.0 (20230911.1827)
 -->
<!-- Title: include/math/plane.hpp Pages: 1 -->
<svg width="996pt" height="469pt"
 viewBox="0.00 0.00 996.38 469.25" xmlns="http://www.w3.org/2000/svg" xmlns:xlink="http://www.w3.org/1999/xlink">
<g id="graph0" class="graph" transform="scale(1 1) rotate(0) translate(4 465.25)">
<title>include/math/plane.hpp</title>
<!-- Node1 -->
<g id="Node000001" class="node">
<title>Node1</title>
<g id="a_Node000001"><a xlink:title="Provides the definition of the Plane structure and its associated operations.">
<polygon fill="#999999" stroke="#666666" points="644.38,-461.25 533.88,-461.25 533.88,-442 644.38,-442 644.38,-461.25"/>
<text text-anchor="middle" x="589.12" y="-447.75" font-family="Times,serif" font-size="10.00">include/math/plane.hpp</text>
</a>
</g>
</g>
<!-- Node2 -->
<g id="Node000002" class="node">
<title>Node2</title>
<g id="a_Node000002"><a xlink:href="../../d6/d02/intersection_8hpp.html" target="_top" xlink:title="Provides functionalities to represent and handle intersections in 3D space.">
<polygon fill="white" stroke="#666666" points="697.38,-406 616.88,-406 616.88,-386.75 697.38,-386.75 697.38,-406"/>
<text text-anchor="middle" x="657.12" y="-392.5" font-family="Times,serif" font-size="10.00">intersection.hpp</text>
</a>
</g>
</g>
<!-- Node1&#45;&gt;Node2 -->
<g id="edge1_Node000001_Node000002" class="edge">
<title>Node1&#45;&gt;Node2</title>
<g id="a_edge1_Node000001_Node000002"><a xlink:title=" ">
<path fill="none" stroke="#63b8ff" d="M600.66,-441.59C610.59,-433.82 625.14,-422.42 636.98,-413.15"/>
<polygon fill="#63b8ff" stroke="#63b8ff" points="638.85,-416.13 644.57,-407.21 634.54,-410.62 638.85,-416.13"/>
</a>
</g>
</g>
<!-- Node36 -->
<g id="Node000036" class="node">
<title>Node36</title>
<g id="a_Node000036"><a xlink:href="../../db/d1d/ray_8hpp.html" target="_top" xlink:title="Contains the definition of the Ray class.">
<polygon fill="white" stroke="#666666" points="685.75,-240.25 616.5,-240.25 616.5,-221 685.75,-221 685.75,-240.25"/>
<text text-anchor="middle" x="651.12" y="-226.75" font-family="Times,serif" font-size="10.00">math/ray.hpp</text>
</a>
</g>
</g>
<!-- Node1&#45;&gt;Node36 -->
<g id="edge73_Node000001_Node000036" class="edge">
<title>Node1&#45;&gt;Node36</title>
<g id="a_edge73_Node000001_Node000036"><a xlink:title=" ">
<path fill="none" stroke="#63b8ff" d="M558.8,-441.51C485.23,-417.94 307.92,-351.55 372.12,-276.25 401.48,-241.82 533.41,-233.84 604.84,-232.07"/>
<polygon fill="#63b8ff" stroke="#63b8ff" points="604.74,-235.57 614.66,-231.86 604.59,-228.57 604.74,-235.57"/>
</a>
</g>
</g>
<!-- Node3 -->
<g id="Node000003" class="node">
<title>Node3</title>
<g id="a_Node000003"><a xlink:href="../../d4/d78/math_8hpp.html" target="_top" xlink:title="Provides various mathematical utilities, vector operations, and custom hash specializations.">
<polygon fill="white" stroke="#666666" points="688,-350.75 626.25,-350.75 626.25,-331.5 688,-331.5 688,-350.75"/>
<text text-anchor="middle" x="657.12" y="-337.25" font-family="Times,serif" font-size="10.00">../math.hpp</text>
</a>
</g>
</g>
<!-- Node2&#45;&gt;Node3 -->
<g id="edge2_Node000002_Node000003" class="edge">
<title>Node2&#45;&gt;Node3</title>
<g id="a_edge2_Node000002_Node000003"><a xlink:title=" ">
<path fill="none" stroke="#63b8ff" d="M651.96,-386.58C650.55,-379.99 650.08,-370.71 650.55,-362.32"/>
<polygon fill="#63b8ff" stroke="#63b8ff" points="654,-362.96 651.74,-352.61 647.05,-362.12 654,-362.96"/>
</a>
</g>
</g>
<!-- Node3&#45;&gt;Node1 -->
<g id="edge61_Node000003_Node000001" class="edge">
<title>Node3&#45;&gt;Node1</title>
<g id="a_edge61_Node000003_Node000001"><a xlink:title=" ">
<path fill="none" stroke="#63b8ff" d="M643.6,-351.22C632.55,-359.32 617.3,-372.13 608.12,-386.75 599.73,-400.12 594.89,-417.37 592.2,-430.58"/>
<polygon fill="#63b8ff" stroke="#63b8ff" points="588.78,-429.8 590.49,-440.25 595.67,-431.01 588.78,-429.8"/>
</a>
</g>
</g>
<!-- Node3&#45;&gt;Node2 -->
<g id="edge58_Node000003_Node000002" class="edge">
<title>Node3&#45;&gt;Node2</title>
<g id="a_edge58_Node000003_Node000002"><a xlink:title=" ">
<path fill="none" stroke="#63b8ff" d="M662.33,-351.11C663.72,-357.75 664.17,-367.05 663.68,-375.42"/>
<polygon fill="#63b8ff" stroke="#63b8ff" points="660.24,-374.72 662.48,-385.08 667.19,-375.59 660.24,-374.72"/>
</a>
</g>
</g>
<!-- Node4 -->
<g id="Node000004" class="node">
<title>Node4</title>
<g id="a_Node000004"><a xlink:href="../../dc/dc2/mat_8hpp.html" target="_top" xlink:title="Provides matrix definitions tailored for various sizes and primitive types.">
<polygon fill="white" stroke="#666666" points="898.25,-240.25 826,-240.25 826,-221 898.25,-221 898.25,-240.25"/>
<text text-anchor="middle" x="862.12" y="-226.75" font-family="Times,serif" font-size="10.00">math/mat.hpp</text>
</a>
</g>
</g>
<!-- Node3&#45;&gt;Node4 -->
<g id="edge3_Node000003_Node000004" class="edge">
<title>Node3&#45;&gt;Node4</title>
<g id="a_edge3_Node000003_Node000004"><a xlink:title=" ">
<path fill="none" stroke="#63b8ff" d="M688.49,-336.41C735.5,-330.22 821.07,-316.4 843.12,-295.5 855.08,-284.17 859.61,-265.7 861.28,-251.53"/>
<polygon fill="#63b8ff" stroke="#63b8ff" points="864.74,-252.21 862.01,-241.97 857.76,-251.68 864.74,-252.21"/>
</a>
</g>
</g>
<!-- Node3&#45;&gt;Node36 -->
<g id="edge56_Node000003_Node000036" class="edge">
<title>Node3&#45;&gt;Node36</title>
<g id="a_edge56_Node000003_Node000036"><a xlink:title=" ">
<path fill="none" stroke="#63b8ff" d="M654.94,-331.02C656.82,-318.63 663.91,-295.75 660.12,-276.25 658.49,-267.85 655.29,-259.02 652.6,-251.46"/>
<polygon fill="#63b8ff" stroke="#63b8ff" points="655.93,-250.4 649.5,-241.98 649.28,-252.57 655.93,-250.4"/>
</a>
</g>
</g>
<!-- Node37 -->
<g id="Node000037" class="node">
<title>Node37</title>
<g id="a_Node000037"><a xlink:href="../../d9/d6c/triangle_8hpp.html" target="_top" xlink:title="Defines the Triangle structure and methods for ray&#45;triangle intersection.">
<polygon fill="white" stroke="#666666" points="468.75,-295.5 381.5,-295.5 381.5,-276.25 468.75,-276.25 468.75,-295.5"/>
<text text-anchor="middle" x="425.12" y="-282" font-family="Times,serif" font-size="10.00">math/triangle.hpp</text>
</a>
</g>
</g>
<!-- Node3&#45;&gt;Node37 -->
<g id="edge59_Node000003_Node000037" class="edge">
<title>Node3&#45;&gt;Node37</title>
<g id="a_edge59_Node000003_Node000037"><a xlink:title=" ">
<path fill="none" stroke="#63b8ff" d="M626.02,-334.02C585.96,-325.4 516.37,-309.52 470.46,-298.59"/>
<polygon fill="#63b8ff" stroke="#63b8ff" points="471.35,-295.2 460.81,-296.28 469.72,-302.01 471.35,-295.2"/>
</a>
</g>
</g>
<!-- Node38 -->
<g id="Node000038" class="node">
<title>Node38</title>
<g id="a_Node000038"><a xlink:href="../../d7/de4/box_8hpp.html" target="_top" xlink:title="Defines a templated bounding box class for 3D primitives.">
<polygon fill="white" stroke="#666666" points="557.88,-295.5 486.38,-295.5 486.38,-276.25 557.88,-276.25 557.88,-295.5"/>
<text text-anchor="middle" x="522.12" y="-282" font-family="Times,serif" font-size="10.00">math/box.hpp</text>
</a>
</g>
</g>
<!-- Node3&#45;&gt;Node38 -->
<g id="edge62_Node000003_Node000038" class="edge">
<title>Node3&#45;&gt;Node38</title>
<g id="a_edge62_Node000003_Node000038"><a xlink:title=" ">
<path fill="none" stroke="#63b8ff" d="M629.01,-331.09C605.92,-322.68 573.58,-310.02 550.45,-300.4"/>
<polygon fill="#63b8ff" stroke="#63b8ff" points="551.88,-297.2 541.31,-296.54 549.16,-303.65 551.88,-297.2"/>
</a>
</g>
</g>
<!-- Node39 -->
<g id="Node000039" class="node">
<title>Node39</title>
<g id="a_Node000039"><a xlink:href="../../db/d65/quaternion_8hpp.html" target="_top" xlink:title="Quaternion operations and related mathematical functions.">
<polygon fill="white" stroke="#666666" points="834.12,-295.5 734.12,-295.5 734.12,-276.25 834.12,-276.25 834.12,-295.5"/>
<text text-anchor="middle" x="784.12" y="-282" font-family="Times,serif" font-size="10.00">math/quaternion.hpp</text>
</a>
</g>
</g>
<!-- Node3&#45;&gt;Node39 -->
<g id="edge64_Node000003_Node000039" class="edge">
<title>Node3&#45;&gt;Node39</title>
<g id="a_edge64_Node000003_Node000039"><a xlink:title=" ">
<path fill="none" stroke="#63b8ff" d="M678.67,-331.09C698.74,-322.68 728.93,-310.02 751.87,-300.4"/>
<polygon fill="#63b8ff" stroke="#63b8ff" points="753.21,-303.63 761.08,-296.54 750.5,-297.18 753.21,-303.63"/>
</a>
</g>
</g>
<!-- Node41 -->
<g id="Node000041" class="node">
<title>Node41</title>
<g id="a_Node000041"><a xlink:href="../../d0/da1/sphere_8hpp.html" target="_top" xlink:title="Defines the Sphere structure and its associated functionality.">
<polygon fill="white" stroke="#666666" points="659.88,-295.5 576.38,-295.5 576.38,-276.25 659.88,-276.25 659.88,-295.5"/>
<text text-anchor="middle" x="618.12" y="-282" font-family="Times,serif" font-size="10.00">math/sphere.hpp</text>
</a>
</g>
</g>
<!-- Node3&#45;&gt;Node41 -->
<g id="edge68_Node000003_Node000041" class="edge">
<title>Node3&#45;&gt;Node41</title>
<g id="a_edge68_Node000003_Node000041"><a xlink:title=" ">
<path fill="none" stroke="#63b8ff" d="M650.68,-331.33C645.47,-324.21 637.94,-313.93 631.43,-305.05"/>
<polygon fill="#63b8ff" stroke="#63b8ff" points="634.33,-303.08 625.6,-297.08 628.68,-307.22 634.33,-303.08"/>
</a>
</g>
</g>
<!-- Node42 -->
<g id="Node000042" class="node">
<title>Node42</title>
<g id="a_Node000042"><a xlink:href="../../d1/df2/random_8hpp.html" target="_top" xlink:title="Provides functionality for random number generation and manipulation in vector spaces.">
<polygon fill="white" stroke="#666666" points="977.75,-295.5 890.5,-295.5 890.5,-276.25 977.75,-276.25 977.75,-295.5"/>
<text text-anchor="middle" x="934.12" y="-282" font-family="Times,serif" font-size="10.00">math/random.hpp</text>
</a>
</g>
</g>
<!-- Node3&#45;&gt;Node42 -->
<g id="edge70_Node000003_Node000042" class="edge">
<title>Node3&#45;&gt;Node42</title>
<g id="a_edge70_Node000003_Node000042"><a xlink:title=" ">
<path fill="none" stroke="#63b8ff" d="M688.34,-333.22C734.7,-323.83 822.1,-306.99 879.26,-296.4"/>
<polygon fill="#63b8ff" stroke="#63b8ff" points="879.58,-299.9 888.78,-294.64 878.31,-293.02 879.58,-299.9"/>
</a>
</g>
</g>
<!-- Node5 -->
<g id="Node000005" class="node">
<title>Node5</title>
<g id="a_Node000005"><a xlink:href="../../df/dc2/vec__math_8hpp.html" target="_top" xlink:title="Contains a collection of mathematical operations and utility functions for vector objects.">
<polygon fill="white" stroke="#666666" points="697.62,-185 624.62,-185 624.62,-165.75 697.62,-165.75 697.62,-185"/>
<text text-anchor="middle" x="661.12" y="-171.5" font-family="Times,serif" font-size="10.00">vec_math.hpp</text>
</a>
</g>
</g>
<!-- Node4&#45;&gt;Node5 -->
<g id="edge4_Node000004_Node000005" class="edge">
<title>Node4&#45;&gt;Node5</title>
<g id="a_edge4_Node000004_Node000005"><a xlink:title=" ">
<path fill="none" stroke="#63b8ff" d="M828.03,-220.59C794.53,-211.72 743.22,-198.12 706.34,-188.35"/>
<polygon fill="#63b8ff" stroke="#63b8ff" points="707.42,-185.02 696.85,-185.84 705.62,-191.78 707.42,-185.02"/>
</a>
</g>
</g>
<!-- Node30 -->
<g id="Node000030" class="node">
<title>Node30</title>
<g id="a_Node000030"><a xlink:href="../../dd/dad/matnxn_8hpp.html" target="_top" xlink:title="Provides the definition of a generic NxN matrix for mathematical operations.">
<polygon fill="white" stroke="#666666" points="810.12,-185 746.12,-185 746.12,-165.75 810.12,-165.75 810.12,-185"/>
<text text-anchor="middle" x="778.12" y="-171.5" font-family="Times,serif" font-size="10.00">matnxn.hpp</text>
</a>
</g>
</g>
<!-- Node4&#45;&gt;Node30 -->
<g id="edge44_Node000004_Node000030" class="edge">
<title>Node4&#45;&gt;Node30</title>
<g id="a_edge44_Node000004_Node000030"><a xlink:title=" ">
<path fill="none" stroke="#63b8ff" d="M842.66,-220.59C828.64,-212.74 810.1,-201.2 796.38,-191.87"/>
<polygon fill="#63b8ff" stroke="#63b8ff" points="798.41,-189.02 788.21,-186.14 794.39,-194.75 798.41,-189.02"/>
</a>
</g>
</g>
<!-- Node32 -->
<g id="Node000032" class="node">
<title>Node32</title>
<g id="a_Node000032"><a xlink:href="../../db/de9/rmatnxn_8hpp.html" target="_top" xlink:title="Specialized representation of matrices using reference semantics.">
<polygon fill="white" stroke="#666666" points="896,-185 828.25,-185 828.25,-165.75 896,-165.75 896,-185"/>
<text text-anchor="middle" x="862.12" y="-171.5" font-family="Times,serif" font-size="10.00">rmatnxn.hpp</text>
</a>
</g>
</g>
<!-- Node4&#45;&gt;Node32 -->
<g id="edge48_Node000004_Node000032" class="edge">
<title>Node4&#45;&gt;Node32</title>
<g id="a_edge48_Node000004_Node000032"><a xlink:title=" ">
<path fill="none" stroke="#63b8ff" d="M856.96,-220.83C855.55,-214.24 855.08,-204.96 855.55,-196.57"/>
<polygon fill="#63b8ff" stroke="#63b8ff" points="859,-197.21 856.74,-186.86 852.05,-196.37 859,-197.21"/>
</a>
</g>
</g>
<!-- Node34 -->
<g id="Node000034" class="node">
<title>Node34</title>
<g id="a_Node000034"><a xlink:href="../../dc/d4a/mat__math_8hpp.html" target="_top" xlink:title="Defines various matrix mathematical operations.">
<polygon fill="white" stroke="#666666" points="988.38,-185 913.88,-185 913.88,-165.75 988.38,-165.75 988.38,-185"/>
<text text-anchor="middle" x="951.12" y="-171.5" font-family="Times,serif" font-size="10.00">mat_math.hpp</text>
</a>
</g>
</g>
<!-- Node4&#45;&gt;Node34 -->
<g id="edge52_Node000004_Node000034" class="edge">
<title>Node4&#45;&gt;Node34</title>
<g id="a_edge52_Node000004_Node000034"><a xlink:title=" ">
<path fill="none" stroke="#63b8ff" d="M872.01,-220.59C883.87,-212.48 903.72,-200.43 920.65,-190.96"/>
<polygon fill="#63b8ff" stroke="#63b8ff" points="922.3,-194.05 929.4,-186.18 918.95,-187.9 922.3,-194.05"/>
</a>
</g>
</g>
<!-- Node6 -->
<g id="Node000006" class="node">
<title>Node6</title>
<g id="a_Node000006"><a xlink:href="../../d7/d7c/vec_8hpp.html" target="_top" xlink:title=" ">
<polygon fill="white" stroke="#666666" points="730.88,-129.75 683.38,-129.75 683.38,-110.5 730.88,-110.5 730.88,-129.75"/>
<text text-anchor="middle" x="707.12" y="-116.25" font-family="Times,serif" font-size="10.00">vec.hpp</text>
</a>
</g>
</g>
<!-- Node5&#45;&gt;Node6 -->
<g id="edge5_Node000005_Node000006" class="edge">
<title>Node5&#45;&gt;Node6</title>
<g id="a_edge5_Node000005_Node000006"><a xlink:title=" ">
<path fill="none" stroke="#63b8ff" d="M668.72,-165.58C675.01,-158.3 684.14,-147.73 691.92,-138.73"/>
<polygon fill="#63b8ff" stroke="#63b8ff" points="694.49,-141.11 698.37,-131.25 689.19,-136.53 694.49,-141.11"/>
</a>
</g>
</g>
<!-- Node29 -->
<g id="Node000029" class="node">
<title>Node29</title>
<g id="a_Node000029"><a xlink:href="../../dc/d15/vec__math_8inl.html" target="_top" xlink:title=" ">
<polygon fill="white" stroke="#666666" points="665,-129.75 597.25,-129.75 597.25,-110.5 665,-110.5 665,-129.75"/>
<text text-anchor="middle" x="631.12" y="-116.25" font-family="Times,serif" font-size="10.00">vec_math.inl</text>
</a>
</g>
</g>
<!-- Node5&#45;&gt;Node29 -->
<g id="edge42_Node000005_Node000029" class="edge">
<title>Node5&#45;&gt;Node29</title>
<g id="a_edge42_Node000005_Node000029"><a xlink:title=" ">
<path fill="none" stroke="#63b8ff" d="M651,-165.58C645.7,-158.76 639.78,-149.06 635.49,-140.45"/>
<polygon fill="#63b8ff" stroke="#63b8ff" points="638.79,-139.26 631.59,-131.5 632.38,-142.06 638.79,-139.26"/>
</a>
</g>
</g>
<!-- Node7 -->
<g id="Node000007" class="node">
<title>Node7</title>
<g id="a_Node000007"><a xlink:href="../../d8/d24/math-common_8hpp.html" target="_top" xlink:title=" ">
<polygon fill="white" stroke="#666666" points="284.62,-74.5 193.62,-74.5 193.62,-55.25 284.62,-55.25 284.62,-74.5"/>
<text text-anchor="middle" x="239.12" y="-61" font-family="Times,serif" font-size="10.00">math&#45;common.hpp</text>
</a>
</g>
</g>
<!-- Node6&#45;&gt;Node7 -->
<g id="edge6_Node000006_Node000007" class="edge">
<title>Node6&#45;&gt;Node7</title>
<g id="a_edge6_Node000006_Node000007"><a xlink:title=" ">
<path fill="none" stroke="#63b8ff" d="M683.07,-112.38C680.07,-111.68 677.04,-111.03 674.12,-110.5 539.81,-86.21 379.59,-74.03 296.11,-68.93"/>
<polygon fill="#63b8ff" stroke="#63b8ff" points="296.55,-65.45 286.36,-68.34 296.13,-72.43 296.55,-65.45"/>
</a>
</g>
</g>
<!-- Node15 -->
<g id="Node000015" class="node">
<title>Node15</title>
<g id="a_Node000015"><a xlink:href="../../d4/d44/rvec2_8hpp.html" target="_top" xlink:title="Definitions for the rvec&lt;2, T&gt; specialized template representing 2D vectors with reference&#45;like seman...">
<polygon fill="white" stroke="#666666" points="512.38,-74.5 455.88,-74.5 455.88,-55.25 512.38,-55.25 512.38,-74.5"/>
<text text-anchor="middle" x="484.12" y="-61" font-family="Times,serif" font-size="10.00">rvec2.hpp</text>
</a>
</g>
</g>
<!-- Node6&#45;&gt;Node15 -->
<g id="edge14_Node000006_Node000015" class="edge">
<title>Node6&#45;&gt;Node15</title>
<g id="a_edge14_Node000006_Node000015"><a xlink:title=" ">
<path fill="none" stroke="#63b8ff" d="M683.24,-115.01C677.17,-113.55 670.87,-111.93 665.12,-110.5 616.25,-98.37 560.08,-85.29 523.33,-76.44"/>
<polygon fill="#63b8ff" stroke="#63b8ff" points="524.59,-73.15 514.04,-74.19 522.94,-79.95 524.59,-73.15"/>
</a>
</g>
</g>
<!-- Node17 -->
<g id="Node000017" class="node">
<title>Node17</title>
<g id="a_Node000017"><a xlink:href="../../d9/dc3/rvec3_8hpp.html" target="_top" xlink:title="Provides the implementation of a 3D reference vector.">
<polygon fill="white" stroke="#666666" points="587.38,-74.5 530.88,-74.5 530.88,-55.25 587.38,-55.25 587.38,-74.5"/>
<text text-anchor="middle" x="559.12" y="-61" font-family="Times,serif" font-size="10.00">rvec3.hpp</text>
</a>
</g>
</g>
<!-- Node6&#45;&gt;Node17 -->
<g id="edge18_Node000006_Node000017" class="edge">
<title>Node6&#45;&gt;Node17</title>
<g id="a_edge18_Node000006_Node000017"><a xlink:title=" ">
<path fill="none" stroke="#63b8ff" d="M683.05,-112.16C657.56,-103.79 617.59,-89.55 589.88,-79.07"/>
<polygon fill="#63b8ff" stroke="#63b8ff" points="591.2,-75.83 580.61,-75.52 588.69,-82.36 591.2,-75.83"/>
</a>
</g>
</g>
<!-- Node19 -->
<g id="Node000019" class="node">
<title>Node19</title>
<g id="a_Node000019"><a xlink:href="../../d2/d88/rvec4_8hpp.html" target="_top" xlink:title="Defines a 4&#45;dimensional reference vector struct.">
<polygon fill="white" stroke="#666666" points="662.38,-74.5 605.88,-74.5 605.88,-55.25 662.38,-55.25 662.38,-74.5"/>
<text text-anchor="middle" x="634.12" y="-61" font-family="Times,serif" font-size="10.00">rvec4.hpp</text>
</a>
</g>
</g>
<!-- Node6&#45;&gt;Node19 -->
<g id="edge22_Node000006_Node000019" class="edge">
<title>Node6&#45;&gt;Node19</title>
<g id="a_edge22_Node000006_Node000019"><a xlink:title=" ">
<path fill="none" stroke="#63b8ff" d="M689.52,-110.09C677.37,-102.4 661.61,-91.15 649.88,-81.93"/>
<polygon fill="#63b8ff" stroke="#63b8ff" points="652.26,-79.36 642.31,-75.73 647.83,-84.77 652.26,-79.36"/>
</a>
</g>
</g>
<!-- Node21 -->
<g id="Node000021" class="node">
<title>Node21</title>
<g id="a_Node000021"><a xlink:href="../../dd/d91/vec2_8hpp.html" target="_top" xlink:title="Defines a 2D vector and provides its operations.">
<polygon fill="white" stroke="#666666" points="733.5,-74.5 680.75,-74.5 680.75,-55.25 733.5,-55.25 733.5,-74.5"/>
<text text-anchor="middle" x="707.12" y="-61" font-family="Times,serif" font-size="10.00">vec2.hpp</text>
</a>
</g>
</g>
<!-- Node6&#45;&gt;Node21 -->
<g id="edge26_Node000006_Node000021" class="edge">
<title>Node6&#45;&gt;Node21</title>
<g id="a_edge26_Node000006_Node000021"><a xlink:title=" ">
<path fill="none" stroke="#63b8ff" d="M701.96,-110.33C700.55,-103.74 700.08,-94.46 700.55,-86.07"/>
<polygon fill="#63b8ff" stroke="#63b8ff" points="704,-86.71 701.74,-76.36 697.05,-85.87 704,-86.71"/>
</a>
</g>
</g>
<!-- Node23 -->
<g id="Node000023" class="node">
<title>Node23</title>
<g id="a_Node000023"><a xlink:href="../../d9/dcd/vec3_8hpp.html" target="_top" xlink:title="Header file for the 3D vector definition.">
<polygon fill="white" stroke="#666666" points="804.5,-74.5 751.75,-74.5 751.75,-55.25 804.5,-55.25 804.5,-74.5"/>
<text text-anchor="middle" x="778.12" y="-61" font-family="Times,serif" font-size="10.00">vec3.hpp</text>
</a>
</g>
</g>
<!-- Node6&#45;&gt;Node23 -->
<g id="edge30_Node000006_Node000023" class="edge">
<title>Node6&#45;&gt;Node23</title>
<g id="a_edge30_Node000006_Node000023"><a xlink:title=" ">
<path fill="none" stroke="#63b8ff" d="M713.95,-110.09C722.82,-102.21 737.96,-90.61 751.41,-81.27"/>
<polygon fill="#63b8ff" stroke="#63b8ff" points="753.2,-84.29 759.54,-75.8 749.29,-78.48 753.2,-84.29"/>
</a>
</g>
</g>
<!-- Node25 -->
<g id="Node000025" class="node">
<title>Node25</title>
<g id="a_Node000025"><a xlink:href="../../dd/dc5/vec4_8hpp.html" target="_top" xlink:title="Contains the definition of the vec&lt;4, T&gt; structure.">
<polygon fill="white" stroke="#666666" points="875.5,-74.5 822.75,-74.5 822.75,-55.25 875.5,-55.25 875.5,-74.5"/>
<text text-anchor="middle" x="849.12" y="-61" font-family="Times,serif" font-size="10.00">vec4.hpp</text>
</a>
</g>
</g>
<!-- Node6&#45;&gt;Node25 -->
<g id="edge34_Node000006_Node000025" class="edge">
<title>Node6&#45;&gt;Node25</title>
<g id="a_edge34_Node000006_Node000025"><a xlink:title=" ">
<path fill="none" stroke="#63b8ff" d="M726,-110.09C747.92,-101.17 784.25,-87.49 811.86,-77.7"/>
<polygon fill="#63b8ff" stroke="#63b8ff" points="813,-81.01 821.29,-74.41 810.69,-74.4 813,-81.01"/>
</a>
</g>
</g>
<!-- Node27 -->
<g id="Node000027" class="node">
<title>Node27</title>
<g id="a_Node000027"><a xlink:href="../../d4/d02/vecn_8hpp.html" target="_top" xlink:title="Contains the definition of the generic vec&lt;L, T&gt; structure.">
<polygon fill="white" stroke="#666666" points="946.5,-74.5 893.75,-74.5 893.75,-55.25 946.5,-55.25 946.5,-74.5"/>
<text text-anchor="middle" x="920.12" y="-61" font-family="Times,serif" font-size="10.00">vecn.hpp</text>
</a>
</g>
</g>
<!-- Node6&#45;&gt;Node27 -->
<g id="edge38_Node000006_Node000027" class="edge">
<title>Node6&#45;&gt;Node27</title>
<g id="a_edge38_Node000006_Node000027"><a xlink:title=" ">
<path fill="none" stroke="#63b8ff" d="M731.59,-110.38C783.57,-97.15 844.01,-82.27 882.32,-73.51"/>
<polygon fill="#63b8ff" stroke="#63b8ff" points="883.01,-76.94 891.99,-71.32 881.47,-70.11 883.01,-76.94"/>
</a>
</g>
</g>
<!-- Node8 -->
<g id="Node000008" class="node">
<title>Node8</title>
<g id="a_Node000008"><a xlink:title=" ">
<polygon fill="#e0e0e0" stroke="#999999" points="36.25,-19.25 0,-19.25 0,0 36.25,0 36.25,-19.25"/>
<text text-anchor="middle" x="18.12" y="-5.75" font-family="Times,serif" font-size="10.00">array</text>
</a>
</g>
</g>
<!-- Node7&#45;&gt;Node8 -->
<g id="edge7_Node000007_Node000008" class="edge">
<title>Node7&#45;&gt;Node8</title>
<g id="a_edge7_Node000007_Node000008"><a xlink:title=" ">
<path fill="none" stroke="#63b8ff" d="M195.98,-54.83C159.1,-46.88 104.39,-34.62 47.72,-19.52"/>
<polygon fill="#63b8ff" stroke="#63b8ff" points="48.77,-16.18 38.21,-16.96 46.96,-22.94 48.77,-16.18"/>
</a>
</g>
</g>
<!-- Node9 -->
<g id="Node000009" class="node">
<title>Node9</title>
<g id="a_Node000009"><a xlink:title=" ">
<polygon fill="#e0e0e0" stroke="#999999" points="101.5,-19.25 54.75,-19.25 54.75,0 101.5,0 101.5,-19.25"/>
<text text-anchor="middle" x="78.12" y="-5.75" font-family="Times,serif" font-size="10.00">assert.h</text>
</a>
</g>
</g>
<!-- Node7&#45;&gt;Node9 -->
<g id="edge8_Node000007_Node000009" class="edge">
<title>Node7&#45;&gt;Node9</title>
<g id="a_edge8_Node000007_Node000009"><a xlink:title=" ">
<path fill="none" stroke="#63b8ff" d="M211.81,-54.84C184.45,-45.79 142.24,-31.83 112.58,-22.02"/>
<polygon fill="#63b8ff" stroke="#63b8ff" points="113.92,-18.78 103.33,-18.96 111.72,-25.42 113.92,-18.78"/>
</a>
</g>
</g>
<!-- Node10 -->
<g id="Node000010" class="node">
<title>Node10</title>
<g id="a_Node000010"><a xlink:title=" ">
<polygon fill="#e0e0e0" stroke="#999999" points="160.5,-19.25 119.75,-19.25 119.75,0 160.5,0 160.5,-19.25"/>
<text text-anchor="middle" x="140.12" y="-5.75" font-family="Times,serif" font-size="10.00">cmath</text>
</a>
</g>
</g>
<!-- Node7&#45;&gt;Node10 -->
<g id="edge9_Node000007_Node000010" class="edge">
<title>Node7&#45;&gt;Node10</title>
<g id="a_edge9_Node000007_Node000010"><a xlink:title=" ">
<path fill="none" stroke="#63b8ff" d="M222.33,-54.84C207.11,-46.66 184.43,-34.46 166.74,-24.94"/>
<polygon fill="#63b8ff" stroke="#63b8ff" points="168.8,-22.07 158.33,-20.42 165.48,-28.24 168.8,-22.07"/>
</a>
</g>
</g>
<!-- Node11 -->
<g id="Node000011" class="node">
<title>Node11</title>
<g id="a_Node000011"><a xlink:title=" ">
<polygon fill="#e0e0e0" stroke="#999999" points="229.38,-19.25 178.88,-19.25 178.88,0 229.38,0 229.38,-19.25"/>
<text text-anchor="middle" x="204.12" y="-5.75" font-family="Times,serif" font-size="10.00">concepts</text>
</a>
</g>
</g>
<!-- Node7&#45;&gt;Node11 -->
<g id="edge10_Node000007_Node000011" class="edge">
<title>Node7&#45;&gt;Node11</title>
<g id="a_edge10_Node000007_Node000011"><a xlink:title=" ">
<path fill="none" stroke="#63b8ff" d="M233.35,-55.08C228.71,-48.03 222.05,-37.9 216.26,-29.08"/>
<polygon fill="#63b8ff" stroke="#63b8ff" points="219.28,-27.31 210.86,-20.87 213.43,-31.15 219.28,-27.31"/>
</a>
</g>
</g>
<!-- Node12 -->
<g id="Node000012" class="node">
<title>Node12</title>
<g id="a_Node000012"><a xlink:title=" ">
<polygon fill="#e0e0e0" stroke="#999999" points="298.38,-19.25 247.88,-19.25 247.88,0 298.38,0 298.38,-19.25"/>
<text text-anchor="middle" x="273.12" y="-5.75" font-family="Times,serif" font-size="10.00">numbers</text>
</a>
</g>
</g>
<!-- Node7&#45;&gt;Node12 -->
<g id="edge11_Node000007_Node000012" class="edge">
<title>Node7&#45;&gt;Node12</title>
<g id="a_edge11_Node000007_Node000012"><a xlink:title=" ">
<path fill="none" stroke="#63b8ff" d="M244.74,-55.08C249.24,-48.03 255.71,-37.9 261.34,-29.08"/>
<polygon fill="#63b8ff" stroke="#63b8ff" points="264.14,-31.2 266.57,-20.88 258.24,-27.43 264.14,-31.2"/>
</a>
</g>
</g>
<!-- Node13 -->
<g id="Node000013" class="node">
<title>Node13</title>
<g id="a_Node000013"><a xlink:title=" ">
<polygon fill="#e0e0e0" stroke="#999999" points="363.88,-19.25 316.38,-19.25 316.38,0 363.88,0 363.88,-19.25"/>
<text text-anchor="middle" x="340.12" y="-5.75" font-family="Times,serif" font-size="10.00">ostream</text>
</a>
</g>
</g>
<!-- Node7&#45;&gt;Node13 -->
<g id="edge12_Node000007_Node000013" class="edge">
<title>Node7&#45;&gt;Node13</title>
<g id="a_edge12_Node000007_Node000013"><a xlink:title=" ">
<path fill="none" stroke="#63b8ff" d="M256.26,-54.84C271.78,-46.66 294.93,-34.46 312.97,-24.94"/>
<polygon fill="#63b8ff" stroke="#63b8ff" points="314.36,-28.17 321.57,-20.41 311.09,-21.98 314.36,-28.17"/>
</a>
</g>
</g>
<!-- Node14 -->
<g id="Node000014" class="node">
<title>Node14</title>
<g id="a_Node000014"><a xlink:title=" ">
<polygon fill="#e0e0e0" stroke="#999999" points="440.5,-19.25 381.75,-19.25 381.75,0 440.5,0 440.5,-19.25"/>
<text text-anchor="middle" x="411.12" y="-5.75" font-family="Times,serif" font-size="10.00">type_traits</text>
</a>
</g>
</g>
<!-- Node7&#45;&gt;Node14 -->
<g id="edge13_Node000007_Node000014" class="edge">
<title>Node7&#45;&gt;Node14</title>
<g id="a_edge13_Node000007_Node000014"><a xlink:title=" ">
<path fill="none" stroke="#63b8ff" d="M268.3,-54.84C296.6,-46.08 339.74,-32.73 371.21,-22.98"/>
<polygon fill="#63b8ff" stroke="#63b8ff" points="371.84,-26.45 380.36,-20.15 369.77,-19.76 371.84,-26.45"/>
</a>
</g>
</g>
<!-- Node15&#45;&gt;Node6 -->
<g id="edge15_Node000015_Node000006" class="edge">
<title>Node15&#45;&gt;Node6</title>
<g id="a_edge15_Node000015_Node000006"><a xlink:title=" ">
<path fill="none" stroke="#63b8ff" d="M512.6,-71.03C549.14,-78.64 614.02,-93.52 671.6,-107.66"/>
<polygon fill="#63b8ff" stroke="#63b8ff" points="670.61,-111.02 681.16,-110.02 672.29,-104.22 670.61,-111.02"/>
</a>
</g>
</g>
<!-- Node16 -->
<g id="Node000016" class="node">
<title>Node16</title>
<g id="a_Node000016"><a xlink:href="../../dd/d72/rvec2_8inl.html" target="_top" xlink:title=" ">
<polygon fill="white" stroke="#666666" points="509.75,-19.25 458.5,-19.25 458.5,0 509.75,0 509.75,-19.25"/>
<text text-anchor="middle" x="484.12" y="-5.75" font-family="Times,serif" font-size="10.00">rvec2.inl</text>
</a>
</g>
</g>
<!-- Node15&#45;&gt;Node16 -->
<g id="edge16_Node000015_Node000016" class="edge">
<title>Node15&#45;&gt;Node16</title>
<g id="a_edge16_Node000015_Node000016"><a xlink:title=" ">
<path fill="none" stroke="#63b8ff" d="M478.96,-55.08C477.55,-48.49 477.08,-39.21 477.55,-30.82"/>
<polygon fill="#63b8ff" stroke="#63b8ff" points="481,-31.46 478.74,-21.11 474.05,-30.62 481,-31.46"/>
</a>
</g>
</g>
<!-- Node16&#45;&gt;Node15 -->
<g id="edge17_Node000016_Node000015" class="edge">
<title>Node16&#45;&gt;Node15</title>
<g id="a_edge17_Node000016_Node000015"><a xlink:title=" ">
<path fill="none" stroke="#63b8ff" d="M489.33,-19.61C490.72,-26.25 491.17,-35.55 490.68,-43.92"/>
<polygon fill="#63b8ff" stroke="#63b8ff" points="487.24,-43.22 489.48,-53.58 494.19,-44.09 487.24,-43.22"/>
</a>
</g>
</g>
<!-- Node17&#45;&gt;Node6 -->
<g id="edge19_Node000017_Node000006" class="edge">
<title>Node17&#45;&gt;Node6</title>
<g id="a_edge19_Node000017_Node000006"><a xlink:title=" ">
<path fill="none" stroke="#63b8ff" d="M587.74,-74.34C613.38,-82.88 650.64,-96.19 676.78,-106.08"/>
<polygon fill="#63b8ff" stroke="#63b8ff" points="675.23,-109.24 685.82,-109.55 677.74,-102.7 675.23,-109.24"/>
</a>
</g>
</g>
<!-- Node18 -->
<g id="Node000018" class="node">
<title>Node18</title>
<g id="a_Node000018"><a xlink:href="../../d7/d70/rvec3_8inl.html" target="_top" xlink:title=" ">
<polygon fill="white" stroke="#666666" points="584.75,-19.25 533.5,-19.25 533.5,0 584.75,0 584.75,-19.25"/>
<text text-anchor="middle" x="559.12" y="-5.75" font-family="Times,serif" font-size="10.00">rvec3.inl</text>
</a>
</g>
</g>
<!-- Node17&#45;&gt;Node18 -->
<g id="edge20_Node000017_Node000018" class="edge">
<title>Node17&#45;&gt;Node18</title>
<g id="a_edge20_Node000017_Node000018"><a xlink:title=" ">
<path fill="none" stroke="#63b8ff" d="M553.96,-55.08C552.55,-48.49 552.08,-39.21 552.55,-30.82"/>
<polygon fill="#63b8ff" stroke="#63b8ff" points="556,-31.46 553.74,-21.11 549.05,-30.62 556,-31.46"/>
</a>
</g>
</g>
<!-- Node18&#45;&gt;Node17 -->
<g id="edge21_Node000018_Node000017" class="edge">
<title>Node18&#45;&gt;Node17</title>
<g id="a_edge21_Node000018_Node000017"><a xlink:title=" ">
<path fill="none" stroke="#63b8ff" d="M564.33,-19.61C565.72,-26.25 566.17,-35.55 565.68,-43.92"/>
<polygon fill="#63b8ff" stroke="#63b8ff" points="562.24,-43.22 564.48,-53.58 569.19,-44.09 562.24,-43.22"/>
</a>
</g>
</g>
<!-- Node19&#45;&gt;Node6 -->
<g id="edge23_Node000019_Node000006" class="edge">
<title>Node19&#45;&gt;Node6</title>
<g id="a_edge23_Node000019_Node000006"><a xlink:title=" ">
<path fill="none" stroke="#63b8ff" d="M651.8,-74.95C663.89,-82.62 679.54,-93.78 691.23,-102.96"/>
<polygon fill="#63b8ff" stroke="#63b8ff" points="688.83,-105.52 698.79,-109.13 693.26,-100.1 688.83,-105.52"/>
</a>
</g>
</g>
<!-- Node20 -->
<g id="Node000020" class="node">
<title>Node20</title>
<g id="a_Node000020"><a xlink:href="../../d1/d9f/rvec4_8inl.html" target="_top" xlink:title=" ">
<polygon fill="white" stroke="#666666" points="659.75,-19.25 608.5,-19.25 608.5,0 659.75,0 659.75,-19.25"/>
<text text-anchor="middle" x="634.12" y="-5.75" font-family="Times,serif" font-size="10.00">rvec4.inl</text>
</a>
</g>
</g>
<!-- Node19&#45;&gt;Node20 -->
<g id="edge24_Node000019_Node000020" class="edge">
<title>Node19&#45;&gt;Node20</title>
<g id="a_edge24_Node000019_Node000020"><a xlink:title=" ">
<path fill="none" stroke="#63b8ff" d="M628.96,-55.08C627.55,-48.49 627.08,-39.21 627.55,-30.82"/>
<polygon fill="#63b8ff" stroke="#63b8ff" points="631,-31.46 628.74,-21.11 624.05,-30.62 631,-31.46"/>
</a>
</g>
</g>
<!-- Node20&#45;&gt;Node19 -->
<g id="edge25_Node000020_Node000019" class="edge">
<title>Node20&#45;&gt;Node19</title>
<g id="a_edge25_Node000020_Node000019"><a xlink:title=" ">
<path fill="none" stroke="#63b8ff" d="M639.33,-19.61C640.72,-26.25 641.17,-35.55 640.68,-43.92"/>
<polygon fill="#63b8ff" stroke="#63b8ff" points="637.24,-43.22 639.48,-53.58 644.19,-44.09 637.24,-43.22"/>
</a>
</g>
</g>
<!-- Node21&#45;&gt;Node6 -->
<g id="edge27_Node000021_Node000006" class="edge">
<title>Node21&#45;&gt;Node6</title>
<g id="a_edge27_Node000021_Node000006"><a xlink:title=" ">
<path fill="none" stroke="#63b8ff" d="M712.33,-74.86C713.72,-81.5 714.17,-90.8 713.68,-99.17"/>
<polygon fill="#63b8ff" stroke="#63b8ff" points="710.24,-98.47 712.48,-108.83 717.19,-99.34 710.24,-98.47"/>
</a>
</g>
</g>
<!-- Node22 -->
<g id="Node000022" class="node">
<title>Node22</title>
<g id="a_Node000022"><a xlink:href="../../d2/d56/vec2_8inl.html" target="_top" xlink:title=" ">
<polygon fill="white" stroke="#666666" points="730.88,-19.25 683.38,-19.25 683.38,0 730.88,0 730.88,-19.25"/>
<text text-anchor="middle" x="707.12" y="-5.75" font-family="Times,serif" font-size="10.00">vec2.inl</text>
</a>
</g>
</g>
<!-- Node21&#45;&gt;Node22 -->
<g id="edge28_Node000021_Node000022" class="edge">
<title>Node21&#45;&gt;Node22</title>
<g id="a_edge28_Node000021_Node000022"><a xlink:title=" ">
<path fill="none" stroke="#63b8ff" d="M701.96,-55.08C700.55,-48.49 700.08,-39.21 700.55,-30.82"/>
<polygon fill="#63b8ff" stroke="#63b8ff" points="704,-31.46 701.74,-21.11 697.05,-30.62 704,-31.46"/>
</a>
</g>
</g>
<!-- Node22&#45;&gt;Node21 -->
<g id="edge29_Node000022_Node000021" class="edge">
<title>Node22&#45;&gt;Node21</title>
<g id="a_edge29_Node000022_Node000021"><a xlink:title=" ">
<path fill="none" stroke="#63b8ff" d="M712.33,-19.61C713.72,-26.25 714.17,-35.55 713.68,-43.92"/>
<polygon fill="#63b8ff" stroke="#63b8ff" points="710.24,-43.22 712.48,-53.58 717.19,-44.09 710.24,-43.22"/>
</a>
</g>
</g>
<!-- Node23&#45;&gt;Node6 -->
<g id="edge31_Node000023_Node000006" class="edge">
<title>Node23&#45;&gt;Node6</title>
<g id="a_edge31_Node000023_Node000006"><a xlink:title=" ">
<path fill="none" stroke="#63b8ff" d="M771.45,-74.77C762.6,-82.66 747.35,-94.34 733.82,-103.74"/>
<polygon fill="#63b8ff" stroke="#63b8ff" points="731.98,-100.76 725.64,-109.25 735.89,-106.57 731.98,-100.76"/>
</a>
</g>
</g>
<!-- Node24 -->
<g id="Node000024" class="node">
<title>Node24</title>
<g id="a_Node000024"><a xlink:href="../../d3/dc9/vec3_8inl.html" target="_top" xlink:title=" ">
<polygon fill="white" stroke="#666666" points="801.88,-19.25 754.38,-19.25 754.38,0 801.88,0 801.88,-19.25"/>
<text text-anchor="middle" x="778.12" y="-5.75" font-family="Times,serif" font-size="10.00">vec3.inl</text>
</a>
</g>
</g>
<!-- Node23&#45;&gt;Node24 -->
<g id="edge32_Node000023_Node000024" class="edge">
<title>Node23&#45;&gt;Node24</title>
<g id="a_edge32_Node000023_Node000024"><a xlink:title=" ">
<path fill="none" stroke="#63b8ff" d="M772.96,-55.08C771.55,-48.49 771.08,-39.21 771.55,-30.82"/>
<polygon fill="#63b8ff" stroke="#63b8ff" points="775,-31.46 772.74,-21.11 768.05,-30.62 775,-31.46"/>
</a>
</g>
</g>
<!-- Node24&#45;&gt;Node23 -->
<g id="edge33_Node000024_Node000023" class="edge">
<title>Node24&#45;&gt;Node23</title>
<g id="a_edge33_Node000024_Node000023"><a xlink:title=" ">
<path fill="none" stroke="#63b8ff" d="M783.33,-19.61C784.72,-26.25 785.17,-35.55 784.68,-43.92"/>
<polygon fill="#63b8ff" stroke="#63b8ff" points="781.24,-43.22 783.48,-53.58 788.19,-44.09 781.24,-43.22"/>
</a>
</g>
</g>
<!-- Node25&#45;&gt;Node6 -->
<g id="edge35_Node000025_Node000006" class="edge">
<title>Node25&#45;&gt;Node6</title>
<g id="a_edge35_Node000025_Node000006"><a xlink:title=" ">
<path fill="none" stroke="#63b8ff" d="M830.28,-74.9C807.61,-84.12 769.51,-98.45 741.58,-108.29"/>
<polygon fill="#63b8ff" stroke="#63b8ff" points="740.79,-104.86 732.49,-111.45 743.09,-111.47 740.79,-104.86"/>
</a>
</g>
</g>
<!-- Node26 -->
<g id="Node000026" class="node">
<title>Node26</title>
<g id="a_Node000026"><a xlink:href="../../da/d28/vec4_8inl.html" target="_top" xlink:title=" ">
<polygon fill="white" stroke="#666666" points="872.88,-19.25 825.38,-19.25 825.38,0 872.88,0 872.88,-19.25"/>
<text text-anchor="middle" x="849.12" y="-5.75" font-family="Times,serif" font-size="10.00">vec4.inl</text>
</a>
</g>
</g>
<!-- Node25&#45;&gt;Node26 -->
<g id="edge36_Node000025_Node000026" class="edge">
<title>Node25&#45;&gt;Node26</title>
<g id="a_edge36_Node000025_Node000026"><a xlink:title=" ">
<path fill="none" stroke="#63b8ff" d="M843.96,-55.08C842.55,-48.49 842.08,-39.21 842.55,-30.82"/>
<polygon fill="#63b8ff" stroke="#63b8ff" points="846,-31.46 843.74,-21.11 839.05,-30.62 846,-31.46"/>
</a>
</g>
</g>
<!-- Node26&#45;&gt;Node25 -->
<g id="edge37_Node000026_Node000025" class="edge">
<title>Node26&#45;&gt;Node25</title>
<g id="a_edge37_Node000026_Node000025"><a xlink:title=" ">
<path fill="none" stroke="#63b8ff" d="M854.33,-19.61C855.72,-26.25 856.17,-35.55 855.68,-43.92"/>
<polygon fill="#63b8ff" stroke="#63b8ff" points="852.24,-43.22 854.48,-53.58 859.19,-44.09 852.24,-43.22"/>
</a>
</g>
</g>
<!-- Node27&#45;&gt;Node6 -->
<g id="edge39_Node000027_Node000006" class="edge">
<title>Node27&#45;&gt;Node6</title>
<g id="a_edge39_Node000027_Node000006"><a xlink:title=" ">
<path fill="none" stroke="#63b8ff" d="M893.55,-73.97C859.77,-82.82 800.29,-97.47 749.12,-110.5 746.88,-111.07 744.56,-111.67 742.19,-112.27"/>
<polygon fill="#63b8ff" stroke="#63b8ff" points="741.35,-108.87 732.49,-114.68 743.04,-115.67 741.35,-108.87"/>
</a>
</g>
</g>
<!-- Node28 -->
<g id="Node000028" class="node">
<title>Node28</title>
<g id="a_Node000028"><a xlink:href="../../d6/d8c/vecn_8inl.html" target="_top" xlink:title=" ">
<polygon fill="white" stroke="#666666" points="943.88,-19.25 896.38,-19.25 896.38,0 943.88,0 943.88,-19.25"/>
<text text-anchor="middle" x="920.12" y="-5.75" font-family="Times,serif" font-size="10.00">vecn.inl</text>
</a>
</g>
</g>
<!-- Node27&#45;&gt;Node28 -->
<g id="edge40_Node000027_Node000028" class="edge">
<title>Node27&#45;&gt;Node28</title>
<g id="a_edge40_Node000027_Node000028"><a xlink:title=" ">
<path fill="none" stroke="#63b8ff" d="M914.96,-55.08C913.55,-48.49 913.08,-39.21 913.55,-30.82"/>
<polygon fill="#63b8ff" stroke="#63b8ff" points="917,-31.46 914.74,-21.11 910.05,-30.62 917,-31.46"/>
</a>
</g>
</g>
<!-- Node28&#45;&gt;Node27 -->
<g id="edge41_Node000028_Node000027" class="edge">
<title>Node28&#45;&gt;Node27</title>
<g id="a_edge41_Node000028_Node000027"><a xlink:title=" ">
<path fill="none" stroke="#63b8ff" d="M925.33,-19.61C926.72,-26.25 927.17,-35.55 926.68,-43.92"/>
<polygon fill="#63b8ff" stroke="#63b8ff" points="923.24,-43.22 925.48,-53.58 930.19,-44.09 923.24,-43.22"/>
</a>
</g>
</g>
<!-- Node29&#45;&gt;Node5 -->
<g id="edge43_Node000029_Node000005" class="edge">
<title>Node29&#45;&gt;Node5</title>
<g id="a_edge43_Node000029_Node000005"><a xlink:title=" ">
<path fill="none" stroke="#63b8ff" d="M641.39,-130.11C646.71,-136.98 652.62,-146.71 656.88,-155.29"/>
<polygon fill="#63b8ff" stroke="#63b8ff" points="653.55,-156.41 660.74,-164.19 659.97,-153.63 653.55,-156.41"/>
</a>
</g>
</g>
<!-- Node30&#45;&gt;Node4 -->
<g id="edge45_Node000030_Node000004" class="edge">
<title>Node30&#45;&gt;Node4</title>
<g id="a_edge45_Node000030_Node000004"><a xlink:title=" ">
<path fill="none" stroke="#63b8ff" d="M797.67,-185.45C811.62,-193.27 830.02,-204.72 843.7,-214.01"/>
<polygon fill="#63b8ff" stroke="#63b8ff" points="841.66,-216.85 851.85,-219.72 845.67,-211.12 841.66,-216.85"/>
</a>
</g>
</g>
<!-- Node31 -->
<g id="Node000031" class="node">
<title>Node31</title>
<g id="a_Node000031"><a xlink:href="../../d3/df6/matnxn_8inl.html" target="_top" xlink:title=" ">
<polygon fill="white" stroke="#666666" points="807.5,-129.75 748.75,-129.75 748.75,-110.5 807.5,-110.5 807.5,-129.75"/>
<text text-anchor="middle" x="778.12" y="-116.25" font-family="Times,serif" font-size="10.00">matnxn.inl</text>
</a>
</g>
</g>
<!-- Node30&#45;&gt;Node31 -->
<g id="edge46_Node000030_Node000031" class="edge">
<title>Node30&#45;&gt;Node31</title>
<g id="a_edge46_Node000030_Node000031"><a xlink:title=" ">
<path fill="none" stroke="#63b8ff" d="M772.96,-165.58C771.55,-158.99 771.08,-149.71 771.55,-141.32"/>
<polygon fill="#63b8ff" stroke="#63b8ff" points="775,-141.96 772.74,-131.61 768.05,-141.12 775,-141.96"/>
</a>
</g>
</g>
<!-- Node31&#45;&gt;Node30 -->
<g id="edge47_Node000031_Node000030" class="edge">
<title>Node31&#45;&gt;Node30</title>
<g id="a_edge47_Node000031_Node000030"><a xlink:title=" ">
<path fill="none" stroke="#63b8ff" d="M783.33,-130.11C784.72,-136.75 785.17,-146.05 784.68,-154.42"/>
<polygon fill="#63b8ff" stroke="#63b8ff" points="781.24,-153.72 783.48,-164.08 788.19,-154.59 781.24,-153.72"/>
</a>
</g>
</g>
<!-- Node32&#45;&gt;Node4 -->
<g id="edge49_Node000032_Node000004" class="edge">
<title>Node32&#45;&gt;Node4</title>
<g id="a_edge49_Node000032_Node000004"><a xlink:title=" ">
<path fill="none" stroke="#63b8ff" d="M867.33,-185.36C868.72,-192 869.17,-201.3 868.68,-209.67"/>
<polygon fill="#63b8ff" stroke="#63b8ff" points="865.24,-208.97 867.48,-219.33 872.19,-209.84 865.24,-208.97"/>
</a>
</g>
</g>
<!-- Node33 -->
<g id="Node000033" class="node">
<title>Node33</title>
<g id="a_Node000033"><a xlink:href="../../df/da5/rmatnxn_8inl.html" target="_top" xlink:title=" ">
<polygon fill="white" stroke="#666666" points="893.38,-129.75 830.88,-129.75 830.88,-110.5 893.38,-110.5 893.38,-129.75"/>
<text text-anchor="middle" x="862.12" y="-116.25" font-family="Times,serif" font-size="10.00">rmatnxn.inl</text>
</a>
</g>
</g>
<!-- Node32&#45;&gt;Node33 -->
<g id="edge50_Node000032_Node000033" class="edge">
<title>Node32&#45;&gt;Node33</title>
<g id="a_edge50_Node000032_Node000033"><a xlink:title=" ">
<path fill="none" stroke="#63b8ff" d="M856.96,-165.58C855.55,-158.99 855.08,-149.71 855.55,-141.32"/>
<polygon fill="#63b8ff" stroke="#63b8ff" points="859,-141.96 856.74,-131.61 852.05,-141.12 859,-141.96"/>
</a>
</g>
</g>
<!-- Node33&#45;&gt;Node32 -->
<g id="edge51_Node000033_Node000032" class="edge">
<title>Node33&#45;&gt;Node32</title>
<g id="a_edge51_Node000033_Node000032"><a xlink:title=" ">
<path fill="none" stroke="#63b8ff" d="M867.33,-130.11C868.72,-136.75 869.17,-146.05 868.68,-154.42"/>
<polygon fill="#63b8ff" stroke="#63b8ff" points="865.24,-153.72 867.48,-164.08 872.19,-154.59 865.24,-153.72"/>
</a>
</g>
</g>
<!-- Node34&#45;&gt;Node4 -->
<g id="edge53_Node000034_Node000004" class="edge">
<title>Node34&#45;&gt;Node4</title>
<g id="a_edge53_Node000034_Node000004"><a xlink:title=" ">
<path fill="none" stroke="#63b8ff" d="M941.18,-185.45C929.29,-193.58 909.43,-205.63 892.5,-215.09"/>
<polygon fill="#63b8ff" stroke="#63b8ff" points="890.86,-212 883.77,-219.87 894.22,-218.14 890.86,-212"/>
</a>
</g>
</g>
<!-- Node35 -->
<g id="Node000035" class="node">
<title>Node35</title>
<g id="a_Node000035"><a xlink:href="../../d7/dab/mat__math_8inl.html" target="_top" xlink:title=" ">
<polygon fill="white" stroke="#666666" points="985.75,-129.75 916.5,-129.75 916.5,-110.5 985.75,-110.5 985.75,-129.75"/>
<text text-anchor="middle" x="951.12" y="-116.25" font-family="Times,serif" font-size="10.00">mat_math.inl</text>
</a>
</g>
</g>
<!-- Node34&#45;&gt;Node35 -->
<g id="edge54_Node000034_Node000035" class="edge">
<title>Node34&#45;&gt;Node35</title>
<g id="a_edge54_Node000034_Node000035"><a xlink:title=" ">
<path fill="none" stroke="#63b8ff" d="M945.96,-165.58C944.55,-158.99 944.08,-149.71 944.55,-141.32"/>
<polygon fill="#63b8ff" stroke="#63b8ff" points="948,-141.96 945.74,-131.61 941.05,-141.12 948,-141.96"/>
</a>
</g>
</g>
<!-- Node35&#45;&gt;Node34 -->
<g id="edge55_Node000035_Node000034" class="edge">
<title>Node35&#45;&gt;Node34</title>
<g id="a_edge55_Node000035_Node000034"><a xlink:title=" ">
<path fill="none" stroke="#63b8ff" d="M956.33,-130.11C957.72,-136.75 958.17,-146.05 957.68,-154.42"/>
<polygon fill="#63b8ff" stroke="#63b8ff" points="954.24,-153.72 956.48,-164.08 961.19,-154.59 954.24,-153.72"/>
</a>
</g>
</g>
<!-- Node36&#45;&gt;Node3 -->
<g id="edge57_Node000036_Node000003" class="edge">
<title>Node36&#45;&gt;Node3</title>
<g id="a_edge57_Node000036_Node000003"><a xlink:title=" ">
<path fill="none" stroke="#63b8ff" d="M662.8,-240.54C669.34,-249.33 675.61,-263.29 678.12,-276.25 681.02,-291.18 677.54,-308.09 672.29,-320.76"/>
<polygon fill="#63b8ff" stroke="#63b8ff" points="669.17,-319.17 667.78,-329.67 675.41,-322.33 669.17,-319.17"/>
</a>
</g>
</g>
<!-- Node37&#45;&gt;Node3 -->
<g id="edge60_Node000037_Node000003" class="edge">
<title>Node37&#45;&gt;Node3</title>
<g id="a_edge60_Node000037_Node000003"><a xlink:title=" ">
<path fill="none" stroke="#63b8ff" d="M469.01,-295.76C510.93,-304.93 573.5,-319.26 614.87,-329.14"/>
<polygon fill="#63b8ff" stroke="#63b8ff" points="613.92,-332.52 624.47,-331.45 615.56,-325.71 613.92,-332.52"/>
</a>
</g>
</g>
<!-- Node38&#45;&gt;Node3 -->
<g id="edge63_Node000038_Node000003" class="edge">
<title>Node38&#45;&gt;Node3</title>
<g id="a_edge63_Node000038_Node000003"><a xlink:title=" ">
<path fill="none" stroke="#63b8ff" d="M550.36,-295.95C573.48,-304.38 605.83,-317.04 628.92,-326.65"/>
<polygon fill="#63b8ff" stroke="#63b8ff" points="627.47,-329.84 638.05,-330.5 630.2,-323.39 627.47,-329.84"/>
</a>
</g>
</g>
<!-- Node39&#45;&gt;Node4 -->
<g id="edge65_Node000039_Node000004" class="edge">
<title>Node39&#45;&gt;Node4</title>
<g id="a_edge65_Node000039_Node000004"><a xlink:title=" ">
<path fill="none" stroke="#63b8ff" d="M797.36,-275.84C808.9,-267.96 825.89,-256.36 839.57,-247.02"/>
<polygon fill="#63b8ff" stroke="#63b8ff" points="841.29,-250.08 847.58,-241.56 837.35,-244.3 841.29,-250.08"/>
</a>
</g>
</g>
<!-- Node40 -->
<g id="Node000040" class="node">
<title>Node40</title>
<g id="a_Node000040"><a xlink:href="../../d8/d7f/quaternion_8inl.html" target="_top" xlink:title=" ">
<polygon fill="white" stroke="#666666" points="807.88,-240.25 736.38,-240.25 736.38,-221 807.88,-221 807.88,-240.25"/>
<text text-anchor="middle" x="772.12" y="-226.75" font-family="Times,serif" font-size="10.00">quaternion.inl</text>
</a>
</g>
</g>
<!-- Node39&#45;&gt;Node40 -->
<g id="edge66_Node000039_Node000040" class="edge">
<title>Node39&#45;&gt;Node40</title>
<g id="a_edge66_Node000039_Node000040"><a xlink:title=" ">
<path fill="none" stroke="#63b8ff" d="M776.98,-276.08C774.08,-269.49 771.52,-260.21 770.1,-251.82"/>
<polygon fill="#63b8ff" stroke="#63b8ff" points="773.61,-251.7 769.1,-242.11 766.65,-252.42 773.61,-251.7"/>
</a>
</g>
</g>
<!-- Node40&#45;&gt;Node39 -->
<g id="edge67_Node000040_Node000039" class="edge">
<title>Node40&#45;&gt;Node39</title>
<g id="a_edge67_Node000040_Node000039"><a xlink:title=" ">
<path fill="none" stroke="#63b8ff" d="M779.36,-240.61C782.24,-247.25 784.79,-256.55 786.19,-264.92"/>
<polygon fill="#63b8ff" stroke="#63b8ff" points="782.67,-264.98 787.16,-274.58 789.64,-264.28 782.67,-264.98"/>
</a>
</g>
</g>
<!-- Node41&#45;&gt;Node36 -->
<g id="edge69_Node000041_Node000036" class="edge">
<title>Node41&#45;&gt;Node36</title>
<g id="a_edge69_Node000041_Node000036"><a xlink:title=" ">
<path fill="none" stroke="#63b8ff" d="M623.57,-276.08C627.9,-269.11 634.09,-259.12 639.51,-250.37"/>
<polygon fill="#63b8ff" stroke="#63b8ff" points="642.47,-252.24 644.76,-241.9 636.52,-248.55 642.47,-252.24"/>
</a>
</g>
</g>
<!-- Node42&#45;&gt;Node3 -->
<g id="edge71_Node000042_Node000003" class="edge">
<title>Node42&#45;&gt;Node3</title>
<g id="a_edge71_Node000042_Node000003"><a xlink:title=" ">
<path fill="none" stroke="#63b8ff" d="M891.93,-295.99C839.8,-306.43 751.87,-323.3 699.61,-332.88"/>
<polygon fill="#63b8ff" stroke="#63b8ff" points="699.1,-329.42 689.89,-334.65 700.35,-336.3 699.1,-329.42"/>
</a>
</g>
</g>
<!-- Node43 -->
<g id="Node000043" class="node">
<title>Node43</title>
<g id="a_Node000043"><a xlink:title=" ">
<polygon fill="#e0e0e0" stroke="#999999" points="962.12,-240.25 916.12,-240.25 916.12,-221 962.12,-221 962.12,-240.25"/>
<text text-anchor="middle" x="939.12" y="-226.75" font-family="Times,serif" font-size="10.00">random</text>
</a>
</g>
</g>
<!-- Node42&#45;&gt;Node43 -->
<g id="edge72_Node000042_Node000043" class="edge">
<title>Node42&#45;&gt;Node43</title>
<g id="a_edge72_Node000042_Node000043"><a xlink:title=" ">
<path fill="none" stroke="#63b8ff" d="M934.95,-276.08C935.57,-269.49 936.44,-260.21 937.23,-251.82"/>
<polygon fill="#63b8ff" stroke="#63b8ff" points="940.69,-252.4 938.14,-242.12 933.72,-251.75 940.69,-252.4"/>
</a>
</g>
</g>
</g>
</svg>
