<?xml version="1.0" encoding="UTF-8" standalone="no"?>
<!DOCTYPE svg PUBLIC "-//W3C//DTD SVG 1.1//EN"
 "http://www.w3.org/Graphics/SVG/1.1/DTD/svg11.dtd">
<!-- Generated by graphviz version 9.0.0 (20230911.1827)
 -->
<!-- Title: mal_math::Plane::Intersect Pages: 1 -->
<svg width="316pt" height="138pt"
 viewBox="0.00 0.00 316.00 138.25" xmlns="http://www.w3.org/2000/svg" xmlns:xlink="http://www.w3.org/1999/xlink">
<g id="graph0" class="graph" transform="scale(1 1) rotate(0) translate(4 134.25)">
<title>mal_math::Plane::Intersect</title>
<!-- Node1 -->
<g id="Node000001" class="node">
<title>Node1</title>
<g id="a_Node000001"><a xlink:title="Checks for the intersection of the plane with a given ray.">
<polygon fill="#999999" stroke="#666666" points="121,-74.25 0,-74.25 0,-55 121,-55 121,-74.25"/>
<text text-anchor="middle" x="60.5" y="-60.75" font-family="Times,serif" font-size="10.00">mal_math::Plane::Intersect</text>
</a>
</g>
</g>
<!-- Node2 -->
<g id="Node000002" class="node">
<title>Node2</title>
<g id="a_Node000002"><a xlink:href="../../dd/d4b/classmal__math_1_1_ray.html#ae3eb63fa713d01647037a4f5919ba6cc" target="_top" xlink:title="Retrieves the ray&#39;s direction (const version).">
<polygon fill="white" stroke="#666666" points="290,-130.25 175,-130.25 175,-111 290,-111 290,-130.25"/>
<text text-anchor="middle" x="232.5" y="-116.75" font-family="Times,serif" font-size="10.00">mal_math::Ray::direction</text>
</a>
</g>
</g>
<!-- Node1&#45;&gt;Node2 -->
<g id="edge1_Node000001_Node000002" class="edge">
<title>Node1&#45;&gt;Node2</title>
<g id="a_edge1_Node000001_Node000002"><a xlink:title=" ">
<path fill="none" stroke="#63b8ff" d="M83.94,-74.6C103.09,-82.86 131.49,-94.51 157,-102.62 162.71,-104.44 168.71,-106.17 174.73,-107.8"/>
<polygon fill="#63b8ff" stroke="#63b8ff" points="173.49,-111.09 184.05,-110.21 175.25,-104.32 173.49,-111.09"/>
</a>
</g>
</g>
<!-- Node3 -->
<g id="Node000003" class="node">
<title>Node3</title>
<g id="a_Node000003"><a xlink:href="../../d1/d1d/namespacemal__math.html#aab7b54d530da999aae378287a25da1c0" target="_top" xlink:title="Computes the dot product of two quaternions.">
<polygon fill="white" stroke="#666666" points="269.38,-93.25 195.62,-93.25 195.62,-74 269.38,-74 269.38,-93.25"/>
<text text-anchor="middle" x="232.5" y="-79.75" font-family="Times,serif" font-size="10.00">mal_math::dot</text>
</a>
</g>
</g>
<!-- Node1&#45;&gt;Node3 -->
<g id="edge2_Node000001_Node000003" class="edge">
<title>Node1&#45;&gt;Node3</title>
<g id="a_edge2_Node000001_Node000003"><a xlink:title=" ">
<path fill="none" stroke="#63b8ff" d="M121.44,-71.32C141.96,-73.62 164.62,-76.15 184.02,-78.32"/>
<polygon fill="#63b8ff" stroke="#63b8ff" points="183.49,-81.78 193.82,-79.41 184.27,-74.82 183.49,-81.78"/>
</a>
</g>
</g>
<!-- Node4 -->
<g id="Node000004" class="node">
<title>Node4</title>
<g id="a_Node000004"><a xlink:href="../../dd/d4b/classmal__math_1_1_ray.html#a9163e63dd91bd52a51aa8a60d0ffe94a" target="_top" xlink:title="Retrieves the ray&#39;s origin (const version).">
<polygon fill="white" stroke="#666666" points="284,-56.25 181,-56.25 181,-37 284,-37 284,-56.25"/>
<text text-anchor="middle" x="232.5" y="-42.75" font-family="Times,serif" font-size="10.00">mal_math::Ray::origin</text>
</a>
</g>
</g>
<!-- Node1&#45;&gt;Node4 -->
<g id="edge3_Node000001_Node000004" class="edge">
<title>Node1&#45;&gt;Node4</title>
<g id="a_edge3_Node000001_Node000004"><a xlink:title=" ">
<path fill="none" stroke="#63b8ff" d="M121.44,-58.28C136.97,-56.63 153.74,-54.86 169.39,-53.2"/>
<polygon fill="#63b8ff" stroke="#63b8ff" points="169.47,-56.71 179.05,-52.18 168.73,-49.75 169.47,-56.71"/>
</a>
</g>
</g>
<!-- Node5 -->
<g id="Node000005" class="node">
<title>Node5</title>
<g id="a_Node000005"><a xlink:href="../../dd/d4b/classmal__math_1_1_ray.html#a59f0a252d33b02418f99dd6a5e7725a9" target="_top" xlink:title="Computes a point along the ray based on the given parameter.">
<polygon fill="white" stroke="#666666" points="308,-19.25 157,-19.25 157,0 308,0 308,-19.25"/>
<text text-anchor="middle" x="232.5" y="-5.75" font-family="Times,serif" font-size="10.00">mal_math::Ray::PointAtParameter</text>
</a>
</g>
</g>
<!-- Node1&#45;&gt;Node5 -->
<g id="edge4_Node000001_Node000005" class="edge">
<title>Node1&#45;&gt;Node5</title>
<g id="a_edge4_Node000001_Node000005"><a xlink:title=" ">
<path fill="none" stroke="#63b8ff" d="M84.74,-54.62C103.89,-46.62 131.89,-35.49 157,-27.62 162.71,-25.84 168.72,-24.12 174.74,-22.51"/>
<polygon fill="#63b8ff" stroke="#63b8ff" points="175.26,-25.99 184.07,-20.1 173.51,-19.21 175.26,-25.99"/>
</a>
</g>
</g>
</g>
</svg>
