<?xml version="1.0" encoding="UTF-8" standalone="no"?>
<!DOCTYPE svg PUBLIC "-//W3C//DTD SVG 1.1//EN"
 "http://www.w3.org/Graphics/SVG/1.1/DTD/svg11.dtd">
<!-- Generated by graphviz version 9.0.0 (20230911.1827)
 -->
<!-- Title: mal_math::Plane::update_plane Pages: 1 -->
<svg width="489pt" height="103pt"
 viewBox="0.00 0.00 489.00 103.25" xmlns="http://www.w3.org/2000/svg" xmlns:xlink="http://www.w3.org/1999/xlink">
<g id="graph0" class="graph" transform="scale(1 1) rotate(0) translate(4 99.25)">
<title>mal_math::Plane::update_plane</title>
<!-- Node1 -->
<g id="Node000001" class="node">
<title>Node1</title>
<g id="a_Node000001"><a xlink:title="Updates the plane&#39;s vectors and normal based on two new vectors.">
<polygon fill="#999999" stroke="#666666" points="113.5,-62.88 0,-62.88 0,-32.38 113.5,-32.38 113.5,-62.88"/>
<text text-anchor="start" x="8" y="-49.38" font-family="Times,serif" font-size="10.00">mal_math::Plane::update</text>
<text text-anchor="middle" x="56.75" y="-38.12" font-family="Times,serif" font-size="10.00">_plane</text>
</a>
</g>
</g>
<!-- Node2 -->
<g id="Node000002" class="node">
<title>Node2</title>
<g id="a_Node000002"><a xlink:href="../../d1/d1d/namespacemal__math.html#af6fac0124c0a8511b0f747b9f15d1f74" target="_top" xlink:title="Cross product between quaternion and vector.">
<polygon fill="white" stroke="#666666" points="239.38,-95.25 158.88,-95.25 158.88,-76 239.38,-76 239.38,-95.25"/>
<text text-anchor="middle" x="199.12" y="-81.75" font-family="Times,serif" font-size="10.00">mal_math::cross</text>
</a>
</g>
</g>
<!-- Node1&#45;&gt;Node2 -->
<g id="edge1_Node000001_Node000002" class="edge">
<title>Node1&#45;&gt;Node2</title>
<g id="a_edge1_Node000001_Node000002"><a xlink:title=" ">
<path fill="none" stroke="#63b8ff" d="M113.63,-62.75C125.68,-66.02 138.32,-69.44 150.05,-72.61"/>
<polygon fill="#63b8ff" stroke="#63b8ff" points="148.93,-75.93 159.5,-75.17 150.76,-69.18 148.93,-75.93"/>
</a>
</g>
</g>
<!-- Node3 -->
<g id="Node000003" class="node">
<title>Node3</title>
<g id="a_Node000003"><a xlink:href="../../d1/d1d/namespacemal__math.html#a39c5199d92cd6fd327cd1719bd148dcc" target="_top" xlink:title="Computes the length (or magnitude) of a quaternion.">
<polygon fill="white" stroke="#666666" points="369.75,-38.25 284.75,-38.25 284.75,-19 369.75,-19 369.75,-38.25"/>
<text text-anchor="middle" x="327.25" y="-24.75" font-family="Times,serif" font-size="10.00">mal_math::length</text>
</a>
</g>
</g>
<!-- Node1&#45;&gt;Node3 -->
<g id="edge2_Node000001_Node000003" class="edge">
<title>Node1&#45;&gt;Node3</title>
<g id="a_edge2_Node000001_Node000003"><a xlink:title=" ">
<path fill="none" stroke="#63b8ff" d="M113.71,-43.67C160.61,-40.35 227.1,-35.64 273.17,-32.38"/>
<polygon fill="#63b8ff" stroke="#63b8ff" points="273.18,-35.89 282.91,-31.69 272.69,-28.91 273.18,-35.89"/>
</a>
</g>
</g>
<!-- Node6 -->
<g id="Node000006" class="node">
<title>Node6</title>
<g id="a_Node000006"><a xlink:href="../../d1/d1d/namespacemal__math.html#abe612f1321c4a59501c42f7759feaba4" target="_top" xlink:title="Normalizes a quaternion.">
<polygon fill="white" stroke="#666666" points="248.75,-19.25 149.5,-19.25 149.5,0 248.75,0 248.75,-19.25"/>
<text text-anchor="middle" x="199.12" y="-5.75" font-family="Times,serif" font-size="10.00">mal_math::normalize</text>
</a>
</g>
</g>
<!-- Node1&#45;&gt;Node6 -->
<g id="edge5_Node000001_Node000006" class="edge">
<title>Node1&#45;&gt;Node6</title>
<g id="a_edge5_Node000001_Node000006"><a xlink:title=" ">
<path fill="none" stroke="#63b8ff" d="M113.63,-32.5C125.68,-29.23 138.32,-25.81 150.05,-22.64"/>
<polygon fill="#63b8ff" stroke="#63b8ff" points="150.76,-26.07 159.5,-20.08 148.93,-19.32 150.76,-26.07"/>
</a>
</g>
</g>
<!-- Node4 -->
<g id="Node000004" class="node">
<title>Node4</title>
<g id="a_Node000004"><a xlink:href="../../d1/d1d/namespacemal__math.html#aab7b54d530da999aae378287a25da1c0" target="_top" xlink:title="Computes the dot product of two quaternions.">
<polygon fill="white" stroke="#666666" points="480.25,-57.25 406.5,-57.25 406.5,-38 480.25,-38 480.25,-57.25"/>
<text text-anchor="middle" x="443.38" y="-43.75" font-family="Times,serif" font-size="10.00">mal_math::dot</text>
</a>
</g>
</g>
<!-- Node3&#45;&gt;Node4 -->
<g id="edge3_Node000003_Node000004" class="edge">
<title>Node3&#45;&gt;Node4</title>
<g id="a_edge3_Node000003_Node000004"><a xlink:title=" ">
<path fill="none" stroke="#63b8ff" d="M370.1,-35.59C378.14,-36.93 386.62,-38.34 394.82,-39.71"/>
<polygon fill="#63b8ff" stroke="#63b8ff" points="394.24,-43.16 404.68,-41.35 395.39,-36.25 394.24,-43.16"/>
</a>
</g>
</g>
<!-- Node5 -->
<g id="Node000005" class="node">
<title>Node5</title>
<g id="a_Node000005"><a xlink:href="../../d1/d1d/namespacemal__math.html#a8578ea303028d0b058d33dc3aca926b3" target="_top" xlink:title=" ">
<polygon fill="white" stroke="#666666" points="481,-20.25 405.75,-20.25 405.75,-1 481,-1 481,-20.25"/>
<text text-anchor="middle" x="443.38" y="-6.75" font-family="Times,serif" font-size="10.00">mal_math::sqrt</text>
</a>
</g>
</g>
<!-- Node3&#45;&gt;Node5 -->
<g id="edge4_Node000003_Node000005" class="edge">
<title>Node3&#45;&gt;Node5</title>
<g id="a_edge4_Node000003_Node000005"><a xlink:title=" ">
<path fill="none" stroke="#63b8ff" d="M370.1,-22.02C377.97,-20.78 386.25,-19.48 394.3,-18.21"/>
<polygon fill="#63b8ff" stroke="#63b8ff" points="394.61,-21.7 403.94,-16.69 393.51,-14.79 394.61,-21.7"/>
</a>
</g>
</g>
<!-- Node6&#45;&gt;Node3 -->
<g id="edge6_Node000006_Node000003" class="edge">
<title>Node6&#45;&gt;Node3</title>
<g id="a_edge6_Node000006_Node000003"><a xlink:title=" ">
<path fill="none" stroke="#63b8ff" d="M249.25,-17.03C257.06,-18.2 265.16,-19.42 273.06,-20.61"/>
<polygon fill="#63b8ff" stroke="#63b8ff" points="272.51,-24.07 282.92,-22.1 273.55,-17.15 272.51,-24.07"/>
</a>
</g>
</g>
</g>
</svg>
