<?xml version="1.0" encoding="UTF-8" standalone="no"?>
<!DOCTYPE svg PUBLIC "-//W3C//DTD SVG 1.1//EN"
 "http://www.w3.org/Graphics/SVG/1.1/DTD/svg11.dtd">
<!-- Generated by graphviz version 9.0.0 (20230911.1827)
 -->
<!-- Title: mal_math::rmat&lt; a, b, T &gt; Pages: 1 -->
<!--zoomable 253 -->

<svg id="main" version="1.1" xmlns="http://www.w3.org/2000/svg" xmlns:xlink="http://www.w3.org/1999/xlink" xml:space="preserve" onload="init(evt)">
<style type="text/css"><![CDATA[
.node, .edge {opacity: 0.7;}
.node.selected, .edge.selected {opacity: 1;}
.edge:hover path { stroke: red; }
.edge:hover polygon { stroke: red; fill: red; }
]]></style>

<defs>
  <circle id="rim" cx="0" cy="0" r="7"/>
  <circle id="rim2" cx="0" cy="0" r="3.5"/>
  <g id="zoomPlus">
    <use xlink:href="#rim" fill="#404040"><set attributeName="fill" to="#808080" begin="zoomplus.mouseover" end="zoomplus.mouseout"/></use>
    <path d="M-4,0h8M0,-4v8" fill="none" stroke="white" stroke-width="1.5" pointer-events="none"/>
  </g>
  <g id="zoomMin">
    <use xlink:href="#rim" fill="#404040"><set attributeName="fill" to="#808080" begin="zoomminus.mouseover" end="zoomminus.mouseout"/></use>
    <path d="M-4,0h8" fill="none" stroke="white" stroke-width="1.5" pointer-events="none"/>
  </g>
  <g id="arrowUp" transform="translate(30 24)">
    <use xlink:href="#rim"/>
    <path pointer-events="none" fill="none" stroke="white" stroke-width="1.5" d="M0,-3.0v7 M-2.5,-0.5L0,-3.0L2.5,-0.5"/>
  </g>
  <g id="arrowRight" transform="rotate(90) translate(36 -43)">
    <use xlink:href="#rim"/>
    <path pointer-events="none" fill="none" stroke="white" stroke-width="1.5" d="M0,-3.0v7 M-2.5,-0.5L0,-3.0L2.5,-0.5"/>
  </g>
  <g id="arrowDown" transform="rotate(180) translate(-30 -48)">
    <use xlink:href="#rim"/>
    <path pointer-events="none" fill="none" stroke="white" stroke-width="1.5" d="M0,-3.0v7 M-2.5,-0.5L0,-3.0L2.5,-0.5"/>
  </g>
  <g id="arrowLeft" transform="rotate(270) translate(-36 17)">
    <use xlink:href="#rim"/>
    <path pointer-events="none" fill="none" stroke="white" stroke-width="1.5" d="M0,-3.0v7 M-2.5,-0.5L0,-3.0L2.5,-0.5"/>
  </g>
  <g id="resetDef">
    <use xlink:href="#rim2" fill="#404040"><set attributeName="fill" to="#808080" begin="reset.mouseover" end="reset.mouseout"/></use>
  </g>
</defs>
<script type="application/ecmascript">
var viewWidth = 734;
var viewHeight = 253;
var sectionId = 'dynsection-0';
</script>
<script type="application/ecmascript" xlink:href="../../svg.min.js"/>
<svg id="graph" class="graph">
<g id="viewport">
<title>mal_math::rmat&lt; a, b, T &gt;</title>
<!-- Node1 -->
<g id="Node000001" class="node">
<title>Node1</title>
<g id="a_Node000001"><a xlink:title="Definition of a reference matrix with dimensions rows x columns and type T">
<polygon fill="#999999" stroke="#666666" points="725.8,-121.97 631.8,-121.97 631.8,-91.47 725.8,-91.47 725.8,-121.97"/>
<text text-anchor="start" x="639.8" y="-108.47" font-family="Times,serif" font-size="10.00">mal_math::rmat&lt; a,</text>
<text text-anchor="middle" x="678.8" y="-97.22" font-family="Times,serif" font-size="10.00"> b, T &gt;</text>
</a>
</g>
</g>
<!-- Node2 -->
<g id="Node000002" class="node">
<title>Node2</title>
<g id="a_Node000002"><a xlink:href="../../dd/dce/structmal__math_1_1vec.html" target="_top" xlink:title="Definition of the mathematical vector with fixed size L and type T">
<polygon fill="white" stroke="#666666" points="574.05,-208.34 467.3,-208.34 467.3,-189.09 574.05,-189.09 574.05,-208.34"/>
<text text-anchor="middle" x="520.67" y="-194.84" font-family="Times,serif" font-size="10.00">mal_math::vec&lt; L, T &gt;</text>
</a>
</g>
</g>
<!-- Node2&#45;&gt;Node1 -->
<g id="edge1_Node000001_Node000002" class="edge">
<title>Node2&#45;&gt;Node1</title>
<g id="a_edge1_Node000001_Node000002"><a xlink:title=" ">
<path fill="none" stroke="#9a32cd" stroke-dasharray="5,2" d="M548.75,-182.9C567.12,-172.16 591.94,-157.61 613.8,-144.72 626.15,-137.43 639.83,-129.32 651.35,-122.47"/>
<polygon fill="#9a32cd" stroke="#9a32cd" points="547.18,-179.76 540.32,-187.83 550.72,-185.81 547.18,-179.76"/>
</a>
</g>
<text text-anchor="middle" x="602.92" y="-157.47" font-family="Times,serif" font-size="10.00" fill="grey"> size</text>
</g>
<!-- Node3 -->
<g id="Node000003" class="node">
<title>Node3</title>
<g id="a_Node000003"><a xlink:title=" ">
<polygon fill="white" stroke="#666666" points="408.42,-245.34 304.67,-245.34 304.67,-226.09 408.42,-226.09 408.42,-245.34"/>
<text text-anchor="middle" x="356.55" y="-231.84" font-family="Times,serif" font-size="10.00">static constexpr size_t</text>
</a>
</g>
</g>
<!-- Node3&#45;&gt;Node2 -->
<g id="edge2_Node000002_Node000003" class="edge">
<title>Node3&#45;&gt;Node2</title>
<g id="a_edge2_Node000002_Node000003"><a xlink:title=" ">
<path fill="none" stroke="#9a32cd" stroke-dasharray="5,2" d="M412.9,-223.09C433.3,-218.43 456.13,-213.22 475.43,-208.82"/>
<polygon fill="#9a32cd" stroke="#9a32cd" points="412.3,-219.63 403.33,-225.27 413.86,-226.46 412.3,-219.63"/>
</a>
</g>
<text text-anchor="middle" x="439.55" y="-219.47" font-family="Times,serif" font-size="10.00" fill="grey"> size</text>
</g>
<!-- Node4 -->
<g id="Node000004" class="node">
<title>Node4</title>
<g id="a_Node000004"><a xlink:title=" ">
<polygon fill="white" stroke="#666666" points="404.3,-208.34 308.8,-208.34 308.8,-189.09 404.3,-189.09 404.3,-208.34"/>
<text text-anchor="middle" x="356.55" y="-194.84" font-family="Times,serif" font-size="10.00">std::array&lt; T, size &gt;</text>
</a>
</g>
</g>
<!-- Node4&#45;&gt;Node2 -->
<g id="edge3_Node000002_Node000004" class="edge">
<title>Node4&#45;&gt;Node2</title>
<g id="a_edge3_Node000002_Node000004"><a xlink:title=" ">
<path fill="none" stroke="#9a32cd" stroke-dasharray="5,2" d="M415.74,-198.72C432.44,-198.72 450.55,-198.72 466.91,-198.72"/>
<polygon fill="#9a32cd" stroke="#9a32cd" points="415.96,-195.22 405.96,-198.72 415.96,-202.22 415.96,-195.22"/>
</a>
</g>
<text text-anchor="middle" x="439.55" y="-200.47" font-family="Times,serif" font-size="10.00" fill="grey"> data</text>
</g>
<!-- Node5 -->
<g id="Node000005" class="node">
<title>Node5</title>
<g id="a_Node000005"><a xlink:title=" ">
<polygon fill="white" stroke="#666666" points="28.8,-95.34 0,-95.34 0,-76.09 28.8,-76.09 28.8,-95.34"/>
<text text-anchor="middle" x="14.4" y="-81.84" font-family="Times,serif" font-size="10.00">T</text>
</a>
</g>
</g>
<!-- Node5&#45;&gt;Node4 -->
<g id="edge4_Node000004_Node000005" class="edge">
<title>Node5&#45;&gt;Node4</title>
<g id="a_edge4_Node000004_Node000005"><a xlink:title=" ">
<path fill="none" stroke="#9a32cd" stroke-dasharray="5,2" d="M31.33,-104.11C36.07,-109.11 41.43,-114.35 46.8,-118.72 106.87,-167.61 120.32,-189.46 194.8,-210.72 235.7,-222.39 284.71,-215.97 317.77,-208.83"/>
<polygon fill="#9a32cd" stroke="#9a32cd" points="33.94,-101.78 24.63,-96.72 28.75,-106.48 33.94,-101.78"/>
</a>
</g>
<text text-anchor="middle" x="139.17" y="-206.47" font-family="Times,serif" font-size="10.00" fill="grey"> elements</text>
</g>
<!-- Node6 -->
<g id="Node000006" class="node">
<title>Node6</title>
<g id="a_Node000006"><a xlink:title=" ">
<polygon fill="white" stroke="#666666" points="176.8,-129.34 101.55,-129.34 101.55,-110.09 176.8,-110.09 176.8,-129.34"/>
<text text-anchor="middle" x="139.17" y="-115.84" font-family="Times,serif" font-size="10.00">std::array&lt; T &gt;</text>
</a>
</g>
</g>
<!-- Node5&#45;&gt;Node6 -->
<g id="edge6_Node000006_Node000005" class="edge">
<title>Node5&#45;&gt;Node6</title>
<g id="a_edge6_Node000006_Node000005"><a xlink:title=" ">
<path fill="none" stroke="#9a32cd" stroke-dasharray="5,2" d="M40.09,-92.56C57.77,-97.45 81.87,-104.12 101.75,-109.63"/>
<polygon fill="#9a32cd" stroke="#9a32cd" points="41.04,-89.19 30.47,-89.89 39.17,-95.93 41.04,-89.19"/>
</a>
</g>
<text text-anchor="middle" x="65.17" y="-105.47" font-family="Times,serif" font-size="10.00" fill="grey"> elements</text>
</g>
<!-- Node7 -->
<g id="Node000007" class="node">
<title>Node7</title>
<g id="a_Node000007"><a xlink:title=" ">
<polygon fill="white" stroke="#666666" points="411.8,-157.22 301.3,-157.22 301.3,-104.22 411.8,-104.22 411.8,-157.22"/>
<text text-anchor="start" x="309.3" y="-143.72" font-family="Times,serif" font-size="10.00">std::array&lt; mal_math</text>
<text text-anchor="start" x="309.3" y="-132.47" font-family="Times,serif" font-size="10.00">::_detail::primitive</text>
<text text-anchor="start" x="309.3" y="-121.22" font-family="Times,serif" font-size="10.00">_reference_wrapper&lt; T</text>
<text text-anchor="middle" x="356.55" y="-109.97" font-family="Times,serif" font-size="10.00"> &gt;, size.x *size.y &gt;</text>
</a>
</g>
</g>
<!-- Node5&#45;&gt;Node7 -->
<g id="edge8_Node000007_Node000005" class="edge">
<title>Node5&#45;&gt;Node7</title>
<g id="a_edge8_Node000007_Node000005"><a xlink:title=" ">
<path fill="none" stroke="#9a32cd" stroke-dasharray="5,2" d="M39.48,-75.11C89,-55.05 204.26,-17.49 283.3,-63.72 297.39,-71.96 290.12,-83.83 301.3,-95.72 303.99,-98.57 306.96,-101.3 310.08,-103.89"/>
<polygon fill="#9a32cd" stroke="#9a32cd" points="38.42,-71.76 30.54,-78.85 41.12,-78.22 38.42,-71.76"/>
</a>
</g>
<text text-anchor="middle" x="139.17" y="-56.47" font-family="Times,serif" font-size="10.00" fill="grey"> elements</text>
</g>
<!-- Node8 -->
<g id="Node000008" class="node">
<title>Node8</title>
<g id="a_Node000008"><a xlink:title=" ">
<polygon fill="white" stroke="#666666" points="408.05,-86.59 305.05,-86.59 305.05,-44.84 408.05,-44.84 408.05,-86.59"/>
<text text-anchor="start" x="313.05" y="-73.09" font-family="Times,serif" font-size="10.00">std::array&lt; mal_math</text>
<text text-anchor="start" x="313.05" y="-61.84" font-family="Times,serif" font-size="10.00">::_detail::rvec&lt; size.y,</text>
<text text-anchor="middle" x="356.55" y="-50.59" font-family="Times,serif" font-size="10.00"> T &gt;, size.x &gt;</text>
</a>
</g>
</g>
<!-- Node5&#45;&gt;Node8 -->
<g id="edge11_Node000008_Node000005" class="edge">
<title>Node5&#45;&gt;Node8</title>
<g id="a_edge11_Node000008_Node000005"><a xlink:title=" ">
<path fill="none" stroke="#9a32cd" stroke-dasharray="5,2" d="M21.88,-65.41C26.87,-52.72 34.94,-36.91 46.8,-26.72 66.36,-9.91 76.12,-11.81 101.55,-7.47 181.62,6.2 206.64,0.13 283.3,-26.72 296.21,-31.24 309.6,-37.86 321.29,-44.36"/>
<polygon fill="#9a32cd" stroke="#9a32cd" points="18.7,-63.91 18.65,-74.51 25.29,-66.25 18.7,-63.91"/>
</a>
</g>
<text text-anchor="middle" x="139.17" y="-9.47" font-family="Times,serif" font-size="10.00" fill="grey"> elements</text>
</g>
<!-- Node6&#45;&gt;Node4 -->
<g id="edge5_Node000004_Node000006" class="edge">
<title>Node6&#45;&gt;Node4</title>
<g id="a_edge5_Node000004_Node000006"><a xlink:title=" ">
<path fill="none" stroke="orange" stroke-dasharray="5,2" d="M153.16,-138.42C163.05,-151.11 177.82,-167.09 194.8,-175.72 230.12,-193.66 275.09,-198.83 308.48,-199.85"/>
<polygon fill="orange" stroke="orange" points="156.26,-136.72 147.5,-130.75 150.63,-140.88 156.26,-136.72"/>
</a>
</g>
<text text-anchor="middle" x="239.05" y="-199.47" font-family="Times,serif" font-size="10.00" fill="grey"> &lt; T, size &gt;</text>
</g>
<!-- Node6&#45;&gt;Node7 -->
<g id="edge9_Node000007_Node000006" class="edge">
<title>Node6&#45;&gt;Node7</title>
<g id="a_edge9_Node000007_Node000006"><a xlink:title=" ">
<path fill="none" stroke="orange" stroke-dasharray="5,2" d="M188.5,-122.19C221.84,-123.89 266.22,-126.15 300.86,-127.92"/>
<polygon fill="orange" stroke="orange" points="188.88,-118.7 178.71,-121.69 188.52,-125.69 188.88,-118.7"/>
</a>
</g>
<text text-anchor="start" x="194.8" y="-162.22" font-family="Times,serif" font-size="10.00" fill="grey"> &lt; mal_math::_detail</text>
<text text-anchor="start" x="194.8" y="-150.97" font-family="Times,serif" font-size="10.00" fill="grey">::primitive_reference</text>
<text text-anchor="start" x="194.8" y="-139.72" font-family="Times,serif" font-size="10.00" fill="grey">_wrapper&lt; T &gt;, size.x</text>
<text text-anchor="middle" x="239.05" y="-128.47" font-family="Times,serif" font-size="10.00" fill="grey"> *size.y &gt;</text>
</g>
<!-- Node6&#45;&gt;Node8 -->
<g id="edge12_Node000008_Node000006" class="edge">
<title>Node6&#45;&gt;Node8</title>
<g id="a_edge12_Node000008_Node000006"><a xlink:title=" ">
<path fill="none" stroke="orange" stroke-dasharray="5,2" d="M161.04,-102.75C170.74,-95.76 182.77,-88.31 194.8,-83.97 230.07,-71.24 272.27,-66.82 304.58,-65.51"/>
<polygon fill="orange" stroke="orange" points="158.93,-99.96 153.08,-108.79 163.16,-105.53 158.93,-99.96"/>
</a>
</g>
<text text-anchor="start" x="197.8" y="-107.97" font-family="Times,serif" font-size="10.00" fill="grey"> &lt; mal_math::_detail</text>
<text text-anchor="start" x="197.8" y="-96.72" font-family="Times,serif" font-size="10.00" fill="grey">::rvec&lt; size.y, T &gt;,</text>
<text text-anchor="middle" x="239.05" y="-85.47" font-family="Times,serif" font-size="10.00" fill="grey"> size.x &gt;</text>
</g>
<!-- Node7&#45;&gt;Node1 -->
<g id="edge7_Node000001_Node000007" class="edge">
<title>Node7&#45;&gt;Node1</title>
<g id="a_edge7_Node000001_Node000007"><a xlink:title=" ">
<path fill="none" stroke="#9a32cd" stroke-dasharray="5,2" d="M423.46,-125.78C485.46,-121.13 576.71,-114.29 631.4,-110.19"/>
<polygon fill="#9a32cd" stroke="#9a32cd" points="423.46,-122.27 413.75,-126.51 423.98,-129.25 423.46,-122.27"/>
</a>
</g>
<text text-anchor="middle" x="520.67" y="-123.47" font-family="Times,serif" font-size="10.00" fill="grey"> arr</text>
</g>
<!-- Node8&#45;&gt;Node1 -->
<g id="edge10_Node000001_Node000008" class="edge">
<title>Node8&#45;&gt;Node1</title>
<g id="a_edge10_Node000001_Node000008"><a xlink:title=" ">
<path fill="none" stroke="#9a32cd" stroke-dasharray="5,2" d="M419.49,-73.65C481.53,-81.59 575.6,-93.63 631.45,-100.78"/>
<polygon fill="#9a32cd" stroke="#9a32cd" points="420.16,-70.2 409.8,-72.41 419.27,-77.15 420.16,-70.2"/>
</a>
</g>
<text text-anchor="middle" x="520.67" y="-94.47" font-family="Times,serif" font-size="10.00" fill="grey"> data</text>
</g>
<!-- Node9 -->
<g id="Node000009" class="node">
<title>Node9</title>
<g id="a_Node000009"><a xlink:title=" ">
<polygon fill="white" stroke="#666666" points="561.3,-47.34 480.05,-47.34 480.05,-28.09 561.3,-28.09 561.3,-47.34"/>
<text text-anchor="middle" x="520.67" y="-33.84" font-family="Times,serif" font-size="10.00">anonymous:@15</text>
</a>
</g>
</g>
<!-- Node9&#45;&gt;Node1 -->
<g id="edge13_Node000001_Node000009" class="edge">
<title>Node9&#45;&gt;Node1</title>
<g id="a_edge13_Node000001_Node000009"><a xlink:title=" ">
<path fill="none" stroke="#9a32cd" stroke-dasharray="5,2" d="M572.7,-45.18C586.43,-48.26 601.02,-52.55 613.8,-58.47 631.48,-66.66 648.96,-80.32 661.18,-91.02"/>
<polygon fill="#9a32cd" stroke="#9a32cd" points="573.4,-41.75 562.91,-43.17 572,-48.61 573.4,-41.75"/>
</a>
</g>
<text text-anchor="middle" x="602.92" y="-60.47" font-family="Times,serif" font-size="10.00" fill="grey"> @15</text>
</g>
</g>
</svg>

<g id="navigator" transform="translate(0 0)" fill="#404254">
  <rect fill="#f2f5e9" fill-opacity="0.5" stroke="#606060" stroke-width=".5" x="0" y="0" width="60" height="60"/>
  <use id="zoomplus" xlink:href="#zoomPlus" x="17" y="9" onmousedown="handleZoom(evt,'in')"/>
  <use id="zoomminus" xlink:href="#zoomMin" x="42" y="9" onmousedown="handleZoom(evt,'out')"/>
  <use id="reset" xlink:href="#resetDef" x="30" y="36" onmousedown="handleReset()"/>
   <use id="arrowup" xlink:href="#arrowUp" x="0" y="0" onmousedown="handlePan(0,-1)"/>
  <use id="arrowright" xlink:href="#arrowRight" x="0" y="0" onmousedown="handlePan(1,0)"/>
  <use id="arrowdown" xlink:href="#arrowDown" x="0" y="0" onmousedown="handlePan(0,1)"/>
  <use id="arrowleft" xlink:href="#arrowLeft" x="0" y="0" onmousedown="handlePan(-1,0)"/>
</g>
<svg viewBox="0 0 15 15" width="100%" height="30px" preserveAspectRatio="xMaxYMin meet">
 <g id="arrow_out" transform="scale(0.3 0.3)">
  <a xlink:href="structmal__math_1_1rmat__coll__graph_org.svg" target="_base">
   <rect id="button" ry="5" rx="5" y="6" x="6" height="38" width="38"
        fill="#f2f5e9" fill-opacity="0.5" stroke="#606060" stroke-width="1.0"/>
   <path id="arrow"
     d="M 11.500037,31.436501 C 11.940474,20.09759 22.043105,11.32322 32.158766,21.979434 L 37.068811,17.246167 C 37.068811,17.246167 37.088388,32 37.088388,32 L 22.160133,31.978069 C 22.160133,31.978069 26.997745,27.140456 26.997745,27.140456 C 18.528582,18.264221 13.291696,25.230495 11.500037,31.436501 z"
     style="fill:#404040;"/>
  </a>
 </g>
</svg>

<style type='text/css'>
<![CDATA[
[data-mouse-over-selected='false'] { opacity: 0.7; }
[data-mouse-over-selected='true']  { opacity: 1.0; }
]]>
</style>
<script type="application/ecmascript"><![CDATA[
document.addEventListener('DOMContentLoaded', (event) => {
  highlightEdges();
  highlightAdjacentNodes();
});
]]></script>
</svg>
