<?xml version="1.0" encoding="UTF-8" standalone="no"?>
<!DOCTYPE svg PUBLIC "-//W3C//DTD SVG 1.1//EN"
 "http://www.w3.org/Graphics/SVG/1.1/DTD/svg11.dtd">
<!-- Generated by graphviz version 9.0.0 (20230911.1827)
 -->
<!-- Title: mal_math::rmat&lt; a, b, T &gt; Pages: 1 -->
<svg width="831pt" height="266pt"
 viewBox="0.00 0.00 830.50 265.50" xmlns="http://www.w3.org/2000/svg" xmlns:xlink="http://www.w3.org/1999/xlink">
<g id="graph0" class="graph" transform="scale(1 1) rotate(0) translate(4 261.5)">
<title>mal_math::rmat&lt; a, b, T &gt;</title>
<!-- Node1 -->
<g id="Node000001" class="node">
<title>Node1</title>
<g id="a_Node000001"><a xlink:title="Definition of a reference matrix with dimensions rows x columns and type T">
<polygon fill="#999999" stroke="#666666" points="822.5,-108.5 728.5,-108.5 728.5,-78 822.5,-78 822.5,-108.5"/>
<text text-anchor="start" x="736.5" y="-95" font-family="Times,serif" font-size="10.00">mal_math::rmat&lt; a,</text>
<text text-anchor="middle" x="775.5" y="-83.75" font-family="Times,serif" font-size="10.00"> b, T &gt;</text>
</a>
</g>
</g>
<!-- Node2 -->
<g id="Node000002" class="node">
<title>Node2</title>
<g id="a_Node000002"><a xlink:href="../../dd/dce/structmal__math_1_1vec.html" target="_top" xlink:title="Definition of the mathematical vector with fixed size L and type T">
<polygon fill="white" stroke="#666666" points="670.75,-183.88 564,-183.88 564,-164.62 670.75,-164.62 670.75,-183.88"/>
<text text-anchor="middle" x="617.38" y="-170.38" font-family="Times,serif" font-size="10.00">mal_math::vec&lt; L, T &gt;</text>
</a>
</g>
</g>
<!-- Node2&#45;&gt;Node1 -->
<g id="edge1_Node000001_Node000002" class="edge">
<title>Node2&#45;&gt;Node1</title>
<g id="a_edge1_Node000001_Node000002"><a xlink:title=" ">
<path fill="none" stroke="#9a32cd" stroke-dasharray="5,2" d="M651.78,-159.62C669.45,-151.64 691.37,-141.36 710.5,-131.25 723.64,-124.31 737.89,-115.93 749.6,-108.81"/>
<polygon fill="#9a32cd" stroke="#9a32cd" points="650.48,-156.37 642.78,-163.65 653.34,-162.76 650.48,-156.37"/>
</a>
</g>
<text text-anchor="middle" x="699.62" y="-143" font-family="Times,serif" font-size="10.00" fill="grey"> size</text>
</g>
<!-- Node3 -->
<g id="Node000003" class="node">
<title>Node3</title>
<g id="a_Node000003"><a xlink:title=" ">
<polygon fill="white" stroke="#666666" points="505.12,-220.88 401.38,-220.88 401.38,-201.62 505.12,-201.62 505.12,-220.88"/>
<text text-anchor="middle" x="453.25" y="-207.38" font-family="Times,serif" font-size="10.00">static constexpr size_t</text>
</a>
</g>
</g>
<!-- Node3&#45;&gt;Node2 -->
<g id="edge2_Node000002_Node000003" class="edge">
<title>Node3&#45;&gt;Node2</title>
<g id="a_edge2_Node000002_Node000003"><a xlink:title=" ">
<path fill="none" stroke="#9a32cd" stroke-dasharray="5,2" d="M509.6,-198.62C530,-193.96 552.83,-188.75 572.13,-184.35"/>
<polygon fill="#9a32cd" stroke="#9a32cd" points="509,-195.17 500.03,-200.8 510.56,-201.99 509,-195.17"/>
</a>
</g>
<text text-anchor="middle" x="536.25" y="-195" font-family="Times,serif" font-size="10.00" fill="grey"> size</text>
</g>
<!-- Node4 -->
<g id="Node000004" class="node">
<title>Node4</title>
<g id="a_Node000004"><a xlink:title=" ">
<polygon fill="white" stroke="#666666" points="501,-183.88 405.5,-183.88 405.5,-164.62 501,-164.62 501,-183.88"/>
<text text-anchor="middle" x="453.25" y="-170.38" font-family="Times,serif" font-size="10.00">std::array&lt; T, size &gt;</text>
</a>
</g>
</g>
<!-- Node4&#45;&gt;Node2 -->
<g id="edge3_Node000002_Node000004" class="edge">
<title>Node4&#45;&gt;Node2</title>
<g id="a_edge3_Node000002_Node000004"><a xlink:title=" ">
<path fill="none" stroke="#9a32cd" stroke-dasharray="5,2" d="M512.44,-174.25C529.14,-174.25 547.25,-174.25 563.61,-174.25"/>
<polygon fill="#9a32cd" stroke="#9a32cd" points="512.66,-170.75 502.66,-174.25 512.66,-177.75 512.66,-170.75"/>
</a>
</g>
<text text-anchor="middle" x="536.25" y="-176" font-family="Times,serif" font-size="10.00" fill="grey"> data</text>
</g>
<!-- Node5 -->
<g id="Node000005" class="node">
<title>Node5</title>
<g id="a_Node000005"><a xlink:title=" ">
<polygon fill="white" stroke="#666666" points="60.65,-225.88 31.85,-225.88 31.85,-206.62 60.65,-206.62 60.65,-225.88"/>
<text text-anchor="middle" x="46.25" y="-212.38" font-family="Times,serif" font-size="10.00">T</text>
</a>
</g>
</g>
<!-- Node5&#45;&gt;Node4 -->
<g id="edge4_Node000004_Node000005" class="edge">
<title>Node5&#45;&gt;Node4</title>
<g id="a_edge4_Node000004_Node000005"><a xlink:title=" ">
<path fill="none" stroke="#9a32cd" stroke-dasharray="5,2" d="M71.88,-223.49C129.61,-238.99 276.55,-269.81 380,-216.25 391.84,-210.12 387.18,-200.04 398,-192.25 402.35,-189.12 407.28,-186.51 412.35,-184.34"/>
<polygon fill="#9a32cd" stroke="#9a32cd" points="73,-220.17 62.42,-220.86 71.12,-226.91 73,-220.17"/>
</a>
</g>
<text text-anchor="middle" x="226.88" y="-248" font-family="Times,serif" font-size="10.00" fill="grey"> elements</text>
</g>
<!-- Node6 -->
<g id="Node000006" class="node">
<title>Node6</title>
<g id="a_Node000006"><a xlink:title=" ">
<polygon fill="white" stroke="#666666" points="264.5,-138.88 189.25,-138.88 189.25,-119.62 264.5,-119.62 264.5,-138.88"/>
<text text-anchor="middle" x="226.88" y="-125.38" font-family="Times,serif" font-size="10.00">std::array&lt; T &gt;</text>
</a>
</g>
</g>
<!-- Node5&#45;&gt;Node6 -->
<g id="edge6_Node000006_Node000005" class="edge">
<title>Node5&#45;&gt;Node6</title>
<g id="a_edge6_Node000006_Node000005"><a xlink:title=" ">
<path fill="none" stroke="#9a32cd" stroke-dasharray="5,2" d="M71.3,-204.54C106.59,-187.35 171.82,-155.58 205.13,-139.36"/>
<polygon fill="#9a32cd" stroke="#9a32cd" points="69.79,-201.38 62.33,-208.9 72.85,-207.67 69.79,-201.38"/>
</a>
</g>
<text text-anchor="middle" x="136.38" y="-184" font-family="Times,serif" font-size="10.00" fill="grey"> elements</text>
</g>
<!-- Node6&#45;&gt;Node4 -->
<g id="edge5_Node000004_Node000006" class="edge">
<title>Node6&#45;&gt;Node4</title>
<g id="a_edge5_Node000004_Node000006"><a xlink:title=" ">
<path fill="none" stroke="orange" stroke-dasharray="5,2" d="M262.74,-143.35C271.97,-146.67 282.01,-149.91 291.5,-152.25 329.24,-161.54 373.01,-167.21 405.33,-170.46"/>
<polygon fill="orange" stroke="orange" points="263.99,-140.08 253.39,-139.85 261.53,-146.63 263.99,-140.08"/>
</a>
</g>
<text text-anchor="middle" x="335.75" y="-169" font-family="Times,serif" font-size="10.00" fill="grey"> &lt; T, size &gt;</text>
</g>
<!-- Node7 -->
<g id="Node000007" class="node">
<title>Node7</title>
<g id="a_Node000007"><a xlink:title=" ">
<polygon fill="white" stroke="#666666" points="508.5,-143.75 398,-143.75 398,-90.75 508.5,-90.75 508.5,-143.75"/>
<text text-anchor="start" x="406" y="-130.25" font-family="Times,serif" font-size="10.00">std::array&lt; mal_math</text>
<text text-anchor="start" x="406" y="-119" font-family="Times,serif" font-size="10.00">::_detail::primitive</text>
<text text-anchor="start" x="406" y="-107.75" font-family="Times,serif" font-size="10.00">_reference_wrapper&lt; T</text>
<text text-anchor="middle" x="453.25" y="-96.5" font-family="Times,serif" font-size="10.00"> &gt;, size.x *size.y &gt;</text>
</a>
</g>
</g>
<!-- Node6&#45;&gt;Node7 -->
<g id="edge9_Node000007_Node000006" class="edge">
<title>Node6&#45;&gt;Node7</title>
<g id="a_edge9_Node000007_Node000006"><a xlink:title=" ">
<path fill="none" stroke="orange" stroke-dasharray="5,2" d="M261.59,-115.26C271.09,-111.96 281.56,-108.92 291.5,-107.25 326.52,-101.37 366.36,-103.78 397.61,-107.71"/>
<polygon fill="orange" stroke="orange" points="260.54,-111.92 252.38,-118.66 262.97,-118.48 260.54,-111.92"/>
</a>
</g>
<text text-anchor="start" x="291.5" y="-142.75" font-family="Times,serif" font-size="10.00" fill="grey"> &lt; mal_math::_detail</text>
<text text-anchor="start" x="291.5" y="-131.5" font-family="Times,serif" font-size="10.00" fill="grey">::primitive_reference</text>
<text text-anchor="start" x="291.5" y="-120.25" font-family="Times,serif" font-size="10.00" fill="grey">_wrapper&lt; T &gt;, size.x</text>
<text text-anchor="middle" x="335.75" y="-109" font-family="Times,serif" font-size="10.00" fill="grey"> *size.y &gt;</text>
</g>
<!-- Node9 -->
<g id="Node000009" class="node">
<title>Node9</title>
<g id="a_Node000009"><a xlink:title=" ">
<polygon fill="white" stroke="#666666" points="504.75,-70.12 401.75,-70.12 401.75,-28.38 504.75,-28.38 504.75,-70.12"/>
<text text-anchor="start" x="409.75" y="-56.62" font-family="Times,serif" font-size="10.00">std::array&lt; mal_math</text>
<text text-anchor="start" x="409.75" y="-45.38" font-family="Times,serif" font-size="10.00">::_detail::rvec&lt; size.y,</text>
<text text-anchor="middle" x="453.25" y="-34.12" font-family="Times,serif" font-size="10.00"> T &gt;, size.x &gt;</text>
</a>
</g>
</g>
<!-- Node6&#45;&gt;Node9 -->
<g id="edge13_Node000009_Node000006" class="edge">
<title>Node6&#45;&gt;Node9</title>
<g id="a_edge13_Node000009_Node000006"><a xlink:title=" ">
<path fill="none" stroke="orange" stroke-dasharray="5,2" d="M240.83,-110.48C252.28,-95.53 270.41,-75.52 291.5,-65.5 325.7,-49.25 368.54,-45.62 401.39,-45.82"/>
<polygon fill="orange" stroke="orange" points="238.27,-108.05 235.2,-118.19 243.92,-112.18 238.27,-108.05"/>
</a>
</g>
<text text-anchor="start" x="294.5" y="-89.5" font-family="Times,serif" font-size="10.00" fill="grey"> &lt; mal_math::_detail</text>
<text text-anchor="start" x="294.5" y="-78.25" font-family="Times,serif" font-size="10.00" fill="grey">::rvec&lt; size.y, T &gt;,</text>
<text text-anchor="middle" x="335.75" y="-67" font-family="Times,serif" font-size="10.00" fill="grey"> size.x &gt;</text>
</g>
<!-- Node7&#45;&gt;Node1 -->
<g id="edge7_Node000001_Node000007" class="edge">
<title>Node7&#45;&gt;Node1</title>
<g id="a_edge7_Node000001_Node000007"><a xlink:title=" ">
<path fill="none" stroke="#9a32cd" stroke-dasharray="5,2" d="M520.16,-112.31C582.16,-107.66 673.41,-100.83 728.1,-96.73"/>
<polygon fill="#9a32cd" stroke="#9a32cd" points="520.16,-108.8 510.45,-113.04 520.68,-115.78 520.16,-108.8"/>
</a>
</g>
<text text-anchor="middle" x="617.38" y="-110" font-family="Times,serif" font-size="10.00" fill="grey"> arr</text>
</g>
<!-- Node8 -->
<g id="Node000008" class="node">
<title>Node8</title>
<g id="a_Node000008"><a xlink:title=" ">
<polygon fill="white" stroke="#666666" points="273.5,-210.5 180.25,-210.5 180.25,-180 273.5,-180 273.5,-210.5"/>
<text text-anchor="start" x="188.25" y="-197" font-family="Times,serif" font-size="10.00">primitive_reference</text>
<text text-anchor="middle" x="226.88" y="-185.75" font-family="Times,serif" font-size="10.00">_wrapper&lt; T &gt;</text>
</a>
</g>
</g>
<!-- Node8&#45;&gt;Node7 -->
<g id="edge8_Node000007_Node000008" class="edge">
<title>Node8&#45;&gt;Node7</title>
<g id="a_edge8_Node000007_Node000008"><a xlink:title=" ">
<path fill="none" stroke="#9a32cd" stroke-dasharray="5,2" d="M285.16,-201.79C315.31,-202.54 351.78,-198.94 380,-182.25 392.41,-174.91 387.92,-165.56 398,-155.25 401.78,-151.38 406,-147.66 410.37,-144.15"/>
<polygon fill="#9a32cd" stroke="#9a32cd" points="285.59,-198.31 275.45,-201.38 285.29,-205.3 285.59,-198.31"/>
</a>
</g>
<text text-anchor="middle" x="335.75" y="-203" font-family="Times,serif" font-size="10.00" fill="grey"> elements</text>
</g>
<!-- Node9&#45;&gt;Node1 -->
<g id="edge10_Node000001_Node000009" class="edge">
<title>Node9&#45;&gt;Node1</title>
<g id="a_edge10_Node000001_Node000009"><a xlink:title=" ">
<path fill="none" stroke="#9a32cd" stroke-dasharray="5,2" d="M516.19,-57.76C578.23,-66.28 672.3,-79.21 728.15,-86.88"/>
<polygon fill="#9a32cd" stroke="#9a32cd" points="516.88,-54.32 506.49,-56.43 515.92,-61.26 516.88,-54.32"/>
</a>
</g>
<text text-anchor="middle" x="617.38" y="-80" font-family="Times,serif" font-size="10.00" fill="grey"> data</text>
</g>
<!-- Node10 -->
<g id="Node000010" class="node">
<title>Node10</title>
<g id="a_Node000010"><a xlink:href="../../db/d79/structmal__math_1_1__detail_1_1rvec.html" target="_top" xlink:title=" ">
<polygon fill="white" stroke="#666666" points="273.12,-30.5 180.62,-30.5 180.62,0 273.12,0 273.12,-30.5"/>
<text text-anchor="start" x="188.62" y="-17" font-family="Times,serif" font-size="10.00">mal_math::_detail::</text>
<text text-anchor="middle" x="226.88" y="-5.75" font-family="Times,serif" font-size="10.00">rvec&lt; size.y, T &gt;</text>
</a>
</g>
</g>
<!-- Node10&#45;&gt;Node9 -->
<g id="edge11_Node000009_Node000010" class="edge">
<title>Node10&#45;&gt;Node9</title>
<g id="a_edge11_Node000009_Node000010"><a xlink:title=" ">
<path fill="none" stroke="#9a32cd" stroke-dasharray="5,2" d="M284.5,-9.87C313.4,-8.54 348.93,-9.11 380,-16 391.46,-18.54 403.27,-23.06 413.94,-27.96"/>
<polygon fill="#9a32cd" stroke="#9a32cd" points="284.67,-6.36 274.88,-10.4 285.05,-13.34 284.67,-6.36"/>
</a>
</g>
<text text-anchor="middle" x="335.75" y="-18" font-family="Times,serif" font-size="10.00" fill="grey"> elements</text>
</g>
<!-- Node11 -->
<g id="Node000011" class="node">
<title>Node11</title>
<g id="a_Node000011"><a xlink:href="../../db/d79/structmal__math_1_1__detail_1_1rvec.html" target="_top" xlink:title="Internal detail definition of a reference vector with fixed size L and type T">
<polygon fill="white" stroke="#666666" points="92.5,-30.5 0,-30.5 0,0 92.5,0 92.5,-30.5"/>
<text text-anchor="start" x="8" y="-17" font-family="Times,serif" font-size="10.00">mal_math::_detail::</text>
<text text-anchor="middle" x="46.25" y="-5.75" font-family="Times,serif" font-size="10.00">rvec&lt; L, T &gt;</text>
</a>
</g>
</g>
<!-- Node11&#45;&gt;Node10 -->
<g id="edge12_Node000010_Node000011" class="edge">
<title>Node11&#45;&gt;Node10</title>
<g id="a_edge12_Node000010_Node000011"><a xlink:title=" ">
<path fill="none" stroke="orange" stroke-dasharray="5,2" d="M104.17,-15.25C128.8,-15.25 157.23,-15.25 180.42,-15.25"/>
<polygon fill="orange" stroke="orange" points="104.3,-11.75 94.3,-15.25 104.3,-18.75 104.3,-11.75"/>
</a>
</g>
<text text-anchor="middle" x="136.38" y="-17" font-family="Times,serif" font-size="10.00" fill="grey"> &lt; size.y, T &gt;</text>
</g>
<!-- Node12 -->
<g id="Node000012" class="node">
<title>Node12</title>
<g id="a_Node000012"><a xlink:title=" ">
<polygon fill="white" stroke="#666666" points="658,-33.88 576.75,-33.88 576.75,-14.62 658,-14.62 658,-33.88"/>
<text text-anchor="middle" x="617.38" y="-20.38" font-family="Times,serif" font-size="10.00">anonymous:@15</text>
</a>
</g>
</g>
<!-- Node12&#45;&gt;Node1 -->
<g id="edge14_Node000001_Node000012" class="edge">
<title>Node12&#45;&gt;Node1</title>
<g id="a_edge14_Node000001_Node000012"><a xlink:title=" ">
<path fill="none" stroke="#9a32cd" stroke-dasharray="5,2" d="M669.4,-31.72C683.13,-34.79 697.72,-39.08 710.5,-45 728.18,-53.19 745.66,-66.85 757.88,-77.55"/>
<polygon fill="#9a32cd" stroke="#9a32cd" points="670.1,-28.29 659.61,-29.71 668.7,-35.14 670.1,-28.29"/>
</a>
</g>
<text text-anchor="middle" x="699.62" y="-47" font-family="Times,serif" font-size="10.00" fill="grey"> @15</text>
</g>
</g>
</svg>
