<?xml version="1.0" encoding="UTF-8" standalone="no"?>
<!DOCTYPE svg PUBLIC "-//W3C//DTD SVG 1.1//EN"
 "http://www.w3.org/Graphics/SVG/1.1/DTD/svg11.dtd">
<!-- Generated by graphviz version 9.0.0 (20230911.1827)
 -->
<!-- Title: include/math/vec.hpp Pages: 1 -->
<!--zoomable 359 -->

<svg id="main" version="1.1" xmlns="http://www.w3.org/2000/svg" xmlns:xlink="http://www.w3.org/1999/xlink" xml:space="preserve" onload="init(evt)">
<style type="text/css"><![CDATA[
.node, .edge {opacity: 0.7;}
.node.selected, .edge.selected {opacity: 1;}
.edge:hover path { stroke: red; }
.edge:hover polygon { stroke: red; fill: red; }
]]></style>

<defs>
  <circle id="rim" cx="0" cy="0" r="7"/>
  <circle id="rim2" cx="0" cy="0" r="3.5"/>
  <g id="zoomPlus">
    <use xlink:href="#rim" fill="#404040"><set attributeName="fill" to="#808080" begin="zoomplus.mouseover" end="zoomplus.mouseout"/></use>
    <path d="M-4,0h8M0,-4v8" fill="none" stroke="white" stroke-width="1.5" pointer-events="none"/>
  </g>
  <g id="zoomMin">
    <use xlink:href="#rim" fill="#404040"><set attributeName="fill" to="#808080" begin="zoomminus.mouseover" end="zoomminus.mouseout"/></use>
    <path d="M-4,0h8" fill="none" stroke="white" stroke-width="1.5" pointer-events="none"/>
  </g>
  <g id="arrowUp" transform="translate(30 24)">
    <use xlink:href="#rim"/>
    <path pointer-events="none" fill="none" stroke="white" stroke-width="1.5" d="M0,-3.0v7 M-2.5,-0.5L0,-3.0L2.5,-0.5"/>
  </g>
  <g id="arrowRight" transform="rotate(90) translate(36 -43)">
    <use xlink:href="#rim"/>
    <path pointer-events="none" fill="none" stroke="white" stroke-width="1.5" d="M0,-3.0v7 M-2.5,-0.5L0,-3.0L2.5,-0.5"/>
  </g>
  <g id="arrowDown" transform="rotate(180) translate(-30 -48)">
    <use xlink:href="#rim"/>
    <path pointer-events="none" fill="none" stroke="white" stroke-width="1.5" d="M0,-3.0v7 M-2.5,-0.5L0,-3.0L2.5,-0.5"/>
  </g>
  <g id="arrowLeft" transform="rotate(270) translate(-36 17)">
    <use xlink:href="#rim"/>
    <path pointer-events="none" fill="none" stroke="white" stroke-width="1.5" d="M0,-3.0v7 M-2.5,-0.5L0,-3.0L2.5,-0.5"/>
  </g>
  <g id="resetDef">
    <use xlink:href="#rim2" fill="#404040"><set attributeName="fill" to="#808080" begin="reset.mouseover" end="reset.mouseout"/></use>
  </g>
</defs>
<script type="application/ecmascript">
var viewWidth = 1632;
var viewHeight = 359;
var sectionId = 'dynsection-1';
</script>
<script type="application/ecmascript" xlink:href="../../svg.min.js"/>
<svg id="graph" class="graph">
<g id="viewport">
<title>include/math/vec.hpp</title>
<!-- Node1 -->
<g id="Node000001" class="node">
<title>Node1</title>
<g id="a_Node000001"><a xlink:title=" ">
<polygon fill="#999999" stroke="#666666" points="615.5,-350.75 512.5,-350.75 512.5,-331.5 615.5,-331.5 615.5,-350.75"/>
<text text-anchor="middle" x="564" y="-337.25" font-family="Times,serif" font-size="10.00">include/math/vec.hpp</text>
</a>
</g>
</g>
<!-- Node2 -->
<g id="Node000002" class="node">
<title>Node2</title>
<g id="a_Node000002"><a xlink:href="../../d4/d44/rvec2_8hpp.html" target="_top" xlink:title="Definitions for the rvec&lt;2, T&gt; specialized template representing 2D vectors with reference&#45;like seman...">
<polygon fill="white" stroke="#666666" points="112,-295.5 0,-295.5 0,-276.25 112,-276.25 112,-295.5"/>
<text text-anchor="middle" x="56" y="-282" font-family="Times,serif" font-size="10.00">include/math/rvec2.hpp</text>
</a>
</g>
</g>
<!-- Node1&#45;&gt;Node2 -->
<g id="edge1_Node000001_Node000002" class="edge">
<title>Node1&#45;&gt;Node2</title>
<g id="a_edge1_Node000001_Node000002"><a xlink:title=" ">
<path fill="none" stroke="#63b8ff" d="M500.97,-334.95C413.46,-327.17 250.66,-311.67 112.42,-295.55"/>
<polygon fill="#63b8ff" stroke="#63b8ff" points="500.51,-338.42 510.78,-335.81 501.13,-331.45 500.51,-338.42"/>
</a>
</g>
</g>
<!-- Node4 -->
<g id="Node000004" class="node">
<title>Node4</title>
<g id="a_Node000004"><a xlink:href="../../d9/dc3/rvec3_8hpp.html" target="_top" xlink:title="Provides the implementation of a 3D reference vector.">
<polygon fill="white" stroke="#666666" points="242,-295.5 130,-295.5 130,-276.25 242,-276.25 242,-295.5"/>
<text text-anchor="middle" x="186" y="-282" font-family="Times,serif" font-size="10.00">include/math/rvec3.hpp</text>
</a>
</g>
</g>
<!-- Node1&#45;&gt;Node4 -->
<g id="edge5_Node000001_Node000004" class="edge">
<title>Node1&#45;&gt;Node4</title>
<g id="a_edge5_Node000001_Node000004"><a xlink:title=" ">
<path fill="none" stroke="#63b8ff" d="M501.06,-331.97C428.86,-322.11 311.69,-305.61 242.37,-295.54"/>
<polygon fill="#63b8ff" stroke="#63b8ff" points="500.37,-335.4 510.75,-333.28 501.31,-328.47 500.37,-335.4"/>
</a>
</g>
</g>
<!-- Node6 -->
<g id="Node000006" class="node">
<title>Node6</title>
<g id="a_Node000006"><a xlink:href="../../d2/d88/rvec4_8hpp.html" target="_top" xlink:title="Defines a 4&#45;dimensional reference vector struct.">
<polygon fill="white" stroke="#666666" points="372,-295.5 260,-295.5 260,-276.25 372,-276.25 372,-295.5"/>
<text text-anchor="middle" x="316" y="-282" font-family="Times,serif" font-size="10.00">include/math/rvec4.hpp</text>
</a>
</g>
</g>
<!-- Node1&#45;&gt;Node6 -->
<g id="edge9_Node000001_Node000006" class="edge">
<title>Node1&#45;&gt;Node6</title>
<g id="a_edge9_Node000001_Node000006"><a xlink:title=" ">
<path fill="none" stroke="#63b8ff" d="M505.42,-328.76C458.17,-318.96 393.27,-304.99 352.95,-295.93"/>
<polygon fill="#63b8ff" stroke="#63b8ff" points="504.44,-332.13 514.94,-330.73 505.85,-325.27 504.44,-332.13"/>
</a>
</g>
</g>
<!-- Node8 -->
<g id="Node000008" class="node">
<title>Node8</title>
<g id="a_Node000008"><a xlink:href="../../d8/def/vec_8cpp.html" target="_top" xlink:title=" ">
<polygon fill="white" stroke="#666666" points="492.12,-295.5 389.88,-295.5 389.88,-276.25 492.12,-276.25 492.12,-295.5"/>
<text text-anchor="middle" x="441" y="-282" font-family="Times,serif" font-size="10.00">include/math/vec.cpp</text>
</a>
</g>
</g>
<!-- Node1&#45;&gt;Node8 -->
<g id="edge13_Node000001_Node000008" class="edge">
<title>Node1&#45;&gt;Node8</title>
<g id="a_edge13_Node000001_Node000008"><a xlink:title=" ">
<path fill="none" stroke="#63b8ff" d="M532.58,-326.52C510.42,-316.93 481.35,-304.34 461.97,-295.95"/>
<polygon fill="#63b8ff" stroke="#63b8ff" points="531.18,-329.73 541.75,-330.49 533.96,-323.31 531.18,-329.73"/>
</a>
</g>
</g>
<!-- Node9 -->
<g id="Node000009" class="node">
<title>Node9</title>
<g id="a_Node000009"><a xlink:href="../../dd/d91/vec2_8hpp.html" target="_top" xlink:title="Defines a 2D vector and provides its operations.">
<polygon fill="white" stroke="#666666" points="618.12,-295.5 509.88,-295.5 509.88,-276.25 618.12,-276.25 618.12,-295.5"/>
<text text-anchor="middle" x="564" y="-282" font-family="Times,serif" font-size="10.00">include/math/vec2.hpp</text>
</a>
</g>
</g>
<!-- Node1&#45;&gt;Node9 -->
<g id="edge14_Node000001_Node000009" class="edge">
<title>Node1&#45;&gt;Node9</title>
<g id="a_edge14_Node000001_Node000009"><a xlink:title=" ">
<path fill="none" stroke="#63b8ff" d="M557.44,-320.17C556.95,-311.8 557.4,-302.5 558.79,-295.86"/>
<polygon fill="#63b8ff" stroke="#63b8ff" points="553.94,-320.34 558.65,-329.83 560.88,-319.47 553.94,-320.34"/>
</a>
</g>
</g>
<!-- Node11 -->
<g id="Node000011" class="node">
<title>Node11</title>
<g id="a_Node000011"><a xlink:href="../../d9/dcd/vec3_8hpp.html" target="_top" xlink:title="Header file for the 3D vector definition.">
<polygon fill="white" stroke="#666666" points="744.12,-295.5 635.88,-295.5 635.88,-276.25 744.12,-276.25 744.12,-295.5"/>
<text text-anchor="middle" x="690" y="-282" font-family="Times,serif" font-size="10.00">include/math/vec3.hpp</text>
</a>
</g>
</g>
<!-- Node1&#45;&gt;Node11 -->
<g id="edge18_Node000001_Node000011" class="edge">
<title>Node1&#45;&gt;Node11</title>
<g id="a_edge18_Node000001_Node000011"><a xlink:title=" ">
<path fill="none" stroke="#63b8ff" d="M590.51,-326.39C611.95,-316.81 641.8,-304.31 663.29,-295.95"/>
<polygon fill="#63b8ff" stroke="#63b8ff" points="589.19,-323.14 581.54,-330.47 592.09,-329.52 589.19,-323.14"/>
</a>
</g>
</g>
<!-- Node13 -->
<g id="Node000013" class="node">
<title>Node13</title>
<g id="a_Node000013"><a xlink:href="../../dd/dc5/vec4_8hpp.html" target="_top" xlink:title="Contains the definition of the vec&lt;4, T&gt; structure.">
<polygon fill="white" stroke="#666666" points="870.12,-295.5 761.88,-295.5 761.88,-276.25 870.12,-276.25 870.12,-295.5"/>
<text text-anchor="middle" x="816" y="-282" font-family="Times,serif" font-size="10.00">include/math/vec4.hpp</text>
</a>
</g>
</g>
<!-- Node1&#45;&gt;Node13 -->
<g id="edge22_Node000001_Node000013" class="edge">
<title>Node1&#45;&gt;Node13</title>
<g id="a_edge22_Node000001_Node000013"><a xlink:title=" ">
<path fill="none" stroke="#63b8ff" d="M612.99,-328.57C657.76,-318.78 723.44,-304.94 767.92,-295.93"/>
<polygon fill="#63b8ff" stroke="#63b8ff" points="612.3,-325.14 603.28,-330.71 613.8,-331.98 612.3,-325.14"/>
</a>
</g>
</g>
<!-- Node15 -->
<g id="Node000015" class="node">
<title>Node15</title>
<g id="a_Node000015"><a xlink:href="../../df/dc2/vec__math_8hpp.html" target="_top" xlink:title="Contains a collection of mathematical operations and utility functions for vector objects.">
<polygon fill="white" stroke="#666666" points="1016.25,-295.5 887.75,-295.5 887.75,-276.25 1016.25,-276.25 1016.25,-295.5"/>
<text text-anchor="middle" x="952" y="-282" font-family="Times,serif" font-size="10.00">include/math/vec_math.hpp</text>
</a>
</g>
</g>
<!-- Node1&#45;&gt;Node15 -->
<g id="edge26_Node000001_Node000015" class="edge">
<title>Node1&#45;&gt;Node15</title>
<g id="a_edge26_Node000001_Node000015"><a xlink:title=" ">
<path fill="none" stroke="#63b8ff" d="M627.03,-331.47C698.72,-321.64 815.17,-305.65 887.47,-295.73"/>
<polygon fill="#63b8ff" stroke="#63b8ff" points="626.86,-327.97 617.42,-332.79 627.81,-334.9 626.86,-327.97"/>
</a>
</g>
</g>
<!-- Node36 -->
<g id="Node000036" class="node">
<title>Node36</title>
<g id="a_Node000036"><a xlink:href="../../d4/d02/vecn_8hpp.html" target="_top" xlink:title="Contains the definition of the generic vec&lt;L, T&gt; structure.">
<polygon fill="white" stroke="#666666" points="1199.12,-295.5 1090.88,-295.5 1090.88,-276.25 1199.12,-276.25 1199.12,-295.5"/>
<text text-anchor="middle" x="1145" y="-282" font-family="Times,serif" font-size="10.00">include/math/vecn.hpp</text>
</a>
</g>
</g>
<!-- Node1&#45;&gt;Node36 -->
<g id="edge64_Node000001_Node000036" class="edge">
<title>Node1&#45;&gt;Node36</title>
<g id="a_edge64_Node000001_Node000036"><a xlink:title=" ">
<path fill="none" stroke="#63b8ff" d="M627.15,-333.92C741.9,-323.12 982.46,-301.09 1090.51,-291.5"/>
<polygon fill="#63b8ff" stroke="#63b8ff" points="626.92,-330.43 617.29,-334.85 627.58,-337.4 626.92,-330.43"/>
</a>
</g>
</g>
<!-- Node2&#45;&gt;Node1 -->
<g id="edge4_Node000002_Node000001" class="edge">
<title>Node2&#45;&gt;Node1</title>
<g id="a_edge4_Node000002_Node000001"><a xlink:title=" ">
<path fill="none" stroke="#63b8ff" d="M123.81,-294.76C125.9,-295.02 127.97,-295.26 130,-295.5 268.01,-311.6 430.62,-327.09 512.12,-334.89"/>
<polygon fill="#63b8ff" stroke="#63b8ff" points="124.34,-291.3 113.98,-293.55 123.48,-298.25 124.34,-291.3"/>
</a>
</g>
</g>
<!-- Node3 -->
<g id="Node000003" class="node">
<title>Node3</title>
<g id="a_Node000003"><a xlink:href="../../dd/d72/rvec2_8inl.html" target="_top" xlink:title=" ">
<polygon fill="white" stroke="#666666" points="109.38,-240.25 2.63,-240.25 2.63,-221 109.38,-221 109.38,-240.25"/>
<text text-anchor="middle" x="56" y="-226.75" font-family="Times,serif" font-size="10.00">include/math/rvec2.inl</text>
</a>
</g>
</g>
<!-- Node2&#45;&gt;Node3 -->
<g id="edge2_Node000002_Node000003" class="edge">
<title>Node2&#45;&gt;Node3</title>
<g id="a_edge2_Node000002_Node000003"><a xlink:title=" ">
<path fill="none" stroke="#63b8ff" d="M49.44,-264.92C48.95,-256.55 49.4,-247.25 50.79,-240.61"/>
<polygon fill="#63b8ff" stroke="#63b8ff" points="45.94,-265.09 50.65,-274.58 52.88,-264.22 45.94,-265.09"/>
</a>
</g>
</g>
<!-- Node3&#45;&gt;Node2 -->
<g id="edge3_Node000003_Node000002" class="edge">
<title>Node3&#45;&gt;Node2</title>
<g id="a_edge3_Node000003_Node000002"><a xlink:title=" ">
<path fill="none" stroke="#63b8ff" d="M62.57,-251.82C63.04,-260.21 62.58,-269.49 61.17,-276.08"/>
<polygon fill="#63b8ff" stroke="#63b8ff" points="66.07,-251.62 61.39,-242.11 59.12,-252.46 66.07,-251.62"/>
</a>
</g>
</g>
<!-- Node4&#45;&gt;Node1 -->
<g id="edge8_Node000004_Node000001" class="edge">
<title>Node4&#45;&gt;Node1</title>
<g id="a_edge8_Node000004_Node000001"><a xlink:title=" ">
<path fill="none" stroke="#63b8ff" d="M253.39,-295.64C327.59,-305.79 445.14,-322.36 512.39,-332.15"/>
<polygon fill="#63b8ff" stroke="#63b8ff" points="254.19,-292.22 243.81,-294.34 253.25,-299.15 254.19,-292.22"/>
</a>
</g>
</g>
<!-- Node5 -->
<g id="Node000005" class="node">
<title>Node5</title>
<g id="a_Node000005"><a xlink:href="../../d7/d70/rvec3_8inl.html" target="_top" xlink:title=" ">
<polygon fill="white" stroke="#666666" points="239.38,-240.25 132.62,-240.25 132.62,-221 239.38,-221 239.38,-240.25"/>
<text text-anchor="middle" x="186" y="-226.75" font-family="Times,serif" font-size="10.00">include/math/rvec3.inl</text>
</a>
</g>
</g>
<!-- Node4&#45;&gt;Node5 -->
<g id="edge6_Node000004_Node000005" class="edge">
<title>Node4&#45;&gt;Node5</title>
<g id="a_edge6_Node000004_Node000005"><a xlink:title=" ">
<path fill="none" stroke="#63b8ff" d="M179.44,-264.92C178.95,-256.55 179.4,-247.25 180.79,-240.61"/>
<polygon fill="#63b8ff" stroke="#63b8ff" points="175.94,-265.09 180.65,-274.58 182.88,-264.22 175.94,-265.09"/>
</a>
</g>
</g>
<!-- Node5&#45;&gt;Node4 -->
<g id="edge7_Node000005_Node000004" class="edge">
<title>Node5&#45;&gt;Node4</title>
<g id="a_edge7_Node000005_Node000004"><a xlink:title=" ">
<path fill="none" stroke="#63b8ff" d="M192.57,-251.82C193.04,-260.21 192.58,-269.49 191.17,-276.08"/>
<polygon fill="#63b8ff" stroke="#63b8ff" points="196.07,-251.62 191.39,-242.11 189.12,-252.46 196.07,-251.62"/>
</a>
</g>
</g>
<!-- Node6&#45;&gt;Node1 -->
<g id="edge12_Node000006_Node000001" class="edge">
<title>Node6&#45;&gt;Node1</title>
<g id="a_edge12_Node000006_Node000001"><a xlink:title=" ">
<path fill="none" stroke="#63b8ff" d="M374.39,-298.2C421.58,-307.99 486.49,-321.96 526.88,-331.03"/>
<polygon fill="#63b8ff" stroke="#63b8ff" points="375.38,-294.83 364.88,-296.24 373.97,-301.69 375.38,-294.83"/>
</a>
</g>
</g>
<!-- Node7 -->
<g id="Node000007" class="node">
<title>Node7</title>
<g id="a_Node000007"><a xlink:href="../../d1/d9f/rvec4_8inl.html" target="_top" xlink:title=" ">
<polygon fill="white" stroke="#666666" points="369.38,-240.25 262.62,-240.25 262.62,-221 369.38,-221 369.38,-240.25"/>
<text text-anchor="middle" x="316" y="-226.75" font-family="Times,serif" font-size="10.00">include/math/rvec4.inl</text>
</a>
</g>
</g>
<!-- Node6&#45;&gt;Node7 -->
<g id="edge10_Node000006_Node000007" class="edge">
<title>Node6&#45;&gt;Node7</title>
<g id="a_edge10_Node000006_Node000007"><a xlink:title=" ">
<path fill="none" stroke="#63b8ff" d="M309.44,-264.92C308.95,-256.55 309.4,-247.25 310.79,-240.61"/>
<polygon fill="#63b8ff" stroke="#63b8ff" points="305.94,-265.09 310.65,-274.58 312.88,-264.22 305.94,-265.09"/>
</a>
</g>
</g>
<!-- Node7&#45;&gt;Node6 -->
<g id="edge11_Node000007_Node000006" class="edge">
<title>Node7&#45;&gt;Node6</title>
<g id="a_edge11_Node000007_Node000006"><a xlink:title=" ">
<path fill="none" stroke="#63b8ff" d="M322.57,-251.82C323.04,-260.21 322.58,-269.49 321.17,-276.08"/>
<polygon fill="#63b8ff" stroke="#63b8ff" points="326.07,-251.62 321.39,-242.11 319.12,-252.46 326.07,-251.62"/>
</a>
</g>
</g>
<!-- Node9&#45;&gt;Node1 -->
<g id="edge15_Node000009_Node000001" class="edge">
<title>Node9&#45;&gt;Node1</title>
<g id="a_edge15_Node000009_Node000001"><a xlink:title=" ">
<path fill="none" stroke="#63b8ff" d="M570.57,-307.07C571.04,-315.46 570.58,-324.74 569.17,-331.33"/>
<polygon fill="#63b8ff" stroke="#63b8ff" points="574.07,-306.87 569.39,-297.36 567.12,-307.71 574.07,-306.87"/>
</a>
</g>
</g>
<!-- Node10 -->
<g id="Node000010" class="node">
<title>Node10</title>
<g id="a_Node000010"><a xlink:href="../../d2/d56/vec2_8inl.html" target="_top" xlink:title=" ">
<polygon fill="white" stroke="#666666" points="615.5,-240.25 512.5,-240.25 512.5,-221 615.5,-221 615.5,-240.25"/>
<text text-anchor="middle" x="564" y="-226.75" font-family="Times,serif" font-size="10.00">include/math/vec2.inl</text>
</a>
</g>
</g>
<!-- Node9&#45;&gt;Node10 -->
<g id="edge16_Node000009_Node000010" class="edge">
<title>Node9&#45;&gt;Node10</title>
<g id="a_edge16_Node000009_Node000010"><a xlink:title=" ">
<path fill="none" stroke="#63b8ff" d="M557.44,-264.92C556.95,-256.55 557.4,-247.25 558.79,-240.61"/>
<polygon fill="#63b8ff" stroke="#63b8ff" points="553.94,-265.09 558.65,-274.58 560.88,-264.22 553.94,-265.09"/>
</a>
</g>
</g>
<!-- Node10&#45;&gt;Node9 -->
<g id="edge17_Node000010_Node000009" class="edge">
<title>Node10&#45;&gt;Node9</title>
<g id="a_edge17_Node000010_Node000009"><a xlink:title=" ">
<path fill="none" stroke="#63b8ff" d="M570.57,-251.82C571.04,-260.21 570.58,-269.49 569.17,-276.08"/>
<polygon fill="#63b8ff" stroke="#63b8ff" points="574.07,-251.62 569.39,-242.11 567.12,-252.46 574.07,-251.62"/>
</a>
</g>
</g>
<!-- Node11&#45;&gt;Node1 -->
<g id="edge19_Node000011_Node000001" class="edge">
<title>Node11&#45;&gt;Node1</title>
<g id="a_edge19_Node000011_Node000001"><a xlink:title=" ">
<path fill="none" stroke="#63b8ff" d="M663.38,-300.66C641.91,-310.25 612.06,-322.75 590.59,-331.09"/>
<polygon fill="#63b8ff" stroke="#63b8ff" points="664.71,-303.9 672.37,-296.58 661.82,-297.53 664.71,-303.9"/>
</a>
</g>
</g>
<!-- Node12 -->
<g id="Node000012" class="node">
<title>Node12</title>
<g id="a_Node000012"><a xlink:href="../../d3/dc9/vec3_8inl.html" target="_top" xlink:title=" ">
<polygon fill="white" stroke="#666666" points="741.5,-240.25 638.5,-240.25 638.5,-221 741.5,-221 741.5,-240.25"/>
<text text-anchor="middle" x="690" y="-226.75" font-family="Times,serif" font-size="10.00">include/math/vec3.inl</text>
</a>
</g>
</g>
<!-- Node11&#45;&gt;Node12 -->
<g id="edge20_Node000011_Node000012" class="edge">
<title>Node11&#45;&gt;Node12</title>
<g id="a_edge20_Node000011_Node000012"><a xlink:title=" ">
<path fill="none" stroke="#63b8ff" d="M683.44,-264.92C682.95,-256.55 683.4,-247.25 684.79,-240.61"/>
<polygon fill="#63b8ff" stroke="#63b8ff" points="679.94,-265.09 684.65,-274.58 686.88,-264.22 679.94,-265.09"/>
</a>
</g>
</g>
<!-- Node12&#45;&gt;Node11 -->
<g id="edge21_Node000012_Node000011" class="edge">
<title>Node12&#45;&gt;Node11</title>
<g id="a_edge21_Node000012_Node000011"><a xlink:title=" ">
<path fill="none" stroke="#63b8ff" d="M696.57,-251.82C697.04,-260.21 696.58,-269.49 695.17,-276.08"/>
<polygon fill="#63b8ff" stroke="#63b8ff" points="700.07,-251.62 695.39,-242.11 693.12,-252.46 700.07,-251.62"/>
</a>
</g>
</g>
<!-- Node13&#45;&gt;Node1 -->
<g id="edge23_Node000013_Node000001" class="edge">
<title>Node13&#45;&gt;Node1</title>
<g id="a_edge23_Node000013_Node000001"><a xlink:title=" ">
<path fill="none" stroke="#63b8ff" d="M767.19,-298.39C722.48,-308.17 656.81,-322.01 612.26,-331.03"/>
<polygon fill="#63b8ff" stroke="#63b8ff" points="767.87,-301.82 776.89,-296.26 766.37,-294.98 767.87,-301.82"/>
</a>
</g>
</g>
<!-- Node14 -->
<g id="Node000014" class="node">
<title>Node14</title>
<g id="a_Node000014"><a xlink:href="../../da/d28/vec4_8inl.html" target="_top" xlink:title=" ">
<polygon fill="white" stroke="#666666" points="867.5,-240.25 764.5,-240.25 764.5,-221 867.5,-221 867.5,-240.25"/>
<text text-anchor="middle" x="816" y="-226.75" font-family="Times,serif" font-size="10.00">include/math/vec4.inl</text>
</a>
</g>
</g>
<!-- Node13&#45;&gt;Node14 -->
<g id="edge24_Node000013_Node000014" class="edge">
<title>Node13&#45;&gt;Node14</title>
<g id="a_edge24_Node000013_Node000014"><a xlink:title=" ">
<path fill="none" stroke="#63b8ff" d="M809.44,-264.92C808.95,-256.55 809.4,-247.25 810.79,-240.61"/>
<polygon fill="#63b8ff" stroke="#63b8ff" points="805.94,-265.09 810.65,-274.58 812.88,-264.22 805.94,-265.09"/>
</a>
</g>
</g>
<!-- Node14&#45;&gt;Node13 -->
<g id="edge25_Node000014_Node000013" class="edge">
<title>Node14&#45;&gt;Node13</title>
<g id="a_edge25_Node000014_Node000013"><a xlink:title=" ">
<path fill="none" stroke="#63b8ff" d="M822.57,-251.82C823.04,-260.21 822.58,-269.49 821.17,-276.08"/>
<polygon fill="#63b8ff" stroke="#63b8ff" points="826.07,-251.62 821.39,-242.11 819.12,-252.46 826.07,-251.62"/>
</a>
</g>
</g>
<!-- Node16 -->
<g id="Node000016" class="node">
<title>Node16</title>
<g id="a_Node000016"><a xlink:href="../../dc/dc2/mat_8hpp.html" target="_top" xlink:title="Provides matrix definitions tailored for various sizes and primitive types.">
<polygon fill="white" stroke="#666666" points="1131.25,-240.25 1026.75,-240.25 1026.75,-221 1131.25,-221 1131.25,-240.25"/>
<text text-anchor="middle" x="1079" y="-226.75" font-family="Times,serif" font-size="10.00">include/math/mat.hpp</text>
</a>
</g>
</g>
<!-- Node15&#45;&gt;Node16 -->
<g id="edge27_Node000015_Node000016" class="edge">
<title>Node15&#45;&gt;Node16</title>
<g id="a_edge27_Node000015_Node000016"><a xlink:title=" ">
<path fill="none" stroke="#63b8ff" d="M984.13,-271.4C1007.05,-261.79 1037.25,-249.13 1057.35,-240.7"/>
<polygon fill="#63b8ff" stroke="#63b8ff" points="982.81,-268.16 974.94,-275.26 985.52,-274.62 982.81,-268.16"/>
</a>
</g>
</g>
<!-- Node35 -->
<g id="Node000035" class="node">
<title>Node35</title>
<g id="a_Node000035"><a xlink:href="../../dc/d15/vec__math_8inl.html" target="_top" xlink:title=" ">
<polygon fill="white" stroke="#666666" points="1008.62,-240.25 885.38,-240.25 885.38,-221 1008.62,-221 1008.62,-240.25"/>
<text text-anchor="middle" x="947" y="-226.75" font-family="Times,serif" font-size="10.00">include/math/vec_math.inl</text>
</a>
</g>
</g>
<!-- Node15&#45;&gt;Node35 -->
<g id="edge62_Node000015_Node000035" class="edge">
<title>Node15&#45;&gt;Node35</title>
<g id="a_edge62_Node000015_Node000035"><a xlink:title=" ">
<path fill="none" stroke="#63b8ff" d="M943.57,-264.92C942.29,-256.55 941.87,-247.25 942.64,-240.61"/>
<polygon fill="#63b8ff" stroke="#63b8ff" points="940.13,-265.58 945.68,-274.6 946.97,-264.09 940.13,-265.58"/>
</a>
</g>
</g>
<!-- Node17 -->
<g id="Node000017" class="node">
<title>Node17</title>
<g id="a_Node000017"><a xlink:href="../../d4/d78/math_8hpp.html" target="_top" xlink:title="Provides various mathematical utilities, vector operations, and custom hash specializations.">
<polygon fill="white" stroke="#666666" points="1193.25,-129.75 1106.75,-129.75 1106.75,-110.5 1193.25,-110.5 1193.25,-129.75"/>
<text text-anchor="middle" x="1150" y="-116.25" font-family="Times,serif" font-size="10.00">include/math.hpp</text>
</a>
</g>
</g>
<!-- Node16&#45;&gt;Node17 -->
<g id="edge28_Node000016_Node000017" class="edge">
<title>Node16&#45;&gt;Node17</title>
<g id="a_edge28_Node000016_Node000017"><a xlink:title=" ">
<path fill="none" stroke="#63b8ff" d="M1114.17,-215.44C1127.13,-208.33 1140.47,-198.33 1148,-185 1157.82,-167.61 1154.82,-143.1 1152.17,-130.07"/>
<polygon fill="#63b8ff" stroke="#63b8ff" points="1112.71,-212.26 1105.34,-219.86 1115.84,-218.52 1112.71,-212.26"/>
</a>
</g>
</g>
<!-- Node25 -->
<g id="Node000025" class="node">
<title>Node25</title>
<g id="a_Node000025"><a xlink:href="../../d1/dea/mat_8cpp.html" target="_top" xlink:title=" ">
<polygon fill="white" stroke="#666666" points="1000.88,-185 897.12,-185 897.12,-165.75 1000.88,-165.75 1000.88,-185"/>
<text text-anchor="middle" x="949" y="-171.5" font-family="Times,serif" font-size="10.00">include/math/mat.cpp</text>
</a>
</g>
</g>
<!-- Node16&#45;&gt;Node25 -->
<g id="edge44_Node000016_Node000025" class="edge">
<title>Node16&#45;&gt;Node25</title>
<g id="a_edge44_Node000016_Node000025"><a xlink:title=" ">
<path fill="none" stroke="#63b8ff" d="M1046.43,-216.28C1022.93,-206.66 991.83,-193.92 971.16,-185.45"/>
<polygon fill="#63b8ff" stroke="#63b8ff" points="1044.97,-219.47 1055.55,-220.02 1047.62,-212.99 1044.97,-219.47"/>
</a>
</g>
</g>
<!-- Node26 -->
<g id="Node000026" class="node">
<title>Node26</title>
<g id="a_Node000026"><a xlink:href="../../dc/d4a/mat__math_8hpp.html" target="_top" xlink:title="Defines various matrix mathematical operations.">
<polygon fill="white" stroke="#666666" points="879,-185 749,-185 749,-165.75 879,-165.75 879,-185"/>
<text text-anchor="middle" x="814" y="-171.5" font-family="Times,serif" font-size="10.00">include/math/mat_math.hpp</text>
</a>
</g>
</g>
<!-- Node16&#45;&gt;Node26 -->
<g id="edge45_Node000016_Node000026" class="edge">
<title>Node16&#45;&gt;Node26</title>
<g id="a_edge45_Node000016_Node000026"><a xlink:title=" ">
<path fill="none" stroke="#63b8ff" d="M1017.43,-218.38C967,-208.58 897.24,-194.53 853.85,-185.43"/>
<polygon fill="#63b8ff" stroke="#63b8ff" points="1016.55,-221.78 1027.03,-220.24 1017.88,-214.91 1016.55,-221.78"/>
</a>
</g>
</g>
<!-- Node28 -->
<g id="Node000028" class="node">
<title>Node28</title>
<g id="a_Node000028"><a xlink:href="../../dd/dad/matnxn_8hpp.html" target="_top" xlink:title="Provides the definition of a generic NxN matrix for mathematical operations.">
<polygon fill="white" stroke="#666666" points="1138.75,-185 1019.25,-185 1019.25,-165.75 1138.75,-165.75 1138.75,-185"/>
<text text-anchor="middle" x="1079" y="-171.5" font-family="Times,serif" font-size="10.00">include/math/matnxn.hpp</text>
</a>
</g>
</g>
<!-- Node16&#45;&gt;Node28 -->
<g id="edge49_Node000016_Node000028" class="edge">
<title>Node16&#45;&gt;Node28</title>
<g id="a_edge49_Node000016_Node000028"><a xlink:title=" ">
<path fill="none" stroke="#63b8ff" d="M1072.44,-209.67C1071.95,-201.3 1072.4,-192 1073.79,-185.36"/>
<polygon fill="#63b8ff" stroke="#63b8ff" points="1068.94,-209.84 1073.65,-219.33 1075.88,-208.97 1068.94,-209.84"/>
</a>
</g>
</g>
<!-- Node30 -->
<g id="Node000030" class="node">
<title>Node30</title>
<g id="a_Node000030"><a xlink:href="../../db/d65/quaternion_8hpp.html" target="_top" xlink:title="Quaternion operations and related mathematical functions.">
<polygon fill="white" stroke="#666666" points="1343.12,-185 1210.88,-185 1210.88,-165.75 1343.12,-165.75 1343.12,-185"/>
<text text-anchor="middle" x="1277" y="-171.5" font-family="Times,serif" font-size="10.00">include/math/quaternion.hpp</text>
</a>
</g>
</g>
<!-- Node16&#45;&gt;Node30 -->
<g id="edge53_Node000016_Node000030" class="edge">
<title>Node16&#45;&gt;Node30</title>
<g id="a_edge53_Node000016_Node000030"><a xlink:title=" ">
<path fill="none" stroke="#63b8ff" d="M1123.36,-217.7C1159.64,-207.94 1210.19,-194.34 1243.25,-185.45"/>
<polygon fill="#63b8ff" stroke="#63b8ff" points="1122.8,-214.22 1114.05,-220.2 1124.62,-220.98 1122.8,-214.22"/>
</a>
</g>
</g>
<!-- Node33 -->
<g id="Node000033" class="node">
<title>Node33</title>
<g id="a_Node000033"><a xlink:href="../../db/de9/rmatnxn_8hpp.html" target="_top" xlink:title="Specialized representation of matrices using reference semantics.">
<polygon fill="white" stroke="#666666" points="1555.62,-185 1432.38,-185 1432.38,-165.75 1555.62,-165.75 1555.62,-185"/>
<text text-anchor="middle" x="1494" y="-171.5" font-family="Times,serif" font-size="10.00">include/math/rmatnxn.hpp</text>
</a>
</g>
</g>
<!-- Node16&#45;&gt;Node33 -->
<g id="edge58_Node000016_Node000033" class="edge">
<title>Node16&#45;&gt;Node33</title>
<g id="a_edge58_Node000016_Node000033"><a xlink:title=" ">
<path fill="none" stroke="#63b8ff" d="M1142.62,-219.45C1245.29,-205.81 1362.16,-191.35 1431.98,-183.14"/>
<polygon fill="#63b8ff" stroke="#63b8ff" points="1142.41,-215.95 1132.96,-220.74 1143.34,-222.89 1142.41,-215.95"/>
</a>
</g>
</g>
<!-- Node18 -->
<g id="Node000018" class="node">
<title>Node18</title>
<g id="a_Node000018"><a xlink:href="../../d7/de4/box_8hpp.html" target="_top" xlink:title="Defines a templated bounding box class for 3D primitives.">
<polygon fill="white" stroke="#666666" points="873.88,-74.5 770.12,-74.5 770.12,-55.25 873.88,-55.25 873.88,-74.5"/>
<text text-anchor="middle" x="822" y="-61" font-family="Times,serif" font-size="10.00">include/math/box.hpp</text>
</a>
</g>
</g>
<!-- Node17&#45;&gt;Node18 -->
<g id="edge29_Node000017_Node000018" class="edge">
<title>Node17&#45;&gt;Node18</title>
<g id="a_edge29_Node000017_Node000018"><a xlink:title=" ">
<path fill="none" stroke="#63b8ff" d="M1095.15,-111.51C1093.07,-111.17 1091.01,-110.83 1089,-110.5 1013.2,-98.09 925.64,-83.97 871.96,-75"/>
<polygon fill="#63b8ff" stroke="#63b8ff" points="1094.52,-114.95 1104.95,-113.11 1095.65,-108.04 1094.52,-114.95"/>
</a>
</g>
</g>
<!-- Node19 -->
<g id="Node000019" class="node">
<title>Node19</title>
<g id="a_Node000019"><a xlink:href="../../d6/d02/intersection_8hpp.html" target="_top" xlink:title="Provides functionalities to represent and handle intersections in 3D space.">
<polygon fill="white" stroke="#666666" points="1028,-74.5 892,-74.5 892,-55.25 1028,-55.25 1028,-74.5"/>
<text text-anchor="middle" x="960" y="-61" font-family="Times,serif" font-size="10.00">include/math/intersection.hpp</text>
</a>
</g>
</g>
<!-- Node17&#45;&gt;Node19 -->
<g id="edge31_Node000017_Node000019" class="edge">
<title>Node17&#45;&gt;Node19</title>
<g id="a_edge31_Node000017_Node000019"><a xlink:title=" ">
<path fill="none" stroke="#63b8ff" d="M1101.7,-107.2C1065.37,-97.44 1017.04,-83.84 987.16,-74.95"/>
<polygon fill="#63b8ff" stroke="#63b8ff" points="1100.53,-110.51 1111.09,-109.7 1102.33,-103.74 1100.53,-110.51"/>
</a>
</g>
</g>
<!-- Node21 -->
<g id="Node000021" class="node">
<title>Node21</title>
<g id="a_Node000021"><a xlink:href="../../d1/df2/random_8hpp.html" target="_top" xlink:title="Provides functionality for random number generation and manipulation in vector spaces.">
<polygon fill="white" stroke="#666666" points="1165.75,-74.5 1046.25,-74.5 1046.25,-55.25 1165.75,-55.25 1165.75,-74.5"/>
<text text-anchor="middle" x="1106" y="-61" font-family="Times,serif" font-size="10.00">include/math/random.hpp</text>
</a>
</g>
</g>
<!-- Node17&#45;&gt;Node21 -->
<g id="edge35_Node000017_Node000021" class="edge">
<title>Node17&#45;&gt;Node21</title>
<g id="a_edge35_Node000017_Node000021"><a xlink:title=" ">
<path fill="none" stroke="#63b8ff" d="M1129.79,-102.32C1121.45,-93.23 1112.84,-82.35 1108.22,-74.86"/>
<polygon fill="#63b8ff" stroke="#63b8ff" points="1127.04,-104.51 1136.51,-109.25 1132.06,-99.63 1127.04,-104.51"/>
</a>
</g>
</g>
<!-- Node22 -->
<g id="Node000022" class="node">
<title>Node22</title>
<g id="a_Node000022"><a xlink:href="../../db/d1d/ray_8hpp.html" target="_top" xlink:title="Contains the definition of the Ray class.">
<polygon fill="white" stroke="#666666" points="1461.75,-74.5 1360.25,-74.5 1360.25,-55.25 1461.75,-55.25 1461.75,-74.5"/>
<text text-anchor="middle" x="1411" y="-61" font-family="Times,serif" font-size="10.00">include/math/ray.hpp</text>
</a>
</g>
</g>
<!-- Node17&#45;&gt;Node22 -->
<g id="edge37_Node000017_Node000022" class="edge">
<title>Node17&#45;&gt;Node22</title>
<g id="a_edge37_Node000017_Node000022"><a xlink:title=" ">
<path fill="none" stroke="#63b8ff" d="M1200.35,-107.7C1246.79,-97.9 1315.19,-83.97 1361.39,-74.93"/>
<polygon fill="#63b8ff" stroke="#63b8ff" points="1199.88,-104.22 1190.82,-109.72 1201.33,-111.07 1199.88,-104.22"/>
</a>
</g>
</g>
<!-- Node24 -->
<g id="Node000024" class="node">
<title>Node24</title>
<g id="a_Node000024"><a xlink:href="../../d9/d6c/triangle_8hpp.html" target="_top" xlink:title="Defines the Triangle structure and methods for ray&#45;triangle intersection.">
<polygon fill="white" stroke="#666666" points="1341.75,-74.5 1222.25,-74.5 1222.25,-55.25 1341.75,-55.25 1341.75,-74.5"/>
<text text-anchor="middle" x="1282" y="-61" font-family="Times,serif" font-size="10.00">include/math/triangle.hpp</text>
</a>
</g>
</g>
<!-- Node17&#45;&gt;Node24 -->
<g id="edge42_Node000017_Node000024" class="edge">
<title>Node17&#45;&gt;Node24</title>
<g id="a_edge42_Node000017_Node000024"><a xlink:title=" ">
<path fill="none" stroke="#63b8ff" d="M1177.44,-105.65C1200,-96.04 1231.63,-83.38 1254.27,-74.95"/>
<polygon fill="#63b8ff" stroke="#63b8ff" points="1176.35,-102.31 1168.56,-109.49 1179.13,-108.73 1176.35,-102.31"/>
</a>
</g>
</g>
<!-- Node18&#45;&gt;Node17 -->
<g id="edge30_Node000018_Node000017" class="edge">
<title>Node18&#45;&gt;Node17</title>
<g id="a_edge30_Node000018_Node000017"><a xlink:title=" ">
<path fill="none" stroke="#63b8ff" d="M885.29,-74.93C943.04,-83.87 1030.46,-97.97 1106.28,-110.38"/>
<polygon fill="#63b8ff" stroke="#63b8ff" points="886.06,-71.51 875.65,-73.44 885,-78.43 886.06,-71.51"/>
</a>
</g>
</g>
<!-- Node19&#45;&gt;Node17 -->
<g id="edge32_Node000019_Node000017" class="edge">
<title>Node19&#45;&gt;Node17</title>
<g id="a_edge32_Node000019_Node000017"><a xlink:title=" ">
<path fill="none" stroke="#63b8ff" d="M1008.48,-77.85C1044.85,-87.62 1093.17,-101.22 1122.99,-110.09"/>
<polygon fill="#63b8ff" stroke="#63b8ff" points="1009.64,-74.54 999.08,-75.34 1007.84,-81.3 1009.64,-74.54"/>
</a>
</g>
</g>
<!-- Node20 -->
<g id="Node000020" class="node">
<title>Node20</title>
<g id="a_Node000020"><a xlink:href="../../d7/d82/plane_8hpp.html" target="_top" xlink:title="Provides the definition of the Plane structure and its associated operations.">
<polygon fill="white" stroke="#666666" points="1249.25,-19.25 1138.75,-19.25 1138.75,0 1249.25,0 1249.25,-19.25"/>
<text text-anchor="middle" x="1194" y="-5.75" font-family="Times,serif" font-size="10.00">include/math/plane.hpp</text>
</a>
</g>
</g>
<!-- Node19&#45;&gt;Node20 -->
<g id="edge33_Node000019_Node000020" class="edge">
<title>Node19&#45;&gt;Node20</title>
<g id="a_edge33_Node000019_Node000020"><a xlink:title=" ">
<path fill="none" stroke="#63b8ff" d="M1011.04,-52.26C1054.05,-42.47 1114.72,-28.67 1154.2,-19.68"/>
<polygon fill="#63b8ff" stroke="#63b8ff" points="1010.41,-48.81 1001.44,-54.45 1011.96,-55.64 1010.41,-48.81"/>
</a>
</g>
</g>
<!-- Node20&#45;&gt;Node17 -->
<g id="edge34_Node000020_Node000017" class="edge">
<title>Node20&#45;&gt;Node17</title>
<g id="a_edge34_Node000020_Node000017"><a xlink:title=" ">
<path fill="none" stroke="#63b8ff" d="M1189.35,-30.33C1186.02,-43.16 1181.08,-60.12 1175,-74.5 1169.54,-87.42 1161.29,-101.39 1155.78,-110.19"/>
<polygon fill="#63b8ff" stroke="#63b8ff" points="1192.65,-31.53 1191.65,-20.99 1185.86,-29.86 1192.65,-31.53"/>
</a>
</g>
</g>
<!-- Node21&#45;&gt;Node17 -->
<g id="edge36_Node000021_Node000017" class="edge">
<title>Node21&#45;&gt;Node17</title>
<g id="a_edge36_Node000021_Node000017"><a xlink:title=" ">
<path fill="none" stroke="#63b8ff" d="M1126.42,-82.91C1134.77,-92.04 1143.35,-102.9 1147.9,-110.33"/>
<polygon fill="#63b8ff" stroke="#63b8ff" points="1129.15,-80.7 1119.68,-75.95 1124.12,-85.57 1129.15,-80.7"/>
</a>
</g>
</g>
<!-- Node22&#45;&gt;Node17 -->
<g id="edge38_Node000022_Node000017" class="edge">
<title>Node22&#45;&gt;Node17</title>
<g id="a_edge38_Node000022_Node000017"><a xlink:title=" ">
<path fill="none" stroke="#63b8ff" d="M1360.68,-77.3C1312.14,-87.54 1239.57,-102.3 1193.47,-111.27"/>
<polygon fill="#63b8ff" stroke="#63b8ff" points="1361.33,-80.74 1370.39,-75.24 1359.88,-73.89 1361.33,-80.74"/>
</a>
</g>
</g>
<!-- Node22&#45;&gt;Node20 -->
<g id="edge39_Node000022_Node000020" class="edge">
<title>Node22&#45;&gt;Node20</title>
<g id="a_edge39_Node000022_Node000020"><a xlink:title=" ">
<path fill="none" stroke="#63b8ff" d="M1363.16,-52.13C1323.34,-42.36 1267.45,-28.65 1230.99,-19.7"/>
<polygon fill="#63b8ff" stroke="#63b8ff" points="1362.17,-55.5 1372.72,-54.48 1363.84,-48.7 1362.17,-55.5"/>
</a>
</g>
</g>
<!-- Node23 -->
<g id="Node000023" class="node">
<title>Node23</title>
<g id="a_Node000023"><a xlink:href="../../d0/da1/sphere_8hpp.html" target="_top" xlink:title="Defines the Sphere structure and its associated functionality.">
<polygon fill="white" stroke="#666666" points="1507.88,-19.25 1392.12,-19.25 1392.12,0 1507.88,0 1507.88,-19.25"/>
<text text-anchor="middle" x="1450" y="-5.75" font-family="Times,serif" font-size="10.00">include/math/sphere.hpp</text>
</a>
</g>
</g>
<!-- Node22&#45;&gt;Node23 -->
<g id="edge40_Node000022_Node000023" class="edge">
<title>Node22&#45;&gt;Node23</title>
<g id="a_edge40_Node000022_Node000023"><a xlink:title=" ">
<path fill="none" stroke="#63b8ff" d="M1424.14,-45.94C1430.62,-37.09 1438.16,-26.79 1443.42,-19.61"/>
<polygon fill="#63b8ff" stroke="#63b8ff" points="1421.42,-43.73 1418.33,-53.86 1427.07,-47.86 1421.42,-43.73"/>
</a>
</g>
</g>
<!-- Node23&#45;&gt;Node17 -->
<g id="edge41_Node000023_Node000017" class="edge">
<title>Node23&#45;&gt;Node17</title>
<g id="a_edge41_Node000023_Node000017"><a xlink:title=" ">
<path fill="none" stroke="#63b8ff" d="M1464.43,-28.64C1473.76,-42.58 1482.26,-61.63 1471,-74.5 1431.28,-119.89 1261.65,-101.56 1202,-110.5 1199.28,-110.91 1196.49,-111.34 1193.68,-111.78"/>
<polygon fill="#63b8ff" stroke="#63b8ff" points="1467.39,-26.75 1458.65,-20.76 1461.75,-30.9 1467.39,-26.75"/>
</a>
</g>
</g>
<!-- Node24&#45;&gt;Node17 -->
<g id="edge43_Node000024_Node000017" class="edge">
<title>Node24&#45;&gt;Node17</title>
<g id="a_edge43_Node000024_Node000017"><a xlink:title=" ">
<path fill="none" stroke="#63b8ff" d="M1254.44,-79.4C1231.85,-89.02 1200.22,-101.68 1177.61,-110.09"/>
<polygon fill="#63b8ff" stroke="#63b8ff" points="1255.55,-82.73 1263.34,-75.55 1252.77,-76.31 1255.55,-82.73"/>
</a>
</g>
</g>
<!-- Node26&#45;&gt;Node16 -->
<g id="edge46_Node000026_Node000016" class="edge">
<title>Node26&#45;&gt;Node16</title>
<g id="a_edge46_Node000026_Node000016"><a xlink:title=" ">
<path fill="none" stroke="#63b8ff" d="M875.37,-187.58C925.74,-197.37 995.51,-211.42 1038.98,-220.53"/>
<polygon fill="#63b8ff" stroke="#63b8ff" points="876.26,-184.18 865.78,-185.72 874.93,-191.06 876.26,-184.18"/>
</a>
</g>
</g>
<!-- Node27 -->
<g id="Node000027" class="node">
<title>Node27</title>
<g id="a_Node000027"><a xlink:href="../../d7/dab/mat__math_8inl.html" target="_top" xlink:title=" ">
<polygon fill="white" stroke="#666666" points="876.38,-129.75 751.62,-129.75 751.62,-110.5 876.38,-110.5 876.38,-129.75"/>
<text text-anchor="middle" x="814" y="-116.25" font-family="Times,serif" font-size="10.00">include/math/mat_math.inl</text>
</a>
</g>
</g>
<!-- Node26&#45;&gt;Node27 -->
<g id="edge47_Node000026_Node000027" class="edge">
<title>Node26&#45;&gt;Node27</title>
<g id="a_edge47_Node000026_Node000027"><a xlink:title=" ">
<path fill="none" stroke="#63b8ff" d="M807.44,-154.42C806.95,-146.05 807.4,-136.75 808.79,-130.11"/>
<polygon fill="#63b8ff" stroke="#63b8ff" points="803.94,-154.59 808.65,-164.08 810.88,-153.72 803.94,-154.59"/>
</a>
</g>
</g>
<!-- Node27&#45;&gt;Node26 -->
<g id="edge48_Node000027_Node000026" class="edge">
<title>Node27&#45;&gt;Node26</title>
<g id="a_edge48_Node000027_Node000026"><a xlink:title=" ">
<path fill="none" stroke="#63b8ff" d="M820.57,-141.32C821.04,-149.71 820.58,-158.99 819.17,-165.58"/>
<polygon fill="#63b8ff" stroke="#63b8ff" points="824.07,-141.12 819.39,-131.61 817.12,-141.96 824.07,-141.12"/>
</a>
</g>
</g>
<!-- Node28&#45;&gt;Node16 -->
<g id="edge50_Node000028_Node000016" class="edge">
<title>Node28&#45;&gt;Node16</title>
<g id="a_edge50_Node000028_Node000016"><a xlink:title=" ">
<path fill="none" stroke="#63b8ff" d="M1085.57,-196.57C1086.04,-204.96 1085.58,-214.24 1084.17,-220.83"/>
<polygon fill="#63b8ff" stroke="#63b8ff" points="1089.07,-196.37 1084.39,-186.86 1082.12,-197.21 1089.07,-196.37"/>
</a>
</g>
</g>
<!-- Node29 -->
<g id="Node000029" class="node">
<title>Node29</title>
<g id="a_Node000029"><a xlink:href="../../d3/df6/matnxn_8inl.html" target="_top" xlink:title=" ">
<polygon fill="white" stroke="#666666" points="1089.12,-129.75 974.88,-129.75 974.88,-110.5 1089.12,-110.5 1089.12,-129.75"/>
<text text-anchor="middle" x="1032" y="-116.25" font-family="Times,serif" font-size="10.00">include/math/matnxn.inl</text>
</a>
</g>
</g>
<!-- Node28&#45;&gt;Node29 -->
<g id="edge51_Node000028_Node000029" class="edge">
<title>Node28&#45;&gt;Node29</title>
<g id="a_edge51_Node000028_Node000029"><a xlink:title=" ">
<path fill="none" stroke="#63b8ff" d="M1057.61,-157.33C1048.79,-148.25 1039.65,-137.45 1034.67,-130.02"/>
<polygon fill="#63b8ff" stroke="#63b8ff" points="1055.13,-159.8 1064.73,-164.28 1060.02,-154.79 1055.13,-159.8"/>
</a>
</g>
</g>
<!-- Node29&#45;&gt;Node28 -->
<g id="edge52_Node000029_Node000028" class="edge">
<title>Node29&#45;&gt;Node28</title>
<g id="a_edge52_Node000029_Node000028"><a xlink:title=" ">
<path fill="none" stroke="#63b8ff" d="M1053.11,-137.88C1062.05,-147.06 1071.38,-158.07 1076.41,-165.58"/>
<polygon fill="#63b8ff" stroke="#63b8ff" points="1055.82,-135.64 1046.22,-131.17 1050.94,-140.65 1055.82,-135.64"/>
</a>
</g>
</g>
<!-- Node30&#45;&gt;Node17 -->
<g id="edge54_Node000030_Node000017" class="edge">
<title>Node30&#45;&gt;Node17</title>
<g id="a_edge54_Node000030_Node000017"><a xlink:title=" ">
<path fill="none" stroke="#63b8ff" d="M1244.87,-160.9C1221.95,-151.29 1191.75,-138.63 1171.65,-130.2"/>
<polygon fill="#63b8ff" stroke="#63b8ff" points="1243.48,-164.12 1254.06,-164.76 1246.19,-157.66 1243.48,-164.12"/>
</a>
</g>
</g>
<!-- Node31 -->
<g id="Node000031" class="node">
<title>Node31</title>
<g id="a_Node000031"><a xlink:href="../../da/d59/quaternion_8cpp.html" target="_top" xlink:title=" ">
<polygon fill="white" stroke="#666666" points="1342.75,-129.75 1211.25,-129.75 1211.25,-110.5 1342.75,-110.5 1342.75,-129.75"/>
<text text-anchor="middle" x="1277" y="-116.25" font-family="Times,serif" font-size="10.00">include/math/quaternion.cpp</text>
</a>
</g>
</g>
<!-- Node30&#45;&gt;Node31 -->
<g id="edge55_Node000030_Node000031" class="edge">
<title>Node30&#45;&gt;Node31</title>
<g id="a_edge55_Node000030_Node000031"><a xlink:title=" ">
<path fill="none" stroke="#63b8ff" d="M1277,-154.13C1277,-145.84 1277,-136.67 1277,-130.11"/>
<polygon fill="#63b8ff" stroke="#63b8ff" points="1273.5,-154.07 1277,-164.07 1280.5,-154.07 1273.5,-154.07"/>
</a>
</g>
</g>
<!-- Node32 -->
<g id="Node000032" class="node">
<title>Node32</title>
<g id="a_Node000032"><a xlink:href="../../d8/d7f/quaternion_8inl.html" target="_top" xlink:title=" ">
<polygon fill="white" stroke="#666666" points="1487.5,-129.75 1360.5,-129.75 1360.5,-110.5 1487.5,-110.5 1487.5,-129.75"/>
<text text-anchor="middle" x="1424" y="-116.25" font-family="Times,serif" font-size="10.00">include/math/quaternion.inl</text>
</a>
</g>
</g>
<!-- Node30&#45;&gt;Node32 -->
<g id="edge56_Node000030_Node000032" class="edge">
<title>Node30&#45;&gt;Node32</title>
<g id="a_edge56_Node000030_Node000032"><a xlink:title=" ">
<path fill="none" stroke="#63b8ff" d="M1307.21,-161.29C1332.54,-151.64 1368.35,-138.75 1393.71,-130.2"/>
<polygon fill="#63b8ff" stroke="#63b8ff" points="1306.2,-157.93 1298.13,-164.8 1308.72,-164.46 1306.2,-157.93"/>
</a>
</g>
</g>
<!-- Node32&#45;&gt;Node30 -->
<g id="edge57_Node000032_Node000030" class="edge">
<title>Node32&#45;&gt;Node30</title>
<g id="a_edge57_Node000032_Node000030"><a xlink:title=" ">
<path fill="none" stroke="#63b8ff" d="M1393.66,-134.26C1368.29,-143.92 1332.48,-156.81 1307.15,-165.34"/>
<polygon fill="#63b8ff" stroke="#63b8ff" points="1394.69,-137.61 1402.76,-130.75 1392.17,-131.08 1394.69,-137.61"/>
</a>
</g>
</g>
<!-- Node33&#45;&gt;Node16 -->
<g id="edge59_Node000033_Node000016" class="edge">
<title>Node33&#45;&gt;Node16</title>
<g id="a_edge59_Node000033_Node000016"><a xlink:title=" ">
<path fill="none" stroke="#63b8ff" d="M1420.87,-186.14C1351.01,-194.96 1242.93,-208.44 1149,-221 1143.38,-221.75 1137.47,-222.56 1131.56,-223.37"/>
<polygon fill="#63b8ff" stroke="#63b8ff" points="1421.19,-189.62 1430.67,-184.9 1420.31,-182.68 1421.19,-189.62"/>
</a>
</g>
</g>
<!-- Node34 -->
<g id="Node000034" class="node">
<title>Node34</title>
<g id="a_Node000034"><a xlink:href="../../df/da5/rmatnxn_8inl.html" target="_top" xlink:title=" ">
<polygon fill="white" stroke="#666666" points="1624,-129.75 1506,-129.75 1506,-110.5 1624,-110.5 1624,-129.75"/>
<text text-anchor="middle" x="1565" y="-116.25" font-family="Times,serif" font-size="10.00">include/math/rmatnxn.inl</text>
</a>
</g>
</g>
<!-- Node33&#45;&gt;Node34 -->
<g id="edge60_Node000033_Node000034" class="edge">
<title>Node33&#45;&gt;Node34</title>
<g id="a_edge60_Node000033_Node000034"><a xlink:title=" ">
<path fill="none" stroke="#63b8ff" d="M1509.63,-157.93C1520.94,-148.8 1535.98,-137.79 1547.67,-130.2"/>
<polygon fill="#63b8ff" stroke="#63b8ff" points="1507.38,-155.25 1501.99,-164.37 1511.89,-160.61 1507.38,-155.25"/>
</a>
</g>
</g>
<!-- Node34&#45;&gt;Node33 -->
<g id="edge61_Node000034_Node000033" class="edge">
<title>Node34&#45;&gt;Node33</title>
<g id="a_edge61_Node000034_Node000033"><a xlink:title=" ">
<path fill="none" stroke="#63b8ff" d="M1549.85,-137.18C1538.47,-146.4 1523.13,-157.65 1511.26,-165.34"/>
<polygon fill="#63b8ff" stroke="#63b8ff" points="1551.78,-140.13 1557.17,-131 1547.27,-134.78 1551.78,-140.13"/>
</a>
</g>
</g>
<!-- Node35&#45;&gt;Node15 -->
<g id="edge63_Node000035_Node000015" class="edge">
<title>Node35&#45;&gt;Node15</title>
<g id="a_edge63_Node000035_Node000015"><a xlink:title=" ">
<path fill="none" stroke="#63b8ff" d="M955.47,-251.82C956.73,-260.21 957.13,-269.49 956.34,-276.08"/>
<polygon fill="#63b8ff" stroke="#63b8ff" points="958.9,-251.13 953.37,-242.09 952.06,-252.6 958.9,-251.13"/>
</a>
</g>
</g>
<!-- Node36&#45;&gt;Node1 -->
<g id="edge65_Node000036_Node000001" class="edge">
<title>Node36&#45;&gt;Node1</title>
<g id="a_edge65_Node000036_Node000001"><a xlink:title=" ">
<path fill="none" stroke="#63b8ff" d="M1079.3,-293.32C962.66,-304.29 721.98,-326.33 615.97,-335.72"/>
<polygon fill="#63b8ff" stroke="#63b8ff" points="1079.39,-296.82 1089.02,-292.4 1078.74,-289.85 1079.39,-296.82"/>
</a>
</g>
</g>
<!-- Node37 -->
<g id="Node000037" class="node">
<title>Node37</title>
<g id="a_Node000037"><a xlink:href="../../d6/d8c/vecn_8inl.html" target="_top" xlink:title=" ">
<polygon fill="white" stroke="#666666" points="1252.5,-240.25 1149.5,-240.25 1149.5,-221 1252.5,-221 1252.5,-240.25"/>
<text text-anchor="middle" x="1201" y="-226.75" font-family="Times,serif" font-size="10.00">include/math/vecn.inl</text>
</a>
</g>
</g>
<!-- Node36&#45;&gt;Node37 -->
<g id="edge66_Node000036_Node000037" class="edge">
<title>Node36&#45;&gt;Node37</title>
<g id="a_edge66_Node000036_Node000037"><a xlink:title=" ">
<path fill="none" stroke="#63b8ff" d="M1156.62,-267.79C1165.33,-258.75 1177,-248.02 1186.35,-240.61"/>
<polygon fill="#63b8ff" stroke="#63b8ff" points="1154.24,-265.21 1150.1,-274.96 1159.42,-269.92 1154.24,-265.21"/>
</a>
</g>
</g>
<!-- Node37&#45;&gt;Node36 -->
<g id="edge67_Node000037_Node000036" class="edge">
<title>Node37&#45;&gt;Node36</title>
<g id="a_edge67_Node000037_Node000036"><a xlink:title=" ">
<path fill="none" stroke="#63b8ff" d="M1189.3,-248.79C1180.62,-257.79 1169.03,-268.45 1159.72,-275.84"/>
<polygon fill="#63b8ff" stroke="#63b8ff" points="1191.67,-251.39 1195.81,-241.64 1186.49,-246.68 1191.67,-251.39"/>
</a>
</g>
</g>
</g>
</svg>

<g id="navigator" transform="translate(0 0)" fill="#404254">
  <rect fill="#f2f5e9" fill-opacity="0.5" stroke="#606060" stroke-width=".5" x="0" y="0" width="60" height="60"/>
  <use id="zoomplus" xlink:href="#zoomPlus" x="17" y="9" onmousedown="handleZoom(evt,'in')"/>
  <use id="zoomminus" xlink:href="#zoomMin" x="42" y="9" onmousedown="handleZoom(evt,'out')"/>
  <use id="reset" xlink:href="#resetDef" x="30" y="36" onmousedown="handleReset()"/>
   <use id="arrowup" xlink:href="#arrowUp" x="0" y="0" onmousedown="handlePan(0,-1)"/>
  <use id="arrowright" xlink:href="#arrowRight" x="0" y="0" onmousedown="handlePan(1,0)"/>
  <use id="arrowdown" xlink:href="#arrowDown" x="0" y="0" onmousedown="handlePan(0,1)"/>
  <use id="arrowleft" xlink:href="#arrowLeft" x="0" y="0" onmousedown="handlePan(-1,0)"/>
</g>
<svg viewBox="0 0 15 15" width="100%" height="30px" preserveAspectRatio="xMaxYMin meet">
 <g id="arrow_out" transform="scale(0.3 0.3)">
  <a xlink:href="vec_8hpp__dep__incl_org.svg" target="_base">
   <rect id="button" ry="5" rx="5" y="6" x="6" height="38" width="38"
        fill="#f2f5e9" fill-opacity="0.5" stroke="#606060" stroke-width="1.0"/>
   <path id="arrow"
     d="M 11.500037,31.436501 C 11.940474,20.09759 22.043105,11.32322 32.158766,21.979434 L 37.068811,17.246167 C 37.068811,17.246167 37.088388,32 37.088388,32 L 22.160133,31.978069 C 22.160133,31.978069 26.997745,27.140456 26.997745,27.140456 C 18.528582,18.264221 13.291696,25.230495 11.500037,31.436501 z"
     style="fill:#404040;"/>
  </a>
 </g>
</svg>

<style type='text/css'>
<![CDATA[
[data-mouse-over-selected='false'] { opacity: 0.7; }
[data-mouse-over-selected='true']  { opacity: 1.0; }
]]>
</style>
<script type="application/ecmascript"><![CDATA[
document.addEventListener('DOMContentLoaded', (event) => {
  highlightEdges();
  highlightAdjacentNodes();
});
]]></script>
</svg>
