<?xml version="1.0" encoding="UTF-8" standalone="no"?>
<!DOCTYPE svg PUBLIC "-//W3C//DTD SVG 1.1//EN"
 "http://www.w3.org/Graphics/SVG/1.1/DTD/svg11.dtd">
<!-- Generated by graphviz version 9.0.0 (20230911.1827)
 -->
<!-- Title: include/math/vec.hpp Pages: 1 -->
<!--zoomable 359 -->

<svg id="main" version="1.1" xmlns="http://www.w3.org/2000/svg" xmlns:xlink="http://www.w3.org/1999/xlink" xml:space="preserve" onload="init(evt)">
<style type="text/css"><![CDATA[
.node, .edge {opacity: 0.7;}
.node.selected, .edge.selected {opacity: 1;}
.edge:hover path { stroke: red; }
.edge:hover polygon { stroke: red; fill: red; }
]]></style>

<defs>
  <circle id="rim" cx="0" cy="0" r="7"/>
  <circle id="rim2" cx="0" cy="0" r="3.5"/>
  <g id="zoomPlus">
    <use xlink:href="#rim" fill="#404040"><set attributeName="fill" to="#808080" begin="zoomplus.mouseover" end="zoomplus.mouseout"/></use>
    <path d="M-4,0h8M0,-4v8" fill="none" stroke="white" stroke-width="1.5" pointer-events="none"/>
  </g>
  <g id="zoomMin">
    <use xlink:href="#rim" fill="#404040"><set attributeName="fill" to="#808080" begin="zoomminus.mouseover" end="zoomminus.mouseout"/></use>
    <path d="M-4,0h8" fill="none" stroke="white" stroke-width="1.5" pointer-events="none"/>
  </g>
  <g id="arrowUp" transform="translate(30 24)">
    <use xlink:href="#rim"/>
    <path pointer-events="none" fill="none" stroke="white" stroke-width="1.5" d="M0,-3.0v7 M-2.5,-0.5L0,-3.0L2.5,-0.5"/>
  </g>
  <g id="arrowRight" transform="rotate(90) translate(36 -43)">
    <use xlink:href="#rim"/>
    <path pointer-events="none" fill="none" stroke="white" stroke-width="1.5" d="M0,-3.0v7 M-2.5,-0.5L0,-3.0L2.5,-0.5"/>
  </g>
  <g id="arrowDown" transform="rotate(180) translate(-30 -48)">
    <use xlink:href="#rim"/>
    <path pointer-events="none" fill="none" stroke="white" stroke-width="1.5" d="M0,-3.0v7 M-2.5,-0.5L0,-3.0L2.5,-0.5"/>
  </g>
  <g id="arrowLeft" transform="rotate(270) translate(-36 17)">
    <use xlink:href="#rim"/>
    <path pointer-events="none" fill="none" stroke="white" stroke-width="1.5" d="M0,-3.0v7 M-2.5,-0.5L0,-3.0L2.5,-0.5"/>
  </g>
  <g id="resetDef">
    <use xlink:href="#rim2" fill="#404040"><set attributeName="fill" to="#808080" begin="reset.mouseover" end="reset.mouseout"/></use>
  </g>
</defs>
<script type="application/ecmascript">
var viewWidth = 883;
var viewHeight = 359;
var sectionId = 'dynsection-1';
</script>
<script type="application/ecmascript" xlink:href="../../svg.min.js"/>
<svg id="graph" class="graph">
<g id="viewport">
<title>include/math/vec.hpp</title>
<!-- Node1 -->
<g id="Node000001" class="node">
<title>Node1</title>
<g id="a_Node000001"><a xlink:title=" ">
<polygon fill="#999999" stroke="#666666" points="446.5,-350.75 343.5,-350.75 343.5,-331.5 446.5,-331.5 446.5,-350.75"/>
<text text-anchor="middle" x="395" y="-337.25" font-family="Times,serif" font-size="10.00">include/math/vec.hpp</text>
</a>
</g>
</g>
<!-- Node2 -->
<g id="Node000002" class="node">
<title>Node2</title>
<g id="a_Node000002"><a xlink:href="../../d8/def/vec_8cpp.html" target="_top" xlink:title=" ">
<polygon fill="white" stroke="#666666" points="380.12,-295.5 277.88,-295.5 277.88,-276.25 380.12,-276.25 380.12,-295.5"/>
<text text-anchor="middle" x="329" y="-282" font-family="Times,serif" font-size="10.00">include/math/vec.cpp</text>
</a>
</g>
</g>
<!-- Node1&#45;&gt;Node2 -->
<g id="edge1_Node000001_Node000002" class="edge">
<title>Node1&#45;&gt;Node2</title>
<g id="a_edge1_Node000001_Node000002"><a xlink:title=" ">
<path fill="none" stroke="#63b8ff" d="M374.91,-323.91C363.45,-314.67 349.52,-303.43 340.03,-295.77"/>
<polygon fill="#63b8ff" stroke="#63b8ff" points="372.65,-326.59 382.63,-330.14 377.04,-321.14 372.65,-326.59"/>
</a>
</g>
</g>
<!-- Node3 -->
<g id="Node000003" class="node">
<title>Node3</title>
<g id="a_Node000003"><a xlink:href="../../df/dc2/vec__math_8hpp.html" target="_top" xlink:title="Contains a collection of mathematical operations and utility functions for vector objects.">
<polygon fill="white" stroke="#666666" points="526.25,-295.5 397.75,-295.5 397.75,-276.25 526.25,-276.25 526.25,-295.5"/>
<text text-anchor="middle" x="462" y="-282" font-family="Times,serif" font-size="10.00">include/math/vec_math.hpp</text>
</a>
</g>
</g>
<!-- Node1&#45;&gt;Node3 -->
<g id="edge2_Node000001_Node000003" class="edge">
<title>Node1&#45;&gt;Node3</title>
<g id="a_edge2_Node000001_Node000003"><a xlink:title=" ">
<path fill="none" stroke="#63b8ff" d="M415.05,-324.19C426.75,-314.89 441.07,-303.51 450.8,-295.77"/>
<polygon fill="#63b8ff" stroke="#63b8ff" points="413.2,-321.19 407.55,-330.15 417.56,-326.67 413.2,-321.19"/>
</a>
</g>
</g>
<!-- Node4 -->
<g id="Node000004" class="node">
<title>Node4</title>
<g id="a_Node000004"><a xlink:href="../../dc/dc2/mat_8hpp.html" target="_top" xlink:title="Provides matrix definitions tailored for various sizes and primitive types.">
<polygon fill="white" stroke="#666666" points="382.25,-240.25 277.75,-240.25 277.75,-221 382.25,-221 382.25,-240.25"/>
<text text-anchor="middle" x="330" y="-226.75" font-family="Times,serif" font-size="10.00">include/math/mat.hpp</text>
</a>
</g>
</g>
<!-- Node3&#45;&gt;Node4 -->
<g id="edge3_Node000003_Node000004" class="edge">
<title>Node3&#45;&gt;Node4</title>
<g id="a_edge3_Node000003_Node000004"><a xlink:title=" ">
<path fill="none" stroke="#63b8ff" d="M429.25,-271.66C405.35,-262.02 373.59,-249.21 352.5,-240.7"/>
<polygon fill="#63b8ff" stroke="#63b8ff" points="427.62,-274.78 438.2,-275.28 430.24,-268.29 427.62,-274.78"/>
</a>
</g>
</g>
<!-- Node23 -->
<g id="Node000023" class="node">
<title>Node23</title>
<g id="a_Node000023"><a xlink:href="../../dc/d15/vec__math_8inl.html" target="_top" xlink:title=" ">
<polygon fill="white" stroke="#666666" points="523.62,-240.25 400.38,-240.25 400.38,-221 523.62,-221 523.62,-240.25"/>
<text text-anchor="middle" x="462" y="-226.75" font-family="Times,serif" font-size="10.00">include/math/vec_math.inl</text>
</a>
</g>
</g>
<!-- Node3&#45;&gt;Node23 -->
<g id="edge38_Node000003_Node000023" class="edge">
<title>Node3&#45;&gt;Node23</title>
<g id="a_edge38_Node000003_Node000023"><a xlink:title=" ">
<path fill="none" stroke="#63b8ff" d="M455.44,-264.92C454.95,-256.55 455.4,-247.25 456.79,-240.61"/>
<polygon fill="#63b8ff" stroke="#63b8ff" points="451.94,-265.09 456.65,-274.58 458.88,-264.22 451.94,-265.09"/>
</a>
</g>
</g>
<!-- Node5 -->
<g id="Node000005" class="node">
<title>Node5</title>
<g id="a_Node000005"><a xlink:href="../../d4/d78/math_8hpp.html" target="_top" xlink:title="Provides various mathematical utilities, vector operations, and custom hash specializations.">
<polygon fill="white" stroke="#666666" points="444.25,-129.75 357.75,-129.75 357.75,-110.5 444.25,-110.5 444.25,-129.75"/>
<text text-anchor="middle" x="401" y="-116.25" font-family="Times,serif" font-size="10.00">include/math.hpp</text>
</a>
</g>
</g>
<!-- Node4&#45;&gt;Node5 -->
<g id="edge4_Node000004_Node000005" class="edge">
<title>Node4&#45;&gt;Node5</title>
<g id="a_edge4_Node000004_Node000005"><a xlink:title=" ">
<path fill="none" stroke="#63b8ff" d="M365.17,-215.44C378.13,-208.33 391.47,-198.33 399,-185 408.82,-167.61 405.82,-143.1 403.17,-130.07"/>
<polygon fill="#63b8ff" stroke="#63b8ff" points="363.71,-212.26 356.34,-219.86 366.84,-218.52 363.71,-212.26"/>
</a>
</g>
</g>
<!-- Node13 -->
<g id="Node000013" class="node">
<title>Node13</title>
<g id="a_Node000013"><a xlink:href="../../d1/dea/mat_8cpp.html" target="_top" xlink:title=" ">
<polygon fill="white" stroke="#666666" points="251.88,-185 148.12,-185 148.12,-165.75 251.88,-165.75 251.88,-185"/>
<text text-anchor="middle" x="200" y="-171.5" font-family="Times,serif" font-size="10.00">include/math/mat.cpp</text>
</a>
</g>
</g>
<!-- Node4&#45;&gt;Node13 -->
<g id="edge20_Node000004_Node000013" class="edge">
<title>Node4&#45;&gt;Node13</title>
<g id="a_edge20_Node000004_Node000013"><a xlink:title=" ">
<path fill="none" stroke="#63b8ff" d="M297.43,-216.28C273.93,-206.66 242.83,-193.92 222.16,-185.45"/>
<polygon fill="#63b8ff" stroke="#63b8ff" points="295.97,-219.47 306.55,-220.02 298.62,-212.99 295.97,-219.47"/>
</a>
</g>
</g>
<!-- Node14 -->
<g id="Node000014" class="node">
<title>Node14</title>
<g id="a_Node000014"><a xlink:href="../../dc/d4a/mat__math_8hpp.html" target="_top" xlink:title="Defines various matrix mathematical operations.">
<polygon fill="white" stroke="#666666" points="130,-185 0,-185 0,-165.75 130,-165.75 130,-185"/>
<text text-anchor="middle" x="65" y="-171.5" font-family="Times,serif" font-size="10.00">include/math/mat_math.hpp</text>
</a>
</g>
</g>
<!-- Node4&#45;&gt;Node14 -->
<g id="edge21_Node000004_Node000014" class="edge">
<title>Node4&#45;&gt;Node14</title>
<g id="a_edge21_Node000004_Node000014"><a xlink:title=" ">
<path fill="none" stroke="#63b8ff" d="M268.43,-218.38C218,-208.58 148.24,-194.53 104.85,-185.43"/>
<polygon fill="#63b8ff" stroke="#63b8ff" points="267.55,-221.78 278.03,-220.24 268.88,-214.91 267.55,-221.78"/>
</a>
</g>
</g>
<!-- Node16 -->
<g id="Node000016" class="node">
<title>Node16</title>
<g id="a_Node000016"><a xlink:href="../../dd/dad/matnxn_8hpp.html" target="_top" xlink:title="Provides the definition of a generic NxN matrix for mathematical operations.">
<polygon fill="white" stroke="#666666" points="389.75,-185 270.25,-185 270.25,-165.75 389.75,-165.75 389.75,-185"/>
<text text-anchor="middle" x="330" y="-171.5" font-family="Times,serif" font-size="10.00">include/math/matnxn.hpp</text>
</a>
</g>
</g>
<!-- Node4&#45;&gt;Node16 -->
<g id="edge25_Node000004_Node000016" class="edge">
<title>Node4&#45;&gt;Node16</title>
<g id="a_edge25_Node000004_Node000016"><a xlink:title=" ">
<path fill="none" stroke="#63b8ff" d="M323.44,-209.67C322.95,-201.3 323.4,-192 324.79,-185.36"/>
<polygon fill="#63b8ff" stroke="#63b8ff" points="319.94,-209.84 324.65,-219.33 326.88,-208.97 319.94,-209.84"/>
</a>
</g>
</g>
<!-- Node18 -->
<g id="Node000018" class="node">
<title>Node18</title>
<g id="a_Node000018"><a xlink:href="../../db/d65/quaternion_8hpp.html" target="_top" xlink:title="Quaternion operations and related mathematical functions.">
<polygon fill="white" stroke="#666666" points="594.12,-185 461.88,-185 461.88,-165.75 594.12,-165.75 594.12,-185"/>
<text text-anchor="middle" x="528" y="-171.5" font-family="Times,serif" font-size="10.00">include/math/quaternion.hpp</text>
</a>
</g>
</g>
<!-- Node4&#45;&gt;Node18 -->
<g id="edge29_Node000004_Node000018" class="edge">
<title>Node4&#45;&gt;Node18</title>
<g id="a_edge29_Node000004_Node000018"><a xlink:title=" ">
<path fill="none" stroke="#63b8ff" d="M374.36,-217.7C410.64,-207.94 461.19,-194.34 494.25,-185.45"/>
<polygon fill="#63b8ff" stroke="#63b8ff" points="373.8,-214.22 365.05,-220.2 375.62,-220.98 373.8,-214.22"/>
</a>
</g>
</g>
<!-- Node21 -->
<g id="Node000021" class="node">
<title>Node21</title>
<g id="a_Node000021"><a xlink:href="../../db/de9/rmatnxn_8hpp.html" target="_top" xlink:title="Specialized representation of matrices using reference semantics.">
<polygon fill="white" stroke="#666666" points="806.62,-185 683.38,-185 683.38,-165.75 806.62,-165.75 806.62,-185"/>
<text text-anchor="middle" x="745" y="-171.5" font-family="Times,serif" font-size="10.00">include/math/rmatnxn.hpp</text>
</a>
</g>
</g>
<!-- Node4&#45;&gt;Node21 -->
<g id="edge34_Node000004_Node000021" class="edge">
<title>Node4&#45;&gt;Node21</title>
<g id="a_edge34_Node000004_Node000021"><a xlink:title=" ">
<path fill="none" stroke="#63b8ff" d="M393.62,-219.45C496.29,-205.81 613.16,-191.35 682.98,-183.14"/>
<polygon fill="#63b8ff" stroke="#63b8ff" points="393.41,-215.95 383.96,-220.74 394.34,-222.89 393.41,-215.95"/>
</a>
</g>
</g>
<!-- Node6 -->
<g id="Node000006" class="node">
<title>Node6</title>
<g id="a_Node000006"><a xlink:href="../../d7/de4/box_8hpp.html" target="_top" xlink:title="Defines a templated bounding box class for 3D primitives.">
<polygon fill="white" stroke="#666666" points="124.88,-74.5 21.12,-74.5 21.12,-55.25 124.88,-55.25 124.88,-74.5"/>
<text text-anchor="middle" x="73" y="-61" font-family="Times,serif" font-size="10.00">include/math/box.hpp</text>
</a>
</g>
</g>
<!-- Node5&#45;&gt;Node6 -->
<g id="edge5_Node000005_Node000006" class="edge">
<title>Node5&#45;&gt;Node6</title>
<g id="a_edge5_Node000005_Node000006"><a xlink:title=" ">
<path fill="none" stroke="#63b8ff" d="M346.15,-111.51C344.07,-111.17 342.01,-110.83 340,-110.5 264.2,-98.09 176.64,-83.97 122.96,-75"/>
<polygon fill="#63b8ff" stroke="#63b8ff" points="345.52,-114.95 355.95,-113.11 346.65,-108.04 345.52,-114.95"/>
</a>
</g>
</g>
<!-- Node7 -->
<g id="Node000007" class="node">
<title>Node7</title>
<g id="a_Node000007"><a xlink:href="../../d6/d02/intersection_8hpp.html" target="_top" xlink:title="Provides functionalities to represent and handle intersections in 3D space.">
<polygon fill="white" stroke="#666666" points="279,-74.5 143,-74.5 143,-55.25 279,-55.25 279,-74.5"/>
<text text-anchor="middle" x="211" y="-61" font-family="Times,serif" font-size="10.00">include/math/intersection.hpp</text>
</a>
</g>
</g>
<!-- Node5&#45;&gt;Node7 -->
<g id="edge7_Node000005_Node000007" class="edge">
<title>Node5&#45;&gt;Node7</title>
<g id="a_edge7_Node000005_Node000007"><a xlink:title=" ">
<path fill="none" stroke="#63b8ff" d="M352.7,-107.2C316.37,-97.44 268.04,-83.84 238.16,-74.95"/>
<polygon fill="#63b8ff" stroke="#63b8ff" points="351.53,-110.51 362.09,-109.7 353.33,-103.74 351.53,-110.51"/>
</a>
</g>
</g>
<!-- Node9 -->
<g id="Node000009" class="node">
<title>Node9</title>
<g id="a_Node000009"><a xlink:href="../../d1/df2/random_8hpp.html" target="_top" xlink:title="Provides functionality for random number generation and manipulation in vector spaces.">
<polygon fill="white" stroke="#666666" points="416.75,-74.5 297.25,-74.5 297.25,-55.25 416.75,-55.25 416.75,-74.5"/>
<text text-anchor="middle" x="357" y="-61" font-family="Times,serif" font-size="10.00">include/math/random.hpp</text>
</a>
</g>
</g>
<!-- Node5&#45;&gt;Node9 -->
<g id="edge11_Node000005_Node000009" class="edge">
<title>Node5&#45;&gt;Node9</title>
<g id="a_edge11_Node000005_Node000009"><a xlink:title=" ">
<path fill="none" stroke="#63b8ff" d="M380.79,-102.32C372.45,-93.23 363.84,-82.35 359.22,-74.86"/>
<polygon fill="#63b8ff" stroke="#63b8ff" points="378.04,-104.51 387.51,-109.25 383.06,-99.63 378.04,-104.51"/>
</a>
</g>
</g>
<!-- Node10 -->
<g id="Node000010" class="node">
<title>Node10</title>
<g id="a_Node000010"><a xlink:href="../../db/d1d/ray_8hpp.html" target="_top" xlink:title="Contains the definition of the Ray class.">
<polygon fill="white" stroke="#666666" points="712.75,-74.5 611.25,-74.5 611.25,-55.25 712.75,-55.25 712.75,-74.5"/>
<text text-anchor="middle" x="662" y="-61" font-family="Times,serif" font-size="10.00">include/math/ray.hpp</text>
</a>
</g>
</g>
<!-- Node5&#45;&gt;Node10 -->
<g id="edge13_Node000005_Node000010" class="edge">
<title>Node5&#45;&gt;Node10</title>
<g id="a_edge13_Node000005_Node000010"><a xlink:title=" ">
<path fill="none" stroke="#63b8ff" d="M451.35,-107.7C497.79,-97.9 566.19,-83.97 612.39,-74.93"/>
<polygon fill="#63b8ff" stroke="#63b8ff" points="450.88,-104.22 441.82,-109.72 452.33,-111.07 450.88,-104.22"/>
</a>
</g>
</g>
<!-- Node12 -->
<g id="Node000012" class="node">
<title>Node12</title>
<g id="a_Node000012"><a xlink:href="../../d9/d6c/triangle_8hpp.html" target="_top" xlink:title="Defines the Triangle structure and methods for ray&#45;triangle intersection.">
<polygon fill="white" stroke="#666666" points="592.75,-74.5 473.25,-74.5 473.25,-55.25 592.75,-55.25 592.75,-74.5"/>
<text text-anchor="middle" x="533" y="-61" font-family="Times,serif" font-size="10.00">include/math/triangle.hpp</text>
</a>
</g>
</g>
<!-- Node5&#45;&gt;Node12 -->
<g id="edge18_Node000005_Node000012" class="edge">
<title>Node5&#45;&gt;Node12</title>
<g id="a_edge18_Node000005_Node000012"><a xlink:title=" ">
<path fill="none" stroke="#63b8ff" d="M428.44,-105.65C451,-96.04 482.63,-83.38 505.27,-74.95"/>
<polygon fill="#63b8ff" stroke="#63b8ff" points="427.35,-102.31 419.56,-109.49 430.13,-108.73 427.35,-102.31"/>
</a>
</g>
</g>
<!-- Node6&#45;&gt;Node5 -->
<g id="edge6_Node000006_Node000005" class="edge">
<title>Node6&#45;&gt;Node5</title>
<g id="a_edge6_Node000006_Node000005"><a xlink:title=" ">
<path fill="none" stroke="#63b8ff" d="M136.29,-74.93C194.04,-83.87 281.46,-97.97 357.28,-110.38"/>
<polygon fill="#63b8ff" stroke="#63b8ff" points="137.06,-71.51 126.65,-73.44 136,-78.43 137.06,-71.51"/>
</a>
</g>
</g>
<!-- Node7&#45;&gt;Node5 -->
<g id="edge8_Node000007_Node000005" class="edge">
<title>Node7&#45;&gt;Node5</title>
<g id="a_edge8_Node000007_Node000005"><a xlink:title=" ">
<path fill="none" stroke="#63b8ff" d="M259.48,-77.85C295.85,-87.62 344.17,-101.22 373.99,-110.09"/>
<polygon fill="#63b8ff" stroke="#63b8ff" points="260.64,-74.54 250.08,-75.34 258.84,-81.3 260.64,-74.54"/>
</a>
</g>
</g>
<!-- Node8 -->
<g id="Node000008" class="node">
<title>Node8</title>
<g id="a_Node000008"><a xlink:href="../../d7/d82/plane_8hpp.html" target="_top" xlink:title="Provides the definition of the Plane structure and its associated operations.">
<polygon fill="white" stroke="#666666" points="500.25,-19.25 389.75,-19.25 389.75,0 500.25,0 500.25,-19.25"/>
<text text-anchor="middle" x="445" y="-5.75" font-family="Times,serif" font-size="10.00">include/math/plane.hpp</text>
</a>
</g>
</g>
<!-- Node7&#45;&gt;Node8 -->
<g id="edge9_Node000007_Node000008" class="edge">
<title>Node7&#45;&gt;Node8</title>
<g id="a_edge9_Node000007_Node000008"><a xlink:title=" ">
<path fill="none" stroke="#63b8ff" d="M262.04,-52.26C305.05,-42.47 365.72,-28.67 405.2,-19.68"/>
<polygon fill="#63b8ff" stroke="#63b8ff" points="261.41,-48.81 252.44,-54.45 262.96,-55.64 261.41,-48.81"/>
</a>
</g>
</g>
<!-- Node8&#45;&gt;Node5 -->
<g id="edge10_Node000008_Node000005" class="edge">
<title>Node8&#45;&gt;Node5</title>
<g id="a_edge10_Node000008_Node000005"><a xlink:title=" ">
<path fill="none" stroke="#63b8ff" d="M440.35,-30.33C437.02,-43.16 432.08,-60.12 426,-74.5 420.54,-87.42 412.29,-101.39 406.78,-110.19"/>
<polygon fill="#63b8ff" stroke="#63b8ff" points="443.65,-31.53 442.65,-20.99 436.86,-29.86 443.65,-31.53"/>
</a>
</g>
</g>
<!-- Node9&#45;&gt;Node5 -->
<g id="edge12_Node000009_Node000005" class="edge">
<title>Node9&#45;&gt;Node5</title>
<g id="a_edge12_Node000009_Node000005"><a xlink:title=" ">
<path fill="none" stroke="#63b8ff" d="M377.42,-82.91C385.77,-92.04 394.35,-102.9 398.9,-110.33"/>
<polygon fill="#63b8ff" stroke="#63b8ff" points="380.15,-80.7 370.68,-75.95 375.12,-85.57 380.15,-80.7"/>
</a>
</g>
</g>
<!-- Node10&#45;&gt;Node5 -->
<g id="edge14_Node000010_Node000005" class="edge">
<title>Node10&#45;&gt;Node5</title>
<g id="a_edge14_Node000010_Node000005"><a xlink:title=" ">
<path fill="none" stroke="#63b8ff" d="M611.68,-77.3C563.14,-87.54 490.57,-102.3 444.47,-111.27"/>
<polygon fill="#63b8ff" stroke="#63b8ff" points="612.33,-80.74 621.39,-75.24 610.88,-73.89 612.33,-80.74"/>
</a>
</g>
</g>
<!-- Node10&#45;&gt;Node8 -->
<g id="edge15_Node000010_Node000008" class="edge">
<title>Node10&#45;&gt;Node8</title>
<g id="a_edge15_Node000010_Node000008"><a xlink:title=" ">
<path fill="none" stroke="#63b8ff" d="M614.16,-52.13C574.34,-42.36 518.45,-28.65 481.99,-19.7"/>
<polygon fill="#63b8ff" stroke="#63b8ff" points="613.17,-55.5 623.72,-54.48 614.84,-48.7 613.17,-55.5"/>
</a>
</g>
</g>
<!-- Node11 -->
<g id="Node000011" class="node">
<title>Node11</title>
<g id="a_Node000011"><a xlink:href="../../d0/da1/sphere_8hpp.html" target="_top" xlink:title="Defines the Sphere structure and its associated functionality.">
<polygon fill="white" stroke="#666666" points="758.88,-19.25 643.12,-19.25 643.12,0 758.88,0 758.88,-19.25"/>
<text text-anchor="middle" x="701" y="-5.75" font-family="Times,serif" font-size="10.00">include/math/sphere.hpp</text>
</a>
</g>
</g>
<!-- Node10&#45;&gt;Node11 -->
<g id="edge16_Node000010_Node000011" class="edge">
<title>Node10&#45;&gt;Node11</title>
<g id="a_edge16_Node000010_Node000011"><a xlink:title=" ">
<path fill="none" stroke="#63b8ff" d="M675.14,-45.94C681.62,-37.09 689.16,-26.79 694.42,-19.61"/>
<polygon fill="#63b8ff" stroke="#63b8ff" points="672.42,-43.73 669.33,-53.86 678.07,-47.86 672.42,-43.73"/>
</a>
</g>
</g>
<!-- Node11&#45;&gt;Node5 -->
<g id="edge17_Node000011_Node000005" class="edge">
<title>Node11&#45;&gt;Node5</title>
<g id="a_edge17_Node000011_Node000005"><a xlink:title=" ">
<path fill="none" stroke="#63b8ff" d="M715.43,-28.64C724.76,-42.58 733.26,-61.63 722,-74.5 682.28,-119.89 512.65,-101.56 453,-110.5 450.28,-110.91 447.49,-111.34 444.68,-111.78"/>
<polygon fill="#63b8ff" stroke="#63b8ff" points="718.39,-26.75 709.65,-20.76 712.75,-30.9 718.39,-26.75"/>
</a>
</g>
</g>
<!-- Node12&#45;&gt;Node5 -->
<g id="edge19_Node000012_Node000005" class="edge">
<title>Node12&#45;&gt;Node5</title>
<g id="a_edge19_Node000012_Node000005"><a xlink:title=" ">
<path fill="none" stroke="#63b8ff" d="M505.44,-79.4C482.85,-89.02 451.22,-101.68 428.61,-110.09"/>
<polygon fill="#63b8ff" stroke="#63b8ff" points="506.55,-82.73 514.34,-75.55 503.77,-76.31 506.55,-82.73"/>
</a>
</g>
</g>
<!-- Node14&#45;&gt;Node4 -->
<g id="edge22_Node000014_Node000004" class="edge">
<title>Node14&#45;&gt;Node4</title>
<g id="a_edge22_Node000014_Node000004"><a xlink:title=" ">
<path fill="none" stroke="#63b8ff" d="M126.37,-187.58C176.74,-197.37 246.51,-211.42 289.98,-220.53"/>
<polygon fill="#63b8ff" stroke="#63b8ff" points="127.26,-184.18 116.78,-185.72 125.93,-191.06 127.26,-184.18"/>
</a>
</g>
</g>
<!-- Node15 -->
<g id="Node000015" class="node">
<title>Node15</title>
<g id="a_Node000015"><a xlink:href="../../d7/dab/mat__math_8inl.html" target="_top" xlink:title=" ">
<polygon fill="white" stroke="#666666" points="127.38,-129.75 2.63,-129.75 2.63,-110.5 127.38,-110.5 127.38,-129.75"/>
<text text-anchor="middle" x="65" y="-116.25" font-family="Times,serif" font-size="10.00">include/math/mat_math.inl</text>
</a>
</g>
</g>
<!-- Node14&#45;&gt;Node15 -->
<g id="edge23_Node000014_Node000015" class="edge">
<title>Node14&#45;&gt;Node15</title>
<g id="a_edge23_Node000014_Node000015"><a xlink:title=" ">
<path fill="none" stroke="#63b8ff" d="M58.44,-154.42C57.95,-146.05 58.4,-136.75 59.79,-130.11"/>
<polygon fill="#63b8ff" stroke="#63b8ff" points="54.94,-154.59 59.65,-164.08 61.88,-153.72 54.94,-154.59"/>
</a>
</g>
</g>
<!-- Node15&#45;&gt;Node14 -->
<g id="edge24_Node000015_Node000014" class="edge">
<title>Node15&#45;&gt;Node14</title>
<g id="a_edge24_Node000015_Node000014"><a xlink:title=" ">
<path fill="none" stroke="#63b8ff" d="M71.57,-141.32C72.04,-149.71 71.58,-158.99 70.17,-165.58"/>
<polygon fill="#63b8ff" stroke="#63b8ff" points="75.07,-141.12 70.39,-131.61 68.12,-141.96 75.07,-141.12"/>
</a>
</g>
</g>
<!-- Node16&#45;&gt;Node4 -->
<g id="edge26_Node000016_Node000004" class="edge">
<title>Node16&#45;&gt;Node4</title>
<g id="a_edge26_Node000016_Node000004"><a xlink:title=" ">
<path fill="none" stroke="#63b8ff" d="M336.57,-196.57C337.04,-204.96 336.58,-214.24 335.17,-220.83"/>
<polygon fill="#63b8ff" stroke="#63b8ff" points="340.07,-196.37 335.39,-186.86 333.12,-197.21 340.07,-196.37"/>
</a>
</g>
</g>
<!-- Node17 -->
<g id="Node000017" class="node">
<title>Node17</title>
<g id="a_Node000017"><a xlink:href="../../d3/df6/matnxn_8inl.html" target="_top" xlink:title=" ">
<polygon fill="white" stroke="#666666" points="340.12,-129.75 225.88,-129.75 225.88,-110.5 340.12,-110.5 340.12,-129.75"/>
<text text-anchor="middle" x="283" y="-116.25" font-family="Times,serif" font-size="10.00">include/math/matnxn.inl</text>
</a>
</g>
</g>
<!-- Node16&#45;&gt;Node17 -->
<g id="edge27_Node000016_Node000017" class="edge">
<title>Node16&#45;&gt;Node17</title>
<g id="a_edge27_Node000016_Node000017"><a xlink:title=" ">
<path fill="none" stroke="#63b8ff" d="M308.61,-157.33C299.79,-148.25 290.65,-137.45 285.67,-130.02"/>
<polygon fill="#63b8ff" stroke="#63b8ff" points="306.13,-159.8 315.73,-164.28 311.02,-154.79 306.13,-159.8"/>
</a>
</g>
</g>
<!-- Node17&#45;&gt;Node16 -->
<g id="edge28_Node000017_Node000016" class="edge">
<title>Node17&#45;&gt;Node16</title>
<g id="a_edge28_Node000017_Node000016"><a xlink:title=" ">
<path fill="none" stroke="#63b8ff" d="M304.11,-137.88C313.05,-147.06 322.38,-158.07 327.41,-165.58"/>
<polygon fill="#63b8ff" stroke="#63b8ff" points="306.82,-135.64 297.22,-131.17 301.94,-140.65 306.82,-135.64"/>
</a>
</g>
</g>
<!-- Node18&#45;&gt;Node5 -->
<g id="edge30_Node000018_Node000005" class="edge">
<title>Node18&#45;&gt;Node5</title>
<g id="a_edge30_Node000018_Node000005"><a xlink:title=" ">
<path fill="none" stroke="#63b8ff" d="M495.87,-160.9C472.95,-151.29 442.75,-138.63 422.65,-130.2"/>
<polygon fill="#63b8ff" stroke="#63b8ff" points="494.48,-164.12 505.06,-164.76 497.19,-157.66 494.48,-164.12"/>
</a>
</g>
</g>
<!-- Node19 -->
<g id="Node000019" class="node">
<title>Node19</title>
<g id="a_Node000019"><a xlink:href="../../da/d59/quaternion_8cpp.html" target="_top" xlink:title=" ">
<polygon fill="white" stroke="#666666" points="593.75,-129.75 462.25,-129.75 462.25,-110.5 593.75,-110.5 593.75,-129.75"/>
<text text-anchor="middle" x="528" y="-116.25" font-family="Times,serif" font-size="10.00">include/math/quaternion.cpp</text>
</a>
</g>
</g>
<!-- Node18&#45;&gt;Node19 -->
<g id="edge31_Node000018_Node000019" class="edge">
<title>Node18&#45;&gt;Node19</title>
<g id="a_edge31_Node000018_Node000019"><a xlink:title=" ">
<path fill="none" stroke="#63b8ff" d="M528,-154.13C528,-145.84 528,-136.67 528,-130.11"/>
<polygon fill="#63b8ff" stroke="#63b8ff" points="524.5,-154.07 528,-164.07 531.5,-154.07 524.5,-154.07"/>
</a>
</g>
</g>
<!-- Node20 -->
<g id="Node000020" class="node">
<title>Node20</title>
<g id="a_Node000020"><a xlink:href="../../d8/d7f/quaternion_8inl.html" target="_top" xlink:title=" ">
<polygon fill="white" stroke="#666666" points="738.5,-129.75 611.5,-129.75 611.5,-110.5 738.5,-110.5 738.5,-129.75"/>
<text text-anchor="middle" x="675" y="-116.25" font-family="Times,serif" font-size="10.00">include/math/quaternion.inl</text>
</a>
</g>
</g>
<!-- Node18&#45;&gt;Node20 -->
<g id="edge32_Node000018_Node000020" class="edge">
<title>Node18&#45;&gt;Node20</title>
<g id="a_edge32_Node000018_Node000020"><a xlink:title=" ">
<path fill="none" stroke="#63b8ff" d="M558.21,-161.29C583.54,-151.64 619.35,-138.75 644.71,-130.2"/>
<polygon fill="#63b8ff" stroke="#63b8ff" points="557.2,-157.93 549.13,-164.8 559.72,-164.46 557.2,-157.93"/>
</a>
</g>
</g>
<!-- Node20&#45;&gt;Node18 -->
<g id="edge33_Node000020_Node000018" class="edge">
<title>Node20&#45;&gt;Node18</title>
<g id="a_edge33_Node000020_Node000018"><a xlink:title=" ">
<path fill="none" stroke="#63b8ff" d="M644.66,-134.26C619.29,-143.92 583.48,-156.81 558.15,-165.34"/>
<polygon fill="#63b8ff" stroke="#63b8ff" points="645.69,-137.61 653.76,-130.75 643.17,-131.08 645.69,-137.61"/>
</a>
</g>
</g>
<!-- Node21&#45;&gt;Node4 -->
<g id="edge35_Node000021_Node000004" class="edge">
<title>Node21&#45;&gt;Node4</title>
<g id="a_edge35_Node000021_Node000004"><a xlink:title=" ">
<path fill="none" stroke="#63b8ff" d="M671.87,-186.14C602.01,-194.96 493.93,-208.44 400,-221 394.38,-221.75 388.47,-222.56 382.56,-223.37"/>
<polygon fill="#63b8ff" stroke="#63b8ff" points="672.19,-189.62 681.67,-184.9 671.31,-182.68 672.19,-189.62"/>
</a>
</g>
</g>
<!-- Node22 -->
<g id="Node000022" class="node">
<title>Node22</title>
<g id="a_Node000022"><a xlink:href="../../df/da5/rmatnxn_8inl.html" target="_top" xlink:title=" ">
<polygon fill="white" stroke="#666666" points="875,-129.75 757,-129.75 757,-110.5 875,-110.5 875,-129.75"/>
<text text-anchor="middle" x="816" y="-116.25" font-family="Times,serif" font-size="10.00">include/math/rmatnxn.inl</text>
</a>
</g>
</g>
<!-- Node21&#45;&gt;Node22 -->
<g id="edge36_Node000021_Node000022" class="edge">
<title>Node21&#45;&gt;Node22</title>
<g id="a_edge36_Node000021_Node000022"><a xlink:title=" ">
<path fill="none" stroke="#63b8ff" d="M760.63,-157.93C771.94,-148.8 786.98,-137.79 798.67,-130.2"/>
<polygon fill="#63b8ff" stroke="#63b8ff" points="758.38,-155.25 752.99,-164.37 762.89,-160.61 758.38,-155.25"/>
</a>
</g>
</g>
<!-- Node22&#45;&gt;Node21 -->
<g id="edge37_Node000022_Node000021" class="edge">
<title>Node22&#45;&gt;Node21</title>
<g id="a_edge37_Node000022_Node000021"><a xlink:title=" ">
<path fill="none" stroke="#63b8ff" d="M800.85,-137.18C789.47,-146.4 774.13,-157.65 762.26,-165.34"/>
<polygon fill="#63b8ff" stroke="#63b8ff" points="802.78,-140.13 808.17,-131 798.27,-134.78 802.78,-140.13"/>
</a>
</g>
</g>
<!-- Node23&#45;&gt;Node3 -->
<g id="edge39_Node000023_Node000003" class="edge">
<title>Node23&#45;&gt;Node3</title>
<g id="a_edge39_Node000023_Node000003"><a xlink:title=" ">
<path fill="none" stroke="#63b8ff" d="M468.57,-251.82C469.04,-260.21 468.58,-269.49 467.17,-276.08"/>
<polygon fill="#63b8ff" stroke="#63b8ff" points="472.07,-251.62 467.39,-242.11 465.12,-252.46 472.07,-251.62"/>
</a>
</g>
</g>
</g>
</svg>

<g id="navigator" transform="translate(0 0)" fill="#404254">
  <rect fill="#f2f5e9" fill-opacity="0.5" stroke="#606060" stroke-width=".5" x="0" y="0" width="60" height="60"/>
  <use id="zoomplus" xlink:href="#zoomPlus" x="17" y="9" onmousedown="handleZoom(evt,'in')"/>
  <use id="zoomminus" xlink:href="#zoomMin" x="42" y="9" onmousedown="handleZoom(evt,'out')"/>
  <use id="reset" xlink:href="#resetDef" x="30" y="36" onmousedown="handleReset()"/>
   <use id="arrowup" xlink:href="#arrowUp" x="0" y="0" onmousedown="handlePan(0,-1)"/>
  <use id="arrowright" xlink:href="#arrowRight" x="0" y="0" onmousedown="handlePan(1,0)"/>
  <use id="arrowdown" xlink:href="#arrowDown" x="0" y="0" onmousedown="handlePan(0,1)"/>
  <use id="arrowleft" xlink:href="#arrowLeft" x="0" y="0" onmousedown="handlePan(-1,0)"/>
</g>
<svg viewBox="0 0 15 15" width="100%" height="30px" preserveAspectRatio="xMaxYMin meet">
 <g id="arrow_out" transform="scale(0.3 0.3)">
  <a xlink:href="vec_8hpp__dep__incl_org.svg" target="_base">
   <rect id="button" ry="5" rx="5" y="6" x="6" height="38" width="38"
        fill="#f2f5e9" fill-opacity="0.5" stroke="#606060" stroke-width="1.0"/>
   <path id="arrow"
     d="M 11.500037,31.436501 C 11.940474,20.09759 22.043105,11.32322 32.158766,21.979434 L 37.068811,17.246167 C 37.068811,17.246167 37.088388,32 37.088388,32 L 22.160133,31.978069 C 22.160133,31.978069 26.997745,27.140456 26.997745,27.140456 C 18.528582,18.264221 13.291696,25.230495 11.500037,31.436501 z"
     style="fill:#404040;"/>
  </a>
 </g>
</svg>

<style type='text/css'>
<![CDATA[
[data-mouse-over-selected='false'] { opacity: 0.7; }
[data-mouse-over-selected='true']  { opacity: 1.0; }
]]>
</style>
<script type="application/ecmascript"><![CDATA[
document.addEventListener('DOMContentLoaded', (event) => {
  highlightEdges();
  highlightAdjacentNodes();
});
]]></script>
</svg>
