<?xml version="1.0" encoding="UTF-8" standalone="no"?>
<!DOCTYPE svg PUBLIC "-//W3C//DTD SVG 1.1//EN"
 "http://www.w3.org/Graphics/SVG/1.1/DTD/svg11.dtd">
<!-- Generated by graphviz version 9.0.0 (20230911.1827)
 -->
<!-- Title: Graphical Class Hierarchy Pages: 1 -->
<svg width="235pt" height="207pt"
 viewBox="0.00 0.00 235.00 206.75" xmlns="http://www.w3.org/2000/svg" xmlns:xlink="http://www.w3.org/1999/xlink">
<g id="graph0" class="graph" transform="scale(1 1) rotate(0) translate(4 202.75)">
<title>Graphical Class Hierarchy</title>
<!-- Node0 -->
<g id="Node000000" class="node">
<title>Node0</title>
<g id="a_Node000000"><a xlink:title=" ">
<polygon fill="#e0e0e0" stroke="#999999" points="71.5,-108.5 0,-108.5 0,-89.25 71.5,-89.25 71.5,-108.5"/>
<text text-anchor="middle" x="35.75" y="-95" font-family="Times,serif" font-size="10.00">std::true_type</text>
</a>
</g>
</g>
<!-- Node1 -->
<g id="Node000001" class="node">
<title>Node1</title>
<g id="a_Node000001"><a xlink:href="db/d75/structmal__math_1_1__detail_1_1is__default__vec_3_01vec_3_01size_00_01_t_01_4_01_4.html" target="_top" xlink:title="Trait to determine if a type is a default vector.">
<polygon fill="white" stroke="#666666" points="215,-198.75 119.5,-198.75 119.5,-157 215,-157 215,-198.75"/>
<text text-anchor="start" x="127.5" y="-185.25" font-family="Times,serif" font-size="10.00">mal_math::_detail::</text>
<text text-anchor="start" x="127.5" y="-174" font-family="Times,serif" font-size="10.00">is_default_vec&lt; vec</text>
<text text-anchor="middle" x="167.25" y="-162.75" font-family="Times,serif" font-size="10.00">&lt; size, T &gt; &gt;</text>
</a>
</g>
</g>
<!-- Node0&#45;&gt;Node1 -->
<g id="edge4_Node000000_Node000001" class="edge">
<title>Node0&#45;&gt;Node1</title>
<g id="a_edge4_Node000000_Node000001"><a xlink:title=" ">
<path fill="none" stroke="#63b8ff" d="M59.07,-115.47C72.75,-125.36 90.78,-137.88 107.5,-147.88 112.41,-150.81 117.65,-153.75 122.89,-156.57"/>
<polygon fill="#63b8ff" stroke="#63b8ff" points="61.32,-112.79 51.18,-109.71 57.19,-118.44 61.32,-112.79"/>
</a>
</g>
</g>
<!-- Node2 -->
<g id="Node000002" class="node">
<title>Node2</title>
<g id="a_Node000002"><a xlink:href="d5/df1/structmal__math_1_1__detail_1_1is__mat_3_01mat_3_01a_00_01b_00_01_t_01_4_01_4.html" target="_top" xlink:title="Trait to determine if a type is a matrix.">
<polygon fill="white" stroke="#666666" points="225.12,-139.12 109.38,-139.12 109.38,-108.62 225.12,-108.62 225.12,-139.12"/>
<text text-anchor="start" x="117.38" y="-125.62" font-family="Times,serif" font-size="10.00">mal_math::_detail::</text>
<text text-anchor="middle" x="167.25" y="-114.38" font-family="Times,serif" font-size="10.00">is_mat&lt; mat&lt; a, b, T &gt; &gt;</text>
</a>
</g>
</g>
<!-- Node0&#45;&gt;Node2 -->
<g id="edge5_Node000000_Node000002" class="edge">
<title>Node0&#45;&gt;Node2</title>
<g id="a_edge5_Node000000_Node000002"><a xlink:title=" ">
<path fill="none" stroke="#63b8ff" d="M83.02,-107.81C91.5,-109.45 100.45,-111.17 109.21,-112.86"/>
<polygon fill="#63b8ff" stroke="#63b8ff" points="83.76,-104.39 73.28,-105.93 82.44,-111.26 83.76,-104.39"/>
</a>
</g>
</g>
<!-- Node3 -->
<g id="Node000003" class="node">
<title>Node3</title>
<g id="a_Node000003"><a xlink:href="db/d87/structmal__math_1_1__detail_1_1is__mat_3_01rmat_3_01a_00_01b_00_01_t_01_4_01_4.html" target="_top" xlink:title="Trait to determine if a type is a matrix.">
<polygon fill="white" stroke="#666666" points="227,-90.12 107.5,-90.12 107.5,-59.62 227,-59.62 227,-90.12"/>
<text text-anchor="start" x="115.5" y="-76.62" font-family="Times,serif" font-size="10.00">mal_math::_detail::</text>
<text text-anchor="middle" x="167.25" y="-65.38" font-family="Times,serif" font-size="10.00">is_mat&lt; rmat&lt; a, b, T &gt; &gt;</text>
</a>
</g>
</g>
<!-- Node0&#45;&gt;Node3 -->
<g id="edge6_Node000000_Node000003" class="edge">
<title>Node0&#45;&gt;Node3</title>
<g id="a_edge6_Node000000_Node000003"><a xlink:title=" ">
<path fill="none" stroke="#63b8ff" d="M82.97,-90.31C90.83,-88.85 99.08,-87.32 107.22,-85.81"/>
<polygon fill="#63b8ff" stroke="#63b8ff" points="82.48,-86.84 73.28,-92.1 83.75,-93.72 82.48,-86.84"/>
</a>
</g>
</g>
<!-- Node4 -->
<g id="Node000004" class="node">
<title>Node4</title>
<g id="a_Node000004"><a xlink:href="d8/dc7/structmal__math_1_1__detail_1_1is__reference__vec_3_01__detail_1_1rvec_3_01size_00_01_t_01_4_01_4.html" target="_top" xlink:title="Trait to determine if a type is a reference vector.">
<polygon fill="white" stroke="#666666" points="226.62,-41.75 107.88,-41.75 107.88,0 226.62,0 226.62,-41.75"/>
<text text-anchor="start" x="115.88" y="-28.25" font-family="Times,serif" font-size="10.00">mal_math::_detail::</text>
<text text-anchor="start" x="115.88" y="-17" font-family="Times,serif" font-size="10.00">is_reference_vec&lt; _detail</text>
<text text-anchor="middle" x="167.25" y="-5.75" font-family="Times,serif" font-size="10.00">::rvec&lt; size, T &gt; &gt;</text>
</a>
</g>
</g>
<!-- Node0&#45;&gt;Node4 -->
<g id="edge7_Node000000_Node000004" class="edge">
<title>Node0&#45;&gt;Node4</title>
<g id="a_edge7_Node000000_Node000004"><a xlink:title=" ">
<path fill="none" stroke="#63b8ff" d="M59.62,-82.3C73.25,-72.69 91.05,-60.6 107.5,-50.88 112.43,-47.96 117.67,-45.04 122.92,-42.23"/>
<polygon fill="#63b8ff" stroke="#63b8ff" points="57.86,-79.26 51.74,-87.91 61.92,-84.96 57.86,-79.26"/>
</a>
</g>
</g>
</g>
</svg>
