<?xml version="1.0" encoding="UTF-8" standalone="no"?>
<!DOCTYPE svg PUBLIC "-//W3C//DTD SVG 1.1//EN"
 "http://www.w3.org/Graphics/SVG/1.1/DTD/svg11.dtd">
<!-- Generated by graphviz version 9.0.0 (20230911.1827)
 -->
<!-- Title: Graphical Class Hierarchy Pages: 1 -->
<svg width="222pt" height="137pt"
 viewBox="0.00 0.00 222.25 136.50" xmlns="http://www.w3.org/2000/svg" xmlns:xlink="http://www.w3.org/1999/xlink">
<g id="graph0" class="graph" transform="scale(1 1) rotate(0) translate(4 132.5)">
<title>Graphical Class Hierarchy</title>
<!-- Node0 -->
<g id="Node000000" class="node">
<title>Node0</title>
<g id="a_Node000000"><a xlink:title=" ">
<polygon fill="#e0e0e0" stroke="#999999" points="73,-73.88 0,-73.88 0,-54.62 73,-54.62 73,-73.88"/>
<text text-anchor="middle" x="36.5" y="-60.38" font-family="Times,serif" font-size="10.00">std::false_type</text>
</a>
</g>
</g>
<!-- Node1 -->
<g id="Node000001" class="node">
<title>Node1</title>
<g id="a_Node000001"><a xlink:href="d8/d55/structmal__math_1_1__detail_1_1is__default__vec.html" target="_top" xlink:title="Trait to determine if a type is a default vector.">
<polygon fill="white" stroke="#666666" points="209.75,-128.5 113.5,-128.5 113.5,-98 209.75,-98 209.75,-128.5"/>
<text text-anchor="start" x="121.5" y="-115" font-family="Times,serif" font-size="10.00">mal_math::_detail::</text>
<text text-anchor="middle" x="161.62" y="-103.75" font-family="Times,serif" font-size="10.00">is_default_vec&lt; T &gt;</text>
</a>
</g>
</g>
<!-- Node0&#45;&gt;Node1 -->
<g id="edge1_Node000000_Node000001" class="edge">
<title>Node0&#45;&gt;Node1</title>
<g id="a_edge1_Node000000_Node000001"><a xlink:title=" ">
<path fill="none" stroke="#63b8ff" d="M73.19,-78.45C88.29,-84.46 105.92,-91.48 121.38,-97.63"/>
<polygon fill="#63b8ff" stroke="#63b8ff" points="74.71,-75.29 64.12,-74.84 72.12,-81.79 74.71,-75.29"/>
</a>
</g>
</g>
<!-- Node2 -->
<g id="Node000002" class="node">
<title>Node2</title>
<g id="a_Node000002"><a xlink:href="db/dc2/structmal__math_1_1__detail_1_1is__mat.html" target="_top" xlink:title="Trait to determine if a type is a matrix.">
<polygon fill="white" stroke="#666666" points="207.88,-79.5 115.38,-79.5 115.38,-49 207.88,-49 207.88,-79.5"/>
<text text-anchor="start" x="123.38" y="-66" font-family="Times,serif" font-size="10.00">mal_math::_detail::</text>
<text text-anchor="middle" x="161.62" y="-54.75" font-family="Times,serif" font-size="10.00">is_mat&lt; T &gt;</text>
</a>
</g>
</g>
<!-- Node0&#45;&gt;Node2 -->
<g id="edge2_Node000000_Node000002" class="edge">
<title>Node0&#45;&gt;Node2</title>
<g id="a_edge2_Node000000_Node000002"><a xlink:title=" ">
<path fill="none" stroke="#63b8ff" d="M84.84,-64.25C94.81,-64.25 105.31,-64.25 115.21,-64.25"/>
<polygon fill="#63b8ff" stroke="#63b8ff" points="84.96,-60.75 74.96,-64.25 84.96,-67.75 84.96,-60.75"/>
</a>
</g>
</g>
<!-- Node3 -->
<g id="Node000003" class="node">
<title>Node3</title>
<g id="a_Node000003"><a xlink:href="d1/d67/structmal__math_1_1__detail_1_1is__reference__vec.html" target="_top" xlink:title="Trait to determine if a type is a reference vector.">
<polygon fill="white" stroke="#666666" points="214.25,-30.5 109,-30.5 109,0 214.25,0 214.25,-30.5"/>
<text text-anchor="start" x="117" y="-17" font-family="Times,serif" font-size="10.00">mal_math::_detail::</text>
<text text-anchor="middle" x="161.62" y="-5.75" font-family="Times,serif" font-size="10.00">is_reference_vec&lt; T &gt;</text>
</a>
</g>
</g>
<!-- Node0&#45;&gt;Node3 -->
<g id="edge3_Node000000_Node000003" class="edge">
<title>Node0&#45;&gt;Node3</title>
<g id="a_edge3_Node000000_Node000003"><a xlink:title=" ">
<path fill="none" stroke="#63b8ff" d="M73.19,-50.05C88.29,-44.04 105.92,-37.02 121.38,-30.87"/>
<polygon fill="#63b8ff" stroke="#63b8ff" points="72.12,-46.71 64.12,-53.66 74.71,-53.21 72.12,-46.71"/>
</a>
</g>
</g>
</g>
</svg>
