<?xml version="1.0" encoding="UTF-8" standalone="no"?>
<!DOCTYPE svg PUBLIC "-//W3C//DTD SVG 1.1//EN"
 "http://www.w3.org/Graphics/SVG/1.1/DTD/svg11.dtd">
<!-- Generated by graphviz version 9.0.0 (20230911.1827)
 -->
<!-- Title: include/math/intersection.hpp Pages: 1 -->
<svg width="629pt" height="193pt"
 viewBox="0.00 0.00 629.00 193.00" xmlns="http://www.w3.org/2000/svg" xmlns:xlink="http://www.w3.org/1999/xlink">
<g id="graph0" class="graph" transform="scale(1 1) rotate(0) translate(4 189)">
<title>include/math/intersection.hpp</title>
<!-- Node1 -->
<g id="Node000001" class="node">
<title>Node1</title>
<g id="a_Node000001"><a xlink:title="Provides functionalities to represent and handle intersections in 3D space.">
<polygon fill="#999999" stroke="#666666" points="432.75,-185 296.75,-185 296.75,-165.75 432.75,-165.75 432.75,-185"/>
<text text-anchor="middle" x="364.75" y="-171.5" font-family="Times,serif" font-size="10.00">include/math/intersection.hpp</text>
</a>
</g>
</g>
<!-- Node2 -->
<g id="Node000002" class="node">
<title>Node2</title>
<g id="a_Node000002"><a xlink:href="../../d4/d78/math_8hpp.html" target="_top" xlink:title="Provides various mathematical utilities, vector operations, and custom hash specializations.">
<polygon fill="white" stroke="#666666" points="408,-129.75 321.5,-129.75 321.5,-110.5 408,-110.5 408,-129.75"/>
<text text-anchor="middle" x="364.75" y="-116.25" font-family="Times,serif" font-size="10.00">include/math.hpp</text>
</a>
</g>
</g>
<!-- Node1&#45;&gt;Node2 -->
<g id="edge1_Node000001_Node000002" class="edge">
<title>Node1&#45;&gt;Node2</title>
<g id="a_edge1_Node000001_Node000002"><a xlink:title=" ">
<path fill="none" stroke="#63b8ff" d="M358.19,-154.42C357.7,-146.05 358.15,-136.75 359.54,-130.11"/>
<polygon fill="#63b8ff" stroke="#63b8ff" points="354.69,-154.59 359.4,-164.08 361.63,-153.72 354.69,-154.59"/>
</a>
</g>
</g>
<!-- Node6 -->
<g id="Node000006" class="node">
<title>Node6</title>
<g id="a_Node000006"><a xlink:href="../../d7/d82/plane_8hpp.html" target="_top" xlink:title="Provides the definition of the Plane structure and its associated operations.">
<polygon fill="white" stroke="#666666" points="621,-19.25 510.5,-19.25 510.5,0 621,0 621,-19.25"/>
<text text-anchor="middle" x="565.75" y="-5.75" font-family="Times,serif" font-size="10.00">include/math/plane.hpp</text>
</a>
</g>
</g>
<!-- Node1&#45;&gt;Node6 -->
<g id="edge15_Node000001_Node000006" class="edge">
<title>Node1&#45;&gt;Node6</title>
<g id="a_edge15_Node000001_Node000006"><a xlink:title=" ">
<path fill="none" stroke="#63b8ff" d="M424.66,-162.49C472.05,-149.61 535.15,-123.87 565.75,-74.5 576.27,-57.53 571.99,-32.85 568.53,-19.69"/>
<polygon fill="#63b8ff" stroke="#63b8ff" points="423.87,-159.08 415.06,-164.97 425.62,-165.86 423.87,-159.08"/>
</a>
</g>
</g>
<!-- Node2&#45;&gt;Node1 -->
<g id="edge4_Node000002_Node000001" class="edge">
<title>Node2&#45;&gt;Node1</title>
<g id="a_edge4_Node000002_Node000001"><a xlink:title=" ">
<path fill="none" stroke="#63b8ff" d="M371.32,-141.32C371.79,-149.71 371.33,-158.99 369.92,-165.58"/>
<polygon fill="#63b8ff" stroke="#63b8ff" points="374.82,-141.12 370.14,-131.61 367.87,-141.96 374.82,-141.12"/>
</a>
</g>
</g>
<!-- Node3 -->
<g id="Node000003" class="node">
<title>Node3</title>
<g id="a_Node000003"><a xlink:href="../../d7/de4/box_8hpp.html" target="_top" xlink:title="Defines a templated bounding box class for 3D primitives.">
<polygon fill="white" stroke="#666666" points="537.62,-74.5 433.88,-74.5 433.88,-55.25 537.62,-55.25 537.62,-74.5"/>
<text text-anchor="middle" x="485.75" y="-61" font-family="Times,serif" font-size="10.00">include/math/box.hpp</text>
</a>
</g>
</g>
<!-- Node2&#45;&gt;Node3 -->
<g id="edge2_Node000002_Node000003" class="edge">
<title>Node2&#45;&gt;Node3</title>
<g id="a_edge2_Node000002_Node000003"><a xlink:title=" ">
<path fill="none" stroke="#63b8ff" d="M390.25,-105.26C410.77,-95.7 439.28,-83.27 459.9,-74.95"/>
<polygon fill="#63b8ff" stroke="#63b8ff" points="388.96,-102 381.43,-109.44 391.96,-108.32 388.96,-102"/>
</a>
</g>
</g>
<!-- Node4 -->
<g id="Node000004" class="node">
<title>Node4</title>
<g id="a_Node000004"><a xlink:href="../../d1/df2/random_8hpp.html" target="_top" xlink:title="Provides functionality for random number generation and manipulation in vector spaces.">
<polygon fill="white" stroke="#666666" points="119.5,-74.5 0,-74.5 0,-55.25 119.5,-55.25 119.5,-74.5"/>
<text text-anchor="middle" x="59.75" y="-61" font-family="Times,serif" font-size="10.00">include/math/random.hpp</text>
</a>
</g>
</g>
<!-- Node2&#45;&gt;Node4 -->
<g id="edge5_Node000002_Node000004" class="edge">
<title>Node2&#45;&gt;Node4</title>
<g id="a_edge5_Node000002_Node000004"><a xlink:title=" ">
<path fill="none" stroke="#63b8ff" d="M309.98,-110.46C252,-100.71 161.59,-84.93 106.74,-74.99"/>
<polygon fill="#63b8ff" stroke="#63b8ff" points="309.19,-113.88 319.63,-112.08 310.35,-106.97 309.19,-113.88"/>
</a>
</g>
</g>
<!-- Node5 -->
<g id="Node000005" class="node">
<title>Node5</title>
<g id="a_Node000005"><a xlink:href="../../db/d1d/ray_8hpp.html" target="_top" xlink:title="Contains the definition of the Ray class.">
<polygon fill="white" stroke="#666666" points="415.5,-74.5 314,-74.5 314,-55.25 415.5,-55.25 415.5,-74.5"/>
<text text-anchor="middle" x="364.75" y="-61" font-family="Times,serif" font-size="10.00">include/math/ray.hpp</text>
</a>
</g>
</g>
<!-- Node2&#45;&gt;Node5 -->
<g id="edge7_Node000002_Node000005" class="edge">
<title>Node2&#45;&gt;Node5</title>
<g id="a_edge7_Node000002_Node000005"><a xlink:title=" ">
<path fill="none" stroke="#63b8ff" d="M358.19,-99.17C357.7,-90.8 358.15,-81.5 359.54,-74.86"/>
<polygon fill="#63b8ff" stroke="#63b8ff" points="354.69,-99.34 359.4,-108.83 361.63,-98.47 354.69,-99.34"/>
</a>
</g>
</g>
<!-- Node8 -->
<g id="Node000008" class="node">
<title>Node8</title>
<g id="a_Node000008"><a xlink:href="../../d9/d6c/triangle_8hpp.html" target="_top" xlink:title="Defines the Triangle structure and methods for ray&#45;triangle intersection.">
<polygon fill="white" stroke="#666666" points="295.5,-74.5 176,-74.5 176,-55.25 295.5,-55.25 295.5,-74.5"/>
<text text-anchor="middle" x="235.75" y="-61" font-family="Times,serif" font-size="10.00">include/math/triangle.hpp</text>
</a>
</g>
</g>
<!-- Node2&#45;&gt;Node8 -->
<g id="edge13_Node000002_Node000008" class="edge">
<title>Node2&#45;&gt;Node8</title>
<g id="a_edge13_Node000002_Node000008"><a xlink:title=" ">
<path fill="none" stroke="#63b8ff" d="M327.15,-106.04C302.45,-96.39 271.44,-83.5 252.51,-74.95"/>
<polygon fill="#63b8ff" stroke="#63b8ff" points="325.65,-109.21 336.24,-109.55 328.17,-102.68 325.65,-109.21"/>
</a>
</g>
</g>
<!-- Node3&#45;&gt;Node2 -->
<g id="edge3_Node000003_Node000002" class="edge">
<title>Node3&#45;&gt;Node2</title>
<g id="a_edge3_Node000003_Node000002"><a xlink:title=" ">
<path fill="none" stroke="#63b8ff" d="M460.14,-79.79C439.59,-89.36 411.08,-101.79 390.49,-110.09"/>
<polygon fill="#63b8ff" stroke="#63b8ff" points="461.44,-83.05 468.98,-75.6 458.45,-76.72 461.44,-83.05"/>
</a>
</g>
</g>
<!-- Node4&#45;&gt;Node2 -->
<g id="edge6_Node000004_Node000002" class="edge">
<title>Node4&#45;&gt;Node2</title>
<g id="a_edge6_Node000004_Node000002"><a xlink:title=" ">
<path fill="none" stroke="#63b8ff" d="M128.15,-76.84C187.24,-86.86 270.75,-101.47 321.19,-110.63"/>
<polygon fill="#63b8ff" stroke="#63b8ff" points="128.98,-73.43 118.54,-75.22 127.81,-80.34 128.98,-73.43"/>
</a>
</g>
</g>
<!-- Node5&#45;&gt;Node2 -->
<g id="edge8_Node000005_Node000002" class="edge">
<title>Node5&#45;&gt;Node2</title>
<g id="a_edge8_Node000005_Node000002"><a xlink:title=" ">
<path fill="none" stroke="#63b8ff" d="M371.32,-86.07C371.79,-94.46 371.33,-103.74 369.92,-110.33"/>
<polygon fill="#63b8ff" stroke="#63b8ff" points="374.82,-85.87 370.14,-76.36 367.87,-86.71 374.82,-85.87"/>
</a>
</g>
</g>
<!-- Node5&#45;&gt;Node6 -->
<g id="edge9_Node000005_Node000006" class="edge">
<title>Node5&#45;&gt;Node6</title>
<g id="a_edge9_Node000005_Node000006"><a xlink:title=" ">
<path fill="none" stroke="#63b8ff" d="M409.78,-51.95C446.62,-42.19 497.93,-28.59 531.49,-19.7"/>
<polygon fill="#63b8ff" stroke="#63b8ff" points="409.08,-48.51 400.31,-54.45 410.87,-55.28 409.08,-48.51"/>
</a>
</g>
</g>
<!-- Node7 -->
<g id="Node000007" class="node">
<title>Node7</title>
<g id="a_Node000007"><a xlink:href="../../d0/da1/sphere_8hpp.html" target="_top" xlink:title="Defines the Sphere structure and its associated functionality.">
<polygon fill="white" stroke="#666666" points="314.62,-19.25 198.88,-19.25 198.88,0 314.62,0 314.62,-19.25"/>
<text text-anchor="middle" x="256.75" y="-5.75" font-family="Times,serif" font-size="10.00">include/math/sphere.hpp</text>
</a>
</g>
</g>
<!-- Node5&#45;&gt;Node7 -->
<g id="edge11_Node000005_Node000007" class="edge">
<title>Node5&#45;&gt;Node7</title>
<g id="a_edge11_Node000005_Node000007"><a xlink:title=" ">
<path fill="none" stroke="#63b8ff" d="M336.36,-49.87C317,-40.33 291.95,-27.98 275.16,-19.7"/>
<polygon fill="#63b8ff" stroke="#63b8ff" points="334.55,-52.89 345.07,-54.17 337.65,-46.61 334.55,-52.89"/>
</a>
</g>
</g>
<!-- Node6&#45;&gt;Node2 -->
<g id="edge10_Node000006_Node000002" class="edge">
<title>Node6&#45;&gt;Node2</title>
<g id="a_edge10_Node000006_Node000002"><a xlink:title=" ">
<path fill="none" stroke="#63b8ff" d="M564.89,-30.51C563.21,-44.67 558.67,-63.14 546.75,-74.5 527.08,-93.24 455.62,-106.52 408.31,-113.49"/>
<polygon fill="#63b8ff" stroke="#63b8ff" points="568.35,-31.21 565.63,-20.97 561.37,-30.67 568.35,-31.21"/>
</a>
</g>
</g>
<!-- Node7&#45;&gt;Node2 -->
<g id="edge12_Node000007_Node000002" class="edge">
<title>Node7&#45;&gt;Node2</title>
<g id="a_edge12_Node000007_Node000002"><a xlink:title=" ">
<path fill="none" stroke="#63b8ff" d="M212.5,-23.4C181.71,-34.56 149.09,-52.41 166.75,-74.5 185.73,-98.24 269.03,-110.25 321.36,-115.55"/>
<polygon fill="#63b8ff" stroke="#63b8ff" points="213.47,-26.77 221.8,-20.23 211.21,-20.15 213.47,-26.77"/>
</a>
</g>
</g>
<!-- Node8&#45;&gt;Node2 -->
<g id="edge14_Node000008_Node000002" class="edge">
<title>Node8&#45;&gt;Node2</title>
<g id="a_edge14_Node000008_Node000002"><a xlink:title=" ">
<path fill="none" stroke="#63b8ff" d="M273.47,-79.01C298.2,-88.67 329.2,-101.56 348.08,-110.09"/>
<polygon fill="#63b8ff" stroke="#63b8ff" points="274.97,-75.83 264.38,-75.5 272.45,-82.36 274.97,-75.83"/>
</a>
</g>
</g>
</g>
</svg>
