<?xml version="1.0" encoding="UTF-8" standalone="no"?>
<!DOCTYPE svg PUBLIC "-//W3C//DTD SVG 1.1//EN"
 "http://www.w3.org/Graphics/SVG/1.1/DTD/svg11.dtd">
<!-- Generated by graphviz version 9.0.0 (20230911.1827)
 -->
<!-- Title: include/math/quaternion.hpp Pages: 1 -->
<svg width="746pt" height="193pt"
 viewBox="0.00 0.00 745.75 193.00" xmlns="http://www.w3.org/2000/svg" xmlns:xlink="http://www.w3.org/1999/xlink">
<g id="graph0" class="graph" transform="scale(1 1) rotate(0) translate(4 189)">
<title>include/math/quaternion.hpp</title>
<!-- Node1 -->
<g id="Node000001" class="node">
<title>Node1</title>
<g id="a_Node000001"><a xlink:title="Quaternion operations and related mathematical functions.">
<polygon fill="#999999" stroke="#666666" points="646,-185 513.75,-185 513.75,-165.75 646,-165.75 646,-185"/>
<text text-anchor="middle" x="579.88" y="-171.5" font-family="Times,serif" font-size="10.00">include/math/quaternion.hpp</text>
</a>
</g>
</g>
<!-- Node2 -->
<g id="Node000002" class="node">
<title>Node2</title>
<g id="a_Node000002"><a xlink:href="../../d4/d78/math_8hpp.html" target="_top" xlink:title="Provides various mathematical utilities, vector operations, and custom hash specializations.">
<polygon fill="white" stroke="#666666" points="423.12,-129.75 336.62,-129.75 336.62,-110.5 423.12,-110.5 423.12,-129.75"/>
<text text-anchor="middle" x="379.88" y="-116.25" font-family="Times,serif" font-size="10.00">include/math.hpp</text>
</a>
</g>
</g>
<!-- Node1&#45;&gt;Node2 -->
<g id="edge1_Node000001_Node000002" class="edge">
<title>Node1&#45;&gt;Node2</title>
<g id="a_edge1_Node000001_Node000002"><a xlink:title=" ">
<path fill="none" stroke="#63b8ff" d="M535.07,-162.45C498.42,-152.69 447.36,-139.09 413.97,-130.2"/>
<polygon fill="#63b8ff" stroke="#63b8ff" points="533.92,-165.76 544.49,-164.95 535.72,-159 533.92,-165.76"/>
</a>
</g>
</g>
<!-- Node10 -->
<g id="Node000010" class="node">
<title>Node10</title>
<g id="a_Node000010"><a xlink:href="../../da/d59/quaternion_8cpp.html" target="_top" xlink:title=" ">
<polygon fill="white" stroke="#666666" points="572.62,-129.75 441.12,-129.75 441.12,-110.5 572.62,-110.5 572.62,-129.75"/>
<text text-anchor="middle" x="506.88" y="-116.25" font-family="Times,serif" font-size="10.00">include/math/quaternion.cpp</text>
</a>
</g>
</g>
<!-- Node1&#45;&gt;Node10 -->
<g id="edge17_Node000001_Node000010" class="edge">
<title>Node1&#45;&gt;Node10</title>
<g id="a_edge17_Node000001_Node000010"><a xlink:title=" ">
<path fill="none" stroke="#63b8ff" d="M558.41,-158.72C545.59,-149.37 529.78,-137.83 519.08,-130.02"/>
<polygon fill="#63b8ff" stroke="#63b8ff" points="556.13,-161.38 566.27,-164.45 560.25,-155.73 556.13,-161.38"/>
</a>
</g>
</g>
<!-- Node11 -->
<g id="Node000011" class="node">
<title>Node11</title>
<g id="a_Node000011"><a xlink:href="../../d8/d7f/quaternion_8inl.html" target="_top" xlink:title=" ">
<polygon fill="white" stroke="#666666" points="717.38,-129.75 590.38,-129.75 590.38,-110.5 717.38,-110.5 717.38,-129.75"/>
<text text-anchor="middle" x="653.88" y="-116.25" font-family="Times,serif" font-size="10.00">include/math/quaternion.inl</text>
</a>
</g>
</g>
<!-- Node1&#45;&gt;Node11 -->
<g id="edge18_Node000001_Node000011" class="edge">
<title>Node1&#45;&gt;Node11</title>
<g id="a_edge18_Node000001_Node000011"><a xlink:title=" ">
<path fill="none" stroke="#63b8ff" d="M596.07,-158.21C607.94,-149.03 623.79,-137.87 636.03,-130.2"/>
<polygon fill="#63b8ff" stroke="#63b8ff" points="593.99,-155.4 588.39,-164.39 598.38,-160.85 593.99,-155.4"/>
</a>
</g>
</g>
<!-- Node3 -->
<g id="Node000003" class="node">
<title>Node3</title>
<g id="a_Node000003"><a xlink:href="../../d7/de4/box_8hpp.html" target="_top" xlink:title="Defines a templated bounding box class for 3D primitives.">
<polygon fill="white" stroke="#666666" points="103.75,-74.5 0,-74.5 0,-55.25 103.75,-55.25 103.75,-74.5"/>
<text text-anchor="middle" x="51.88" y="-61" font-family="Times,serif" font-size="10.00">include/math/box.hpp</text>
</a>
</g>
</g>
<!-- Node2&#45;&gt;Node3 -->
<g id="edge2_Node000002_Node000003" class="edge">
<title>Node2&#45;&gt;Node3</title>
<g id="a_edge2_Node000002_Node000003"><a xlink:title=" ">
<path fill="none" stroke="#63b8ff" d="M325.3,-111.08C263.32,-101.38 163.18,-85.13 102.77,-74.99"/>
<polygon fill="#63b8ff" stroke="#63b8ff" points="324.49,-114.49 334.91,-112.57 325.57,-107.58 324.49,-114.49"/>
</a>
</g>
</g>
<!-- Node4 -->
<g id="Node000004" class="node">
<title>Node4</title>
<g id="a_Node000004"><a xlink:href="../../d6/d02/intersection_8hpp.html" target="_top" xlink:title="Provides functionalities to represent and handle intersections in 3D space.">
<polygon fill="white" stroke="#666666" points="257.88,-74.5 121.88,-74.5 121.88,-55.25 257.88,-55.25 257.88,-74.5"/>
<text text-anchor="middle" x="189.88" y="-61" font-family="Times,serif" font-size="10.00">include/math/intersection.hpp</text>
</a>
</g>
</g>
<!-- Node2&#45;&gt;Node4 -->
<g id="edge4_Node000002_Node000004" class="edge">
<title>Node2&#45;&gt;Node4</title>
<g id="a_edge4_Node000002_Node000004"><a xlink:title=" ">
<path fill="none" stroke="#63b8ff" d="M331.57,-107.2C295.25,-97.44 246.91,-83.84 217.04,-74.95"/>
<polygon fill="#63b8ff" stroke="#63b8ff" points="330.4,-110.51 340.96,-109.7 332.21,-103.74 330.4,-110.51"/>
</a>
</g>
</g>
<!-- Node6 -->
<g id="Node000006" class="node">
<title>Node6</title>
<g id="a_Node000006"><a xlink:href="../../d1/df2/random_8hpp.html" target="_top" xlink:title="Provides functionality for random number generation and manipulation in vector spaces.">
<polygon fill="white" stroke="#666666" points="395.62,-74.5 276.12,-74.5 276.12,-55.25 395.62,-55.25 395.62,-74.5"/>
<text text-anchor="middle" x="335.88" y="-61" font-family="Times,serif" font-size="10.00">include/math/random.hpp</text>
</a>
</g>
</g>
<!-- Node2&#45;&gt;Node6 -->
<g id="edge8_Node000002_Node000006" class="edge">
<title>Node2&#45;&gt;Node6</title>
<g id="a_edge8_Node000002_Node000006"><a xlink:title=" ">
<path fill="none" stroke="#63b8ff" d="M359.67,-102.32C351.33,-93.23 342.71,-82.35 338.09,-74.86"/>
<polygon fill="#63b8ff" stroke="#63b8ff" points="356.91,-104.51 366.39,-109.25 361.93,-99.63 356.91,-104.51"/>
</a>
</g>
</g>
<!-- Node7 -->
<g id="Node000007" class="node">
<title>Node7</title>
<g id="a_Node000007"><a xlink:href="../../db/d1d/ray_8hpp.html" target="_top" xlink:title="Contains the definition of the Ray class.">
<polygon fill="white" stroke="#666666" points="691.62,-74.5 590.12,-74.5 590.12,-55.25 691.62,-55.25 691.62,-74.5"/>
<text text-anchor="middle" x="640.88" y="-61" font-family="Times,serif" font-size="10.00">include/math/ray.hpp</text>
</a>
</g>
</g>
<!-- Node2&#45;&gt;Node7 -->
<g id="edge10_Node000002_Node000007" class="edge">
<title>Node2&#45;&gt;Node7</title>
<g id="a_edge10_Node000002_Node000007"><a xlink:title=" ">
<path fill="none" stroke="#63b8ff" d="M430.23,-107.7C476.66,-97.9 545.07,-83.97 591.27,-74.93"/>
<polygon fill="#63b8ff" stroke="#63b8ff" points="429.75,-104.22 420.7,-109.72 431.21,-111.07 429.75,-104.22"/>
</a>
</g>
</g>
<!-- Node9 -->
<g id="Node000009" class="node">
<title>Node9</title>
<g id="a_Node000009"><a xlink:href="../../d9/d6c/triangle_8hpp.html" target="_top" xlink:title="Defines the Triangle structure and methods for ray&#45;triangle intersection.">
<polygon fill="white" stroke="#666666" points="571.62,-74.5 452.12,-74.5 452.12,-55.25 571.62,-55.25 571.62,-74.5"/>
<text text-anchor="middle" x="511.88" y="-61" font-family="Times,serif" font-size="10.00">include/math/triangle.hpp</text>
</a>
</g>
</g>
<!-- Node2&#45;&gt;Node9 -->
<g id="edge15_Node000002_Node000009" class="edge">
<title>Node2&#45;&gt;Node9</title>
<g id="a_edge15_Node000002_Node000009"><a xlink:title=" ">
<path fill="none" stroke="#63b8ff" d="M407.32,-105.65C429.87,-96.04 461.5,-83.38 484.15,-74.95"/>
<polygon fill="#63b8ff" stroke="#63b8ff" points="406.23,-102.31 398.44,-109.49 409.01,-108.73 406.23,-102.31"/>
</a>
</g>
</g>
<!-- Node3&#45;&gt;Node2 -->
<g id="edge3_Node000003_Node000002" class="edge">
<title>Node3&#45;&gt;Node2</title>
<g id="a_edge3_Node000003_Node000002"><a xlink:title=" ">
<path fill="none" stroke="#63b8ff" d="M115.39,-75.33C180.47,-85.56 279.78,-101.7 336.43,-111.27"/>
<polygon fill="#63b8ff" stroke="#63b8ff" points="115.97,-71.87 105.55,-73.78 114.88,-78.79 115.97,-71.87"/>
</a>
</g>
</g>
<!-- Node4&#45;&gt;Node2 -->
<g id="edge5_Node000004_Node000002" class="edge">
<title>Node4&#45;&gt;Node2</title>
<g id="a_edge5_Node000004_Node000002"><a xlink:title=" ">
<path fill="none" stroke="#63b8ff" d="M238.36,-77.85C274.72,-87.62 323.05,-101.22 352.86,-110.09"/>
<polygon fill="#63b8ff" stroke="#63b8ff" points="239.52,-74.54 228.95,-75.34 237.71,-81.3 239.52,-74.54"/>
</a>
</g>
</g>
<!-- Node5 -->
<g id="Node000005" class="node">
<title>Node5</title>
<g id="a_Node000005"><a xlink:href="../../d7/d82/plane_8hpp.html" target="_top" xlink:title="Provides the definition of the Plane structure and its associated operations.">
<polygon fill="white" stroke="#666666" points="479.12,-19.25 368.62,-19.25 368.62,0 479.12,0 479.12,-19.25"/>
<text text-anchor="middle" x="423.88" y="-5.75" font-family="Times,serif" font-size="10.00">include/math/plane.hpp</text>
</a>
</g>
</g>
<!-- Node4&#45;&gt;Node5 -->
<g id="edge6_Node000004_Node000005" class="edge">
<title>Node4&#45;&gt;Node5</title>
<g id="a_edge6_Node000004_Node000005"><a xlink:title=" ">
<path fill="none" stroke="#63b8ff" d="M240.91,-52.26C283.92,-42.47 344.6,-28.67 384.08,-19.68"/>
<polygon fill="#63b8ff" stroke="#63b8ff" points="240.29,-48.81 231.31,-54.45 241.84,-55.64 240.29,-48.81"/>
</a>
</g>
</g>
<!-- Node5&#45;&gt;Node2 -->
<g id="edge7_Node000005_Node000002" class="edge">
<title>Node5&#45;&gt;Node2</title>
<g id="a_edge7_Node000005_Node000002"><a xlink:title=" ">
<path fill="none" stroke="#63b8ff" d="M419.22,-30.33C415.9,-43.16 410.95,-60.12 404.88,-74.5 399.41,-87.42 391.17,-101.39 385.66,-110.19"/>
<polygon fill="#63b8ff" stroke="#63b8ff" points="422.53,-31.53 421.53,-20.99 415.73,-29.86 422.53,-31.53"/>
</a>
</g>
</g>
<!-- Node6&#45;&gt;Node2 -->
<g id="edge9_Node000006_Node000002" class="edge">
<title>Node6&#45;&gt;Node2</title>
<g id="a_edge9_Node000006_Node000002"><a xlink:title=" ">
<path fill="none" stroke="#63b8ff" d="M356.3,-82.91C364.64,-92.04 373.22,-102.9 377.78,-110.33"/>
<polygon fill="#63b8ff" stroke="#63b8ff" points="359.03,-80.7 349.56,-75.95 354,-85.57 359.03,-80.7"/>
</a>
</g>
</g>
<!-- Node7&#45;&gt;Node2 -->
<g id="edge11_Node000007_Node000002" class="edge">
<title>Node7&#45;&gt;Node2</title>
<g id="a_edge11_Node000007_Node000002"><a xlink:title=" ">
<path fill="none" stroke="#63b8ff" d="M590.56,-77.3C542.02,-87.54 469.45,-102.3 423.34,-111.27"/>
<polygon fill="#63b8ff" stroke="#63b8ff" points="591.2,-80.74 600.26,-75.24 589.75,-73.89 591.2,-80.74"/>
</a>
</g>
</g>
<!-- Node7&#45;&gt;Node5 -->
<g id="edge12_Node000007_Node000005" class="edge">
<title>Node7&#45;&gt;Node5</title>
<g id="a_edge12_Node000007_Node000005"><a xlink:title=" ">
<path fill="none" stroke="#63b8ff" d="M593.03,-52.13C553.21,-42.36 497.33,-28.65 460.87,-19.7"/>
<polygon fill="#63b8ff" stroke="#63b8ff" points="592.05,-55.5 602.59,-54.48 593.72,-48.7 592.05,-55.5"/>
</a>
</g>
</g>
<!-- Node8 -->
<g id="Node000008" class="node">
<title>Node8</title>
<g id="a_Node000008"><a xlink:href="../../d0/da1/sphere_8hpp.html" target="_top" xlink:title="Defines the Sphere structure and its associated functionality.">
<polygon fill="white" stroke="#666666" points="737.75,-19.25 622,-19.25 622,0 737.75,0 737.75,-19.25"/>
<text text-anchor="middle" x="679.88" y="-5.75" font-family="Times,serif" font-size="10.00">include/math/sphere.hpp</text>
</a>
</g>
</g>
<!-- Node7&#45;&gt;Node8 -->
<g id="edge13_Node000007_Node000008" class="edge">
<title>Node7&#45;&gt;Node8</title>
<g id="a_edge13_Node000007_Node000008"><a xlink:title=" ">
<path fill="none" stroke="#63b8ff" d="M654.01,-45.94C660.5,-37.09 668.04,-26.79 673.3,-19.61"/>
<polygon fill="#63b8ff" stroke="#63b8ff" points="651.29,-43.73 648.21,-53.86 656.94,-47.86 651.29,-43.73"/>
</a>
</g>
</g>
<!-- Node8&#45;&gt;Node2 -->
<g id="edge14_Node000008_Node000002" class="edge">
<title>Node8&#45;&gt;Node2</title>
<g id="a_edge14_Node000008_Node000002"><a xlink:title=" ">
<path fill="none" stroke="#63b8ff" d="M694.3,-28.64C703.64,-42.58 712.13,-61.63 700.88,-74.5 661.16,-119.89 491.52,-101.56 431.88,-110.5 429.16,-110.91 426.37,-111.34 423.55,-111.78"/>
<polygon fill="#63b8ff" stroke="#63b8ff" points="697.27,-26.75 688.53,-20.76 691.62,-30.9 697.27,-26.75"/>
</a>
</g>
</g>
<!-- Node9&#45;&gt;Node2 -->
<g id="edge16_Node000009_Node000002" class="edge">
<title>Node9&#45;&gt;Node2</title>
<g id="a_edge16_Node000009_Node000002"><a xlink:title=" ">
<path fill="none" stroke="#63b8ff" d="M484.32,-79.4C461.73,-89.02 430.1,-101.68 407.48,-110.09"/>
<polygon fill="#63b8ff" stroke="#63b8ff" points="485.42,-82.73 493.21,-75.55 482.64,-76.31 485.42,-82.73"/>
</a>
</g>
</g>
<!-- Node11&#45;&gt;Node1 -->
<g id="edge19_Node000011_Node000001" class="edge">
<title>Node11&#45;&gt;Node1</title>
<g id="a_edge19_Node000011_Node000001"><a xlink:title=" ">
<path fill="none" stroke="#63b8ff" d="M637.82,-137.18C625.92,-146.4 609.94,-157.65 597.65,-165.34"/>
<polygon fill="#63b8ff" stroke="#63b8ff" points="639.93,-139.97 645.52,-130.97 635.54,-134.52 639.93,-139.97"/>
</a>
</g>
</g>
</g>
</svg>
