<?xml version="1.0" encoding="UTF-8" standalone="no"?>
<!DOCTYPE svg PUBLIC "-//W3C//DTD SVG 1.1//EN"
 "http://www.w3.org/Graphics/SVG/1.1/DTD/svg11.dtd">
<!-- Generated by graphviz version 9.0.0 (20230911.1827)
 -->
<!-- Title: include/math/vec2.hpp Pages: 1 -->
<!--zoomable 193 -->

<svg id="main" version="1.1" xmlns="http://www.w3.org/2000/svg" xmlns:xlink="http://www.w3.org/1999/xlink" xml:space="preserve" onload="init(evt)">
<style type="text/css"><![CDATA[
.node, .edge {opacity: 0.7;}
.node.selected, .edge.selected {opacity: 1;}
.edge:hover path { stroke: red; }
.edge:hover polygon { stroke: red; fill: red; }
]]></style>

<defs>
  <circle id="rim" cx="0" cy="0" r="7"/>
  <circle id="rim2" cx="0" cy="0" r="3.5"/>
  <g id="zoomPlus">
    <use xlink:href="#rim" fill="#404040"><set attributeName="fill" to="#808080" begin="zoomplus.mouseover" end="zoomplus.mouseout"/></use>
    <path d="M-4,0h8M0,-4v8" fill="none" stroke="white" stroke-width="1.5" pointer-events="none"/>
  </g>
  <g id="zoomMin">
    <use xlink:href="#rim" fill="#404040"><set attributeName="fill" to="#808080" begin="zoomminus.mouseover" end="zoomminus.mouseout"/></use>
    <path d="M-4,0h8" fill="none" stroke="white" stroke-width="1.5" pointer-events="none"/>
  </g>
  <g id="arrowUp" transform="translate(30 24)">
    <use xlink:href="#rim"/>
    <path pointer-events="none" fill="none" stroke="white" stroke-width="1.5" d="M0,-3.0v7 M-2.5,-0.5L0,-3.0L2.5,-0.5"/>
  </g>
  <g id="arrowRight" transform="rotate(90) translate(36 -43)">
    <use xlink:href="#rim"/>
    <path pointer-events="none" fill="none" stroke="white" stroke-width="1.5" d="M0,-3.0v7 M-2.5,-0.5L0,-3.0L2.5,-0.5"/>
  </g>
  <g id="arrowDown" transform="rotate(180) translate(-30 -48)">
    <use xlink:href="#rim"/>
    <path pointer-events="none" fill="none" stroke="white" stroke-width="1.5" d="M0,-3.0v7 M-2.5,-0.5L0,-3.0L2.5,-0.5"/>
  </g>
  <g id="arrowLeft" transform="rotate(270) translate(-36 17)">
    <use xlink:href="#rim"/>
    <path pointer-events="none" fill="none" stroke="white" stroke-width="1.5" d="M0,-3.0v7 M-2.5,-0.5L0,-3.0L2.5,-0.5"/>
  </g>
  <g id="resetDef">
    <use xlink:href="#rim2" fill="#404040"><set attributeName="fill" to="#808080" begin="reset.mouseover" end="reset.mouseout"/></use>
  </g>
</defs>
<script type="application/ecmascript">
var viewWidth = 884;
var viewHeight = 193;
var sectionId = 'dynsection-0';
</script>
<script type="application/ecmascript" xlink:href="../../svg.min.js"/>
<svg id="graph" class="graph">
<g id="viewport">
<title>include/math/vec2.hpp</title>
<!-- Node1 -->
<g id="Node000001" class="node">
<title>Node1</title>
<g id="a_Node000001"><a xlink:title="Defines a 2D vector and provides its operations.">
<polygon fill="#999999" stroke="#666666" points="721.25,-185 613,-185 613,-165.75 721.25,-165.75 721.25,-185"/>
<text text-anchor="middle" x="667.12" y="-171.5" font-family="Times,serif" font-size="10.00">include/math/vec2.hpp</text>
</a>
</g>
</g>
<!-- Node2 -->
<g id="Node000002" class="node">
<title>Node2</title>
<g id="a_Node000002"><a xlink:href="../../d7/d7c/vec_8hpp.html" target="_top" xlink:title=" ">
<polygon fill="white" stroke="#666666" points="657.88,-129.75 610.38,-129.75 610.38,-110.5 657.88,-110.5 657.88,-129.75"/>
<text text-anchor="middle" x="634.12" y="-116.25" font-family="Times,serif" font-size="10.00">vec.hpp</text>
</a>
</g>
</g>
<!-- Node1&#45;&gt;Node2 -->
<g id="edge1_Node000001_Node000002" class="edge">
<title>Node1&#45;&gt;Node2</title>
<g id="a_edge1_Node000001_Node000002"><a xlink:title=" ">
<path fill="none" stroke="#63b8ff" d="M656.51,-165.58C650.76,-158.69 644.21,-148.84 639.42,-140.16"/>
<polygon fill="#63b8ff" stroke="#63b8ff" points="642.7,-138.9 635.15,-131.47 636.42,-141.99 642.7,-138.9"/>
</a>
</g>
</g>
<!-- Node23 -->
<g id="Node000023" class="node">
<title>Node23</title>
<g id="a_Node000023"><a xlink:href="../../d2/d56/vec2_8inl.html" target="_top" xlink:title=" ">
<polygon fill="white" stroke="#666666" points="723.88,-129.75 676.38,-129.75 676.38,-110.5 723.88,-110.5 723.88,-129.75"/>
<text text-anchor="middle" x="700.12" y="-116.25" font-family="Times,serif" font-size="10.00">vec2.inl</text>
</a>
</g>
</g>
<!-- Node1&#45;&gt;Node23 -->
<g id="edge35_Node000001_Node000023" class="edge">
<title>Node1&#45;&gt;Node23</title>
<g id="a_edge35_Node000001_Node000023"><a xlink:title=" ">
<path fill="none" stroke="#63b8ff" d="M667.41,-165.58C670.3,-158.46 676.25,-148.18 682.43,-139.3"/>
<polygon fill="#63b8ff" stroke="#63b8ff" points="685.22,-141.41 688.44,-131.32 679.63,-137.2 685.22,-141.41"/>
</a>
</g>
</g>
<!-- Node2&#45;&gt;Node1 -->
<g id="edge22_Node000002_Node000001" class="edge">
<title>Node2&#45;&gt;Node1</title>
<g id="a_edge22_Node000002_Node000001"><a xlink:title=" ">
<path fill="none" stroke="#63b8ff" d="M644.9,-130.11C650.6,-136.98 657.06,-146.71 661.8,-155.29"/>
<polygon fill="#63b8ff" stroke="#63b8ff" points="658.63,-156.78 666.18,-164.22 664.92,-153.7 658.63,-156.78"/>
</a>
</g>
</g>
<!-- Node3 -->
<g id="Node000003" class="node">
<title>Node3</title>
<g id="a_Node000003"><a xlink:href="../../d8/d24/math-common_8hpp.html" target="_top" xlink:title=" ">
<polygon fill="white" stroke="#666666" points="284.62,-74.5 193.62,-74.5 193.62,-55.25 284.62,-55.25 284.62,-74.5"/>
<text text-anchor="middle" x="239.12" y="-61" font-family="Times,serif" font-size="10.00">math&#45;common.hpp</text>
</a>
</g>
</g>
<!-- Node2&#45;&gt;Node3 -->
<g id="edge2_Node000002_Node000003" class="edge">
<title>Node2&#45;&gt;Node3</title>
<g id="a_edge2_Node000002_Node000003"><a xlink:title=" ">
<path fill="none" stroke="#63b8ff" d="M610.01,-115.87C548.45,-107.58 384.19,-85.43 296.37,-73.59"/>
<polygon fill="#63b8ff" stroke="#63b8ff" points="296.89,-70.13 286.52,-72.26 295.96,-77.07 296.89,-70.13"/>
</a>
</g>
</g>
<!-- Node11 -->
<g id="Node000011" class="node">
<title>Node11</title>
<g id="a_Node000011"><a xlink:href="../../d4/d44/rvec2_8hpp.html" target="_top" xlink:title="Definitions for the rvec&lt;2, T&gt; specialized template representing 2D vectors with reference&#45;like seman...">
<polygon fill="white" stroke="#666666" points="512.38,-74.5 455.88,-74.5 455.88,-55.25 512.38,-55.25 512.38,-74.5"/>
<text text-anchor="middle" x="484.12" y="-61" font-family="Times,serif" font-size="10.00">rvec2.hpp</text>
</a>
</g>
</g>
<!-- Node2&#45;&gt;Node11 -->
<g id="edge10_Node000002_Node000011" class="edge">
<title>Node2&#45;&gt;Node11</title>
<g id="a_edge10_Node000002_Node000011"><a xlink:title=" ">
<path fill="none" stroke="#63b8ff" d="M610.12,-112.27C584.12,-103.84 542.9,-89.35 514.65,-78.8"/>
<polygon fill="#63b8ff" stroke="#63b8ff" points="516.16,-75.63 505.57,-75.37 513.69,-82.18 516.16,-75.63"/>
</a>
</g>
</g>
<!-- Node13 -->
<g id="Node000013" class="node">
<title>Node13</title>
<g id="a_Node000013"><a xlink:href="../../d9/dc3/rvec3_8hpp.html" target="_top" xlink:title="Provides the implementation of a 3D reference vector.">
<polygon fill="white" stroke="#666666" points="587.38,-74.5 530.88,-74.5 530.88,-55.25 587.38,-55.25 587.38,-74.5"/>
<text text-anchor="middle" x="559.12" y="-61" font-family="Times,serif" font-size="10.00">rvec3.hpp</text>
</a>
</g>
</g>
<!-- Node2&#45;&gt;Node13 -->
<g id="edge14_Node000002_Node000013" class="edge">
<title>Node2&#45;&gt;Node13</title>
<g id="a_edge14_Node000002_Node000013"><a xlink:title=" ">
<path fill="none" stroke="#63b8ff" d="M616.19,-110.09C603.74,-102.4 587.56,-91.15 575.48,-81.93"/>
<polygon fill="#63b8ff" stroke="#63b8ff" points="577.66,-79.19 567.66,-75.72 573.31,-84.67 577.66,-79.19"/>
</a>
</g>
</g>
<!-- Node15 -->
<g id="Node000015" class="node">
<title>Node15</title>
<g id="a_Node000015"><a xlink:href="../../d2/d88/rvec4_8hpp.html" target="_top" xlink:title="Defines a 4&#45;dimensional reference vector struct.">
<polygon fill="white" stroke="#666666" points="662.38,-74.5 605.88,-74.5 605.88,-55.25 662.38,-55.25 662.38,-74.5"/>
<text text-anchor="middle" x="634.12" y="-61" font-family="Times,serif" font-size="10.00">rvec4.hpp</text>
</a>
</g>
</g>
<!-- Node2&#45;&gt;Node15 -->
<g id="edge18_Node000002_Node000015" class="edge">
<title>Node2&#45;&gt;Node15</title>
<g id="a_edge18_Node000002_Node000015"><a xlink:title=" ">
<path fill="none" stroke="#63b8ff" d="M628.96,-110.33C627.55,-103.74 627.08,-94.46 627.55,-86.07"/>
<polygon fill="#63b8ff" stroke="#63b8ff" points="631,-86.71 628.74,-76.36 624.05,-85.87 631,-86.71"/>
</a>
</g>
</g>
<!-- Node17 -->
<g id="Node000017" class="node">
<title>Node17</title>
<g id="a_Node000017"><a xlink:href="../../d9/dcd/vec3_8hpp.html" target="_top" xlink:title="Header file for the 3D vector definition.">
<polygon fill="white" stroke="#666666" points="733.5,-74.5 680.75,-74.5 680.75,-55.25 733.5,-55.25 733.5,-74.5"/>
<text text-anchor="middle" x="707.12" y="-61" font-family="Times,serif" font-size="10.00">vec3.hpp</text>
</a>
</g>
</g>
<!-- Node2&#45;&gt;Node17 -->
<g id="edge23_Node000002_Node000017" class="edge">
<title>Node2&#45;&gt;Node17</title>
<g id="a_edge23_Node000002_Node000017"><a xlink:title=" ">
<path fill="none" stroke="#63b8ff" d="M641.29,-110.09C650.45,-102.21 666.03,-90.61 679.83,-81.27"/>
<polygon fill="#63b8ff" stroke="#63b8ff" points="681.75,-84.2 688.19,-75.78 677.91,-78.35 681.75,-84.2"/>
</a>
</g>
</g>
<!-- Node19 -->
<g id="Node000019" class="node">
<title>Node19</title>
<g id="a_Node000019"><a xlink:href="../../dd/dc5/vec4_8hpp.html" target="_top" xlink:title="Contains the definition of the vec&lt;4, T&gt; structure.">
<polygon fill="white" stroke="#666666" points="804.5,-74.5 751.75,-74.5 751.75,-55.25 804.5,-55.25 804.5,-74.5"/>
<text text-anchor="middle" x="778.12" y="-61" font-family="Times,serif" font-size="10.00">vec4.hpp</text>
</a>
</g>
</g>
<!-- Node2&#45;&gt;Node19 -->
<g id="edge27_Node000002_Node000019" class="edge">
<title>Node2&#45;&gt;Node19</title>
<g id="a_edge27_Node000002_Node000019"><a xlink:title=" ">
<path fill="none" stroke="#63b8ff" d="M653.34,-110.09C675.7,-101.13 712.77,-87.36 740.79,-77.57"/>
<polygon fill="#63b8ff" stroke="#63b8ff" points="741.67,-80.97 749.98,-74.4 739.39,-74.35 741.67,-80.97"/>
</a>
</g>
</g>
<!-- Node21 -->
<g id="Node000021" class="node">
<title>Node21</title>
<g id="a_Node000021"><a xlink:href="../../d4/d02/vecn_8hpp.html" target="_top" xlink:title="Contains the definition of the generic vec&lt;L, T&gt; structure.">
<polygon fill="white" stroke="#666666" points="875.5,-74.5 822.75,-74.5 822.75,-55.25 875.5,-55.25 875.5,-74.5"/>
<text text-anchor="middle" x="849.12" y="-61" font-family="Times,serif" font-size="10.00">vecn.hpp</text>
</a>
</g>
</g>
<!-- Node2&#45;&gt;Node21 -->
<g id="edge31_Node000002_Node000021" class="edge">
<title>Node2&#45;&gt;Node21</title>
<g id="a_edge31_Node000002_Node000021"><a xlink:title=" ">
<path fill="none" stroke="#63b8ff" d="M658.6,-110.38C711.51,-96.98 773.12,-82.01 811.78,-73.3"/>
<polygon fill="#63b8ff" stroke="#63b8ff" points="812.06,-76.82 821.06,-71.24 810.54,-69.99 812.06,-76.82"/>
</a>
</g>
</g>
<!-- Node4 -->
<g id="Node000004" class="node">
<title>Node4</title>
<g id="a_Node000004"><a xlink:title=" ">
<polygon fill="#e0e0e0" stroke="#999999" points="36.25,-19.25 0,-19.25 0,0 36.25,0 36.25,-19.25"/>
<text text-anchor="middle" x="18.12" y="-5.75" font-family="Times,serif" font-size="10.00">array</text>
</a>
</g>
</g>
<!-- Node3&#45;&gt;Node4 -->
<g id="edge3_Node000003_Node000004" class="edge">
<title>Node3&#45;&gt;Node4</title>
<g id="a_edge3_Node000003_Node000004"><a xlink:title=" ">
<path fill="none" stroke="#63b8ff" d="M195.98,-54.83C159.1,-46.88 104.39,-34.62 47.72,-19.52"/>
<polygon fill="#63b8ff" stroke="#63b8ff" points="48.77,-16.18 38.21,-16.96 46.96,-22.94 48.77,-16.18"/>
</a>
</g>
</g>
<!-- Node5 -->
<g id="Node000005" class="node">
<title>Node5</title>
<g id="a_Node000005"><a xlink:title=" ">
<polygon fill="#e0e0e0" stroke="#999999" points="101.5,-19.25 54.75,-19.25 54.75,0 101.5,0 101.5,-19.25"/>
<text text-anchor="middle" x="78.12" y="-5.75" font-family="Times,serif" font-size="10.00">assert.h</text>
</a>
</g>
</g>
<!-- Node3&#45;&gt;Node5 -->
<g id="edge4_Node000003_Node000005" class="edge">
<title>Node3&#45;&gt;Node5</title>
<g id="a_edge4_Node000003_Node000005"><a xlink:title=" ">
<path fill="none" stroke="#63b8ff" d="M211.81,-54.84C184.45,-45.79 142.24,-31.83 112.58,-22.02"/>
<polygon fill="#63b8ff" stroke="#63b8ff" points="113.92,-18.78 103.33,-18.96 111.72,-25.42 113.92,-18.78"/>
</a>
</g>
</g>
<!-- Node6 -->
<g id="Node000006" class="node">
<title>Node6</title>
<g id="a_Node000006"><a xlink:title=" ">
<polygon fill="#e0e0e0" stroke="#999999" points="160.5,-19.25 119.75,-19.25 119.75,0 160.5,0 160.5,-19.25"/>
<text text-anchor="middle" x="140.12" y="-5.75" font-family="Times,serif" font-size="10.00">cmath</text>
</a>
</g>
</g>
<!-- Node3&#45;&gt;Node6 -->
<g id="edge5_Node000003_Node000006" class="edge">
<title>Node3&#45;&gt;Node6</title>
<g id="a_edge5_Node000003_Node000006"><a xlink:title=" ">
<path fill="none" stroke="#63b8ff" d="M222.33,-54.84C207.11,-46.66 184.43,-34.46 166.74,-24.94"/>
<polygon fill="#63b8ff" stroke="#63b8ff" points="168.8,-22.07 158.33,-20.42 165.48,-28.24 168.8,-22.07"/>
</a>
</g>
</g>
<!-- Node7 -->
<g id="Node000007" class="node">
<title>Node7</title>
<g id="a_Node000007"><a xlink:title=" ">
<polygon fill="#e0e0e0" stroke="#999999" points="229.38,-19.25 178.88,-19.25 178.88,0 229.38,0 229.38,-19.25"/>
<text text-anchor="middle" x="204.12" y="-5.75" font-family="Times,serif" font-size="10.00">concepts</text>
</a>
</g>
</g>
<!-- Node3&#45;&gt;Node7 -->
<g id="edge6_Node000003_Node000007" class="edge">
<title>Node3&#45;&gt;Node7</title>
<g id="a_edge6_Node000003_Node000007"><a xlink:title=" ">
<path fill="none" stroke="#63b8ff" d="M233.35,-55.08C228.71,-48.03 222.05,-37.9 216.26,-29.08"/>
<polygon fill="#63b8ff" stroke="#63b8ff" points="219.28,-27.31 210.86,-20.87 213.43,-31.15 219.28,-27.31"/>
</a>
</g>
</g>
<!-- Node8 -->
<g id="Node000008" class="node">
<title>Node8</title>
<g id="a_Node000008"><a xlink:title=" ">
<polygon fill="#e0e0e0" stroke="#999999" points="298.38,-19.25 247.88,-19.25 247.88,0 298.38,0 298.38,-19.25"/>
<text text-anchor="middle" x="273.12" y="-5.75" font-family="Times,serif" font-size="10.00">numbers</text>
</a>
</g>
</g>
<!-- Node3&#45;&gt;Node8 -->
<g id="edge7_Node000003_Node000008" class="edge">
<title>Node3&#45;&gt;Node8</title>
<g id="a_edge7_Node000003_Node000008"><a xlink:title=" ">
<path fill="none" stroke="#63b8ff" d="M244.74,-55.08C249.24,-48.03 255.71,-37.9 261.34,-29.08"/>
<polygon fill="#63b8ff" stroke="#63b8ff" points="264.14,-31.2 266.57,-20.88 258.24,-27.43 264.14,-31.2"/>
</a>
</g>
</g>
<!-- Node9 -->
<g id="Node000009" class="node">
<title>Node9</title>
<g id="a_Node000009"><a xlink:title=" ">
<polygon fill="#e0e0e0" stroke="#999999" points="363.88,-19.25 316.38,-19.25 316.38,0 363.88,0 363.88,-19.25"/>
<text text-anchor="middle" x="340.12" y="-5.75" font-family="Times,serif" font-size="10.00">ostream</text>
</a>
</g>
</g>
<!-- Node3&#45;&gt;Node9 -->
<g id="edge8_Node000003_Node000009" class="edge">
<title>Node3&#45;&gt;Node9</title>
<g id="a_edge8_Node000003_Node000009"><a xlink:title=" ">
<path fill="none" stroke="#63b8ff" d="M256.26,-54.84C271.78,-46.66 294.93,-34.46 312.97,-24.94"/>
<polygon fill="#63b8ff" stroke="#63b8ff" points="314.36,-28.17 321.57,-20.41 311.09,-21.98 314.36,-28.17"/>
</a>
</g>
</g>
<!-- Node10 -->
<g id="Node000010" class="node">
<title>Node10</title>
<g id="a_Node000010"><a xlink:title=" ">
<polygon fill="#e0e0e0" stroke="#999999" points="440.5,-19.25 381.75,-19.25 381.75,0 440.5,0 440.5,-19.25"/>
<text text-anchor="middle" x="411.12" y="-5.75" font-family="Times,serif" font-size="10.00">type_traits</text>
</a>
</g>
</g>
<!-- Node3&#45;&gt;Node10 -->
<g id="edge9_Node000003_Node000010" class="edge">
<title>Node3&#45;&gt;Node10</title>
<g id="a_edge9_Node000003_Node000010"><a xlink:title=" ">
<path fill="none" stroke="#63b8ff" d="M268.3,-54.84C296.6,-46.08 339.74,-32.73 371.21,-22.98"/>
<polygon fill="#63b8ff" stroke="#63b8ff" points="371.84,-26.45 380.36,-20.15 369.77,-19.76 371.84,-26.45"/>
</a>
</g>
</g>
<!-- Node11&#45;&gt;Node2 -->
<g id="edge11_Node000011_Node000002" class="edge">
<title>Node11&#45;&gt;Node2</title>
<g id="a_edge11_Node000011_Node000002"><a xlink:title=" ">
<path fill="none" stroke="#63b8ff" d="M512.79,-74.25C538.75,-82.79 576.66,-96.15 603.26,-106.07"/>
<polygon fill="#63b8ff" stroke="#63b8ff" points="601.89,-109.3 612.48,-109.56 604.36,-102.75 601.89,-109.3"/>
</a>
</g>
</g>
<!-- Node12 -->
<g id="Node000012" class="node">
<title>Node12</title>
<g id="a_Node000012"><a xlink:href="../../dd/d72/rvec2_8inl.html" target="_top" xlink:title=" ">
<polygon fill="white" stroke="#666666" points="509.75,-19.25 458.5,-19.25 458.5,0 509.75,0 509.75,-19.25"/>
<text text-anchor="middle" x="484.12" y="-5.75" font-family="Times,serif" font-size="10.00">rvec2.inl</text>
</a>
</g>
</g>
<!-- Node11&#45;&gt;Node12 -->
<g id="edge12_Node000011_Node000012" class="edge">
<title>Node11&#45;&gt;Node12</title>
<g id="a_edge12_Node000011_Node000012"><a xlink:title=" ">
<path fill="none" stroke="#63b8ff" d="M478.96,-55.08C477.55,-48.49 477.08,-39.21 477.55,-30.82"/>
<polygon fill="#63b8ff" stroke="#63b8ff" points="481,-31.46 478.74,-21.11 474.05,-30.62 481,-31.46"/>
</a>
</g>
</g>
<!-- Node12&#45;&gt;Node11 -->
<g id="edge13_Node000012_Node000011" class="edge">
<title>Node12&#45;&gt;Node11</title>
<g id="a_edge13_Node000012_Node000011"><a xlink:title=" ">
<path fill="none" stroke="#63b8ff" d="M489.33,-19.61C490.72,-26.25 491.17,-35.55 490.68,-43.92"/>
<polygon fill="#63b8ff" stroke="#63b8ff" points="487.24,-43.22 489.48,-53.58 494.19,-44.09 487.24,-43.22"/>
</a>
</g>
</g>
<!-- Node13&#45;&gt;Node2 -->
<g id="edge15_Node000013_Node000002" class="edge">
<title>Node13&#45;&gt;Node2</title>
<g id="a_edge15_Node000013_Node000002"><a xlink:title=" ">
<path fill="none" stroke="#63b8ff" d="M577.14,-74.95C589.52,-82.62 605.58,-93.78 617.62,-102.96"/>
<polygon fill="#63b8ff" stroke="#63b8ff" points="615.42,-105.68 625.43,-109.15 619.77,-100.2 615.42,-105.68"/>
</a>
</g>
</g>
<!-- Node14 -->
<g id="Node000014" class="node">
<title>Node14</title>
<g id="a_Node000014"><a xlink:href="../../d7/d70/rvec3_8inl.html" target="_top" xlink:title=" ">
<polygon fill="white" stroke="#666666" points="584.75,-19.25 533.5,-19.25 533.5,0 584.75,0 584.75,-19.25"/>
<text text-anchor="middle" x="559.12" y="-5.75" font-family="Times,serif" font-size="10.00">rvec3.inl</text>
</a>
</g>
</g>
<!-- Node13&#45;&gt;Node14 -->
<g id="edge16_Node000013_Node000014" class="edge">
<title>Node13&#45;&gt;Node14</title>
<g id="a_edge16_Node000013_Node000014"><a xlink:title=" ">
<path fill="none" stroke="#63b8ff" d="M553.96,-55.08C552.55,-48.49 552.08,-39.21 552.55,-30.82"/>
<polygon fill="#63b8ff" stroke="#63b8ff" points="556,-31.46 553.74,-21.11 549.05,-30.62 556,-31.46"/>
</a>
</g>
</g>
<!-- Node14&#45;&gt;Node13 -->
<g id="edge17_Node000014_Node000013" class="edge">
<title>Node14&#45;&gt;Node13</title>
<g id="a_edge17_Node000014_Node000013"><a xlink:title=" ">
<path fill="none" stroke="#63b8ff" d="M564.33,-19.61C565.72,-26.25 566.17,-35.55 565.68,-43.92"/>
<polygon fill="#63b8ff" stroke="#63b8ff" points="562.24,-43.22 564.48,-53.58 569.19,-44.09 562.24,-43.22"/>
</a>
</g>
</g>
<!-- Node15&#45;&gt;Node2 -->
<g id="edge19_Node000015_Node000002" class="edge">
<title>Node15&#45;&gt;Node2</title>
<g id="a_edge19_Node000015_Node000002"><a xlink:title=" ">
<path fill="none" stroke="#63b8ff" d="M639.33,-74.86C640.72,-81.5 641.17,-90.8 640.68,-99.17"/>
<polygon fill="#63b8ff" stroke="#63b8ff" points="637.24,-98.47 639.48,-108.83 644.19,-99.34 637.24,-98.47"/>
</a>
</g>
</g>
<!-- Node16 -->
<g id="Node000016" class="node">
<title>Node16</title>
<g id="a_Node000016"><a xlink:href="../../d1/d9f/rvec4_8inl.html" target="_top" xlink:title=" ">
<polygon fill="white" stroke="#666666" points="659.75,-19.25 608.5,-19.25 608.5,0 659.75,0 659.75,-19.25"/>
<text text-anchor="middle" x="634.12" y="-5.75" font-family="Times,serif" font-size="10.00">rvec4.inl</text>
</a>
</g>
</g>
<!-- Node15&#45;&gt;Node16 -->
<g id="edge20_Node000015_Node000016" class="edge">
<title>Node15&#45;&gt;Node16</title>
<g id="a_edge20_Node000015_Node000016"><a xlink:title=" ">
<path fill="none" stroke="#63b8ff" d="M628.96,-55.08C627.55,-48.49 627.08,-39.21 627.55,-30.82"/>
<polygon fill="#63b8ff" stroke="#63b8ff" points="631,-31.46 628.74,-21.11 624.05,-30.62 631,-31.46"/>
</a>
</g>
</g>
<!-- Node16&#45;&gt;Node15 -->
<g id="edge21_Node000016_Node000015" class="edge">
<title>Node16&#45;&gt;Node15</title>
<g id="a_edge21_Node000016_Node000015"><a xlink:title=" ">
<path fill="none" stroke="#63b8ff" d="M639.33,-19.61C640.72,-26.25 641.17,-35.55 640.68,-43.92"/>
<polygon fill="#63b8ff" stroke="#63b8ff" points="637.24,-43.22 639.48,-53.58 644.19,-44.09 637.24,-43.22"/>
</a>
</g>
</g>
<!-- Node17&#45;&gt;Node2 -->
<g id="edge24_Node000017_Node000002" class="edge">
<title>Node17&#45;&gt;Node2</title>
<g id="a_edge24_Node000017_Node000002"><a xlink:title=" ">
<path fill="none" stroke="#63b8ff" d="M700.11,-74.77C690.88,-82.74 674.98,-94.57 660.99,-104.01"/>
<polygon fill="#63b8ff" stroke="#63b8ff" points="659.43,-100.85 652.99,-109.26 663.27,-106.71 659.43,-100.85"/>
</a>
</g>
</g>
<!-- Node18 -->
<g id="Node000018" class="node">
<title>Node18</title>
<g id="a_Node000018"><a xlink:href="../../d3/dc9/vec3_8inl.html" target="_top" xlink:title=" ">
<polygon fill="white" stroke="#666666" points="730.88,-19.25 683.38,-19.25 683.38,0 730.88,0 730.88,-19.25"/>
<text text-anchor="middle" x="707.12" y="-5.75" font-family="Times,serif" font-size="10.00">vec3.inl</text>
</a>
</g>
</g>
<!-- Node17&#45;&gt;Node18 -->
<g id="edge25_Node000017_Node000018" class="edge">
<title>Node17&#45;&gt;Node18</title>
<g id="a_edge25_Node000017_Node000018"><a xlink:title=" ">
<path fill="none" stroke="#63b8ff" d="M701.96,-55.08C700.55,-48.49 700.08,-39.21 700.55,-30.82"/>
<polygon fill="#63b8ff" stroke="#63b8ff" points="704,-31.46 701.74,-21.11 697.05,-30.62 704,-31.46"/>
</a>
</g>
</g>
<!-- Node18&#45;&gt;Node17 -->
<g id="edge26_Node000018_Node000017" class="edge">
<title>Node18&#45;&gt;Node17</title>
<g id="a_edge26_Node000018_Node000017"><a xlink:title=" ">
<path fill="none" stroke="#63b8ff" d="M712.33,-19.61C713.72,-26.25 714.17,-35.55 713.68,-43.92"/>
<polygon fill="#63b8ff" stroke="#63b8ff" points="710.24,-43.22 712.48,-53.58 717.19,-44.09 710.24,-43.22"/>
</a>
</g>
</g>
<!-- Node19&#45;&gt;Node2 -->
<g id="edge28_Node000019_Node000002" class="edge">
<title>Node19&#45;&gt;Node2</title>
<g id="a_edge28_Node000019_Node000002"><a xlink:title=" ">
<path fill="none" stroke="#63b8ff" d="M758.94,-74.9C735.93,-84.12 697.28,-98.45 668.99,-108.29"/>
<polygon fill="#63b8ff" stroke="#63b8ff" points="668.09,-104.9 659.77,-111.45 670.36,-111.52 668.09,-104.9"/>
</a>
</g>
</g>
<!-- Node20 -->
<g id="Node000020" class="node">
<title>Node20</title>
<g id="a_Node000020"><a xlink:href="../../da/d28/vec4_8inl.html" target="_top" xlink:title=" ">
<polygon fill="white" stroke="#666666" points="801.88,-19.25 754.38,-19.25 754.38,0 801.88,0 801.88,-19.25"/>
<text text-anchor="middle" x="778.12" y="-5.75" font-family="Times,serif" font-size="10.00">vec4.inl</text>
</a>
</g>
</g>
<!-- Node19&#45;&gt;Node20 -->
<g id="edge29_Node000019_Node000020" class="edge">
<title>Node19&#45;&gt;Node20</title>
<g id="a_edge29_Node000019_Node000020"><a xlink:title=" ">
<path fill="none" stroke="#63b8ff" d="M772.96,-55.08C771.55,-48.49 771.08,-39.21 771.55,-30.82"/>
<polygon fill="#63b8ff" stroke="#63b8ff" points="775,-31.46 772.74,-21.11 768.05,-30.62 775,-31.46"/>
</a>
</g>
</g>
<!-- Node20&#45;&gt;Node19 -->
<g id="edge30_Node000020_Node000019" class="edge">
<title>Node20&#45;&gt;Node19</title>
<g id="a_edge30_Node000020_Node000019"><a xlink:title=" ">
<path fill="none" stroke="#63b8ff" d="M783.33,-19.61C784.72,-26.25 785.17,-35.55 784.68,-43.92"/>
<polygon fill="#63b8ff" stroke="#63b8ff" points="781.24,-43.22 783.48,-53.58 788.19,-44.09 781.24,-43.22"/>
</a>
</g>
</g>
<!-- Node21&#45;&gt;Node2 -->
<g id="edge32_Node000021_Node000002" class="edge">
<title>Node21&#45;&gt;Node2</title>
<g id="a_edge32_Node000021_Node000002"><a xlink:title=" ">
<path fill="none" stroke="#63b8ff" d="M822.49,-73.87C788.36,-82.68 728,-97.36 676.12,-110.5 673.88,-111.07 671.56,-111.66 669.19,-112.26"/>
<polygon fill="#63b8ff" stroke="#63b8ff" points="668.35,-108.87 659.49,-114.67 670.04,-115.66 668.35,-108.87"/>
</a>
</g>
</g>
<!-- Node22 -->
<g id="Node000022" class="node">
<title>Node22</title>
<g id="a_Node000022"><a xlink:href="../../d6/d8c/vecn_8inl.html" target="_top" xlink:title=" ">
<polygon fill="white" stroke="#666666" points="872.88,-19.25 825.38,-19.25 825.38,0 872.88,0 872.88,-19.25"/>
<text text-anchor="middle" x="849.12" y="-5.75" font-family="Times,serif" font-size="10.00">vecn.inl</text>
</a>
</g>
</g>
<!-- Node21&#45;&gt;Node22 -->
<g id="edge33_Node000021_Node000022" class="edge">
<title>Node21&#45;&gt;Node22</title>
<g id="a_edge33_Node000021_Node000022"><a xlink:title=" ">
<path fill="none" stroke="#63b8ff" d="M843.96,-55.08C842.55,-48.49 842.08,-39.21 842.55,-30.82"/>
<polygon fill="#63b8ff" stroke="#63b8ff" points="846,-31.46 843.74,-21.11 839.05,-30.62 846,-31.46"/>
</a>
</g>
</g>
<!-- Node22&#45;&gt;Node21 -->
<g id="edge34_Node000022_Node000021" class="edge">
<title>Node22&#45;&gt;Node21</title>
<g id="a_edge34_Node000022_Node000021"><a xlink:title=" ">
<path fill="none" stroke="#63b8ff" d="M854.33,-19.61C855.72,-26.25 856.17,-35.55 855.68,-43.92"/>
<polygon fill="#63b8ff" stroke="#63b8ff" points="852.24,-43.22 854.48,-53.58 859.19,-44.09 852.24,-43.22"/>
</a>
</g>
</g>
<!-- Node23&#45;&gt;Node1 -->
<g id="edge36_Node000023_Node000001" class="edge">
<title>Node23&#45;&gt;Node1</title>
<g id="a_edge36_Node000023_Node000001"><a xlink:title=" ">
<path fill="none" stroke="#63b8ff" d="M699.76,-130.11C696.82,-137.29 690.84,-147.59 684.66,-156.44"/>
<polygon fill="#63b8ff" stroke="#63b8ff" points="681.9,-154.29 678.65,-164.37 687.48,-158.51 681.9,-154.29"/>
</a>
</g>
</g>
</g>
</svg>

<g id="navigator" transform="translate(0 0)" fill="#404254">
  <rect fill="#f2f5e9" fill-opacity="0.5" stroke="#606060" stroke-width=".5" x="0" y="0" width="60" height="60"/>
  <use id="zoomplus" xlink:href="#zoomPlus" x="17" y="9" onmousedown="handleZoom(evt,'in')"/>
  <use id="zoomminus" xlink:href="#zoomMin" x="42" y="9" onmousedown="handleZoom(evt,'out')"/>
  <use id="reset" xlink:href="#resetDef" x="30" y="36" onmousedown="handleReset()"/>
   <use id="arrowup" xlink:href="#arrowUp" x="0" y="0" onmousedown="handlePan(0,-1)"/>
  <use id="arrowright" xlink:href="#arrowRight" x="0" y="0" onmousedown="handlePan(1,0)"/>
  <use id="arrowdown" xlink:href="#arrowDown" x="0" y="0" onmousedown="handlePan(0,1)"/>
  <use id="arrowleft" xlink:href="#arrowLeft" x="0" y="0" onmousedown="handlePan(-1,0)"/>
</g>
<svg viewBox="0 0 15 15" width="100%" height="30px" preserveAspectRatio="xMaxYMin meet">
 <g id="arrow_out" transform="scale(0.3 0.3)">
  <a xlink:href="vec2_8hpp__incl_org.svg" target="_base">
   <rect id="button" ry="5" rx="5" y="6" x="6" height="38" width="38"
        fill="#f2f5e9" fill-opacity="0.5" stroke="#606060" stroke-width="1.0"/>
   <path id="arrow"
     d="M 11.500037,31.436501 C 11.940474,20.09759 22.043105,11.32322 32.158766,21.979434 L 37.068811,17.246167 C 37.068811,17.246167 37.088388,32 37.088388,32 L 22.160133,31.978069 C 22.160133,31.978069 26.997745,27.140456 26.997745,27.140456 C 18.528582,18.264221 13.291696,25.230495 11.500037,31.436501 z"
     style="fill:#404040;"/>
  </a>
 </g>
</svg>

<style type='text/css'>
<![CDATA[
[data-mouse-over-selected='false'] { opacity: 0.7; }
[data-mouse-over-selected='true']  { opacity: 1.0; }
]]>
</style>
<script type="application/ecmascript"><![CDATA[
document.addEventListener('DOMContentLoaded', (event) => {
  highlightEdges();
  highlightAdjacentNodes();
});
]]></script>
</svg>
