<?xml version="1.0" encoding="UTF-8" standalone="no"?>
<!DOCTYPE svg PUBLIC "-//W3C//DTD SVG 1.1//EN"
 "http://www.w3.org/Graphics/SVG/1.1/DTD/svg11.dtd">
<!-- Generated by graphviz version 9.0.0 (20230911.1827)
 -->
<!-- Title: mal_math::Ray::PointAtParameter Pages: 1 -->
<svg width="322pt" height="150pt"
 viewBox="0.00 0.00 322.00 149.88" xmlns="http://www.w3.org/2000/svg" xmlns:xlink="http://www.w3.org/1999/xlink">
<g id="graph0" class="graph" transform="scale(1 1) rotate(0) translate(4 145.88)">
<title>mal_math::Ray::PointAtParameter</title>
<!-- Node1 -->
<g id="Node000001" class="node">
<title>Node1</title>
<g id="a_Node000001"><a xlink:title="Computes a point along the ray based on the given parameter.">
<polygon fill="#999999" stroke="#666666" points="314,-85.88 163,-85.88 163,-66.62 314,-66.62 314,-85.88"/>
<text text-anchor="middle" x="238.5" y="-72.38" font-family="Times,serif" font-size="10.00">mal_math::Ray::PointAtParameter</text>
</a>
</g>
</g>
<!-- Node2 -->
<g id="Node000002" class="node">
<title>Node2</title>
<g id="a_Node000002"><a xlink:href="../../de/db9/structmal__math_1_1_plane.html#ad59fe8bfb1f87f1e05764607a372b359" target="_top" xlink:title="Checks for the intersection of the plane with a given ray.">
<polygon fill="white" stroke="#666666" points="124,-141.88 3,-141.88 3,-122.62 124,-122.62 124,-141.88"/>
<text text-anchor="middle" x="63.5" y="-128.38" font-family="Times,serif" font-size="10.00">mal_math::Plane::Intersect</text>
</a>
</g>
</g>
<!-- Node1&#45;&gt;Node2 -->
<g id="edge1_Node000001_Node000002" class="edge">
<title>Node1&#45;&gt;Node2</title>
<g id="a_edge1_Node000001_Node000002"><a xlink:title=" ">
<path fill="none" stroke="#63b8ff" d="M198.67,-90.14C177.56,-97.56 150.94,-106.69 127,-114.25 118.49,-116.94 109.29,-119.68 100.62,-122.19"/>
<polygon fill="#63b8ff" stroke="#63b8ff" points="199.78,-93.46 208.04,-86.83 197.45,-86.86 199.78,-93.46"/>
</a>
</g>
</g>
<!-- Node3 -->
<g id="Node000003" class="node">
<title>Node3</title>
<g id="a_Node000003"><a xlink:href="../../d2/dd8/structmal__math_1_1_sphere.html#a16d1dfc076a08ee64ff10aff05669da4" target="_top" xlink:title="Determines if a Ray intersects with the Sphere.">
<polygon fill="white" stroke="#666666" points="127,-104.88 0,-104.88 0,-85.62 127,-85.62 127,-104.88"/>
<text text-anchor="middle" x="63.5" y="-91.38" font-family="Times,serif" font-size="10.00">mal_math::Sphere::Intersect</text>
</a>
</g>
</g>
<!-- Node1&#45;&gt;Node3 -->
<g id="edge2_Node000001_Node000003" class="edge">
<title>Node1&#45;&gt;Node3</title>
<g id="a_edge2_Node000001_Node000003"><a xlink:title=" ">
<path fill="none" stroke="#63b8ff" d="M151.25,-85.72C143.17,-86.61 135.1,-87.5 127.3,-88.35"/>
<polygon fill="#63b8ff" stroke="#63b8ff" points="151.56,-89.21 161.12,-84.64 150.8,-82.25 151.56,-89.21"/>
</a>
</g>
</g>
<!-- Node4 -->
<g id="Node000004" class="node">
<title>Node4</title>
<g id="a_Node000004"><a xlink:href="../../d7/d3f/structmal__math_1_1_t_box.html#a4a27d8fff3dba244fbe1a77e5300fa5a" target="_top" xlink:title="Checks if a ray intersects with the box and updates the nearest intersection point.">
<polygon fill="white" stroke="#666666" points="123.62,-67.88 3.38,-67.88 3.38,-48.62 123.62,-48.62 123.62,-67.88"/>
<text text-anchor="middle" x="63.5" y="-54.38" font-family="Times,serif" font-size="10.00">mal_math::TBox::Intersect</text>
</a>
</g>
</g>
<!-- Node1&#45;&gt;Node4 -->
<g id="edge3_Node000001_Node000004" class="edge">
<title>Node1&#45;&gt;Node4</title>
<g id="a_edge3_Node000001_Node000004"><a xlink:title=" ">
<path fill="none" stroke="#63b8ff" d="M151.4,-67.29C142.17,-66.33 132.94,-65.37 124.12,-64.45"/>
<polygon fill="#63b8ff" stroke="#63b8ff" points="150.81,-70.75 161.12,-68.3 151.54,-63.79 150.81,-70.75"/>
</a>
</g>
</g>
<!-- Node5 -->
<g id="Node000005" class="node">
<title>Node5</title>
<g id="a_Node000005"><a xlink:href="../../d3/dc1/structmal__math_1_1_triangle.html#af99f2bd3f4549825492e1908ee61c8c5" target="_top" xlink:title="Determines if a ray intersects with the triangle and updates intersection details.">
<polygon fill="white" stroke="#666666" points="110.12,-30.5 16.88,-30.5 16.88,0 110.12,0 110.12,-30.5"/>
<text text-anchor="start" x="24.88" y="-17" font-family="Times,serif" font-size="10.00">mal_math::Triangle</text>
<text text-anchor="middle" x="63.5" y="-5.75" font-family="Times,serif" font-size="10.00">::Intersect</text>
</a>
</g>
</g>
<!-- Node1&#45;&gt;Node5 -->
<g id="edge4_Node000001_Node000005" class="edge">
<title>Node1&#45;&gt;Node5</title>
<g id="a_edge4_Node000001_Node000005"><a xlink:title=" ">
<path fill="none" stroke="#63b8ff" d="M198.13,-62.37C171.61,-53.02 136.58,-40.66 109.03,-30.95"/>
<polygon fill="#63b8ff" stroke="#63b8ff" points="196.91,-65.65 207.51,-65.67 199.24,-59.05 196.91,-65.65"/>
</a>
</g>
</g>
</g>
</svg>
