<?xml version="1.0" encoding="UTF-8" standalone="no"?>
<!DOCTYPE svg PUBLIC "-//W3C//DTD SVG 1.1//EN"
 "http://www.w3.org/Graphics/SVG/1.1/DTD/svg11.dtd">
<!-- Generated by graphviz version 9.0.0 (20230911.1827)
 -->
<!-- Title: mal_math::Ray::origin Pages: 1 -->
<svg width="430pt" height="235pt"
 viewBox="0.00 0.00 430.25 234.88" xmlns="http://www.w3.org/2000/svg" xmlns:xlink="http://www.w3.org/1999/xlink">
<g id="graph0" class="graph" transform="scale(1 1) rotate(0) translate(4 230.88)">
<title>mal_math::Ray::origin</title>
<!-- Node1 -->
<g id="Node000001" class="node">
<title>Node1</title>
<g id="a_Node000001"><a xlink:title="Retrieves the ray&#39;s origin (const version).">
<polygon fill="#999999" stroke="#666666" points="422.25,-170.88 319.25,-170.88 319.25,-151.62 422.25,-151.62 422.25,-170.88"/>
<text text-anchor="middle" x="370.75" y="-157.38" font-family="Times,serif" font-size="10.00">mal_math::Ray::origin</text>
</a>
</g>
</g>
<!-- Node2 -->
<g id="Node000002" class="node">
<title>Node2</title>
<g id="a_Node000002"><a xlink:href="../../de/db9/structmal__math_1_1_plane.html#ad59fe8bfb1f87f1e05764607a372b359" target="_top" xlink:title="Checks for the intersection of the plane with a given ray.">
<polygon fill="white" stroke="#666666" points="280.25,-226.88 159.25,-226.88 159.25,-207.62 280.25,-207.62 280.25,-226.88"/>
<text text-anchor="middle" x="219.75" y="-213.38" font-family="Times,serif" font-size="10.00">mal_math::Plane::Intersect</text>
</a>
</g>
</g>
<!-- Node1&#45;&gt;Node2 -->
<g id="edge1_Node000001_Node000002" class="edge">
<title>Node1&#45;&gt;Node2</title>
<g id="a_edge1_Node000001_Node000002"><a xlink:title=" ">
<path fill="none" stroke="#63b8ff" d="M339.02,-175.95C322.67,-183.46 302.1,-192.43 283.25,-199.25 275.39,-202.09 266.86,-204.8 258.69,-207.2"/>
<polygon fill="#63b8ff" stroke="#63b8ff" points="340.13,-179.29 347.72,-171.9 337.18,-172.94 340.13,-179.29"/>
</a>
</g>
</g>
<!-- Node3 -->
<g id="Node000003" class="node">
<title>Node3</title>
<g id="a_Node000003"><a xlink:href="../../d2/dd8/structmal__math_1_1_sphere.html#a16d1dfc076a08ee64ff10aff05669da4" target="_top" xlink:title="Determines if a Ray intersects with the Sphere.">
<polygon fill="white" stroke="#666666" points="283.25,-189.88 156.25,-189.88 156.25,-170.62 283.25,-170.62 283.25,-189.88"/>
<text text-anchor="middle" x="219.75" y="-176.38" font-family="Times,serif" font-size="10.00">mal_math::Sphere::Intersect</text>
</a>
</g>
</g>
<!-- Node1&#45;&gt;Node3 -->
<g id="edge2_Node000001_Node000003" class="edge">
<title>Node1&#45;&gt;Node3</title>
<g id="a_edge2_Node000001_Node000003"><a xlink:title=" ">
<path fill="none" stroke="#63b8ff" d="M307.74,-169.16C299.73,-170.18 291.53,-171.22 283.51,-172.25"/>
<polygon fill="#63b8ff" stroke="#63b8ff" points="307.91,-172.66 317.39,-167.93 307.03,-165.72 307.91,-172.66"/>
</a>
</g>
</g>
<!-- Node4 -->
<g id="Node000004" class="node">
<title>Node4</title>
<g id="a_Node000004"><a xlink:href="../../d7/d3f/structmal__math_1_1_t_box.html#a6756f91cb6380a1b177b2bac94777a47" target="_top" xlink:title="Checks if a ray intersects with the box and updates the nearest intersection distance.">
<polygon fill="white" stroke="#666666" points="279.88,-152.88 159.62,-152.88 159.62,-133.62 279.88,-133.62 279.88,-152.88"/>
<text text-anchor="middle" x="219.75" y="-139.38" font-family="Times,serif" font-size="10.00">mal_math::TBox::Intersect</text>
</a>
</g>
</g>
<!-- Node1&#45;&gt;Node4 -->
<g id="edge3_Node000001_Node000004" class="edge">
<title>Node1&#45;&gt;Node4</title>
<g id="a_edge3_Node000001_Node000004"><a xlink:title=" ">
<path fill="none" stroke="#63b8ff" d="M307.64,-153.75C298.61,-152.66 289.34,-151.54 280.37,-150.45"/>
<polygon fill="#63b8ff" stroke="#63b8ff" points="307.04,-157.2 317.39,-154.92 307.88,-150.25 307.04,-157.2"/>
</a>
</g>
</g>
<!-- Node6 -->
<g id="Node000006" class="node">
<title>Node6</title>
<g id="a_Node000006"><a xlink:href="../../d3/dc1/structmal__math_1_1_triangle.html#af4c79ad8378a09c5266336dde0626bac" target="_top" xlink:title="Determines if a ray intersects with the triangle using its vertices.">
<polygon fill="white" stroke="#666666" points="266.38,-103.5 173.12,-103.5 173.12,-73 266.38,-73 266.38,-103.5"/>
<text text-anchor="start" x="181.12" y="-90" font-family="Times,serif" font-size="10.00">mal_math::Triangle</text>
<text text-anchor="middle" x="219.75" y="-78.75" font-family="Times,serif" font-size="10.00">::Intersect</text>
</a>
</g>
</g>
<!-- Node1&#45;&gt;Node6 -->
<g id="edge5_Node000001_Node000006" class="edge">
<title>Node1&#45;&gt;Node6</title>
<g id="a_edge5_Node000001_Node000006"><a xlink:title=" ">
<path fill="none" stroke="#63b8ff" d="M339.23,-146.3C313.98,-133.93 278.23,-116.41 252.62,-103.87"/>
<polygon fill="#63b8ff" stroke="#63b8ff" points="337.47,-149.33 347.99,-150.59 340.55,-143.04 337.47,-149.33"/>
</a>
</g>
</g>
<!-- Node5 -->
<g id="Node000005" class="node">
<title>Node5</title>
<g id="a_Node000005"><a xlink:href="../../d7/d3f/structmal__math_1_1_t_box.html#a4a27d8fff3dba244fbe1a77e5300fa5a" target="_top" xlink:title="Checks if a ray intersects with the box and updates the nearest intersection point.">
<polygon fill="white" stroke="#666666" points="120.25,-165.88 0,-165.88 0,-146.62 120.25,-146.62 120.25,-165.88"/>
<text text-anchor="middle" x="60.12" y="-152.38" font-family="Times,serif" font-size="10.00">mal_math::TBox::Intersect</text>
</a>
</g>
</g>
<!-- Node4&#45;&gt;Node5 -->
<g id="edge4_Node000004_Node000005" class="edge">
<title>Node4&#45;&gt;Node5</title>
<g id="a_edge4_Node000004_Node000005"><a xlink:title=" ">
<path fill="none" stroke="#63b8ff" d="M147.75,-149.11C138.66,-149.86 129.42,-150.62 120.54,-151.35"/>
<polygon fill="#63b8ff" stroke="#63b8ff" points="147.97,-152.6 157.65,-148.29 147.4,-145.62 147.97,-152.6"/>
</a>
</g>
</g>
<!-- Node7 -->
<g id="Node000007" class="node">
<title>Node7</title>
<g id="a_Node000007"><a xlink:href="../../d3/dc1/structmal__math_1_1_triangle.html#a2b3747420339d9b11d7c8f9cede86e6e" target="_top" xlink:title="Determines if a ray intersects with this triangle.">
<polygon fill="white" stroke="#666666" points="106.75,-128.5 13.5,-128.5 13.5,-98 106.75,-98 106.75,-128.5"/>
<text text-anchor="start" x="21.5" y="-115" font-family="Times,serif" font-size="10.00">mal_math::Triangle</text>
<text text-anchor="middle" x="60.12" y="-103.75" font-family="Times,serif" font-size="10.00">::Intersect</text>
</a>
</g>
</g>
<!-- Node6&#45;&gt;Node7 -->
<g id="edge6_Node000006_Node000007" class="edge">
<title>Node6&#45;&gt;Node7</title>
<g id="a_edge6_Node000006_Node000007"><a xlink:title=" ">
<path fill="none" stroke="#63b8ff" d="M161.56,-97.32C143.69,-100.16 124.2,-103.25 107.2,-105.94"/>
<polygon fill="#63b8ff" stroke="#63b8ff" points="161.91,-100.81 171.24,-95.79 160.81,-93.9 161.91,-100.81"/>
</a>
</g>
</g>
<!-- Node8 -->
<g id="Node000008" class="node">
<title>Node8</title>
<g id="a_Node000008"><a xlink:href="../../d3/dc1/structmal__math_1_1_triangle.html#a5c67412b71f174a92313b79d54b9a1b2" target="_top" xlink:title="Determines if a ray intersects with this triangle and updates intersection details.">
<polygon fill="white" stroke="#666666" points="106.75,-79.5 13.5,-79.5 13.5,-49 106.75,-49 106.75,-79.5"/>
<text text-anchor="start" x="21.5" y="-66" font-family="Times,serif" font-size="10.00">mal_math::Triangle</text>
<text text-anchor="middle" x="60.12" y="-54.75" font-family="Times,serif" font-size="10.00">::Intersect</text>
</a>
</g>
</g>
<!-- Node6&#45;&gt;Node8 -->
<g id="edge7_Node000006_Node000008" class="edge">
<title>Node6&#45;&gt;Node8</title>
<g id="a_edge7_Node000006_Node000008"><a xlink:title=" ">
<path fill="none" stroke="#63b8ff" d="M161.56,-79.54C143.69,-76.82 124.2,-73.85 107.2,-71.27"/>
<polygon fill="#63b8ff" stroke="#63b8ff" points="160.83,-82.97 171.24,-81.02 161.88,-76.05 160.83,-82.97"/>
</a>
</g>
</g>
<!-- Node9 -->
<g id="Node000009" class="node">
<title>Node9</title>
<g id="a_Node000009"><a xlink:href="../../d3/dc1/structmal__math_1_1_triangle.html#af99f2bd3f4549825492e1908ee61c8c5" target="_top" xlink:title="Determines if a ray intersects with the triangle and updates intersection details.">
<polygon fill="white" stroke="#666666" points="106.75,-30.5 13.5,-30.5 13.5,0 106.75,0 106.75,-30.5"/>
<text text-anchor="start" x="21.5" y="-17" font-family="Times,serif" font-size="10.00">mal_math::Triangle</text>
<text text-anchor="middle" x="60.12" y="-5.75" font-family="Times,serif" font-size="10.00">::Intersect</text>
</a>
</g>
</g>
<!-- Node6&#45;&gt;Node9 -->
<g id="edge8_Node000006_Node000009" class="edge">
<title>Node6&#45;&gt;Node9</title>
<g id="a_edge8_Node000006_Node000009"><a xlink:title=" ">
<path fill="none" stroke="#63b8ff" d="M177.93,-67.75C160.29,-59.05 139.36,-48.94 120.25,-40.25 113.45,-37.16 106.16,-33.97 99.11,-30.96"/>
<polygon fill="#63b8ff" stroke="#63b8ff" points="176.03,-70.72 186.54,-72.02 179.13,-64.44 176.03,-70.72"/>
</a>
</g>
</g>
</g>
</svg>
