<?xml version="1.0" encoding="UTF-8" standalone="no"?>
<!DOCTYPE svg PUBLIC "-//W3C//DTD SVG 1.1//EN"
 "http://www.w3.org/Graphics/SVG/1.1/DTD/svg11.dtd">
<!-- Generated by graphviz version 9.0.0 (20230911.1827)
 -->
<!-- Title: mal_math::vec&lt; 4, T &gt; Pages: 1 -->
<!--zoomable 555 -->

<svg id="main" version="1.1" xmlns="http://www.w3.org/2000/svg" xmlns:xlink="http://www.w3.org/1999/xlink" xml:space="preserve" onload="init(evt)">
<style type="text/css"><![CDATA[
.node, .edge {opacity: 0.7;}
.node.selected, .edge.selected {opacity: 1;}
.edge:hover path { stroke: red; }
.edge:hover polygon { stroke: red; fill: red; }
]]></style>

<defs>
  <circle id="rim" cx="0" cy="0" r="7"/>
  <circle id="rim2" cx="0" cy="0" r="3.5"/>
  <g id="zoomPlus">
    <use xlink:href="#rim" fill="#404040"><set attributeName="fill" to="#808080" begin="zoomplus.mouseover" end="zoomplus.mouseout"/></use>
    <path d="M-4,0h8M0,-4v8" fill="none" stroke="white" stroke-width="1.5" pointer-events="none"/>
  </g>
  <g id="zoomMin">
    <use xlink:href="#rim" fill="#404040"><set attributeName="fill" to="#808080" begin="zoomminus.mouseover" end="zoomminus.mouseout"/></use>
    <path d="M-4,0h8" fill="none" stroke="white" stroke-width="1.5" pointer-events="none"/>
  </g>
  <g id="arrowUp" transform="translate(30 24)">
    <use xlink:href="#rim"/>
    <path pointer-events="none" fill="none" stroke="white" stroke-width="1.5" d="M0,-3.0v7 M-2.5,-0.5L0,-3.0L2.5,-0.5"/>
  </g>
  <g id="arrowRight" transform="rotate(90) translate(36 -43)">
    <use xlink:href="#rim"/>
    <path pointer-events="none" fill="none" stroke="white" stroke-width="1.5" d="M0,-3.0v7 M-2.5,-0.5L0,-3.0L2.5,-0.5"/>
  </g>
  <g id="arrowDown" transform="rotate(180) translate(-30 -48)">
    <use xlink:href="#rim"/>
    <path pointer-events="none" fill="none" stroke="white" stroke-width="1.5" d="M0,-3.0v7 M-2.5,-0.5L0,-3.0L2.5,-0.5"/>
  </g>
  <g id="arrowLeft" transform="rotate(270) translate(-36 17)">
    <use xlink:href="#rim"/>
    <path pointer-events="none" fill="none" stroke="white" stroke-width="1.5" d="M0,-3.0v7 M-2.5,-0.5L0,-3.0L2.5,-0.5"/>
  </g>
  <g id="resetDef">
    <use xlink:href="#rim2" fill="#404040"><set attributeName="fill" to="#808080" begin="reset.mouseover" end="reset.mouseout"/></use>
  </g>
</defs>
<script type="application/ecmascript">
var viewWidth = 850;
var viewHeight = 555;
var sectionId = 'dynsection-0';
</script>
<script type="application/ecmascript" xlink:href="../../svg.min.js"/>
<svg id="graph" class="graph">
<g id="viewport">
<title>mal_math::vec&lt; 4, T &gt;</title>
<!-- Node1 -->
<g id="Node000001" class="node">
<title>Node1</title>
<g id="a_Node000001"><a xlink:title="Represents a 4D vector of a given primitive type.">
<polygon fill="#999999" stroke="#666666" points="842.3,-356.64 736.3,-356.64 736.3,-337.39 842.3,-337.39 842.3,-356.64"/>
<text text-anchor="middle" x="789.3" y="-343.14" font-family="Times,serif" font-size="10.00">mal_math::vec&lt; 4, T &gt;</text>
</a>
</g>
</g>
<!-- Node1&#45;&gt;Node1 -->
<g id="edge22_Node000001_Node000001" class="edge">
<title>Node1&#45;&gt;Node1</title>
<g id="a_edge22_Node000001_Node000001"><a xlink:title=" ">
<path fill="none" stroke="#9a32cd" stroke-dasharray="5,2" d="M775.3,-368.05C777.05,-371.92 781.72,-374.64 789.3,-374.64 803.16,-374.64 807.28,-365.54 801.65,-356.93"/>
<polygon fill="#9a32cd" stroke="#9a32cd" points="778.72,-368.84 776.73,-358.43 771.8,-367.81 778.72,-368.84"/>
</a>
</g>
<text text-anchor="middle" x="789.3" y="-376.39" font-family="Times,serif" font-size="10.00" fill="grey"> @67</text>
</g>
<!-- Node2 -->
<g id="Node000002" class="node">
<title>Node2</title>
<g id="a_Node000002"><a xlink:title=" ">
<polygon fill="white" stroke="#666666" points="361.55,-357.64 257.8,-357.64 257.8,-338.39 361.55,-338.39 361.55,-357.64"/>
<text text-anchor="middle" x="309.67" y="-344.14" font-family="Times,serif" font-size="10.00">static constexpr size_t</text>
</a>
</g>
</g>
<!-- Node2&#45;&gt;Node1 -->
<g id="edge1_Node000001_Node000002" class="edge">
<title>Node2&#45;&gt;Node1</title>
<g id="a_edge1_Node000001_Node000002"><a xlink:title=" ">
<path fill="none" stroke="#9a32cd" stroke-dasharray="5,2" d="M373.24,-347.89C468.35,-347.69 647.57,-347.31 736.11,-347.13"/>
<polygon fill="#9a32cd" stroke="#9a32cd" points="373.3,-344.39 363.3,-347.91 373.31,-351.39 373.3,-344.39"/>
</a>
</g>
<text text-anchor="middle" x="550.8" y="-348.77" font-family="Times,serif" font-size="10.00" fill="grey"> size</text>
</g>
<!-- Node6 -->
<g id="Node000006" class="node">
<title>Node6</title>
<g id="a_Node000006"><a xlink:href="../../dc/d19/structmal__math_1_1vec_3_013_00_01_t_01_4.html" target="_top" xlink:title="Represents a 3D vector of a given primitive type.">
<polygon fill="white" stroke="#666666" points="684.55,-258.64 578.55,-258.64 578.55,-239.39 684.55,-239.39 684.55,-258.64"/>
<text text-anchor="middle" x="631.55" y="-245.14" font-family="Times,serif" font-size="10.00">mal_math::vec&lt; 3, T &gt;</text>
</a>
</g>
</g>
<!-- Node2&#45;&gt;Node6 -->
<g id="edge8_Node000006_Node000002" class="edge">
<title>Node2&#45;&gt;Node6</title>
<g id="a_edge8_Node000006_Node000002"><a xlink:title=" ">
<path fill="none" stroke="#9a32cd" stroke-dasharray="5,2" d="M353.78,-334.68C418.67,-314.6 540.01,-277.04 598.03,-259.08"/>
<polygon fill="#9a32cd" stroke="#9a32cd" points="353.07,-331.23 344.55,-337.53 355.14,-337.92 353.07,-331.23"/>
</a>
</g>
<text text-anchor="middle" x="470.05" y="-315.77" font-family="Times,serif" font-size="10.00" fill="grey"> size</text>
</g>
<!-- Node8 -->
<g id="Node000008" class="node">
<title>Node8</title>
<g id="a_Node000008"><a xlink:href="../../d2/d70/structmal__math_1_1vec_3_012_00_01_t_01_4.html" target="_top" xlink:title="2D vector template class.">
<polygon fill="white" stroke="#666666" points="523.05,-103.64 417.05,-103.64 417.05,-84.39 523.05,-84.39 523.05,-103.64"/>
<text text-anchor="middle" x="470.05" y="-90.14" font-family="Times,serif" font-size="10.00">mal_math::vec&lt; 2, T &gt;</text>
</a>
</g>
</g>
<!-- Node2&#45;&gt;Node8 -->
<g id="edge14_Node000008_Node000002" class="edge">
<title>Node2&#45;&gt;Node8</title>
<g id="a_edge14_Node000008_Node000002"><a xlink:title=" ">
<path fill="none" stroke="#9a32cd" stroke-dasharray="5,2" d="M360,-331.45C360.53,-330.99 361.05,-330.51 361.55,-330.02 377.63,-314.32 370.73,-303.44 379.55,-282.77 409.16,-213.39 449.74,-132.15 463.91,-104.12"/>
<polygon fill="#9a32cd" stroke="#9a32cd" points="358.05,-328.55 351.74,-337.05 361.98,-334.34 358.05,-328.55"/>
</a>
</g>
<text text-anchor="middle" x="389.3" y="-283.77" font-family="Times,serif" font-size="10.00" fill="grey"> size</text>
</g>
<!-- Node3 -->
<g id="Node000003" class="node">
<title>Node3</title>
<g id="a_Node000003"><a xlink:title=" ">
<polygon fill="white" stroke="#666666" points="28.8,-260.64 0,-260.64 0,-241.39 28.8,-241.39 28.8,-260.64"/>
<text text-anchor="middle" x="14.4" y="-247.14" font-family="Times,serif" font-size="10.00">T</text>
</a>
</g>
</g>
<!-- Node3&#45;&gt;Node1 -->
<g id="edge2_Node000001_Node000003" class="edge">
<title>Node3&#45;&gt;Node1</title>
<g id="a_edge2_Node000001_Node000003"><a xlink:title=" ">
<path fill="none" stroke="#9a32cd" stroke-dasharray="5,2" d="M19.9,-272.01C31.09,-317.88 64.74,-423.02 138.17,-423.02 138.17,-423.02 138.17,-423.02 632.55,-423.02 692.12,-423.02 752.71,-377.56 777.11,-356.96"/>
<polygon fill="#9a32cd" stroke="#9a32cd" points="23.36,-271.45 17.71,-262.49 16.54,-273.02 23.36,-271.45"/>
</a>
</g>
<text text-anchor="middle" x="389.3" y="-537.27" font-family="Times,serif" font-size="10.00" fill="grey"> a</text>
<text text-anchor="middle" x="389.3" y="-526.02" font-family="Times,serif" font-size="10.00" fill="grey">b</text>
<text text-anchor="middle" x="389.3" y="-514.77" font-family="Times,serif" font-size="10.00" fill="grey">g</text>
<text text-anchor="middle" x="389.3" y="-503.52" font-family="Times,serif" font-size="10.00" fill="grey">p</text>
<text text-anchor="middle" x="389.3" y="-492.27" font-family="Times,serif" font-size="10.00" fill="grey">q</text>
<text text-anchor="middle" x="389.3" y="-481.02" font-family="Times,serif" font-size="10.00" fill="grey">r</text>
<text text-anchor="middle" x="389.3" y="-469.77" font-family="Times,serif" font-size="10.00" fill="grey">s</text>
<text text-anchor="middle" x="389.3" y="-458.52" font-family="Times,serif" font-size="10.00" fill="grey">t</text>
<text text-anchor="middle" x="389.3" y="-447.27" font-family="Times,serif" font-size="10.00" fill="grey">w</text>
<text text-anchor="middle" x="389.3" y="-436.02" font-family="Times,serif" font-size="10.00" fill="grey">x</text>
<text text-anchor="middle" x="389.3" y="-424.77" font-family="Times,serif" font-size="10.00" fill="grey">...</text>
</g>
<!-- Node4 -->
<g id="Node000004" class="node">
<title>Node4</title>
<g id="a_Node000004"><a xlink:title=" ">
<polygon fill="white" stroke="#666666" points="357.42,-394.64 261.92,-394.64 261.92,-375.39 357.42,-375.39 357.42,-394.64"/>
<text text-anchor="middle" x="309.67" y="-381.14" font-family="Times,serif" font-size="10.00">std::array&lt; T, size &gt;</text>
</a>
</g>
</g>
<!-- Node3&#45;&gt;Node4 -->
<g id="edge4_Node000004_Node000003" class="edge">
<title>Node3&#45;&gt;Node4</title>
<g id="a_edge4_Node000004_Node000003"><a xlink:title=" ">
<path fill="none" stroke="#9a32cd" stroke-dasharray="5,2" d="M30.18,-269.57C35.08,-274.99 40.83,-280.63 46.8,-285.02 113.05,-333.76 205.96,-361.73 261.45,-375.11"/>
<polygon fill="#9a32cd" stroke="#9a32cd" points="32.94,-267.42 23.8,-262.06 27.61,-271.95 32.94,-267.42"/>
</a>
</g>
<text text-anchor="middle" x="139.17" y="-350.77" font-family="Times,serif" font-size="10.00" fill="grey"> elements</text>
</g>
<!-- Node5 -->
<g id="Node000005" class="node">
<title>Node5</title>
<g id="a_Node000005"><a xlink:title=" ">
<polygon fill="white" stroke="#666666" points="176.8,-260.64 101.55,-260.64 101.55,-241.39 176.8,-241.39 176.8,-260.64"/>
<text text-anchor="middle" x="139.17" y="-247.14" font-family="Times,serif" font-size="10.00">std::array&lt; T &gt;</text>
</a>
</g>
</g>
<!-- Node3&#45;&gt;Node5 -->
<g id="edge6_Node000005_Node000003" class="edge">
<title>Node3&#45;&gt;Node5</title>
<g id="a_edge6_Node000005_Node000003"><a xlink:title=" ">
<path fill="none" stroke="#9a32cd" stroke-dasharray="5,2" d="M40.51,-251.02C58,-251.02 81.6,-251.02 101.22,-251.02"/>
<polygon fill="#9a32cd" stroke="#9a32cd" points="40.52,-247.52 30.52,-251.02 40.52,-254.52 40.52,-247.52"/>
</a>
</g>
<text text-anchor="middle" x="65.17" y="-252.77" font-family="Times,serif" font-size="10.00" fill="grey"> elements</text>
</g>
<!-- Node3&#45;&gt;Node6 -->
<g id="edge9_Node000006_Node000003" class="edge">
<title>Node3&#45;&gt;Node6</title>
<g id="a_edge9_Node000006_Node000003"><a xlink:title=" ">
<path fill="none" stroke="#9a32cd" stroke-dasharray="5,2" d="M38.74,-235.78C71.89,-215 135.23,-178.5 194.8,-162.02 362.05,-115.76 413.34,-180.93 578.55,-234.02 583.74,-235.69 589.24,-237.37 594.66,-238.97"/>
<polygon fill="#9a32cd" stroke="#9a32cd" points="36.91,-232.79 30.35,-241.11 40.67,-238.7 36.91,-232.79"/>
</a>
</g>
<text text-anchor="middle" x="309.67" y="-279.52" font-family="Times,serif" font-size="10.00" fill="grey"> b</text>
<text text-anchor="middle" x="309.67" y="-268.27" font-family="Times,serif" font-size="10.00" fill="grey">g</text>
<text text-anchor="middle" x="309.67" y="-257.02" font-family="Times,serif" font-size="10.00" fill="grey">p</text>
<text text-anchor="middle" x="309.67" y="-245.77" font-family="Times,serif" font-size="10.00" fill="grey">r</text>
<text text-anchor="middle" x="309.67" y="-234.52" font-family="Times,serif" font-size="10.00" fill="grey">s</text>
<text text-anchor="middle" x="309.67" y="-223.27" font-family="Times,serif" font-size="10.00" fill="grey">t</text>
<text text-anchor="middle" x="309.67" y="-212.02" font-family="Times,serif" font-size="10.00" fill="grey">x</text>
<text text-anchor="start" x="283.05" y="-200.77" font-family="Times,serif" font-size="10.00" fill="grey">x_anonymous</text>
<text text-anchor="middle" x="309.67" y="-189.52" font-family="Times,serif" font-size="10.00" fill="grey">_padding_</text>
<text text-anchor="middle" x="309.67" y="-178.27" font-family="Times,serif" font-size="10.00" fill="grey">y</text>
<text text-anchor="middle" x="309.67" y="-167.02" font-family="Times,serif" font-size="10.00" fill="grey">z</text>
<text text-anchor="middle" x="309.67" y="-155.77" font-family="Times,serif" font-size="10.00" fill="grey">...</text>
</g>
<!-- Node7 -->
<g id="Node000007" class="node">
<title>Node7</title>
<g id="a_Node000007"><a xlink:title=" ">
<polygon fill="white" stroke="#666666" points="352.17,-320.64 267.17,-320.64 267.17,-301.39 352.17,-301.39 352.17,-320.64"/>
<text text-anchor="middle" x="309.67" y="-307.14" font-family="Times,serif" font-size="10.00">std::array&lt; T, 3 &gt;</text>
</a>
</g>
</g>
<!-- Node3&#45;&gt;Node7 -->
<g id="edge11_Node000007_Node000003" class="edge">
<title>Node3&#45;&gt;Node7</title>
<g id="a_edge11_Node000007_Node000003"><a xlink:title=" ">
<path fill="none" stroke="#9a32cd" stroke-dasharray="5,2" d="M39.46,-263.22C41.91,-264.25 44.38,-265.2 46.8,-266.02 121.96,-291.44 214.34,-303.01 266.87,-307.87"/>
<polygon fill="#9a32cd" stroke="#9a32cd" points="41.09,-260.12 30.54,-259.11 38.16,-266.47 41.09,-260.12"/>
</a>
</g>
<text text-anchor="middle" x="139.17" y="-297.77" font-family="Times,serif" font-size="10.00" fill="grey"> elements</text>
</g>
<!-- Node3&#45;&gt;Node8 -->
<g id="edge15_Node000008_Node000003" class="edge">
<title>Node3&#45;&gt;Node8</title>
<g id="a_edge15_Node000008_Node000003"><a xlink:title=" ">
<path fill="none" stroke="#9a32cd" stroke-dasharray="5,2" d="M15.71,-229.74C17.08,-201.14 23,-149.78 46.8,-114.02 91.63,-46.67 117.77,-32.76 194.8,-8.02 295.04,24.18 416.35,-55.12 455.9,-84"/>
<polygon fill="#9a32cd" stroke="#9a32cd" points="12.22,-229.52 15.4,-239.62 19.21,-229.74 12.22,-229.52"/>
</a>
</g>
<text text-anchor="middle" x="217.3" y="-88.52" font-family="Times,serif" font-size="10.00" fill="grey"> g</text>
<text text-anchor="middle" x="217.3" y="-77.27" font-family="Times,serif" font-size="10.00" fill="grey">r</text>
<text text-anchor="middle" x="217.3" y="-66.02" font-family="Times,serif" font-size="10.00" fill="grey">s</text>
<text text-anchor="middle" x="217.3" y="-54.77" font-family="Times,serif" font-size="10.00" fill="grey">t</text>
<text text-anchor="middle" x="217.3" y="-43.52" font-family="Times,serif" font-size="10.00" fill="grey">u</text>
<text text-anchor="middle" x="217.3" y="-32.27" font-family="Times,serif" font-size="10.00" fill="grey">v</text>
<text text-anchor="middle" x="217.3" y="-21.02" font-family="Times,serif" font-size="10.00" fill="grey">x</text>
<text text-anchor="middle" x="217.3" y="-9.77" font-family="Times,serif" font-size="10.00" fill="grey">y</text>
</g>
<!-- Node9 -->
<g id="Node000009" class="node">
<title>Node9</title>
<g id="a_Node000009"><a xlink:title=" ">
<polygon fill="white" stroke="#666666" points="352.17,-111.64 267.17,-111.64 267.17,-92.39 352.17,-92.39 352.17,-111.64"/>
<text text-anchor="middle" x="309.67" y="-98.14" font-family="Times,serif" font-size="10.00">std::array&lt; T, 2 &gt;</text>
</a>
</g>
</g>
<!-- Node3&#45;&gt;Node9 -->
<g id="edge17_Node000009_Node000003" class="edge">
<title>Node3&#45;&gt;Node9</title>
<g id="a_edge17_Node000009_Node000003"><a xlink:title=" ">
<path fill="none" stroke="#9a32cd" stroke-dasharray="5,2" d="M14.81,-229.84C15.3,-203.49 20.36,-158.93 46.8,-134.02 77.68,-104.93 201,-101.18 266.8,-101.33"/>
<polygon fill="#9a32cd" stroke="#9a32cd" points="11.31,-229.66 14.86,-239.64 18.31,-229.62 11.31,-229.66"/>
</a>
</g>
<text text-anchor="middle" x="139.17" y="-114.77" font-family="Times,serif" font-size="10.00" fill="grey"> elements</text>
</g>
<!-- Node4&#45;&gt;Node1 -->
<g id="edge3_Node000001_Node000004" class="edge">
<title>Node4&#45;&gt;Node1</title>
<g id="a_edge3_Node000001_Node000004"><a xlink:title=" ">
<path fill="none" stroke="#9a32cd" stroke-dasharray="5,2" d="M368.84,-384.13C448.14,-382.33 594.49,-376.97 718.3,-361.02 726.17,-360.01 734.48,-358.62 742.51,-357.12"/>
<polygon fill="#9a32cd" stroke="#9a32cd" points="369.07,-380.62 359.15,-384.33 369.22,-387.62 369.07,-380.62"/>
</a>
</g>
<text text-anchor="middle" x="550.8" y="-377.77" font-family="Times,serif" font-size="10.00" fill="grey"> data</text>
</g>
<!-- Node5&#45;&gt;Node4 -->
<g id="edge5_Node000004_Node000005" class="edge">
<title>Node5&#45;&gt;Node4</title>
<g id="a_edge5_Node000004_Node000005"><a xlink:title=" ">
<path fill="none" stroke="orange" stroke-dasharray="5,2" d="M159.81,-268.53C180.34,-287.12 213.23,-317.62 239.8,-345.77 248.3,-354.77 247.61,-359.99 257.8,-367.02 262.27,-370.11 267.33,-372.72 272.48,-374.91"/>
<polygon fill="orange" stroke="orange" points="162.21,-265.98 152.43,-261.9 157.53,-271.19 162.21,-265.98"/>
</a>
</g>
<text text-anchor="middle" x="217.3" y="-346.77" font-family="Times,serif" font-size="10.00" fill="grey"> &lt; T, size &gt;</text>
</g>
<!-- Node5&#45;&gt;Node7 -->
<g id="edge12_Node000007_Node000005" class="edge">
<title>Node5&#45;&gt;Node7</title>
<g id="a_edge12_Node000007_Node000005"><a xlink:title=" ">
<path fill="none" stroke="orange" stroke-dasharray="5,2" d="M188.38,-241.46C205.72,-240.48 224.71,-242.45 239.8,-251.77 254.77,-261.01 245.17,-274.78 257.8,-287.02 263.76,-292.8 271.37,-297.38 278.88,-300.93"/>
<polygon fill="orange" stroke="orange" points="188.43,-237.94 178.79,-242.35 189.07,-244.91 188.43,-237.94"/>
</a>
</g>
<text text-anchor="middle" x="217.3" y="-252.77" font-family="Times,serif" font-size="10.00" fill="grey"> &lt; T, 3 &gt;</text>
</g>
<!-- Node5&#45;&gt;Node9 -->
<g id="edge18_Node000009_Node000005" class="edge">
<title>Node5&#45;&gt;Node9</title>
<g id="a_edge18_Node000009_Node000005"><a xlink:title=" ">
<path fill="none" stroke="orange" stroke-dasharray="5,2" d="M154.25,-232.06C174.68,-205.57 214.83,-157.24 257.8,-126.02 265.31,-120.57 274.25,-115.86 282.52,-112.09"/>
<polygon fill="orange" stroke="orange" points="151.59,-229.78 148.33,-239.86 157.17,-234.01 151.59,-229.78"/>
</a>
</g>
<text text-anchor="middle" x="217.3" y="-184.77" font-family="Times,serif" font-size="10.00" fill="grey"> &lt; T, 2 &gt;</text>
</g>
<!-- Node6&#45;&gt;Node1 -->
<g id="edge7_Node000001_Node000006" class="edge">
<title>Node6&#45;&gt;Node1</title>
<g id="a_edge7_Node000001_Node000006"><a xlink:title=" ">
<path fill="none" stroke="#9a32cd" stroke-dasharray="5,2" d="M658.33,-265.24C690.83,-285.69 745.69,-320.21 772.54,-337.1"/>
<polygon fill="#9a32cd" stroke="#9a32cd" points="660.24,-262.31 649.91,-259.94 656.51,-268.23 660.24,-262.31"/>
</a>
</g>
<text text-anchor="middle" x="710.42" y="-301.77" font-family="Times,serif" font-size="10.00" fill="grey"> xyz</text>
</g>
<!-- Node6&#45;&gt;Node6 -->
<g id="edge20_Node000006_Node000006" class="edge">
<title>Node6&#45;&gt;Node6</title>
<g id="a_edge20_Node000006_Node000006"><a xlink:title=" ">
<path fill="none" stroke="#9a32cd" stroke-dasharray="5,2" d="M617.55,-270.05C619.3,-273.92 623.97,-276.64 631.55,-276.64 645.41,-276.64 649.53,-267.54 643.9,-258.93"/>
<polygon fill="#9a32cd" stroke="#9a32cd" points="620.97,-270.84 618.98,-260.43 614.05,-269.81 620.97,-270.84"/>
</a>
</g>
<text text-anchor="middle" x="631.55" y="-278.39" font-family="Times,serif" font-size="10.00" fill="grey"> @55</text>
</g>
<!-- Node7&#45;&gt;Node6 -->
<g id="edge10_Node000006_Node000007" class="edge">
<title>Node7&#45;&gt;Node6</title>
<g id="a_edge10_Node000006_Node000007"><a xlink:title=" ">
<path fill="none" stroke="#9a32cd" stroke-dasharray="5,2" d="M348.45,-295.79C353.07,-293.19 357.57,-290.27 361.55,-287.02 371.88,-278.59 367.8,-269.31 379.55,-263.02 441.5,-229.86 524.8,-232.87 578.1,-239.67"/>
<polygon fill="#9a32cd" stroke="#9a32cd" points="346.94,-292.63 339.6,-300.28 350.1,-298.88 346.94,-292.63"/>
</a>
</g>
<text text-anchor="middle" x="470.05" y="-248.77" font-family="Times,serif" font-size="10.00" fill="grey"> data</text>
</g>
<!-- Node8&#45;&gt;Node1 -->
<g id="edge21_Node000001_Node000008" class="edge">
<title>Node8&#45;&gt;Node1</title>
<g id="a_edge21_Node000001_Node000008"><a xlink:title=" ">
<path fill="none" stroke="#9a32cd" stroke-dasharray="5,2" d="M534.66,-101.57C543.5,-103.51 552.35,-105.95 560.55,-109.02 621.09,-131.67 638.39,-139.77 684.55,-185.02 734.15,-233.65 771.64,-310.2 783.96,-337.2"/>
<polygon fill="#9a32cd" stroke="#9a32cd" points="535.5,-98.17 525.01,-99.66 534.14,-105.03 535.5,-98.17"/>
</a>
</g>
<text text-anchor="middle" x="631.55" y="-220.52" font-family="Times,serif" font-size="10.00" fill="grey"> xy</text>
<text text-anchor="middle" x="631.55" y="-209.27" font-family="Times,serif" font-size="10.00" fill="grey">yz</text>
<text text-anchor="middle" x="631.55" y="-198.02" font-family="Times,serif" font-size="10.00" fill="grey">yzw</text>
<text text-anchor="middle" x="631.55" y="-186.77" font-family="Times,serif" font-size="10.00" fill="grey">zw</text>
</g>
<!-- Node8&#45;&gt;Node6 -->
<g id="edge13_Node000006_Node000008" class="edge">
<title>Node8&#45;&gt;Node6</title>
<g id="a_edge13_Node000006_Node000008"><a xlink:title=" ">
<path fill="none" stroke="#9a32cd" stroke-dasharray="5,2" d="M531.98,-108.03C542.22,-112.2 552.21,-117.59 560.55,-124.52 599.07,-156.54 620.38,-215.54 627.66,-239.01"/>
<polygon fill="#9a32cd" stroke="#9a32cd" points="533.29,-104.78 522.7,-104.62 530.88,-111.35 533.29,-104.78"/>
</a>
</g>
<text text-anchor="middle" x="550.8" y="-138.02" font-family="Times,serif" font-size="10.00" fill="grey"> xy</text>
<text text-anchor="middle" x="550.8" y="-126.77" font-family="Times,serif" font-size="10.00" fill="grey">yz</text>
</g>
<!-- Node8&#45;&gt;Node8 -->
<g id="edge19_Node000008_Node000008" class="edge">
<title>Node8&#45;&gt;Node8</title>
<g id="a_edge19_Node000008_Node000008"><a xlink:title=" ">
<path fill="none" stroke="#9a32cd" stroke-dasharray="5,2" d="M455.72,-115.05C457.51,-118.92 462.29,-121.64 470.05,-121.64 484.24,-121.64 488.46,-112.54 482.69,-103.93"/>
<polygon fill="#9a32cd" stroke="#9a32cd" points="459.14,-115.84 457.18,-105.43 452.22,-114.79 459.14,-115.84"/>
</a>
</g>
<text text-anchor="middle" x="470.05" y="-123.39" font-family="Times,serif" font-size="10.00" fill="grey"> @47</text>
</g>
<!-- Node9&#45;&gt;Node8 -->
<g id="edge16_Node000008_Node000009" class="edge">
<title>Node9&#45;&gt;Node8</title>
<g id="a_edge16_Node000008_Node000009"><a xlink:title=" ">
<path fill="none" stroke="#9a32cd" stroke-dasharray="5,2" d="M363.75,-99.34C380.8,-98.48 399.66,-97.52 416.65,-96.67"/>
<polygon fill="#9a32cd" stroke="#9a32cd" points="363.61,-95.84 353.8,-99.84 363.96,-102.83 363.61,-95.84"/>
</a>
</g>
<text text-anchor="middle" x="389.3" y="-100.77" font-family="Times,serif" font-size="10.00" fill="grey"> data</text>
</g>
</g>
</svg>

<g id="navigator" transform="translate(0 0)" fill="#404254">
  <rect fill="#f2f5e9" fill-opacity="0.5" stroke="#606060" stroke-width=".5" x="0" y="0" width="60" height="60"/>
  <use id="zoomplus" xlink:href="#zoomPlus" x="17" y="9" onmousedown="handleZoom(evt,'in')"/>
  <use id="zoomminus" xlink:href="#zoomMin" x="42" y="9" onmousedown="handleZoom(evt,'out')"/>
  <use id="reset" xlink:href="#resetDef" x="30" y="36" onmousedown="handleReset()"/>
   <use id="arrowup" xlink:href="#arrowUp" x="0" y="0" onmousedown="handlePan(0,-1)"/>
  <use id="arrowright" xlink:href="#arrowRight" x="0" y="0" onmousedown="handlePan(1,0)"/>
  <use id="arrowdown" xlink:href="#arrowDown" x="0" y="0" onmousedown="handlePan(0,1)"/>
  <use id="arrowleft" xlink:href="#arrowLeft" x="0" y="0" onmousedown="handlePan(-1,0)"/>
</g>
<svg viewBox="0 0 15 15" width="100%" height="30px" preserveAspectRatio="xMaxYMin meet">
 <g id="arrow_out" transform="scale(0.3 0.3)">
  <a xlink:href="structmal__math_1_1vec_3_014_00_01_t_01_4__coll__graph_org.svg" target="_base">
   <rect id="button" ry="5" rx="5" y="6" x="6" height="38" width="38"
        fill="#f2f5e9" fill-opacity="0.5" stroke="#606060" stroke-width="1.0"/>
   <path id="arrow"
     d="M 11.500037,31.436501 C 11.940474,20.09759 22.043105,11.32322 32.158766,21.979434 L 37.068811,17.246167 C 37.068811,17.246167 37.088388,32 37.088388,32 L 22.160133,31.978069 C 22.160133,31.978069 26.997745,27.140456 26.997745,27.140456 C 18.528582,18.264221 13.291696,25.230495 11.500037,31.436501 z"
     style="fill:#404040;"/>
  </a>
 </g>
</svg>

<style type='text/css'>
<![CDATA[
[data-mouse-over-selected='false'] { opacity: 0.7; }
[data-mouse-over-selected='true']  { opacity: 1.0; }
]]>
</style>
<script type="application/ecmascript"><![CDATA[
document.addEventListener('DOMContentLoaded', (event) => {
  highlightEdges();
  highlightAdjacentNodes();
});
]]></script>
</svg>
