<?xml version="1.0" encoding="UTF-8" standalone="no"?>
<!DOCTYPE svg PUBLIC "-//W3C//DTD SVG 1.1//EN"
 "http://www.w3.org/Graphics/SVG/1.1/DTD/svg11.dtd">
<!-- Generated by graphviz version 9.0.0 (20230911.1827)
 -->
<!-- Title: include/math/plane.hpp Pages: 1 -->
<svg width="700pt" height="193pt"
 viewBox="0.00 0.00 699.75 193.00" xmlns="http://www.w3.org/2000/svg" xmlns:xlink="http://www.w3.org/1999/xlink">
<g id="graph0" class="graph" transform="scale(1 1) rotate(0) translate(4 189)">
<title>include/math/plane.hpp</title>
<!-- Node1 -->
<g id="Node000001" class="node">
<title>Node1</title>
<g id="a_Node000001"><a xlink:title="Provides the definition of the Plane structure and its associated operations.">
<polygon fill="#999999" stroke="#666666" points="391.25,-185 280.75,-185 280.75,-165.75 391.25,-165.75 391.25,-185"/>
<text text-anchor="middle" x="336" y="-171.5" font-family="Times,serif" font-size="10.00">include/math/plane.hpp</text>
</a>
</g>
</g>
<!-- Node2 -->
<g id="Node000002" class="node">
<title>Node2</title>
<g id="a_Node000002"><a xlink:href="../../d4/d78/math_8hpp.html" target="_top" xlink:title="Provides various mathematical utilities, vector operations, and custom hash specializations.">
<polygon fill="white" stroke="#666666" points="379.25,-129.75 292.75,-129.75 292.75,-110.5 379.25,-110.5 379.25,-129.75"/>
<text text-anchor="middle" x="336" y="-116.25" font-family="Times,serif" font-size="10.00">include/math.hpp</text>
</a>
</g>
</g>
<!-- Node1&#45;&gt;Node2 -->
<g id="edge1_Node000001_Node000002" class="edge">
<title>Node1&#45;&gt;Node2</title>
<g id="a_edge1_Node000001_Node000002"><a xlink:title=" ">
<path fill="none" stroke="#63b8ff" d="M336,-154.13C336,-145.84 336,-136.67 336,-130.11"/>
<polygon fill="#63b8ff" stroke="#63b8ff" points="332.5,-154.07 336,-164.07 339.5,-154.07 332.5,-154.07"/>
</a>
</g>
</g>
<!-- Node3 -->
<g id="Node000003" class="node">
<title>Node3</title>
<g id="a_Node000003"><a xlink:href="../../d7/de4/box_8hpp.html" target="_top" xlink:title="Defines a templated bounding box class for 3D primitives.">
<polygon fill="white" stroke="#666666" points="257.88,-74.5 154.12,-74.5 154.12,-55.25 257.88,-55.25 257.88,-74.5"/>
<text text-anchor="middle" x="206" y="-61" font-family="Times,serif" font-size="10.00">include/math/box.hpp</text>
</a>
</g>
</g>
<!-- Node2&#45;&gt;Node3 -->
<g id="edge2_Node000002_Node000003" class="edge">
<title>Node2&#45;&gt;Node3</title>
<g id="a_edge2_Node000002_Node000003"><a xlink:title=" ">
<path fill="none" stroke="#63b8ff" d="M298.16,-106.04C273.27,-96.39 242.02,-83.5 222.93,-74.95"/>
<polygon fill="#63b8ff" stroke="#63b8ff" points="296.73,-109.24 307.32,-109.55 299.23,-102.71 296.73,-109.24"/>
</a>
</g>
</g>
<!-- Node4 -->
<g id="Node000004" class="node">
<title>Node4</title>
<g id="a_Node000004"><a xlink:href="../../d6/d02/intersection_8hpp.html" target="_top" xlink:title="Provides functionalities to represent and handle intersections in 3D space.">
<polygon fill="white" stroke="#666666" points="136,-74.5 0,-74.5 0,-55.25 136,-55.25 136,-74.5"/>
<text text-anchor="middle" x="68" y="-61" font-family="Times,serif" font-size="10.00">include/math/intersection.hpp</text>
</a>
</g>
</g>
<!-- Node2&#45;&gt;Node4 -->
<g id="edge4_Node000002_Node000004" class="edge">
<title>Node2&#45;&gt;Node4</title>
<g id="a_edge4_Node000002_Node000004"><a xlink:title=" ">
<path fill="none" stroke="#63b8ff" d="M281.21,-109.31C229.96,-99.5 154.73,-84.54 108.63,-74.99"/>
<polygon fill="#63b8ff" stroke="#63b8ff" points="280.44,-112.72 290.92,-111.16 281.75,-105.85 280.44,-112.72"/>
</a>
</g>
</g>
<!-- Node5 -->
<g id="Node000005" class="node">
<title>Node5</title>
<g id="a_Node000005"><a xlink:href="../../d1/df2/random_8hpp.html" target="_top" xlink:title="Provides functionality for random number generation and manipulation in vector spaces.">
<polygon fill="white" stroke="#666666" points="395.75,-74.5 276.25,-74.5 276.25,-55.25 395.75,-55.25 395.75,-74.5"/>
<text text-anchor="middle" x="336" y="-61" font-family="Times,serif" font-size="10.00">include/math/random.hpp</text>
</a>
</g>
</g>
<!-- Node2&#45;&gt;Node5 -->
<g id="edge7_Node000002_Node000005" class="edge">
<title>Node2&#45;&gt;Node5</title>
<g id="a_edge7_Node000002_Node000005"><a xlink:title=" ">
<path fill="none" stroke="#63b8ff" d="M329.44,-99.17C328.95,-90.8 329.4,-81.5 330.79,-74.86"/>
<polygon fill="#63b8ff" stroke="#63b8ff" points="325.94,-99.34 330.65,-108.83 332.88,-98.47 325.94,-99.34"/>
</a>
</g>
</g>
<!-- Node6 -->
<g id="Node000006" class="node">
<title>Node6</title>
<g id="a_Node000006"><a xlink:href="../../db/d1d/ray_8hpp.html" target="_top" xlink:title="Contains the definition of the Ray class.">
<polygon fill="white" stroke="#666666" points="691.75,-74.5 590.25,-74.5 590.25,-55.25 691.75,-55.25 691.75,-74.5"/>
<text text-anchor="middle" x="641" y="-61" font-family="Times,serif" font-size="10.00">include/math/ray.hpp</text>
</a>
</g>
</g>
<!-- Node2&#45;&gt;Node6 -->
<g id="edge9_Node000002_Node000006" class="edge">
<title>Node2&#45;&gt;Node6</title>
<g id="a_edge9_Node000002_Node000006"><a xlink:title=" ">
<path fill="none" stroke="#63b8ff" d="M390.8,-108.6C447.39,-98.4 534.85,-83.16 590.01,-73.91"/>
<polygon fill="#63b8ff" stroke="#63b8ff" points="390.27,-105.14 381.05,-110.36 391.52,-112.02 390.27,-105.14"/>
</a>
</g>
</g>
<!-- Node8 -->
<g id="Node000008" class="node">
<title>Node8</title>
<g id="a_Node000008"><a xlink:href="../../d9/d6c/triangle_8hpp.html" target="_top" xlink:title="Defines the Triangle structure and methods for ray&#45;triangle intersection.">
<polygon fill="white" stroke="#666666" points="533.75,-74.5 414.25,-74.5 414.25,-55.25 533.75,-55.25 533.75,-74.5"/>
<text text-anchor="middle" x="474" y="-61" font-family="Times,serif" font-size="10.00">include/math/triangle.hpp</text>
</a>
</g>
</g>
<!-- Node2&#45;&gt;Node8 -->
<g id="edge14_Node000002_Node000008" class="edge">
<title>Node2&#45;&gt;Node8</title>
<g id="a_edge14_Node000002_Node000008"><a xlink:title=" ">
<path fill="none" stroke="#63b8ff" d="M364.64,-105.78C388.3,-96.16 421.55,-83.42 445.25,-74.95"/>
<polygon fill="#63b8ff" stroke="#63b8ff" points="363.5,-102.47 355.59,-109.51 366.17,-108.94 363.5,-102.47"/>
</a>
</g>
</g>
<!-- Node3&#45;&gt;Node2 -->
<g id="edge3_Node000003_Node000002" class="edge">
<title>Node3&#45;&gt;Node2</title>
<g id="a_edge3_Node000003_Node000002"><a xlink:title=" ">
<path fill="none" stroke="#63b8ff" d="M243.97,-79.01C268.88,-88.67 300.12,-101.56 319.16,-110.09"/>
<polygon fill="#63b8ff" stroke="#63b8ff" points="245.39,-75.8 234.8,-75.49 242.89,-82.34 245.39,-75.8"/>
</a>
</g>
</g>
<!-- Node4&#45;&gt;Node1 -->
<g id="edge6_Node000004_Node000001" class="edge">
<title>Node4&#45;&gt;Node1</title>
<g id="a_edge6_Node000004_Node000001"><a xlink:title=" ">
<path fill="none" stroke="#63b8ff" d="M101.14,-79.29C156.52,-101.71 266.42,-146.2 313.61,-165.31"/>
<polygon fill="#63b8ff" stroke="#63b8ff" points="102.5,-76.07 91.92,-75.56 99.87,-82.55 102.5,-76.07"/>
</a>
</g>
</g>
<!-- Node4&#45;&gt;Node2 -->
<g id="edge5_Node000004_Node000002" class="edge">
<title>Node4&#45;&gt;Node2</title>
<g id="a_edge5_Node000004_Node000002"><a xlink:title=" ">
<path fill="none" stroke="#63b8ff" d="M130,-77.08C180.92,-86.87 251.48,-100.92 295.46,-110.03"/>
<polygon fill="#63b8ff" stroke="#63b8ff" points="130.77,-73.66 120.29,-75.22 129.45,-80.54 130.77,-73.66"/>
</a>
</g>
</g>
<!-- Node5&#45;&gt;Node2 -->
<g id="edge8_Node000005_Node000002" class="edge">
<title>Node5&#45;&gt;Node2</title>
<g id="a_edge8_Node000005_Node000002"><a xlink:title=" ">
<path fill="none" stroke="#63b8ff" d="M342.57,-86.07C343.04,-94.46 342.58,-103.74 341.17,-110.33"/>
<polygon fill="#63b8ff" stroke="#63b8ff" points="346.07,-85.87 341.39,-76.36 339.12,-86.71 346.07,-85.87"/>
</a>
</g>
</g>
<!-- Node6&#45;&gt;Node1 -->
<g id="edge11_Node000006_Node000001" class="edge">
<title>Node6&#45;&gt;Node1</title>
<g id="a_edge11_Node000006_Node000001"><a xlink:title=" ">
<path fill="none" stroke="#63b8ff" d="M604.85,-78.74C542.35,-100.97 415.64,-146.04 361.48,-165.31"/>
<polygon fill="#63b8ff" stroke="#63b8ff" points="605.7,-82.15 613.95,-75.5 603.36,-75.55 605.7,-82.15"/>
</a>
</g>
</g>
<!-- Node6&#45;&gt;Node2 -->
<g id="edge10_Node000006_Node000002" class="edge">
<title>Node6&#45;&gt;Node2</title>
<g id="a_edge10_Node000006_Node000002"><a xlink:title=" ">
<path fill="none" stroke="#63b8ff" d="M582.96,-76.99C523.67,-87.65 433.09,-103.41 379.63,-112.33"/>
<polygon fill="#63b8ff" stroke="#63b8ff" points="583.3,-80.48 592.52,-75.26 582.06,-73.59 583.3,-80.48"/>
</a>
</g>
</g>
<!-- Node7 -->
<g id="Node000007" class="node">
<title>Node7</title>
<g id="a_Node000007"><a xlink:href="../../d0/da1/sphere_8hpp.html" target="_top" xlink:title="Defines the Sphere structure and its associated functionality.">
<polygon fill="white" stroke="#666666" points="658.88,-19.25 543.12,-19.25 543.12,0 658.88,0 658.88,-19.25"/>
<text text-anchor="middle" x="601" y="-5.75" font-family="Times,serif" font-size="10.00">include/math/sphere.hpp</text>
</a>
</g>
</g>
<!-- Node6&#45;&gt;Node7 -->
<g id="edge12_Node000006_Node000007" class="edge">
<title>Node6&#45;&gt;Node7</title>
<g id="a_edge12_Node000006_Node000007"><a xlink:title=" ">
<path fill="none" stroke="#63b8ff" d="M627.53,-45.94C620.88,-37.09 613.14,-26.79 607.75,-19.61"/>
<polygon fill="#63b8ff" stroke="#63b8ff" points="624.68,-47.98 633.49,-53.87 630.28,-43.77 624.68,-47.98"/>
</a>
</g>
</g>
<!-- Node7&#45;&gt;Node2 -->
<g id="edge13_Node000007_Node000002" class="edge">
<title>Node7&#45;&gt;Node2</title>
<g id="a_edge13_Node000007_Node000002"><a xlink:title=" ">
<path fill="none" stroke="#63b8ff" d="M589.31,-28.78C578.92,-43.41 562.4,-63.32 543,-74.5 491.88,-103.97 423.5,-114.03 379.59,-117.43"/>
<polygon fill="#63b8ff" stroke="#63b8ff" points="591.92,-31.17 594.63,-20.93 586.13,-27.24 591.92,-31.17"/>
</a>
</g>
</g>
<!-- Node8&#45;&gt;Node2 -->
<g id="edge15_Node000008_Node000002" class="edge">
<title>Node8&#45;&gt;Node2</title>
<g id="a_edge15_Node000008_Node000002"><a xlink:title=" ">
<path fill="none" stroke="#63b8ff" d="M445.24,-79.27C421.54,-88.9 388.3,-101.64 364.63,-110.09"/>
<polygon fill="#63b8ff" stroke="#63b8ff" points="446.39,-82.58 454.3,-75.53 443.72,-76.11 446.39,-82.58"/>
</a>
</g>
</g>
</g>
</svg>
