<?xml version="1.0" encoding="UTF-8" standalone="no"?>
<!DOCTYPE svg PUBLIC "-//W3C//DTD SVG 1.1//EN"
 "http://www.w3.org/Graphics/SVG/1.1/DTD/svg11.dtd">
<!-- Generated by graphviz version 9.0.0 (20230911.1827)
 -->
<!-- Title: include/math/matnxn.inl Pages: 1 -->
<!--zoomable 359 -->

<svg id="main" version="1.1" xmlns="http://www.w3.org/2000/svg" xmlns:xlink="http://www.w3.org/1999/xlink" xml:space="preserve" onload="init(evt)">
<style type="text/css"><![CDATA[
.node, .edge {opacity: 0.7;}
.node.selected, .edge.selected {opacity: 1;}
.edge:hover path { stroke: red; }
.edge:hover polygon { stroke: red; fill: red; }
]]></style>

<defs>
  <circle id="rim" cx="0" cy="0" r="7"/>
  <circle id="rim2" cx="0" cy="0" r="3.5"/>
  <g id="zoomPlus">
    <use xlink:href="#rim" fill="#404040"><set attributeName="fill" to="#808080" begin="zoomplus.mouseover" end="zoomplus.mouseout"/></use>
    <path d="M-4,0h8M0,-4v8" fill="none" stroke="white" stroke-width="1.5" pointer-events="none"/>
  </g>
  <g id="zoomMin">
    <use xlink:href="#rim" fill="#404040"><set attributeName="fill" to="#808080" begin="zoomminus.mouseover" end="zoomminus.mouseout"/></use>
    <path d="M-4,0h8" fill="none" stroke="white" stroke-width="1.5" pointer-events="none"/>
  </g>
  <g id="arrowUp" transform="translate(30 24)">
    <use xlink:href="#rim"/>
    <path pointer-events="none" fill="none" stroke="white" stroke-width="1.5" d="M0,-3.0v7 M-2.5,-0.5L0,-3.0L2.5,-0.5"/>
  </g>
  <g id="arrowRight" transform="rotate(90) translate(36 -43)">
    <use xlink:href="#rim"/>
    <path pointer-events="none" fill="none" stroke="white" stroke-width="1.5" d="M0,-3.0v7 M-2.5,-0.5L0,-3.0L2.5,-0.5"/>
  </g>
  <g id="arrowDown" transform="rotate(180) translate(-30 -48)">
    <use xlink:href="#rim"/>
    <path pointer-events="none" fill="none" stroke="white" stroke-width="1.5" d="M0,-3.0v7 M-2.5,-0.5L0,-3.0L2.5,-0.5"/>
  </g>
  <g id="arrowLeft" transform="rotate(270) translate(-36 17)">
    <use xlink:href="#rim"/>
    <path pointer-events="none" fill="none" stroke="white" stroke-width="1.5" d="M0,-3.0v7 M-2.5,-0.5L0,-3.0L2.5,-0.5"/>
  </g>
  <g id="resetDef">
    <use xlink:href="#rim2" fill="#404040"><set attributeName="fill" to="#808080" begin="reset.mouseover" end="reset.mouseout"/></use>
  </g>
</defs>
<script type="application/ecmascript">
var viewWidth = 1005;
var viewHeight = 359;
var sectionId = 'dynsection-0';
</script>
<script type="application/ecmascript" xlink:href="../../svg.min.js"/>
<svg id="graph" class="graph">
<g id="viewport">
<title>include/math/matnxn.inl</title>
<!-- Node1 -->
<g id="Node000001" class="node">
<title>Node1</title>
<g id="a_Node000001"><a xlink:title=" ">
<polygon fill="#999999" stroke="#666666" points="928.25,-350.75 814,-350.75 814,-331.5 928.25,-331.5 928.25,-350.75"/>
<text text-anchor="middle" x="871.12" y="-337.25" font-family="Times,serif" font-size="10.00">include/math/matnxn.inl</text>
</a>
</g>
</g>
<!-- Node2 -->
<g id="Node000002" class="node">
<title>Node2</title>
<g id="a_Node000002"><a xlink:href="../../dd/dad/matnxn_8hpp.html" target="_top" xlink:title="Provides the definition of a generic NxN matrix for mathematical operations.">
<polygon fill="white" stroke="#666666" points="903.12,-295.5 839.12,-295.5 839.12,-276.25 903.12,-276.25 903.12,-295.5"/>
<text text-anchor="middle" x="871.12" y="-282" font-family="Times,serif" font-size="10.00">matnxn.hpp</text>
</a>
</g>
</g>
<!-- Node1&#45;&gt;Node2 -->
<g id="edge1_Node000001_Node000002" class="edge">
<title>Node1&#45;&gt;Node2</title>
<g id="a_edge1_Node000001_Node000002"><a xlink:title=" ">
<path fill="none" stroke="#63b8ff" d="M865.96,-331.33C864.55,-324.74 864.08,-315.46 864.55,-307.07"/>
<polygon fill="#63b8ff" stroke="#63b8ff" points="868,-307.71 865.74,-297.36 861.05,-306.87 868,-307.71"/>
</a>
</g>
</g>
<!-- Node2&#45;&gt;Node1 -->
<g id="edge52_Node000002_Node000001" class="edge">
<title>Node2&#45;&gt;Node1</title>
<g id="a_edge52_Node000002_Node000001"><a xlink:title=" ">
<path fill="none" stroke="#63b8ff" d="M876.33,-295.86C877.72,-302.5 878.17,-311.8 877.68,-320.17"/>
<polygon fill="#63b8ff" stroke="#63b8ff" points="874.24,-319.47 876.48,-329.83 881.19,-320.34 874.24,-319.47"/>
</a>
</g>
</g>
<!-- Node3 -->
<g id="Node000003" class="node">
<title>Node3</title>
<g id="a_Node000003"><a xlink:href="../../dc/dc2/mat_8hpp.html" target="_top" xlink:title="Provides matrix definitions tailored for various sizes and primitive types.">
<polygon fill="white" stroke="#666666" points="895.62,-240.25 846.62,-240.25 846.62,-221 895.62,-221 895.62,-240.25"/>
<text text-anchor="middle" x="871.12" y="-226.75" font-family="Times,serif" font-size="10.00">mat.hpp</text>
</a>
</g>
</g>
<!-- Node2&#45;&gt;Node3 -->
<g id="edge2_Node000002_Node000003" class="edge">
<title>Node2&#45;&gt;Node3</title>
<g id="a_edge2_Node000002_Node000003"><a xlink:title=" ">
<path fill="none" stroke="#63b8ff" d="M865.96,-276.08C864.55,-269.49 864.08,-260.21 864.55,-251.82"/>
<polygon fill="#63b8ff" stroke="#63b8ff" points="868,-252.46 865.74,-242.11 861.05,-251.62 868,-252.46"/>
</a>
</g>
</g>
<!-- Node3&#45;&gt;Node2 -->
<g id="edge43_Node000003_Node000002" class="edge">
<title>Node3&#45;&gt;Node2</title>
<g id="a_edge43_Node000003_Node000002"><a xlink:title=" ">
<path fill="none" stroke="#63b8ff" d="M876.33,-240.61C877.72,-247.25 878.17,-256.55 877.68,-264.92"/>
<polygon fill="#63b8ff" stroke="#63b8ff" points="874.24,-264.22 876.48,-274.58 881.19,-265.09 874.24,-264.22"/>
</a>
</g>
</g>
<!-- Node4 -->
<g id="Node000004" class="node">
<title>Node4</title>
<g id="a_Node000004"><a xlink:href="../../df/dc2/vec__math_8hpp.html" target="_top" xlink:title="Contains a collection of mathematical operations and utility functions for vector objects.">
<polygon fill="white" stroke="#666666" points="819.62,-185 746.62,-185 746.62,-165.75 819.62,-165.75 819.62,-185"/>
<text text-anchor="middle" x="783.12" y="-171.5" font-family="Times,serif" font-size="10.00">vec_math.hpp</text>
</a>
</g>
</g>
<!-- Node3&#45;&gt;Node4 -->
<g id="edge3_Node000003_Node000004" class="edge">
<title>Node3&#45;&gt;Node4</title>
<g id="a_edge3_Node000003_Node000004"><a xlink:title=" ">
<path fill="none" stroke="#63b8ff" d="M856.2,-220.59C842.92,-212.56 823.26,-200.66 807.67,-191.23"/>
<polygon fill="#63b8ff" stroke="#63b8ff" points="809.79,-188.42 799.42,-186.24 806.16,-194.41 809.79,-188.42"/>
</a>
</g>
</g>
<!-- Node29 -->
<g id="Node000029" class="node">
<title>Node29</title>
<g id="a_Node000029"><a xlink:href="../../db/de9/rmatnxn_8hpp.html" target="_top" xlink:title="Specialized representation of matrices using reference semantics.">
<polygon fill="white" stroke="#666666" points="905,-185 837.25,-185 837.25,-165.75 905,-165.75 905,-185"/>
<text text-anchor="middle" x="871.12" y="-171.5" font-family="Times,serif" font-size="10.00">rmatnxn.hpp</text>
</a>
</g>
</g>
<!-- Node3&#45;&gt;Node29 -->
<g id="edge44_Node000003_Node000029" class="edge">
<title>Node3&#45;&gt;Node29</title>
<g id="a_edge44_Node000003_Node000029"><a xlink:title=" ">
<path fill="none" stroke="#63b8ff" d="M865.96,-220.83C864.55,-214.24 864.08,-204.96 864.55,-196.57"/>
<polygon fill="#63b8ff" stroke="#63b8ff" points="868,-197.21 865.74,-186.86 861.05,-196.37 868,-197.21"/>
</a>
</g>
</g>
<!-- Node31 -->
<g id="Node000031" class="node">
<title>Node31</title>
<g id="a_Node000031"><a xlink:href="../../dc/d4a/mat__math_8hpp.html" target="_top" xlink:title="Defines various matrix mathematical operations.">
<polygon fill="white" stroke="#666666" points="997.38,-185 922.88,-185 922.88,-165.75 997.38,-165.75 997.38,-185"/>
<text text-anchor="middle" x="960.12" y="-171.5" font-family="Times,serif" font-size="10.00">mat_math.hpp</text>
</a>
</g>
</g>
<!-- Node3&#45;&gt;Node31 -->
<g id="edge48_Node000003_Node000031" class="edge">
<title>Node3&#45;&gt;Node31</title>
<g id="a_edge48_Node000003_Node000031"><a xlink:title=" ">
<path fill="none" stroke="#63b8ff" d="M881.01,-220.59C892.87,-212.48 912.72,-200.43 929.65,-190.96"/>
<polygon fill="#63b8ff" stroke="#63b8ff" points="931.3,-194.05 938.4,-186.18 927.95,-187.9 931.3,-194.05"/>
</a>
</g>
</g>
<!-- Node5 -->
<g id="Node000005" class="node">
<title>Node5</title>
<g id="a_Node000005"><a xlink:href="../../d7/d7c/vec_8hpp.html" target="_top" xlink:title=" ">
<polygon fill="white" stroke="#666666" points="730.88,-129.75 683.38,-129.75 683.38,-110.5 730.88,-110.5 730.88,-129.75"/>
<text text-anchor="middle" x="707.12" y="-116.25" font-family="Times,serif" font-size="10.00">vec.hpp</text>
</a>
</g>
</g>
<!-- Node4&#45;&gt;Node5 -->
<g id="edge4_Node000004_Node000005" class="edge">
<title>Node4&#45;&gt;Node5</title>
<g id="a_edge4_Node000004_Node000005"><a xlink:title=" ">
<path fill="none" stroke="#63b8ff" d="M770.23,-165.34C759.1,-157.54 742.75,-146.09 729.49,-136.79"/>
<polygon fill="#63b8ff" stroke="#63b8ff" points="731.52,-133.94 721.32,-131.07 727.5,-139.68 731.52,-133.94"/>
</a>
</g>
</g>
<!-- Node28 -->
<g id="Node000028" class="node">
<title>Node28</title>
<g id="a_Node000028"><a xlink:href="../../dc/d15/vec__math_8inl.html" target="_top" xlink:title=" ">
<polygon fill="white" stroke="#666666" points="817,-129.75 749.25,-129.75 749.25,-110.5 817,-110.5 817,-129.75"/>
<text text-anchor="middle" x="783.12" y="-116.25" font-family="Times,serif" font-size="10.00">vec_math.inl</text>
</a>
</g>
</g>
<!-- Node4&#45;&gt;Node28 -->
<g id="edge41_Node000004_Node000028" class="edge">
<title>Node4&#45;&gt;Node28</title>
<g id="a_edge41_Node000004_Node000028"><a xlink:title=" ">
<path fill="none" stroke="#63b8ff" d="M777.96,-165.58C776.55,-158.99 776.08,-149.71 776.55,-141.32"/>
<polygon fill="#63b8ff" stroke="#63b8ff" points="780,-141.96 777.74,-131.61 773.05,-141.12 780,-141.96"/>
</a>
</g>
</g>
<!-- Node6 -->
<g id="Node000006" class="node">
<title>Node6</title>
<g id="a_Node000006"><a xlink:href="../../d8/d24/math-common_8hpp.html" target="_top" xlink:title=" ">
<polygon fill="white" stroke="#666666" points="284.62,-74.5 193.62,-74.5 193.62,-55.25 284.62,-55.25 284.62,-74.5"/>
<text text-anchor="middle" x="239.12" y="-61" font-family="Times,serif" font-size="10.00">math&#45;common.hpp</text>
</a>
</g>
</g>
<!-- Node5&#45;&gt;Node6 -->
<g id="edge5_Node000005_Node000006" class="edge">
<title>Node5&#45;&gt;Node6</title>
<g id="a_edge5_Node000005_Node000006"><a xlink:title=" ">
<path fill="none" stroke="#63b8ff" d="M682.95,-116.37C611.4,-108.23 399.29,-84.1 296.39,-72.39"/>
<polygon fill="#63b8ff" stroke="#63b8ff" points="296.83,-68.92 286.5,-71.26 296.04,-75.87 296.83,-68.92"/>
</a>
</g>
</g>
<!-- Node14 -->
<g id="Node000014" class="node">
<title>Node14</title>
<g id="a_Node000014"><a xlink:href="../../d4/d44/rvec2_8hpp.html" target="_top" xlink:title="Definitions for the rvec&lt;2, T&gt; specialized template representing 2D vectors with reference&#45;like seman...">
<polygon fill="white" stroke="#666666" points="512.38,-74.5 455.88,-74.5 455.88,-55.25 512.38,-55.25 512.38,-74.5"/>
<text text-anchor="middle" x="484.12" y="-61" font-family="Times,serif" font-size="10.00">rvec2.hpp</text>
</a>
</g>
</g>
<!-- Node5&#45;&gt;Node14 -->
<g id="edge13_Node000005_Node000014" class="edge">
<title>Node5&#45;&gt;Node14</title>
<g id="a_edge13_Node000005_Node000014"><a xlink:title=" ">
<path fill="none" stroke="#63b8ff" d="M683.29,-114.4C645.11,-106 570.35,-88.27 523.99,-76.72"/>
<polygon fill="#63b8ff" stroke="#63b8ff" points="524.88,-73.34 514.33,-74.3 523.18,-80.13 524.88,-73.34"/>
</a>
</g>
</g>
<!-- Node16 -->
<g id="Node000016" class="node">
<title>Node16</title>
<g id="a_Node000016"><a xlink:href="../../d9/dc3/rvec3_8hpp.html" target="_top" xlink:title="Provides the implementation of a 3D reference vector.">
<polygon fill="white" stroke="#666666" points="587.38,-74.5 530.88,-74.5 530.88,-55.25 587.38,-55.25 587.38,-74.5"/>
<text text-anchor="middle" x="559.12" y="-61" font-family="Times,serif" font-size="10.00">rvec3.hpp</text>
</a>
</g>
</g>
<!-- Node5&#45;&gt;Node16 -->
<g id="edge17_Node000005_Node000016" class="edge">
<title>Node5&#45;&gt;Node16</title>
<g id="a_edge17_Node000005_Node000016"><a xlink:title=" ">
<path fill="none" stroke="#63b8ff" d="M683.05,-112.16C657.56,-103.79 617.59,-89.55 589.88,-79.07"/>
<polygon fill="#63b8ff" stroke="#63b8ff" points="591.2,-75.83 580.61,-75.52 588.69,-82.36 591.2,-75.83"/>
</a>
</g>
</g>
<!-- Node18 -->
<g id="Node000018" class="node">
<title>Node18</title>
<g id="a_Node000018"><a xlink:href="../../d2/d88/rvec4_8hpp.html" target="_top" xlink:title="Defines a 4&#45;dimensional reference vector struct.">
<polygon fill="white" stroke="#666666" points="662.38,-74.5 605.88,-74.5 605.88,-55.25 662.38,-55.25 662.38,-74.5"/>
<text text-anchor="middle" x="634.12" y="-61" font-family="Times,serif" font-size="10.00">rvec4.hpp</text>
</a>
</g>
</g>
<!-- Node5&#45;&gt;Node18 -->
<g id="edge21_Node000005_Node000018" class="edge">
<title>Node5&#45;&gt;Node18</title>
<g id="a_edge21_Node000005_Node000018"><a xlink:title=" ">
<path fill="none" stroke="#63b8ff" d="M689.52,-110.09C677.37,-102.4 661.61,-91.15 649.88,-81.93"/>
<polygon fill="#63b8ff" stroke="#63b8ff" points="652.26,-79.36 642.31,-75.73 647.83,-84.77 652.26,-79.36"/>
</a>
</g>
</g>
<!-- Node20 -->
<g id="Node000020" class="node">
<title>Node20</title>
<g id="a_Node000020"><a xlink:href="../../dd/d91/vec2_8hpp.html" target="_top" xlink:title="Defines a 2D vector and provides its operations.">
<polygon fill="white" stroke="#666666" points="733.5,-74.5 680.75,-74.5 680.75,-55.25 733.5,-55.25 733.5,-74.5"/>
<text text-anchor="middle" x="707.12" y="-61" font-family="Times,serif" font-size="10.00">vec2.hpp</text>
</a>
</g>
</g>
<!-- Node5&#45;&gt;Node20 -->
<g id="edge25_Node000005_Node000020" class="edge">
<title>Node5&#45;&gt;Node20</title>
<g id="a_edge25_Node000005_Node000020"><a xlink:title=" ">
<path fill="none" stroke="#63b8ff" d="M701.96,-110.33C700.55,-103.74 700.08,-94.46 700.55,-86.07"/>
<polygon fill="#63b8ff" stroke="#63b8ff" points="704,-86.71 701.74,-76.36 697.05,-85.87 704,-86.71"/>
</a>
</g>
</g>
<!-- Node22 -->
<g id="Node000022" class="node">
<title>Node22</title>
<g id="a_Node000022"><a xlink:href="../../d9/dcd/vec3_8hpp.html" target="_top" xlink:title="Header file for the 3D vector definition.">
<polygon fill="white" stroke="#666666" points="804.5,-74.5 751.75,-74.5 751.75,-55.25 804.5,-55.25 804.5,-74.5"/>
<text text-anchor="middle" x="778.12" y="-61" font-family="Times,serif" font-size="10.00">vec3.hpp</text>
</a>
</g>
</g>
<!-- Node5&#45;&gt;Node22 -->
<g id="edge29_Node000005_Node000022" class="edge">
<title>Node5&#45;&gt;Node22</title>
<g id="a_edge29_Node000005_Node000022"><a xlink:title=" ">
<path fill="none" stroke="#63b8ff" d="M713.95,-110.09C722.82,-102.21 737.96,-90.61 751.41,-81.27"/>
<polygon fill="#63b8ff" stroke="#63b8ff" points="753.2,-84.29 759.54,-75.8 749.29,-78.48 753.2,-84.29"/>
</a>
</g>
</g>
<!-- Node24 -->
<g id="Node000024" class="node">
<title>Node24</title>
<g id="a_Node000024"><a xlink:href="../../dd/dc5/vec4_8hpp.html" target="_top" xlink:title="Contains the definition of the vec&lt;4, T&gt; structure.">
<polygon fill="white" stroke="#666666" points="875.5,-74.5 822.75,-74.5 822.75,-55.25 875.5,-55.25 875.5,-74.5"/>
<text text-anchor="middle" x="849.12" y="-61" font-family="Times,serif" font-size="10.00">vec4.hpp</text>
</a>
</g>
</g>
<!-- Node5&#45;&gt;Node24 -->
<g id="edge33_Node000005_Node000024" class="edge">
<title>Node5&#45;&gt;Node24</title>
<g id="a_edge33_Node000005_Node000024"><a xlink:title=" ">
<path fill="none" stroke="#63b8ff" d="M726,-110.09C747.92,-101.17 784.25,-87.49 811.86,-77.7"/>
<polygon fill="#63b8ff" stroke="#63b8ff" points="813,-81.01 821.29,-74.41 810.69,-74.4 813,-81.01"/>
</a>
</g>
</g>
<!-- Node26 -->
<g id="Node000026" class="node">
<title>Node26</title>
<g id="a_Node000026"><a xlink:href="../../d4/d02/vecn_8hpp.html" target="_top" xlink:title="Contains the definition of the generic vec&lt;L, T&gt; structure.">
<polygon fill="white" stroke="#666666" points="946.5,-74.5 893.75,-74.5 893.75,-55.25 946.5,-55.25 946.5,-74.5"/>
<text text-anchor="middle" x="920.12" y="-61" font-family="Times,serif" font-size="10.00">vecn.hpp</text>
</a>
</g>
</g>
<!-- Node5&#45;&gt;Node26 -->
<g id="edge37_Node000005_Node000026" class="edge">
<title>Node5&#45;&gt;Node26</title>
<g id="a_edge37_Node000005_Node000026"><a xlink:title=" ">
<path fill="none" stroke="#63b8ff" d="M731.59,-110.38C783.57,-97.15 844.01,-82.27 882.32,-73.51"/>
<polygon fill="#63b8ff" stroke="#63b8ff" points="883.01,-76.94 891.99,-71.32 881.47,-70.11 883.01,-76.94"/>
</a>
</g>
</g>
<!-- Node7 -->
<g id="Node000007" class="node">
<title>Node7</title>
<g id="a_Node000007"><a xlink:title=" ">
<polygon fill="#e0e0e0" stroke="#999999" points="36.25,-19.25 0,-19.25 0,0 36.25,0 36.25,-19.25"/>
<text text-anchor="middle" x="18.12" y="-5.75" font-family="Times,serif" font-size="10.00">array</text>
</a>
</g>
</g>
<!-- Node6&#45;&gt;Node7 -->
<g id="edge6_Node000006_Node000007" class="edge">
<title>Node6&#45;&gt;Node7</title>
<g id="a_edge6_Node000006_Node000007"><a xlink:title=" ">
<path fill="none" stroke="#63b8ff" d="M195.98,-54.83C159.1,-46.88 104.39,-34.62 47.72,-19.52"/>
<polygon fill="#63b8ff" stroke="#63b8ff" points="48.77,-16.18 38.21,-16.96 46.96,-22.94 48.77,-16.18"/>
</a>
</g>
</g>
<!-- Node8 -->
<g id="Node000008" class="node">
<title>Node8</title>
<g id="a_Node000008"><a xlink:title=" ">
<polygon fill="#e0e0e0" stroke="#999999" points="101.5,-19.25 54.75,-19.25 54.75,0 101.5,0 101.5,-19.25"/>
<text text-anchor="middle" x="78.12" y="-5.75" font-family="Times,serif" font-size="10.00">assert.h</text>
</a>
</g>
</g>
<!-- Node6&#45;&gt;Node8 -->
<g id="edge7_Node000006_Node000008" class="edge">
<title>Node6&#45;&gt;Node8</title>
<g id="a_edge7_Node000006_Node000008"><a xlink:title=" ">
<path fill="none" stroke="#63b8ff" d="M211.81,-54.84C184.45,-45.79 142.24,-31.83 112.58,-22.02"/>
<polygon fill="#63b8ff" stroke="#63b8ff" points="113.92,-18.78 103.33,-18.96 111.72,-25.42 113.92,-18.78"/>
</a>
</g>
</g>
<!-- Node9 -->
<g id="Node000009" class="node">
<title>Node9</title>
<g id="a_Node000009"><a xlink:title=" ">
<polygon fill="#e0e0e0" stroke="#999999" points="160.5,-19.25 119.75,-19.25 119.75,0 160.5,0 160.5,-19.25"/>
<text text-anchor="middle" x="140.12" y="-5.75" font-family="Times,serif" font-size="10.00">cmath</text>
</a>
</g>
</g>
<!-- Node6&#45;&gt;Node9 -->
<g id="edge8_Node000006_Node000009" class="edge">
<title>Node6&#45;&gt;Node9</title>
<g id="a_edge8_Node000006_Node000009"><a xlink:title=" ">
<path fill="none" stroke="#63b8ff" d="M222.33,-54.84C207.11,-46.66 184.43,-34.46 166.74,-24.94"/>
<polygon fill="#63b8ff" stroke="#63b8ff" points="168.8,-22.07 158.33,-20.42 165.48,-28.24 168.8,-22.07"/>
</a>
</g>
</g>
<!-- Node10 -->
<g id="Node000010" class="node">
<title>Node10</title>
<g id="a_Node000010"><a xlink:title=" ">
<polygon fill="#e0e0e0" stroke="#999999" points="229.38,-19.25 178.88,-19.25 178.88,0 229.38,0 229.38,-19.25"/>
<text text-anchor="middle" x="204.12" y="-5.75" font-family="Times,serif" font-size="10.00">concepts</text>
</a>
</g>
</g>
<!-- Node6&#45;&gt;Node10 -->
<g id="edge9_Node000006_Node000010" class="edge">
<title>Node6&#45;&gt;Node10</title>
<g id="a_edge9_Node000006_Node000010"><a xlink:title=" ">
<path fill="none" stroke="#63b8ff" d="M233.35,-55.08C228.71,-48.03 222.05,-37.9 216.26,-29.08"/>
<polygon fill="#63b8ff" stroke="#63b8ff" points="219.28,-27.31 210.86,-20.87 213.43,-31.15 219.28,-27.31"/>
</a>
</g>
</g>
<!-- Node11 -->
<g id="Node000011" class="node">
<title>Node11</title>
<g id="a_Node000011"><a xlink:title=" ">
<polygon fill="#e0e0e0" stroke="#999999" points="298.38,-19.25 247.88,-19.25 247.88,0 298.38,0 298.38,-19.25"/>
<text text-anchor="middle" x="273.12" y="-5.75" font-family="Times,serif" font-size="10.00">numbers</text>
</a>
</g>
</g>
<!-- Node6&#45;&gt;Node11 -->
<g id="edge10_Node000006_Node000011" class="edge">
<title>Node6&#45;&gt;Node11</title>
<g id="a_edge10_Node000006_Node000011"><a xlink:title=" ">
<path fill="none" stroke="#63b8ff" d="M244.74,-55.08C249.24,-48.03 255.71,-37.9 261.34,-29.08"/>
<polygon fill="#63b8ff" stroke="#63b8ff" points="264.14,-31.2 266.57,-20.88 258.24,-27.43 264.14,-31.2"/>
</a>
</g>
</g>
<!-- Node12 -->
<g id="Node000012" class="node">
<title>Node12</title>
<g id="a_Node000012"><a xlink:title=" ">
<polygon fill="#e0e0e0" stroke="#999999" points="363.88,-19.25 316.38,-19.25 316.38,0 363.88,0 363.88,-19.25"/>
<text text-anchor="middle" x="340.12" y="-5.75" font-family="Times,serif" font-size="10.00">ostream</text>
</a>
</g>
</g>
<!-- Node6&#45;&gt;Node12 -->
<g id="edge11_Node000006_Node000012" class="edge">
<title>Node6&#45;&gt;Node12</title>
<g id="a_edge11_Node000006_Node000012"><a xlink:title=" ">
<path fill="none" stroke="#63b8ff" d="M256.26,-54.84C271.78,-46.66 294.93,-34.46 312.97,-24.94"/>
<polygon fill="#63b8ff" stroke="#63b8ff" points="314.36,-28.17 321.57,-20.41 311.09,-21.98 314.36,-28.17"/>
</a>
</g>
</g>
<!-- Node13 -->
<g id="Node000013" class="node">
<title>Node13</title>
<g id="a_Node000013"><a xlink:title=" ">
<polygon fill="#e0e0e0" stroke="#999999" points="440.5,-19.25 381.75,-19.25 381.75,0 440.5,0 440.5,-19.25"/>
<text text-anchor="middle" x="411.12" y="-5.75" font-family="Times,serif" font-size="10.00">type_traits</text>
</a>
</g>
</g>
<!-- Node6&#45;&gt;Node13 -->
<g id="edge12_Node000006_Node000013" class="edge">
<title>Node6&#45;&gt;Node13</title>
<g id="a_edge12_Node000006_Node000013"><a xlink:title=" ">
<path fill="none" stroke="#63b8ff" d="M268.3,-54.84C296.6,-46.08 339.74,-32.73 371.21,-22.98"/>
<polygon fill="#63b8ff" stroke="#63b8ff" points="371.84,-26.45 380.36,-20.15 369.77,-19.76 371.84,-26.45"/>
</a>
</g>
</g>
<!-- Node14&#45;&gt;Node5 -->
<g id="edge14_Node000014_Node000005" class="edge">
<title>Node14&#45;&gt;Node5</title>
<g id="a_edge14_Node000014_Node000005"><a xlink:title=" ">
<path fill="none" stroke="#63b8ff" d="M512.67,-71.64C553.48,-80.72 628.02,-98.45 672.09,-109.48"/>
<polygon fill="#63b8ff" stroke="#63b8ff" points="671.11,-112.85 681.66,-111.9 672.82,-106.06 671.11,-112.85"/>
</a>
</g>
</g>
<!-- Node15 -->
<g id="Node000015" class="node">
<title>Node15</title>
<g id="a_Node000015"><a xlink:href="../../dd/d72/rvec2_8inl.html" target="_top" xlink:title=" ">
<polygon fill="white" stroke="#666666" points="509.75,-19.25 458.5,-19.25 458.5,0 509.75,0 509.75,-19.25"/>
<text text-anchor="middle" x="484.12" y="-5.75" font-family="Times,serif" font-size="10.00">rvec2.inl</text>
</a>
</g>
</g>
<!-- Node14&#45;&gt;Node15 -->
<g id="edge15_Node000014_Node000015" class="edge">
<title>Node14&#45;&gt;Node15</title>
<g id="a_edge15_Node000014_Node000015"><a xlink:title=" ">
<path fill="none" stroke="#63b8ff" d="M478.96,-55.08C477.55,-48.49 477.08,-39.21 477.55,-30.82"/>
<polygon fill="#63b8ff" stroke="#63b8ff" points="481,-31.46 478.74,-21.11 474.05,-30.62 481,-31.46"/>
</a>
</g>
</g>
<!-- Node15&#45;&gt;Node14 -->
<g id="edge16_Node000015_Node000014" class="edge">
<title>Node15&#45;&gt;Node14</title>
<g id="a_edge16_Node000015_Node000014"><a xlink:title=" ">
<path fill="none" stroke="#63b8ff" d="M489.33,-19.61C490.72,-26.25 491.17,-35.55 490.68,-43.92"/>
<polygon fill="#63b8ff" stroke="#63b8ff" points="487.24,-43.22 489.48,-53.58 494.19,-44.09 487.24,-43.22"/>
</a>
</g>
</g>
<!-- Node16&#45;&gt;Node5 -->
<g id="edge18_Node000016_Node000005" class="edge">
<title>Node16&#45;&gt;Node5</title>
<g id="a_edge18_Node000016_Node000005"><a xlink:title=" ">
<path fill="none" stroke="#63b8ff" d="M587.74,-74.34C613.38,-82.88 650.64,-96.19 676.78,-106.08"/>
<polygon fill="#63b8ff" stroke="#63b8ff" points="675.23,-109.24 685.82,-109.55 677.74,-102.7 675.23,-109.24"/>
</a>
</g>
</g>
<!-- Node17 -->
<g id="Node000017" class="node">
<title>Node17</title>
<g id="a_Node000017"><a xlink:href="../../d7/d70/rvec3_8inl.html" target="_top" xlink:title=" ">
<polygon fill="white" stroke="#666666" points="584.75,-19.25 533.5,-19.25 533.5,0 584.75,0 584.75,-19.25"/>
<text text-anchor="middle" x="559.12" y="-5.75" font-family="Times,serif" font-size="10.00">rvec3.inl</text>
</a>
</g>
</g>
<!-- Node16&#45;&gt;Node17 -->
<g id="edge19_Node000016_Node000017" class="edge">
<title>Node16&#45;&gt;Node17</title>
<g id="a_edge19_Node000016_Node000017"><a xlink:title=" ">
<path fill="none" stroke="#63b8ff" d="M553.96,-55.08C552.55,-48.49 552.08,-39.21 552.55,-30.82"/>
<polygon fill="#63b8ff" stroke="#63b8ff" points="556,-31.46 553.74,-21.11 549.05,-30.62 556,-31.46"/>
</a>
</g>
</g>
<!-- Node17&#45;&gt;Node16 -->
<g id="edge20_Node000017_Node000016" class="edge">
<title>Node17&#45;&gt;Node16</title>
<g id="a_edge20_Node000017_Node000016"><a xlink:title=" ">
<path fill="none" stroke="#63b8ff" d="M564.33,-19.61C565.72,-26.25 566.17,-35.55 565.68,-43.92"/>
<polygon fill="#63b8ff" stroke="#63b8ff" points="562.24,-43.22 564.48,-53.58 569.19,-44.09 562.24,-43.22"/>
</a>
</g>
</g>
<!-- Node18&#45;&gt;Node5 -->
<g id="edge22_Node000018_Node000005" class="edge">
<title>Node18&#45;&gt;Node5</title>
<g id="a_edge22_Node000018_Node000005"><a xlink:title=" ">
<path fill="none" stroke="#63b8ff" d="M651.8,-74.95C663.89,-82.62 679.54,-93.78 691.23,-102.96"/>
<polygon fill="#63b8ff" stroke="#63b8ff" points="688.83,-105.52 698.79,-109.13 693.26,-100.1 688.83,-105.52"/>
</a>
</g>
</g>
<!-- Node19 -->
<g id="Node000019" class="node">
<title>Node19</title>
<g id="a_Node000019"><a xlink:href="../../d1/d9f/rvec4_8inl.html" target="_top" xlink:title=" ">
<polygon fill="white" stroke="#666666" points="659.75,-19.25 608.5,-19.25 608.5,0 659.75,0 659.75,-19.25"/>
<text text-anchor="middle" x="634.12" y="-5.75" font-family="Times,serif" font-size="10.00">rvec4.inl</text>
</a>
</g>
</g>
<!-- Node18&#45;&gt;Node19 -->
<g id="edge23_Node000018_Node000019" class="edge">
<title>Node18&#45;&gt;Node19</title>
<g id="a_edge23_Node000018_Node000019"><a xlink:title=" ">
<path fill="none" stroke="#63b8ff" d="M628.96,-55.08C627.55,-48.49 627.08,-39.21 627.55,-30.82"/>
<polygon fill="#63b8ff" stroke="#63b8ff" points="631,-31.46 628.74,-21.11 624.05,-30.62 631,-31.46"/>
</a>
</g>
</g>
<!-- Node19&#45;&gt;Node18 -->
<g id="edge24_Node000019_Node000018" class="edge">
<title>Node19&#45;&gt;Node18</title>
<g id="a_edge24_Node000019_Node000018"><a xlink:title=" ">
<path fill="none" stroke="#63b8ff" d="M639.33,-19.61C640.72,-26.25 641.17,-35.55 640.68,-43.92"/>
<polygon fill="#63b8ff" stroke="#63b8ff" points="637.24,-43.22 639.48,-53.58 644.19,-44.09 637.24,-43.22"/>
</a>
</g>
</g>
<!-- Node20&#45;&gt;Node5 -->
<g id="edge26_Node000020_Node000005" class="edge">
<title>Node20&#45;&gt;Node5</title>
<g id="a_edge26_Node000020_Node000005"><a xlink:title=" ">
<path fill="none" stroke="#63b8ff" d="M712.33,-74.86C713.72,-81.5 714.17,-90.8 713.68,-99.17"/>
<polygon fill="#63b8ff" stroke="#63b8ff" points="710.24,-98.47 712.48,-108.83 717.19,-99.34 710.24,-98.47"/>
</a>
</g>
</g>
<!-- Node21 -->
<g id="Node000021" class="node">
<title>Node21</title>
<g id="a_Node000021"><a xlink:href="../../d2/d56/vec2_8inl.html" target="_top" xlink:title=" ">
<polygon fill="white" stroke="#666666" points="730.88,-19.25 683.38,-19.25 683.38,0 730.88,0 730.88,-19.25"/>
<text text-anchor="middle" x="707.12" y="-5.75" font-family="Times,serif" font-size="10.00">vec2.inl</text>
</a>
</g>
</g>
<!-- Node20&#45;&gt;Node21 -->
<g id="edge27_Node000020_Node000021" class="edge">
<title>Node20&#45;&gt;Node21</title>
<g id="a_edge27_Node000020_Node000021"><a xlink:title=" ">
<path fill="none" stroke="#63b8ff" d="M701.96,-55.08C700.55,-48.49 700.08,-39.21 700.55,-30.82"/>
<polygon fill="#63b8ff" stroke="#63b8ff" points="704,-31.46 701.74,-21.11 697.05,-30.62 704,-31.46"/>
</a>
</g>
</g>
<!-- Node21&#45;&gt;Node20 -->
<g id="edge28_Node000021_Node000020" class="edge">
<title>Node21&#45;&gt;Node20</title>
<g id="a_edge28_Node000021_Node000020"><a xlink:title=" ">
<path fill="none" stroke="#63b8ff" d="M712.33,-19.61C713.72,-26.25 714.17,-35.55 713.68,-43.92"/>
<polygon fill="#63b8ff" stroke="#63b8ff" points="710.24,-43.22 712.48,-53.58 717.19,-44.09 710.24,-43.22"/>
</a>
</g>
</g>
<!-- Node22&#45;&gt;Node5 -->
<g id="edge30_Node000022_Node000005" class="edge">
<title>Node22&#45;&gt;Node5</title>
<g id="a_edge30_Node000022_Node000005"><a xlink:title=" ">
<path fill="none" stroke="#63b8ff" d="M771.45,-74.77C762.6,-82.66 747.35,-94.34 733.82,-103.74"/>
<polygon fill="#63b8ff" stroke="#63b8ff" points="731.98,-100.76 725.64,-109.25 735.89,-106.57 731.98,-100.76"/>
</a>
</g>
</g>
<!-- Node23 -->
<g id="Node000023" class="node">
<title>Node23</title>
<g id="a_Node000023"><a xlink:href="../../d3/dc9/vec3_8inl.html" target="_top" xlink:title=" ">
<polygon fill="white" stroke="#666666" points="801.88,-19.25 754.38,-19.25 754.38,0 801.88,0 801.88,-19.25"/>
<text text-anchor="middle" x="778.12" y="-5.75" font-family="Times,serif" font-size="10.00">vec3.inl</text>
</a>
</g>
</g>
<!-- Node22&#45;&gt;Node23 -->
<g id="edge31_Node000022_Node000023" class="edge">
<title>Node22&#45;&gt;Node23</title>
<g id="a_edge31_Node000022_Node000023"><a xlink:title=" ">
<path fill="none" stroke="#63b8ff" d="M772.96,-55.08C771.55,-48.49 771.08,-39.21 771.55,-30.82"/>
<polygon fill="#63b8ff" stroke="#63b8ff" points="775,-31.46 772.74,-21.11 768.05,-30.62 775,-31.46"/>
</a>
</g>
</g>
<!-- Node23&#45;&gt;Node22 -->
<g id="edge32_Node000023_Node000022" class="edge">
<title>Node23&#45;&gt;Node22</title>
<g id="a_edge32_Node000023_Node000022"><a xlink:title=" ">
<path fill="none" stroke="#63b8ff" d="M783.33,-19.61C784.72,-26.25 785.17,-35.55 784.68,-43.92"/>
<polygon fill="#63b8ff" stroke="#63b8ff" points="781.24,-43.22 783.48,-53.58 788.19,-44.09 781.24,-43.22"/>
</a>
</g>
</g>
<!-- Node24&#45;&gt;Node5 -->
<g id="edge34_Node000024_Node000005" class="edge">
<title>Node24&#45;&gt;Node5</title>
<g id="a_edge34_Node000024_Node000005"><a xlink:title=" ">
<path fill="none" stroke="#63b8ff" d="M830.28,-74.9C807.61,-84.12 769.51,-98.45 741.58,-108.29"/>
<polygon fill="#63b8ff" stroke="#63b8ff" points="740.79,-104.86 732.49,-111.45 743.09,-111.47 740.79,-104.86"/>
</a>
</g>
</g>
<!-- Node25 -->
<g id="Node000025" class="node">
<title>Node25</title>
<g id="a_Node000025"><a xlink:href="../../da/d28/vec4_8inl.html" target="_top" xlink:title=" ">
<polygon fill="white" stroke="#666666" points="872.88,-19.25 825.38,-19.25 825.38,0 872.88,0 872.88,-19.25"/>
<text text-anchor="middle" x="849.12" y="-5.75" font-family="Times,serif" font-size="10.00">vec4.inl</text>
</a>
</g>
</g>
<!-- Node24&#45;&gt;Node25 -->
<g id="edge35_Node000024_Node000025" class="edge">
<title>Node24&#45;&gt;Node25</title>
<g id="a_edge35_Node000024_Node000025"><a xlink:title=" ">
<path fill="none" stroke="#63b8ff" d="M843.96,-55.08C842.55,-48.49 842.08,-39.21 842.55,-30.82"/>
<polygon fill="#63b8ff" stroke="#63b8ff" points="846,-31.46 843.74,-21.11 839.05,-30.62 846,-31.46"/>
</a>
</g>
</g>
<!-- Node25&#45;&gt;Node24 -->
<g id="edge36_Node000025_Node000024" class="edge">
<title>Node25&#45;&gt;Node24</title>
<g id="a_edge36_Node000025_Node000024"><a xlink:title=" ">
<path fill="none" stroke="#63b8ff" d="M854.33,-19.61C855.72,-26.25 856.17,-35.55 855.68,-43.92"/>
<polygon fill="#63b8ff" stroke="#63b8ff" points="852.24,-43.22 854.48,-53.58 859.19,-44.09 852.24,-43.22"/>
</a>
</g>
</g>
<!-- Node26&#45;&gt;Node5 -->
<g id="edge38_Node000026_Node000005" class="edge">
<title>Node26&#45;&gt;Node5</title>
<g id="a_edge38_Node000026_Node000005"><a xlink:title=" ">
<path fill="none" stroke="#63b8ff" d="M893.55,-73.97C859.77,-82.82 800.29,-97.47 749.12,-110.5 746.88,-111.07 744.56,-111.67 742.19,-112.27"/>
<polygon fill="#63b8ff" stroke="#63b8ff" points="741.35,-108.87 732.49,-114.68 743.04,-115.67 741.35,-108.87"/>
</a>
</g>
</g>
<!-- Node27 -->
<g id="Node000027" class="node">
<title>Node27</title>
<g id="a_Node000027"><a xlink:href="../../d6/d8c/vecn_8inl.html" target="_top" xlink:title=" ">
<polygon fill="white" stroke="#666666" points="943.88,-19.25 896.38,-19.25 896.38,0 943.88,0 943.88,-19.25"/>
<text text-anchor="middle" x="920.12" y="-5.75" font-family="Times,serif" font-size="10.00">vecn.inl</text>
</a>
</g>
</g>
<!-- Node26&#45;&gt;Node27 -->
<g id="edge39_Node000026_Node000027" class="edge">
<title>Node26&#45;&gt;Node27</title>
<g id="a_edge39_Node000026_Node000027"><a xlink:title=" ">
<path fill="none" stroke="#63b8ff" d="M914.96,-55.08C913.55,-48.49 913.08,-39.21 913.55,-30.82"/>
<polygon fill="#63b8ff" stroke="#63b8ff" points="917,-31.46 914.74,-21.11 910.05,-30.62 917,-31.46"/>
</a>
</g>
</g>
<!-- Node27&#45;&gt;Node26 -->
<g id="edge40_Node000027_Node000026" class="edge">
<title>Node27&#45;&gt;Node26</title>
<g id="a_edge40_Node000027_Node000026"><a xlink:title=" ">
<path fill="none" stroke="#63b8ff" d="M925.33,-19.61C926.72,-26.25 927.17,-35.55 926.68,-43.92"/>
<polygon fill="#63b8ff" stroke="#63b8ff" points="923.24,-43.22 925.48,-53.58 930.19,-44.09 923.24,-43.22"/>
</a>
</g>
</g>
<!-- Node28&#45;&gt;Node4 -->
<g id="edge42_Node000028_Node000004" class="edge">
<title>Node28&#45;&gt;Node4</title>
<g id="a_edge42_Node000028_Node000004"><a xlink:title=" ">
<path fill="none" stroke="#63b8ff" d="M788.33,-130.11C789.72,-136.75 790.17,-146.05 789.68,-154.42"/>
<polygon fill="#63b8ff" stroke="#63b8ff" points="786.24,-153.72 788.48,-164.08 793.19,-154.59 786.24,-153.72"/>
</a>
</g>
</g>
<!-- Node29&#45;&gt;Node3 -->
<g id="edge45_Node000029_Node000003" class="edge">
<title>Node29&#45;&gt;Node3</title>
<g id="a_edge45_Node000029_Node000003"><a xlink:title=" ">
<path fill="none" stroke="#63b8ff" d="M876.33,-185.36C877.72,-192 878.17,-201.3 877.68,-209.67"/>
<polygon fill="#63b8ff" stroke="#63b8ff" points="874.24,-208.97 876.48,-219.33 881.19,-209.84 874.24,-208.97"/>
</a>
</g>
</g>
<!-- Node30 -->
<g id="Node000030" class="node">
<title>Node30</title>
<g id="a_Node000030"><a xlink:href="../../df/da5/rmatnxn_8inl.html" target="_top" xlink:title=" ">
<polygon fill="white" stroke="#666666" points="902.38,-129.75 839.88,-129.75 839.88,-110.5 902.38,-110.5 902.38,-129.75"/>
<text text-anchor="middle" x="871.12" y="-116.25" font-family="Times,serif" font-size="10.00">rmatnxn.inl</text>
</a>
</g>
</g>
<!-- Node29&#45;&gt;Node30 -->
<g id="edge46_Node000029_Node000030" class="edge">
<title>Node29&#45;&gt;Node30</title>
<g id="a_edge46_Node000029_Node000030"><a xlink:title=" ">
<path fill="none" stroke="#63b8ff" d="M865.96,-165.58C864.55,-158.99 864.08,-149.71 864.55,-141.32"/>
<polygon fill="#63b8ff" stroke="#63b8ff" points="868,-141.96 865.74,-131.61 861.05,-141.12 868,-141.96"/>
</a>
</g>
</g>
<!-- Node30&#45;&gt;Node29 -->
<g id="edge47_Node000030_Node000029" class="edge">
<title>Node30&#45;&gt;Node29</title>
<g id="a_edge47_Node000030_Node000029"><a xlink:title=" ">
<path fill="none" stroke="#63b8ff" d="M876.33,-130.11C877.72,-136.75 878.17,-146.05 877.68,-154.42"/>
<polygon fill="#63b8ff" stroke="#63b8ff" points="874.24,-153.72 876.48,-164.08 881.19,-154.59 874.24,-153.72"/>
</a>
</g>
</g>
<!-- Node31&#45;&gt;Node3 -->
<g id="edge49_Node000031_Node000003" class="edge">
<title>Node31&#45;&gt;Node3</title>
<g id="a_edge49_Node000031_Node000003"><a xlink:title=" ">
<path fill="none" stroke="#63b8ff" d="M950.18,-185.45C938.29,-193.58 918.43,-205.63 901.5,-215.09"/>
<polygon fill="#63b8ff" stroke="#63b8ff" points="899.86,-212 892.77,-219.87 903.22,-218.14 899.86,-212"/>
</a>
</g>
</g>
<!-- Node32 -->
<g id="Node000032" class="node">
<title>Node32</title>
<g id="a_Node000032"><a xlink:href="../../d7/dab/mat__math_8inl.html" target="_top" xlink:title=" ">
<polygon fill="white" stroke="#666666" points="994.75,-129.75 925.5,-129.75 925.5,-110.5 994.75,-110.5 994.75,-129.75"/>
<text text-anchor="middle" x="960.12" y="-116.25" font-family="Times,serif" font-size="10.00">mat_math.inl</text>
</a>
</g>
</g>
<!-- Node31&#45;&gt;Node32 -->
<g id="edge50_Node000031_Node000032" class="edge">
<title>Node31&#45;&gt;Node32</title>
<g id="a_edge50_Node000031_Node000032"><a xlink:title=" ">
<path fill="none" stroke="#63b8ff" d="M954.96,-165.58C953.55,-158.99 953.08,-149.71 953.55,-141.32"/>
<polygon fill="#63b8ff" stroke="#63b8ff" points="957,-141.96 954.74,-131.61 950.05,-141.12 957,-141.96"/>
</a>
</g>
</g>
<!-- Node32&#45;&gt;Node31 -->
<g id="edge51_Node000032_Node000031" class="edge">
<title>Node32&#45;&gt;Node31</title>
<g id="a_edge51_Node000032_Node000031"><a xlink:title=" ">
<path fill="none" stroke="#63b8ff" d="M965.33,-130.11C966.72,-136.75 967.17,-146.05 966.68,-154.42"/>
<polygon fill="#63b8ff" stroke="#63b8ff" points="963.24,-153.72 965.48,-164.08 970.19,-154.59 963.24,-153.72"/>
</a>
</g>
</g>
</g>
</svg>

<g id="navigator" transform="translate(0 0)" fill="#404254">
  <rect fill="#f2f5e9" fill-opacity="0.5" stroke="#606060" stroke-width=".5" x="0" y="0" width="60" height="60"/>
  <use id="zoomplus" xlink:href="#zoomPlus" x="17" y="9" onmousedown="handleZoom(evt,'in')"/>
  <use id="zoomminus" xlink:href="#zoomMin" x="42" y="9" onmousedown="handleZoom(evt,'out')"/>
  <use id="reset" xlink:href="#resetDef" x="30" y="36" onmousedown="handleReset()"/>
   <use id="arrowup" xlink:href="#arrowUp" x="0" y="0" onmousedown="handlePan(0,-1)"/>
  <use id="arrowright" xlink:href="#arrowRight" x="0" y="0" onmousedown="handlePan(1,0)"/>
  <use id="arrowdown" xlink:href="#arrowDown" x="0" y="0" onmousedown="handlePan(0,1)"/>
  <use id="arrowleft" xlink:href="#arrowLeft" x="0" y="0" onmousedown="handlePan(-1,0)"/>
</g>
<svg viewBox="0 0 15 15" width="100%" height="30px" preserveAspectRatio="xMaxYMin meet">
 <g id="arrow_out" transform="scale(0.3 0.3)">
  <a xlink:href="matnxn_8inl__incl_org.svg" target="_base">
   <rect id="button" ry="5" rx="5" y="6" x="6" height="38" width="38"
        fill="#f2f5e9" fill-opacity="0.5" stroke="#606060" stroke-width="1.0"/>
   <path id="arrow"
     d="M 11.500037,31.436501 C 11.940474,20.09759 22.043105,11.32322 32.158766,21.979434 L 37.068811,17.246167 C 37.068811,17.246167 37.088388,32 37.088388,32 L 22.160133,31.978069 C 22.160133,31.978069 26.997745,27.140456 26.997745,27.140456 C 18.528582,18.264221 13.291696,25.230495 11.500037,31.436501 z"
     style="fill:#404040;"/>
  </a>
 </g>
</svg>

<style type='text/css'>
<![CDATA[
[data-mouse-over-selected='false'] { opacity: 0.7; }
[data-mouse-over-selected='true']  { opacity: 1.0; }
]]>
</style>
<script type="application/ecmascript"><![CDATA[
document.addEventListener('DOMContentLoaded', (event) => {
  highlightEdges();
  highlightAdjacentNodes();
});
]]></script>
</svg>
