<?xml version="1.0" encoding="UTF-8" standalone="no"?>
<!DOCTYPE svg PUBLIC "-//W3C//DTD SVG 1.1//EN"
 "http://www.w3.org/Graphics/SVG/1.1/DTD/svg11.dtd">
<!-- Generated by graphviz version 9.0.0 (20230911.1827)
 -->
<!-- Title: include/math/vec.hpp Pages: 1 -->
<!--zoomable 193 -->

<svg id="main" version="1.1" xmlns="http://www.w3.org/2000/svg" xmlns:xlink="http://www.w3.org/1999/xlink" xml:space="preserve" onload="init(evt)">
<style type="text/css"><![CDATA[
.node, .edge {opacity: 0.7;}
.node.selected, .edge.selected {opacity: 1;}
.edge:hover path { stroke: red; }
.edge:hover polygon { stroke: red; fill: red; }
]]></style>

<defs>
  <circle id="rim" cx="0" cy="0" r="7"/>
  <circle id="rim2" cx="0" cy="0" r="3.5"/>
  <g id="zoomPlus">
    <use xlink:href="#rim" fill="#404040"><set attributeName="fill" to="#808080" begin="zoomplus.mouseover" end="zoomplus.mouseout"/></use>
    <path d="M-4,0h8M0,-4v8" fill="none" stroke="white" stroke-width="1.5" pointer-events="none"/>
  </g>
  <g id="zoomMin">
    <use xlink:href="#rim" fill="#404040"><set attributeName="fill" to="#808080" begin="zoomminus.mouseover" end="zoomminus.mouseout"/></use>
    <path d="M-4,0h8" fill="none" stroke="white" stroke-width="1.5" pointer-events="none"/>
  </g>
  <g id="arrowUp" transform="translate(30 24)">
    <use xlink:href="#rim"/>
    <path pointer-events="none" fill="none" stroke="white" stroke-width="1.5" d="M0,-3.0v7 M-2.5,-0.5L0,-3.0L2.5,-0.5"/>
  </g>
  <g id="arrowRight" transform="rotate(90) translate(36 -43)">
    <use xlink:href="#rim"/>
    <path pointer-events="none" fill="none" stroke="white" stroke-width="1.5" d="M0,-3.0v7 M-2.5,-0.5L0,-3.0L2.5,-0.5"/>
  </g>
  <g id="arrowDown" transform="rotate(180) translate(-30 -48)">
    <use xlink:href="#rim"/>
    <path pointer-events="none" fill="none" stroke="white" stroke-width="1.5" d="M0,-3.0v7 M-2.5,-0.5L0,-3.0L2.5,-0.5"/>
  </g>
  <g id="arrowLeft" transform="rotate(270) translate(-36 17)">
    <use xlink:href="#rim"/>
    <path pointer-events="none" fill="none" stroke="white" stroke-width="1.5" d="M0,-3.0v7 M-2.5,-0.5L0,-3.0L2.5,-0.5"/>
  </g>
  <g id="resetDef">
    <use xlink:href="#rim2" fill="#404040"><set attributeName="fill" to="#808080" begin="reset.mouseover" end="reset.mouseout"/></use>
  </g>
</defs>
<script type="application/ecmascript">
var viewWidth = 571;
var viewHeight = 193;
var sectionId = 'dynsection-0';
</script>
<script type="application/ecmascript" xlink:href="../../svg.min.js"/>
<svg id="graph" class="graph">
<g id="viewport">
<title>include/math/vec.hpp</title>
<!-- Node1 -->
<g id="Node000001" class="node">
<title>Node1</title>
<g id="a_Node000001"><a xlink:title=" ">
<polygon fill="#999999" stroke="#666666" points="332.12,-185 229.12,-185 229.12,-165.75 332.12,-165.75 332.12,-185"/>
<text text-anchor="middle" x="280.62" y="-171.5" font-family="Times,serif" font-size="10.00">include/math/vec.hpp</text>
</a>
</g>
</g>
<!-- Node2 -->
<g id="Node000002" class="node">
<title>Node2</title>
<g id="a_Node000002"><a xlink:href="../../d8/d24/math-common_8hpp.html" target="_top" xlink:title=" ">
<polygon fill="white" stroke="#666666" points="298.12,-74.5 207.12,-74.5 207.12,-55.25 298.12,-55.25 298.12,-74.5"/>
<text text-anchor="middle" x="252.62" y="-61" font-family="Times,serif" font-size="10.00">math&#45;common.hpp</text>
</a>
</g>
</g>
<!-- Node1&#45;&gt;Node2 -->
<g id="edge1_Node000001_Node000002" class="edge">
<title>Node1&#45;&gt;Node2</title>
<g id="a_edge1_Node000001_Node000002"><a xlink:title=" ">
<path fill="none" stroke="#63b8ff" d="M278.33,-165.5C273.86,-148.17 263.88,-109.48 257.75,-85.74"/>
<polygon fill="#63b8ff" stroke="#63b8ff" points="261.21,-85.15 255.33,-76.34 254.44,-86.9 261.21,-85.15"/>
</a>
</g>
</g>
<!-- Node10 -->
<g id="Node000010" class="node">
<title>Node10</title>
<g id="a_Node000010"><a xlink:href="../../d4/d44/rvec2_8hpp.html" target="_top" xlink:title="Definitions for the rvec&lt;2, T&gt; specialized template representing 2D vectors with reference&#45;like seman...">
<polygon fill="white" stroke="#666666" points="57.88,-129.75 1.38,-129.75 1.38,-110.5 57.88,-110.5 57.88,-129.75"/>
<text text-anchor="middle" x="29.62" y="-116.25" font-family="Times,serif" font-size="10.00">rvec2.hpp</text>
</a>
</g>
</g>
<!-- Node1&#45;&gt;Node10 -->
<g id="edge9_Node000001_Node000010" class="edge">
<title>Node1&#45;&gt;Node10</title>
<g id="a_edge9_Node000001_Node000010"><a xlink:title=" ">
<path fill="none" stroke="#63b8ff" d="M237.76,-165.28C190.52,-155.26 115.15,-139.27 69.25,-129.53"/>
<polygon fill="#63b8ff" stroke="#63b8ff" points="70.23,-126.16 59.73,-127.51 68.78,-133.01 70.23,-126.16"/>
</a>
</g>
</g>
<!-- Node12 -->
<g id="Node000012" class="node">
<title>Node12</title>
<g id="a_Node000012"><a xlink:href="../../d9/dc3/rvec3_8hpp.html" target="_top" xlink:title="Provides the implementation of a 3D reference vector.">
<polygon fill="white" stroke="#666666" points="142.88,-129.75 86.38,-129.75 86.38,-110.5 142.88,-110.5 142.88,-129.75"/>
<text text-anchor="middle" x="114.62" y="-116.25" font-family="Times,serif" font-size="10.00">rvec3.hpp</text>
</a>
</g>
</g>
<!-- Node1&#45;&gt;Node12 -->
<g id="edge13_Node000001_Node000012" class="edge">
<title>Node1&#45;&gt;Node12</title>
<g id="a_edge13_Node000001_Node000012"><a xlink:title=" ">
<path fill="none" stroke="#63b8ff" d="M252.47,-165.34C225.28,-156.62 183.88,-143.34 153.55,-133.61"/>
<polygon fill="#63b8ff" stroke="#63b8ff" points="154.96,-130.39 144.36,-130.66 152.82,-137.05 154.96,-130.39"/>
</a>
</g>
</g>
<!-- Node14 -->
<g id="Node000014" class="node">
<title>Node14</title>
<g id="a_Node000014"><a xlink:href="../../d2/d88/rvec4_8hpp.html" target="_top" xlink:title="Defines a 4&#45;dimensional reference vector struct.">
<polygon fill="white" stroke="#666666" points="222.88,-129.75 166.38,-129.75 166.38,-110.5 222.88,-110.5 222.88,-129.75"/>
<text text-anchor="middle" x="194.62" y="-116.25" font-family="Times,serif" font-size="10.00">rvec4.hpp</text>
</a>
</g>
</g>
<!-- Node1&#45;&gt;Node14 -->
<g id="edge17_Node000001_Node000014" class="edge">
<title>Node1&#45;&gt;Node14</title>
<g id="a_edge17_Node000001_Node000014"><a xlink:title=" ">
<path fill="none" stroke="#63b8ff" d="M266.04,-165.34C253.19,-157.39 234.21,-145.64 219.05,-136.25"/>
<polygon fill="#63b8ff" stroke="#63b8ff" points="220.92,-133.29 210.57,-131 217.23,-139.24 220.92,-133.29"/>
</a>
</g>
</g>
<!-- Node16 -->
<g id="Node000016" class="node">
<title>Node16</title>
<g id="a_Node000016"><a xlink:href="../../dd/d91/vec2_8hpp.html" target="_top" xlink:title="Defines a 2D vector and provides its operations.">
<polygon fill="white" stroke="#666666" points="343,-129.75 290.25,-129.75 290.25,-110.5 343,-110.5 343,-129.75"/>
<text text-anchor="middle" x="316.62" y="-116.25" font-family="Times,serif" font-size="10.00">vec2.hpp</text>
</a>
</g>
</g>
<!-- Node1&#45;&gt;Node16 -->
<g id="edge21_Node000001_Node000016" class="edge">
<title>Node1&#45;&gt;Node16</title>
<g id="a_edge21_Node000001_Node000016"><a xlink:title=" ">
<path fill="none" stroke="#63b8ff" d="M286.57,-165.58C291.34,-158.53 298.19,-148.4 304.15,-139.58"/>
<polygon fill="#63b8ff" stroke="#63b8ff" points="307,-141.61 309.7,-131.36 301.2,-137.69 307,-141.61"/>
</a>
</g>
</g>
<!-- Node18 -->
<g id="Node000018" class="node">
<title>Node18</title>
<g id="a_Node000018"><a xlink:href="../../d9/dcd/vec3_8hpp.html" target="_top" xlink:title="Header file for the 3D vector definition.">
<polygon fill="white" stroke="#666666" points="418,-129.75 365.25,-129.75 365.25,-110.5 418,-110.5 418,-129.75"/>
<text text-anchor="middle" x="391.62" y="-116.25" font-family="Times,serif" font-size="10.00">vec3.hpp</text>
</a>
</g>
</g>
<!-- Node1&#45;&gt;Node18 -->
<g id="edge25_Node000001_Node000018" class="edge">
<title>Node1&#45;&gt;Node18</title>
<g id="a_edge25_Node000001_Node000018"><a xlink:title=" ">
<path fill="none" stroke="#63b8ff" d="M299.45,-165.34C316.68,-157.08 342.43,-144.73 362.33,-135.18"/>
<polygon fill="#63b8ff" stroke="#63b8ff" points="363.84,-138.34 371.34,-130.86 360.81,-132.03 363.84,-138.34"/>
</a>
</g>
</g>
<!-- Node20 -->
<g id="Node000020" class="node">
<title>Node20</title>
<g id="a_Node000020"><a xlink:href="../../dd/dc5/vec4_8hpp.html" target="_top" xlink:title="Contains the definition of the vec&lt;4, T&gt; structure.">
<polygon fill="white" stroke="#666666" points="491,-129.75 438.25,-129.75 438.25,-110.5 491,-110.5 491,-129.75"/>
<text text-anchor="middle" x="464.62" y="-116.25" font-family="Times,serif" font-size="10.00">vec4.hpp</text>
</a>
</g>
</g>
<!-- Node1&#45;&gt;Node20 -->
<g id="edge29_Node000001_Node000020" class="edge">
<title>Node1&#45;&gt;Node20</title>
<g id="a_edge29_Node000001_Node000020"><a xlink:title=" ">
<path fill="none" stroke="#63b8ff" d="M311.84,-165.34C343.62,-156.14 392.92,-141.88 426.87,-132.05"/>
<polygon fill="#63b8ff" stroke="#63b8ff" points="427.67,-135.46 436.3,-129.32 425.72,-128.74 427.67,-135.46"/>
</a>
</g>
</g>
<!-- Node22 -->
<g id="Node000022" class="node">
<title>Node22</title>
<g id="a_Node000022"><a xlink:href="../../d4/d02/vecn_8hpp.html" target="_top" xlink:title="Contains the definition of the generic vec&lt;L, T&gt; structure.">
<polygon fill="white" stroke="#666666" points="563,-129.75 510.25,-129.75 510.25,-110.5 563,-110.5 563,-129.75"/>
<text text-anchor="middle" x="536.62" y="-116.25" font-family="Times,serif" font-size="10.00">vecn.hpp</text>
</a>
</g>
</g>
<!-- Node1&#45;&gt;Node22 -->
<g id="edge33_Node000001_Node000022" class="edge">
<title>Node1&#45;&gt;Node22</title>
<g id="a_edge33_Node000001_Node000022"><a xlink:title=" ">
<path fill="none" stroke="#63b8ff" d="M327.27,-165.26C369.32,-156.96 433.13,-144.15 498.96,-129.84"/>
<polygon fill="#63b8ff" stroke="#63b8ff" points="499.47,-133.31 508.49,-127.76 497.97,-126.47 499.47,-133.31"/>
</a>
</g>
</g>
<!-- Node3 -->
<g id="Node000003" class="node">
<title>Node3</title>
<g id="a_Node000003"><a xlink:title=" ">
<polygon fill="#e0e0e0" stroke="#999999" points="84.75,-19.25 48.5,-19.25 48.5,0 84.75,0 84.75,-19.25"/>
<text text-anchor="middle" x="66.62" y="-5.75" font-family="Times,serif" font-size="10.00">array</text>
</a>
</g>
</g>
<!-- Node2&#45;&gt;Node3 -->
<g id="edge2_Node000002_Node000003" class="edge">
<title>Node2&#45;&gt;Node3</title>
<g id="a_edge2_Node000002_Node000003"><a xlink:title=" ">
<path fill="none" stroke="#63b8ff" d="M219.57,-54.78C189.75,-46.53 144.42,-33.84 95.74,-19.52"/>
<polygon fill="#63b8ff" stroke="#63b8ff" points="97.01,-16.25 86.43,-16.78 95.03,-22.96 97.01,-16.25"/>
</a>
</g>
</g>
<!-- Node4 -->
<g id="Node000004" class="node">
<title>Node4</title>
<g id="a_Node000004"><a xlink:title=" ">
<polygon fill="#e0e0e0" stroke="#999999" points="150,-19.25 103.25,-19.25 103.25,0 150,0 150,-19.25"/>
<text text-anchor="middle" x="126.62" y="-5.75" font-family="Times,serif" font-size="10.00">assert.h</text>
</a>
</g>
</g>
<!-- Node2&#45;&gt;Node4 -->
<g id="edge3_Node000002_Node000004" class="edge">
<title>Node2&#45;&gt;Node4</title>
<g id="a_edge3_Node000002_Node000004"><a xlink:title=" ">
<path fill="none" stroke="#63b8ff" d="M231.25,-54.84C211.34,-46.43 181.39,-33.77 158.62,-24.15"/>
<polygon fill="#63b8ff" stroke="#63b8ff" points="160.07,-20.96 149.5,-20.29 157.35,-27.41 160.07,-20.96"/>
</a>
</g>
</g>
<!-- Node5 -->
<g id="Node000005" class="node">
<title>Node5</title>
<g id="a_Node000005"><a xlink:title=" ">
<polygon fill="#e0e0e0" stroke="#999999" points="209,-19.25 168.25,-19.25 168.25,0 209,0 209,-19.25"/>
<text text-anchor="middle" x="188.62" y="-5.75" font-family="Times,serif" font-size="10.00">cmath</text>
</a>
</g>
</g>
<!-- Node2&#45;&gt;Node5 -->
<g id="edge4_Node000002_Node000005" class="edge">
<title>Node2&#45;&gt;Node5</title>
<g id="a_edge4_Node000002_Node000005"><a xlink:title=" ">
<path fill="none" stroke="#63b8ff" d="M241.77,-54.84C232.52,-47.15 219,-35.9 207.92,-26.68"/>
<polygon fill="#63b8ff" stroke="#63b8ff" points="210.41,-24.2 200.48,-20.49 205.93,-29.58 210.41,-24.2"/>
</a>
</g>
</g>
<!-- Node6 -->
<g id="Node000006" class="node">
<title>Node6</title>
<g id="a_Node000006"><a xlink:title=" ">
<polygon fill="#e0e0e0" stroke="#999999" points="277.88,-19.25 227.38,-19.25 227.38,0 277.88,0 277.88,-19.25"/>
<text text-anchor="middle" x="252.62" y="-5.75" font-family="Times,serif" font-size="10.00">concepts</text>
</a>
</g>
</g>
<!-- Node2&#45;&gt;Node6 -->
<g id="edge5_Node000002_Node000006" class="edge">
<title>Node2&#45;&gt;Node6</title>
<g id="a_edge5_Node000002_Node000006"><a xlink:title=" ">
<path fill="none" stroke="#63b8ff" d="M252.62,-55.08C252.62,-48.57 252.62,-39.42 252.62,-31.12"/>
<polygon fill="#63b8ff" stroke="#63b8ff" points="256.13,-31.12 252.63,-21.12 249.13,-31.12 256.13,-31.12"/>
</a>
</g>
</g>
<!-- Node7 -->
<g id="Node000007" class="node">
<title>Node7</title>
<g id="a_Node000007"><a xlink:title=" ">
<polygon fill="#e0e0e0" stroke="#999999" points="346.88,-19.25 296.38,-19.25 296.38,0 346.88,0 346.88,-19.25"/>
<text text-anchor="middle" x="321.62" y="-5.75" font-family="Times,serif" font-size="10.00">numbers</text>
</a>
</g>
</g>
<!-- Node2&#45;&gt;Node7 -->
<g id="edge6_Node000002_Node000007" class="edge">
<title>Node2&#45;&gt;Node7</title>
<g id="a_edge6_Node000002_Node000007"><a xlink:title=" ">
<path fill="none" stroke="#63b8ff" d="M264.33,-54.84C274.4,-47.07 289.17,-35.67 301.19,-26.4"/>
<polygon fill="#63b8ff" stroke="#63b8ff" points="303.12,-29.33 308.89,-20.45 298.84,-23.79 303.12,-29.33"/>
</a>
</g>
</g>
<!-- Node8 -->
<g id="Node000008" class="node">
<title>Node8</title>
<g id="a_Node000008"><a xlink:title=" ">
<polygon fill="#e0e0e0" stroke="#999999" points="412.38,-19.25 364.88,-19.25 364.88,0 412.38,0 412.38,-19.25"/>
<text text-anchor="middle" x="388.62" y="-5.75" font-family="Times,serif" font-size="10.00">ostream</text>
</a>
</g>
</g>
<!-- Node2&#45;&gt;Node8 -->
<g id="edge7_Node000002_Node000008" class="edge">
<title>Node2&#45;&gt;Node8</title>
<g id="a_edge7_Node000002_Node000008"><a xlink:title=" ">
<path fill="none" stroke="#63b8ff" d="M275.7,-54.84C297.38,-46.35 330.11,-33.54 354.75,-23.89"/>
<polygon fill="#63b8ff" stroke="#63b8ff" points="356,-27.16 364.03,-20.25 353.44,-20.64 356,-27.16"/>
</a>
</g>
</g>
<!-- Node9 -->
<g id="Node000009" class="node">
<title>Node9</title>
<g id="a_Node000009"><a xlink:title=" ">
<polygon fill="#e0e0e0" stroke="#999999" points="489,-19.25 430.25,-19.25 430.25,0 489,0 489,-19.25"/>
<text text-anchor="middle" x="459.62" y="-5.75" font-family="Times,serif" font-size="10.00">type_traits</text>
</a>
</g>
</g>
<!-- Node2&#45;&gt;Node9 -->
<g id="edge8_Node000002_Node000009" class="edge">
<title>Node2&#45;&gt;Node9</title>
<g id="a_edge8_Node000002_Node000009"><a xlink:title=" ">
<path fill="none" stroke="#63b8ff" d="M287.74,-54.84C324.17,-45.47 381.06,-30.84 419.3,-21"/>
<polygon fill="#63b8ff" stroke="#63b8ff" points="419.77,-24.49 428.58,-18.61 418.03,-17.71 419.77,-24.49"/>
</a>
</g>
</g>
<!-- Node10&#45;&gt;Node2 -->
<g id="edge10_Node000010_Node000002" class="edge">
<title>Node10&#45;&gt;Node2</title>
<g id="a_edge10_Node000010_Node000002"><a xlink:title=" ">
<path fill="none" stroke="#63b8ff" d="M58.32,-112.27C95.01,-103.51 159.09,-88.21 203.58,-77.59"/>
<polygon fill="#63b8ff" stroke="#63b8ff" points="204.34,-81 213.25,-75.28 202.71,-74.2 204.34,-81"/>
</a>
</g>
</g>
<!-- Node11 -->
<g id="Node000011" class="node">
<title>Node11</title>
<g id="a_Node000011"><a xlink:href="../../dd/d72/rvec2_8inl.html" target="_top" xlink:title=" ">
<polygon fill="white" stroke="#666666" points="51.25,-74.5 0,-74.5 0,-55.25 51.25,-55.25 51.25,-74.5"/>
<text text-anchor="middle" x="25.62" y="-61" font-family="Times,serif" font-size="10.00">rvec2.inl</text>
</a>
</g>
</g>
<!-- Node10&#45;&gt;Node11 -->
<g id="edge11_Node000010_Node000011" class="edge">
<title>Node10&#45;&gt;Node11</title>
<g id="a_edge11_Node000010_Node000011"><a xlink:title=" ">
<path fill="none" stroke="#63b8ff" d="M23.8,-110.33C21.89,-103.74 20.73,-94.46 20.57,-86.07"/>
<polygon fill="#63b8ff" stroke="#63b8ff" points="24.05,-86.52 21.02,-76.37 17.06,-86.2 24.05,-86.52"/>
</a>
</g>
</g>
<!-- Node11&#45;&gt;Node10 -->
<g id="edge12_Node000011_Node000010" class="edge">
<title>Node11&#45;&gt;Node10</title>
<g id="a_edge12_Node000011_Node000010"><a xlink:title=" ">
<path fill="none" stroke="#63b8ff" d="M31.51,-74.86C33.37,-81.42 34.52,-90.59 34.68,-98.88"/>
<polygon fill="#63b8ff" stroke="#63b8ff" points="31.19,-98.66 34.2,-108.82 38.18,-99 31.19,-98.66"/>
</a>
</g>
</g>
<!-- Node12&#45;&gt;Node2 -->
<g id="edge14_Node000012_Node000002" class="edge">
<title>Node12&#45;&gt;Node2</title>
<g id="a_edge14_Node000012_Node000002"><a xlink:title=" ">
<path fill="none" stroke="#63b8ff" d="M138.03,-110.09C160.14,-101.56 193.54,-88.67 218.59,-79.01"/>
<polygon fill="#63b8ff" stroke="#63b8ff" points="219.62,-82.36 227.69,-75.5 217.1,-75.83 219.62,-82.36"/>
</a>
</g>
</g>
<!-- Node13 -->
<g id="Node000013" class="node">
<title>Node13</title>
<g id="a_Node000013"><a xlink:href="../../d7/d70/rvec3_8inl.html" target="_top" xlink:title=" ">
<polygon fill="white" stroke="#666666" points="120.25,-74.5 69,-74.5 69,-55.25 120.25,-55.25 120.25,-74.5"/>
<text text-anchor="middle" x="94.62" y="-61" font-family="Times,serif" font-size="10.00">rvec3.inl</text>
</a>
</g>
</g>
<!-- Node12&#45;&gt;Node13 -->
<g id="edge15_Node000012_Node000013" class="edge">
<title>Node12&#45;&gt;Node13</title>
<g id="a_edge15_Node000012_Node000013"><a xlink:title=" ">
<path fill="none" stroke="#63b8ff" d="M106.16,-110.33C102.23,-103.67 98.22,-94.24 95.55,-85.78"/>
<polygon fill="#63b8ff" stroke="#63b8ff" points="99,-85.17 93.16,-76.33 92.21,-86.88 99,-85.17"/>
</a>
</g>
</g>
<!-- Node13&#45;&gt;Node12 -->
<g id="edge16_Node000013_Node000012" class="edge">
<title>Node13&#45;&gt;Node12</title>
<g id="a_edge16_Node000013_Node000012"><a xlink:title=" ">
<path fill="none" stroke="#63b8ff" d="M103.21,-74.86C107.09,-81.5 111.04,-90.8 113.69,-99.17"/>
<polygon fill="#63b8ff" stroke="#63b8ff" points="110.29,-100.02 116.12,-108.86 117.08,-98.31 110.29,-100.02"/>
</a>
</g>
</g>
<!-- Node14&#45;&gt;Node2 -->
<g id="edge18_Node000014_Node000002" class="edge">
<title>Node14&#45;&gt;Node2</title>
<g id="a_edge18_Node000014_Node000002"><a xlink:title=" ">
<path fill="none" stroke="#63b8ff" d="M204.46,-110.09C212.68,-102.55 224.61,-91.6 234.54,-82.48"/>
<polygon fill="#63b8ff" stroke="#63b8ff" points="236.82,-85.14 241.82,-75.8 232.08,-79.98 236.82,-85.14"/>
</a>
</g>
</g>
<!-- Node15 -->
<g id="Node000015" class="node">
<title>Node15</title>
<g id="a_Node000015"><a xlink:href="../../d1/d9f/rvec4_8inl.html" target="_top" xlink:title=" ">
<polygon fill="white" stroke="#666666" points="189.25,-74.5 138,-74.5 138,-55.25 189.25,-55.25 189.25,-74.5"/>
<text text-anchor="middle" x="163.62" y="-61" font-family="Times,serif" font-size="10.00">rvec4.inl</text>
</a>
</g>
</g>
<!-- Node14&#45;&gt;Node15 -->
<g id="edge19_Node000014_Node000015" class="edge">
<title>Node14&#45;&gt;Node15</title>
<g id="a_edge19_Node000014_Node000015"><a xlink:title=" ">
<path fill="none" stroke="#63b8ff" d="M184.34,-110.33C178.91,-103.51 172.81,-93.81 168.36,-85.2"/>
<polygon fill="#63b8ff" stroke="#63b8ff" points="171.6,-83.89 164.28,-76.24 165.23,-86.79 171.6,-83.89"/>
</a>
</g>
</g>
<!-- Node15&#45;&gt;Node14 -->
<g id="edge20_Node000015_Node000014" class="edge">
<title>Node15&#45;&gt;Node14</title>
<g id="a_edge20_Node000015_Node000014"><a xlink:title=" ">
<path fill="none" stroke="#63b8ff" d="M174.06,-74.86C179.5,-81.73 185.6,-91.46 190.02,-100.04"/>
<polygon fill="#63b8ff" stroke="#63b8ff" points="186.74,-101.28 194.05,-108.95 193.12,-98.4 186.74,-101.28"/>
</a>
</g>
</g>
<!-- Node16&#45;&gt;Node2 -->
<g id="edge22_Node000016_Node000002" class="edge">
<title>Node16&#45;&gt;Node2</title>
<g id="a_edge22_Node000016_Node000002"><a xlink:title=" ">
<path fill="none" stroke="#63b8ff" d="M305.77,-110.09C296.52,-102.4 283,-91.15 271.92,-81.93"/>
<polygon fill="#63b8ff" stroke="#63b8ff" points="274.41,-79.45 264.48,-75.74 269.93,-84.83 274.41,-79.45"/>
</a>
</g>
</g>
<!-- Node17 -->
<g id="Node000017" class="node">
<title>Node17</title>
<g id="a_Node000017"><a xlink:href="../../d2/d56/vec2_8inl.html" target="_top" xlink:title=" ">
<polygon fill="white" stroke="#666666" points="363.38,-74.5 315.88,-74.5 315.88,-55.25 363.38,-55.25 363.38,-74.5"/>
<text text-anchor="middle" x="339.62" y="-61" font-family="Times,serif" font-size="10.00">vec2.inl</text>
</a>
</g>
</g>
<!-- Node16&#45;&gt;Node17 -->
<g id="edge23_Node000016_Node000017" class="edge">
<title>Node16&#45;&gt;Node17</title>
<g id="a_edge23_Node000016_Node000017"><a xlink:title=" ">
<path fill="none" stroke="#63b8ff" d="M315.26,-110.33C316.78,-103.36 320.65,-93.37 325.05,-84.62"/>
<polygon fill="#63b8ff" stroke="#63b8ff" points="327.94,-86.61 329.8,-76.18 321.84,-83.18 327.94,-86.61"/>
</a>
</g>
</g>
<!-- Node17&#45;&gt;Node16 -->
<g id="edge24_Node000017_Node000016" class="edge">
<title>Node17&#45;&gt;Node16</title>
<g id="a_edge24_Node000017_Node000016"><a xlink:title=" ">
<path fill="none" stroke="#63b8ff" d="M340.95,-74.86C339.41,-81.81 335.57,-91.67 331.23,-100.33"/>
<polygon fill="#63b8ff" stroke="#63b8ff" points="328.19,-98.58 326.33,-109.01 334.29,-102.02 328.19,-98.58"/>
</a>
</g>
</g>
<!-- Node18&#45;&gt;Node2 -->
<g id="edge26_Node000018_Node000002" class="edge">
<title>Node18&#45;&gt;Node2</title>
<g id="a_edge26_Node000018_Node000002"><a xlink:title=" ">
<path fill="none" stroke="#63b8ff" d="M368.05,-110.09C345.78,-101.56 312.13,-88.67 286.9,-79.01"/>
<polygon fill="#63b8ff" stroke="#63b8ff" points="288.32,-75.8 277.73,-75.49 285.82,-82.34 288.32,-75.8"/>
</a>
</g>
</g>
<!-- Node19 -->
<g id="Node000019" class="node">
<title>Node19</title>
<g id="a_Node000019"><a xlink:href="../../d3/dc9/vec3_8inl.html" target="_top" xlink:title=" ">
<polygon fill="white" stroke="#666666" points="429.38,-74.5 381.88,-74.5 381.88,-55.25 429.38,-55.25 429.38,-74.5"/>
<text text-anchor="middle" x="405.62" y="-61" font-family="Times,serif" font-size="10.00">vec3.inl</text>
</a>
</g>
</g>
<!-- Node18&#45;&gt;Node19 -->
<g id="edge27_Node000018_Node000019" class="edge">
<title>Node18&#45;&gt;Node19</title>
<g id="a_edge27_Node000018_Node000019"><a xlink:title=" ">
<path fill="none" stroke="#63b8ff" d="M388.77,-110.33C389.1,-103.59 391.16,-94.02 393.93,-85.49"/>
<polygon fill="#63b8ff" stroke="#63b8ff" points="397.15,-86.86 397.51,-76.27 390.63,-84.33 397.15,-86.86"/>
</a>
</g>
</g>
<!-- Node19&#45;&gt;Node18 -->
<g id="edge28_Node000019_Node000018" class="edge">
<title>Node19&#45;&gt;Node18</title>
<g id="a_edge28_Node000019_Node000018"><a xlink:title=" ">
<path fill="none" stroke="#63b8ff" d="M408.47,-74.86C408.11,-81.65 406.03,-91.24 403.24,-99.75"/>
<polygon fill="#63b8ff" stroke="#63b8ff" points="400.04,-98.33 399.65,-108.92 406.56,-100.88 400.04,-98.33"/>
</a>
</g>
</g>
<!-- Node20&#45;&gt;Node2 -->
<g id="edge30_Node000020_Node000002" class="edge">
<title>Node20&#45;&gt;Node2</title>
<g id="a_edge30_Node000020_Node000002"><a xlink:title=" ">
<path fill="none" stroke="#63b8ff" d="M437.78,-112.38C403.1,-103.67 342.18,-88.37 299.73,-77.71"/>
<polygon fill="#63b8ff" stroke="#63b8ff" points="300.84,-74.38 290.29,-75.33 299.13,-81.17 300.84,-74.38"/>
</a>
</g>
</g>
<!-- Node21 -->
<g id="Node000021" class="node">
<title>Node21</title>
<g id="a_Node000021"><a xlink:href="../../da/d28/vec4_8inl.html" target="_top" xlink:title=" ">
<polygon fill="white" stroke="#666666" points="495.38,-74.5 447.88,-74.5 447.88,-55.25 495.38,-55.25 495.38,-74.5"/>
<text text-anchor="middle" x="471.62" y="-61" font-family="Times,serif" font-size="10.00">vec4.inl</text>
</a>
</g>
</g>
<!-- Node20&#45;&gt;Node21 -->
<g id="edge31_Node000020_Node000021" class="edge">
<title>Node20&#45;&gt;Node21</title>
<g id="a_edge31_Node000020_Node000021"><a xlink:title=" ">
<path fill="none" stroke="#63b8ff" d="M460.61,-110.33C460.06,-103.67 460.84,-94.24 462.45,-85.78"/>
<polygon fill="#63b8ff" stroke="#63b8ff" points="465.78,-86.88 464.86,-76.33 459,-85.15 465.78,-86.88"/>
</a>
</g>
</g>
<!-- Node21&#45;&gt;Node20 -->
<g id="edge32_Node000021_Node000020" class="edge">
<title>Node21&#45;&gt;Node20</title>
<g id="a_edge32_Node000021_Node000020"><a xlink:title=" ">
<path fill="none" stroke="#63b8ff" d="M475.65,-74.86C476.18,-81.58 475.38,-91.02 473.75,-99.46"/>
<polygon fill="#63b8ff" stroke="#63b8ff" points="470.43,-98.31 471.33,-108.87 477.21,-100.06 470.43,-98.31"/>
</a>
</g>
</g>
<!-- Node22&#45;&gt;Node2 -->
<g id="edge34_Node000022_Node000002" class="edge">
<title>Node22&#45;&gt;Node2</title>
<g id="a_edge34_Node000022_Node000002"><a xlink:title=" ">
<path fill="none" stroke="#63b8ff" d="M509.98,-112.75C506.5,-111.96 502.98,-111.19 499.62,-110.5 434.7,-97.08 359.7,-83.85 309.54,-75.32"/>
<polygon fill="#63b8ff" stroke="#63b8ff" points="310.22,-71.89 299.77,-73.67 309.05,-78.79 310.22,-71.89"/>
</a>
</g>
</g>
<!-- Node23 -->
<g id="Node000023" class="node">
<title>Node23</title>
<g id="a_Node000023"><a xlink:href="../../d6/d8c/vecn_8inl.html" target="_top" xlink:title=" ">
<polygon fill="white" stroke="#666666" points="561.38,-74.5 513.88,-74.5 513.88,-55.25 561.38,-55.25 561.38,-74.5"/>
<text text-anchor="middle" x="537.62" y="-61" font-family="Times,serif" font-size="10.00">vecn.inl</text>
</a>
</g>
</g>
<!-- Node22&#45;&gt;Node23 -->
<g id="edge35_Node000022_Node000023" class="edge">
<title>Node22&#45;&gt;Node23</title>
<g id="a_edge35_Node000022_Node000023"><a xlink:title=" ">
<path fill="none" stroke="#63b8ff" d="M531.62,-110.33C530.34,-103.74 530.04,-94.46 530.67,-86.07"/>
<polygon fill="#63b8ff" stroke="#63b8ff" points="534.11,-86.75 532.04,-76.36 527.18,-85.77 534.11,-86.75"/>
</a>
</g>
</g>
<!-- Node23&#45;&gt;Node22 -->
<g id="edge36_Node000023_Node000022" class="edge">
<title>Node23&#45;&gt;Node22</title>
<g id="a_edge36_Node000023_Node000022"><a xlink:title=" ">
<path fill="none" stroke="#63b8ff" d="M542.66,-74.86C543.93,-81.5 544.21,-90.8 543.56,-99.17"/>
<polygon fill="#63b8ff" stroke="#63b8ff" points="540.13,-98.44 542.17,-108.83 547.06,-99.43 540.13,-98.44"/>
</a>
</g>
</g>
</g>
</svg>

<g id="navigator" transform="translate(0 0)" fill="#404254">
  <rect fill="#f2f5e9" fill-opacity="0.5" stroke="#606060" stroke-width=".5" x="0" y="0" width="60" height="60"/>
  <use id="zoomplus" xlink:href="#zoomPlus" x="17" y="9" onmousedown="handleZoom(evt,'in')"/>
  <use id="zoomminus" xlink:href="#zoomMin" x="42" y="9" onmousedown="handleZoom(evt,'out')"/>
  <use id="reset" xlink:href="#resetDef" x="30" y="36" onmousedown="handleReset()"/>
   <use id="arrowup" xlink:href="#arrowUp" x="0" y="0" onmousedown="handlePan(0,-1)"/>
  <use id="arrowright" xlink:href="#arrowRight" x="0" y="0" onmousedown="handlePan(1,0)"/>
  <use id="arrowdown" xlink:href="#arrowDown" x="0" y="0" onmousedown="handlePan(0,1)"/>
  <use id="arrowleft" xlink:href="#arrowLeft" x="0" y="0" onmousedown="handlePan(-1,0)"/>
</g>
<svg viewBox="0 0 15 15" width="100%" height="30px" preserveAspectRatio="xMaxYMin meet">
 <g id="arrow_out" transform="scale(0.3 0.3)">
  <a xlink:href="vec_8hpp__incl_org.svg" target="_base">
   <rect id="button" ry="5" rx="5" y="6" x="6" height="38" width="38"
        fill="#f2f5e9" fill-opacity="0.5" stroke="#606060" stroke-width="1.0"/>
   <path id="arrow"
     d="M 11.500037,31.436501 C 11.940474,20.09759 22.043105,11.32322 32.158766,21.979434 L 37.068811,17.246167 C 37.068811,17.246167 37.088388,32 37.088388,32 L 22.160133,31.978069 C 22.160133,31.978069 26.997745,27.140456 26.997745,27.140456 C 18.528582,18.264221 13.291696,25.230495 11.500037,31.436501 z"
     style="fill:#404040;"/>
  </a>
 </g>
</svg>

<style type='text/css'>
<![CDATA[
[data-mouse-over-selected='false'] { opacity: 0.7; }
[data-mouse-over-selected='true']  { opacity: 1.0; }
]]>
</style>
<script type="application/ecmascript"><![CDATA[
document.addEventListener('DOMContentLoaded', (event) => {
  highlightEdges();
  highlightAdjacentNodes();
});
]]></script>
</svg>
