<?xml version="1.0" encoding="UTF-8" standalone="no"?>
<!DOCTYPE svg PUBLIC "-//W3C//DTD SVG 1.1//EN"
 "http://www.w3.org/Graphics/SVG/1.1/DTD/svg11.dtd">
<!-- Generated by graphviz version 9.0.0 (20230911.1827)
 -->
<!-- Title: include/math/vec3.inl Pages: 1 -->
<svg width="1360pt" height="469pt"
 viewBox="0.00 0.00 1360.00 469.25" xmlns="http://www.w3.org/2000/svg" xmlns:xlink="http://www.w3.org/1999/xlink">
<g id="graph0" class="graph" transform="scale(1 1) rotate(0) translate(4 465.25)">
<title>include/math/vec3.inl</title>
<!-- Node1 -->
<g id="Node000001" class="node">
<title>Node1</title>
<g id="a_Node000001"><a xlink:title=" ">
<polygon fill="#999999" stroke="#666666" points="553.5,-461.25 450.5,-461.25 450.5,-442 553.5,-442 553.5,-461.25"/>
<text text-anchor="middle" x="502" y="-447.75" font-family="Times,serif" font-size="10.00">include/math/vec3.inl</text>
</a>
</g>
</g>
<!-- Node2 -->
<g id="Node000002" class="node">
<title>Node2</title>
<g id="a_Node000002"><a xlink:href="../../d9/dcd/vec3_8hpp.html" target="_top" xlink:title="Header file for the 3D vector definition.">
<polygon fill="white" stroke="#666666" points="556.12,-406 447.88,-406 447.88,-386.75 556.12,-386.75 556.12,-406"/>
<text text-anchor="middle" x="502" y="-392.5" font-family="Times,serif" font-size="10.00">include/math/vec3.hpp</text>
</a>
</g>
</g>
<!-- Node1&#45;&gt;Node2 -->
<g id="edge1_Node000001_Node000002" class="edge">
<title>Node1&#45;&gt;Node2</title>
<g id="a_edge1_Node000001_Node000002"><a xlink:title=" ">
<path fill="none" stroke="#63b8ff" d="M495.44,-430.67C494.95,-422.3 495.4,-413 496.79,-406.36"/>
<polygon fill="#63b8ff" stroke="#63b8ff" points="491.94,-430.84 496.65,-440.33 498.88,-429.97 491.94,-430.84"/>
</a>
</g>
</g>
<!-- Node2&#45;&gt;Node1 -->
<g id="edge67_Node000002_Node000001" class="edge">
<title>Node2&#45;&gt;Node1</title>
<g id="a_edge67_Node000002_Node000001"><a xlink:title=" ">
<path fill="none" stroke="#63b8ff" d="M508.57,-417.57C509.04,-425.96 508.58,-435.24 507.17,-441.83"/>
<polygon fill="#63b8ff" stroke="#63b8ff" points="512.07,-417.37 507.39,-407.86 505.12,-418.21 512.07,-417.37"/>
</a>
</g>
</g>
<!-- Node3 -->
<g id="Node000003" class="node">
<title>Node3</title>
<g id="a_Node000003"><a xlink:href="../../d7/d7c/vec_8hpp.html" target="_top" xlink:title=" ">
<polygon fill="white" stroke="#666666" points="553.5,-350.75 450.5,-350.75 450.5,-331.5 553.5,-331.5 553.5,-350.75"/>
<text text-anchor="middle" x="502" y="-337.25" font-family="Times,serif" font-size="10.00">include/math/vec.hpp</text>
</a>
</g>
</g>
<!-- Node2&#45;&gt;Node3 -->
<g id="edge2_Node000002_Node000003" class="edge">
<title>Node2&#45;&gt;Node3</title>
<g id="a_edge2_Node000002_Node000003"><a xlink:title=" ">
<path fill="none" stroke="#63b8ff" d="M495.44,-375.42C494.95,-367.05 495.4,-357.75 496.79,-351.11"/>
<polygon fill="#63b8ff" stroke="#63b8ff" points="491.94,-375.59 496.65,-385.08 498.88,-374.72 491.94,-375.59"/>
</a>
</g>
</g>
<!-- Node3&#45;&gt;Node2 -->
<g id="edge20_Node000003_Node000002" class="edge">
<title>Node3&#45;&gt;Node2</title>
<g id="a_edge20_Node000003_Node000002"><a xlink:title=" ">
<path fill="none" stroke="#63b8ff" d="M508.57,-362.32C509.04,-370.71 508.58,-379.99 507.17,-386.58"/>
<polygon fill="#63b8ff" stroke="#63b8ff" points="512.07,-362.12 507.39,-352.61 505.12,-362.96 512.07,-362.12"/>
</a>
</g>
</g>
<!-- Node4 -->
<g id="Node000004" class="node">
<title>Node4</title>
<g id="a_Node000004"><a xlink:href="../../d4/d44/rvec2_8hpp.html" target="_top" xlink:title="Definitions for the rvec&lt;2, T&gt; specialized template representing 2D vectors with reference&#45;like seman...">
<polygon fill="white" stroke="#666666" points="112,-295.5 0,-295.5 0,-276.25 112,-276.25 112,-295.5"/>
<text text-anchor="middle" x="56" y="-282" font-family="Times,serif" font-size="10.00">include/math/rvec2.hpp</text>
</a>
</g>
</g>
<!-- Node3&#45;&gt;Node4 -->
<g id="edge3_Node000003_Node000004" class="edge">
<title>Node3&#45;&gt;Node4</title>
<g id="a_edge3_Node000003_Node000004"><a xlink:title=" ">
<path fill="none" stroke="#63b8ff" d="M438.77,-333.72C361.5,-325.3 227.15,-309.88 112.35,-295.54"/>
<polygon fill="#63b8ff" stroke="#63b8ff" points="438.38,-337.2 448.7,-334.8 439.14,-330.24 438.38,-337.2"/>
</a>
</g>
</g>
<!-- Node6 -->
<g id="Node000006" class="node">
<title>Node6</title>
<g id="a_Node000006"><a xlink:href="../../d9/dc3/rvec3_8hpp.html" target="_top" xlink:title="Provides the implementation of a 3D reference vector.">
<polygon fill="white" stroke="#666666" points="242,-295.5 130,-295.5 130,-276.25 242,-276.25 242,-295.5"/>
<text text-anchor="middle" x="186" y="-282" font-family="Times,serif" font-size="10.00">include/math/rvec3.hpp</text>
</a>
</g>
</g>
<!-- Node3&#45;&gt;Node6 -->
<g id="edge7_Node000003_Node000006" class="edge">
<title>Node3&#45;&gt;Node6</title>
<g id="a_edge7_Node000003_Node000006"><a xlink:title=" ">
<path fill="none" stroke="#63b8ff" d="M438.82,-330.38C378.74,-320.58 289.74,-305.57 234.88,-295.99"/>
<polygon fill="#63b8ff" stroke="#63b8ff" points="438.14,-333.82 448.57,-331.97 439.26,-326.91 438.14,-333.82"/>
</a>
</g>
</g>
<!-- Node8 -->
<g id="Node000008" class="node">
<title>Node8</title>
<g id="a_Node000008"><a xlink:href="../../d2/d88/rvec4_8hpp.html" target="_top" xlink:title="Defines a 4&#45;dimensional reference vector struct.">
<polygon fill="white" stroke="#666666" points="372,-295.5 260,-295.5 260,-276.25 372,-276.25 372,-295.5"/>
<text text-anchor="middle" x="316" y="-282" font-family="Times,serif" font-size="10.00">include/math/rvec4.hpp</text>
</a>
</g>
</g>
<!-- Node3&#45;&gt;Node8 -->
<g id="edge11_Node000003_Node000008" class="edge">
<title>Node3&#45;&gt;Node8</title>
<g id="a_edge11_Node000003_Node000008"><a xlink:title=" ">
<path fill="none" stroke="#63b8ff" d="M454.13,-328.07C418.6,-318.32 371.56,-304.8 342.48,-295.95"/>
<polygon fill="#63b8ff" stroke="#63b8ff" points="453.2,-331.44 463.77,-330.69 455.04,-324.69 453.2,-331.44"/>
</a>
</g>
</g>
<!-- Node10 -->
<g id="Node000010" class="node">
<title>Node10</title>
<g id="a_Node000010"><a xlink:href="../../d8/def/vec_8cpp.html" target="_top" xlink:title=" ">
<polygon fill="white" stroke="#666666" points="492.12,-295.5 389.88,-295.5 389.88,-276.25 492.12,-276.25 492.12,-295.5"/>
<text text-anchor="middle" x="441" y="-282" font-family="Times,serif" font-size="10.00">include/math/vec.cpp</text>
</a>
</g>
</g>
<!-- Node3&#45;&gt;Node10 -->
<g id="edge15_Node000003_Node000010" class="edge">
<title>Node3&#45;&gt;Node10</title>
<g id="a_edge15_Node000003_Node000010"><a xlink:title=" ">
<path fill="none" stroke="#63b8ff" d="M483.11,-323.64C472.58,-314.44 459.88,-303.35 451.19,-295.77"/>
<polygon fill="#63b8ff" stroke="#63b8ff" points="480.68,-326.16 490.51,-330.1 485.28,-320.88 480.68,-326.16"/>
</a>
</g>
</g>
<!-- Node11 -->
<g id="Node000011" class="node">
<title>Node11</title>
<g id="a_Node000011"><a xlink:href="../../dd/d91/vec2_8hpp.html" target="_top" xlink:title="Defines a 2D vector and provides its operations.">
<polygon fill="white" stroke="#666666" points="618.12,-295.5 509.88,-295.5 509.88,-276.25 618.12,-276.25 618.12,-295.5"/>
<text text-anchor="middle" x="564" y="-282" font-family="Times,serif" font-size="10.00">include/math/vec2.hpp</text>
</a>
</g>
</g>
<!-- Node3&#45;&gt;Node11 -->
<g id="edge16_Node000003_Node000011" class="edge">
<title>Node3&#45;&gt;Node11</title>
<g id="a_edge16_Node000003_Node000011"><a xlink:title=" ">
<path fill="none" stroke="#63b8ff" d="M515.24,-323.32C525.01,-314.23 538.04,-303.35 548.33,-295.86"/>
<polygon fill="#63b8ff" stroke="#63b8ff" points="512.84,-320.77 508.15,-330.27 517.74,-325.77 512.84,-320.77"/>
</a>
</g>
</g>
<!-- Node13 -->
<g id="Node000013" class="node">
<title>Node13</title>
<g id="a_Node000013"><a xlink:href="../../dd/dc5/vec4_8hpp.html" target="_top" xlink:title="Contains the definition of the vec&lt;4, T&gt; structure.">
<polygon fill="white" stroke="#666666" points="744.12,-295.5 635.88,-295.5 635.88,-276.25 744.12,-276.25 744.12,-295.5"/>
<text text-anchor="middle" x="690" y="-282" font-family="Times,serif" font-size="10.00">include/math/vec4.hpp</text>
</a>
</g>
</g>
<!-- Node3&#45;&gt;Node13 -->
<g id="edge21_Node000003_Node000013" class="edge">
<title>Node3&#45;&gt;Node13</title>
<g id="a_edge21_Node000003_Node000013"><a xlink:title=" ">
<path fill="none" stroke="#63b8ff" d="M539.66,-327.82C572.57,-318.09 619.93,-304.73 652.73,-295.95"/>
<polygon fill="#63b8ff" stroke="#63b8ff" points="538.71,-324.45 530.13,-330.66 540.71,-331.16 538.71,-324.45"/>
</a>
</g>
</g>
<!-- Node15 -->
<g id="Node000015" class="node">
<title>Node15</title>
<g id="a_Node000015"><a xlink:href="../../df/dc2/vec__math_8hpp.html" target="_top" xlink:title="Contains a collection of mathematical operations and utility functions for vector objects.">
<polygon fill="white" stroke="#666666" points="917.25,-295.5 788.75,-295.5 788.75,-276.25 917.25,-276.25 917.25,-295.5"/>
<text text-anchor="middle" x="853" y="-282" font-family="Times,serif" font-size="10.00">include/math/vec_math.hpp</text>
</a>
</g>
</g>
<!-- Node3&#45;&gt;Node15 -->
<g id="edge25_Node000003_Node000015" class="edge">
<title>Node3&#45;&gt;Node15</title>
<g id="a_edge25_Node000003_Node000015"><a xlink:title=" ">
<path fill="none" stroke="#63b8ff" d="M565.04,-330.56C629.7,-320.75 729.54,-305.6 793.05,-295.97"/>
<polygon fill="#63b8ff" stroke="#63b8ff" points="564.65,-327.08 555.29,-332.04 565.7,-334 564.65,-327.08"/>
</a>
</g>
</g>
<!-- Node36 -->
<g id="Node000036" class="node">
<title>Node36</title>
<g id="a_Node000036"><a xlink:href="../../d4/d02/vecn_8hpp.html" target="_top" xlink:title="Contains the definition of the generic vec&lt;L, T&gt; structure.">
<polygon fill="white" stroke="#666666" points="1097.12,-295.5 988.88,-295.5 988.88,-276.25 1097.12,-276.25 1097.12,-295.5"/>
<text text-anchor="middle" x="1043" y="-282" font-family="Times,serif" font-size="10.00">include/math/vecn.hpp</text>
</a>
</g>
</g>
<!-- Node3&#45;&gt;Node36 -->
<g id="edge63_Node000003_Node000036" class="edge">
<title>Node3&#45;&gt;Node36</title>
<g id="a_edge63_Node000003_Node000036"><a xlink:title=" ">
<path fill="none" stroke="#63b8ff" d="M564.8,-333.49C671.79,-322.66 887.38,-301.46 988.47,-291.84"/>
<polygon fill="#63b8ff" stroke="#63b8ff" points="564.65,-329.98 555.06,-334.47 565.36,-336.95 564.65,-329.98"/>
</a>
</g>
</g>
<!-- Node4&#45;&gt;Node3 -->
<g id="edge6_Node000004_Node000003" class="edge">
<title>Node4&#45;&gt;Node3</title>
<g id="a_edge6_Node000004_Node000003"><a xlink:title=" ">
<path fill="none" stroke="#63b8ff" d="M123.82,-294.72C125.91,-294.99 127.97,-295.25 130,-295.5 244.33,-309.78 378.13,-325.14 450.1,-333.6"/>
<polygon fill="#63b8ff" stroke="#63b8ff" points="124.36,-291.26 113.99,-293.46 123.47,-298.2 124.36,-291.26"/>
</a>
</g>
</g>
<!-- Node5 -->
<g id="Node000005" class="node">
<title>Node5</title>
<g id="a_Node000005"><a xlink:href="../../dd/d72/rvec2_8inl.html" target="_top" xlink:title=" ">
<polygon fill="white" stroke="#666666" points="109.38,-240.25 2.63,-240.25 2.63,-221 109.38,-221 109.38,-240.25"/>
<text text-anchor="middle" x="56" y="-226.75" font-family="Times,serif" font-size="10.00">include/math/rvec2.inl</text>
</a>
</g>
</g>
<!-- Node4&#45;&gt;Node5 -->
<g id="edge4_Node000004_Node000005" class="edge">
<title>Node4&#45;&gt;Node5</title>
<g id="a_edge4_Node000004_Node000005"><a xlink:title=" ">
<path fill="none" stroke="#63b8ff" d="M49.44,-264.92C48.95,-256.55 49.4,-247.25 50.79,-240.61"/>
<polygon fill="#63b8ff" stroke="#63b8ff" points="45.94,-265.09 50.65,-274.58 52.88,-264.22 45.94,-265.09"/>
</a>
</g>
</g>
<!-- Node5&#45;&gt;Node4 -->
<g id="edge5_Node000005_Node000004" class="edge">
<title>Node5&#45;&gt;Node4</title>
<g id="a_edge5_Node000005_Node000004"><a xlink:title=" ">
<path fill="none" stroke="#63b8ff" d="M62.57,-251.82C63.04,-260.21 62.58,-269.49 61.17,-276.08"/>
<polygon fill="#63b8ff" stroke="#63b8ff" points="66.07,-251.62 61.39,-242.11 59.12,-252.46 66.07,-251.62"/>
</a>
</g>
</g>
<!-- Node6&#45;&gt;Node3 -->
<g id="edge10_Node000006_Node000003" class="edge">
<title>Node6&#45;&gt;Node3</title>
<g id="a_edge10_Node000006_Node000003"><a xlink:title=" ">
<path fill="none" stroke="#63b8ff" d="M253.51,-297.33C313.53,-307.14 399.73,-321.68 453.27,-331.03"/>
<polygon fill="#63b8ff" stroke="#63b8ff" points="254.18,-293.89 243.75,-295.73 253.05,-300.8 254.18,-293.89"/>
</a>
</g>
</g>
<!-- Node7 -->
<g id="Node000007" class="node">
<title>Node7</title>
<g id="a_Node000007"><a xlink:href="../../d7/d70/rvec3_8inl.html" target="_top" xlink:title=" ">
<polygon fill="white" stroke="#666666" points="239.38,-240.25 132.62,-240.25 132.62,-221 239.38,-221 239.38,-240.25"/>
<text text-anchor="middle" x="186" y="-226.75" font-family="Times,serif" font-size="10.00">include/math/rvec3.inl</text>
</a>
</g>
</g>
<!-- Node6&#45;&gt;Node7 -->
<g id="edge8_Node000006_Node000007" class="edge">
<title>Node6&#45;&gt;Node7</title>
<g id="a_edge8_Node000006_Node000007"><a xlink:title=" ">
<path fill="none" stroke="#63b8ff" d="M179.44,-264.92C178.95,-256.55 179.4,-247.25 180.79,-240.61"/>
<polygon fill="#63b8ff" stroke="#63b8ff" points="175.94,-265.09 180.65,-274.58 182.88,-264.22 175.94,-265.09"/>
</a>
</g>
</g>
<!-- Node7&#45;&gt;Node6 -->
<g id="edge9_Node000007_Node000006" class="edge">
<title>Node7&#45;&gt;Node6</title>
<g id="a_edge9_Node000007_Node000006"><a xlink:title=" ">
<path fill="none" stroke="#63b8ff" d="M192.57,-251.82C193.04,-260.21 192.58,-269.49 191.17,-276.08"/>
<polygon fill="#63b8ff" stroke="#63b8ff" points="196.07,-251.62 191.39,-242.11 189.12,-252.46 196.07,-251.62"/>
</a>
</g>
</g>
<!-- Node8&#45;&gt;Node3 -->
<g id="edge14_Node000008_Node000003" class="edge">
<title>Node8&#45;&gt;Node3</title>
<g id="a_edge14_Node000008_Node000003"><a xlink:title=" ">
<path fill="none" stroke="#63b8ff" d="M363.58,-298.85C399.21,-308.62 446.52,-322.22 475.66,-331.09"/>
<polygon fill="#63b8ff" stroke="#63b8ff" points="364.96,-295.6 354.39,-296.35 363.12,-302.36 364.96,-295.6"/>
</a>
</g>
</g>
<!-- Node9 -->
<g id="Node000009" class="node">
<title>Node9</title>
<g id="a_Node000009"><a xlink:href="../../d1/d9f/rvec4_8inl.html" target="_top" xlink:title=" ">
<polygon fill="white" stroke="#666666" points="369.38,-240.25 262.62,-240.25 262.62,-221 369.38,-221 369.38,-240.25"/>
<text text-anchor="middle" x="316" y="-226.75" font-family="Times,serif" font-size="10.00">include/math/rvec4.inl</text>
</a>
</g>
</g>
<!-- Node8&#45;&gt;Node9 -->
<g id="edge12_Node000008_Node000009" class="edge">
<title>Node8&#45;&gt;Node9</title>
<g id="a_edge12_Node000008_Node000009"><a xlink:title=" ">
<path fill="none" stroke="#63b8ff" d="M309.44,-264.92C308.95,-256.55 309.4,-247.25 310.79,-240.61"/>
<polygon fill="#63b8ff" stroke="#63b8ff" points="305.94,-265.09 310.65,-274.58 312.88,-264.22 305.94,-265.09"/>
</a>
</g>
</g>
<!-- Node9&#45;&gt;Node8 -->
<g id="edge13_Node000009_Node000008" class="edge">
<title>Node9&#45;&gt;Node8</title>
<g id="a_edge13_Node000009_Node000008"><a xlink:title=" ">
<path fill="none" stroke="#63b8ff" d="M322.57,-251.82C323.04,-260.21 322.58,-269.49 321.17,-276.08"/>
<polygon fill="#63b8ff" stroke="#63b8ff" points="326.07,-251.62 321.39,-242.11 319.12,-252.46 326.07,-251.62"/>
</a>
</g>
</g>
<!-- Node11&#45;&gt;Node3 -->
<g id="edge17_Node000011_Node000003" class="edge">
<title>Node11&#45;&gt;Node3</title>
<g id="a_edge17_Node000011_Node000003"><a xlink:title=" ">
<path fill="none" stroke="#63b8ff" d="M550.67,-303.76C540.94,-312.82 527.98,-323.63 517.73,-331.09"/>
<polygon fill="#63b8ff" stroke="#63b8ff" points="553.05,-306.33 557.75,-296.83 548.15,-301.33 553.05,-306.33"/>
</a>
</g>
</g>
<!-- Node12 -->
<g id="Node000012" class="node">
<title>Node12</title>
<g id="a_Node000012"><a xlink:href="../../d2/d56/vec2_8inl.html" target="_top" xlink:title=" ">
<polygon fill="white" stroke="#666666" points="615.5,-240.25 512.5,-240.25 512.5,-221 615.5,-221 615.5,-240.25"/>
<text text-anchor="middle" x="564" y="-226.75" font-family="Times,serif" font-size="10.00">include/math/vec2.inl</text>
</a>
</g>
</g>
<!-- Node11&#45;&gt;Node12 -->
<g id="edge18_Node000011_Node000012" class="edge">
<title>Node11&#45;&gt;Node12</title>
<g id="a_edge18_Node000011_Node000012"><a xlink:title=" ">
<path fill="none" stroke="#63b8ff" d="M557.44,-264.92C556.95,-256.55 557.4,-247.25 558.79,-240.61"/>
<polygon fill="#63b8ff" stroke="#63b8ff" points="553.94,-265.09 558.65,-274.58 560.88,-264.22 553.94,-265.09"/>
</a>
</g>
</g>
<!-- Node12&#45;&gt;Node11 -->
<g id="edge19_Node000012_Node000011" class="edge">
<title>Node12&#45;&gt;Node11</title>
<g id="a_edge19_Node000012_Node000011"><a xlink:title=" ">
<path fill="none" stroke="#63b8ff" d="M570.57,-251.82C571.04,-260.21 570.58,-269.49 569.17,-276.08"/>
<polygon fill="#63b8ff" stroke="#63b8ff" points="574.07,-251.62 569.39,-242.11 567.12,-252.46 574.07,-251.62"/>
</a>
</g>
</g>
<!-- Node13&#45;&gt;Node3 -->
<g id="edge22_Node000013_Node000003" class="edge">
<title>Node13&#45;&gt;Node3</title>
<g id="a_edge22_Node000013_Node000003"><a xlink:title=" ">
<path fill="none" stroke="#63b8ff" d="M652.17,-299.23C619.21,-308.98 571.86,-322.33 539.11,-331.09"/>
<polygon fill="#63b8ff" stroke="#63b8ff" points="653.14,-302.6 661.73,-296.38 651.14,-295.89 653.14,-302.6"/>
</a>
</g>
</g>
<!-- Node14 -->
<g id="Node000014" class="node">
<title>Node14</title>
<g id="a_Node000014"><a xlink:href="../../da/d28/vec4_8inl.html" target="_top" xlink:title=" ">
<polygon fill="white" stroke="#666666" points="736.5,-240.25 633.5,-240.25 633.5,-221 736.5,-221 736.5,-240.25"/>
<text text-anchor="middle" x="685" y="-226.75" font-family="Times,serif" font-size="10.00">include/math/vec4.inl</text>
</a>
</g>
</g>
<!-- Node13&#45;&gt;Node14 -->
<g id="edge23_Node000013_Node000014" class="edge">
<title>Node13&#45;&gt;Node14</title>
<g id="a_edge23_Node000013_Node000014"><a xlink:title=" ">
<path fill="none" stroke="#63b8ff" d="M681.57,-264.92C680.29,-256.55 679.87,-247.25 680.64,-240.61"/>
<polygon fill="#63b8ff" stroke="#63b8ff" points="678.13,-265.58 683.68,-274.6 684.97,-264.09 678.13,-265.58"/>
</a>
</g>
</g>
<!-- Node14&#45;&gt;Node13 -->
<g id="edge24_Node000014_Node000013" class="edge">
<title>Node14&#45;&gt;Node13</title>
<g id="a_edge24_Node000014_Node000013"><a xlink:title=" ">
<path fill="none" stroke="#63b8ff" d="M693.47,-251.82C694.73,-260.21 695.13,-269.49 694.34,-276.08"/>
<polygon fill="#63b8ff" stroke="#63b8ff" points="696.9,-251.13 691.37,-242.09 690.06,-252.6 696.9,-251.13"/>
</a>
</g>
</g>
<!-- Node16 -->
<g id="Node000016" class="node">
<title>Node16</title>
<g id="a_Node000016"><a xlink:href="../../dc/dc2/mat_8hpp.html" target="_top" xlink:title="Provides matrix definitions tailored for various sizes and primitive types.">
<polygon fill="white" stroke="#666666" points="859.25,-240.25 754.75,-240.25 754.75,-221 859.25,-221 859.25,-240.25"/>
<text text-anchor="middle" x="807" y="-226.75" font-family="Times,serif" font-size="10.00">include/math/mat.hpp</text>
</a>
</g>
</g>
<!-- Node15&#45;&gt;Node16 -->
<g id="edge26_Node000015_Node000016" class="edge">
<title>Node15&#45;&gt;Node16</title>
<g id="a_edge26_Node000015_Node000016"><a xlink:title=" ">
<path fill="none" stroke="#63b8ff" d="M838,-267.51C830.24,-258.53 821.1,-247.95 814.76,-240.61"/>
<polygon fill="#63b8ff" stroke="#63b8ff" points="835.23,-269.66 844.41,-274.94 840.53,-265.08 835.23,-269.66"/>
</a>
</g>
</g>
<!-- Node35 -->
<g id="Node000035" class="node">
<title>Node35</title>
<g id="a_Node000035"><a xlink:href="../../dc/d15/vec__math_8inl.html" target="_top" xlink:title=" ">
<polygon fill="white" stroke="#666666" points="1000.62,-240.25 877.38,-240.25 877.38,-221 1000.62,-221 1000.62,-240.25"/>
<text text-anchor="middle" x="939" y="-226.75" font-family="Times,serif" font-size="10.00">include/math/vec_math.inl</text>
</a>
</g>
</g>
<!-- Node15&#45;&gt;Node35 -->
<g id="edge61_Node000015_Node000035" class="edge">
<title>Node15&#45;&gt;Node35</title>
<g id="a_edge61_Node000015_Node000035"><a xlink:title=" ">
<path fill="none" stroke="#63b8ff" d="M871.6,-269.53C885.67,-260.2 904.73,-248.6 919.11,-240.7"/>
<polygon fill="#63b8ff" stroke="#63b8ff" points="869.9,-266.45 863.62,-274.99 873.85,-272.23 869.9,-266.45"/>
</a>
</g>
</g>
<!-- Node17 -->
<g id="Node000017" class="node">
<title>Node17</title>
<g id="a_Node000017"><a xlink:href="../../d4/d78/math_8hpp.html" target="_top" xlink:title="Provides various mathematical utilities, vector operations, and custom hash specializations.">
<polygon fill="white" stroke="#666666" points="921.25,-129.75 834.75,-129.75 834.75,-110.5 921.25,-110.5 921.25,-129.75"/>
<text text-anchor="middle" x="878" y="-116.25" font-family="Times,serif" font-size="10.00">include/math.hpp</text>
</a>
</g>
</g>
<!-- Node16&#45;&gt;Node17 -->
<g id="edge27_Node000016_Node000017" class="edge">
<title>Node16&#45;&gt;Node17</title>
<g id="a_edge27_Node000016_Node000017"><a xlink:title=" ">
<path fill="none" stroke="#63b8ff" d="M842.17,-215.44C855.13,-208.33 868.47,-198.33 876,-185 885.82,-167.61 882.82,-143.1 880.17,-130.07"/>
<polygon fill="#63b8ff" stroke="#63b8ff" points="840.71,-212.26 833.34,-219.86 843.84,-218.52 840.71,-212.26"/>
</a>
</g>
</g>
<!-- Node25 -->
<g id="Node000025" class="node">
<title>Node25</title>
<g id="a_Node000025"><a xlink:href="../../d1/dea/mat_8cpp.html" target="_top" xlink:title=" ">
<polygon fill="white" stroke="#666666" points="728.88,-185 625.12,-185 625.12,-165.75 728.88,-165.75 728.88,-185"/>
<text text-anchor="middle" x="677" y="-171.5" font-family="Times,serif" font-size="10.00">include/math/mat.cpp</text>
</a>
</g>
</g>
<!-- Node16&#45;&gt;Node25 -->
<g id="edge43_Node000016_Node000025" class="edge">
<title>Node16&#45;&gt;Node25</title>
<g id="a_edge43_Node000016_Node000025"><a xlink:title=" ">
<path fill="none" stroke="#63b8ff" d="M774.43,-216.28C750.93,-206.66 719.83,-193.92 699.16,-185.45"/>
<polygon fill="#63b8ff" stroke="#63b8ff" points="772.97,-219.47 783.55,-220.02 775.62,-212.99 772.97,-219.47"/>
</a>
</g>
</g>
<!-- Node26 -->
<g id="Node000026" class="node">
<title>Node26</title>
<g id="a_Node000026"><a xlink:href="../../dc/d4a/mat__math_8hpp.html" target="_top" xlink:title="Defines various matrix mathematical operations.">
<polygon fill="white" stroke="#666666" points="607,-185 477,-185 477,-165.75 607,-165.75 607,-185"/>
<text text-anchor="middle" x="542" y="-171.5" font-family="Times,serif" font-size="10.00">include/math/mat_math.hpp</text>
</a>
</g>
</g>
<!-- Node16&#45;&gt;Node26 -->
<g id="edge44_Node000016_Node000026" class="edge">
<title>Node16&#45;&gt;Node26</title>
<g id="a_edge44_Node000016_Node000026"><a xlink:title=" ">
<path fill="none" stroke="#63b8ff" d="M745.43,-218.38C695,-208.58 625.24,-194.53 581.85,-185.43"/>
<polygon fill="#63b8ff" stroke="#63b8ff" points="744.55,-221.78 755.03,-220.24 745.88,-214.91 744.55,-221.78"/>
</a>
</g>
</g>
<!-- Node28 -->
<g id="Node000028" class="node">
<title>Node28</title>
<g id="a_Node000028"><a xlink:href="../../dd/dad/matnxn_8hpp.html" target="_top" xlink:title="Provides the definition of a generic NxN matrix for mathematical operations.">
<polygon fill="white" stroke="#666666" points="866.75,-185 747.25,-185 747.25,-165.75 866.75,-165.75 866.75,-185"/>
<text text-anchor="middle" x="807" y="-171.5" font-family="Times,serif" font-size="10.00">include/math/matnxn.hpp</text>
</a>
</g>
</g>
<!-- Node16&#45;&gt;Node28 -->
<g id="edge48_Node000016_Node000028" class="edge">
<title>Node16&#45;&gt;Node28</title>
<g id="a_edge48_Node000016_Node000028"><a xlink:title=" ">
<path fill="none" stroke="#63b8ff" d="M800.44,-209.67C799.95,-201.3 800.4,-192 801.79,-185.36"/>
<polygon fill="#63b8ff" stroke="#63b8ff" points="796.94,-209.84 801.65,-219.33 803.88,-208.97 796.94,-209.84"/>
</a>
</g>
</g>
<!-- Node30 -->
<g id="Node000030" class="node">
<title>Node30</title>
<g id="a_Node000030"><a xlink:href="../../db/d65/quaternion_8hpp.html" target="_top" xlink:title="Quaternion operations and related mathematical functions.">
<polygon fill="white" stroke="#666666" points="1071.12,-185 938.88,-185 938.88,-165.75 1071.12,-165.75 1071.12,-185"/>
<text text-anchor="middle" x="1005" y="-171.5" font-family="Times,serif" font-size="10.00">include/math/quaternion.hpp</text>
</a>
</g>
</g>
<!-- Node16&#45;&gt;Node30 -->
<g id="edge52_Node000016_Node000030" class="edge">
<title>Node16&#45;&gt;Node30</title>
<g id="a_edge52_Node000016_Node000030"><a xlink:title=" ">
<path fill="none" stroke="#63b8ff" d="M851.36,-217.7C887.64,-207.94 938.19,-194.34 971.25,-185.45"/>
<polygon fill="#63b8ff" stroke="#63b8ff" points="850.8,-214.22 842.05,-220.2 852.62,-220.98 850.8,-214.22"/>
</a>
</g>
</g>
<!-- Node33 -->
<g id="Node000033" class="node">
<title>Node33</title>
<g id="a_Node000033"><a xlink:href="../../db/de9/rmatnxn_8hpp.html" target="_top" xlink:title="Specialized representation of matrices using reference semantics.">
<polygon fill="white" stroke="#666666" points="1283.62,-185 1160.38,-185 1160.38,-165.75 1283.62,-165.75 1283.62,-185"/>
<text text-anchor="middle" x="1222" y="-171.5" font-family="Times,serif" font-size="10.00">include/math/rmatnxn.hpp</text>
</a>
</g>
</g>
<!-- Node16&#45;&gt;Node33 -->
<g id="edge57_Node000016_Node000033" class="edge">
<title>Node16&#45;&gt;Node33</title>
<g id="a_edge57_Node000016_Node000033"><a xlink:title=" ">
<path fill="none" stroke="#63b8ff" d="M870.62,-219.45C973.29,-205.81 1090.16,-191.35 1159.98,-183.14"/>
<polygon fill="#63b8ff" stroke="#63b8ff" points="870.41,-215.95 860.96,-220.74 871.34,-222.89 870.41,-215.95"/>
</a>
</g>
</g>
<!-- Node18 -->
<g id="Node000018" class="node">
<title>Node18</title>
<g id="a_Node000018"><a xlink:href="../../d7/de4/box_8hpp.html" target="_top" xlink:title="Defines a templated bounding box class for 3D primitives.">
<polygon fill="white" stroke="#666666" points="601.88,-74.5 498.12,-74.5 498.12,-55.25 601.88,-55.25 601.88,-74.5"/>
<text text-anchor="middle" x="550" y="-61" font-family="Times,serif" font-size="10.00">include/math/box.hpp</text>
</a>
</g>
</g>
<!-- Node17&#45;&gt;Node18 -->
<g id="edge28_Node000017_Node000018" class="edge">
<title>Node17&#45;&gt;Node18</title>
<g id="a_edge28_Node000017_Node000018"><a xlink:title=" ">
<path fill="none" stroke="#63b8ff" d="M823.15,-111.51C821.07,-111.17 819.01,-110.83 817,-110.5 741.2,-98.09 653.64,-83.97 599.96,-75"/>
<polygon fill="#63b8ff" stroke="#63b8ff" points="822.52,-114.95 832.95,-113.11 823.65,-108.04 822.52,-114.95"/>
</a>
</g>
</g>
<!-- Node19 -->
<g id="Node000019" class="node">
<title>Node19</title>
<g id="a_Node000019"><a xlink:href="../../d6/d02/intersection_8hpp.html" target="_top" xlink:title="Provides functionalities to represent and handle intersections in 3D space.">
<polygon fill="white" stroke="#666666" points="756,-74.5 620,-74.5 620,-55.25 756,-55.25 756,-74.5"/>
<text text-anchor="middle" x="688" y="-61" font-family="Times,serif" font-size="10.00">include/math/intersection.hpp</text>
</a>
</g>
</g>
<!-- Node17&#45;&gt;Node19 -->
<g id="edge30_Node000017_Node000019" class="edge">
<title>Node17&#45;&gt;Node19</title>
<g id="a_edge30_Node000017_Node000019"><a xlink:title=" ">
<path fill="none" stroke="#63b8ff" d="M829.7,-107.2C793.37,-97.44 745.04,-83.84 715.16,-74.95"/>
<polygon fill="#63b8ff" stroke="#63b8ff" points="828.53,-110.51 839.09,-109.7 830.33,-103.74 828.53,-110.51"/>
</a>
</g>
</g>
<!-- Node21 -->
<g id="Node000021" class="node">
<title>Node21</title>
<g id="a_Node000021"><a xlink:href="../../d1/df2/random_8hpp.html" target="_top" xlink:title="Provides functionality for random number generation and manipulation in vector spaces.">
<polygon fill="white" stroke="#666666" points="893.75,-74.5 774.25,-74.5 774.25,-55.25 893.75,-55.25 893.75,-74.5"/>
<text text-anchor="middle" x="834" y="-61" font-family="Times,serif" font-size="10.00">include/math/random.hpp</text>
</a>
</g>
</g>
<!-- Node17&#45;&gt;Node21 -->
<g id="edge34_Node000017_Node000021" class="edge">
<title>Node17&#45;&gt;Node21</title>
<g id="a_edge34_Node000017_Node000021"><a xlink:title=" ">
<path fill="none" stroke="#63b8ff" d="M857.79,-102.32C849.45,-93.23 840.84,-82.35 836.22,-74.86"/>
<polygon fill="#63b8ff" stroke="#63b8ff" points="855.04,-104.51 864.51,-109.25 860.06,-99.63 855.04,-104.51"/>
</a>
</g>
</g>
<!-- Node22 -->
<g id="Node000022" class="node">
<title>Node22</title>
<g id="a_Node000022"><a xlink:href="../../db/d1d/ray_8hpp.html" target="_top" xlink:title="Contains the definition of the Ray class.">
<polygon fill="white" stroke="#666666" points="1189.75,-74.5 1088.25,-74.5 1088.25,-55.25 1189.75,-55.25 1189.75,-74.5"/>
<text text-anchor="middle" x="1139" y="-61" font-family="Times,serif" font-size="10.00">include/math/ray.hpp</text>
</a>
</g>
</g>
<!-- Node17&#45;&gt;Node22 -->
<g id="edge36_Node000017_Node000022" class="edge">
<title>Node17&#45;&gt;Node22</title>
<g id="a_edge36_Node000017_Node000022"><a xlink:title=" ">
<path fill="none" stroke="#63b8ff" d="M928.35,-107.7C974.79,-97.9 1043.19,-83.97 1089.39,-74.93"/>
<polygon fill="#63b8ff" stroke="#63b8ff" points="927.88,-104.22 918.82,-109.72 929.33,-111.07 927.88,-104.22"/>
</a>
</g>
</g>
<!-- Node24 -->
<g id="Node000024" class="node">
<title>Node24</title>
<g id="a_Node000024"><a xlink:href="../../d9/d6c/triangle_8hpp.html" target="_top" xlink:title="Defines the Triangle structure and methods for ray&#45;triangle intersection.">
<polygon fill="white" stroke="#666666" points="1069.75,-74.5 950.25,-74.5 950.25,-55.25 1069.75,-55.25 1069.75,-74.5"/>
<text text-anchor="middle" x="1010" y="-61" font-family="Times,serif" font-size="10.00">include/math/triangle.hpp</text>
</a>
</g>
</g>
<!-- Node17&#45;&gt;Node24 -->
<g id="edge41_Node000017_Node000024" class="edge">
<title>Node17&#45;&gt;Node24</title>
<g id="a_edge41_Node000017_Node000024"><a xlink:title=" ">
<path fill="none" stroke="#63b8ff" d="M905.44,-105.65C928,-96.04 959.63,-83.38 982.27,-74.95"/>
<polygon fill="#63b8ff" stroke="#63b8ff" points="904.35,-102.31 896.56,-109.49 907.13,-108.73 904.35,-102.31"/>
</a>
</g>
</g>
<!-- Node18&#45;&gt;Node17 -->
<g id="edge29_Node000018_Node000017" class="edge">
<title>Node18&#45;&gt;Node17</title>
<g id="a_edge29_Node000018_Node000017"><a xlink:title=" ">
<path fill="none" stroke="#63b8ff" d="M613.29,-74.93C671.04,-83.87 758.46,-97.97 834.28,-110.38"/>
<polygon fill="#63b8ff" stroke="#63b8ff" points="614.06,-71.51 603.65,-73.44 613,-78.43 614.06,-71.51"/>
</a>
</g>
</g>
<!-- Node19&#45;&gt;Node17 -->
<g id="edge31_Node000019_Node000017" class="edge">
<title>Node19&#45;&gt;Node17</title>
<g id="a_edge31_Node000019_Node000017"><a xlink:title=" ">
<path fill="none" stroke="#63b8ff" d="M736.48,-77.85C772.85,-87.62 821.17,-101.22 850.99,-110.09"/>
<polygon fill="#63b8ff" stroke="#63b8ff" points="737.64,-74.54 727.08,-75.34 735.84,-81.3 737.64,-74.54"/>
</a>
</g>
</g>
<!-- Node20 -->
<g id="Node000020" class="node">
<title>Node20</title>
<g id="a_Node000020"><a xlink:href="../../d7/d82/plane_8hpp.html" target="_top" xlink:title="Provides the definition of the Plane structure and its associated operations.">
<polygon fill="white" stroke="#666666" points="977.25,-19.25 866.75,-19.25 866.75,0 977.25,0 977.25,-19.25"/>
<text text-anchor="middle" x="922" y="-5.75" font-family="Times,serif" font-size="10.00">include/math/plane.hpp</text>
</a>
</g>
</g>
<!-- Node19&#45;&gt;Node20 -->
<g id="edge32_Node000019_Node000020" class="edge">
<title>Node19&#45;&gt;Node20</title>
<g id="a_edge32_Node000019_Node000020"><a xlink:title=" ">
<path fill="none" stroke="#63b8ff" d="M739.04,-52.26C782.05,-42.47 842.72,-28.67 882.2,-19.68"/>
<polygon fill="#63b8ff" stroke="#63b8ff" points="738.41,-48.81 729.44,-54.45 739.96,-55.64 738.41,-48.81"/>
</a>
</g>
</g>
<!-- Node20&#45;&gt;Node17 -->
<g id="edge33_Node000020_Node000017" class="edge">
<title>Node20&#45;&gt;Node17</title>
<g id="a_edge33_Node000020_Node000017"><a xlink:title=" ">
<path fill="none" stroke="#63b8ff" d="M917.35,-30.33C914.02,-43.16 909.08,-60.12 903,-74.5 897.54,-87.42 889.29,-101.39 883.78,-110.19"/>
<polygon fill="#63b8ff" stroke="#63b8ff" points="920.65,-31.53 919.65,-20.99 913.86,-29.86 920.65,-31.53"/>
</a>
</g>
</g>
<!-- Node21&#45;&gt;Node17 -->
<g id="edge35_Node000021_Node000017" class="edge">
<title>Node21&#45;&gt;Node17</title>
<g id="a_edge35_Node000021_Node000017"><a xlink:title=" ">
<path fill="none" stroke="#63b8ff" d="M854.42,-82.91C862.77,-92.04 871.35,-102.9 875.9,-110.33"/>
<polygon fill="#63b8ff" stroke="#63b8ff" points="857.15,-80.7 847.68,-75.95 852.12,-85.57 857.15,-80.7"/>
</a>
</g>
</g>
<!-- Node22&#45;&gt;Node17 -->
<g id="edge37_Node000022_Node000017" class="edge">
<title>Node22&#45;&gt;Node17</title>
<g id="a_edge37_Node000022_Node000017"><a xlink:title=" ">
<path fill="none" stroke="#63b8ff" d="M1088.68,-77.3C1040.14,-87.54 967.57,-102.3 921.47,-111.27"/>
<polygon fill="#63b8ff" stroke="#63b8ff" points="1089.33,-80.74 1098.39,-75.24 1087.88,-73.89 1089.33,-80.74"/>
</a>
</g>
</g>
<!-- Node22&#45;&gt;Node20 -->
<g id="edge38_Node000022_Node000020" class="edge">
<title>Node22&#45;&gt;Node20</title>
<g id="a_edge38_Node000022_Node000020"><a xlink:title=" ">
<path fill="none" stroke="#63b8ff" d="M1091.16,-52.13C1051.34,-42.36 995.45,-28.65 958.99,-19.7"/>
<polygon fill="#63b8ff" stroke="#63b8ff" points="1090.17,-55.5 1100.72,-54.48 1091.84,-48.7 1090.17,-55.5"/>
</a>
</g>
</g>
<!-- Node23 -->
<g id="Node000023" class="node">
<title>Node23</title>
<g id="a_Node000023"><a xlink:href="../../d0/da1/sphere_8hpp.html" target="_top" xlink:title="Defines the Sphere structure and its associated functionality.">
<polygon fill="white" stroke="#666666" points="1235.88,-19.25 1120.12,-19.25 1120.12,0 1235.88,0 1235.88,-19.25"/>
<text text-anchor="middle" x="1178" y="-5.75" font-family="Times,serif" font-size="10.00">include/math/sphere.hpp</text>
</a>
</g>
</g>
<!-- Node22&#45;&gt;Node23 -->
<g id="edge39_Node000022_Node000023" class="edge">
<title>Node22&#45;&gt;Node23</title>
<g id="a_edge39_Node000022_Node000023"><a xlink:title=" ">
<path fill="none" stroke="#63b8ff" d="M1152.14,-45.94C1158.62,-37.09 1166.16,-26.79 1171.42,-19.61"/>
<polygon fill="#63b8ff" stroke="#63b8ff" points="1149.42,-43.73 1146.33,-53.86 1155.07,-47.86 1149.42,-43.73"/>
</a>
</g>
</g>
<!-- Node23&#45;&gt;Node17 -->
<g id="edge40_Node000023_Node000017" class="edge">
<title>Node23&#45;&gt;Node17</title>
<g id="a_edge40_Node000023_Node000017"><a xlink:title=" ">
<path fill="none" stroke="#63b8ff" d="M1192.43,-28.64C1201.76,-42.58 1210.26,-61.63 1199,-74.5 1159.28,-119.89 989.65,-101.56 930,-110.5 927.28,-110.91 924.49,-111.34 921.68,-111.78"/>
<polygon fill="#63b8ff" stroke="#63b8ff" points="1195.39,-26.75 1186.65,-20.76 1189.75,-30.9 1195.39,-26.75"/>
</a>
</g>
</g>
<!-- Node24&#45;&gt;Node17 -->
<g id="edge42_Node000024_Node000017" class="edge">
<title>Node24&#45;&gt;Node17</title>
<g id="a_edge42_Node000024_Node000017"><a xlink:title=" ">
<path fill="none" stroke="#63b8ff" d="M982.44,-79.4C959.85,-89.02 928.22,-101.68 905.61,-110.09"/>
<polygon fill="#63b8ff" stroke="#63b8ff" points="983.55,-82.73 991.34,-75.55 980.77,-76.31 983.55,-82.73"/>
</a>
</g>
</g>
<!-- Node26&#45;&gt;Node16 -->
<g id="edge45_Node000026_Node000016" class="edge">
<title>Node26&#45;&gt;Node16</title>
<g id="a_edge45_Node000026_Node000016"><a xlink:title=" ">
<path fill="none" stroke="#63b8ff" d="M603.37,-187.58C653.74,-197.37 723.51,-211.42 766.98,-220.53"/>
<polygon fill="#63b8ff" stroke="#63b8ff" points="604.26,-184.18 593.78,-185.72 602.93,-191.06 604.26,-184.18"/>
</a>
</g>
</g>
<!-- Node27 -->
<g id="Node000027" class="node">
<title>Node27</title>
<g id="a_Node000027"><a xlink:href="../../d7/dab/mat__math_8inl.html" target="_top" xlink:title=" ">
<polygon fill="white" stroke="#666666" points="604.38,-129.75 479.62,-129.75 479.62,-110.5 604.38,-110.5 604.38,-129.75"/>
<text text-anchor="middle" x="542" y="-116.25" font-family="Times,serif" font-size="10.00">include/math/mat_math.inl</text>
</a>
</g>
</g>
<!-- Node26&#45;&gt;Node27 -->
<g id="edge46_Node000026_Node000027" class="edge">
<title>Node26&#45;&gt;Node27</title>
<g id="a_edge46_Node000026_Node000027"><a xlink:title=" ">
<path fill="none" stroke="#63b8ff" d="M535.44,-154.42C534.95,-146.05 535.4,-136.75 536.79,-130.11"/>
<polygon fill="#63b8ff" stroke="#63b8ff" points="531.94,-154.59 536.65,-164.08 538.88,-153.72 531.94,-154.59"/>
</a>
</g>
</g>
<!-- Node27&#45;&gt;Node26 -->
<g id="edge47_Node000027_Node000026" class="edge">
<title>Node27&#45;&gt;Node26</title>
<g id="a_edge47_Node000027_Node000026"><a xlink:title=" ">
<path fill="none" stroke="#63b8ff" d="M548.57,-141.32C549.04,-149.71 548.58,-158.99 547.17,-165.58"/>
<polygon fill="#63b8ff" stroke="#63b8ff" points="552.07,-141.12 547.39,-131.61 545.12,-141.96 552.07,-141.12"/>
</a>
</g>
</g>
<!-- Node28&#45;&gt;Node16 -->
<g id="edge49_Node000028_Node000016" class="edge">
<title>Node28&#45;&gt;Node16</title>
<g id="a_edge49_Node000028_Node000016"><a xlink:title=" ">
<path fill="none" stroke="#63b8ff" d="M813.57,-196.57C814.04,-204.96 813.58,-214.24 812.17,-220.83"/>
<polygon fill="#63b8ff" stroke="#63b8ff" points="817.07,-196.37 812.39,-186.86 810.12,-197.21 817.07,-196.37"/>
</a>
</g>
</g>
<!-- Node29 -->
<g id="Node000029" class="node">
<title>Node29</title>
<g id="a_Node000029"><a xlink:href="../../d3/df6/matnxn_8inl.html" target="_top" xlink:title=" ">
<polygon fill="white" stroke="#666666" points="817.12,-129.75 702.88,-129.75 702.88,-110.5 817.12,-110.5 817.12,-129.75"/>
<text text-anchor="middle" x="760" y="-116.25" font-family="Times,serif" font-size="10.00">include/math/matnxn.inl</text>
</a>
</g>
</g>
<!-- Node28&#45;&gt;Node29 -->
<g id="edge50_Node000028_Node000029" class="edge">
<title>Node28&#45;&gt;Node29</title>
<g id="a_edge50_Node000028_Node000029"><a xlink:title=" ">
<path fill="none" stroke="#63b8ff" d="M785.61,-157.33C776.79,-148.25 767.65,-137.45 762.67,-130.02"/>
<polygon fill="#63b8ff" stroke="#63b8ff" points="783.13,-159.8 792.73,-164.28 788.02,-154.79 783.13,-159.8"/>
</a>
</g>
</g>
<!-- Node29&#45;&gt;Node28 -->
<g id="edge51_Node000029_Node000028" class="edge">
<title>Node29&#45;&gt;Node28</title>
<g id="a_edge51_Node000029_Node000028"><a xlink:title=" ">
<path fill="none" stroke="#63b8ff" d="M781.11,-137.88C790.05,-147.06 799.38,-158.07 804.41,-165.58"/>
<polygon fill="#63b8ff" stroke="#63b8ff" points="783.82,-135.64 774.22,-131.17 778.94,-140.65 783.82,-135.64"/>
</a>
</g>
</g>
<!-- Node30&#45;&gt;Node17 -->
<g id="edge53_Node000030_Node000017" class="edge">
<title>Node30&#45;&gt;Node17</title>
<g id="a_edge53_Node000030_Node000017"><a xlink:title=" ">
<path fill="none" stroke="#63b8ff" d="M972.87,-160.9C949.95,-151.29 919.75,-138.63 899.65,-130.2"/>
<polygon fill="#63b8ff" stroke="#63b8ff" points="971.48,-164.12 982.06,-164.76 974.19,-157.66 971.48,-164.12"/>
</a>
</g>
</g>
<!-- Node31 -->
<g id="Node000031" class="node">
<title>Node31</title>
<g id="a_Node000031"><a xlink:href="../../da/d59/quaternion_8cpp.html" target="_top" xlink:title=" ">
<polygon fill="white" stroke="#666666" points="1070.75,-129.75 939.25,-129.75 939.25,-110.5 1070.75,-110.5 1070.75,-129.75"/>
<text text-anchor="middle" x="1005" y="-116.25" font-family="Times,serif" font-size="10.00">include/math/quaternion.cpp</text>
</a>
</g>
</g>
<!-- Node30&#45;&gt;Node31 -->
<g id="edge54_Node000030_Node000031" class="edge">
<title>Node30&#45;&gt;Node31</title>
<g id="a_edge54_Node000030_Node000031"><a xlink:title=" ">
<path fill="none" stroke="#63b8ff" d="M1005,-154.13C1005,-145.84 1005,-136.67 1005,-130.11"/>
<polygon fill="#63b8ff" stroke="#63b8ff" points="1001.5,-154.07 1005,-164.07 1008.5,-154.07 1001.5,-154.07"/>
</a>
</g>
</g>
<!-- Node32 -->
<g id="Node000032" class="node">
<title>Node32</title>
<g id="a_Node000032"><a xlink:href="../../d8/d7f/quaternion_8inl.html" target="_top" xlink:title=" ">
<polygon fill="white" stroke="#666666" points="1215.5,-129.75 1088.5,-129.75 1088.5,-110.5 1215.5,-110.5 1215.5,-129.75"/>
<text text-anchor="middle" x="1152" y="-116.25" font-family="Times,serif" font-size="10.00">include/math/quaternion.inl</text>
</a>
</g>
</g>
<!-- Node30&#45;&gt;Node32 -->
<g id="edge55_Node000030_Node000032" class="edge">
<title>Node30&#45;&gt;Node32</title>
<g id="a_edge55_Node000030_Node000032"><a xlink:title=" ">
<path fill="none" stroke="#63b8ff" d="M1035.21,-161.29C1060.54,-151.64 1096.35,-138.75 1121.71,-130.2"/>
<polygon fill="#63b8ff" stroke="#63b8ff" points="1034.2,-157.93 1026.13,-164.8 1036.72,-164.46 1034.2,-157.93"/>
</a>
</g>
</g>
<!-- Node32&#45;&gt;Node30 -->
<g id="edge56_Node000032_Node000030" class="edge">
<title>Node32&#45;&gt;Node30</title>
<g id="a_edge56_Node000032_Node000030"><a xlink:title=" ">
<path fill="none" stroke="#63b8ff" d="M1121.66,-134.26C1096.29,-143.92 1060.48,-156.81 1035.15,-165.34"/>
<polygon fill="#63b8ff" stroke="#63b8ff" points="1122.69,-137.61 1130.76,-130.75 1120.17,-131.08 1122.69,-137.61"/>
</a>
</g>
</g>
<!-- Node33&#45;&gt;Node16 -->
<g id="edge58_Node000033_Node000016" class="edge">
<title>Node33&#45;&gt;Node16</title>
<g id="a_edge58_Node000033_Node000016"><a xlink:title=" ">
<path fill="none" stroke="#63b8ff" d="M1148.87,-186.14C1079.01,-194.96 970.93,-208.44 877,-221 871.38,-221.75 865.47,-222.56 859.56,-223.37"/>
<polygon fill="#63b8ff" stroke="#63b8ff" points="1149.19,-189.62 1158.67,-184.9 1148.31,-182.68 1149.19,-189.62"/>
</a>
</g>
</g>
<!-- Node34 -->
<g id="Node000034" class="node">
<title>Node34</title>
<g id="a_Node000034"><a xlink:href="../../df/da5/rmatnxn_8inl.html" target="_top" xlink:title=" ">
<polygon fill="white" stroke="#666666" points="1352,-129.75 1234,-129.75 1234,-110.5 1352,-110.5 1352,-129.75"/>
<text text-anchor="middle" x="1293" y="-116.25" font-family="Times,serif" font-size="10.00">include/math/rmatnxn.inl</text>
</a>
</g>
</g>
<!-- Node33&#45;&gt;Node34 -->
<g id="edge59_Node000033_Node000034" class="edge">
<title>Node33&#45;&gt;Node34</title>
<g id="a_edge59_Node000033_Node000034"><a xlink:title=" ">
<path fill="none" stroke="#63b8ff" d="M1237.63,-157.93C1248.94,-148.8 1263.98,-137.79 1275.67,-130.2"/>
<polygon fill="#63b8ff" stroke="#63b8ff" points="1235.38,-155.25 1229.99,-164.37 1239.89,-160.61 1235.38,-155.25"/>
</a>
</g>
</g>
<!-- Node34&#45;&gt;Node33 -->
<g id="edge60_Node000034_Node000033" class="edge">
<title>Node34&#45;&gt;Node33</title>
<g id="a_edge60_Node000034_Node000033"><a xlink:title=" ">
<path fill="none" stroke="#63b8ff" d="M1277.85,-137.18C1266.47,-146.4 1251.13,-157.65 1239.26,-165.34"/>
<polygon fill="#63b8ff" stroke="#63b8ff" points="1279.78,-140.13 1285.17,-131 1275.27,-134.78 1279.78,-140.13"/>
</a>
</g>
</g>
<!-- Node35&#45;&gt;Node15 -->
<g id="edge62_Node000035_Node000015" class="edge">
<title>Node35&#45;&gt;Node15</title>
<g id="a_edge62_Node000035_Node000015"><a xlink:title=" ">
<path fill="none" stroke="#63b8ff" d="M920.32,-247.02C906.23,-256.36 887.17,-267.96 872.81,-275.84"/>
<polygon fill="#63b8ff" stroke="#63b8ff" points="922.04,-250.09 928.32,-241.56 918.09,-244.31 922.04,-250.09"/>
</a>
</g>
</g>
<!-- Node36&#45;&gt;Node3 -->
<g id="edge64_Node000036_Node000003" class="edge">
<title>Node36&#45;&gt;Node3</title>
<g id="a_edge64_Node000036_Node000003"><a xlink:title=" ">
<path fill="none" stroke="#63b8ff" d="M977.28,-293.81C868.25,-304.83 652.45,-326.05 553.57,-335.45"/>
<polygon fill="#63b8ff" stroke="#63b8ff" points="977.34,-297.32 986.94,-292.83 976.63,-290.36 977.34,-297.32"/>
</a>
</g>
</g>
<!-- Node37 -->
<g id="Node000037" class="node">
<title>Node37</title>
<g id="a_Node000037"><a xlink:href="../../d6/d8c/vecn_8inl.html" target="_top" xlink:title=" ">
<polygon fill="white" stroke="#666666" points="1121.5,-240.25 1018.5,-240.25 1018.5,-221 1121.5,-221 1121.5,-240.25"/>
<text text-anchor="middle" x="1070" y="-226.75" font-family="Times,serif" font-size="10.00">include/math/vecn.inl</text>
</a>
</g>
</g>
<!-- Node36&#45;&gt;Node37 -->
<g id="edge65_Node000036_Node000037" class="edge">
<title>Node36&#45;&gt;Node37</title>
<g id="a_edge65_Node000036_Node000037"><a xlink:title=" ">
<path fill="none" stroke="#63b8ff" d="M1046.3,-265.5C1050.07,-256.99 1055.37,-247.4 1060.24,-240.61"/>
<polygon fill="#63b8ff" stroke="#63b8ff" points="1043.1,-264.08 1042.83,-274.67 1049.64,-266.56 1043.1,-264.08"/>
</a>
</g>
</g>
<!-- Node37&#45;&gt;Node36 -->
<g id="edge66_Node000037_Node000036" class="edge">
<title>Node37&#45;&gt;Node36</title>
<g id="a_edge66_Node000037_Node000036"><a xlink:title=" ">
<path fill="none" stroke="#63b8ff" d="M1066.59,-251.24C1062.79,-259.77 1057.49,-269.34 1052.62,-276.08"/>
<polygon fill="#63b8ff" stroke="#63b8ff" points="1069.81,-252.61 1070.11,-242.02 1063.27,-250.12 1069.81,-252.61"/>
</a>
</g>
</g>
</g>
</svg>
