<?xml version="1.0" encoding="UTF-8" standalone="no"?>
<!DOCTYPE svg PUBLIC "-//W3C//DTD SVG 1.1//EN"
 "http://www.w3.org/Graphics/SVG/1.1/DTD/svg11.dtd">
<!-- Generated by graphviz version 9.0.0 (20230911.1827)
 -->
<!-- Title: mal_math::_detail::rvec&lt; 3, T &gt; Pages: 1 -->
<!--zoomable 233 -->

<svg id="main" version="1.1" xmlns="http://www.w3.org/2000/svg" xmlns:xlink="http://www.w3.org/1999/xlink" xml:space="preserve" onload="init(evt)">
<style type="text/css"><![CDATA[
.node, .edge {opacity: 0.7;}
.node.selected, .edge.selected {opacity: 1;}
.edge:hover path { stroke: red; }
.edge:hover polygon { stroke: red; fill: red; }
]]></style>

<defs>
  <circle id="rim" cx="0" cy="0" r="7"/>
  <circle id="rim2" cx="0" cy="0" r="3.5"/>
  <g id="zoomPlus">
    <use xlink:href="#rim" fill="#404040"><set attributeName="fill" to="#808080" begin="zoomplus.mouseover" end="zoomplus.mouseout"/></use>
    <path d="M-4,0h8M0,-4v8" fill="none" stroke="white" stroke-width="1.5" pointer-events="none"/>
  </g>
  <g id="zoomMin">
    <use xlink:href="#rim" fill="#404040"><set attributeName="fill" to="#808080" begin="zoomminus.mouseover" end="zoomminus.mouseout"/></use>
    <path d="M-4,0h8" fill="none" stroke="white" stroke-width="1.5" pointer-events="none"/>
  </g>
  <g id="arrowUp" transform="translate(30 24)">
    <use xlink:href="#rim"/>
    <path pointer-events="none" fill="none" stroke="white" stroke-width="1.5" d="M0,-3.0v7 M-2.5,-0.5L0,-3.0L2.5,-0.5"/>
  </g>
  <g id="arrowRight" transform="rotate(90) translate(36 -43)">
    <use xlink:href="#rim"/>
    <path pointer-events="none" fill="none" stroke="white" stroke-width="1.5" d="M0,-3.0v7 M-2.5,-0.5L0,-3.0L2.5,-0.5"/>
  </g>
  <g id="arrowDown" transform="rotate(180) translate(-30 -48)">
    <use xlink:href="#rim"/>
    <path pointer-events="none" fill="none" stroke="white" stroke-width="1.5" d="M0,-3.0v7 M-2.5,-0.5L0,-3.0L2.5,-0.5"/>
  </g>
  <g id="arrowLeft" transform="rotate(270) translate(-36 17)">
    <use xlink:href="#rim"/>
    <path pointer-events="none" fill="none" stroke="white" stroke-width="1.5" d="M0,-3.0v7 M-2.5,-0.5L0,-3.0L2.5,-0.5"/>
  </g>
  <g id="resetDef">
    <use xlink:href="#rim2" fill="#404040"><set attributeName="fill" to="#808080" begin="reset.mouseover" end="reset.mouseout"/></use>
  </g>
</defs>
<script type="application/ecmascript">
var viewWidth = 562;
var viewHeight = 233;
var sectionId = 'dynsection-0';
</script>
<script type="application/ecmascript" xlink:href="../../svg.min.js"/>
<svg id="graph" class="graph">
<g id="viewport">
<title>mal_math::_detail::rvec&lt; 3, T &gt;</title>
<!-- Node1 -->
<g id="Node000001" class="node">
<title>Node1</title>
<g id="a_Node000001"><a xlink:title="3D reference vector template structure.">
<polygon fill="#999999" stroke="#666666" points="553.8,-106.88 461.3,-106.88 461.3,-76.38 553.8,-76.38 553.8,-106.88"/>
<text text-anchor="start" x="469.3" y="-93.38" font-family="Times,serif" font-size="10.00">mal_math::_detail::</text>
<text text-anchor="middle" x="507.55" y="-82.12" font-family="Times,serif" font-size="10.00">rvec&lt; 3, T &gt;</text>
</a>
</g>
</g>
<!-- Node1&#45;&gt;Node1 -->
<g id="edge7_Node000001_Node000001" class="edge">
<title>Node1&#45;&gt;Node1</title>
<g id="a_edge7_Node000001_Node000001"><a xlink:title=" ">
<path fill="none" stroke="#9a32cd" stroke-dasharray="5,2" d="M495.14,-118.58C497.17,-122.35 501.31,-124.88 507.55,-124.88 518.97,-124.88 523.34,-116.43 520.66,-107.36"/>
<polygon fill="#9a32cd" stroke="#9a32cd" points="498.65,-118.63 494.53,-108.87 491.66,-119.07 498.65,-118.63"/>
</a>
</g>
<text text-anchor="middle" x="507.55" y="-126.62" font-family="Times,serif" font-size="10.00" fill="grey"> @25</text>
</g>
<!-- Node2 -->
<g id="Node000002" class="node">
<title>Node2</title>
<g id="a_Node000002"><a xlink:title=" ">
<polygon fill="white" stroke="#666666" points="402.42,-225.25 298.67,-225.25 298.67,-206 402.42,-206 402.42,-225.25"/>
<text text-anchor="middle" x="350.55" y="-211.75" font-family="Times,serif" font-size="10.00">static constexpr size_t</text>
</a>
</g>
</g>
<!-- Node2&#45;&gt;Node1 -->
<g id="edge1_Node000001_Node000002" class="edge">
<title>Node2&#45;&gt;Node1</title>
<g id="a_edge1_Node000001_Node000002"><a xlink:title=" ">
<path fill="none" stroke="#9a32cd" stroke-dasharray="5,2" d="M413.64,-207.73C424.18,-204.49 434.53,-199.96 443.3,-193.62 473.87,-171.54 492.83,-129.7 501.32,-107.07"/>
<polygon fill="#9a32cd" stroke="#9a32cd" points="412.88,-204.31 404.12,-210.26 414.68,-211.07 412.88,-204.31"/>
</a>
</g>
<text text-anchor="middle" x="433.55" y="-204.38" font-family="Times,serif" font-size="10.00" fill="grey"> size</text>
</g>
<!-- Node3 -->
<g id="Node000003" class="node">
<title>Node3</title>
<g id="a_Node000003"><a xlink:title=" ">
<polygon fill="white" stroke="#666666" points="397.17,-106.88 303.92,-106.88 303.92,-76.38 397.17,-76.38 397.17,-106.88"/>
<text text-anchor="start" x="311.92" y="-93.38" font-family="Times,serif" font-size="10.00">primitive_reference</text>
<text text-anchor="middle" x="350.55" y="-82.12" font-family="Times,serif" font-size="10.00">_wrapper&lt; T &gt;</text>
</a>
</g>
</g>
<!-- Node3&#45;&gt;Node1 -->
<g id="edge2_Node000001_Node000003" class="edge">
<title>Node3&#45;&gt;Node1</title>
<g id="a_edge2_Node000001_Node000003"><a xlink:title=" ">
<path fill="none" stroke="#9a32cd" stroke-dasharray="5,2" d="M408.7,-91.62C425.9,-91.62 444.55,-91.62 460.91,-91.62"/>
<polygon fill="#9a32cd" stroke="#9a32cd" points="409.15,-88.13 399.15,-91.63 409.15,-95.13 409.15,-88.13"/>
</a>
</g>
<text text-anchor="middle" x="433.55" y="-183.38" font-family="Times,serif" font-size="10.00" fill="grey"> b</text>
<text text-anchor="middle" x="433.55" y="-172.12" font-family="Times,serif" font-size="10.00" fill="grey">g</text>
<text text-anchor="middle" x="433.55" y="-160.88" font-family="Times,serif" font-size="10.00" fill="grey">p</text>
<text text-anchor="middle" x="433.55" y="-149.62" font-family="Times,serif" font-size="10.00" fill="grey">r</text>
<text text-anchor="middle" x="433.55" y="-138.38" font-family="Times,serif" font-size="10.00" fill="grey">s</text>
<text text-anchor="middle" x="433.55" y="-127.12" font-family="Times,serif" font-size="10.00" fill="grey">t</text>
<text text-anchor="middle" x="433.55" y="-115.88" font-family="Times,serif" font-size="10.00" fill="grey">x</text>
<text text-anchor="middle" x="433.55" y="-104.62" font-family="Times,serif" font-size="10.00" fill="grey">y</text>
<text text-anchor="middle" x="433.55" y="-93.38" font-family="Times,serif" font-size="10.00" fill="grey">z</text>
</g>
<!-- Node4 -->
<g id="Node000004" class="node">
<title>Node4</title>
<g id="a_Node000004"><a xlink:title=" ">
<polygon fill="white" stroke="#666666" points="405.8,-58.12 295.3,-58.12 295.3,-5.12 405.8,-5.12 405.8,-58.12"/>
<text text-anchor="start" x="303.3" y="-44.62" font-family="Times,serif" font-size="10.00">std::array&lt; mal_math</text>
<text text-anchor="start" x="303.3" y="-33.38" font-family="Times,serif" font-size="10.00">::_detail::primitive</text>
<text text-anchor="start" x="303.3" y="-22.12" font-family="Times,serif" font-size="10.00">_reference_wrapper&lt; T</text>
<text text-anchor="middle" x="350.55" y="-10.88" font-family="Times,serif" font-size="10.00"> &gt;, 3 &gt;</text>
</a>
</g>
</g>
<!-- Node4&#45;&gt;Node1 -->
<g id="edge3_Node000001_Node000004" class="edge">
<title>Node4&#45;&gt;Node1</title>
<g id="a_edge3_Node000001_Node000004"><a xlink:title=" ">
<path fill="none" stroke="#9a32cd" stroke-dasharray="5,2" d="M416.52,-56.77C433.3,-63.27 450.9,-70.08 466.03,-75.94"/>
<polygon fill="#9a32cd" stroke="#9a32cd" points="418.2,-53.67 407.61,-53.33 415.67,-60.2 418.2,-53.67"/>
</a>
</g>
<text text-anchor="middle" x="433.55" y="-68.38" font-family="Times,serif" font-size="10.00" fill="grey"> data</text>
</g>
<!-- Node5 -->
<g id="Node000005" class="node">
<title>Node5</title>
<g id="a_Node000005"><a xlink:title=" ">
<polygon fill="white" stroke="#666666" points="28.8,-43.25 0,-43.25 0,-24 28.8,-24 28.8,-43.25"/>
<text text-anchor="middle" x="14.4" y="-29.75" font-family="Times,serif" font-size="10.00">T</text>
</a>
</g>
</g>
<!-- Node5&#45;&gt;Node4 -->
<g id="edge4_Node000004_Node000005" class="edge">
<title>Node5&#45;&gt;Node4</title>
<g id="a_edge4_Node000004_Node000005"><a xlink:title=" ">
<path fill="none" stroke="#9a32cd" stroke-dasharray="5,2" d="M40.4,-41.46C42.55,-41.93 44.7,-42.33 46.8,-42.62 148.25,-56.88 175.15,-50.36 277.3,-42.62 282.99,-42.19 288.92,-41.57 294.82,-40.85"/>
<polygon fill="#9a32cd" stroke="#9a32cd" points="41.31,-38.08 30.75,-38.9 39.52,-44.85 41.31,-38.08"/>
</a>
</g>
<text text-anchor="middle" x="139.17" y="-52.38" font-family="Times,serif" font-size="10.00" fill="grey"> elements</text>
</g>
<!-- Node6 -->
<g id="Node000006" class="node">
<title>Node6</title>
<g id="a_Node000006"><a xlink:title=" ">
<polygon fill="white" stroke="#666666" points="176.8,-19.25 101.55,-19.25 101.55,0 176.8,0 176.8,-19.25"/>
<text text-anchor="middle" x="139.17" y="-5.75" font-family="Times,serif" font-size="10.00">std::array&lt; T &gt;</text>
</a>
</g>
</g>
<!-- Node5&#45;&gt;Node6 -->
<g id="edge6_Node000006_Node000005" class="edge">
<title>Node5&#45;&gt;Node6</title>
<g id="a_edge6_Node000006_Node000005"><a xlink:title=" ">
<path fill="none" stroke="#9a32cd" stroke-dasharray="5,2" d="M40.26,-28.77C57.77,-25.34 81.5,-20.7 101.22,-16.85"/>
<polygon fill="#9a32cd" stroke="#9a32cd" points="39.64,-25.32 30.49,-30.67 40.98,-32.19 39.64,-25.32"/>
</a>
</g>
<text text-anchor="middle" x="65.17" y="-29.38" font-family="Times,serif" font-size="10.00" fill="grey"> elements</text>
</g>
<!-- Node6&#45;&gt;Node4 -->
<g id="edge5_Node000004_Node000006" class="edge">
<title>Node6&#45;&gt;Node4</title>
<g id="a_edge5_Node000004_Node000006"><a xlink:title=" ">
<path fill="none" stroke="orange" stroke-dasharray="5,2" d="M188.56,-8.93C190.67,-8.91 192.75,-8.89 194.8,-8.88 231.47,-8.62 241.06,-3.3 277.3,-8.88 283.15,-9.77 289.17,-11.06 295.13,-12.57"/>
<polygon fill="orange" stroke="orange" points="188.67,-5.42 178.71,-9.03 188.75,-12.42 188.67,-5.42"/>
</a>
</g>
<text text-anchor="start" x="194.8" y="-33.88" font-family="Times,serif" font-size="10.00" fill="grey"> &lt; mal_math::_detail</text>
<text text-anchor="start" x="194.8" y="-22.62" font-family="Times,serif" font-size="10.00" fill="grey">::primitive_reference</text>
<text text-anchor="middle" x="236.05" y="-11.38" font-family="Times,serif" font-size="10.00" fill="grey">_wrapper&lt; T &gt;, 3 &gt;</text>
</g>
</g>
</svg>

<g id="navigator" transform="translate(0 0)" fill="#404254">
  <rect fill="#f2f5e9" fill-opacity="0.5" stroke="#606060" stroke-width=".5" x="0" y="0" width="60" height="60"/>
  <use id="zoomplus" xlink:href="#zoomPlus" x="17" y="9" onmousedown="handleZoom(evt,'in')"/>
  <use id="zoomminus" xlink:href="#zoomMin" x="42" y="9" onmousedown="handleZoom(evt,'out')"/>
  <use id="reset" xlink:href="#resetDef" x="30" y="36" onmousedown="handleReset()"/>
   <use id="arrowup" xlink:href="#arrowUp" x="0" y="0" onmousedown="handlePan(0,-1)"/>
  <use id="arrowright" xlink:href="#arrowRight" x="0" y="0" onmousedown="handlePan(1,0)"/>
  <use id="arrowdown" xlink:href="#arrowDown" x="0" y="0" onmousedown="handlePan(0,1)"/>
  <use id="arrowleft" xlink:href="#arrowLeft" x="0" y="0" onmousedown="handlePan(-1,0)"/>
</g>
<svg viewBox="0 0 15 15" width="100%" height="30px" preserveAspectRatio="xMaxYMin meet">
 <g id="arrow_out" transform="scale(0.3 0.3)">
  <a xlink:href="structmal__math_1_1__detail_1_1rvec_3_013_00_01_t_01_4__coll__graph_org.svg" target="_base">
   <rect id="button" ry="5" rx="5" y="6" x="6" height="38" width="38"
        fill="#f2f5e9" fill-opacity="0.5" stroke="#606060" stroke-width="1.0"/>
   <path id="arrow"
     d="M 11.500037,31.436501 C 11.940474,20.09759 22.043105,11.32322 32.158766,21.979434 L 37.068811,17.246167 C 37.068811,17.246167 37.088388,32 37.088388,32 L 22.160133,31.978069 C 22.160133,31.978069 26.997745,27.140456 26.997745,27.140456 C 18.528582,18.264221 13.291696,25.230495 11.500037,31.436501 z"
     style="fill:#404040;"/>
  </a>
 </g>
</svg>

<style type='text/css'>
<![CDATA[
[data-mouse-over-selected='false'] { opacity: 0.7; }
[data-mouse-over-selected='true']  { opacity: 1.0; }
]]>
</style>
<script type="application/ecmascript"><![CDATA[
document.addEventListener('DOMContentLoaded', (event) => {
  highlightEdges();
  highlightAdjacentNodes();
});
]]></script>
</svg>
