<?xml version="1.0" encoding="UTF-8" standalone="no"?>
<!DOCTYPE svg PUBLIC "-//W3C//DTD SVG 1.1//EN"
 "http://www.w3.org/Graphics/SVG/1.1/DTD/svg11.dtd">
<!-- Generated by graphviz version 9.0.0 (20230911.1827)
 -->
<!-- Title: mal_math::qua&lt; T &gt; Pages: 1 -->
<svg width="358pt" height="339pt"
 viewBox="0.00 0.00 357.88 339.25" xmlns="http://www.w3.org/2000/svg" xmlns:xlink="http://www.w3.org/1999/xlink">
<g id="graph0" class="graph" transform="scale(1 1) rotate(0) translate(4 335.25)">
<title>mal_math::qua&lt; T &gt;</title>
<!-- Node1 -->
<g id="Node000001" class="node">
<title>Node1</title>
<g id="a_Node000001"><a xlink:title="Represents a quaternion with primitive type T.">
<polygon fill="#999999" stroke="#666666" points="207.38,-19.25 110.38,-19.25 110.38,0 207.38,0 207.38,-19.25"/>
<text text-anchor="middle" x="158.88" y="-5.75" font-family="Times,serif" font-size="10.00">mal_math::qua&lt; T &gt;</text>
</a>
</g>
</g>
<!-- Node2 -->
<g id="Node000002" class="node">
<title>Node2</title>
<g id="a_Node000002"><a xlink:title=" ">
<polygon fill="white" stroke="#666666" points="103.75,-85.75 0,-85.75 0,-66.5 103.75,-66.5 103.75,-85.75"/>
<text text-anchor="middle" x="51.88" y="-72.25" font-family="Times,serif" font-size="10.00">static constexpr size_t</text>
</a>
</g>
</g>
<!-- Node2&#45;&gt;Node1 -->
<g id="edge1_Node000001_Node000002" class="edge">
<title>Node2&#45;&gt;Node1</title>
<g id="a_edge1_Node000001_Node000002"><a xlink:title=" ">
<path fill="none" stroke="#9a32cd" stroke-dasharray="5,2" d="M70.4,-58.77C79.01,-51.64 89.59,-43.5 99.88,-37.25 111.02,-30.48 124.17,-24.38 135.23,-19.73"/>
<polygon fill="#9a32cd" stroke="#9a32cd" points="68.13,-56.1 62.8,-65.26 72.68,-61.43 68.13,-56.1"/>
</a>
</g>
<text text-anchor="middle" x="108.88" y="-39" font-family="Times,serif" font-size="10.00" fill="grey"> size</text>
</g>
<!-- Node3 -->
<g id="Node000003" class="node">
<title>Node3</title>
<g id="a_Node000003"><a xlink:title=" ">
<polygon fill="white" stroke="#666666" points="192.28,-331.25 163.47,-331.25 163.47,-312 192.28,-312 192.28,-331.25"/>
<text text-anchor="middle" x="177.88" y="-317.75" font-family="Times,serif" font-size="10.00">T</text>
</a>
</g>
</g>
<!-- Node3&#45;&gt;Node1 -->
<g id="edge2_Node000001_Node000003" class="edge">
<title>Node3&#45;&gt;Node1</title>
<g id="a_edge2_Node000001_Node000003"><a xlink:title=" ">
<path fill="none" stroke="#9a32cd" stroke-dasharray="5,2" d="M174.78,-300.53C168.71,-260.02 155.45,-165.62 150.88,-85.75 150.39,-77.21 150.27,-75.03 150.88,-66.5 152.06,-49.88 155.2,-30.7 157.17,-19.68"/>
<polygon fill="#9a32cd" stroke="#9a32cd" points="171.29,-300.84 176.25,-310.2 178.21,-299.79 171.29,-300.84"/>
</a>
</g>
<text text-anchor="middle" x="168.25" y="-218" font-family="Times,serif" font-size="10.00" fill="grey"> a</text>
<text text-anchor="middle" x="168.25" y="-206.75" font-family="Times,serif" font-size="10.00" fill="grey">b</text>
<text text-anchor="middle" x="168.25" y="-195.5" font-family="Times,serif" font-size="10.00" fill="grey">g</text>
<text text-anchor="middle" x="168.25" y="-184.25" font-family="Times,serif" font-size="10.00" fill="grey">p</text>
<text text-anchor="middle" x="168.25" y="-173" font-family="Times,serif" font-size="10.00" fill="grey">q</text>
<text text-anchor="middle" x="168.25" y="-161.75" font-family="Times,serif" font-size="10.00" fill="grey">r</text>
<text text-anchor="middle" x="168.25" y="-150.5" font-family="Times,serif" font-size="10.00" fill="grey">s</text>
<text text-anchor="middle" x="168.25" y="-139.25" font-family="Times,serif" font-size="10.00" fill="grey">t</text>
<text text-anchor="middle" x="168.25" y="-128" font-family="Times,serif" font-size="10.00" fill="grey">w</text>
<text text-anchor="middle" x="168.25" y="-116.75" font-family="Times,serif" font-size="10.00" fill="grey">x</text>
<text text-anchor="middle" x="168.25" y="-105.5" font-family="Times,serif" font-size="10.00" fill="grey">...</text>
</g>
<!-- Node4 -->
<g id="Node000004" class="node">
<title>Node4</title>
<g id="a_Node000004"><a xlink:title=" ">
<polygon fill="white" stroke="#666666" points="255.62,-85.75 160.12,-85.75 160.12,-66.5 255.62,-66.5 255.62,-85.75"/>
<text text-anchor="middle" x="207.88" y="-72.25" font-family="Times,serif" font-size="10.00">std::array&lt; T, size &gt;</text>
</a>
</g>
</g>
<!-- Node3&#45;&gt;Node4 -->
<g id="edge4_Node000004_Node000003" class="edge">
<title>Node3&#45;&gt;Node4</title>
<g id="a_edge4_Node000004_Node000003"><a xlink:title=" ">
<path fill="none" stroke="#9a32cd" stroke-dasharray="5,2" d="M179.95,-300.76C181.56,-285.61 183.89,-264.23 186.12,-245.5 193.4,-184.63 203.21,-111.52 206.63,-86.24"/>
<polygon fill="#9a32cd" stroke="#9a32cd" points="176.51,-300.01 178.94,-310.32 183.47,-300.75 176.51,-300.01"/>
</a>
</g>
<text text-anchor="middle" x="205.25" y="-251.25" font-family="Times,serif" font-size="10.00" fill="grey"> elements</text>
</g>
<!-- Node5 -->
<g id="Node000005" class="node">
<title>Node5</title>
<g id="a_Node000005"><a xlink:title=" ">
<polygon fill="white" stroke="#666666" points="307.5,-264.75 232.25,-264.75 232.25,-245.5 307.5,-245.5 307.5,-264.75"/>
<text text-anchor="middle" x="269.88" y="-251.25" font-family="Times,serif" font-size="10.00">std::array&lt; T &gt;</text>
</a>
</g>
</g>
<!-- Node3&#45;&gt;Node5 -->
<g id="edge6_Node000005_Node000003" class="edge">
<title>Node3&#45;&gt;Node5</title>
<g id="a_edge6_Node000005_Node000003"><a xlink:title=" ">
<path fill="none" stroke="#9a32cd" stroke-dasharray="5,2" d="M199.76,-305.28C217.56,-292.81 242.07,-275.62 256.89,-265.23"/>
<polygon fill="#9a32cd" stroke="#9a32cd" points="198.09,-302.18 191.91,-310.79 202.1,-307.91 198.09,-302.18"/>
</a>
</g>
<text text-anchor="middle" x="247.25" y="-284.5" font-family="Times,serif" font-size="10.00" fill="grey"> elements</text>
</g>
<!-- Node4&#45;&gt;Node1 -->
<g id="edge3_Node000001_Node000004" class="edge">
<title>Node4&#45;&gt;Node1</title>
<g id="a_edge3_Node000001_Node000004"><a xlink:title=" ">
<path fill="none" stroke="#9a32cd" stroke-dasharray="5,2" d="M194.29,-57.24C184.97,-44.97 172.99,-29.21 165.63,-19.52"/>
<polygon fill="#9a32cd" stroke="#9a32cd" points="191.31,-59.11 200.15,-64.95 196.88,-54.87 191.31,-59.11"/>
</a>
</g>
<text text-anchor="middle" x="196.62" y="-39" font-family="Times,serif" font-size="10.00" fill="grey"> data</text>
</g>
<!-- Node5&#45;&gt;Node4 -->
<g id="edge5_Node000004_Node000005" class="edge">
<title>Node5&#45;&gt;Node4</title>
<g id="a_edge5_Node000004_Node000005"><a xlink:title=" ">
<path fill="none" stroke="orange" stroke-dasharray="5,2" d="M262.95,-234.36C249.53,-196.05 220.47,-113.07 210.95,-85.92"/>
<polygon fill="orange" stroke="orange" points="259.61,-235.4 266.21,-243.68 266.21,-233.08 259.61,-235.4"/>
</a>
</g>
<text text-anchor="middle" x="281.38" y="-161.75" font-family="Times,serif" font-size="10.00" fill="grey"> &lt; T, size &gt;</text>
</g>
<!-- Node6 -->
<g id="Node000006" class="node">
<title>Node6</title>
<g id="a_Node000006"><a xlink:title=" ">
<polygon fill="white" stroke="#666666" points="349.88,-85.75 273.88,-85.75 273.88,-66.5 349.88,-66.5 349.88,-85.75"/>
<text text-anchor="middle" x="311.88" y="-72.25" font-family="Times,serif" font-size="10.00">anonymous:@3</text>
</a>
</g>
</g>
<!-- Node6&#45;&gt;Node1 -->
<g id="edge7_Node000001_Node000006" class="edge">
<title>Node6&#45;&gt;Node1</title>
<g id="a_edge7_Node000001_Node000006"><a xlink:title=" ">
<path fill="none" stroke="#9a32cd" stroke-dasharray="5,2" d="M279.96,-61.67C250.09,-49.08 206.28,-30.61 180.36,-19.68"/>
<polygon fill="#9a32cd" stroke="#9a32cd" points="278.31,-64.77 288.88,-65.43 281.03,-58.32 278.31,-64.77"/>
</a>
</g>
<text text-anchor="middle" x="252.12" y="-39" font-family="Times,serif" font-size="10.00" fill="grey"> @3</text>
</g>
</g>
</svg>
