<?xml version="1.0" encoding="UTF-8" standalone="no"?>
<!DOCTYPE svg PUBLIC "-//W3C//DTD SVG 1.1//EN"
 "http://www.w3.org/Graphics/SVG/1.1/DTD/svg11.dtd">
<!-- Generated by graphviz version 9.0.0 (20230911.1827)
 -->
<!-- Title: include/math/random.hpp Pages: 1 -->
<svg width="608pt" height="193pt"
 viewBox="0.00 0.00 607.75 193.00" xmlns="http://www.w3.org/2000/svg" xmlns:xlink="http://www.w3.org/1999/xlink">
<g id="graph0" class="graph" transform="scale(1 1) rotate(0) translate(4 189)">
<title>include/math/random.hpp</title>
<!-- Node1 -->
<g id="Node000001" class="node">
<title>Node1</title>
<g id="a_Node000001"><a xlink:title="Provides functionality for random number generation and manipulation in vector spaces.">
<polygon fill="#999999" stroke="#666666" points="360.62,-185 241.12,-185 241.12,-165.75 360.62,-165.75 360.62,-185"/>
<text text-anchor="middle" x="300.88" y="-171.5" font-family="Times,serif" font-size="10.00">include/math/random.hpp</text>
</a>
</g>
</g>
<!-- Node2 -->
<g id="Node000002" class="node">
<title>Node2</title>
<g id="a_Node000002"><a xlink:href="../../d4/d78/math_8hpp.html" target="_top" xlink:title="Provides various mathematical utilities, vector operations, and custom hash specializations.">
<polygon fill="white" stroke="#666666" points="344.12,-129.75 257.62,-129.75 257.62,-110.5 344.12,-110.5 344.12,-129.75"/>
<text text-anchor="middle" x="300.88" y="-116.25" font-family="Times,serif" font-size="10.00">include/math.hpp</text>
</a>
</g>
</g>
<!-- Node1&#45;&gt;Node2 -->
<g id="edge1_Node000001_Node000002" class="edge">
<title>Node1&#45;&gt;Node2</title>
<g id="a_edge1_Node000001_Node000002"><a xlink:title=" ">
<path fill="none" stroke="#63b8ff" d="M294.32,-154.42C293.83,-146.05 294.28,-136.75 295.67,-130.11"/>
<polygon fill="#63b8ff" stroke="#63b8ff" points="290.81,-154.59 295.52,-164.08 297.76,-153.72 290.81,-154.59"/>
</a>
</g>
</g>
<!-- Node2&#45;&gt;Node1 -->
<g id="edge8_Node000002_Node000001" class="edge">
<title>Node2&#45;&gt;Node1</title>
<g id="a_edge8_Node000002_Node000001"><a xlink:title=" ">
<path fill="none" stroke="#63b8ff" d="M307.45,-141.32C307.92,-149.71 307.45,-158.99 306.04,-165.58"/>
<polygon fill="#63b8ff" stroke="#63b8ff" points="310.95,-141.12 306.26,-131.61 304,-141.96 310.95,-141.12"/>
</a>
</g>
</g>
<!-- Node3 -->
<g id="Node000003" class="node">
<title>Node3</title>
<g id="a_Node000003"><a xlink:href="../../d7/de4/box_8hpp.html" target="_top" xlink:title="Defines a templated bounding box class for 3D primitives.">
<polygon fill="white" stroke="#666666" points="103.75,-74.5 0,-74.5 0,-55.25 103.75,-55.25 103.75,-74.5"/>
<text text-anchor="middle" x="51.88" y="-61" font-family="Times,serif" font-size="10.00">include/math/box.hpp</text>
</a>
</g>
</g>
<!-- Node2&#45;&gt;Node3 -->
<g id="edge2_Node000002_Node000003" class="edge">
<title>Node2&#45;&gt;Node3</title>
<g id="a_edge2_Node000002_Node000003"><a xlink:title=" ">
<path fill="none" stroke="#63b8ff" d="M246.14,-108.6C198.48,-98.78 130.79,-84.28 89.13,-74.96"/>
<polygon fill="#63b8ff" stroke="#63b8ff" points="245.21,-111.98 255.71,-110.56 246.62,-105.12 245.21,-111.98"/>
</a>
</g>
</g>
<!-- Node4 -->
<g id="Node000004" class="node">
<title>Node4</title>
<g id="a_Node000004"><a xlink:href="../../d6/d02/intersection_8hpp.html" target="_top" xlink:title="Provides functionalities to represent and handle intersections in 3D space.">
<polygon fill="white" stroke="#666666" points="295.88,-74.5 159.88,-74.5 159.88,-55.25 295.88,-55.25 295.88,-74.5"/>
<text text-anchor="middle" x="227.88" y="-61" font-family="Times,serif" font-size="10.00">include/math/intersection.hpp</text>
</a>
</g>
</g>
<!-- Node2&#45;&gt;Node4 -->
<g id="edge4_Node000002_Node000004" class="edge">
<title>Node2&#45;&gt;Node4</title>
<g id="a_edge4_Node000002_Node000004"><a xlink:title=" ">
<path fill="none" stroke="#63b8ff" d="M274.01,-104.01C260.02,-94.57 244.12,-82.74 234.89,-74.77"/>
<polygon fill="#63b8ff" stroke="#63b8ff" points="271.73,-106.71 282.01,-109.26 275.57,-100.85 271.73,-106.71"/>
</a>
</g>
</g>
<!-- Node6 -->
<g id="Node000006" class="node">
<title>Node6</title>
<g id="a_Node000006"><a xlink:href="../../db/d1d/ray_8hpp.html" target="_top" xlink:title="Contains the definition of the Ray class.">
<polygon fill="white" stroke="#666666" points="553.62,-74.5 452.12,-74.5 452.12,-55.25 553.62,-55.25 553.62,-74.5"/>
<text text-anchor="middle" x="502.88" y="-61" font-family="Times,serif" font-size="10.00">include/math/ray.hpp</text>
</a>
</g>
</g>
<!-- Node2&#45;&gt;Node6 -->
<g id="edge9_Node000002_Node000006" class="edge">
<title>Node2&#45;&gt;Node6</title>
<g id="a_edge9_Node000002_Node000006"><a xlink:title=" ">
<path fill="none" stroke="#63b8ff" d="M340.85,-107.07C376.35,-97.32 427.8,-83.8 463.21,-74.95"/>
<polygon fill="#63b8ff" stroke="#63b8ff" points="340.09,-103.65 331.38,-109.69 341.95,-110.4 340.09,-103.65"/>
</a>
</g>
</g>
<!-- Node8 -->
<g id="Node000008" class="node">
<title>Node8</title>
<g id="a_Node000008"><a xlink:href="../../d9/d6c/triangle_8hpp.html" target="_top" xlink:title="Defines the Triangle structure and methods for ray&#45;triangle intersection.">
<polygon fill="white" stroke="#666666" points="433.62,-74.5 314.12,-74.5 314.12,-55.25 433.62,-55.25 433.62,-74.5"/>
<text text-anchor="middle" x="373.88" y="-61" font-family="Times,serif" font-size="10.00">include/math/triangle.hpp</text>
</a>
</g>
</g>
<!-- Node2&#45;&gt;Node8 -->
<g id="edge14_Node000002_Node000008" class="edge">
<title>Node2&#45;&gt;Node8</title>
<g id="a_edge14_Node000002_Node000008"><a xlink:title=" ">
<path fill="none" stroke="#63b8ff" d="M316.77,-102.96C328.46,-93.78 344.11,-82.62 356.2,-74.95"/>
<polygon fill="#63b8ff" stroke="#63b8ff" points="314.74,-100.1 309.21,-109.13 319.17,-105.52 314.74,-100.1"/>
</a>
</g>
</g>
<!-- Node3&#45;&gt;Node2 -->
<g id="edge3_Node000003_Node000002" class="edge">
<title>Node3&#45;&gt;Node2</title>
<g id="a_edge3_Node000003_Node000002"><a xlink:title=" ">
<path fill="none" stroke="#63b8ff" d="M110.47,-77.2C157.85,-86.99 223.03,-100.96 263.58,-110.03"/>
<polygon fill="#63b8ff" stroke="#63b8ff" points="111.43,-73.82 100.93,-75.24 110.02,-80.68 111.43,-73.82"/>
</a>
</g>
</g>
<!-- Node4&#45;&gt;Node2 -->
<g id="edge5_Node000004_Node000002" class="edge">
<title>Node4&#45;&gt;Node2</title>
<g id="a_edge5_Node000004_Node000002"><a xlink:title=" ">
<path fill="none" stroke="#63b8ff" d="M255.17,-81.27C268.97,-90.61 284.55,-102.21 293.71,-110.09"/>
<polygon fill="#63b8ff" stroke="#63b8ff" points="257.09,-78.35 246.81,-75.78 253.25,-84.2 257.09,-78.35"/>
</a>
</g>
</g>
<!-- Node5 -->
<g id="Node000005" class="node">
<title>Node5</title>
<g id="a_Node000005"><a xlink:href="../../d7/d82/plane_8hpp.html" target="_top" xlink:title="Provides the definition of the Plane structure and its associated operations.">
<polygon fill="white" stroke="#666666" points="283.12,-19.25 172.62,-19.25 172.62,0 283.12,0 283.12,-19.25"/>
<text text-anchor="middle" x="227.88" y="-5.75" font-family="Times,serif" font-size="10.00">include/math/plane.hpp</text>
</a>
</g>
</g>
<!-- Node4&#45;&gt;Node5 -->
<g id="edge6_Node000004_Node000005" class="edge">
<title>Node4&#45;&gt;Node5</title>
<g id="a_edge6_Node000004_Node000005"><a xlink:title=" ">
<path fill="none" stroke="#63b8ff" d="M227.88,-43.63C227.88,-35.34 227.88,-26.17 227.88,-19.61"/>
<polygon fill="#63b8ff" stroke="#63b8ff" points="224.38,-43.57 227.88,-53.57 231.38,-43.57 224.38,-43.57"/>
</a>
</g>
</g>
<!-- Node5&#45;&gt;Node2 -->
<g id="edge7_Node000005_Node000002" class="edge">
<title>Node5&#45;&gt;Node2</title>
<g id="a_edge7_Node000005_Node000002"><a xlink:title=" ">
<path fill="none" stroke="#63b8ff" d="M190.52,-23.96C163.93,-35.58 135.43,-53.79 150.88,-74.5 175.16,-107.06 222.24,-116.81 257.2,-119.29"/>
<polygon fill="#63b8ff" stroke="#63b8ff" points="191.59,-27.3 199.51,-20.26 188.93,-20.83 191.59,-27.3"/>
</a>
</g>
</g>
<!-- Node6&#45;&gt;Node2 -->
<g id="edge10_Node000006_Node000002" class="edge">
<title>Node6&#45;&gt;Node2</title>
<g id="a_edge10_Node000006_Node000002"><a xlink:title=" ">
<path fill="none" stroke="#63b8ff" d="M462.72,-77.98C427.17,-87.74 375.72,-101.26 340.36,-110.09"/>
<polygon fill="#63b8ff" stroke="#63b8ff" points="463.5,-81.39 472.21,-75.36 461.64,-74.65 463.5,-81.39"/>
</a>
</g>
</g>
<!-- Node6&#45;&gt;Node5 -->
<g id="edge11_Node000006_Node000005" class="edge">
<title>Node6&#45;&gt;Node5</title>
<g id="a_edge11_Node000006_Node000005"><a xlink:title=" ">
<path fill="none" stroke="#63b8ff" d="M444.82,-52.63C394.17,-42.83 321.64,-28.78 274.64,-19.68"/>
<polygon fill="#63b8ff" stroke="#63b8ff" points="443.94,-56.03 454.43,-54.49 445.28,-49.16 443.94,-56.03"/>
</a>
</g>
</g>
<!-- Node7 -->
<g id="Node000007" class="node">
<title>Node7</title>
<g id="a_Node000007"><a xlink:href="../../d0/da1/sphere_8hpp.html" target="_top" xlink:title="Defines the Sphere structure and its associated functionality.">
<polygon fill="white" stroke="#666666" points="599.75,-19.25 484,-19.25 484,0 599.75,0 599.75,-19.25"/>
<text text-anchor="middle" x="541.88" y="-5.75" font-family="Times,serif" font-size="10.00">include/math/sphere.hpp</text>
</a>
</g>
</g>
<!-- Node6&#45;&gt;Node7 -->
<g id="edge12_Node000006_Node000007" class="edge">
<title>Node6&#45;&gt;Node7</title>
<g id="a_edge12_Node000006_Node000007"><a xlink:title=" ">
<path fill="none" stroke="#63b8ff" d="M516.01,-45.94C522.5,-37.09 530.04,-26.79 535.3,-19.61"/>
<polygon fill="#63b8ff" stroke="#63b8ff" points="513.29,-43.73 510.21,-53.86 518.94,-47.86 513.29,-43.73"/>
</a>
</g>
</g>
<!-- Node7&#45;&gt;Node2 -->
<g id="edge13_Node000007_Node000002" class="edge">
<title>Node7&#45;&gt;Node2</title>
<g id="a_edge13_Node000007_Node000002"><a xlink:title=" ">
<path fill="none" stroke="#63b8ff" d="M556.18,-28.53C565.44,-42.41 573.9,-61.44 562.88,-74.5 535.46,-106.98 411.79,-115.82 344.62,-118.23"/>
<polygon fill="#63b8ff" stroke="#63b8ff" points="559.18,-26.71 550.45,-20.7 553.53,-30.84 559.18,-26.71"/>
</a>
</g>
</g>
<!-- Node8&#45;&gt;Node2 -->
<g id="edge15_Node000008_Node000002" class="edge">
<title>Node8&#45;&gt;Node2</title>
<g id="a_edge15_Node000008_Node000002"><a xlink:title=" ">
<path fill="none" stroke="#63b8ff" d="M358.12,-81.93C346.39,-91.15 330.63,-102.4 318.48,-110.09"/>
<polygon fill="#63b8ff" stroke="#63b8ff" points="360.17,-84.77 365.69,-75.73 355.74,-79.36 360.17,-84.77"/>
</a>
</g>
</g>
</g>
</svg>
