<?xml version="1.0" encoding="UTF-8" standalone="no"?>
<!DOCTYPE svg PUBLIC "-//W3C//DTD SVG 1.1//EN"
 "http://www.w3.org/Graphics/SVG/1.1/DTD/svg11.dtd">
<!-- Generated by graphviz version 9.0.0 (20230911.1827)
 -->
<!-- Title: mal_math::_detail::rvec&lt; 4, T &gt; Pages: 1 -->
<!--zoomable 262 -->

<svg id="main" version="1.1" xmlns="http://www.w3.org/2000/svg" xmlns:xlink="http://www.w3.org/1999/xlink" xml:space="preserve" onload="init(evt)">
<style type="text/css"><![CDATA[
.node, .edge {opacity: 0.7;}
.node.selected, .edge.selected {opacity: 1;}
.edge:hover path { stroke: red; }
.edge:hover polygon { stroke: red; fill: red; }
]]></style>

<defs>
  <circle id="rim" cx="0" cy="0" r="7"/>
  <circle id="rim2" cx="0" cy="0" r="3.5"/>
  <g id="zoomPlus">
    <use xlink:href="#rim" fill="#404040"><set attributeName="fill" to="#808080" begin="zoomplus.mouseover" end="zoomplus.mouseout"/></use>
    <path d="M-4,0h8M0,-4v8" fill="none" stroke="white" stroke-width="1.5" pointer-events="none"/>
  </g>
  <g id="zoomMin">
    <use xlink:href="#rim" fill="#404040"><set attributeName="fill" to="#808080" begin="zoomminus.mouseover" end="zoomminus.mouseout"/></use>
    <path d="M-4,0h8" fill="none" stroke="white" stroke-width="1.5" pointer-events="none"/>
  </g>
  <g id="arrowUp" transform="translate(30 24)">
    <use xlink:href="#rim"/>
    <path pointer-events="none" fill="none" stroke="white" stroke-width="1.5" d="M0,-3.0v7 M-2.5,-0.5L0,-3.0L2.5,-0.5"/>
  </g>
  <g id="arrowRight" transform="rotate(90) translate(36 -43)">
    <use xlink:href="#rim"/>
    <path pointer-events="none" fill="none" stroke="white" stroke-width="1.5" d="M0,-3.0v7 M-2.5,-0.5L0,-3.0L2.5,-0.5"/>
  </g>
  <g id="arrowDown" transform="rotate(180) translate(-30 -48)">
    <use xlink:href="#rim"/>
    <path pointer-events="none" fill="none" stroke="white" stroke-width="1.5" d="M0,-3.0v7 M-2.5,-0.5L0,-3.0L2.5,-0.5"/>
  </g>
  <g id="arrowLeft" transform="rotate(270) translate(-36 17)">
    <use xlink:href="#rim"/>
    <path pointer-events="none" fill="none" stroke="white" stroke-width="1.5" d="M0,-3.0v7 M-2.5,-0.5L0,-3.0L2.5,-0.5"/>
  </g>
  <g id="resetDef">
    <use xlink:href="#rim2" fill="#404040"><set attributeName="fill" to="#808080" begin="reset.mouseover" end="reset.mouseout"/></use>
  </g>
</defs>
<script type="application/ecmascript">
var viewWidth = 580;
var viewHeight = 262;
var sectionId = 'dynsection-0';
</script>
<script type="application/ecmascript" xlink:href="../../svg.min.js"/>
<svg id="graph" class="graph">
<g id="viewport">
<title>mal_math::_detail::rvec&lt; 4, T &gt;</title>
<!-- Node1 -->
<g id="Node000001" class="node">
<title>Node1</title>
<g id="a_Node000001"><a xlink:title="A 4&#45;dimensional reference vector template.">
<polygon fill="#999999" stroke="#666666" points="571.8,-112.88 479.3,-112.88 479.3,-82.38 571.8,-82.38 571.8,-112.88"/>
<text text-anchor="start" x="487.3" y="-99.38" font-family="Times,serif" font-size="10.00">mal_math::_detail::</text>
<text text-anchor="middle" x="525.55" y="-88.12" font-family="Times,serif" font-size="10.00">rvec&lt; 4, T &gt;</text>
</a>
</g>
</g>
<!-- Node1&#45;&gt;Node1 -->
<g id="edge7_Node000001_Node000001" class="edge">
<title>Node1&#45;&gt;Node1</title>
<g id="a_edge7_Node000001_Node000001"><a xlink:title=" ">
<path fill="none" stroke="#9a32cd" stroke-dasharray="5,2" d="M513.14,-124.58C515.17,-128.35 519.31,-130.88 525.55,-130.88 536.97,-130.88 541.34,-122.43 538.66,-113.36"/>
<polygon fill="#9a32cd" stroke="#9a32cd" points="516.65,-124.63 512.53,-114.87 509.66,-125.07 516.65,-124.63"/>
</a>
</g>
<text text-anchor="middle" x="525.55" y="-132.62" font-family="Times,serif" font-size="10.00" fill="grey"> @35</text>
</g>
<!-- Node2 -->
<g id="Node000002" class="node">
<title>Node2</title>
<g id="a_Node000002"><a xlink:title=" ">
<polygon fill="white" stroke="#666666" points="420.42,-254.25 316.67,-254.25 316.67,-235 420.42,-235 420.42,-254.25"/>
<text text-anchor="middle" x="368.55" y="-240.75" font-family="Times,serif" font-size="10.00">static constexpr size_t</text>
</a>
</g>
</g>
<!-- Node2&#45;&gt;Node1 -->
<g id="edge1_Node000001_Node000002" class="edge">
<title>Node2&#45;&gt;Node1</title>
<g id="a_edge1_Node000001_Node000002"><a xlink:title=" ">
<path fill="none" stroke="#9a32cd" stroke-dasharray="5,2" d="M431.75,-237.45C442.36,-234.15 452.72,-229.41 461.3,-222.62 497.36,-194.12 514.65,-139.57 521.23,-112.97"/>
<polygon fill="#9a32cd" stroke="#9a32cd" points="430.89,-234.06 422.13,-240.01 432.69,-240.83 430.89,-234.06"/>
</a>
</g>
<text text-anchor="middle" x="451.55" y="-234.38" font-family="Times,serif" font-size="10.00" fill="grey"> size</text>
</g>
<!-- Node3 -->
<g id="Node000003" class="node">
<title>Node3</title>
<g id="a_Node000003"><a xlink:title=" ">
<polygon fill="white" stroke="#666666" points="415.17,-112.88 321.92,-112.88 321.92,-82.38 415.17,-82.38 415.17,-112.88"/>
<text text-anchor="start" x="329.92" y="-99.38" font-family="Times,serif" font-size="10.00">primitive_reference</text>
<text text-anchor="middle" x="368.55" y="-88.12" font-family="Times,serif" font-size="10.00">_wrapper&lt; T &gt;</text>
</a>
</g>
</g>
<!-- Node3&#45;&gt;Node1 -->
<g id="edge2_Node000001_Node000003" class="edge">
<title>Node3&#45;&gt;Node1</title>
<g id="a_edge2_Node000001_Node000003"><a xlink:title=" ">
<path fill="none" stroke="#9a32cd" stroke-dasharray="5,2" d="M426.7,-97.62C443.9,-97.62 462.55,-97.62 478.91,-97.62"/>
<polygon fill="#9a32cd" stroke="#9a32cd" points="427.15,-94.13 417.15,-97.63 427.15,-101.13 427.15,-94.13"/>
</a>
</g>
<text text-anchor="middle" x="451.55" y="-211.88" font-family="Times,serif" font-size="10.00" fill="grey"> a</text>
<text text-anchor="middle" x="451.55" y="-200.62" font-family="Times,serif" font-size="10.00" fill="grey">b</text>
<text text-anchor="middle" x="451.55" y="-189.38" font-family="Times,serif" font-size="10.00" fill="grey">g</text>
<text text-anchor="middle" x="451.55" y="-178.12" font-family="Times,serif" font-size="10.00" fill="grey">p</text>
<text text-anchor="middle" x="451.55" y="-166.88" font-family="Times,serif" font-size="10.00" fill="grey">q</text>
<text text-anchor="middle" x="451.55" y="-155.62" font-family="Times,serif" font-size="10.00" fill="grey">r</text>
<text text-anchor="middle" x="451.55" y="-144.38" font-family="Times,serif" font-size="10.00" fill="grey">s</text>
<text text-anchor="middle" x="451.55" y="-133.12" font-family="Times,serif" font-size="10.00" fill="grey">t</text>
<text text-anchor="middle" x="451.55" y="-121.88" font-family="Times,serif" font-size="10.00" fill="grey">w</text>
<text text-anchor="middle" x="451.55" y="-110.62" font-family="Times,serif" font-size="10.00" fill="grey">x</text>
<text text-anchor="middle" x="451.55" y="-99.38" font-family="Times,serif" font-size="10.00" fill="grey">...</text>
</g>
<!-- Node4 -->
<g id="Node000004" class="node">
<title>Node4</title>
<g id="a_Node000004"><a xlink:title=" ">
<polygon fill="white" stroke="#666666" points="423.8,-64.12 313.3,-64.12 313.3,-11.12 423.8,-11.12 423.8,-64.12"/>
<text text-anchor="start" x="321.3" y="-50.62" font-family="Times,serif" font-size="10.00">std::array&lt; mal_math</text>
<text text-anchor="start" x="321.3" y="-39.38" font-family="Times,serif" font-size="10.00">::_detail::primitive</text>
<text text-anchor="start" x="321.3" y="-28.12" font-family="Times,serif" font-size="10.00">_reference_wrapper&lt; T</text>
<text text-anchor="middle" x="368.55" y="-16.88" font-family="Times,serif" font-size="10.00"> &gt;, 4 &gt;</text>
</a>
</g>
</g>
<!-- Node4&#45;&gt;Node1 -->
<g id="edge3_Node000001_Node000004" class="edge">
<title>Node4&#45;&gt;Node1</title>
<g id="a_edge3_Node000001_Node000004"><a xlink:title=" ">
<path fill="none" stroke="#9a32cd" stroke-dasharray="5,2" d="M434.52,-62.77C451.3,-69.27 468.9,-76.08 484.03,-81.94"/>
<polygon fill="#9a32cd" stroke="#9a32cd" points="436.2,-59.67 425.61,-59.33 433.67,-66.2 436.2,-59.67"/>
</a>
</g>
<text text-anchor="middle" x="451.55" y="-74.38" font-family="Times,serif" font-size="10.00" fill="grey"> data</text>
</g>
<!-- Node5 -->
<g id="Node000005" class="node">
<title>Node5</title>
<g id="a_Node000005"><a xlink:title=" ">
<polygon fill="white" stroke="#666666" points="194.8,-81.88 101.55,-81.88 101.55,-51.38 194.8,-51.38 194.8,-81.88"/>
<text text-anchor="start" x="109.55" y="-68.38" font-family="Times,serif" font-size="10.00">primitive_reference</text>
<text text-anchor="middle" x="148.17" y="-57.12" font-family="Times,serif" font-size="10.00">_wrapper&lt; T &gt;</text>
</a>
</g>
</g>
<!-- Node5&#45;&gt;Node4 -->
<g id="edge4_Node000004_Node000005" class="edge">
<title>Node5&#45;&gt;Node4</title>
<g id="a_edge4_Node000004_Node000005"><a xlink:title=" ">
<path fill="none" stroke="#9a32cd" stroke-dasharray="5,2" d="M206.51,-59.01C239.46,-54.64 280.62,-49.17 313.08,-44.86"/>
<polygon fill="#9a32cd" stroke="#9a32cd" points="206.17,-55.52 196.72,-60.31 207.09,-62.46 206.17,-55.52"/>
</a>
</g>
<text text-anchor="middle" x="254.05" y="-59.38" font-family="Times,serif" font-size="10.00" fill="grey"> elements</text>
</g>
<!-- Node6 -->
<g id="Node000006" class="node">
<title>Node6</title>
<g id="a_Node000006"><a xlink:title=" ">
<polygon fill="white" stroke="#666666" points="185.8,-19.25 110.55,-19.25 110.55,0 185.8,0 185.8,-19.25"/>
<text text-anchor="middle" x="148.17" y="-5.75" font-family="Times,serif" font-size="10.00">std::array&lt; T &gt;</text>
</a>
</g>
</g>
<!-- Node6&#45;&gt;Node4 -->
<g id="edge5_Node000004_Node000006" class="edge">
<title>Node6&#45;&gt;Node4</title>
<g id="a_edge5_Node000004_Node000006"><a xlink:title=" ">
<path fill="none" stroke="orange" stroke-dasharray="5,2" d="M197.48,-5.88C226.14,-4.69 263.06,-4.96 295.3,-10.88 301.09,-11.94 307.02,-13.43 312.88,-15.16"/>
<polygon fill="orange" stroke="orange" points="197.47,-2.38 187.65,-6.37 197.81,-9.37 197.47,-2.38"/>
</a>
</g>
<text text-anchor="start" x="212.8" y="-35.88" font-family="Times,serif" font-size="10.00" fill="grey"> &lt; mal_math::_detail</text>
<text text-anchor="start" x="212.8" y="-24.62" font-family="Times,serif" font-size="10.00" fill="grey">::primitive_reference</text>
<text text-anchor="middle" x="254.05" y="-13.38" font-family="Times,serif" font-size="10.00" fill="grey">_wrapper&lt; T &gt;, 4 &gt;</text>
</g>
<!-- Node7 -->
<g id="Node000007" class="node">
<title>Node7</title>
<g id="a_Node000007"><a xlink:title=" ">
<polygon fill="white" stroke="#666666" points="28.8,-19.25 0,-19.25 0,0 28.8,0 28.8,-19.25"/>
<text text-anchor="middle" x="14.4" y="-5.75" font-family="Times,serif" font-size="10.00">T</text>
</a>
</g>
</g>
<!-- Node7&#45;&gt;Node6 -->
<g id="edge6_Node000006_Node000007" class="edge">
<title>Node7&#45;&gt;Node6</title>
<g id="a_edge6_Node000006_Node000007"><a xlink:title=" ">
<path fill="none" stroke="#9a32cd" stroke-dasharray="5,2" d="M40.4,-9.62C60.13,-9.62 87.97,-9.62 110.27,-9.62"/>
<polygon fill="#9a32cd" stroke="#9a32cd" points="40.52,-6.13 30.52,-9.63 40.52,-13.13 40.52,-6.13"/>
</a>
</g>
<text text-anchor="middle" x="65.17" y="-11.38" font-family="Times,serif" font-size="10.00" fill="grey"> elements</text>
</g>
</g>
</svg>

<g id="navigator" transform="translate(0 0)" fill="#404254">
  <rect fill="#f2f5e9" fill-opacity="0.5" stroke="#606060" stroke-width=".5" x="0" y="0" width="60" height="60"/>
  <use id="zoomplus" xlink:href="#zoomPlus" x="17" y="9" onmousedown="handleZoom(evt,'in')"/>
  <use id="zoomminus" xlink:href="#zoomMin" x="42" y="9" onmousedown="handleZoom(evt,'out')"/>
  <use id="reset" xlink:href="#resetDef" x="30" y="36" onmousedown="handleReset()"/>
   <use id="arrowup" xlink:href="#arrowUp" x="0" y="0" onmousedown="handlePan(0,-1)"/>
  <use id="arrowright" xlink:href="#arrowRight" x="0" y="0" onmousedown="handlePan(1,0)"/>
  <use id="arrowdown" xlink:href="#arrowDown" x="0" y="0" onmousedown="handlePan(0,1)"/>
  <use id="arrowleft" xlink:href="#arrowLeft" x="0" y="0" onmousedown="handlePan(-1,0)"/>
</g>
<svg viewBox="0 0 15 15" width="100%" height="30px" preserveAspectRatio="xMaxYMin meet">
 <g id="arrow_out" transform="scale(0.3 0.3)">
  <a xlink:href="structmal__math_1_1__detail_1_1rvec_3_014_00_01_t_01_4__coll__graph_org.svg" target="_base">
   <rect id="button" ry="5" rx="5" y="6" x="6" height="38" width="38"
        fill="#f2f5e9" fill-opacity="0.5" stroke="#606060" stroke-width="1.0"/>
   <path id="arrow"
     d="M 11.500037,31.436501 C 11.940474,20.09759 22.043105,11.32322 32.158766,21.979434 L 37.068811,17.246167 C 37.068811,17.246167 37.088388,32 37.088388,32 L 22.160133,31.978069 C 22.160133,31.978069 26.997745,27.140456 26.997745,27.140456 C 18.528582,18.264221 13.291696,25.230495 11.500037,31.436501 z"
     style="fill:#404040;"/>
  </a>
 </g>
</svg>

<style type='text/css'>
<![CDATA[
[data-mouse-over-selected='false'] { opacity: 0.7; }
[data-mouse-over-selected='true']  { opacity: 1.0; }
]]>
</style>
<script type="application/ecmascript"><![CDATA[
document.addEventListener('DOMContentLoaded', (event) => {
  highlightEdges();
  highlightAdjacentNodes();
});
]]></script>
</svg>
