<?xml version="1.0" encoding="UTF-8" standalone="no"?>
<!DOCTYPE svg PUBLIC "-//W3C//DTD SVG 1.1//EN"
 "http://www.w3.org/Graphics/SVG/1.1/DTD/svg11.dtd">
<!-- Generated by graphviz version 9.0.0 (20230911.1827)
 -->
<!-- Title: mal_math::_detail::rvec&lt; 4, T &gt; Pages: 1 -->
<svg width="562pt" height="256pt"
 viewBox="0.00 0.00 561.80 256.25" xmlns="http://www.w3.org/2000/svg" xmlns:xlink="http://www.w3.org/1999/xlink">
<g id="graph0" class="graph" transform="scale(1 1) rotate(0) translate(4 252.25)">
<title>mal_math::_detail::rvec&lt; 4, T &gt;</title>
<!-- Node1 -->
<g id="Node000001" class="node">
<title>Node1</title>
<g id="a_Node000001"><a xlink:title="A 4&#45;dimensional reference vector template.">
<polygon fill="#999999" stroke="#666666" points="553.8,-106.88 461.3,-106.88 461.3,-76.38 553.8,-76.38 553.8,-106.88"/>
<text text-anchor="start" x="469.3" y="-93.38" font-family="Times,serif" font-size="10.00">mal_math::_detail::</text>
<text text-anchor="middle" x="507.55" y="-82.12" font-family="Times,serif" font-size="10.00">rvec&lt; 4, T &gt;</text>
</a>
</g>
</g>
<!-- Node1&#45;&gt;Node1 -->
<g id="edge7_Node000001_Node000001" class="edge">
<title>Node1&#45;&gt;Node1</title>
<g id="a_edge7_Node000001_Node000001"><a xlink:title=" ">
<path fill="none" stroke="#9a32cd" stroke-dasharray="5,2" d="M495.14,-118.58C497.17,-122.35 501.31,-124.88 507.55,-124.88 518.97,-124.88 523.34,-116.43 520.66,-107.36"/>
<polygon fill="#9a32cd" stroke="#9a32cd" points="498.65,-118.63 494.53,-108.87 491.66,-119.07 498.65,-118.63"/>
</a>
</g>
<text text-anchor="middle" x="507.55" y="-126.62" font-family="Times,serif" font-size="10.00" fill="grey"> @35</text>
</g>
<!-- Node2 -->
<g id="Node000002" class="node">
<title>Node2</title>
<g id="a_Node000002"><a xlink:title=" ">
<polygon fill="white" stroke="#666666" points="402.42,-248.25 298.67,-248.25 298.67,-229 402.42,-229 402.42,-248.25"/>
<text text-anchor="middle" x="350.55" y="-234.75" font-family="Times,serif" font-size="10.00">static constexpr size_t</text>
</a>
</g>
</g>
<!-- Node2&#45;&gt;Node1 -->
<g id="edge1_Node000001_Node000002" class="edge">
<title>Node2&#45;&gt;Node1</title>
<g id="a_edge1_Node000001_Node000002"><a xlink:title=" ">
<path fill="none" stroke="#9a32cd" stroke-dasharray="5,2" d="M413.75,-231.45C424.36,-228.15 434.72,-223.41 443.3,-216.62 479.36,-188.12 496.65,-133.57 503.23,-106.97"/>
<polygon fill="#9a32cd" stroke="#9a32cd" points="412.89,-228.06 404.13,-234.01 414.69,-234.83 412.89,-228.06"/>
</a>
</g>
<text text-anchor="middle" x="433.55" y="-228.38" font-family="Times,serif" font-size="10.00" fill="grey"> size</text>
</g>
<!-- Node3 -->
<g id="Node000003" class="node">
<title>Node3</title>
<g id="a_Node000003"><a xlink:title=" ">
<polygon fill="white" stroke="#666666" points="397.17,-106.88 303.92,-106.88 303.92,-76.38 397.17,-76.38 397.17,-106.88"/>
<text text-anchor="start" x="311.92" y="-93.38" font-family="Times,serif" font-size="10.00">primitive_reference</text>
<text text-anchor="middle" x="350.55" y="-82.12" font-family="Times,serif" font-size="10.00">_wrapper&lt; T &gt;</text>
</a>
</g>
</g>
<!-- Node3&#45;&gt;Node1 -->
<g id="edge2_Node000001_Node000003" class="edge">
<title>Node3&#45;&gt;Node1</title>
<g id="a_edge2_Node000001_Node000003"><a xlink:title=" ">
<path fill="none" stroke="#9a32cd" stroke-dasharray="5,2" d="M408.7,-91.62C425.9,-91.62 444.55,-91.62 460.91,-91.62"/>
<polygon fill="#9a32cd" stroke="#9a32cd" points="409.15,-88.13 399.15,-91.63 409.15,-95.13 409.15,-88.13"/>
</a>
</g>
<text text-anchor="middle" x="433.55" y="-205.88" font-family="Times,serif" font-size="10.00" fill="grey"> a</text>
<text text-anchor="middle" x="433.55" y="-194.62" font-family="Times,serif" font-size="10.00" fill="grey">b</text>
<text text-anchor="middle" x="433.55" y="-183.38" font-family="Times,serif" font-size="10.00" fill="grey">g</text>
<text text-anchor="middle" x="433.55" y="-172.12" font-family="Times,serif" font-size="10.00" fill="grey">p</text>
<text text-anchor="middle" x="433.55" y="-160.88" font-family="Times,serif" font-size="10.00" fill="grey">q</text>
<text text-anchor="middle" x="433.55" y="-149.62" font-family="Times,serif" font-size="10.00" fill="grey">r</text>
<text text-anchor="middle" x="433.55" y="-138.38" font-family="Times,serif" font-size="10.00" fill="grey">s</text>
<text text-anchor="middle" x="433.55" y="-127.12" font-family="Times,serif" font-size="10.00" fill="grey">t</text>
<text text-anchor="middle" x="433.55" y="-115.88" font-family="Times,serif" font-size="10.00" fill="grey">w</text>
<text text-anchor="middle" x="433.55" y="-104.62" font-family="Times,serif" font-size="10.00" fill="grey">x</text>
<text text-anchor="middle" x="433.55" y="-93.38" font-family="Times,serif" font-size="10.00" fill="grey">...</text>
</g>
<!-- Node4 -->
<g id="Node000004" class="node">
<title>Node4</title>
<g id="a_Node000004"><a xlink:title=" ">
<polygon fill="white" stroke="#666666" points="405.8,-58.12 295.3,-58.12 295.3,-5.12 405.8,-5.12 405.8,-58.12"/>
<text text-anchor="start" x="303.3" y="-44.62" font-family="Times,serif" font-size="10.00">std::array&lt; mal_math</text>
<text text-anchor="start" x="303.3" y="-33.38" font-family="Times,serif" font-size="10.00">::_detail::primitive</text>
<text text-anchor="start" x="303.3" y="-22.12" font-family="Times,serif" font-size="10.00">_reference_wrapper&lt; T</text>
<text text-anchor="middle" x="350.55" y="-10.88" font-family="Times,serif" font-size="10.00"> &gt;, 4 &gt;</text>
</a>
</g>
</g>
<!-- Node4&#45;&gt;Node1 -->
<g id="edge3_Node000001_Node000004" class="edge">
<title>Node4&#45;&gt;Node1</title>
<g id="a_edge3_Node000001_Node000004"><a xlink:title=" ">
<path fill="none" stroke="#9a32cd" stroke-dasharray="5,2" d="M416.52,-56.77C433.3,-63.27 450.9,-70.08 466.03,-75.94"/>
<polygon fill="#9a32cd" stroke="#9a32cd" points="418.2,-53.67 407.61,-53.33 415.67,-60.2 418.2,-53.67"/>
</a>
</g>
<text text-anchor="middle" x="433.55" y="-68.38" font-family="Times,serif" font-size="10.00" fill="grey"> data</text>
</g>
<!-- Node5 -->
<g id="Node000005" class="node">
<title>Node5</title>
<g id="a_Node000005"><a xlink:title=" ">
<polygon fill="white" stroke="#666666" points="28.8,-43.25 0,-43.25 0,-24 28.8,-24 28.8,-43.25"/>
<text text-anchor="middle" x="14.4" y="-29.75" font-family="Times,serif" font-size="10.00">T</text>
</a>
</g>
</g>
<!-- Node5&#45;&gt;Node4 -->
<g id="edge4_Node000004_Node000005" class="edge">
<title>Node5&#45;&gt;Node4</title>
<g id="a_edge4_Node000004_Node000005"><a xlink:title=" ">
<path fill="none" stroke="#9a32cd" stroke-dasharray="5,2" d="M40.4,-41.46C42.55,-41.93 44.7,-42.33 46.8,-42.62 148.25,-56.88 175.15,-50.36 277.3,-42.62 282.99,-42.19 288.92,-41.57 294.82,-40.85"/>
<polygon fill="#9a32cd" stroke="#9a32cd" points="41.31,-38.08 30.75,-38.9 39.52,-44.85 41.31,-38.08"/>
</a>
</g>
<text text-anchor="middle" x="139.17" y="-52.38" font-family="Times,serif" font-size="10.00" fill="grey"> elements</text>
</g>
<!-- Node6 -->
<g id="Node000006" class="node">
<title>Node6</title>
<g id="a_Node000006"><a xlink:title=" ">
<polygon fill="white" stroke="#666666" points="176.8,-19.25 101.55,-19.25 101.55,0 176.8,0 176.8,-19.25"/>
<text text-anchor="middle" x="139.17" y="-5.75" font-family="Times,serif" font-size="10.00">std::array&lt; T &gt;</text>
</a>
</g>
</g>
<!-- Node5&#45;&gt;Node6 -->
<g id="edge6_Node000006_Node000005" class="edge">
<title>Node5&#45;&gt;Node6</title>
<g id="a_edge6_Node000006_Node000005"><a xlink:title=" ">
<path fill="none" stroke="#9a32cd" stroke-dasharray="5,2" d="M40.26,-28.77C57.77,-25.34 81.5,-20.7 101.22,-16.85"/>
<polygon fill="#9a32cd" stroke="#9a32cd" points="39.64,-25.32 30.49,-30.67 40.98,-32.19 39.64,-25.32"/>
</a>
</g>
<text text-anchor="middle" x="65.17" y="-29.38" font-family="Times,serif" font-size="10.00" fill="grey"> elements</text>
</g>
<!-- Node6&#45;&gt;Node4 -->
<g id="edge5_Node000004_Node000006" class="edge">
<title>Node6&#45;&gt;Node4</title>
<g id="a_edge5_Node000004_Node000006"><a xlink:title=" ">
<path fill="none" stroke="orange" stroke-dasharray="5,2" d="M188.56,-8.93C190.67,-8.91 192.75,-8.89 194.8,-8.88 231.47,-8.62 241.06,-3.3 277.3,-8.88 283.15,-9.77 289.17,-11.06 295.13,-12.57"/>
<polygon fill="orange" stroke="orange" points="188.67,-5.42 178.71,-9.03 188.75,-12.42 188.67,-5.42"/>
</a>
</g>
<text text-anchor="start" x="194.8" y="-33.88" font-family="Times,serif" font-size="10.00" fill="grey"> &lt; mal_math::_detail</text>
<text text-anchor="start" x="194.8" y="-22.62" font-family="Times,serif" font-size="10.00" fill="grey">::primitive_reference</text>
<text text-anchor="middle" x="236.05" y="-11.38" font-family="Times,serif" font-size="10.00" fill="grey">_wrapper&lt; T &gt;, 4 &gt;</text>
</g>
</g>
</svg>
