<?xml version="1.0" encoding="UTF-8" standalone="no"?>
<!DOCTYPE svg PUBLIC "-//W3C//DTD SVG 1.1//EN"
 "http://www.w3.org/Graphics/SVG/1.1/DTD/svg11.dtd">
<!-- Generated by graphviz version 9.0.0 (20230911.1827)
 -->
<!-- Title: include/math/box.hpp Pages: 1 -->
<svg width="605pt" height="193pt"
 viewBox="0.00 0.00 604.78 193.00" xmlns="http://www.w3.org/2000/svg" xmlns:xlink="http://www.w3.org/1999/xlink">
<g id="graph0" class="graph" transform="scale(1 1) rotate(0) translate(4 189)">
<title>include/math/box.hpp</title>
<!-- Node1 -->
<g id="Node000001" class="node">
<title>Node1</title>
<g id="a_Node000001"><a xlink:title="Defines a templated bounding box class for 3D primitives.">
<polygon fill="#999999" stroke="#666666" points="349.78,-185 246.03,-185 246.03,-165.75 349.78,-165.75 349.78,-185"/>
<text text-anchor="middle" x="297.9" y="-171.5" font-family="Times,serif" font-size="10.00">include/math/box.hpp</text>
</a>
</g>
</g>
<!-- Node2 -->
<g id="Node000002" class="node">
<title>Node2</title>
<g id="a_Node000002"><a xlink:href="../../d4/d78/math_8hpp.html" target="_top" xlink:title="Provides various mathematical utilities, vector operations, and custom hash specializations.">
<polygon fill="white" stroke="#666666" points="341.15,-129.75 254.65,-129.75 254.65,-110.5 341.15,-110.5 341.15,-129.75"/>
<text text-anchor="middle" x="297.9" y="-116.25" font-family="Times,serif" font-size="10.00">include/math.hpp</text>
</a>
</g>
</g>
<!-- Node1&#45;&gt;Node2 -->
<g id="edge1_Node000001_Node000002" class="edge">
<title>Node1&#45;&gt;Node2</title>
<g id="a_edge1_Node000001_Node000002"><a xlink:title=" ">
<path fill="none" stroke="#63b8ff" d="M291.34,-154.42C290.85,-146.05 291.3,-136.75 292.7,-130.11"/>
<polygon fill="#63b8ff" stroke="#63b8ff" points="287.84,-154.59 292.55,-164.08 294.79,-153.72 287.84,-154.59"/>
</a>
</g>
</g>
<!-- Node2&#45;&gt;Node1 -->
<g id="edge2_Node000002_Node000001" class="edge">
<title>Node2&#45;&gt;Node1</title>
<g id="a_edge2_Node000002_Node000001"><a xlink:title=" ">
<path fill="none" stroke="#63b8ff" d="M304.48,-141.32C304.95,-149.71 304.48,-158.99 303.07,-165.58"/>
<polygon fill="#63b8ff" stroke="#63b8ff" points="307.98,-141.12 303.29,-131.61 301.03,-141.96 307.98,-141.12"/>
</a>
</g>
</g>
<!-- Node3 -->
<g id="Node000003" class="node">
<title>Node3</title>
<g id="a_Node000003"><a xlink:href="../../d6/d02/intersection_8hpp.html" target="_top" xlink:title="Provides functionalities to represent and handle intersections in 3D space.">
<polygon fill="white" stroke="#666666" points="292.9,-74.5 156.9,-74.5 156.9,-55.25 292.9,-55.25 292.9,-74.5"/>
<text text-anchor="middle" x="224.9" y="-61" font-family="Times,serif" font-size="10.00">include/math/intersection.hpp</text>
</a>
</g>
</g>
<!-- Node2&#45;&gt;Node3 -->
<g id="edge3_Node000002_Node000003" class="edge">
<title>Node2&#45;&gt;Node3</title>
<g id="a_edge3_Node000002_Node000003"><a xlink:title=" ">
<path fill="none" stroke="#63b8ff" d="M271.03,-104.01C257.05,-94.57 241.15,-82.74 231.91,-74.77"/>
<polygon fill="#63b8ff" stroke="#63b8ff" points="268.76,-106.71 279.04,-109.26 272.59,-100.85 268.76,-106.71"/>
</a>
</g>
</g>
<!-- Node5 -->
<g id="Node000005" class="node">
<title>Node5</title>
<g id="a_Node000005"><a xlink:href="../../d1/df2/random_8hpp.html" target="_top" xlink:title="Provides functionality for random number generation and manipulation in vector spaces.">
<polygon fill="white" stroke="#666666" points="138.65,-74.5 19.15,-74.5 19.15,-55.25 138.65,-55.25 138.65,-74.5"/>
<text text-anchor="middle" x="78.9" y="-61" font-family="Times,serif" font-size="10.00">include/math/random.hpp</text>
</a>
</g>
</g>
<!-- Node2&#45;&gt;Node5 -->
<g id="edge7_Node000002_Node000005" class="edge">
<title>Node2&#45;&gt;Node5</title>
<g id="a_edge7_Node000002_Node000005"><a xlink:title=" ">
<path fill="none" stroke="#63b8ff" d="M244.18,-107.45C202.4,-97.66 145.94,-83.9 110.93,-74.93"/>
<polygon fill="#63b8ff" stroke="#63b8ff" points="243.27,-110.83 253.8,-109.69 244.86,-104.01 243.27,-110.83"/>
</a>
</g>
</g>
<!-- Node6 -->
<g id="Node000006" class="node">
<title>Node6</title>
<g id="a_Node000006"><a xlink:href="../../db/d1d/ray_8hpp.html" target="_top" xlink:title="Contains the definition of the Ray class.">
<polygon fill="white" stroke="#666666" points="550.65,-74.5 449.15,-74.5 449.15,-55.25 550.65,-55.25 550.65,-74.5"/>
<text text-anchor="middle" x="499.9" y="-61" font-family="Times,serif" font-size="10.00">include/math/ray.hpp</text>
</a>
</g>
</g>
<!-- Node2&#45;&gt;Node6 -->
<g id="edge9_Node000002_Node000006" class="edge">
<title>Node2&#45;&gt;Node6</title>
<g id="a_edge9_Node000002_Node000006"><a xlink:title=" ">
<path fill="none" stroke="#63b8ff" d="M337.88,-107.07C373.38,-97.32 424.83,-83.8 460.24,-74.95"/>
<polygon fill="#63b8ff" stroke="#63b8ff" points="337.12,-103.65 328.41,-109.69 338.98,-110.4 337.12,-103.65"/>
</a>
</g>
</g>
<!-- Node8 -->
<g id="Node000008" class="node">
<title>Node8</title>
<g id="a_Node000008"><a xlink:href="../../d9/d6c/triangle_8hpp.html" target="_top" xlink:title="Defines the Triangle structure and methods for ray&#45;triangle intersection.">
<polygon fill="white" stroke="#666666" points="430.65,-74.5 311.15,-74.5 311.15,-55.25 430.65,-55.25 430.65,-74.5"/>
<text text-anchor="middle" x="370.9" y="-61" font-family="Times,serif" font-size="10.00">include/math/triangle.hpp</text>
</a>
</g>
</g>
<!-- Node2&#45;&gt;Node8 -->
<g id="edge14_Node000002_Node000008" class="edge">
<title>Node2&#45;&gt;Node8</title>
<g id="a_edge14_Node000002_Node000008"><a xlink:title=" ">
<path fill="none" stroke="#63b8ff" d="M313.8,-102.96C325.49,-93.78 341.14,-82.62 353.23,-74.95"/>
<polygon fill="#63b8ff" stroke="#63b8ff" points="311.77,-100.1 306.24,-109.13 316.2,-105.52 311.77,-100.1"/>
</a>
</g>
</g>
<!-- Node3&#45;&gt;Node2 -->
<g id="edge4_Node000003_Node000002" class="edge">
<title>Node3&#45;&gt;Node2</title>
<g id="a_edge4_Node000003_Node000002"><a xlink:title=" ">
<path fill="none" stroke="#63b8ff" d="M252.19,-81.27C266,-90.61 281.58,-102.21 290.74,-110.09"/>
<polygon fill="#63b8ff" stroke="#63b8ff" points="254.12,-78.35 243.84,-75.78 250.28,-84.2 254.12,-78.35"/>
</a>
</g>
</g>
<!-- Node4 -->
<g id="Node000004" class="node">
<title>Node4</title>
<g id="a_Node000004"><a xlink:href="../../d7/d82/plane_8hpp.html" target="_top" xlink:title="Provides the definition of the Plane structure and its associated operations.">
<polygon fill="white" stroke="#666666" points="280.15,-19.25 169.65,-19.25 169.65,0 280.15,0 280.15,-19.25"/>
<text text-anchor="middle" x="224.9" y="-5.75" font-family="Times,serif" font-size="10.00">include/math/plane.hpp</text>
</a>
</g>
</g>
<!-- Node3&#45;&gt;Node4 -->
<g id="edge5_Node000003_Node000004" class="edge">
<title>Node3&#45;&gt;Node4</title>
<g id="a_edge5_Node000003_Node000004"><a xlink:title=" ">
<path fill="none" stroke="#63b8ff" d="M224.9,-43.63C224.9,-35.34 224.9,-26.17 224.9,-19.61"/>
<polygon fill="#63b8ff" stroke="#63b8ff" points="221.4,-43.57 224.9,-53.57 228.4,-43.57 221.4,-43.57"/>
</a>
</g>
</g>
<!-- Node4&#45;&gt;Node2 -->
<g id="edge6_Node000004_Node000002" class="edge">
<title>Node4&#45;&gt;Node2</title>
<g id="a_edge6_Node000004_Node000002"><a xlink:title=" ">
<path fill="none" stroke="#63b8ff" d="M157.92,-10.28C79.65,-12.16 -33.93,-23.35 9.9,-74.5 40.85,-110.61 181.67,-117.75 254.29,-119"/>
<polygon fill="#63b8ff" stroke="#63b8ff" points="157.75,-13.79 167.68,-10.1 157.61,-6.79 157.75,-13.79"/>
</a>
</g>
</g>
<!-- Node5&#45;&gt;Node2 -->
<g id="edge8_Node000005_Node000002" class="edge">
<title>Node5&#45;&gt;Node2</title>
<g id="a_edge8_Node000005_Node000002"><a xlink:title=" ">
<path fill="none" stroke="#63b8ff" d="M132.57,-77.54C174.39,-87.33 230.95,-101.12 265.97,-110.09"/>
<polygon fill="#63b8ff" stroke="#63b8ff" points="133.47,-74.16 122.94,-75.3 131.88,-80.97 133.47,-74.16"/>
</a>
</g>
</g>
<!-- Node6&#45;&gt;Node2 -->
<g id="edge10_Node000006_Node000002" class="edge">
<title>Node6&#45;&gt;Node2</title>
<g id="a_edge10_Node000006_Node000002"><a xlink:title=" ">
<path fill="none" stroke="#63b8ff" d="M459.75,-77.98C424.19,-87.74 372.75,-101.26 337.39,-110.09"/>
<polygon fill="#63b8ff" stroke="#63b8ff" points="460.53,-81.39 469.24,-75.36 458.66,-74.65 460.53,-81.39"/>
</a>
</g>
</g>
<!-- Node6&#45;&gt;Node4 -->
<g id="edge11_Node000006_Node000004" class="edge">
<title>Node6&#45;&gt;Node4</title>
<g id="a_edge11_Node000006_Node000004"><a xlink:title=" ">
<path fill="none" stroke="#63b8ff" d="M441.85,-52.63C391.2,-42.83 318.67,-28.78 271.67,-19.68"/>
<polygon fill="#63b8ff" stroke="#63b8ff" points="440.97,-56.03 451.46,-54.49 442.3,-49.16 440.97,-56.03"/>
</a>
</g>
</g>
<!-- Node7 -->
<g id="Node000007" class="node">
<title>Node7</title>
<g id="a_Node000007"><a xlink:href="../../d0/da1/sphere_8hpp.html" target="_top" xlink:title="Defines the Sphere structure and its associated functionality.">
<polygon fill="white" stroke="#666666" points="596.78,-19.25 481.03,-19.25 481.03,0 596.78,0 596.78,-19.25"/>
<text text-anchor="middle" x="538.9" y="-5.75" font-family="Times,serif" font-size="10.00">include/math/sphere.hpp</text>
</a>
</g>
</g>
<!-- Node6&#45;&gt;Node7 -->
<g id="edge12_Node000006_Node000007" class="edge">
<title>Node6&#45;&gt;Node7</title>
<g id="a_edge12_Node000006_Node000007"><a xlink:title=" ">
<path fill="none" stroke="#63b8ff" d="M513.04,-45.94C519.52,-37.09 527.06,-26.79 532.32,-19.61"/>
<polygon fill="#63b8ff" stroke="#63b8ff" points="510.32,-43.73 507.24,-53.86 515.97,-47.86 510.32,-43.73"/>
</a>
</g>
</g>
<!-- Node7&#45;&gt;Node2 -->
<g id="edge13_Node000007_Node000002" class="edge">
<title>Node7&#45;&gt;Node2</title>
<g id="a_edge13_Node000007_Node000002"><a xlink:title=" ">
<path fill="none" stroke="#63b8ff" d="M553.21,-28.53C562.47,-42.41 570.93,-61.44 559.9,-74.5 532.49,-106.98 408.82,-115.82 341.65,-118.23"/>
<polygon fill="#63b8ff" stroke="#63b8ff" points="556.21,-26.71 547.48,-20.7 550.56,-30.84 556.21,-26.71"/>
</a>
</g>
</g>
<!-- Node8&#45;&gt;Node2 -->
<g id="edge15_Node000008_Node000002" class="edge">
<title>Node8&#45;&gt;Node2</title>
<g id="a_edge15_Node000008_Node000002"><a xlink:title=" ">
<path fill="none" stroke="#63b8ff" d="M355.15,-81.93C343.42,-91.15 327.66,-102.4 315.5,-110.09"/>
<polygon fill="#63b8ff" stroke="#63b8ff" points="357.2,-84.77 362.72,-75.73 352.76,-79.36 357.2,-84.77"/>
</a>
</g>
</g>
</g>
</svg>
