<?xml version="1.0" encoding="UTF-8" standalone="no"?>
<!DOCTYPE svg PUBLIC "-//W3C//DTD SVG 1.1//EN"
 "http://www.w3.org/Graphics/SVG/1.1/DTD/svg11.dtd">
<!-- Generated by graphviz version 9.0.0 (20230911.1827)
 -->
<!-- Title: mal_math::random::_detail::UnitRandom Pages: 1 -->
<svg width="474pt" height="64pt"
 viewBox="0.00 0.00 474.00 64.25" xmlns="http://www.w3.org/2000/svg" xmlns:xlink="http://www.w3.org/1999/xlink">
<g id="graph0" class="graph" transform="scale(1 1) rotate(0) translate(4 60.25)">
<title>mal_math::random::_detail::UnitRandom</title>
<!-- Node1 -->
<g id="Node000001" class="node">
<title>Node1</title>
<g id="a_Node000001"><a xlink:title="Generates a unit vector with random direction.">
<polygon fill="#999999" stroke="#666666" points="98.5,-42.88 0,-42.88 0,-12.37 98.5,-12.37 98.5,-42.88"/>
<text text-anchor="start" x="8" y="-29.38" font-family="Times,serif" font-size="10.00">mal_math::random::</text>
<text text-anchor="middle" x="49.25" y="-18.12" font-family="Times,serif" font-size="10.00">_detail::UnitRandom</text>
</a>
</g>
</g>
<!-- Node2 -->
<g id="Node000002" class="node">
<title>Node2</title>
<g id="a_Node000002"><a xlink:href="../../d1/d1d/namespacemal__math.html#abe612f1321c4a59501c42f7759feaba4" target="_top" xlink:title="Normalizes a quaternion.">
<polygon fill="white" stroke="#666666" points="233.75,-37.25 134.5,-37.25 134.5,-18 233.75,-18 233.75,-37.25"/>
<text text-anchor="middle" x="184.12" y="-23.75" font-family="Times,serif" font-size="10.00">mal_math::normalize</text>
</a>
</g>
</g>
<!-- Node1&#45;&gt;Node2 -->
<g id="edge1_Node000001_Node000002" class="edge">
<title>Node1&#45;&gt;Node2</title>
<g id="a_edge1_Node000001_Node000002"><a xlink:title=" ">
<path fill="none" stroke="#63b8ff" d="M98.97,-27.62C106.83,-27.62 115.04,-27.62 123.12,-27.62"/>
<polygon fill="#63b8ff" stroke="#63b8ff" points="122.89,-31.13 132.89,-27.63 122.89,-24.13 122.89,-31.13"/>
</a>
</g>
</g>
<!-- Node3 -->
<g id="Node000003" class="node">
<title>Node3</title>
<g id="a_Node000003"><a xlink:href="../../d1/d1d/namespacemal__math.html#a39c5199d92cd6fd327cd1719bd148dcc" target="_top" xlink:title="Computes the length (or magnitude) of a quaternion.">
<polygon fill="white" stroke="#666666" points="354.75,-37.25 269.75,-37.25 269.75,-18 354.75,-18 354.75,-37.25"/>
<text text-anchor="middle" x="312.25" y="-23.75" font-family="Times,serif" font-size="10.00">mal_math::length</text>
</a>
</g>
</g>
<!-- Node2&#45;&gt;Node3 -->
<g id="edge2_Node000002_Node000003" class="edge">
<title>Node2&#45;&gt;Node3</title>
<g id="a_edge2_Node000002_Node000003"><a xlink:title=" ">
<path fill="none" stroke="#63b8ff" d="M234.25,-27.62C242.06,-27.62 250.16,-27.62 258.06,-27.62"/>
<polygon fill="#63b8ff" stroke="#63b8ff" points="257.9,-31.13 267.9,-27.63 257.9,-24.13 257.9,-31.13"/>
</a>
</g>
</g>
<!-- Node4 -->
<g id="Node000004" class="node">
<title>Node4</title>
<g id="a_Node000004"><a xlink:href="../../d1/d1d/namespacemal__math.html#aab7b54d530da999aae378287a25da1c0" target="_top" xlink:title="Computes the dot product of two quaternions.">
<polygon fill="white" stroke="#666666" points="465.25,-56.25 391.5,-56.25 391.5,-37 465.25,-37 465.25,-56.25"/>
<text text-anchor="middle" x="428.38" y="-42.75" font-family="Times,serif" font-size="10.00">mal_math::dot</text>
</a>
</g>
</g>
<!-- Node3&#45;&gt;Node4 -->
<g id="edge3_Node000003_Node000004" class="edge">
<title>Node3&#45;&gt;Node4</title>
<g id="a_edge3_Node000003_Node000004"><a xlink:title=" ">
<path fill="none" stroke="#63b8ff" d="M355.1,-34.59C363.14,-35.93 371.62,-37.34 379.82,-38.71"/>
<polygon fill="#63b8ff" stroke="#63b8ff" points="379.24,-42.16 389.68,-40.35 380.39,-35.25 379.24,-42.16"/>
</a>
</g>
</g>
<!-- Node5 -->
<g id="Node000005" class="node">
<title>Node5</title>
<g id="a_Node000005"><a xlink:href="../../d1/d1d/namespacemal__math.html#a8578ea303028d0b058d33dc3aca926b3" target="_top" xlink:title=" ">
<polygon fill="white" stroke="#666666" points="466,-19.25 390.75,-19.25 390.75,0 466,0 466,-19.25"/>
<text text-anchor="middle" x="428.38" y="-5.75" font-family="Times,serif" font-size="10.00">mal_math::sqrt</text>
</a>
</g>
</g>
<!-- Node3&#45;&gt;Node5 -->
<g id="edge4_Node000003_Node000005" class="edge">
<title>Node3&#45;&gt;Node5</title>
<g id="a_edge4_Node000003_Node000005"><a xlink:title=" ">
<path fill="none" stroke="#63b8ff" d="M355.1,-21.02C362.97,-19.78 371.25,-18.48 379.3,-17.21"/>
<polygon fill="#63b8ff" stroke="#63b8ff" points="379.61,-20.7 388.94,-15.69 378.51,-13.79 379.61,-20.7"/>
</a>
</g>
</g>
</g>
</svg>
