<?xml version="1.0" encoding="UTF-8" standalone="no"?>
<!DOCTYPE svg PUBLIC "-//W3C//DTD SVG 1.1//EN"
 "http://www.w3.org/Graphics/SVG/1.1/DTD/svg11.dtd">
<!-- Generated by graphviz version 9.0.0 (20230911.1827)
 -->
<!-- Title: mal_math::Sphere::Hit Pages: 1 -->
<svg width="225pt" height="64pt"
 viewBox="0.00 0.00 224.50 64.25" xmlns="http://www.w3.org/2000/svg" xmlns:xlink="http://www.w3.org/1999/xlink">
<g id="graph0" class="graph" transform="scale(1 1) rotate(0) translate(4 60.25)">
<title>mal_math::Sphere::Hit</title>
<!-- Node1 -->
<g id="Node000001" class="node">
<title>Node1</title>
<g id="a_Node000001"><a xlink:title="Determines the intersection point of a Ray with the Sphere.">
<polygon fill="#999999" stroke="#666666" points="105.25,-37.25 0,-37.25 0,-18 105.25,-18 105.25,-37.25"/>
<text text-anchor="middle" x="52.62" y="-23.75" font-family="Times,serif" font-size="10.00">mal_math::Sphere::Hit</text>
</a>
</g>
</g>
<!-- Node2 -->
<g id="Node000002" class="node">
<title>Node2</title>
<g id="a_Node000002"><a xlink:href="../../d1/d1d/namespacemal__math.html#aab7b54d530da999aae378287a25da1c0" target="_top" xlink:title="Computes the dot product of two quaternions.">
<polygon fill="white" stroke="#666666" points="215.75,-56.25 142,-56.25 142,-37 215.75,-37 215.75,-56.25"/>
<text text-anchor="middle" x="178.88" y="-42.75" font-family="Times,serif" font-size="10.00">mal_math::dot</text>
</a>
</g>
</g>
<!-- Node1&#45;&gt;Node2 -->
<g id="edge1_Node000001_Node000002" class="edge">
<title>Node1&#45;&gt;Node2</title>
<g id="a_edge1_Node000001_Node000002"><a xlink:title=" ">
<path fill="none" stroke="#63b8ff" d="M105.6,-35.57C113.82,-36.83 122.29,-38.13 130.41,-39.37"/>
<polygon fill="#63b8ff" stroke="#63b8ff" points="129.68,-42.8 140.09,-40.85 130.73,-35.88 129.68,-42.8"/>
</a>
</g>
</g>
<!-- Node3 -->
<g id="Node000003" class="node">
<title>Node3</title>
<g id="a_Node000003"><a xlink:href="../../d1/d1d/namespacemal__math.html#a8578ea303028d0b058d33dc3aca926b3" target="_top" xlink:title=" ">
<polygon fill="white" stroke="#666666" points="216.5,-19.25 141.25,-19.25 141.25,0 216.5,0 216.5,-19.25"/>
<text text-anchor="middle" x="178.88" y="-5.75" font-family="Times,serif" font-size="10.00">mal_math::sqrt</text>
</a>
</g>
</g>
<!-- Node1&#45;&gt;Node3 -->
<g id="edge2_Node000001_Node000003" class="edge">
<title>Node1&#45;&gt;Node3</title>
<g id="a_edge2_Node000001_Node000003"><a xlink:title=" ">
<path fill="none" stroke="#63b8ff" d="M105.6,-20.1C113.55,-18.94 121.73,-17.76 129.6,-16.62"/>
<polygon fill="#63b8ff" stroke="#63b8ff" points="129.95,-20.1 139.35,-15.21 128.95,-13.18 129.95,-20.1"/>
</a>
</g>
</g>
</g>
</svg>
