<?xml version="1.0" encoding="UTF-8" standalone="no"?>
<!DOCTYPE svg PUBLIC "-//W3C//DTD SVG 1.1//EN"
 "http://www.w3.org/Graphics/SVG/1.1/DTD/svg11.dtd">
<!-- Generated by graphviz version 9.0.0 (20230911.1827)
 -->
<!-- Title: mal_math::Sphere::Intersect Pages: 1 -->
<svg width="523pt" height="77pt"
 viewBox="0.00 0.00 522.75 77.02" xmlns="http://www.w3.org/2000/svg" xmlns:xlink="http://www.w3.org/1999/xlink">
<g id="graph0" class="graph" transform="scale(1 1) rotate(0) translate(4 73.02)">
<title>mal_math::Sphere::Intersect</title>
<!-- Node1 -->
<g id="Node000001" class="node">
<title>Node1</title>
<g id="a_Node000001"><a xlink:title="Determines if a Ray intersects with the Sphere.">
<polygon fill="#999999" stroke="#666666" points="127,-32.02 0,-32.02 0,-12.77 127,-12.77 127,-32.02"/>
<text text-anchor="middle" x="63.5" y="-18.52" font-family="Times,serif" font-size="10.00">mal_math::Sphere::Intersect</text>
</a>
</g>
</g>
<!-- Node2 -->
<g id="Node000002" class="node">
<title>Node2</title>
<g id="a_Node000002"><a xlink:href="../../d2/dd8/structmal__math_1_1_sphere.html#acc2e23b368333c7044a94666b488578e" target="_top" xlink:title="Determines the intersection point of a Ray with the Sphere.">
<polygon fill="white" stroke="#666666" points="403.5,-69.02 298.25,-69.02 298.25,-49.77 403.5,-49.77 403.5,-69.02"/>
<text text-anchor="middle" x="350.88" y="-55.52" font-family="Times,serif" font-size="10.00">mal_math::Sphere::Hit</text>
</a>
</g>
</g>
<!-- Node1&#45;&gt;Node2 -->
<g id="edge1_Node000001_Node000002" class="edge">
<title>Node1&#45;&gt;Node2</title>
<g id="a_edge1_Node000001_Node000002"><a xlink:title=" ">
<path fill="none" stroke="#63b8ff" d="M111.94,-32.49C128.09,-35.67 146.28,-38.99 163,-41.4 203.9,-47.3 250.12,-51.77 286.36,-54.78"/>
<polygon fill="#63b8ff" stroke="#63b8ff" points="286,-58.26 296.25,-55.58 286.57,-51.29 286,-58.26"/>
</a>
</g>
</g>
<!-- Node5 -->
<g id="Node000005" class="node">
<title>Node5</title>
<g id="a_Node000005"><a xlink:href="../../d1/d1d/namespacemal__math.html#a39c5199d92cd6fd327cd1719bd148dcc" target="_top" xlink:title="Computes the length (or magnitude) of a quaternion.">
<polygon fill="white" stroke="#666666" points="393.38,-32.02 308.38,-32.02 308.38,-12.77 393.38,-12.77 393.38,-32.02"/>
<text text-anchor="middle" x="350.88" y="-18.52" font-family="Times,serif" font-size="10.00">mal_math::length</text>
</a>
</g>
</g>
<!-- Node1&#45;&gt;Node5 -->
<g id="edge4_Node000001_Node000005" class="edge">
<title>Node1&#45;&gt;Node5</title>
<g id="a_edge4_Node000001_Node000005"><a xlink:title=" ">
<path fill="none" stroke="#63b8ff" d="M107.39,-12.28C124.58,-8.71 144.62,-5.16 163,-3.4 206.91,0.8 218.39,1.3 262.25,-3.4 274.81,-4.75 288.21,-7.15 300.66,-9.8"/>
<polygon fill="#63b8ff" stroke="#63b8ff" points="299.78,-13.19 310.3,-11.96 301.3,-6.36 299.78,-13.19"/>
</a>
</g>
</g>
<!-- Node6 -->
<g id="Node000006" class="node">
<title>Node6</title>
<g id="a_Node000006"><a xlink:href="../../d1/d1d/namespacemal__math.html#abe612f1321c4a59501c42f7759feaba4" target="_top" xlink:title="Normalizes a quaternion.">
<polygon fill="white" stroke="#666666" points="262.25,-32.02 163,-32.02 163,-12.77 262.25,-12.77 262.25,-32.02"/>
<text text-anchor="middle" x="212.62" y="-18.52" font-family="Times,serif" font-size="10.00">mal_math::normalize</text>
</a>
</g>
</g>
<!-- Node1&#45;&gt;Node6 -->
<g id="edge7_Node000001_Node000006" class="edge">
<title>Node1&#45;&gt;Node6</title>
<g id="a_edge7_Node000001_Node000006"><a xlink:title=" ">
<path fill="none" stroke="#63b8ff" d="M127.32,-22.4C135.3,-22.4 143.45,-22.4 151.38,-22.4"/>
<polygon fill="#63b8ff" stroke="#63b8ff" points="151.29,-25.9 161.29,-22.4 151.29,-18.9 151.29,-25.9"/>
</a>
</g>
</g>
<!-- Node3 -->
<g id="Node000003" class="node">
<title>Node3</title>
<g id="a_Node000003"><a xlink:href="../../d1/d1d/namespacemal__math.html#aab7b54d530da999aae378287a25da1c0" target="_top" xlink:title="Computes the dot product of two quaternions.">
<polygon fill="white" stroke="#666666" points="514,-69.02 440.25,-69.02 440.25,-49.77 514,-49.77 514,-69.02"/>
<text text-anchor="middle" x="477.12" y="-55.52" font-family="Times,serif" font-size="10.00">mal_math::dot</text>
</a>
</g>
</g>
<!-- Node2&#45;&gt;Node3 -->
<g id="edge2_Node000002_Node000003" class="edge">
<title>Node2&#45;&gt;Node3</title>
<g id="a_edge2_Node000002_Node000003"><a xlink:title=" ">
<path fill="none" stroke="#63b8ff" d="M403.85,-59.4C411.98,-59.4 420.35,-59.4 428.38,-59.4"/>
<polygon fill="#63b8ff" stroke="#63b8ff" points="428.32,-62.9 438.32,-59.4 428.32,-55.9 428.32,-62.9"/>
</a>
</g>
</g>
<!-- Node4 -->
<g id="Node000004" class="node">
<title>Node4</title>
<g id="a_Node000004"><a xlink:href="../../d1/d1d/namespacemal__math.html#a8578ea303028d0b058d33dc3aca926b3" target="_top" xlink:title=" ">
<polygon fill="white" stroke="#666666" points="514.75,-32.02 439.5,-32.02 439.5,-12.77 514.75,-12.77 514.75,-32.02"/>
<text text-anchor="middle" x="477.12" y="-18.52" font-family="Times,serif" font-size="10.00">mal_math::sqrt</text>
</a>
</g>
</g>
<!-- Node2&#45;&gt;Node4 -->
<g id="edge3_Node000002_Node000004" class="edge">
<title>Node2&#45;&gt;Node4</title>
<g id="a_edge3_Node000002_Node000004"><a xlink:title=" ">
<path fill="none" stroke="#63b8ff" d="M385.83,-49.29C399.93,-45.09 416.5,-40.15 431.57,-35.67"/>
<polygon fill="#63b8ff" stroke="#63b8ff" points="432.18,-39.14 440.76,-32.93 430.18,-32.43 432.18,-39.14"/>
</a>
</g>
</g>
<!-- Node5&#45;&gt;Node3 -->
<g id="edge5_Node000005_Node000003" class="edge">
<title>Node5&#45;&gt;Node3</title>
<g id="a_edge5_Node000005_Node000003"><a xlink:title=" ">
<path fill="none" stroke="#63b8ff" d="M385.83,-32.51C399.93,-36.71 416.5,-41.64 431.57,-46.13"/>
<polygon fill="#63b8ff" stroke="#63b8ff" points="430.18,-49.37 440.76,-48.87 432.18,-42.66 430.18,-49.37"/>
</a>
</g>
</g>
<!-- Node5&#45;&gt;Node4 -->
<g id="edge6_Node000005_Node000004" class="edge">
<title>Node5&#45;&gt;Node4</title>
<g id="a_edge6_Node000005_Node000004"><a xlink:title=" ">
<path fill="none" stroke="#63b8ff" d="M393.59,-22.4C404.58,-22.4 416.53,-22.4 427.83,-22.4"/>
<polygon fill="#63b8ff" stroke="#63b8ff" points="427.8,-25.9 437.8,-22.4 427.8,-18.9 427.8,-25.9"/>
</a>
</g>
</g>
<!-- Node6&#45;&gt;Node5 -->
<g id="edge8_Node000006_Node000005" class="edge">
<title>Node6&#45;&gt;Node5</title>
<g id="a_edge8_Node000006_Node000005"><a xlink:title=" ">
<path fill="none" stroke="#63b8ff" d="M262.43,-22.4C273.54,-22.4 285.39,-22.4 296.67,-22.4"/>
<polygon fill="#63b8ff" stroke="#63b8ff" points="296.65,-25.9 306.65,-22.4 296.65,-18.9 296.65,-25.9"/>
</a>
</g>
</g>
</g>
</svg>
