<?xml version="1.0" encoding="UTF-8" standalone="no"?>
<!DOCTYPE svg PUBLIC "-//W3C//DTD SVG 1.1//EN"
 "http://www.w3.org/Graphics/SVG/1.1/DTD/svg11.dtd">
<!-- Generated by graphviz version 9.0.0 (20230911.1827)
 -->
<!-- Title: mal_math::Sphere::Intersect Pages: 1 -->
<svg width="575pt" height="177pt"
 viewBox="0.00 0.00 574.50 177.25" xmlns="http://www.w3.org/2000/svg" xmlns:xlink="http://www.w3.org/1999/xlink">
<g id="graph0" class="graph" transform="scale(1 1) rotate(0) translate(4 173.25)">
<title>mal_math::Sphere::Intersect</title>
<!-- Node1 -->
<g id="Node000001" class="node">
<title>Node1</title>
<g id="a_Node000001"><a xlink:title="Determines if a Ray intersects with the Sphere.">
<polygon fill="#999999" stroke="#666666" points="127,-94.25 0,-94.25 0,-75 127,-75 127,-94.25"/>
<text text-anchor="middle" x="63.5" y="-80.75" font-family="Times,serif" font-size="10.00">mal_math::Sphere::Intersect</text>
</a>
</g>
</g>
<!-- Node2 -->
<g id="Node000002" class="node">
<title>Node2</title>
<g id="a_Node000002"><a xlink:href="../../d2/dd8/structmal__math_1_1_sphere.html#acc2e23b368333c7044a94666b488578e" target="_top" xlink:title="Determines the intersection point of a Ray with the Sphere.">
<polygon fill="white" stroke="#666666" points="455.25,-169.25 350,-169.25 350,-150 455.25,-150 455.25,-169.25"/>
<text text-anchor="middle" x="402.62" y="-155.75" font-family="Times,serif" font-size="10.00">mal_math::Sphere::Hit</text>
</a>
</g>
</g>
<!-- Node1&#45;&gt;Node2 -->
<g id="edge1_Node000001_Node000002" class="edge">
<title>Node1&#45;&gt;Node2</title>
<g id="a_edge1_Node000001_Node000002"><a xlink:title=" ">
<path fill="none" stroke="#63b8ff" d="M77.31,-94.61C95.29,-108 129.59,-131.29 163,-141.62 220.51,-159.41 289.35,-162.83 338.29,-162.45"/>
<polygon fill="#63b8ff" stroke="#63b8ff" points="338.19,-165.95 348.14,-162.31 338.09,-158.95 338.19,-165.95"/>
</a>
</g>
</g>
<!-- Node5 -->
<g id="Node000005" class="node">
<title>Node5</title>
<g id="a_Node000005"><a xlink:href="../../d1/d1d/namespacemal__math.html#a39c5199d92cd6fd327cd1719bd148dcc" target="_top" xlink:title="Computes the length (or magnitude) of a quaternion.">
<polygon fill="white" stroke="#666666" points="445.12,-132.25 360.12,-132.25 360.12,-113 445.12,-113 445.12,-132.25"/>
<text text-anchor="middle" x="402.62" y="-118.75" font-family="Times,serif" font-size="10.00">mal_math::length</text>
</a>
</g>
</g>
<!-- Node1&#45;&gt;Node5 -->
<g id="edge4_Node000001_Node000005" class="edge">
<title>Node1&#45;&gt;Node5</title>
<g id="a_edge4_Node000001_Node000005"><a xlink:title=" ">
<path fill="none" stroke="#63b8ff" d="M127.31,-87.01C177.92,-89.52 250.81,-94.41 314,-103.62 325.67,-105.33 338.11,-107.69 349.84,-110.16"/>
<polygon fill="#63b8ff" stroke="#63b8ff" points="348.83,-113.53 359.35,-112.24 350.32,-106.69 348.83,-113.53"/>
</a>
</g>
</g>
<!-- Node6 -->
<g id="Node000006" class="node">
<title>Node6</title>
<g id="a_Node000006"><a xlink:href="../../d1/d1d/namespacemal__math.html#abe612f1321c4a59501c42f7759feaba4" target="_top" xlink:title="Normalizes a quaternion.">
<polygon fill="white" stroke="#666666" points="288.12,-132.25 188.88,-132.25 188.88,-113 288.12,-113 288.12,-132.25"/>
<text text-anchor="middle" x="238.5" y="-118.75" font-family="Times,serif" font-size="10.00">mal_math::normalize</text>
</a>
</g>
</g>
<!-- Node1&#45;&gt;Node6 -->
<g id="edge7_Node000001_Node000006" class="edge">
<title>Node1&#45;&gt;Node6</title>
<g id="a_edge7_Node000001_Node000006"><a xlink:title=" ">
<path fill="none" stroke="#63b8ff" d="M110.41,-94.71C131.9,-99.43 157.72,-105.1 180.46,-110.09"/>
<polygon fill="#63b8ff" stroke="#63b8ff" points="179.68,-113.51 190.2,-112.24 181.18,-106.67 179.68,-113.51"/>
</a>
</g>
</g>
<!-- Node7 -->
<g id="Node000007" class="node">
<title>Node7</title>
<g id="a_Node000007"><a xlink:href="../../dd/d4b/classmal__math_1_1_ray.html#a9163e63dd91bd52a51aa8a60d0ffe94a" target="_top" xlink:title="Retrieves the ray&#39;s origin (const version).">
<polygon fill="white" stroke="#666666" points="290,-56.25 187,-56.25 187,-37 290,-37 290,-56.25"/>
<text text-anchor="middle" x="238.5" y="-42.75" font-family="Times,serif" font-size="10.00">mal_math::Ray::origin</text>
</a>
</g>
</g>
<!-- Node1&#45;&gt;Node7 -->
<g id="edge9_Node000001_Node000007" class="edge">
<title>Node1&#45;&gt;Node7</title>
<g id="a_edge9_Node000001_Node000007"><a xlink:title=" ">
<path fill="none" stroke="#63b8ff" d="M110.41,-74.54C131.9,-69.82 157.72,-64.15 180.46,-59.16"/>
<polygon fill="#63b8ff" stroke="#63b8ff" points="181.18,-62.58 190.2,-57.01 179.68,-55.74 181.18,-62.58"/>
</a>
</g>
</g>
<!-- Node8 -->
<g id="Node000008" class="node">
<title>Node8</title>
<g id="a_Node000008"><a xlink:href="../../dd/d4b/classmal__math_1_1_ray.html#a59f0a252d33b02418f99dd6a5e7725a9" target="_top" xlink:title="Computes a point along the ray based on the given parameter.">
<polygon fill="white" stroke="#666666" points="314,-19.25 163,-19.25 163,0 314,0 314,-19.25"/>
<text text-anchor="middle" x="238.5" y="-5.75" font-family="Times,serif" font-size="10.00">mal_math::Ray::PointAtParameter</text>
</a>
</g>
</g>
<!-- Node1&#45;&gt;Node8 -->
<g id="edge10_Node000001_Node000008" class="edge">
<title>Node1&#45;&gt;Node8</title>
<g id="a_edge10_Node000001_Node000008"><a xlink:title=" ">
<path fill="none" stroke="#63b8ff" d="M78.84,-74.54C97.44,-61.89 131.27,-40.33 163,-27.62 167.31,-25.9 171.82,-24.31 176.41,-22.85"/>
<polygon fill="#63b8ff" stroke="#63b8ff" points="177.13,-26.29 185.74,-20.11 175.15,-19.58 177.13,-26.29"/>
</a>
</g>
</g>
<!-- Node3 -->
<g id="Node000003" class="node">
<title>Node3</title>
<g id="a_Node000003"><a xlink:href="../../d1/d1d/namespacemal__math.html#aab7b54d530da999aae378287a25da1c0" target="_top" xlink:title="Computes the dot product of two quaternions.">
<polygon fill="white" stroke="#666666" points="565.75,-169.25 492,-169.25 492,-150 565.75,-150 565.75,-169.25"/>
<text text-anchor="middle" x="528.88" y="-155.75" font-family="Times,serif" font-size="10.00">mal_math::dot</text>
</a>
</g>
</g>
<!-- Node2&#45;&gt;Node3 -->
<g id="edge2_Node000002_Node000003" class="edge">
<title>Node2&#45;&gt;Node3</title>
<g id="a_edge2_Node000002_Node000003"><a xlink:title=" ">
<path fill="none" stroke="#63b8ff" d="M455.6,-159.62C463.73,-159.62 472.1,-159.62 480.13,-159.62"/>
<polygon fill="#63b8ff" stroke="#63b8ff" points="480.07,-163.13 490.07,-159.63 480.07,-156.13 480.07,-163.13"/>
</a>
</g>
</g>
<!-- Node4 -->
<g id="Node000004" class="node">
<title>Node4</title>
<g id="a_Node000004"><a xlink:href="../../d1/d1d/namespacemal__math.html#a8578ea303028d0b058d33dc3aca926b3" target="_top" xlink:title=" ">
<polygon fill="white" stroke="#666666" points="566.5,-132.25 491.25,-132.25 491.25,-113 566.5,-113 566.5,-132.25"/>
<text text-anchor="middle" x="528.88" y="-118.75" font-family="Times,serif" font-size="10.00">mal_math::sqrt</text>
</a>
</g>
</g>
<!-- Node2&#45;&gt;Node4 -->
<g id="edge3_Node000002_Node000004" class="edge">
<title>Node2&#45;&gt;Node4</title>
<g id="a_edge3_Node000002_Node000004"><a xlink:title=" ">
<path fill="none" stroke="#63b8ff" d="M437.58,-149.51C451.68,-145.31 468.25,-140.38 483.32,-135.89"/>
<polygon fill="#63b8ff" stroke="#63b8ff" points="483.93,-139.36 492.51,-133.16 481.93,-132.65 483.93,-139.36"/>
</a>
</g>
</g>
<!-- Node5&#45;&gt;Node3 -->
<g id="edge5_Node000005_Node000003" class="edge">
<title>Node5&#45;&gt;Node3</title>
<g id="a_edge5_Node000005_Node000003"><a xlink:title=" ">
<path fill="none" stroke="#63b8ff" d="M437.58,-132.74C451.68,-136.94 468.25,-141.87 483.32,-146.36"/>
<polygon fill="#63b8ff" stroke="#63b8ff" points="481.93,-149.6 492.51,-149.09 483.93,-142.89 481.93,-149.6"/>
</a>
</g>
</g>
<!-- Node5&#45;&gt;Node4 -->
<g id="edge6_Node000005_Node000004" class="edge">
<title>Node5&#45;&gt;Node4</title>
<g id="a_edge6_Node000005_Node000004"><a xlink:title=" ">
<path fill="none" stroke="#63b8ff" d="M445.34,-122.62C456.33,-122.62 468.28,-122.62 479.58,-122.62"/>
<polygon fill="#63b8ff" stroke="#63b8ff" points="479.55,-126.13 489.55,-122.63 479.55,-119.13 479.55,-126.13"/>
</a>
</g>
</g>
<!-- Node6&#45;&gt;Node5 -->
<g id="edge8_Node000006_Node000005" class="edge">
<title>Node6&#45;&gt;Node5</title>
<g id="a_edge8_Node000006_Node000005"><a xlink:title=" ">
<path fill="none" stroke="#63b8ff" d="M288.58,-122.62C307.5,-122.62 329.19,-122.62 348.48,-122.62"/>
<polygon fill="#63b8ff" stroke="#63b8ff" points="348.31,-126.13 358.31,-122.63 348.31,-119.13 348.31,-126.13"/>
</a>
</g>
</g>
</g>
</svg>
