<?xml version="1.0" encoding="UTF-8" standalone="no"?>
<!DOCTYPE svg PUBLIC "-//W3C//DTD SVG 1.1//EN"
 "http://www.w3.org/Graphics/SVG/1.1/DTD/svg11.dtd">
<!-- Generated by graphviz version 9.0.0 (20230911.1827)
 -->
<!-- Title: mal_math::rmat::reset Pages: 1 -->
<svg width="371pt" height="46pt"
 viewBox="0.00 0.00 371.00 46.25" xmlns="http://www.w3.org/2000/svg" xmlns:xlink="http://www.w3.org/1999/xlink">
<g id="graph0" class="graph" transform="scale(1 1) rotate(0) translate(4 42.25)">
<title>mal_math::rmat::reset</title>
<!-- Node1 -->
<g id="Node000001" class="node">
<title>Node1</title>
<g id="a_Node000001"><a xlink:title="Resets all elements to zero.">
<polygon fill="#999999" stroke="#666666" points="102.25,-19.25 0,-19.25 0,0 102.25,0 102.25,-19.25"/>
<text text-anchor="middle" x="51.12" y="-5.75" font-family="Times,serif" font-size="10.00">mal_math::rmat::reset</text>
</a>
</g>
</g>
<!-- Node2 -->
<g id="Node000002" class="node">
<title>Node2</title>
<g id="a_Node000002"><a xlink:href="../../dd/dce/structmal__math_1_1vec.html#afeb1b7d295505944a8c4384d02382b0a" target="_top" xlink:title="Resets the vector to the zero vector.">
<polygon fill="white" stroke="#666666" points="235.25,-38.25 138.25,-38.25 138.25,-19 235.25,-19 235.25,-38.25"/>
<text text-anchor="middle" x="186.75" y="-24.75" font-family="Times,serif" font-size="10.00">mal_math::vec::reset</text>
</a>
</g>
</g>
<!-- Node1&#45;&gt;Node2 -->
<g id="edge1_Node000001_Node000002" class="edge">
<title>Node1&#45;&gt;Node2</title>
<g id="a_edge1_Node000001_Node000002"><a xlink:title=" ">
<path fill="none" stroke="#63b8ff" d="M102.64,-16.81C110.48,-17.92 118.63,-19.08 126.64,-20.22"/>
<polygon fill="#63b8ff" stroke="#63b8ff" points="125.92,-23.65 136.31,-21.6 126.9,-16.72 125.92,-23.65"/>
</a>
</g>
</g>
<!-- Node3 -->
<g id="Node000003" class="node">
<title>Node3</title>
<g id="a_Node000003"><a xlink:href="../../dd/dce/structmal__math_1_1vec.html#a9dd6ae5456770afade593ebb10ee6f76" target="_top" xlink:title="Default constructor.">
<polygon fill="white" stroke="#666666" points="363,-19.25 271.25,-19.25 271.25,0 363,0 363,-19.25"/>
<text text-anchor="middle" x="317.12" y="-5.75" font-family="Times,serif" font-size="10.00">mal_math::vec::vec</text>
</a>
</g>
</g>
<!-- Node1&#45;&gt;Node3 -->
<g id="edge3_Node000001_Node000003" class="edge">
<title>Node1&#45;&gt;Node3</title>
<g id="a_edge3_Node000001_Node000003"><a xlink:title=" ">
<path fill="none" stroke="#63b8ff" d="M102.71,-9.62C147.57,-9.62 213.01,-9.62 259.58,-9.62"/>
<polygon fill="#63b8ff" stroke="#63b8ff" points="259.47,-13.13 269.47,-9.63 259.47,-6.13 259.47,-13.13"/>
</a>
</g>
</g>
<!-- Node2&#45;&gt;Node3 -->
<g id="edge2_Node000002_Node000003" class="edge">
<title>Node2&#45;&gt;Node3</title>
<g id="a_edge2_Node000002_Node000003"><a xlink:title=" ">
<path fill="none" stroke="#63b8ff" d="M235.55,-21.55C243.4,-20.39 251.6,-19.17 259.64,-17.99"/>
<polygon fill="#63b8ff" stroke="#63b8ff" points="259.96,-21.48 269.34,-16.55 258.93,-14.55 259.96,-21.48"/>
</a>
</g>
</g>
</g>
</svg>
