<?xml version="1.0" encoding="UTF-8" standalone="no"?>
<!DOCTYPE svg PUBLIC "-//W3C//DTD SVG 1.1//EN"
 "http://www.w3.org/Graphics/SVG/1.1/DTD/svg11.dtd">
<!-- Generated by graphviz version 9.0.0 (20230911.1827)
 -->
<!-- Title: mal_math::vec&lt; L, T &gt; Pages: 1 -->
<svg width="277pt" height="227pt"
 viewBox="0.00 0.00 276.50 226.75" xmlns="http://www.w3.org/2000/svg" xmlns:xlink="http://www.w3.org/1999/xlink">
<g id="graph0" class="graph" transform="scale(1 1) rotate(0) translate(4 222.75)">
<title>mal_math::vec&lt; L, T &gt;</title>
<!-- Node1 -->
<g id="Node000001" class="node">
<title>Node1</title>
<g id="a_Node000001"><a xlink:title="Definition of the mathematical vector with fixed size L and type T">
<polygon fill="#999999" stroke="#666666" points="125.25,-19.25 18.5,-19.25 18.5,0 125.25,0 125.25,-19.25"/>
<text text-anchor="middle" x="71.88" y="-5.75" font-family="Times,serif" font-size="10.00">mal_math::vec&lt; L, T &gt;</text>
</a>
</g>
</g>
<!-- Node2 -->
<g id="Node000002" class="node">
<title>Node2</title>
<g id="a_Node000002"><a xlink:title=" ">
<polygon fill="white" stroke="#666666" points="103.75,-85.75 0,-85.75 0,-66.5 103.75,-66.5 103.75,-85.75"/>
<text text-anchor="middle" x="51.88" y="-72.25" font-family="Times,serif" font-size="10.00">static constexpr size_t</text>
</a>
</g>
</g>
<!-- Node2&#45;&gt;Node1 -->
<g id="edge1_Node000001_Node000002" class="edge">
<title>Node2&#45;&gt;Node1</title>
<g id="a_edge1_Node000001_Node000002"><a xlink:title=" ">
<path fill="none" stroke="#9a32cd" stroke-dasharray="5,2" d="M57.99,-55.4C61.7,-43.43 66.26,-28.73 69.12,-19.52"/>
<polygon fill="#9a32cd" stroke="#9a32cd" points="54.72,-54.12 55.1,-64.71 61.41,-56.2 54.72,-54.12"/>
</a>
</g>
<text text-anchor="middle" x="72.88" y="-39" font-family="Times,serif" font-size="10.00" fill="grey"> size</text>
</g>
<!-- Node3 -->
<g id="Node000003" class="node">
<title>Node3</title>
<g id="a_Node000003"><a xlink:title=" ">
<polygon fill="white" stroke="#666666" points="217.62,-85.75 122.12,-85.75 122.12,-66.5 217.62,-66.5 217.62,-85.75"/>
<text text-anchor="middle" x="169.88" y="-72.25" font-family="Times,serif" font-size="10.00">std::array&lt; T, size &gt;</text>
</a>
</g>
</g>
<!-- Node3&#45;&gt;Node1 -->
<g id="edge2_Node000001_Node000003" class="edge">
<title>Node3&#45;&gt;Node1</title>
<g id="a_edge2_Node000001_Node000003"><a xlink:title=" ">
<path fill="none" stroke="#9a32cd" stroke-dasharray="5,2" d="M146.83,-59.96C127.85,-47.47 101.57,-30.17 85.7,-19.73"/>
<polygon fill="#9a32cd" stroke="#9a32cd" points="144.71,-62.75 154.98,-65.32 148.56,-56.9 144.71,-62.75"/>
</a>
</g>
<text text-anchor="middle" x="136.62" y="-39" font-family="Times,serif" font-size="10.00" fill="grey"> data</text>
</g>
<!-- Node4 -->
<g id="Node000004" class="node">
<title>Node4</title>
<g id="a_Node000004"><a xlink:title=" ">
<polygon fill="white" stroke="#666666" points="169.28,-218.75 140.47,-218.75 140.47,-199.5 169.28,-199.5 169.28,-218.75"/>
<text text-anchor="middle" x="154.88" y="-205.25" font-family="Times,serif" font-size="10.00">T</text>
</a>
</g>
</g>
<!-- Node4&#45;&gt;Node3 -->
<g id="edge3_Node000003_Node000004" class="edge">
<title>Node4&#45;&gt;Node3</title>
<g id="a_edge3_Node000003_Node000004"><a xlink:title=" ">
<path fill="none" stroke="#9a32cd" stroke-dasharray="5,2" d="M149.62,-188.13C146.39,-172.91 143.5,-151.5 147.12,-133 150.55,-115.53 159.46,-96.62 165.06,-85.89"/>
<polygon fill="#9a32cd" stroke="#9a32cd" points="146.2,-188.87 151.93,-197.79 153.01,-187.25 146.2,-188.87"/>
</a>
</g>
<text text-anchor="middle" x="166.25" y="-138.75" font-family="Times,serif" font-size="10.00" fill="grey"> elements</text>
</g>
<!-- Node5 -->
<g id="Node000005" class="node">
<title>Node5</title>
<g id="a_Node000005"><a xlink:title=" ">
<polygon fill="white" stroke="#666666" points="268.5,-152.25 193.25,-152.25 193.25,-133 268.5,-133 268.5,-152.25"/>
<text text-anchor="middle" x="230.88" y="-138.75" font-family="Times,serif" font-size="10.00">std::array&lt; T &gt;</text>
</a>
</g>
</g>
<!-- Node4&#45;&gt;Node5 -->
<g id="edge5_Node000005_Node000004" class="edge">
<title>Node4&#45;&gt;Node5</title>
<g id="a_edge5_Node000005_Node000004"><a xlink:title=" ">
<path fill="none" stroke="#9a32cd" stroke-dasharray="5,2" d="M173.83,-192.04C188.55,-179.55 208.41,-162.69 220.4,-152.52"/>
<polygon fill="#9a32cd" stroke="#9a32cd" points="171.96,-189.04 166.6,-198.18 176.49,-194.38 171.96,-189.04"/>
</a>
</g>
<text text-anchor="middle" x="215.25" y="-172" font-family="Times,serif" font-size="10.00" fill="grey"> elements</text>
</g>
<!-- Node5&#45;&gt;Node3 -->
<g id="edge4_Node000003_Node000005" class="edge">
<title>Node5&#45;&gt;Node3</title>
<g id="a_edge4_Node000003_Node000005"><a xlink:title=" ">
<path fill="none" stroke="orange" stroke-dasharray="5,2" d="M214.65,-124.47C202.95,-112.1 187.63,-95.9 178.28,-86.02"/>
<polygon fill="orange" stroke="orange" points="211.94,-126.7 221.35,-131.56 217.02,-121.89 211.94,-126.7"/>
</a>
</g>
<text text-anchor="middle" x="226.38" y="-105.5" font-family="Times,serif" font-size="10.00" fill="grey"> &lt; T, size &gt;</text>
</g>
</g>
</svg>
