<?xml version="1.0" encoding="UTF-8" standalone="no"?>
<!DOCTYPE svg PUBLIC "-//W3C//DTD SVG 1.1//EN"
 "http://www.w3.org/Graphics/SVG/1.1/DTD/svg11.dtd">
<!-- Generated by graphviz version 9.0.0 (20230911.1827)
 -->
<!-- Title: mal_math::Triangle::Intersect Pages: 1 -->
<svg width="252pt" height="138pt"
 viewBox="0.00 0.00 252.25 138.25" xmlns="http://www.w3.org/2000/svg" xmlns:xlink="http://www.w3.org/1999/xlink">
<g id="graph0" class="graph" transform="scale(1 1) rotate(0) translate(4 134.25)">
<title>mal_math::Triangle::Intersect</title>
<!-- Node1 -->
<g id="Node000001" class="node">
<title>Node1</title>
<g id="a_Node000001"><a xlink:title="Determines if a ray intersects with the triangle using its vertices.">
<polygon fill="#999999" stroke="#666666" points="93.25,-79.88 0,-79.88 0,-49.38 93.25,-49.38 93.25,-79.88"/>
<text text-anchor="start" x="8" y="-66.38" font-family="Times,serif" font-size="10.00">mal_math::Triangle</text>
<text text-anchor="middle" x="46.62" y="-55.12" font-family="Times,serif" font-size="10.00">::Intersect</text>
</a>
</g>
</g>
<!-- Node2 -->
<g id="Node000002" class="node">
<title>Node2</title>
<g id="a_Node000002"><a xlink:href="../../d1/d1d/namespacemal__math.html#af6fac0124c0a8511b0f747b9f15d1f74" target="_top" xlink:title="Cross product between quaternion and vector.">
<polygon fill="white" stroke="#666666" points="227,-130.25 146.5,-130.25 146.5,-111 227,-111 227,-130.25"/>
<text text-anchor="middle" x="186.75" y="-116.75" font-family="Times,serif" font-size="10.00">mal_math::cross</text>
</a>
</g>
</g>
<!-- Node1&#45;&gt;Node2 -->
<g id="edge1_Node000001_Node000002" class="edge">
<title>Node1&#45;&gt;Node2</title>
<g id="a_edge1_Node000001_Node000002"><a xlink:title=" ">
<path fill="none" stroke="#63b8ff" d="M79,-80.37C94.02,-87.61 112.36,-96.03 129.25,-102.62 133.07,-104.12 137.07,-105.58 141.1,-106.99"/>
<polygon fill="#63b8ff" stroke="#63b8ff" points="139.72,-110.21 150.31,-110.08 141.95,-103.58 139.72,-110.21"/>
</a>
</g>
</g>
<!-- Node3 -->
<g id="Node000003" class="node">
<title>Node3</title>
<g id="a_Node000003"><a xlink:href="../../dd/d4b/classmal__math_1_1_ray.html#ae3eb63fa713d01647037a4f5919ba6cc" target="_top" xlink:title="Retrieves the ray&#39;s direction (const version).">
<polygon fill="white" stroke="#666666" points="244.25,-93.25 129.25,-93.25 129.25,-74 244.25,-74 244.25,-93.25"/>
<text text-anchor="middle" x="186.75" y="-79.75" font-family="Times,serif" font-size="10.00">mal_math::Ray::direction</text>
</a>
</g>
</g>
<!-- Node1&#45;&gt;Node3 -->
<g id="edge2_Node000001_Node000003" class="edge">
<title>Node1&#45;&gt;Node3</title>
<g id="a_edge2_Node000001_Node000003"><a xlink:title=" ">
<path fill="none" stroke="#63b8ff" d="M93.62,-70.95C101.3,-72.01 109.41,-73.12 117.51,-74.24"/>
<polygon fill="#63b8ff" stroke="#63b8ff" points="117.01,-77.7 127.4,-75.6 117.97,-70.77 117.01,-77.7"/>
</a>
</g>
</g>
<!-- Node4 -->
<g id="Node000004" class="node">
<title>Node4</title>
<g id="a_Node000004"><a xlink:href="../../d1/d1d/namespacemal__math.html#aab7b54d530da999aae378287a25da1c0" target="_top" xlink:title="Computes the dot product of two quaternions.">
<polygon fill="white" stroke="#666666" points="223.62,-56.25 149.88,-56.25 149.88,-37 223.62,-37 223.62,-56.25"/>
<text text-anchor="middle" x="186.75" y="-42.75" font-family="Times,serif" font-size="10.00">mal_math::dot</text>
</a>
</g>
</g>
<!-- Node1&#45;&gt;Node4 -->
<g id="edge3_Node000001_Node000004" class="edge">
<title>Node1&#45;&gt;Node4</title>
<g id="a_edge3_Node000001_Node000004"><a xlink:title=" ">
<path fill="none" stroke="#63b8ff" d="M93.62,-58.63C107.98,-56.76 123.86,-54.69 138.32,-52.81"/>
<polygon fill="#63b8ff" stroke="#63b8ff" points="138.6,-56.3 148.06,-51.54 137.69,-49.36 138.6,-56.3"/>
</a>
</g>
</g>
<!-- Node5 -->
<g id="Node000005" class="node">
<title>Node5</title>
<g id="a_Node000005"><a xlink:href="../../dd/d4b/classmal__math_1_1_ray.html#a9163e63dd91bd52a51aa8a60d0ffe94a" target="_top" xlink:title="Retrieves the ray&#39;s origin (const version).">
<polygon fill="white" stroke="#666666" points="238.25,-19.25 135.25,-19.25 135.25,0 238.25,0 238.25,-19.25"/>
<text text-anchor="middle" x="186.75" y="-5.75" font-family="Times,serif" font-size="10.00">mal_math::Ray::origin</text>
</a>
</g>
</g>
<!-- Node1&#45;&gt;Node5 -->
<g id="edge4_Node000001_Node000005" class="edge">
<title>Node1&#45;&gt;Node5</title>
<g id="a_edge4_Node000001_Node000005"><a xlink:title=" ">
<path fill="none" stroke="#63b8ff" d="M79.82,-48.98C94.7,-42.02 112.69,-33.99 129.25,-27.62 133.08,-26.15 137.08,-24.7 141.12,-23.3"/>
<polygon fill="#63b8ff" stroke="#63b8ff" points="141.96,-26.71 150.33,-20.22 139.74,-20.08 141.96,-26.71"/>
</a>
</g>
</g>
</g>
</svg>
