<?xml version="1.0" encoding="UTF-8" standalone="no"?>
<!DOCTYPE svg PUBLIC "-//W3C//DTD SVG 1.1//EN"
 "http://www.w3.org/Graphics/SVG/1.1/DTD/svg11.dtd">
<!-- Generated by graphviz version 9.0.0 (20230911.1827)
 -->
<!-- Title: mal_math::Triangle::Intersect Pages: 1 -->
<svg width="439pt" height="138pt"
 viewBox="0.00 0.00 439.25 138.25" xmlns="http://www.w3.org/2000/svg" xmlns:xlink="http://www.w3.org/1999/xlink">

<svg id="main" version="1.1" xmlns="http://www.w3.org/2000/svg" xmlns:xlink="http://www.w3.org/1999/xlink" xml:space="preserve" onload="init(evt)">
<style type="text/css"><![CDATA[
.node, .edge {opacity: 0.7;}
.node.selected, .edge.selected {opacity: 1;}
.edge:hover path { stroke: red; }
.edge:hover polygon { stroke: red; fill: red; }
]]></style>
<script type="application/ecmascript" xlink:href="../../svg.min.js"/>
<svg id="graph" class="graph">
<g id="graph0" class="graph" transform="scale(1 1) rotate(0) translate(4 134.25)">
<title>mal_math::Triangle::Intersect</title>
<!-- Node1 -->
<g id="Node000001" class="node">
<title>Node1</title>
<g id="a_Node000001"><a xlink:title="Determines if a ray intersects with the triangle and updates intersection details.">
<polygon fill="#999999" stroke="#666666" points="93.25,-57.88 0,-57.88 0,-27.38 93.25,-27.38 93.25,-57.88"/>
<text text-anchor="start" x="8" y="-44.38" font-family="Times,serif" font-size="10.00">mal_math::Triangle</text>
<text text-anchor="middle" x="46.62" y="-33.12" font-family="Times,serif" font-size="10.00">::Intersect</text>
</a>
</g>
</g>
<!-- Node2 -->
<g id="Node000002" class="node">
<title>Node2</title>
<g id="a_Node000002"><a xlink:href="../../d3/dc1/structmal__math_1_1_triangle.html#af4c79ad8378a09c5266336dde0626bac" target="_top" xlink:title="Determines if a ray intersects with the triangle using its vertices.">
<polygon fill="white" stroke="#666666" points="251.38,-79.88 158.12,-79.88 158.12,-49.38 251.38,-49.38 251.38,-79.88"/>
<text text-anchor="start" x="166.12" y="-66.38" font-family="Times,serif" font-size="10.00">mal_math::Triangle</text>
<text text-anchor="middle" x="204.75" y="-55.12" font-family="Times,serif" font-size="10.00">::Intersect</text>
</a>
</g>
</g>
<!-- Node1&#45;&gt;Node2 -->
<g id="edge1_Node000001_Node000002" class="edge">
<title>Node1&#45;&gt;Node2</title>
<g id="a_edge1_Node000001_Node000002"><a xlink:title=" ">
<path fill="none" stroke="#63b8ff" d="M93.62,-49.11C110.22,-51.45 129.17,-54.12 146.61,-56.57"/>
<polygon fill="#63b8ff" stroke="#63b8ff" points="145.92,-60.01 156.31,-57.94 146.9,-53.08 145.92,-60.01"/>
</a>
</g>
</g>
<!-- Node7 -->
<g id="Node000007" class="node">
<title>Node7</title>
<g id="a_Node000007"><a xlink:href="../../dd/d4b/classmal__math_1_1_ray.html#a59f0a252d33b02418f99dd6a5e7725a9" target="_top" xlink:title="Computes a point along the ray based on the given parameter.">
<polygon fill="white" stroke="#666666" points="280.25,-31.25 129.25,-31.25 129.25,-12 280.25,-12 280.25,-31.25"/>
<text text-anchor="middle" x="204.75" y="-17.75" font-family="Times,serif" font-size="10.00">mal_math::Ray::PointAtParameter</text>
</a>
</g>
</g>
<!-- Node1&#45;&gt;Node7 -->
<g id="edge6_Node000001_Node000007" class="edge">
<title>Node1&#45;&gt;Node7</title>
<g id="a_edge6_Node000001_Node000007"><a xlink:title=" ">
<path fill="none" stroke="#63b8ff" d="M93.62,-36.44C101.23,-35.41 109.33,-34.33 117.55,-33.22"/>
<polygon fill="#63b8ff" stroke="#63b8ff" points="117.85,-36.71 127.3,-31.91 116.92,-29.77 117.85,-36.71"/>
</a>
</g>
</g>
<!-- Node3 -->
<g id="Node000003" class="node">
<title>Node3</title>
<g id="a_Node000003"><a xlink:href="../../d1/d1d/namespacemal__math.html#af6fac0124c0a8511b0f747b9f15d1f74" target="_top" xlink:title="Cross product between quaternion and vector.">
<polygon fill="white" stroke="#666666" points="414,-130.25 333.5,-130.25 333.5,-111 414,-111 414,-130.25"/>
<text text-anchor="middle" x="373.75" y="-116.75" font-family="Times,serif" font-size="10.00">mal_math::cross</text>
</a>
</g>
</g>
<!-- Node2&#45;&gt;Node3 -->
<g id="edge2_Node000002_Node000003" class="edge">
<title>Node2&#45;&gt;Node3</title>
<g id="a_edge2_Node000002_Node000003"><a xlink:title=" ">
<path fill="none" stroke="#63b8ff" d="M250.56,-80.3C270.62,-87.24 294.58,-95.45 316.25,-102.62 320.7,-104.1 325.36,-105.62 330.01,-107.12"/>
<polygon fill="#63b8ff" stroke="#63b8ff" points="328.7,-110.38 339.3,-110.1 330.84,-103.71 328.7,-110.38"/>
</a>
</g>
</g>
<!-- Node4 -->
<g id="Node000004" class="node">
<title>Node4</title>
<g id="a_Node000004"><a xlink:href="../../dd/d4b/classmal__math_1_1_ray.html#ae3eb63fa713d01647037a4f5919ba6cc" target="_top" xlink:title="Retrieves the ray&#39;s direction (const version).">
<polygon fill="white" stroke="#666666" points="431.25,-93.25 316.25,-93.25 316.25,-74 431.25,-74 431.25,-93.25"/>
<text text-anchor="middle" x="373.75" y="-79.75" font-family="Times,serif" font-size="10.00">mal_math::Ray::direction</text>
</a>
</g>
</g>
<!-- Node2&#45;&gt;Node4 -->
<g id="edge3_Node000002_Node000004" class="edge">
<title>Node2&#45;&gt;Node4</title>
<g id="a_edge3_Node000002_Node000004"><a xlink:title=" ">
<path fill="none" stroke="#63b8ff" d="M251.83,-69.87C268.14,-71.72 286.85,-73.85 304.61,-75.87"/>
<polygon fill="#63b8ff" stroke="#63b8ff" points="303.97,-79.32 314.3,-76.98 304.76,-72.37 303.97,-79.32"/>
</a>
</g>
</g>
<!-- Node5 -->
<g id="Node000005" class="node">
<title>Node5</title>
<g id="a_Node000005"><a xlink:href="../../d1/d1d/namespacemal__math.html#aab7b54d530da999aae378287a25da1c0" target="_top" xlink:title="Computes the dot product of two quaternions.">
<polygon fill="white" stroke="#666666" points="410.62,-56.25 336.88,-56.25 336.88,-37 410.62,-37 410.62,-56.25"/>
<text text-anchor="middle" x="373.75" y="-42.75" font-family="Times,serif" font-size="10.00">mal_math::dot</text>
</a>
</g>
</g>
<!-- Node2&#45;&gt;Node5 -->
<g id="edge4_Node000002_Node000005" class="edge">
<title>Node2&#45;&gt;Node5</title>
<g id="a_edge4_Node000002_Node000005"><a xlink:title=" ">
<path fill="none" stroke="#63b8ff" d="M251.83,-59.66C274.7,-57.19 302.31,-54.22 325.36,-51.73"/>
<polygon fill="#63b8ff" stroke="#63b8ff" points="325.54,-55.23 335.11,-50.68 324.79,-48.27 325.54,-55.23"/>
</a>
</g>
</g>
<!-- Node6 -->
<g id="Node000006" class="node">
<title>Node6</title>
<g id="a_Node000006"><a xlink:href="../../dd/d4b/classmal__math_1_1_ray.html#a9163e63dd91bd52a51aa8a60d0ffe94a" target="_top" xlink:title="Retrieves the ray&#39;s origin (const version).">
<polygon fill="white" stroke="#666666" points="425.25,-19.25 322.25,-19.25 322.25,0 425.25,0 425.25,-19.25"/>
<text text-anchor="middle" x="373.75" y="-5.75" font-family="Times,serif" font-size="10.00">mal_math::Ray::origin</text>
</a>
</g>
</g>
<!-- Node2&#45;&gt;Node6 -->
<g id="edge5_Node000002_Node000006" class="edge">
<title>Node2&#45;&gt;Node6</title>
<g id="a_edge5_Node000002_Node000006"><a xlink:title=" ">
<path fill="none" stroke="#63b8ff" d="M251.54,-50.15C261.05,-47.07 270.99,-43.79 280.25,-40.62 296.35,-35.13 300.14,-33.1 316.25,-27.62 320.64,-26.13 325.23,-24.61 329.81,-23.12"/>
<polygon fill="#63b8ff" stroke="#63b8ff" points="330.53,-26.56 338.97,-20.16 328.38,-19.9 330.53,-26.56"/>
</a>
</g>
</g>
</g>
</svg>
</svg>

<style type='text/css'>
<![CDATA[
[data-mouse-over-selected='false'] { opacity: 0.7; }
[data-mouse-over-selected='true']  { opacity: 1.0; }
]]>
</style>
<script type="application/ecmascript"><![CDATA[
document.addEventListener('DOMContentLoaded', (event) => {
  highlightEdges();
  highlightAdjacentNodes();
});
]]></script>
</svg>
