<?xml version="1.0" encoding="UTF-8" standalone="no"?>
<!DOCTYPE svg PUBLIC "-//W3C//DTD SVG 1.1//EN"
 "http://www.w3.org/Graphics/SVG/1.1/DTD/svg11.dtd">
<!-- Generated by graphviz version 9.0.0 (20230911.1827)
 -->
<!-- Title: mal_math::Triangle::Intersect Pages: 1 -->
<svg width="218pt" height="64pt"
 viewBox="0.00 0.00 217.75 64.25" xmlns="http://www.w3.org/2000/svg" xmlns:xlink="http://www.w3.org/1999/xlink">
<g id="graph0" class="graph" transform="scale(1 1) rotate(0) translate(4 60.25)">
<title>mal_math::Triangle::Intersect</title>
<!-- Node1 -->
<g id="Node000001" class="node">
<title>Node1</title>
<g id="a_Node000001"><a xlink:title="Determines if a ray intersects with the triangle using its vertices.">
<polygon fill="#999999" stroke="#666666" points="93.25,-42.88 0,-42.88 0,-12.37 93.25,-12.37 93.25,-42.88"/>
<text text-anchor="start" x="8" y="-29.38" font-family="Times,serif" font-size="10.00">mal_math::Triangle</text>
<text text-anchor="middle" x="46.62" y="-18.12" font-family="Times,serif" font-size="10.00">::Intersect</text>
</a>
</g>
</g>
<!-- Node2 -->
<g id="Node000002" class="node">
<title>Node2</title>
<g id="a_Node000002"><a xlink:href="../../d1/d1d/namespacemal__math.html#af6fac0124c0a8511b0f747b9f15d1f74" target="_top" xlink:title="Cross product between quaternion and vector.">
<polygon fill="white" stroke="#666666" points="209.75,-56.25 129.25,-56.25 129.25,-37 209.75,-37 209.75,-56.25"/>
<text text-anchor="middle" x="169.5" y="-42.75" font-family="Times,serif" font-size="10.00">mal_math::cross</text>
</a>
</g>
</g>
<!-- Node1&#45;&gt;Node2 -->
<g id="edge1_Node000001_Node000002" class="edge">
<title>Node1&#45;&gt;Node2</title>
<g id="a_edge1_Node000001_Node000002"><a xlink:title=" ">
<path fill="none" stroke="#63b8ff" d="M93.67,-34.86C101.56,-36.1 109.8,-37.4 117.8,-38.66"/>
<polygon fill="#63b8ff" stroke="#63b8ff" points="116.98,-42.07 127.4,-40.17 118.07,-35.15 116.98,-42.07"/>
</a>
</g>
</g>
<!-- Node3 -->
<g id="Node000003" class="node">
<title>Node3</title>
<g id="a_Node000003"><a xlink:href="../../d1/d1d/namespacemal__math.html#aab7b54d530da999aae378287a25da1c0" target="_top" xlink:title="Computes the dot product of two quaternions.">
<polygon fill="white" stroke="#666666" points="206.38,-19.25 132.62,-19.25 132.62,0 206.38,0 206.38,-19.25"/>
<text text-anchor="middle" x="169.5" y="-5.75" font-family="Times,serif" font-size="10.00">mal_math::dot</text>
</a>
</g>
</g>
<!-- Node1&#45;&gt;Node3 -->
<g id="edge2_Node000001_Node000003" class="edge">
<title>Node1&#45;&gt;Node3</title>
<g id="a_edge2_Node000001_Node000003"><a xlink:title=" ">
<path fill="none" stroke="#63b8ff" d="M93.67,-20.77C102.67,-19.43 112.13,-18.02 121.18,-16.67"/>
<polygon fill="#63b8ff" stroke="#63b8ff" points="121.48,-20.17 130.86,-15.23 120.45,-13.24 121.48,-20.17"/>
</a>
</g>
</g>
</g>
</svg>
