<?xml version="1.0" encoding="UTF-8" standalone="no"?>
<!DOCTYPE svg PUBLIC "-//W3C//DTD SVG 1.1//EN"
 "http://www.w3.org/Graphics/SVG/1.1/DTD/svg11.dtd">
<!-- Generated by graphviz version 9.0.0 (20230911.1827)
 -->
<!-- Title: mal_math::Triangle::Intersect Pages: 1 -->
<svg width="382pt" height="138pt"
 viewBox="0.00 0.00 381.50 138.25" xmlns="http://www.w3.org/2000/svg" xmlns:xlink="http://www.w3.org/1999/xlink">

<svg id="main" version="1.1" xmlns="http://www.w3.org/2000/svg" xmlns:xlink="http://www.w3.org/1999/xlink" xml:space="preserve" onload="init(evt)">
<style type="text/css"><![CDATA[
.node, .edge {opacity: 0.7;}
.node.selected, .edge.selected {opacity: 1;}
.edge:hover path { stroke: red; }
.edge:hover polygon { stroke: red; fill: red; }
]]></style>
<script type="application/ecmascript" xlink:href="../../svg.min.js"/>
<svg id="graph" class="graph">
<g id="graph0" class="graph" transform="scale(1 1) rotate(0) translate(4 134.25)">
<title>mal_math::Triangle::Intersect</title>
<!-- Node1 -->
<g id="Node000001" class="node">
<title>Node1</title>
<g id="a_Node000001"><a xlink:title="Determines if a ray intersects with this triangle and updates intersection details.">
<polygon fill="#999999" stroke="#666666" points="93.25,-79.88 0,-79.88 0,-49.38 93.25,-49.38 93.25,-79.88"/>
<text text-anchor="start" x="8" y="-66.38" font-family="Times,serif" font-size="10.00">mal_math::Triangle</text>
<text text-anchor="middle" x="46.62" y="-55.12" font-family="Times,serif" font-size="10.00">::Intersect</text>
</a>
</g>
</g>
<!-- Node2 -->
<g id="Node000002" class="node">
<title>Node2</title>
<g id="a_Node000002"><a xlink:href="../../d3/dc1/structmal__math_1_1_triangle.html#af4c79ad8378a09c5266336dde0626bac" target="_top" xlink:title="Determines if a ray intersects with the triangle using its vertices.">
<polygon fill="white" stroke="#666666" points="222.5,-79.88 129.25,-79.88 129.25,-49.38 222.5,-49.38 222.5,-79.88"/>
<text text-anchor="start" x="137.25" y="-66.38" font-family="Times,serif" font-size="10.00">mal_math::Triangle</text>
<text text-anchor="middle" x="175.88" y="-55.12" font-family="Times,serif" font-size="10.00">::Intersect</text>
</a>
</g>
</g>
<!-- Node1&#45;&gt;Node2 -->
<g id="edge1_Node000001_Node000002" class="edge">
<title>Node1&#45;&gt;Node2</title>
<g id="a_edge1_Node000001_Node000002"><a xlink:title=" ">
<path fill="none" stroke="#63b8ff" d="M93.57,-64.62C101.4,-64.62 109.63,-64.62 117.72,-64.62"/>
<polygon fill="#63b8ff" stroke="#63b8ff" points="117.49,-68.13 127.49,-64.63 117.49,-61.13 117.49,-68.13"/>
</a>
</g>
</g>
<!-- Node3 -->
<g id="Node000003" class="node">
<title>Node3</title>
<g id="a_Node000003"><a xlink:href="../../d1/d1d/namespacemal__math.html#af6fac0124c0a8511b0f747b9f15d1f74" target="_top" xlink:title="Cross product between quaternion and vector.">
<polygon fill="white" stroke="#666666" points="356.25,-130.25 275.75,-130.25 275.75,-111 356.25,-111 356.25,-130.25"/>
<text text-anchor="middle" x="316" y="-116.75" font-family="Times,serif" font-size="10.00">mal_math::cross</text>
</a>
</g>
</g>
<!-- Node2&#45;&gt;Node3 -->
<g id="edge2_Node000002_Node000003" class="edge">
<title>Node2&#45;&gt;Node3</title>
<g id="a_edge2_Node000002_Node000003"><a xlink:title=" ">
<path fill="none" stroke="#63b8ff" d="M208.25,-80.37C223.27,-87.61 241.61,-96.03 258.5,-102.62 262.32,-104.12 266.32,-105.58 270.35,-106.99"/>
<polygon fill="#63b8ff" stroke="#63b8ff" points="268.97,-110.21 279.56,-110.08 271.2,-103.58 268.97,-110.21"/>
</a>
</g>
</g>
<!-- Node4 -->
<g id="Node000004" class="node">
<title>Node4</title>
<g id="a_Node000004"><a xlink:href="../../dd/d4b/classmal__math_1_1_ray.html#ae3eb63fa713d01647037a4f5919ba6cc" target="_top" xlink:title="Retrieves the ray&#39;s direction (const version).">
<polygon fill="white" stroke="#666666" points="373.5,-93.25 258.5,-93.25 258.5,-74 373.5,-74 373.5,-93.25"/>
<text text-anchor="middle" x="316" y="-79.75" font-family="Times,serif" font-size="10.00">mal_math::Ray::direction</text>
</a>
</g>
</g>
<!-- Node2&#45;&gt;Node4 -->
<g id="edge3_Node000002_Node000004" class="edge">
<title>Node2&#45;&gt;Node4</title>
<g id="a_edge3_Node000002_Node000004"><a xlink:title=" ">
<path fill="none" stroke="#63b8ff" d="M222.87,-70.95C230.55,-72.01 238.66,-73.12 246.76,-74.24"/>
<polygon fill="#63b8ff" stroke="#63b8ff" points="246.26,-77.7 256.65,-75.6 247.22,-70.77 246.26,-77.7"/>
</a>
</g>
</g>
<!-- Node5 -->
<g id="Node000005" class="node">
<title>Node5</title>
<g id="a_Node000005"><a xlink:href="../../d1/d1d/namespacemal__math.html#aab7b54d530da999aae378287a25da1c0" target="_top" xlink:title="Computes the dot product of two quaternions.">
<polygon fill="white" stroke="#666666" points="352.88,-56.25 279.12,-56.25 279.12,-37 352.88,-37 352.88,-56.25"/>
<text text-anchor="middle" x="316" y="-42.75" font-family="Times,serif" font-size="10.00">mal_math::dot</text>
</a>
</g>
</g>
<!-- Node2&#45;&gt;Node5 -->
<g id="edge4_Node000002_Node000005" class="edge">
<title>Node2&#45;&gt;Node5</title>
<g id="a_edge4_Node000002_Node000005"><a xlink:title=" ">
<path fill="none" stroke="#63b8ff" d="M222.87,-58.63C237.23,-56.76 253.11,-54.69 267.57,-52.81"/>
<polygon fill="#63b8ff" stroke="#63b8ff" points="267.85,-56.3 277.31,-51.54 266.94,-49.36 267.85,-56.3"/>
</a>
</g>
</g>
<!-- Node6 -->
<g id="Node000006" class="node">
<title>Node6</title>
<g id="a_Node000006"><a xlink:href="../../dd/d4b/classmal__math_1_1_ray.html#a9163e63dd91bd52a51aa8a60d0ffe94a" target="_top" xlink:title="Retrieves the ray&#39;s origin (const version).">
<polygon fill="white" stroke="#666666" points="367.5,-19.25 264.5,-19.25 264.5,0 367.5,0 367.5,-19.25"/>
<text text-anchor="middle" x="316" y="-5.75" font-family="Times,serif" font-size="10.00">mal_math::Ray::origin</text>
</a>
</g>
</g>
<!-- Node2&#45;&gt;Node6 -->
<g id="edge5_Node000002_Node000006" class="edge">
<title>Node2&#45;&gt;Node6</title>
<g id="a_edge5_Node000002_Node000006"><a xlink:title=" ">
<path fill="none" stroke="#63b8ff" d="M209.07,-48.98C223.95,-42.02 241.94,-33.99 258.5,-27.62 262.33,-26.15 266.33,-24.7 270.37,-23.3"/>
<polygon fill="#63b8ff" stroke="#63b8ff" points="271.21,-26.71 279.58,-20.22 268.99,-20.08 271.21,-26.71"/>
</a>
</g>
</g>
</g>
</svg>
</svg>

<style type='text/css'>
<![CDATA[
[data-mouse-over-selected='false'] { opacity: 0.7; }
[data-mouse-over-selected='true']  { opacity: 1.0; }
]]>
</style>
<script type="application/ecmascript"><![CDATA[
document.addEventListener('DOMContentLoaded', (event) => {
  highlightEdges();
  highlightAdjacentNodes();
});
]]></script>
</svg>
