<?xml version="1.0" encoding="UTF-8" standalone="no"?>
<!DOCTYPE svg PUBLIC "-//W3C//DTD SVG 1.1//EN"
 "http://www.w3.org/Graphics/SVG/1.1/DTD/svg11.dtd">
<!-- Generated by graphviz version 9.0.0 (20230911.1827)
 -->
<!-- Title: mal_math::mat&lt; a, b, T &gt; Pages: 1 -->
<!--zoomable 330 -->

<svg id="main" version="1.1" xmlns="http://www.w3.org/2000/svg" xmlns:xlink="http://www.w3.org/1999/xlink" xml:space="preserve" onload="init(evt)">
<style type="text/css"><![CDATA[
.node, .edge {opacity: 0.7;}
.node.selected, .edge.selected {opacity: 1;}
.edge:hover path { stroke: red; }
.edge:hover polygon { stroke: red; fill: red; }
]]></style>

<defs>
  <circle id="rim" cx="0" cy="0" r="7"/>
  <circle id="rim2" cx="0" cy="0" r="3.5"/>
  <g id="zoomPlus">
    <use xlink:href="#rim" fill="#404040"><set attributeName="fill" to="#808080" begin="zoomplus.mouseover" end="zoomplus.mouseout"/></use>
    <path d="M-4,0h8M0,-4v8" fill="none" stroke="white" stroke-width="1.5" pointer-events="none"/>
  </g>
  <g id="zoomMin">
    <use xlink:href="#rim" fill="#404040"><set attributeName="fill" to="#808080" begin="zoomminus.mouseover" end="zoomminus.mouseout"/></use>
    <path d="M-4,0h8" fill="none" stroke="white" stroke-width="1.5" pointer-events="none"/>
  </g>
  <g id="arrowUp" transform="translate(30 24)">
    <use xlink:href="#rim"/>
    <path pointer-events="none" fill="none" stroke="white" stroke-width="1.5" d="M0,-3.0v7 M-2.5,-0.5L0,-3.0L2.5,-0.5"/>
  </g>
  <g id="arrowRight" transform="rotate(90) translate(36 -43)">
    <use xlink:href="#rim"/>
    <path pointer-events="none" fill="none" stroke="white" stroke-width="1.5" d="M0,-3.0v7 M-2.5,-0.5L0,-3.0L2.5,-0.5"/>
  </g>
  <g id="arrowDown" transform="rotate(180) translate(-30 -48)">
    <use xlink:href="#rim"/>
    <path pointer-events="none" fill="none" stroke="white" stroke-width="1.5" d="M0,-3.0v7 M-2.5,-0.5L0,-3.0L2.5,-0.5"/>
  </g>
  <g id="arrowLeft" transform="rotate(270) translate(-36 17)">
    <use xlink:href="#rim"/>
    <path pointer-events="none" fill="none" stroke="white" stroke-width="1.5" d="M0,-3.0v7 M-2.5,-0.5L0,-3.0L2.5,-0.5"/>
  </g>
  <g id="resetDef">
    <use xlink:href="#rim2" fill="#404040"><set attributeName="fill" to="#808080" begin="reset.mouseover" end="reset.mouseout"/></use>
  </g>
</defs>
<script type="application/ecmascript">
var viewWidth = 1145;
var viewHeight = 330;
var sectionId = 'dynsection-0';
</script>
<script type="application/ecmascript" xlink:href="../../svg.min.js"/>
<svg id="graph" class="graph">
<g id="viewport">
<title>mal_math::mat&lt; a, b, T &gt;</title>
<!-- Node1 -->
<g id="Node000001" class="node">
<title>Node1</title>
<g id="a_Node000001"><a xlink:title="Definition of matrix with dimensions rows x columns and type T">
<polygon fill="#999999" stroke="#666666" points="1136.55,-80.25 1020.05,-80.25 1020.05,-61 1136.55,-61 1136.55,-80.25"/>
<text text-anchor="middle" x="1078.3" y="-66.75" font-family="Times,serif" font-size="10.00">mal_math::mat&lt; a, b, T &gt;</text>
</a>
</g>
</g>
<!-- Node2 -->
<g id="Node000002" class="node">
<title>Node2</title>
<g id="a_Node000002"><a xlink:href="../../dd/dce/structmal__math_1_1vec.html" target="_top" xlink:title=" ">
<polygon fill="white" stroke="#666666" points="773.05,-229.25 649.05,-229.25 649.05,-210 773.05,-210 773.05,-229.25"/>
<text text-anchor="middle" x="711.05" y="-215.75" font-family="Times,serif" font-size="10.00">mal_math::vec&lt; 2, size_t &gt;</text>
</a>
</g>
</g>
<!-- Node2&#45;&gt;Node1 -->
<g id="edge1_Node000001_Node000002" class="edge">
<title>Node2&#45;&gt;Node1</title>
<g id="a_edge1_Node000001_Node000002"><a xlink:title=" ">
<path fill="none" stroke="#9a32cd" stroke-dasharray="5,2" d="M747.84,-205.31C796.81,-185.69 887.45,-149.27 964.55,-117.62 995.35,-104.98 1030.78,-90.17 1053.58,-80.6"/>
<polygon fill="#9a32cd" stroke="#9a32cd" points="746.56,-202.05 738.58,-209.02 749.16,-208.55 746.56,-202.05"/>
</a>
</g>
<text text-anchor="middle" x="905.18" y="-165.38" font-family="Times,serif" font-size="10.00" fill="grey"> size</text>
</g>
<!-- Node3 -->
<g id="Node000003" class="node">
<title>Node3</title>
<g id="a_Node000003"><a xlink:title=" ">
<polygon fill="white" stroke="#666666" points="398.3,-198.25 294.55,-198.25 294.55,-179 398.3,-179 398.3,-198.25"/>
<text text-anchor="middle" x="346.43" y="-184.75" font-family="Times,serif" font-size="10.00">static constexpr size_t</text>
</a>
</g>
</g>
<!-- Node3&#45;&gt;Node2 -->
<g id="edge2_Node000002_Node000003" class="edge">
<title>Node3&#45;&gt;Node2</title>
<g id="a_edge2_Node000002_Node000003"><a xlink:title=" ">
<path fill="none" stroke="#9a32cd" stroke-dasharray="5,2" d="M409.82,-193.96C476.75,-199.68 582.36,-208.71 648.83,-214.39"/>
<polygon fill="#9a32cd" stroke="#9a32cd" points="410.38,-190.49 400.12,-193.13 409.78,-197.47 410.38,-190.49"/>
</a>
</g>
<text text-anchor="middle" x="507.18" y="-208.38" font-family="Times,serif" font-size="10.00" fill="grey"> size</text>
</g>
<!-- Node7 -->
<g id="Node000007" class="node">
<title>Node7</title>
<g id="a_Node000007"><a xlink:href="../../dd/dce/structmal__math_1_1vec.html" target="_top" xlink:title="Definition of the mathematical vector with fixed size L and type T">
<polygon fill="white" stroke="#666666" points="560.55,-295.25 453.8,-295.25 453.8,-276 560.55,-276 560.55,-295.25"/>
<text text-anchor="middle" x="507.18" y="-281.75" font-family="Times,serif" font-size="10.00">mal_math::vec&lt; L, T &gt;</text>
</a>
</g>
</g>
<!-- Node3&#45;&gt;Node7 -->
<g id="edge8_Node000007_Node000003" class="edge">
<title>Node3&#45;&gt;Node7</title>
<g id="a_edge8_Node000007_Node000003"><a xlink:title=" ">
<path fill="none" stroke="#9a32cd" stroke-dasharray="5,2" d="M371.95,-204.83C389.79,-216.7 414.45,-233.31 435.8,-248.38 443.92,-254.1 445.24,-256.59 453.8,-261.62 462.51,-266.75 472.49,-271.57 481.4,-275.52"/>
<polygon fill="#9a32cd" stroke="#9a32cd" points="374.09,-202.04 363.82,-199.43 370.22,-207.88 374.09,-202.04"/>
</a>
</g>
<text text-anchor="middle" x="426.05" y="-249.38" font-family="Times,serif" font-size="10.00" fill="grey"> size</text>
</g>
<!-- Node10 -->
<g id="Node000010" class="node">
<title>Node10</title>
<g id="a_Node000010"><a xlink:href="../../dd/dce/structmal__math_1_1vec.html" target="_top" xlink:title=" ">
<polygon fill="white" stroke="#666666" points="772.68,-178.25 649.43,-178.25 649.43,-159 772.68,-159 772.68,-178.25"/>
<text text-anchor="middle" x="711.05" y="-164.75" font-family="Times,serif" font-size="10.00">mal_math::vec&lt; size.y, T &gt;</text>
</a>
</g>
</g>
<!-- Node3&#45;&gt;Node10 -->
<g id="edge15_Node000010_Node000003" class="edge">
<title>Node3&#45;&gt;Node10</title>
<g id="a_edge15_Node000010_Node000003"><a xlink:title=" ">
<path fill="none" stroke="#9a32cd" stroke-dasharray="5,2" d="M397.02,-176.04C414.81,-172.12 435.08,-168.31 453.8,-166.38 520.29,-159.5 597,-161.47 649.03,-164.27"/>
<polygon fill="#9a32cd" stroke="#9a32cd" points="396.47,-172.57 387.5,-178.21 398.03,-179.4 396.47,-172.57"/>
</a>
</g>
<text text-anchor="middle" x="507.18" y="-167.38" font-family="Times,serif" font-size="10.00" fill="grey"> size</text>
</g>
<!-- Node4 -->
<g id="Node000004" class="node">
<title>Node4</title>
<g id="a_Node000004"><a xlink:title=" ">
<polygon fill="white" stroke="#666666" points="394.18,-257.25 298.68,-257.25 298.68,-238 394.18,-238 394.18,-257.25"/>
<text text-anchor="middle" x="346.43" y="-243.75" font-family="Times,serif" font-size="10.00">std::array&lt; T, size &gt;</text>
</a>
</g>
</g>
<!-- Node4&#45;&gt;Node2 -->
<g id="edge3_Node000002_Node000004" class="edge">
<title>Node4&#45;&gt;Node2</title>
<g id="a_edge3_Node000002_Node000004"><a xlink:title=" ">
<path fill="none" stroke="#9a32cd" stroke-dasharray="5,2" d="M370.42,-264.29C391.09,-278.16 422.86,-296.86 453.8,-304.62 499.82,-316.18 513.52,-310.85 560.55,-304.62 592.72,-300.37 602.26,-300.6 631.05,-285.62 659.59,-270.78 687.05,-244.18 700.84,-229.7"/>
<polygon fill="#9a32cd" stroke="#9a32cd" points="372.42,-261.41 362.2,-258.61 368.44,-267.17 372.42,-261.41"/>
</a>
</g>
<text text-anchor="middle" x="507.18" y="-312.38" font-family="Times,serif" font-size="10.00" fill="grey"> data</text>
</g>
<!-- Node4&#45;&gt;Node7 -->
<g id="edge9_Node000007_Node000004" class="edge">
<title>Node4&#45;&gt;Node7</title>
<g id="a_edge9_Node000007_Node000004"><a xlink:title=" ">
<path fill="none" stroke="#9a32cd" stroke-dasharray="5,2" d="M400.71,-260.38C421.37,-265.33 444.69,-270.91 464.13,-275.56"/>
<polygon fill="#9a32cd" stroke="#9a32cd" points="401.56,-256.99 391.02,-258.06 399.93,-263.79 401.56,-256.99"/>
</a>
</g>
<text text-anchor="middle" x="426.05" y="-269.38" font-family="Times,serif" font-size="10.00" fill="grey"> data</text>
</g>
<!-- Node4&#45;&gt;Node10 -->
<g id="edge16_Node000010_Node000004" class="edge">
<title>Node4&#45;&gt;Node10</title>
<g id="a_edge16_Node000010_Node000004"><a xlink:title=" ">
<path fill="none" stroke="#9a32cd" stroke-dasharray="5,2" d="M405.91,-249.73C450.21,-249.18 511.59,-243.73 560.55,-221.62 570.31,-217.22 569.16,-210.76 578.55,-205.62 601.54,-193.05 629.19,-184.44 653.18,-178.71"/>
<polygon fill="#9a32cd" stroke="#9a32cd" points="405.96,-246.23 395.98,-249.76 405.99,-253.23 405.96,-246.23"/>
</a>
</g>
<text text-anchor="middle" x="507.18" y="-248.38" font-family="Times,serif" font-size="10.00" fill="grey"> data</text>
</g>
<!-- Node5 -->
<g id="Node000005" class="node">
<title>Node5</title>
<g id="a_Node000005"><a xlink:title=" ">
<polygon fill="white" stroke="#666666" points="28.8,-103.25 0,-103.25 0,-84 28.8,-84 28.8,-103.25"/>
<text text-anchor="middle" x="14.4" y="-89.75" font-family="Times,serif" font-size="10.00">T</text>
</a>
</g>
</g>
<!-- Node5&#45;&gt;Node4 -->
<g id="edge4_Node000004_Node000005" class="edge">
<title>Node5&#45;&gt;Node4</title>
<g id="a_edge4_Node000004_Node000005"><a xlink:title=" ">
<path fill="none" stroke="#9a32cd" stroke-dasharray="5,2" d="M37.17,-110.61C69.74,-135.27 133.84,-180.92 194.8,-207.62 228.13,-222.23 268.02,-232.53 298.37,-239.01"/>
<polygon fill="#9a32cd" stroke="#9a32cd" points="39.39,-107.9 29.32,-104.6 35.13,-113.46 39.39,-107.9"/>
</a>
</g>
<text text-anchor="middle" x="139.18" y="-199.38" font-family="Times,serif" font-size="10.00" fill="grey"> elements</text>
</g>
<!-- Node6 -->
<g id="Node000006" class="node">
<title>Node6</title>
<g id="a_Node000006"><a xlink:title=" ">
<polygon fill="white" stroke="#666666" points="176.8,-103.25 101.55,-103.25 101.55,-84 176.8,-84 176.8,-103.25"/>
<text text-anchor="middle" x="139.18" y="-89.75" font-family="Times,serif" font-size="10.00">std::array&lt; T &gt;</text>
</a>
</g>
</g>
<!-- Node5&#45;&gt;Node6 -->
<g id="edge6_Node000006_Node000005" class="edge">
<title>Node5&#45;&gt;Node6</title>
<g id="a_edge6_Node000006_Node000005"><a xlink:title=" ">
<path fill="none" stroke="#9a32cd" stroke-dasharray="5,2" d="M40.51,-93.62C58,-93.62 81.6,-93.62 101.22,-93.62"/>
<polygon fill="#9a32cd" stroke="#9a32cd" points="40.52,-90.13 30.52,-93.63 40.52,-97.13 40.52,-90.13"/>
</a>
</g>
<text text-anchor="middle" x="65.18" y="-95.38" font-family="Times,serif" font-size="10.00" fill="grey"> elements</text>
</g>
<!-- Node8 -->
<g id="Node000008" class="node">
<title>Node8</title>
<g id="a_Node000008"><a xlink:title=" ">
<polygon fill="white" stroke="#666666" points="393.43,-62.88 299.43,-62.88 299.43,-32.38 393.43,-32.38 393.43,-62.88"/>
<text text-anchor="start" x="307.43" y="-49.38" font-family="Times,serif" font-size="10.00">std::array&lt; T, size.x</text>
<text text-anchor="middle" x="346.43" y="-38.12" font-family="Times,serif" font-size="10.00"> *size.y &gt;</text>
</a>
</g>
</g>
<!-- Node5&#45;&gt;Node8 -->
<g id="edge11_Node000008_Node000005" class="edge">
<title>Node5&#45;&gt;Node8</title>
<g id="a_edge11_Node000008_Node000005"><a xlink:title=" ">
<path fill="none" stroke="#9a32cd" stroke-dasharray="5,2" d="M39.85,-83.63C56.89,-77.01 80.29,-68.62 101.55,-63.38 168.9,-46.75 249.7,-44.94 299.29,-45.8"/>
<polygon fill="#9a32cd" stroke="#9a32cd" points="38.59,-80.37 30.58,-87.31 41.17,-86.87 38.59,-80.37"/>
</a>
</g>
<text text-anchor="middle" x="139.18" y="-65.38" font-family="Times,serif" font-size="10.00" fill="grey"> elements</text>
</g>
<!-- Node6&#45;&gt;Node4 -->
<g id="edge5_Node000004_Node000006" class="edge">
<title>Node6&#45;&gt;Node4</title>
<g id="a_edge5_Node000004_Node000006"><a xlink:title=" ">
<path fill="none" stroke="orange" stroke-dasharray="5,2" d="M162.72,-110.54C205.64,-142.74 297.83,-211.92 332.18,-237.68"/>
<polygon fill="orange" stroke="orange" points="164.95,-107.84 154.85,-104.64 160.75,-113.44 164.95,-107.84"/>
</a>
</g>
<text text-anchor="middle" x="235.68" y="-194.38" font-family="Times,serif" font-size="10.00" fill="grey"> &lt; T, size &gt;</text>
</g>
<!-- Node6&#45;&gt;Node8 -->
<g id="edge12_Node000008_Node000006" class="edge">
<title>Node6&#45;&gt;Node8</title>
<g id="a_edge12_Node000008_Node000006"><a xlink:title=" ">
<path fill="none" stroke="orange" stroke-dasharray="5,2" d="M168.58,-78.56C176.85,-74.72 186.02,-70.95 194.8,-68.38 229,-58.36 269.02,-53.14 299.21,-50.44"/>
<polygon fill="orange" stroke="orange" points="167.16,-75.36 159.71,-82.9 170.23,-81.65 167.16,-75.36"/>
</a>
</g>
<text text-anchor="middle" x="235.68" y="-70.38" font-family="Times,serif" font-size="10.00" fill="grey"> &lt; T, size.x *size.y &gt;</text>
</g>
<!-- Node9 -->
<g id="Node000009" class="node">
<title>Node9</title>
<g id="a_Node000009"><a xlink:title=" ">
<polygon fill="white" stroke="#666666" points="964.55,-108.88 845.8,-108.88 845.8,-78.38 964.55,-78.38 964.55,-108.88"/>
<text text-anchor="start" x="853.8" y="-95.38" font-family="Times,serif" font-size="10.00">std::array&lt; mal_math</text>
<text text-anchor="middle" x="905.18" y="-84.12" font-family="Times,serif" font-size="10.00">::vec&lt; size.y, T &gt;, size.x &gt;</text>
</a>
</g>
</g>
<!-- Node6&#45;&gt;Node9 -->
<g id="edge18_Node000009_Node000006" class="edge">
<title>Node6&#45;&gt;Node9</title>
<g id="a_edge18_Node000009_Node000006"><a xlink:title=" ">
<path fill="none" stroke="orange" stroke-dasharray="5,2" d="M188.7,-93.62C230.29,-93.62 291.8,-93.62 345.43,-93.62 345.43,-93.62 345.43,-93.62 712.05,-93.62 756.75,-93.62 807.29,-93.62 845.31,-93.62"/>
<polygon fill="orange" stroke="orange" points="188.77,-90.13 178.77,-93.63 188.77,-97.13 188.77,-90.13"/>
</a>
</g>
<text text-anchor="start" x="456.55" y="-106.62" font-family="Times,serif" font-size="10.00" fill="grey"> &lt; mal_math::vec&lt; size.y,</text>
<text text-anchor="middle" x="507.18" y="-95.38" font-family="Times,serif" font-size="10.00" fill="grey"> T &gt;, size.x &gt;</text>
</g>
<!-- Node7&#45;&gt;Node2 -->
<g id="edge7_Node000002_Node000007" class="edge">
<title>Node7&#45;&gt;Node2</title>
<g id="a_edge7_Node000002_Node000007"><a xlink:title=" ">
<path fill="none" stroke="orange" stroke-dasharray="5,2" d="M571.96,-273.2C591.19,-268.75 612.19,-263.19 631.05,-256.62 652.36,-249.21 675.63,-237.89 691.35,-229.73"/>
<polygon fill="orange" stroke="orange" points="571.34,-269.75 562.35,-275.36 572.87,-276.58 571.34,-269.75"/>
</a>
</g>
<text text-anchor="middle" x="604.8" y="-272.38" font-family="Times,serif" font-size="10.00" fill="grey"> &lt; 2, size_t &gt;</text>
</g>
<!-- Node7&#45;&gt;Node10 -->
<g id="edge17_Node000010_Node000007" class="edge">
<title>Node7&#45;&gt;Node10</title>
<g id="a_edge17_Node000010_Node000007"><a xlink:title=" ">
<path fill="none" stroke="orange" stroke-dasharray="5,2" d="M546.1,-270.55C551.15,-267.89 556.11,-264.91 560.55,-261.62 570.23,-254.46 569.22,-248.99 578.55,-241.38 606.6,-218.5 617.35,-218.09 649.05,-200.62 662.77,-193.06 678.42,-184.86 690.44,-178.65"/>
<polygon fill="orange" stroke="orange" points="544.59,-267.4 537.1,-274.9 547.63,-273.7 544.59,-267.4"/>
</a>
</g>
<text text-anchor="middle" x="604.8" y="-242.38" font-family="Times,serif" font-size="10.00" fill="grey"> &lt; size.y, T &gt;</text>
</g>
<!-- Node8&#45;&gt;Node1 -->
<g id="edge10_Node000001_Node000008" class="edge">
<title>Node8&#45;&gt;Node1</title>
<g id="a_edge10_Node000001_Node000008"><a xlink:title=" ">
<path fill="none" stroke="#9a32cd" stroke-dasharray="5,2" d="M404.8,-47.62C434.97,-47.62 472.57,-47.63 506.18,-47.62 506.18,-47.62 506.18,-47.62 906.18,-47.62 947.69,-47.62 994.37,-54.36 1028.48,-60.54"/>
<polygon fill="#9a32cd" stroke="#9a32cd" points="405.13,-44.13 395.13,-47.63 405.13,-51.13 405.13,-44.13"/>
</a>
</g>
<text text-anchor="middle" x="711.05" y="-49.38" font-family="Times,serif" font-size="10.00" fill="grey"> arr</text>
</g>
<!-- Node9&#45;&gt;Node1 -->
<g id="edge13_Node000001_Node000009" class="edge">
<title>Node9&#45;&gt;Node1</title>
<g id="a_edge13_Node000001_Node000009"><a xlink:title=" ">
<path fill="none" stroke="#9a32cd" stroke-dasharray="5,2" d="M975.63,-84.29C990.28,-82.32 1005.58,-80.26 1019.73,-78.36"/>
<polygon fill="#9a32cd" stroke="#9a32cd" points="975.53,-80.77 966.09,-85.57 976.47,-87.71 975.53,-80.77"/>
</a>
</g>
<text text-anchor="middle" x="992.3" y="-84.38" font-family="Times,serif" font-size="10.00" fill="grey"> data</text>
</g>
<!-- Node10&#45;&gt;Node9 -->
<g id="edge14_Node000009_Node000010" class="edge">
<title>Node10&#45;&gt;Node9</title>
<g id="a_edge14_Node000009_Node000010"><a xlink:title=" ">
<path fill="none" stroke="#9a32cd" stroke-dasharray="5,2" d="M748.5,-154.4C781.46,-141.53 829.91,-122.62 863.98,-109.32"/>
<polygon fill="#9a32cd" stroke="#9a32cd" points="747.41,-151.06 739.37,-157.96 749.96,-157.58 747.41,-151.06"/>
</a>
</g>
<text text-anchor="middle" x="809.43" y="-136.38" font-family="Times,serif" font-size="10.00" fill="grey"> elements</text>
</g>
<!-- Node11 -->
<g id="Node000011" class="node">
<title>Node11</title>
<g id="a_Node000011"><a xlink:title=" ">
<polygon fill="white" stroke="#666666" points="943.18,-19.25 867.18,-19.25 867.18,0 943.18,0 943.18,-19.25"/>
<text text-anchor="middle" x="905.18" y="-5.75" font-family="Times,serif" font-size="10.00">anonymous:@1</text>
</a>
</g>
</g>
<!-- Node11&#45;&gt;Node1 -->
<g id="edge19_Node000001_Node000011" class="edge">
<title>Node11&#45;&gt;Node1</title>
<g id="a_edge19_Node000001_Node000011"><a xlink:title=" ">
<path fill="none" stroke="#9a32cd" stroke-dasharray="5,2" d="M954.94,-11.96C970.35,-13.78 987.22,-16.94 1002.05,-22.38 1026.53,-31.34 1051.29,-49.32 1065.42,-60.62"/>
<polygon fill="#9a32cd" stroke="#9a32cd" points="955.31,-8.47 945.01,-10.95 954.6,-15.44 955.31,-8.47"/>
</a>
</g>
<text text-anchor="middle" x="992.3" y="-24.38" font-family="Times,serif" font-size="10.00" fill="grey"> @1</text>
</g>
</g>
</svg>

<g id="navigator" transform="translate(0 0)" fill="#404254">
  <rect fill="#f2f5e9" fill-opacity="0.5" stroke="#606060" stroke-width=".5" x="0" y="0" width="60" height="60"/>
  <use id="zoomplus" xlink:href="#zoomPlus" x="17" y="9" onmousedown="handleZoom(evt,'in')"/>
  <use id="zoomminus" xlink:href="#zoomMin" x="42" y="9" onmousedown="handleZoom(evt,'out')"/>
  <use id="reset" xlink:href="#resetDef" x="30" y="36" onmousedown="handleReset()"/>
   <use id="arrowup" xlink:href="#arrowUp" x="0" y="0" onmousedown="handlePan(0,-1)"/>
  <use id="arrowright" xlink:href="#arrowRight" x="0" y="0" onmousedown="handlePan(1,0)"/>
  <use id="arrowdown" xlink:href="#arrowDown" x="0" y="0" onmousedown="handlePan(0,1)"/>
  <use id="arrowleft" xlink:href="#arrowLeft" x="0" y="0" onmousedown="handlePan(-1,0)"/>
</g>
<svg viewBox="0 0 15 15" width="100%" height="30px" preserveAspectRatio="xMaxYMin meet">
 <g id="arrow_out" transform="scale(0.3 0.3)">
  <a xlink:href="structmal__math_1_1mat__coll__graph_org.svg" target="_base">
   <rect id="button" ry="5" rx="5" y="6" x="6" height="38" width="38"
        fill="#f2f5e9" fill-opacity="0.5" stroke="#606060" stroke-width="1.0"/>
   <path id="arrow"
     d="M 11.500037,31.436501 C 11.940474,20.09759 22.043105,11.32322 32.158766,21.979434 L 37.068811,17.246167 C 37.068811,17.246167 37.088388,32 37.088388,32 L 22.160133,31.978069 C 22.160133,31.978069 26.997745,27.140456 26.997745,27.140456 C 18.528582,18.264221 13.291696,25.230495 11.500037,31.436501 z"
     style="fill:#404040;"/>
  </a>
 </g>
</svg>

<style type='text/css'>
<![CDATA[
[data-mouse-over-selected='false'] { opacity: 0.7; }
[data-mouse-over-selected='true']  { opacity: 1.0; }
]]>
</style>
<script type="application/ecmascript"><![CDATA[
document.addEventListener('DOMContentLoaded', (event) => {
  highlightEdges();
  highlightAdjacentNodes();
});
]]></script>
</svg>
