<?xml version="1.0" encoding="UTF-8" standalone="no"?>
<!DOCTYPE svg PUBLIC "-//W3C//DTD SVG 1.1//EN"
 "http://www.w3.org/Graphics/SVG/1.1/DTD/svg11.dtd">
<!-- Generated by graphviz version 9.0.0 (20230911.1827)
 -->
<!-- Title: mal_math::mat&lt; a, b, T &gt; Pages: 1 -->
<!--zoomable 223 -->

<svg id="main" version="1.1" xmlns="http://www.w3.org/2000/svg" xmlns:xlink="http://www.w3.org/1999/xlink" xml:space="preserve" onload="init(evt)">
<style type="text/css"><![CDATA[
.node, .edge {opacity: 0.7;}
.node.selected, .edge.selected {opacity: 1;}
.edge:hover path { stroke: red; }
.edge:hover polygon { stroke: red; fill: red; }
]]></style>

<defs>
  <circle id="rim" cx="0" cy="0" r="7"/>
  <circle id="rim2" cx="0" cy="0" r="3.5"/>
  <g id="zoomPlus">
    <use xlink:href="#rim" fill="#404040"><set attributeName="fill" to="#808080" begin="zoomplus.mouseover" end="zoomplus.mouseout"/></use>
    <path d="M-4,0h8M0,-4v8" fill="none" stroke="white" stroke-width="1.5" pointer-events="none"/>
  </g>
  <g id="zoomMin">
    <use xlink:href="#rim" fill="#404040"><set attributeName="fill" to="#808080" begin="zoomminus.mouseover" end="zoomminus.mouseout"/></use>
    <path d="M-4,0h8" fill="none" stroke="white" stroke-width="1.5" pointer-events="none"/>
  </g>
  <g id="arrowUp" transform="translate(30 24)">
    <use xlink:href="#rim"/>
    <path pointer-events="none" fill="none" stroke="white" stroke-width="1.5" d="M0,-3.0v7 M-2.5,-0.5L0,-3.0L2.5,-0.5"/>
  </g>
  <g id="arrowRight" transform="rotate(90) translate(36 -43)">
    <use xlink:href="#rim"/>
    <path pointer-events="none" fill="none" stroke="white" stroke-width="1.5" d="M0,-3.0v7 M-2.5,-0.5L0,-3.0L2.5,-0.5"/>
  </g>
  <g id="arrowDown" transform="rotate(180) translate(-30 -48)">
    <use xlink:href="#rim"/>
    <path pointer-events="none" fill="none" stroke="white" stroke-width="1.5" d="M0,-3.0v7 M-2.5,-0.5L0,-3.0L2.5,-0.5"/>
  </g>
  <g id="arrowLeft" transform="rotate(270) translate(-36 17)">
    <use xlink:href="#rim"/>
    <path pointer-events="none" fill="none" stroke="white" stroke-width="1.5" d="M0,-3.0v7 M-2.5,-0.5L0,-3.0L2.5,-0.5"/>
  </g>
  <g id="resetDef">
    <use xlink:href="#rim2" fill="#404040"><set attributeName="fill" to="#808080" begin="reset.mouseover" end="reset.mouseout"/></use>
  </g>
</defs>
<script type="application/ecmascript">
var viewWidth = 986;
var viewHeight = 223;
var sectionId = 'dynsection-0';
</script>
<script type="application/ecmascript" xlink:href="../../svg.min.js"/>
<svg id="graph" class="graph">
<g id="viewport">
<title>mal_math::mat&lt; a, b, T &gt;</title>
<!-- Node1 -->
<g id="Node000001" class="node">
<title>Node1</title>
<g id="a_Node000001"><a xlink:title="Definition of matrix with dimensions rows x columns and type T">
<polygon fill="#999999" stroke="#666666" points="978.05,-76.25 861.55,-76.25 861.55,-57 978.05,-57 978.05,-76.25"/>
<text text-anchor="middle" x="919.8" y="-62.75" font-family="Times,serif" font-size="10.00">mal_math::mat&lt; a, b, T &gt;</text>
</a>
</g>
</g>
<!-- Node2 -->
<g id="Node000002" class="node">
<title>Node2</title>
<g id="a_Node000002"><a xlink:href="../../dd/dce/structmal__math_1_1vec.html" target="_top" xlink:title=" ">
<polygon fill="white" stroke="#666666" points="807.55,-166.25 683.55,-166.25 683.55,-147 807.55,-147 807.55,-166.25"/>
<text text-anchor="middle" x="745.55" y="-152.75" font-family="Times,serif" font-size="10.00">mal_math::vec&lt; 2, size_t &gt;</text>
</a>
</g>
</g>
<!-- Node2&#45;&gt;Node1 -->
<g id="edge1_Node000001_Node000002" class="edge">
<title>Node2&#45;&gt;Node1</title>
<g id="a_edge1_Node000001_Node000002"><a xlink:title=" ">
<path fill="none" stroke="#9a32cd" stroke-dasharray="5,2" d="M775.81,-141.34C811.14,-122.88 869.56,-92.35 899.62,-76.65"/>
<polygon fill="#9a32cd" stroke="#9a32cd" points="774.23,-138.22 766.98,-145.95 777.47,-144.42 774.23,-138.22"/>
</a>
</g>
<text text-anchor="middle" x="834.55" y="-115.38" font-family="Times,serif" font-size="10.00" fill="grey"> size</text>
</g>
<!-- Node3 -->
<g id="Node000003" class="node">
<title>Node3</title>
<g id="a_Node000003"><a xlink:title=" ">
<polygon fill="white" stroke="#666666" points="425.3,-215.25 321.55,-215.25 321.55,-196 425.3,-196 425.3,-215.25"/>
<text text-anchor="middle" x="373.42" y="-201.75" font-family="Times,serif" font-size="10.00">static constexpr size_t</text>
</a>
</g>
</g>
<!-- Node3&#45;&gt;Node2 -->
<g id="edge2_Node000002_Node000003" class="edge">
<title>Node3&#45;&gt;Node2</title>
<g id="a_edge2_Node000002_Node000003"><a xlink:title=" ">
<path fill="none" stroke="#9a32cd" stroke-dasharray="5,2" d="M437.09,-205.14C448.16,-204.82 459.57,-204.34 470.3,-203.62 557.49,-197.84 580.11,-198.92 665.55,-180.62 682.37,-177.02 700.78,-171.52 715.59,-166.7"/>
<polygon fill="#9a32cd" stroke="#9a32cd" points="437.14,-201.63 427.22,-205.38 437.31,-208.63 437.14,-201.63"/>
</a>
</g>
<text text-anchor="middle" x="541.67" y="-203.38" font-family="Times,serif" font-size="10.00" fill="grey"> size</text>
</g>
<!-- Node7 -->
<g id="Node000007" class="node">
<title>Node7</title>
<g id="a_Node000007"><a xlink:href="../../dd/dce/structmal__math_1_1vec.html" target="_top" xlink:title="Definition of the mathematical vector with fixed size L and type T">
<polygon fill="white" stroke="#666666" points="595.05,-180.25 488.3,-180.25 488.3,-161 595.05,-161 595.05,-180.25"/>
<text text-anchor="middle" x="541.67" y="-166.75" font-family="Times,serif" font-size="10.00">mal_math::vec&lt; L, T &gt;</text>
</a>
</g>
</g>
<!-- Node3&#45;&gt;Node7 -->
<g id="edge8_Node000007_Node000003" class="edge">
<title>Node3&#45;&gt;Node7</title>
<g id="a_edge8_Node000007_Node000003"><a xlink:title=" ">
<path fill="none" stroke="#9a32cd" stroke-dasharray="5,2" d="M433.66,-193.16C453.02,-189.08 474.27,-184.61 492.7,-180.73"/>
<polygon fill="#9a32cd" stroke="#9a32cd" points="433.06,-189.7 423.99,-195.19 434.5,-196.55 433.06,-189.7"/>
</a>
</g>
<text text-anchor="middle" x="460.55" y="-190.38" font-family="Times,serif" font-size="10.00" fill="grey"> size</text>
</g>
<!-- Node4 -->
<g id="Node000004" class="node">
<title>Node4</title>
<g id="a_Node000004"><a xlink:title=" ">
<polygon fill="white" stroke="#666666" points="421.17,-167.25 325.67,-167.25 325.67,-148 421.17,-148 421.17,-167.25"/>
<text text-anchor="middle" x="373.42" y="-153.75" font-family="Times,serif" font-size="10.00">std::array&lt; T, size &gt;</text>
</a>
</g>
</g>
<!-- Node4&#45;&gt;Node2 -->
<g id="edge3_Node000002_Node000004" class="edge">
<title>Node4&#45;&gt;Node2</title>
<g id="a_edge3_Node000002_Node000004"><a xlink:title=" ">
<path fill="none" stroke="#9a32cd" stroke-dasharray="5,2" d="M432.96,-147.04C450.67,-144.3 470.23,-141.74 488.3,-140.38 554.87,-135.36 631.24,-141.77 683.17,-147.96"/>
<polygon fill="#9a32cd" stroke="#9a32cd" points="432.43,-143.58 423.11,-148.61 433.54,-150.49 432.43,-143.58"/>
</a>
</g>
<text text-anchor="middle" x="541.67" y="-141.38" font-family="Times,serif" font-size="10.00" fill="grey"> data</text>
</g>
<!-- Node4&#45;&gt;Node7 -->
<g id="edge9_Node000007_Node000004" class="edge">
<title>Node4&#45;&gt;Node7</title>
<g id="a_edge9_Node000007_Node000004"><a xlink:title=" ">
<path fill="none" stroke="#9a32cd" stroke-dasharray="5,2" d="M433.06,-162.21C450.89,-163.6 470.38,-165.13 487.8,-166.49"/>
<polygon fill="#9a32cd" stroke="#9a32cd" points="433.37,-158.72 423.13,-161.43 432.83,-165.7 433.37,-158.72"/>
</a>
</g>
<text text-anchor="middle" x="460.55" y="-166.38" font-family="Times,serif" font-size="10.00" fill="grey"> data</text>
</g>
<!-- Node5 -->
<g id="Node000005" class="node">
<title>Node5</title>
<g id="a_Node000005"><a xlink:title=" ">
<polygon fill="white" stroke="#666666" points="28.8,-80.25 0,-80.25 0,-61 28.8,-61 28.8,-80.25"/>
<text text-anchor="middle" x="14.4" y="-66.75" font-family="Times,serif" font-size="10.00">T</text>
</a>
</g>
</g>
<!-- Node5&#45;&gt;Node4 -->
<g id="edge4_Node000004_Node000005" class="edge">
<title>Node5&#45;&gt;Node4</title>
<g id="a_edge4_Node000004_Node000005"><a xlink:title=" ">
<path fill="none" stroke="#9a32cd" stroke-dasharray="5,2" d="M31.74,-88.76C36.3,-93.08 41.47,-97.37 46.8,-100.62 68.78,-114.05 77.2,-111.22 101.55,-119.62 142.97,-133.92 151.71,-143.69 194.8,-151.62 238.5,-159.67 289.24,-160.57 325.27,-159.81"/>
<polygon fill="#9a32cd" stroke="#9a32cd" points="34.41,-86.48 24.92,-81.78 29.41,-91.38 34.41,-86.48"/>
</a>
</g>
<text text-anchor="middle" x="139.17" y="-148.38" font-family="Times,serif" font-size="10.00" fill="grey"> elements</text>
</g>
<!-- Node6 -->
<g id="Node000006" class="node">
<title>Node6</title>
<g id="a_Node000006"><a xlink:title=" ">
<polygon fill="white" stroke="#666666" points="176.8,-110.25 101.55,-110.25 101.55,-91 176.8,-91 176.8,-110.25"/>
<text text-anchor="middle" x="139.17" y="-96.75" font-family="Times,serif" font-size="10.00">std::array&lt; T &gt;</text>
</a>
</g>
</g>
<!-- Node5&#45;&gt;Node6 -->
<g id="edge6_Node000006_Node000005" class="edge">
<title>Node5&#45;&gt;Node6</title>
<g id="a_edge6_Node000006_Node000005"><a xlink:title=" ">
<path fill="none" stroke="#9a32cd" stroke-dasharray="5,2" d="M40,-76.64C57.54,-80.92 81.41,-86.75 101.22,-91.6"/>
<polygon fill="#9a32cd" stroke="#9a32cd" points="41.02,-73.28 30.48,-74.31 39.36,-80.08 41.02,-73.28"/>
</a>
</g>
<text text-anchor="middle" x="65.17" y="-87.38" font-family="Times,serif" font-size="10.00" fill="grey"> elements</text>
</g>
<!-- Node8 -->
<g id="Node000008" class="node">
<title>Node8</title>
<g id="a_Node000008"><a xlink:title=" ">
<polygon fill="white" stroke="#666666" points="420.42,-106.88 326.42,-106.88 326.42,-76.38 420.42,-76.38 420.42,-106.88"/>
<text text-anchor="start" x="334.42" y="-93.38" font-family="Times,serif" font-size="10.00">std::array&lt; T, size.x</text>
<text text-anchor="middle" x="373.42" y="-82.12" font-family="Times,serif" font-size="10.00"> *size.y &gt;</text>
</a>
</g>
</g>
<!-- Node5&#45;&gt;Node8 -->
<g id="edge11_Node000008_Node000005" class="edge">
<title>Node5&#45;&gt;Node8</title>
<g id="a_edge11_Node000008_Node000005"><a xlink:title=" ">
<path fill="none" stroke="#9a32cd" stroke-dasharray="5,2" d="M39.54,-60.74C89.89,-41.75 208.64,-5.42 296.05,-45.62 307.22,-50.76 304.14,-59.35 314.05,-66.62 318.76,-70.08 324.02,-73.18 329.4,-75.92"/>
<polygon fill="#9a32cd" stroke="#9a32cd" points="38.53,-57.38 30.48,-64.27 41.07,-63.91 38.53,-57.38"/>
</a>
</g>
<text text-anchor="middle" x="139.17" y="-42.38" font-family="Times,serif" font-size="10.00" fill="grey"> elements</text>
</g>
<!-- Node9 -->
<g id="Node000009" class="node">
<title>Node9</title>
<g id="a_Node000009"><a xlink:title=" ">
<polygon fill="white" stroke="#666666" points="432.8,-57.88 314.05,-57.88 314.05,-27.38 432.8,-27.38 432.8,-57.88"/>
<text text-anchor="start" x="322.05" y="-44.38" font-family="Times,serif" font-size="10.00">std::array&lt; mal_math</text>
<text text-anchor="middle" x="373.42" y="-33.12" font-family="Times,serif" font-size="10.00">::vec&lt; size.y, T &gt;, size.x &gt;</text>
</a>
</g>
</g>
<!-- Node5&#45;&gt;Node9 -->
<g id="edge14_Node000009_Node000005" class="edge">
<title>Node5&#45;&gt;Node9</title>
<g id="a_edge14_Node000009_Node000005"><a xlink:title=" ">
<path fill="none" stroke="#9a32cd" stroke-dasharray="5,2" d="M33.89,-52.81C50.18,-38.56 75.34,-19.94 101.55,-13.38 177.26,5.58 267.9,-12.05 322.78,-26.98"/>
<polygon fill="#9a32cd" stroke="#9a32cd" points="31.53,-50.22 26.5,-59.54 36.25,-55.39 31.53,-50.22"/>
</a>
</g>
<text text-anchor="middle" x="139.17" y="-14.38" font-family="Times,serif" font-size="10.00" fill="grey"> elements</text>
</g>
<!-- Node6&#45;&gt;Node4 -->
<g id="edge5_Node000004_Node000006" class="edge">
<title>Node6&#45;&gt;Node4</title>
<g id="a_edge5_Node000004_Node000006"><a xlink:title=" ">
<path fill="none" stroke="orange" stroke-dasharray="5,2" d="M188.34,-112.45C230.54,-122.8 291.2,-137.69 331.19,-147.51"/>
<polygon fill="orange" stroke="orange" points="189.25,-109.07 178.7,-110.08 187.58,-115.86 189.25,-109.07"/>
</a>
</g>
<text text-anchor="middle" x="245.42" y="-138.38" font-family="Times,serif" font-size="10.00" fill="grey"> &lt; T, size &gt;</text>
</g>
<!-- Node6&#45;&gt;Node8 -->
<g id="edge12_Node000008_Node000006" class="edge">
<title>Node6&#45;&gt;Node8</title>
<g id="a_edge12_Node000008_Node000006"><a xlink:title=" ">
<path fill="none" stroke="orange" stroke-dasharray="5,2" d="M188.7,-98.74C229.19,-97.18 286.5,-94.95 326.3,-93.41"/>
<polygon fill="orange" stroke="orange" points="188.6,-95.25 178.74,-99.13 188.87,-102.24 188.6,-95.25"/>
</a>
</g>
<text text-anchor="middle" x="245.42" y="-99.38" font-family="Times,serif" font-size="10.00" fill="grey"> &lt; T, size.x *size.y &gt;</text>
</g>
<!-- Node6&#45;&gt;Node9 -->
<g id="edge15_Node000009_Node000006" class="edge">
<title>Node6&#45;&gt;Node9</title>
<g id="a_edge15_Node000009_Node000006"><a xlink:title=" ">
<path fill="none" stroke="orange" stroke-dasharray="5,2" d="M162.78,-84.45C172.25,-78.41 183.64,-72.07 194.8,-68.12 233.13,-54.58 278.54,-48.22 313.85,-45.24"/>
<polygon fill="orange" stroke="orange" points="160.97,-81.44 154.61,-89.91 164.87,-87.26 160.97,-81.44"/>
</a>
</g>
<text text-anchor="start" x="194.8" y="-80.62" font-family="Times,serif" font-size="10.00" fill="grey"> &lt; mal_math::vec&lt; size.y,</text>
<text text-anchor="middle" x="245.42" y="-69.38" font-family="Times,serif" font-size="10.00" fill="grey"> T &gt;, size.x &gt;</text>
</g>
<!-- Node7&#45;&gt;Node2 -->
<g id="edge7_Node000002_Node000007" class="edge">
<title>Node7&#45;&gt;Node2</title>
<g id="a_edge7_Node000002_Node000007"><a xlink:title=" ">
<path fill="none" stroke="orange" stroke-dasharray="5,2" d="M606.78,-166.18C631.2,-164.49 658.97,-162.56 683.14,-160.88"/>
<polygon fill="orange" stroke="orange" points="606.7,-162.68 596.96,-166.86 607.18,-169.66 606.7,-162.68"/>
</a>
</g>
<text text-anchor="middle" x="639.3" y="-167.38" font-family="Times,serif" font-size="10.00" fill="grey"> &lt; 2, size_t &gt;</text>
</g>
<!-- Node8&#45;&gt;Node1 -->
<g id="edge10_Node000001_Node000008" class="edge">
<title>Node8&#45;&gt;Node1</title>
<g id="a_edge10_Node000001_Node000008"><a xlink:title=" ">
<path fill="none" stroke="#9a32cd" stroke-dasharray="5,2" d="M432.11,-89.61C520.65,-86.41 695.34,-79.71 843.55,-71.62 849.3,-71.31 855.3,-70.96 861.29,-70.59"/>
<polygon fill="#9a32cd" stroke="#9a32cd" points="432.1,-86.1 422.23,-89.96 432.35,-93.1 432.1,-86.1"/>
</a>
</g>
<text text-anchor="middle" x="639.3" y="-83.38" font-family="Times,serif" font-size="10.00" fill="grey"> arr</text>
</g>
<!-- Node9&#45;&gt;Node1 -->
<g id="edge13_Node000001_Node000009" class="edge">
<title>Node9&#45;&gt;Node1</title>
<g id="a_edge13_Node000001_Node000009"><a xlink:title=" ">
<path fill="none" stroke="#9a32cd" stroke-dasharray="5,2" d="M444.68,-44.53C503.66,-46.24 590.13,-48.99 665.55,-52.38 732.75,-55.39 809.92,-59.88 861.24,-63.01"/>
<polygon fill="#9a32cd" stroke="#9a32cd" points="444.88,-41.03 434.78,-44.25 444.67,-48.03 444.88,-41.03"/>
</a>
</g>
<text text-anchor="middle" x="639.3" y="-53.38" font-family="Times,serif" font-size="10.00" fill="grey"> data</text>
</g>
<!-- Node10 -->
<g id="Node000010" class="node">
<title>Node10</title>
<g id="a_Node000010"><a xlink:title=" ">
<polygon fill="white" stroke="#666666" points="783.55,-19.25 707.55,-19.25 707.55,0 783.55,0 783.55,-19.25"/>
<text text-anchor="middle" x="745.55" y="-5.75" font-family="Times,serif" font-size="10.00">anonymous:@1</text>
</a>
</g>
</g>
<!-- Node10&#45;&gt;Node1 -->
<g id="edge16_Node000001_Node000010" class="edge">
<title>Node10&#45;&gt;Node1</title>
<g id="a_edge16_Node000001_Node000010"><a xlink:title=" ">
<path fill="none" stroke="#9a32cd" stroke-dasharray="5,2" d="M794.91,-12.14C810.72,-13.97 828.17,-17.09 843.55,-22.38 866.91,-30.41 891.03,-46.15 905.47,-56.53"/>
<polygon fill="#9a32cd" stroke="#9a32cd" points="795.54,-8.69 785.24,-11.18 794.84,-15.65 795.54,-8.69"/>
</a>
</g>
<text text-anchor="middle" x="834.55" y="-23.38" font-family="Times,serif" font-size="10.00" fill="grey"> @1</text>
</g>
</g>
</svg>

<g id="navigator" transform="translate(0 0)" fill="#404254">
  <rect fill="#f2f5e9" fill-opacity="0.5" stroke="#606060" stroke-width=".5" x="0" y="0" width="60" height="60"/>
  <use id="zoomplus" xlink:href="#zoomPlus" x="17" y="9" onmousedown="handleZoom(evt,'in')"/>
  <use id="zoomminus" xlink:href="#zoomMin" x="42" y="9" onmousedown="handleZoom(evt,'out')"/>
  <use id="reset" xlink:href="#resetDef" x="30" y="36" onmousedown="handleReset()"/>
   <use id="arrowup" xlink:href="#arrowUp" x="0" y="0" onmousedown="handlePan(0,-1)"/>
  <use id="arrowright" xlink:href="#arrowRight" x="0" y="0" onmousedown="handlePan(1,0)"/>
  <use id="arrowdown" xlink:href="#arrowDown" x="0" y="0" onmousedown="handlePan(0,1)"/>
  <use id="arrowleft" xlink:href="#arrowLeft" x="0" y="0" onmousedown="handlePan(-1,0)"/>
</g>
<svg viewBox="0 0 15 15" width="100%" height="30px" preserveAspectRatio="xMaxYMin meet">
 <g id="arrow_out" transform="scale(0.3 0.3)">
  <a xlink:href="structmal__math_1_1mat__coll__graph_org.svg" target="_base">
   <rect id="button" ry="5" rx="5" y="6" x="6" height="38" width="38"
        fill="#f2f5e9" fill-opacity="0.5" stroke="#606060" stroke-width="1.0"/>
   <path id="arrow"
     d="M 11.500037,31.436501 C 11.940474,20.09759 22.043105,11.32322 32.158766,21.979434 L 37.068811,17.246167 C 37.068811,17.246167 37.088388,32 37.088388,32 L 22.160133,31.978069 C 22.160133,31.978069 26.997745,27.140456 26.997745,27.140456 C 18.528582,18.264221 13.291696,25.230495 11.500037,31.436501 z"
     style="fill:#404040;"/>
  </a>
 </g>
</svg>

<style type='text/css'>
<![CDATA[
[data-mouse-over-selected='false'] { opacity: 0.7; }
[data-mouse-over-selected='true']  { opacity: 1.0; }
]]>
</style>
<script type="application/ecmascript"><![CDATA[
document.addEventListener('DOMContentLoaded', (event) => {
  highlightEdges();
  highlightAdjacentNodes();
});
]]></script>
</svg>
