<?xml version="1.0" encoding="UTF-8" standalone="no"?>
<!DOCTYPE svg PUBLIC "-//W3C//DTD SVG 1.1//EN"
 "http://www.w3.org/Graphics/SVG/1.1/DTD/svg11.dtd">
<!-- Generated by graphviz version 9.0.0 (20230911.1827)
 -->
<!-- Title: include/math/ray.hpp Pages: 1 -->
<svg width="625pt" height="248pt"
 viewBox="0.00 0.00 625.12 248.25" xmlns="http://www.w3.org/2000/svg" xmlns:xlink="http://www.w3.org/1999/xlink">
<g id="graph0" class="graph" transform="scale(1 1) rotate(0) translate(4 244.25)">
<title>include/math/ray.hpp</title>
<!-- Node1 -->
<g id="Node000001" class="node">
<title>Node1</title>
<g id="a_Node000001"><a xlink:title="Contains the definition of the Ray class.">
<polygon fill="#999999" stroke="#666666" points="433.62,-240.25 332.12,-240.25 332.12,-221 433.62,-221 433.62,-240.25"/>
<text text-anchor="middle" x="382.88" y="-226.75" font-family="Times,serif" font-size="10.00">include/math/ray.hpp</text>
</a>
</g>
</g>
<!-- Node2 -->
<g id="Node000002" class="node">
<title>Node2</title>
<g id="a_Node000002"><a xlink:href="../../d4/d78/math_8hpp.html" target="_top" xlink:title="Provides various mathematical utilities, vector operations, and custom hash specializations.">
<polygon fill="white" stroke="#666666" points="379.12,-129.75 292.62,-129.75 292.62,-110.5 379.12,-110.5 379.12,-129.75"/>
<text text-anchor="middle" x="335.88" y="-116.25" font-family="Times,serif" font-size="10.00">include/math.hpp</text>
</a>
</g>
</g>
<!-- Node1&#45;&gt;Node2 -->
<g id="edge1_Node000001_Node000002" class="edge">
<title>Node1&#45;&gt;Node2</title>
<g id="a_edge1_Node000001_Node000002"><a xlink:title=" ">
<path fill="none" stroke="#63b8ff" d="M369.51,-210.9C356.93,-187.33 340.25,-147.79 335.84,-130.13"/>
<polygon fill="#63b8ff" stroke="#63b8ff" points="366.38,-212.47 374.37,-219.43 372.46,-209.01 366.38,-212.47"/>
</a>
</g>
</g>
<!-- Node5 -->
<g id="Node000005" class="node">
<title>Node5</title>
<g id="a_Node000005"><a xlink:href="../../d7/d82/plane_8hpp.html" target="_top" xlink:title="Provides the definition of the Plane structure and its associated operations.">
<polygon fill="white" stroke="#666666" points="617.12,-19.25 506.62,-19.25 506.62,0 617.12,0 617.12,-19.25"/>
<text text-anchor="middle" x="561.88" y="-5.75" font-family="Times,serif" font-size="10.00">include/math/plane.hpp</text>
</a>
</g>
</g>
<!-- Node1&#45;&gt;Node5 -->
<g id="edge13_Node000001_Node000005" class="edge">
<title>Node1&#45;&gt;Node5</title>
<g id="a_edge13_Node000001_Node000005"><a xlink:title=" ">
<path fill="none" stroke="#63b8ff" d="M436.04,-217.24C457.03,-210.36 480.28,-200.06 497.88,-185 540.99,-148.09 547.15,-129.31 561.88,-74.5 567,-55.44 565,-32 563.3,-19.49"/>
<polygon fill="#63b8ff" stroke="#63b8ff" points="435.29,-213.8 426.76,-220.08 437.34,-220.5 435.29,-213.8"/>
</a>
</g>
</g>
<!-- Node8 -->
<g id="Node000008" class="node">
<title>Node8</title>
<g id="a_Node000008"><a xlink:href="../../d0/da1/sphere_8hpp.html" target="_top" xlink:title="Defines the Sphere structure and its associated functionality.">
<polygon fill="white" stroke="#666666" points="488.75,-185 373,-185 373,-165.75 488.75,-165.75 488.75,-185"/>
<text text-anchor="middle" x="430.88" y="-171.5" font-family="Times,serif" font-size="10.00">include/math/sphere.hpp</text>
</a>
</g>
</g>
<!-- Node1&#45;&gt;Node8 -->
<g id="edge14_Node000001_Node000008" class="edge">
<title>Node1&#45;&gt;Node8</title>
<g id="a_edge14_Node000001_Node000008"><a xlink:title=" ">
<path fill="none" stroke="#63b8ff" d="M398.27,-212.54C406.42,-203.5 416.09,-192.77 422.78,-185.36"/>
<polygon fill="#63b8ff" stroke="#63b8ff" points="395.91,-209.94 391.81,-219.71 401.11,-214.62 395.91,-209.94"/>
</a>
</g>
</g>
<!-- Node2&#45;&gt;Node1 -->
<g id="edge10_Node000002_Node000001" class="edge">
<title>Node2&#45;&gt;Node1</title>
<g id="a_edge10_Node000002_Node000001"><a xlink:title=" ">
<path fill="none" stroke="#63b8ff" d="M349.32,-140.02C361.92,-163.66 378.59,-203.18 382.94,-220.75"/>
<polygon fill="#63b8ff" stroke="#63b8ff" points="352.44,-138.41 344.46,-131.44 346.35,-141.87 352.44,-138.41"/>
</a>
</g>
</g>
<!-- Node3 -->
<g id="Node000003" class="node">
<title>Node3</title>
<g id="a_Node000003"><a xlink:href="../../d7/de4/box_8hpp.html" target="_top" xlink:title="Defines a templated bounding box class for 3D primitives.">
<polygon fill="white" stroke="#666666" points="103.75,-74.5 0,-74.5 0,-55.25 103.75,-55.25 103.75,-74.5"/>
<text text-anchor="middle" x="51.88" y="-61" font-family="Times,serif" font-size="10.00">include/math/box.hpp</text>
</a>
</g>
</g>
<!-- Node2&#45;&gt;Node3 -->
<g id="edge2_Node000002_Node000003" class="edge">
<title>Node2&#45;&gt;Node3</title>
<g id="a_edge2_Node000002_Node000003"><a xlink:title=" ">
<path fill="none" stroke="#63b8ff" d="M281.02,-109.83C226.73,-100.02 144.87,-84.67 95.04,-74.95"/>
<polygon fill="#63b8ff" stroke="#63b8ff" points="280.21,-113.24 290.68,-111.56 281.45,-106.35 280.21,-113.24"/>
</a>
</g>
</g>
<!-- Node4 -->
<g id="Node000004" class="node">
<title>Node4</title>
<g id="a_Node000004"><a xlink:href="../../d6/d02/intersection_8hpp.html" target="_top" xlink:title="Provides functionalities to represent and handle intersections in 3D space.">
<polygon fill="white" stroke="#666666" points="257.88,-74.5 121.88,-74.5 121.88,-55.25 257.88,-55.25 257.88,-74.5"/>
<text text-anchor="middle" x="189.88" y="-61" font-family="Times,serif" font-size="10.00">include/math/intersection.hpp</text>
</a>
</g>
</g>
<!-- Node2&#45;&gt;Node4 -->
<g id="edge4_Node000002_Node000004" class="edge">
<title>Node2&#45;&gt;Node4</title>
<g id="a_edge4_Node000002_Node000004"><a xlink:title=" ">
<path fill="none" stroke="#63b8ff" d="M295.22,-106.43C267.26,-96.74 231.48,-83.61 209.54,-74.95"/>
<polygon fill="#63b8ff" stroke="#63b8ff" points="293.86,-109.67 304.46,-109.6 296.14,-103.04 293.86,-109.67"/>
</a>
</g>
</g>
<!-- Node6 -->
<g id="Node000006" class="node">
<title>Node6</title>
<g id="a_Node000006"><a xlink:href="../../d1/df2/random_8hpp.html" target="_top" xlink:title="Provides functionality for random number generation and manipulation in vector spaces.">
<polygon fill="white" stroke="#666666" points="395.62,-74.5 276.12,-74.5 276.12,-55.25 395.62,-55.25 395.62,-74.5"/>
<text text-anchor="middle" x="335.88" y="-61" font-family="Times,serif" font-size="10.00">include/math/random.hpp</text>
</a>
</g>
</g>
<!-- Node2&#45;&gt;Node6 -->
<g id="edge8_Node000002_Node000006" class="edge">
<title>Node2&#45;&gt;Node6</title>
<g id="a_edge8_Node000002_Node000006"><a xlink:title=" ">
<path fill="none" stroke="#63b8ff" d="M329.32,-99.17C328.83,-90.8 329.28,-81.5 330.67,-74.86"/>
<polygon fill="#63b8ff" stroke="#63b8ff" points="325.81,-99.34 330.52,-108.83 332.76,-98.47 325.81,-99.34"/>
</a>
</g>
</g>
<!-- Node7 -->
<g id="Node000007" class="node">
<title>Node7</title>
<g id="a_Node000007"><a xlink:href="../../d9/d6c/triangle_8hpp.html" target="_top" xlink:title="Defines the Triangle structure and methods for ray&#45;triangle intersection.">
<polygon fill="white" stroke="#666666" points="533.62,-74.5 414.12,-74.5 414.12,-55.25 533.62,-55.25 533.62,-74.5"/>
<text text-anchor="middle" x="473.88" y="-61" font-family="Times,serif" font-size="10.00">include/math/triangle.hpp</text>
</a>
</g>
</g>
<!-- Node2&#45;&gt;Node7 -->
<g id="edge11_Node000002_Node000007" class="edge">
<title>Node2&#45;&gt;Node7</title>
<g id="a_edge11_Node000002_Node000007"><a xlink:title=" ">
<path fill="none" stroke="#63b8ff" d="M364.51,-105.78C388.17,-96.16 421.42,-83.42 445.12,-74.95"/>
<polygon fill="#63b8ff" stroke="#63b8ff" points="363.38,-102.47 355.47,-109.51 366.05,-108.94 363.38,-102.47"/>
</a>
</g>
</g>
<!-- Node3&#45;&gt;Node2 -->
<g id="edge3_Node000003_Node000002" class="edge">
<title>Node3&#45;&gt;Node2</title>
<g id="a_edge3_Node000003_Node000002"><a xlink:title=" ">
<path fill="none" stroke="#63b8ff" d="M115.09,-76.69C169.11,-86.5 245.27,-100.8 292.61,-110.03"/>
<polygon fill="#63b8ff" stroke="#63b8ff" points="115.88,-73.27 105.41,-74.94 114.63,-80.16 115.88,-73.27"/>
</a>
</g>
</g>
<!-- Node4&#45;&gt;Node2 -->
<g id="edge5_Node000004_Node000002" class="edge">
<title>Node4&#45;&gt;Node2</title>
<g id="a_edge5_Node000004_Node000002"><a xlink:title=" ">
<path fill="none" stroke="#63b8ff" d="M230.67,-78.62C258.66,-88.32 294.43,-101.45 316.33,-110.09"/>
<polygon fill="#63b8ff" stroke="#63b8ff" points="232.02,-75.38 221.42,-75.44 229.74,-82 232.02,-75.38"/>
</a>
</g>
</g>
<!-- Node4&#45;&gt;Node5 -->
<g id="edge6_Node000004_Node000005" class="edge">
<title>Node4&#45;&gt;Node5</title>
<g id="a_edge6_Node000004_Node000005"><a xlink:title=" ">
<path fill="none" stroke="#63b8ff" d="M264.55,-53.19C335.94,-42.97 441.94,-27.79 506.2,-18.59"/>
<polygon fill="#63b8ff" stroke="#63b8ff" points="264.3,-49.69 254.9,-54.57 265.29,-56.61 264.3,-49.69"/>
</a>
</g>
</g>
<!-- Node5&#45;&gt;Node2 -->
<g id="edge7_Node000005_Node000002" class="edge">
<title>Node5&#45;&gt;Node2</title>
<g id="a_edge7_Node000005_Node000002"><a xlink:title=" ">
<path fill="none" stroke="#63b8ff" d="M561.11,-30.61C559.48,-44.82 554.96,-63.31 542.88,-74.5 519.47,-96.17 432.71,-108.96 379.22,-114.96"/>
<polygon fill="#63b8ff" stroke="#63b8ff" points="564.57,-31.25 561.81,-21.02 557.59,-30.74 564.57,-31.25"/>
</a>
</g>
</g>
<!-- Node6&#45;&gt;Node2 -->
<g id="edge9_Node000006_Node000002" class="edge">
<title>Node6&#45;&gt;Node2</title>
<g id="a_edge9_Node000006_Node000002"><a xlink:title=" ">
<path fill="none" stroke="#63b8ff" d="M342.45,-86.07C342.92,-94.46 342.45,-103.74 341.04,-110.33"/>
<polygon fill="#63b8ff" stroke="#63b8ff" points="345.95,-85.87 341.26,-76.36 339,-86.71 345.95,-85.87"/>
</a>
</g>
</g>
<!-- Node7&#45;&gt;Node2 -->
<g id="edge12_Node000007_Node000002" class="edge">
<title>Node7&#45;&gt;Node2</title>
<g id="a_edge12_Node000007_Node000002"><a xlink:title=" ">
<path fill="none" stroke="#63b8ff" d="M445.11,-79.27C421.42,-88.9 388.17,-101.64 364.5,-110.09"/>
<polygon fill="#63b8ff" stroke="#63b8ff" points="446.27,-82.58 454.18,-75.53 443.6,-76.11 446.27,-82.58"/>
</a>
</g>
</g>
<!-- Node8&#45;&gt;Node2 -->
<g id="edge15_Node000008_Node000002" class="edge">
<title>Node8&#45;&gt;Node2</title>
<g id="a_edge15_Node000008_Node000002"><a xlink:title=" ">
<path fill="none" stroke="#63b8ff" d="M404.95,-159.84C388.06,-150.38 366.56,-138.33 352.07,-130.2"/>
<polygon fill="#63b8ff" stroke="#63b8ff" points="403,-162.77 413.44,-164.6 406.43,-156.66 403,-162.77"/>
</a>
</g>
</g>
</g>
</svg>
