<?xml version="1.0" encoding="UTF-8" standalone="no"?>
<!DOCTYPE svg PUBLIC "-//W3C//DTD SVG 1.1//EN"
 "http://www.w3.org/Graphics/SVG/1.1/DTD/svg11.dtd">
<!-- Generated by graphviz version 9.0.0 (20230911.1827)
 -->
<!-- Title: include/math.hpp Pages: 1 -->
<svg width="1110pt" height="359pt"
 viewBox="0.00 0.00 1109.75 358.75" xmlns="http://www.w3.org/2000/svg" xmlns:xlink="http://www.w3.org/1999/xlink">
<g id="graph0" class="graph" transform="scale(1 1) rotate(0) translate(4 354.75)">
<title>include/math.hpp</title>
<!-- Node1 -->
<g id="Node000001" class="node">
<title>Node1</title>
<g id="a_Node000001"><a xlink:title="Provides various mathematical utilities, vector operations, and custom hash specializations.">
<polygon fill="#999999" stroke="#666666" points="699.38,-350.75 612.88,-350.75 612.88,-331.5 699.38,-331.5 699.38,-350.75"/>
<text text-anchor="middle" x="656.12" y="-337.25" font-family="Times,serif" font-size="10.00">include/math.hpp</text>
</a>
</g>
</g>
<!-- Node2 -->
<g id="Node000002" class="node">
<title>Node2</title>
<g id="a_Node000002"><a xlink:href="../../dc/dc2/mat_8hpp.html" target="_top" xlink:title="Provides matrix definitions tailored for various sizes and primitive types.">
<polygon fill="white" stroke="#666666" points="898.25,-240.25 826,-240.25 826,-221 898.25,-221 898.25,-240.25"/>
<text text-anchor="middle" x="862.12" y="-226.75" font-family="Times,serif" font-size="10.00">math/mat.hpp</text>
</a>
</g>
</g>
<!-- Node1&#45;&gt;Node2 -->
<g id="edge1_Node000001_Node000002" class="edge">
<title>Node1&#45;&gt;Node2</title>
<g id="a_edge1_Node000001_Node000002"><a xlink:title=" ">
<path fill="none" stroke="#63b8ff" d="M699.48,-335.55C749.85,-329.32 828.67,-316.5 849.12,-295.5 860.25,-284.08 863.07,-265.88 863.35,-251.83"/>
<polygon fill="#63b8ff" stroke="#63b8ff" points="866.85,-251.82 863.1,-241.91 859.85,-252 866.85,-251.82"/>
</a>
</g>
</g>
<!-- Node34 -->
<g id="Node000034" class="node">
<title>Node34</title>
<g id="a_Node000034"><a xlink:href="../../db/d1d/ray_8hpp.html" target="_top" xlink:title="Contains the definition of the Ray class.">
<polygon fill="white" stroke="#666666" points="558.75,-240.25 489.5,-240.25 489.5,-221 558.75,-221 558.75,-240.25"/>
<text text-anchor="middle" x="524.12" y="-226.75" font-family="Times,serif" font-size="10.00">math/ray.hpp</text>
</a>
</g>
</g>
<!-- Node1&#45;&gt;Node34 -->
<g id="edge54_Node000001_Node000034" class="edge">
<title>Node1&#45;&gt;Node34</title>
<g id="a_edge54_Node000001_Node000034"><a xlink:title=" ">
<path fill="none" stroke="#63b8ff" d="M612.54,-331.94C589.23,-325.32 561.74,-313.97 543.12,-295.5 531.15,-283.62 523.91,-265.75 521.26,-251.93"/>
<polygon fill="#63b8ff" stroke="#63b8ff" points="524.76,-251.76 520.26,-242.17 517.8,-252.47 524.76,-251.76"/>
</a>
</g>
</g>
<!-- Node35 -->
<g id="Node000035" class="node">
<title>Node35</title>
<g id="a_Node000035"><a xlink:href="../../d6/d02/intersection_8hpp.html" target="_top" xlink:title="Provides functionalities to represent and handle intersections in 3D space.">
<polygon fill="white" stroke="#666666" points="424,-240.25 320.25,-240.25 320.25,-221 424,-221 424,-240.25"/>
<text text-anchor="middle" x="372.12" y="-226.75" font-family="Times,serif" font-size="10.00">math/intersection.hpp</text>
</a>
</g>
</g>
<!-- Node1&#45;&gt;Node35 -->
<g id="edge56_Node000001_Node000035" class="edge">
<title>Node1&#45;&gt;Node35</title>
<g id="a_edge56_Node000001_Node000035"><a xlink:title=" ">
<path fill="none" stroke="#63b8ff" d="M612.63,-337.86C546.26,-333.41 424.4,-321.6 391.12,-295.5 377.57,-284.87 370.43,-266.32 368.31,-251.94"/>
<polygon fill="#63b8ff" stroke="#63b8ff" points="371.82,-251.99 367.79,-242.19 364.83,-252.36 371.82,-251.99"/>
</a>
</g>
</g>
<!-- Node36 -->
<g id="Node000036" class="node">
<title>Node36</title>
<g id="a_Node000036"><a xlink:href="../../d9/d6c/triangle_8hpp.html" target="_top" xlink:title="Defines the Triangle structure and methods for ray&#45;triangle intersection.">
<polygon fill="white" stroke="#666666" points="648.75,-295.5 561.5,-295.5 561.5,-276.25 648.75,-276.25 648.75,-295.5"/>
<text text-anchor="middle" x="605.12" y="-282" font-family="Times,serif" font-size="10.00">math/triangle.hpp</text>
</a>
</g>
</g>
<!-- Node1&#45;&gt;Node36 -->
<g id="edge58_Node000001_Node000036" class="edge">
<title>Node1&#45;&gt;Node36</title>
<g id="a_edge58_Node000001_Node000036"><a xlink:title=" ">
<path fill="none" stroke="#63b8ff" d="M642.26,-331.09C633.82,-323.86 623.49,-313.49 615.7,-304.61"/>
<polygon fill="#63b8ff" stroke="#63b8ff" points="618.47,-302.46 609.42,-296.94 613.06,-306.9 618.47,-302.46"/>
</a>
</g>
</g>
<!-- Node37 -->
<g id="Node000037" class="node">
<title>Node37</title>
<g id="a_Node000037"><a xlink:href="../../d7/d82/plane_8hpp.html" target="_top" xlink:title="Provides the definition of the Plane structure and its associated operations.">
<polygon fill="white" stroke="#666666" points="487.25,-295.5 409,-295.5 409,-276.25 487.25,-276.25 487.25,-295.5"/>
<text text-anchor="middle" x="448.12" y="-282" font-family="Times,serif" font-size="10.00">math/plane.hpp</text>
</a>
</g>
</g>
<!-- Node1&#45;&gt;Node37 -->
<g id="edge60_Node000001_Node000037" class="edge">
<title>Node1&#45;&gt;Node37</title>
<g id="a_edge60_Node000001_Node000037"><a xlink:title=" ">
<path fill="none" stroke="#63b8ff" d="M620.84,-331.09C586.03,-322.18 532.62,-308.51 494.42,-298.73"/>
<polygon fill="#63b8ff" stroke="#63b8ff" points="495.6,-295.42 485.05,-296.33 493.87,-302.2 495.6,-295.42"/>
</a>
</g>
</g>
<!-- Node38 -->
<g id="Node000038" class="node">
<title>Node38</title>
<g id="a_Node000038"><a xlink:href="../../d7/de4/box_8hpp.html" target="_top" xlink:title="Defines a templated bounding box class for 3D primitives.">
<polygon fill="white" stroke="#666666" points="839.88,-295.5 768.38,-295.5 768.38,-276.25 839.88,-276.25 839.88,-295.5"/>
<text text-anchor="middle" x="804.12" y="-282" font-family="Times,serif" font-size="10.00">math/box.hpp</text>
</a>
</g>
</g>
<!-- Node1&#45;&gt;Node38 -->
<g id="edge63_Node000001_Node000038" class="edge">
<title>Node1&#45;&gt;Node38</title>
<g id="a_edge63_Node000001_Node000038"><a xlink:title=" ">
<path fill="none" stroke="#63b8ff" d="M676.01,-331.09C698.24,-322.45 734.5,-309.32 762.85,-299.62"/>
<polygon fill="#63b8ff" stroke="#63b8ff" points="763.89,-302.96 772.24,-296.44 761.64,-296.33 763.89,-302.96"/>
</a>
</g>
</g>
<!-- Node39 -->
<g id="Node000039" class="node">
<title>Node39</title>
<g id="a_Node000039"><a xlink:href="../../db/d65/quaternion_8hpp.html" target="_top" xlink:title="Quaternion operations and related mathematical functions.">
<polygon fill="white" stroke="#666666" points="996.12,-295.5 896.12,-295.5 896.12,-276.25 996.12,-276.25 996.12,-295.5"/>
<text text-anchor="middle" x="946.12" y="-282" font-family="Times,serif" font-size="10.00">math/quaternion.hpp</text>
</a>
</g>
</g>
<!-- Node1&#45;&gt;Node39 -->
<g id="edge65_Node000001_Node000039" class="edge">
<title>Node1&#45;&gt;Node39</title>
<g id="a_edge65_Node000001_Node000039"><a xlink:title=" ">
<path fill="none" stroke="#63b8ff" d="M699.85,-332.1C749.3,-323.02 830.12,-308.18 885.6,-297.99"/>
<polygon fill="#63b8ff" stroke="#63b8ff" points="886,-301.47 895.2,-296.23 884.73,-294.59 886,-301.47"/>
</a>
</g>
</g>
<!-- Node41 -->
<g id="Node000041" class="node">
<title>Node41</title>
<g id="a_Node000041"><a xlink:href="../../d0/da1/sphere_8hpp.html" target="_top" xlink:title="Defines the Sphere structure and its associated functionality.">
<polygon fill="white" stroke="#666666" points="749.88,-295.5 666.38,-295.5 666.38,-276.25 749.88,-276.25 749.88,-295.5"/>
<text text-anchor="middle" x="708.12" y="-282" font-family="Times,serif" font-size="10.00">math/sphere.hpp</text>
</a>
</g>
</g>
<!-- Node1&#45;&gt;Node41 -->
<g id="edge69_Node000001_Node000041" class="edge">
<title>Node1&#45;&gt;Node41</title>
<g id="a_edge69_Node000001_Node000041"><a xlink:title=" ">
<path fill="none" stroke="#63b8ff" d="M664.71,-331.33C671.97,-323.9 682.58,-313.04 691.49,-303.91"/>
<polygon fill="#63b8ff" stroke="#63b8ff" points="693.81,-306.54 698.29,-296.94 688.8,-301.65 693.81,-306.54"/>
</a>
</g>
</g>
<!-- Node42 -->
<g id="Node000042" class="node">
<title>Node42</title>
<g id="a_Node000042"><a xlink:href="../../d1/df2/random_8hpp.html" target="_top" xlink:title="Provides functionality for random number generation and manipulation in vector spaces.">
<polygon fill="white" stroke="#666666" points="1101.75,-295.5 1014.5,-295.5 1014.5,-276.25 1101.75,-276.25 1101.75,-295.5"/>
<text text-anchor="middle" x="1058.12" y="-282" font-family="Times,serif" font-size="10.00">math/random.hpp</text>
</a>
</g>
</g>
<!-- Node1&#45;&gt;Node42 -->
<g id="edge71_Node000001_Node000042" class="edge">
<title>Node1&#45;&gt;Node42</title>
<g id="a_edge71_Node000001_Node000042"><a xlink:title=" ">
<path fill="none" stroke="#63b8ff" d="M699.83,-334.3C764.67,-326.25 889.73,-310.95 996.12,-295.5 998.4,-295.17 1000.72,-294.82 1003.07,-294.47"/>
<polygon fill="#63b8ff" stroke="#63b8ff" points="1003.37,-297.96 1012.72,-292.98 1002.31,-291.04 1003.37,-297.96"/>
</a>
</g>
</g>
<!-- Node3 -->
<g id="Node000003" class="node">
<title>Node3</title>
<g id="a_Node000003"><a xlink:href="../../df/dc2/vec__math_8hpp.html" target="_top" xlink:title="Contains a collection of mathematical operations and utility functions for vector objects.">
<polygon fill="white" stroke="#666666" points="697.62,-185 624.62,-185 624.62,-165.75 697.62,-165.75 697.62,-185"/>
<text text-anchor="middle" x="661.12" y="-171.5" font-family="Times,serif" font-size="10.00">vec_math.hpp</text>
</a>
</g>
</g>
<!-- Node2&#45;&gt;Node3 -->
<g id="edge2_Node000002_Node000003" class="edge">
<title>Node2&#45;&gt;Node3</title>
<g id="a_edge2_Node000002_Node000003"><a xlink:title=" ">
<path fill="none" stroke="#63b8ff" d="M828.03,-220.59C794.53,-211.72 743.22,-198.12 706.34,-188.35"/>
<polygon fill="#63b8ff" stroke="#63b8ff" points="707.42,-185.02 696.85,-185.84 705.62,-191.78 707.42,-185.02"/>
</a>
</g>
</g>
<!-- Node28 -->
<g id="Node000028" class="node">
<title>Node28</title>
<g id="a_Node000028"><a xlink:href="../../dd/dad/matnxn_8hpp.html" target="_top" xlink:title="Provides the definition of a generic NxN matrix for mathematical operations.">
<polygon fill="white" stroke="#666666" points="810.12,-185 746.12,-185 746.12,-165.75 810.12,-165.75 810.12,-185"/>
<text text-anchor="middle" x="778.12" y="-171.5" font-family="Times,serif" font-size="10.00">matnxn.hpp</text>
</a>
</g>
</g>
<!-- Node2&#45;&gt;Node28 -->
<g id="edge42_Node000002_Node000028" class="edge">
<title>Node2&#45;&gt;Node28</title>
<g id="a_edge42_Node000002_Node000028"><a xlink:title=" ">
<path fill="none" stroke="#63b8ff" d="M842.66,-220.59C828.64,-212.74 810.1,-201.2 796.38,-191.87"/>
<polygon fill="#63b8ff" stroke="#63b8ff" points="798.41,-189.02 788.21,-186.14 794.39,-194.75 798.41,-189.02"/>
</a>
</g>
</g>
<!-- Node30 -->
<g id="Node000030" class="node">
<title>Node30</title>
<g id="a_Node000030"><a xlink:href="../../db/de9/rmatnxn_8hpp.html" target="_top" xlink:title="Specialized representation of matrices using reference semantics.">
<polygon fill="white" stroke="#666666" points="896,-185 828.25,-185 828.25,-165.75 896,-165.75 896,-185"/>
<text text-anchor="middle" x="862.12" y="-171.5" font-family="Times,serif" font-size="10.00">rmatnxn.hpp</text>
</a>
</g>
</g>
<!-- Node2&#45;&gt;Node30 -->
<g id="edge46_Node000002_Node000030" class="edge">
<title>Node2&#45;&gt;Node30</title>
<g id="a_edge46_Node000002_Node000030"><a xlink:title=" ">
<path fill="none" stroke="#63b8ff" d="M856.96,-220.83C855.55,-214.24 855.08,-204.96 855.55,-196.57"/>
<polygon fill="#63b8ff" stroke="#63b8ff" points="859,-197.21 856.74,-186.86 852.05,-196.37 859,-197.21"/>
</a>
</g>
</g>
<!-- Node32 -->
<g id="Node000032" class="node">
<title>Node32</title>
<g id="a_Node000032"><a xlink:href="../../dc/d4a/mat__math_8hpp.html" target="_top" xlink:title="Defines various matrix mathematical operations.">
<polygon fill="white" stroke="#666666" points="988.38,-185 913.88,-185 913.88,-165.75 988.38,-165.75 988.38,-185"/>
<text text-anchor="middle" x="951.12" y="-171.5" font-family="Times,serif" font-size="10.00">mat_math.hpp</text>
</a>
</g>
</g>
<!-- Node2&#45;&gt;Node32 -->
<g id="edge50_Node000002_Node000032" class="edge">
<title>Node2&#45;&gt;Node32</title>
<g id="a_edge50_Node000002_Node000032"><a xlink:title=" ">
<path fill="none" stroke="#63b8ff" d="M872.01,-220.59C883.87,-212.48 903.72,-200.43 920.65,-190.96"/>
<polygon fill="#63b8ff" stroke="#63b8ff" points="922.3,-194.05 929.4,-186.18 918.95,-187.9 922.3,-194.05"/>
</a>
</g>
</g>
<!-- Node4 -->
<g id="Node000004" class="node">
<title>Node4</title>
<g id="a_Node000004"><a xlink:href="../../d7/d7c/vec_8hpp.html" target="_top" xlink:title=" ">
<polygon fill="white" stroke="#666666" points="730.88,-129.75 683.38,-129.75 683.38,-110.5 730.88,-110.5 730.88,-129.75"/>
<text text-anchor="middle" x="707.12" y="-116.25" font-family="Times,serif" font-size="10.00">vec.hpp</text>
</a>
</g>
</g>
<!-- Node3&#45;&gt;Node4 -->
<g id="edge3_Node000003_Node000004" class="edge">
<title>Node3&#45;&gt;Node4</title>
<g id="a_edge3_Node000003_Node000004"><a xlink:title=" ">
<path fill="none" stroke="#63b8ff" d="M668.72,-165.58C675.01,-158.3 684.14,-147.73 691.92,-138.73"/>
<polygon fill="#63b8ff" stroke="#63b8ff" points="694.49,-141.11 698.37,-131.25 689.19,-136.53 694.49,-141.11"/>
</a>
</g>
</g>
<!-- Node27 -->
<g id="Node000027" class="node">
<title>Node27</title>
<g id="a_Node000027"><a xlink:href="../../dc/d15/vec__math_8inl.html" target="_top" xlink:title=" ">
<polygon fill="white" stroke="#666666" points="665,-129.75 597.25,-129.75 597.25,-110.5 665,-110.5 665,-129.75"/>
<text text-anchor="middle" x="631.12" y="-116.25" font-family="Times,serif" font-size="10.00">vec_math.inl</text>
</a>
</g>
</g>
<!-- Node3&#45;&gt;Node27 -->
<g id="edge40_Node000003_Node000027" class="edge">
<title>Node3&#45;&gt;Node27</title>
<g id="a_edge40_Node000003_Node000027"><a xlink:title=" ">
<path fill="none" stroke="#63b8ff" d="M651,-165.58C645.7,-158.76 639.78,-149.06 635.49,-140.45"/>
<polygon fill="#63b8ff" stroke="#63b8ff" points="638.79,-139.26 631.59,-131.5 632.38,-142.06 638.79,-139.26"/>
</a>
</g>
</g>
<!-- Node5 -->
<g id="Node000005" class="node">
<title>Node5</title>
<g id="a_Node000005"><a xlink:href="../../d8/d24/math-common_8hpp.html" target="_top" xlink:title=" ">
<polygon fill="white" stroke="#666666" points="284.62,-74.5 193.62,-74.5 193.62,-55.25 284.62,-55.25 284.62,-74.5"/>
<text text-anchor="middle" x="239.12" y="-61" font-family="Times,serif" font-size="10.00">math&#45;common.hpp</text>
</a>
</g>
</g>
<!-- Node4&#45;&gt;Node5 -->
<g id="edge4_Node000004_Node000005" class="edge">
<title>Node4&#45;&gt;Node5</title>
<g id="a_edge4_Node000004_Node000005"><a xlink:title=" ">
<path fill="none" stroke="#63b8ff" d="M683.07,-112.38C680.07,-111.68 677.04,-111.03 674.12,-110.5 539.81,-86.21 379.59,-74.03 296.11,-68.93"/>
<polygon fill="#63b8ff" stroke="#63b8ff" points="296.55,-65.45 286.36,-68.34 296.13,-72.43 296.55,-65.45"/>
</a>
</g>
</g>
<!-- Node13 -->
<g id="Node000013" class="node">
<title>Node13</title>
<g id="a_Node000013"><a xlink:href="../../d4/d44/rvec2_8hpp.html" target="_top" xlink:title="Definitions for the rvec&lt;2, T&gt; specialized template representing 2D vectors with reference&#45;like seman...">
<polygon fill="white" stroke="#666666" points="512.38,-74.5 455.88,-74.5 455.88,-55.25 512.38,-55.25 512.38,-74.5"/>
<text text-anchor="middle" x="484.12" y="-61" font-family="Times,serif" font-size="10.00">rvec2.hpp</text>
</a>
</g>
</g>
<!-- Node4&#45;&gt;Node13 -->
<g id="edge12_Node000004_Node000013" class="edge">
<title>Node4&#45;&gt;Node13</title>
<g id="a_edge12_Node000004_Node000013"><a xlink:title=" ">
<path fill="none" stroke="#63b8ff" d="M683.24,-115.01C677.17,-113.55 670.87,-111.93 665.12,-110.5 616.25,-98.37 560.08,-85.29 523.33,-76.44"/>
<polygon fill="#63b8ff" stroke="#63b8ff" points="524.59,-73.15 514.04,-74.19 522.94,-79.95 524.59,-73.15"/>
</a>
</g>
</g>
<!-- Node15 -->
<g id="Node000015" class="node">
<title>Node15</title>
<g id="a_Node000015"><a xlink:href="../../d9/dc3/rvec3_8hpp.html" target="_top" xlink:title="Provides the implementation of a 3D reference vector.">
<polygon fill="white" stroke="#666666" points="587.38,-74.5 530.88,-74.5 530.88,-55.25 587.38,-55.25 587.38,-74.5"/>
<text text-anchor="middle" x="559.12" y="-61" font-family="Times,serif" font-size="10.00">rvec3.hpp</text>
</a>
</g>
</g>
<!-- Node4&#45;&gt;Node15 -->
<g id="edge16_Node000004_Node000015" class="edge">
<title>Node4&#45;&gt;Node15</title>
<g id="a_edge16_Node000004_Node000015"><a xlink:title=" ">
<path fill="none" stroke="#63b8ff" d="M683.05,-112.16C657.56,-103.79 617.59,-89.55 589.88,-79.07"/>
<polygon fill="#63b8ff" stroke="#63b8ff" points="591.2,-75.83 580.61,-75.52 588.69,-82.36 591.2,-75.83"/>
</a>
</g>
</g>
<!-- Node17 -->
<g id="Node000017" class="node">
<title>Node17</title>
<g id="a_Node000017"><a xlink:href="../../d2/d88/rvec4_8hpp.html" target="_top" xlink:title="Defines a 4&#45;dimensional reference vector struct.">
<polygon fill="white" stroke="#666666" points="662.38,-74.5 605.88,-74.5 605.88,-55.25 662.38,-55.25 662.38,-74.5"/>
<text text-anchor="middle" x="634.12" y="-61" font-family="Times,serif" font-size="10.00">rvec4.hpp</text>
</a>
</g>
</g>
<!-- Node4&#45;&gt;Node17 -->
<g id="edge20_Node000004_Node000017" class="edge">
<title>Node4&#45;&gt;Node17</title>
<g id="a_edge20_Node000004_Node000017"><a xlink:title=" ">
<path fill="none" stroke="#63b8ff" d="M689.52,-110.09C677.37,-102.4 661.61,-91.15 649.88,-81.93"/>
<polygon fill="#63b8ff" stroke="#63b8ff" points="652.26,-79.36 642.31,-75.73 647.83,-84.77 652.26,-79.36"/>
</a>
</g>
</g>
<!-- Node19 -->
<g id="Node000019" class="node">
<title>Node19</title>
<g id="a_Node000019"><a xlink:href="../../dd/d91/vec2_8hpp.html" target="_top" xlink:title="Defines a 2D vector and provides its operations.">
<polygon fill="white" stroke="#666666" points="733.5,-74.5 680.75,-74.5 680.75,-55.25 733.5,-55.25 733.5,-74.5"/>
<text text-anchor="middle" x="707.12" y="-61" font-family="Times,serif" font-size="10.00">vec2.hpp</text>
</a>
</g>
</g>
<!-- Node4&#45;&gt;Node19 -->
<g id="edge24_Node000004_Node000019" class="edge">
<title>Node4&#45;&gt;Node19</title>
<g id="a_edge24_Node000004_Node000019"><a xlink:title=" ">
<path fill="none" stroke="#63b8ff" d="M701.96,-110.33C700.55,-103.74 700.08,-94.46 700.55,-86.07"/>
<polygon fill="#63b8ff" stroke="#63b8ff" points="704,-86.71 701.74,-76.36 697.05,-85.87 704,-86.71"/>
</a>
</g>
</g>
<!-- Node21 -->
<g id="Node000021" class="node">
<title>Node21</title>
<g id="a_Node000021"><a xlink:href="../../d9/dcd/vec3_8hpp.html" target="_top" xlink:title="Header file for the 3D vector definition.">
<polygon fill="white" stroke="#666666" points="804.5,-74.5 751.75,-74.5 751.75,-55.25 804.5,-55.25 804.5,-74.5"/>
<text text-anchor="middle" x="778.12" y="-61" font-family="Times,serif" font-size="10.00">vec3.hpp</text>
</a>
</g>
</g>
<!-- Node4&#45;&gt;Node21 -->
<g id="edge28_Node000004_Node000021" class="edge">
<title>Node4&#45;&gt;Node21</title>
<g id="a_edge28_Node000004_Node000021"><a xlink:title=" ">
<path fill="none" stroke="#63b8ff" d="M713.95,-110.09C722.82,-102.21 737.96,-90.61 751.41,-81.27"/>
<polygon fill="#63b8ff" stroke="#63b8ff" points="753.2,-84.29 759.54,-75.8 749.29,-78.48 753.2,-84.29"/>
</a>
</g>
</g>
<!-- Node23 -->
<g id="Node000023" class="node">
<title>Node23</title>
<g id="a_Node000023"><a xlink:href="../../dd/dc5/vec4_8hpp.html" target="_top" xlink:title="Contains the definition of the vec&lt;4, T&gt; structure.">
<polygon fill="white" stroke="#666666" points="875.5,-74.5 822.75,-74.5 822.75,-55.25 875.5,-55.25 875.5,-74.5"/>
<text text-anchor="middle" x="849.12" y="-61" font-family="Times,serif" font-size="10.00">vec4.hpp</text>
</a>
</g>
</g>
<!-- Node4&#45;&gt;Node23 -->
<g id="edge32_Node000004_Node000023" class="edge">
<title>Node4&#45;&gt;Node23</title>
<g id="a_edge32_Node000004_Node000023"><a xlink:title=" ">
<path fill="none" stroke="#63b8ff" d="M726,-110.09C747.92,-101.17 784.25,-87.49 811.86,-77.7"/>
<polygon fill="#63b8ff" stroke="#63b8ff" points="813,-81.01 821.29,-74.41 810.69,-74.4 813,-81.01"/>
</a>
</g>
</g>
<!-- Node25 -->
<g id="Node000025" class="node">
<title>Node25</title>
<g id="a_Node000025"><a xlink:href="../../d4/d02/vecn_8hpp.html" target="_top" xlink:title="Contains the definition of the generic vec&lt;L, T&gt; structure.">
<polygon fill="white" stroke="#666666" points="946.5,-74.5 893.75,-74.5 893.75,-55.25 946.5,-55.25 946.5,-74.5"/>
<text text-anchor="middle" x="920.12" y="-61" font-family="Times,serif" font-size="10.00">vecn.hpp</text>
</a>
</g>
</g>
<!-- Node4&#45;&gt;Node25 -->
<g id="edge36_Node000004_Node000025" class="edge">
<title>Node4&#45;&gt;Node25</title>
<g id="a_edge36_Node000004_Node000025"><a xlink:title=" ">
<path fill="none" stroke="#63b8ff" d="M731.59,-110.38C783.57,-97.15 844.01,-82.27 882.32,-73.51"/>
<polygon fill="#63b8ff" stroke="#63b8ff" points="883.01,-76.94 891.99,-71.32 881.47,-70.11 883.01,-76.94"/>
</a>
</g>
</g>
<!-- Node6 -->
<g id="Node000006" class="node">
<title>Node6</title>
<g id="a_Node000006"><a xlink:title=" ">
<polygon fill="#e0e0e0" stroke="#999999" points="36.25,-19.25 0,-19.25 0,0 36.25,0 36.25,-19.25"/>
<text text-anchor="middle" x="18.12" y="-5.75" font-family="Times,serif" font-size="10.00">array</text>
</a>
</g>
</g>
<!-- Node5&#45;&gt;Node6 -->
<g id="edge5_Node000005_Node000006" class="edge">
<title>Node5&#45;&gt;Node6</title>
<g id="a_edge5_Node000005_Node000006"><a xlink:title=" ">
<path fill="none" stroke="#63b8ff" d="M195.98,-54.83C159.1,-46.88 104.39,-34.62 47.72,-19.52"/>
<polygon fill="#63b8ff" stroke="#63b8ff" points="48.77,-16.18 38.21,-16.96 46.96,-22.94 48.77,-16.18"/>
</a>
</g>
</g>
<!-- Node7 -->
<g id="Node000007" class="node">
<title>Node7</title>
<g id="a_Node000007"><a xlink:title=" ">
<polygon fill="#e0e0e0" stroke="#999999" points="101.5,-19.25 54.75,-19.25 54.75,0 101.5,0 101.5,-19.25"/>
<text text-anchor="middle" x="78.12" y="-5.75" font-family="Times,serif" font-size="10.00">assert.h</text>
</a>
</g>
</g>
<!-- Node5&#45;&gt;Node7 -->
<g id="edge6_Node000005_Node000007" class="edge">
<title>Node5&#45;&gt;Node7</title>
<g id="a_edge6_Node000005_Node000007"><a xlink:title=" ">
<path fill="none" stroke="#63b8ff" d="M211.81,-54.84C184.45,-45.79 142.24,-31.83 112.58,-22.02"/>
<polygon fill="#63b8ff" stroke="#63b8ff" points="113.92,-18.78 103.33,-18.96 111.72,-25.42 113.92,-18.78"/>
</a>
</g>
</g>
<!-- Node8 -->
<g id="Node000008" class="node">
<title>Node8</title>
<g id="a_Node000008"><a xlink:title=" ">
<polygon fill="#e0e0e0" stroke="#999999" points="160.5,-19.25 119.75,-19.25 119.75,0 160.5,0 160.5,-19.25"/>
<text text-anchor="middle" x="140.12" y="-5.75" font-family="Times,serif" font-size="10.00">cmath</text>
</a>
</g>
</g>
<!-- Node5&#45;&gt;Node8 -->
<g id="edge7_Node000005_Node000008" class="edge">
<title>Node5&#45;&gt;Node8</title>
<g id="a_edge7_Node000005_Node000008"><a xlink:title=" ">
<path fill="none" stroke="#63b8ff" d="M222.33,-54.84C207.11,-46.66 184.43,-34.46 166.74,-24.94"/>
<polygon fill="#63b8ff" stroke="#63b8ff" points="168.8,-22.07 158.33,-20.42 165.48,-28.24 168.8,-22.07"/>
</a>
</g>
</g>
<!-- Node9 -->
<g id="Node000009" class="node">
<title>Node9</title>
<g id="a_Node000009"><a xlink:title=" ">
<polygon fill="#e0e0e0" stroke="#999999" points="229.38,-19.25 178.88,-19.25 178.88,0 229.38,0 229.38,-19.25"/>
<text text-anchor="middle" x="204.12" y="-5.75" font-family="Times,serif" font-size="10.00">concepts</text>
</a>
</g>
</g>
<!-- Node5&#45;&gt;Node9 -->
<g id="edge8_Node000005_Node000009" class="edge">
<title>Node5&#45;&gt;Node9</title>
<g id="a_edge8_Node000005_Node000009"><a xlink:title=" ">
<path fill="none" stroke="#63b8ff" d="M233.35,-55.08C228.71,-48.03 222.05,-37.9 216.26,-29.08"/>
<polygon fill="#63b8ff" stroke="#63b8ff" points="219.28,-27.31 210.86,-20.87 213.43,-31.15 219.28,-27.31"/>
</a>
</g>
</g>
<!-- Node10 -->
<g id="Node000010" class="node">
<title>Node10</title>
<g id="a_Node000010"><a xlink:title=" ">
<polygon fill="#e0e0e0" stroke="#999999" points="298.38,-19.25 247.88,-19.25 247.88,0 298.38,0 298.38,-19.25"/>
<text text-anchor="middle" x="273.12" y="-5.75" font-family="Times,serif" font-size="10.00">numbers</text>
</a>
</g>
</g>
<!-- Node5&#45;&gt;Node10 -->
<g id="edge9_Node000005_Node000010" class="edge">
<title>Node5&#45;&gt;Node10</title>
<g id="a_edge9_Node000005_Node000010"><a xlink:title=" ">
<path fill="none" stroke="#63b8ff" d="M244.74,-55.08C249.24,-48.03 255.71,-37.9 261.34,-29.08"/>
<polygon fill="#63b8ff" stroke="#63b8ff" points="264.14,-31.2 266.57,-20.88 258.24,-27.43 264.14,-31.2"/>
</a>
</g>
</g>
<!-- Node11 -->
<g id="Node000011" class="node">
<title>Node11</title>
<g id="a_Node000011"><a xlink:title=" ">
<polygon fill="#e0e0e0" stroke="#999999" points="363.88,-19.25 316.38,-19.25 316.38,0 363.88,0 363.88,-19.25"/>
<text text-anchor="middle" x="340.12" y="-5.75" font-family="Times,serif" font-size="10.00">ostream</text>
</a>
</g>
</g>
<!-- Node5&#45;&gt;Node11 -->
<g id="edge10_Node000005_Node000011" class="edge">
<title>Node5&#45;&gt;Node11</title>
<g id="a_edge10_Node000005_Node000011"><a xlink:title=" ">
<path fill="none" stroke="#63b8ff" d="M256.26,-54.84C271.78,-46.66 294.93,-34.46 312.97,-24.94"/>
<polygon fill="#63b8ff" stroke="#63b8ff" points="314.36,-28.17 321.57,-20.41 311.09,-21.98 314.36,-28.17"/>
</a>
</g>
</g>
<!-- Node12 -->
<g id="Node000012" class="node">
<title>Node12</title>
<g id="a_Node000012"><a xlink:title=" ">
<polygon fill="#e0e0e0" stroke="#999999" points="440.5,-19.25 381.75,-19.25 381.75,0 440.5,0 440.5,-19.25"/>
<text text-anchor="middle" x="411.12" y="-5.75" font-family="Times,serif" font-size="10.00">type_traits</text>
</a>
</g>
</g>
<!-- Node5&#45;&gt;Node12 -->
<g id="edge11_Node000005_Node000012" class="edge">
<title>Node5&#45;&gt;Node12</title>
<g id="a_edge11_Node000005_Node000012"><a xlink:title=" ">
<path fill="none" stroke="#63b8ff" d="M268.3,-54.84C296.6,-46.08 339.74,-32.73 371.21,-22.98"/>
<polygon fill="#63b8ff" stroke="#63b8ff" points="371.84,-26.45 380.36,-20.15 369.77,-19.76 371.84,-26.45"/>
</a>
</g>
</g>
<!-- Node13&#45;&gt;Node4 -->
<g id="edge13_Node000013_Node000004" class="edge">
<title>Node13&#45;&gt;Node4</title>
<g id="a_edge13_Node000013_Node000004"><a xlink:title=" ">
<path fill="none" stroke="#63b8ff" d="M512.6,-71.03C549.14,-78.64 614.02,-93.52 671.6,-107.66"/>
<polygon fill="#63b8ff" stroke="#63b8ff" points="670.61,-111.02 681.16,-110.02 672.29,-104.22 670.61,-111.02"/>
</a>
</g>
</g>
<!-- Node14 -->
<g id="Node000014" class="node">
<title>Node14</title>
<g id="a_Node000014"><a xlink:href="../../dd/d72/rvec2_8inl.html" target="_top" xlink:title=" ">
<polygon fill="white" stroke="#666666" points="509.75,-19.25 458.5,-19.25 458.5,0 509.75,0 509.75,-19.25"/>
<text text-anchor="middle" x="484.12" y="-5.75" font-family="Times,serif" font-size="10.00">rvec2.inl</text>
</a>
</g>
</g>
<!-- Node13&#45;&gt;Node14 -->
<g id="edge14_Node000013_Node000014" class="edge">
<title>Node13&#45;&gt;Node14</title>
<g id="a_edge14_Node000013_Node000014"><a xlink:title=" ">
<path fill="none" stroke="#63b8ff" d="M478.96,-55.08C477.55,-48.49 477.08,-39.21 477.55,-30.82"/>
<polygon fill="#63b8ff" stroke="#63b8ff" points="481,-31.46 478.74,-21.11 474.05,-30.62 481,-31.46"/>
</a>
</g>
</g>
<!-- Node14&#45;&gt;Node13 -->
<g id="edge15_Node000014_Node000013" class="edge">
<title>Node14&#45;&gt;Node13</title>
<g id="a_edge15_Node000014_Node000013"><a xlink:title=" ">
<path fill="none" stroke="#63b8ff" d="M489.33,-19.61C490.72,-26.25 491.17,-35.55 490.68,-43.92"/>
<polygon fill="#63b8ff" stroke="#63b8ff" points="487.24,-43.22 489.48,-53.58 494.19,-44.09 487.24,-43.22"/>
</a>
</g>
</g>
<!-- Node15&#45;&gt;Node4 -->
<g id="edge17_Node000015_Node000004" class="edge">
<title>Node15&#45;&gt;Node4</title>
<g id="a_edge17_Node000015_Node000004"><a xlink:title=" ">
<path fill="none" stroke="#63b8ff" d="M587.74,-74.34C613.38,-82.88 650.64,-96.19 676.78,-106.08"/>
<polygon fill="#63b8ff" stroke="#63b8ff" points="675.23,-109.24 685.82,-109.55 677.74,-102.7 675.23,-109.24"/>
</a>
</g>
</g>
<!-- Node16 -->
<g id="Node000016" class="node">
<title>Node16</title>
<g id="a_Node000016"><a xlink:href="../../d7/d70/rvec3_8inl.html" target="_top" xlink:title=" ">
<polygon fill="white" stroke="#666666" points="584.75,-19.25 533.5,-19.25 533.5,0 584.75,0 584.75,-19.25"/>
<text text-anchor="middle" x="559.12" y="-5.75" font-family="Times,serif" font-size="10.00">rvec3.inl</text>
</a>
</g>
</g>
<!-- Node15&#45;&gt;Node16 -->
<g id="edge18_Node000015_Node000016" class="edge">
<title>Node15&#45;&gt;Node16</title>
<g id="a_edge18_Node000015_Node000016"><a xlink:title=" ">
<path fill="none" stroke="#63b8ff" d="M553.96,-55.08C552.55,-48.49 552.08,-39.21 552.55,-30.82"/>
<polygon fill="#63b8ff" stroke="#63b8ff" points="556,-31.46 553.74,-21.11 549.05,-30.62 556,-31.46"/>
</a>
</g>
</g>
<!-- Node16&#45;&gt;Node15 -->
<g id="edge19_Node000016_Node000015" class="edge">
<title>Node16&#45;&gt;Node15</title>
<g id="a_edge19_Node000016_Node000015"><a xlink:title=" ">
<path fill="none" stroke="#63b8ff" d="M564.33,-19.61C565.72,-26.25 566.17,-35.55 565.68,-43.92"/>
<polygon fill="#63b8ff" stroke="#63b8ff" points="562.24,-43.22 564.48,-53.58 569.19,-44.09 562.24,-43.22"/>
</a>
</g>
</g>
<!-- Node17&#45;&gt;Node4 -->
<g id="edge21_Node000017_Node000004" class="edge">
<title>Node17&#45;&gt;Node4</title>
<g id="a_edge21_Node000017_Node000004"><a xlink:title=" ">
<path fill="none" stroke="#63b8ff" d="M651.8,-74.95C663.89,-82.62 679.54,-93.78 691.23,-102.96"/>
<polygon fill="#63b8ff" stroke="#63b8ff" points="688.83,-105.52 698.79,-109.13 693.26,-100.1 688.83,-105.52"/>
</a>
</g>
</g>
<!-- Node18 -->
<g id="Node000018" class="node">
<title>Node18</title>
<g id="a_Node000018"><a xlink:href="../../d1/d9f/rvec4_8inl.html" target="_top" xlink:title=" ">
<polygon fill="white" stroke="#666666" points="659.75,-19.25 608.5,-19.25 608.5,0 659.75,0 659.75,-19.25"/>
<text text-anchor="middle" x="634.12" y="-5.75" font-family="Times,serif" font-size="10.00">rvec4.inl</text>
</a>
</g>
</g>
<!-- Node17&#45;&gt;Node18 -->
<g id="edge22_Node000017_Node000018" class="edge">
<title>Node17&#45;&gt;Node18</title>
<g id="a_edge22_Node000017_Node000018"><a xlink:title=" ">
<path fill="none" stroke="#63b8ff" d="M628.96,-55.08C627.55,-48.49 627.08,-39.21 627.55,-30.82"/>
<polygon fill="#63b8ff" stroke="#63b8ff" points="631,-31.46 628.74,-21.11 624.05,-30.62 631,-31.46"/>
</a>
</g>
</g>
<!-- Node18&#45;&gt;Node17 -->
<g id="edge23_Node000018_Node000017" class="edge">
<title>Node18&#45;&gt;Node17</title>
<g id="a_edge23_Node000018_Node000017"><a xlink:title=" ">
<path fill="none" stroke="#63b8ff" d="M639.33,-19.61C640.72,-26.25 641.17,-35.55 640.68,-43.92"/>
<polygon fill="#63b8ff" stroke="#63b8ff" points="637.24,-43.22 639.48,-53.58 644.19,-44.09 637.24,-43.22"/>
</a>
</g>
</g>
<!-- Node19&#45;&gt;Node4 -->
<g id="edge25_Node000019_Node000004" class="edge">
<title>Node19&#45;&gt;Node4</title>
<g id="a_edge25_Node000019_Node000004"><a xlink:title=" ">
<path fill="none" stroke="#63b8ff" d="M712.33,-74.86C713.72,-81.5 714.17,-90.8 713.68,-99.17"/>
<polygon fill="#63b8ff" stroke="#63b8ff" points="710.24,-98.47 712.48,-108.83 717.19,-99.34 710.24,-98.47"/>
</a>
</g>
</g>
<!-- Node20 -->
<g id="Node000020" class="node">
<title>Node20</title>
<g id="a_Node000020"><a xlink:href="../../d2/d56/vec2_8inl.html" target="_top" xlink:title=" ">
<polygon fill="white" stroke="#666666" points="730.88,-19.25 683.38,-19.25 683.38,0 730.88,0 730.88,-19.25"/>
<text text-anchor="middle" x="707.12" y="-5.75" font-family="Times,serif" font-size="10.00">vec2.inl</text>
</a>
</g>
</g>
<!-- Node19&#45;&gt;Node20 -->
<g id="edge26_Node000019_Node000020" class="edge">
<title>Node19&#45;&gt;Node20</title>
<g id="a_edge26_Node000019_Node000020"><a xlink:title=" ">
<path fill="none" stroke="#63b8ff" d="M701.96,-55.08C700.55,-48.49 700.08,-39.21 700.55,-30.82"/>
<polygon fill="#63b8ff" stroke="#63b8ff" points="704,-31.46 701.74,-21.11 697.05,-30.62 704,-31.46"/>
</a>
</g>
</g>
<!-- Node20&#45;&gt;Node19 -->
<g id="edge27_Node000020_Node000019" class="edge">
<title>Node20&#45;&gt;Node19</title>
<g id="a_edge27_Node000020_Node000019"><a xlink:title=" ">
<path fill="none" stroke="#63b8ff" d="M712.33,-19.61C713.72,-26.25 714.17,-35.55 713.68,-43.92"/>
<polygon fill="#63b8ff" stroke="#63b8ff" points="710.24,-43.22 712.48,-53.58 717.19,-44.09 710.24,-43.22"/>
</a>
</g>
</g>
<!-- Node21&#45;&gt;Node4 -->
<g id="edge29_Node000021_Node000004" class="edge">
<title>Node21&#45;&gt;Node4</title>
<g id="a_edge29_Node000021_Node000004"><a xlink:title=" ">
<path fill="none" stroke="#63b8ff" d="M771.45,-74.77C762.6,-82.66 747.35,-94.34 733.82,-103.74"/>
<polygon fill="#63b8ff" stroke="#63b8ff" points="731.98,-100.76 725.64,-109.25 735.89,-106.57 731.98,-100.76"/>
</a>
</g>
</g>
<!-- Node22 -->
<g id="Node000022" class="node">
<title>Node22</title>
<g id="a_Node000022"><a xlink:href="../../d3/dc9/vec3_8inl.html" target="_top" xlink:title=" ">
<polygon fill="white" stroke="#666666" points="801.88,-19.25 754.38,-19.25 754.38,0 801.88,0 801.88,-19.25"/>
<text text-anchor="middle" x="778.12" y="-5.75" font-family="Times,serif" font-size="10.00">vec3.inl</text>
</a>
</g>
</g>
<!-- Node21&#45;&gt;Node22 -->
<g id="edge30_Node000021_Node000022" class="edge">
<title>Node21&#45;&gt;Node22</title>
<g id="a_edge30_Node000021_Node000022"><a xlink:title=" ">
<path fill="none" stroke="#63b8ff" d="M772.96,-55.08C771.55,-48.49 771.08,-39.21 771.55,-30.82"/>
<polygon fill="#63b8ff" stroke="#63b8ff" points="775,-31.46 772.74,-21.11 768.05,-30.62 775,-31.46"/>
</a>
</g>
</g>
<!-- Node22&#45;&gt;Node21 -->
<g id="edge31_Node000022_Node000021" class="edge">
<title>Node22&#45;&gt;Node21</title>
<g id="a_edge31_Node000022_Node000021"><a xlink:title=" ">
<path fill="none" stroke="#63b8ff" d="M783.33,-19.61C784.72,-26.25 785.17,-35.55 784.68,-43.92"/>
<polygon fill="#63b8ff" stroke="#63b8ff" points="781.24,-43.22 783.48,-53.58 788.19,-44.09 781.24,-43.22"/>
</a>
</g>
</g>
<!-- Node23&#45;&gt;Node4 -->
<g id="edge33_Node000023_Node000004" class="edge">
<title>Node23&#45;&gt;Node4</title>
<g id="a_edge33_Node000023_Node000004"><a xlink:title=" ">
<path fill="none" stroke="#63b8ff" d="M830.28,-74.9C807.61,-84.12 769.51,-98.45 741.58,-108.29"/>
<polygon fill="#63b8ff" stroke="#63b8ff" points="740.79,-104.86 732.49,-111.45 743.09,-111.47 740.79,-104.86"/>
</a>
</g>
</g>
<!-- Node24 -->
<g id="Node000024" class="node">
<title>Node24</title>
<g id="a_Node000024"><a xlink:href="../../da/d28/vec4_8inl.html" target="_top" xlink:title=" ">
<polygon fill="white" stroke="#666666" points="872.88,-19.25 825.38,-19.25 825.38,0 872.88,0 872.88,-19.25"/>
<text text-anchor="middle" x="849.12" y="-5.75" font-family="Times,serif" font-size="10.00">vec4.inl</text>
</a>
</g>
</g>
<!-- Node23&#45;&gt;Node24 -->
<g id="edge34_Node000023_Node000024" class="edge">
<title>Node23&#45;&gt;Node24</title>
<g id="a_edge34_Node000023_Node000024"><a xlink:title=" ">
<path fill="none" stroke="#63b8ff" d="M843.96,-55.08C842.55,-48.49 842.08,-39.21 842.55,-30.82"/>
<polygon fill="#63b8ff" stroke="#63b8ff" points="846,-31.46 843.74,-21.11 839.05,-30.62 846,-31.46"/>
</a>
</g>
</g>
<!-- Node24&#45;&gt;Node23 -->
<g id="edge35_Node000024_Node000023" class="edge">
<title>Node24&#45;&gt;Node23</title>
<g id="a_edge35_Node000024_Node000023"><a xlink:title=" ">
<path fill="none" stroke="#63b8ff" d="M854.33,-19.61C855.72,-26.25 856.17,-35.55 855.68,-43.92"/>
<polygon fill="#63b8ff" stroke="#63b8ff" points="852.24,-43.22 854.48,-53.58 859.19,-44.09 852.24,-43.22"/>
</a>
</g>
</g>
<!-- Node25&#45;&gt;Node4 -->
<g id="edge37_Node000025_Node000004" class="edge">
<title>Node25&#45;&gt;Node4</title>
<g id="a_edge37_Node000025_Node000004"><a xlink:title=" ">
<path fill="none" stroke="#63b8ff" d="M893.55,-73.97C859.77,-82.82 800.29,-97.47 749.12,-110.5 746.88,-111.07 744.56,-111.67 742.19,-112.27"/>
<polygon fill="#63b8ff" stroke="#63b8ff" points="741.35,-108.87 732.49,-114.68 743.04,-115.67 741.35,-108.87"/>
</a>
</g>
</g>
<!-- Node26 -->
<g id="Node000026" class="node">
<title>Node26</title>
<g id="a_Node000026"><a xlink:href="../../d6/d8c/vecn_8inl.html" target="_top" xlink:title=" ">
<polygon fill="white" stroke="#666666" points="943.88,-19.25 896.38,-19.25 896.38,0 943.88,0 943.88,-19.25"/>
<text text-anchor="middle" x="920.12" y="-5.75" font-family="Times,serif" font-size="10.00">vecn.inl</text>
</a>
</g>
</g>
<!-- Node25&#45;&gt;Node26 -->
<g id="edge38_Node000025_Node000026" class="edge">
<title>Node25&#45;&gt;Node26</title>
<g id="a_edge38_Node000025_Node000026"><a xlink:title=" ">
<path fill="none" stroke="#63b8ff" d="M914.96,-55.08C913.55,-48.49 913.08,-39.21 913.55,-30.82"/>
<polygon fill="#63b8ff" stroke="#63b8ff" points="917,-31.46 914.74,-21.11 910.05,-30.62 917,-31.46"/>
</a>
</g>
</g>
<!-- Node26&#45;&gt;Node25 -->
<g id="edge39_Node000026_Node000025" class="edge">
<title>Node26&#45;&gt;Node25</title>
<g id="a_edge39_Node000026_Node000025"><a xlink:title=" ">
<path fill="none" stroke="#63b8ff" d="M925.33,-19.61C926.72,-26.25 927.17,-35.55 926.68,-43.92"/>
<polygon fill="#63b8ff" stroke="#63b8ff" points="923.24,-43.22 925.48,-53.58 930.19,-44.09 923.24,-43.22"/>
</a>
</g>
</g>
<!-- Node27&#45;&gt;Node3 -->
<g id="edge41_Node000027_Node000003" class="edge">
<title>Node27&#45;&gt;Node3</title>
<g id="a_edge41_Node000027_Node000003"><a xlink:title=" ">
<path fill="none" stroke="#63b8ff" d="M641.39,-130.11C646.71,-136.98 652.62,-146.71 656.88,-155.29"/>
<polygon fill="#63b8ff" stroke="#63b8ff" points="653.55,-156.41 660.74,-164.19 659.97,-153.63 653.55,-156.41"/>
</a>
</g>
</g>
<!-- Node28&#45;&gt;Node2 -->
<g id="edge43_Node000028_Node000002" class="edge">
<title>Node28&#45;&gt;Node2</title>
<g id="a_edge43_Node000028_Node000002"><a xlink:title=" ">
<path fill="none" stroke="#63b8ff" d="M797.67,-185.45C811.62,-193.27 830.02,-204.72 843.7,-214.01"/>
<polygon fill="#63b8ff" stroke="#63b8ff" points="841.66,-216.85 851.85,-219.72 845.67,-211.12 841.66,-216.85"/>
</a>
</g>
</g>
<!-- Node29 -->
<g id="Node000029" class="node">
<title>Node29</title>
<g id="a_Node000029"><a xlink:href="../../d3/df6/matnxn_8inl.html" target="_top" xlink:title=" ">
<polygon fill="white" stroke="#666666" points="807.5,-129.75 748.75,-129.75 748.75,-110.5 807.5,-110.5 807.5,-129.75"/>
<text text-anchor="middle" x="778.12" y="-116.25" font-family="Times,serif" font-size="10.00">matnxn.inl</text>
</a>
</g>
</g>
<!-- Node28&#45;&gt;Node29 -->
<g id="edge44_Node000028_Node000029" class="edge">
<title>Node28&#45;&gt;Node29</title>
<g id="a_edge44_Node000028_Node000029"><a xlink:title=" ">
<path fill="none" stroke="#63b8ff" d="M772.96,-165.58C771.55,-158.99 771.08,-149.71 771.55,-141.32"/>
<polygon fill="#63b8ff" stroke="#63b8ff" points="775,-141.96 772.74,-131.61 768.05,-141.12 775,-141.96"/>
</a>
</g>
</g>
<!-- Node29&#45;&gt;Node28 -->
<g id="edge45_Node000029_Node000028" class="edge">
<title>Node29&#45;&gt;Node28</title>
<g id="a_edge45_Node000029_Node000028"><a xlink:title=" ">
<path fill="none" stroke="#63b8ff" d="M783.33,-130.11C784.72,-136.75 785.17,-146.05 784.68,-154.42"/>
<polygon fill="#63b8ff" stroke="#63b8ff" points="781.24,-153.72 783.48,-164.08 788.19,-154.59 781.24,-153.72"/>
</a>
</g>
</g>
<!-- Node30&#45;&gt;Node2 -->
<g id="edge47_Node000030_Node000002" class="edge">
<title>Node30&#45;&gt;Node2</title>
<g id="a_edge47_Node000030_Node000002"><a xlink:title=" ">
<path fill="none" stroke="#63b8ff" d="M867.33,-185.36C868.72,-192 869.17,-201.3 868.68,-209.67"/>
<polygon fill="#63b8ff" stroke="#63b8ff" points="865.24,-208.97 867.48,-219.33 872.19,-209.84 865.24,-208.97"/>
</a>
</g>
</g>
<!-- Node31 -->
<g id="Node000031" class="node">
<title>Node31</title>
<g id="a_Node000031"><a xlink:href="../../df/da5/rmatnxn_8inl.html" target="_top" xlink:title=" ">
<polygon fill="white" stroke="#666666" points="893.38,-129.75 830.88,-129.75 830.88,-110.5 893.38,-110.5 893.38,-129.75"/>
<text text-anchor="middle" x="862.12" y="-116.25" font-family="Times,serif" font-size="10.00">rmatnxn.inl</text>
</a>
</g>
</g>
<!-- Node30&#45;&gt;Node31 -->
<g id="edge48_Node000030_Node000031" class="edge">
<title>Node30&#45;&gt;Node31</title>
<g id="a_edge48_Node000030_Node000031"><a xlink:title=" ">
<path fill="none" stroke="#63b8ff" d="M856.96,-165.58C855.55,-158.99 855.08,-149.71 855.55,-141.32"/>
<polygon fill="#63b8ff" stroke="#63b8ff" points="859,-141.96 856.74,-131.61 852.05,-141.12 859,-141.96"/>
</a>
</g>
</g>
<!-- Node31&#45;&gt;Node30 -->
<g id="edge49_Node000031_Node000030" class="edge">
<title>Node31&#45;&gt;Node30</title>
<g id="a_edge49_Node000031_Node000030"><a xlink:title=" ">
<path fill="none" stroke="#63b8ff" d="M867.33,-130.11C868.72,-136.75 869.17,-146.05 868.68,-154.42"/>
<polygon fill="#63b8ff" stroke="#63b8ff" points="865.24,-153.72 867.48,-164.08 872.19,-154.59 865.24,-153.72"/>
</a>
</g>
</g>
<!-- Node32&#45;&gt;Node2 -->
<g id="edge51_Node000032_Node000002" class="edge">
<title>Node32&#45;&gt;Node2</title>
<g id="a_edge51_Node000032_Node000002"><a xlink:title=" ">
<path fill="none" stroke="#63b8ff" d="M941.18,-185.45C929.29,-193.58 909.43,-205.63 892.5,-215.09"/>
<polygon fill="#63b8ff" stroke="#63b8ff" points="890.86,-212 883.77,-219.87 894.22,-218.14 890.86,-212"/>
</a>
</g>
</g>
<!-- Node33 -->
<g id="Node000033" class="node">
<title>Node33</title>
<g id="a_Node000033"><a xlink:href="../../d7/dab/mat__math_8inl.html" target="_top" xlink:title=" ">
<polygon fill="white" stroke="#666666" points="985.75,-129.75 916.5,-129.75 916.5,-110.5 985.75,-110.5 985.75,-129.75"/>
<text text-anchor="middle" x="951.12" y="-116.25" font-family="Times,serif" font-size="10.00">mat_math.inl</text>
</a>
</g>
</g>
<!-- Node32&#45;&gt;Node33 -->
<g id="edge52_Node000032_Node000033" class="edge">
<title>Node32&#45;&gt;Node33</title>
<g id="a_edge52_Node000032_Node000033"><a xlink:title=" ">
<path fill="none" stroke="#63b8ff" d="M945.96,-165.58C944.55,-158.99 944.08,-149.71 944.55,-141.32"/>
<polygon fill="#63b8ff" stroke="#63b8ff" points="948,-141.96 945.74,-131.61 941.05,-141.12 948,-141.96"/>
</a>
</g>
</g>
<!-- Node33&#45;&gt;Node32 -->
<g id="edge53_Node000033_Node000032" class="edge">
<title>Node33&#45;&gt;Node32</title>
<g id="a_edge53_Node000033_Node000032"><a xlink:title=" ">
<path fill="none" stroke="#63b8ff" d="M956.33,-130.11C957.72,-136.75 958.17,-146.05 957.68,-154.42"/>
<polygon fill="#63b8ff" stroke="#63b8ff" points="954.24,-153.72 956.48,-164.08 961.19,-154.59 954.24,-153.72"/>
</a>
</g>
</g>
<!-- Node34&#45;&gt;Node1 -->
<g id="edge55_Node000034_Node000001" class="edge">
<title>Node34&#45;&gt;Node1</title>
<g id="a_edge55_Node000034_Node000001"><a xlink:title=" ">
<path fill="none" stroke="#63b8ff" d="M531.64,-240.66C537.93,-254.24 545.48,-279.98 561.12,-295.5 575.98,-310.24 596.47,-320.44 614.7,-327.32"/>
<polygon fill="#63b8ff" stroke="#63b8ff" points="613.37,-330.57 623.96,-330.59 615.7,-323.96 613.37,-330.57"/>
</a>
</g>
</g>
<!-- Node35&#45;&gt;Node1 -->
<g id="edge57_Node000035_Node000001" class="edge">
<title>Node35&#45;&gt;Node1</title>
<g id="a_edge57_Node000035_Node000001"><a xlink:title=" ">
<path fill="none" stroke="#63b8ff" d="M379.02,-240.68C384.8,-254.77 391.6,-281.75 409.12,-295.5 438.62,-318.63 537.67,-330.54 601.1,-336.04"/>
<polygon fill="#63b8ff" stroke="#63b8ff" points="600.74,-339.52 611,-336.87 601.33,-332.55 600.74,-339.52"/>
</a>
</g>
</g>
<!-- Node36&#45;&gt;Node1 -->
<g id="edge59_Node000036_Node000001" class="edge">
<title>Node36&#45;&gt;Node1</title>
<g id="a_edge59_Node000036_Node000001"><a xlink:title=" ">
<path fill="none" stroke="#63b8ff" d="M618.94,-295.86C627.41,-303.12 637.8,-313.56 645.62,-322.47"/>
<polygon fill="#63b8ff" stroke="#63b8ff" points="642.87,-324.64 651.91,-330.16 648.28,-320.21 642.87,-324.64"/>
</a>
</g>
</g>
<!-- Node37&#45;&gt;Node34 -->
<g id="edge62_Node000037_Node000034" class="edge">
<title>Node37&#45;&gt;Node34</title>
<g id="a_edge62_Node000037_Node000034"><a xlink:title=" ">
<path fill="none" stroke="#63b8ff" d="M461.02,-275.84C472.15,-268.04 488.5,-256.59 501.76,-247.29"/>
<polygon fill="#63b8ff" stroke="#63b8ff" points="503.75,-250.18 509.93,-241.57 499.73,-244.44 503.75,-250.18"/>
</a>
</g>
</g>
<!-- Node37&#45;&gt;Node35 -->
<g id="edge61_Node000037_Node000035" class="edge">
<title>Node37&#45;&gt;Node35</title>
<g id="a_edge61_Node000037_Node000035"><a xlink:title=" ">
<path fill="none" stroke="#63b8ff" d="M435.23,-275.84C424.1,-268.04 407.75,-256.59 394.49,-247.29"/>
<polygon fill="#63b8ff" stroke="#63b8ff" points="396.52,-244.44 386.32,-241.57 392.5,-250.18 396.52,-244.44"/>
</a>
</g>
</g>
<!-- Node38&#45;&gt;Node1 -->
<g id="edge64_Node000038_Node000001" class="edge">
<title>Node38&#45;&gt;Node1</title>
<g id="a_edge64_Node000038_Node000001"><a xlink:title=" ">
<path fill="none" stroke="#63b8ff" d="M784.12,-295.95C761.85,-304.61 725.58,-317.74 697.26,-327.43"/>
<polygon fill="#63b8ff" stroke="#63b8ff" points="696.23,-324.08 687.88,-330.61 698.48,-330.71 696.23,-324.08"/>
</a>
</g>
</g>
<!-- Node39&#45;&gt;Node2 -->
<g id="edge66_Node000039_Node000002" class="edge">
<title>Node39&#45;&gt;Node2</title>
<g id="a_edge66_Node000039_Node000002"><a xlink:title=" ">
<path fill="none" stroke="#63b8ff" d="M931.88,-275.84C919.33,-267.89 900.79,-256.14 885.98,-246.75"/>
<polygon fill="#63b8ff" stroke="#63b8ff" points="888.04,-243.91 877.72,-241.51 884.29,-249.82 888.04,-243.91"/>
</a>
</g>
</g>
<!-- Node40 -->
<g id="Node000040" class="node">
<title>Node40</title>
<g id="a_Node000040"><a xlink:href="../../d8/d7f/quaternion_8inl.html" target="_top" xlink:title=" ">
<polygon fill="white" stroke="#666666" points="987.88,-240.25 916.38,-240.25 916.38,-221 987.88,-221 987.88,-240.25"/>
<text text-anchor="middle" x="952.12" y="-226.75" font-family="Times,serif" font-size="10.00">quaternion.inl</text>
</a>
</g>
</g>
<!-- Node39&#45;&gt;Node40 -->
<g id="edge67_Node000039_Node000040" class="edge">
<title>Node39&#45;&gt;Node40</title>
<g id="a_edge67_Node000039_Node000040"><a xlink:title=" ">
<path fill="none" stroke="#63b8ff" d="M941.95,-276.08C941.27,-269.42 941.87,-259.99 943.33,-251.53"/>
<polygon fill="#63b8ff" stroke="#63b8ff" points="946.67,-252.62 945.56,-242.08 939.85,-251.01 946.67,-252.62"/>
</a>
</g>
</g>
<!-- Node40&#45;&gt;Node39 -->
<g id="edge68_Node000040_Node000039" class="edge">
<title>Node40&#45;&gt;Node39</title>
<g id="a_edge68_Node000040_Node000039"><a xlink:title=" ">
<path fill="none" stroke="#63b8ff" d="M956.32,-240.61C956.96,-247.25 956.36,-256.55 954.93,-264.92"/>
<polygon fill="#63b8ff" stroke="#63b8ff" points="951.54,-264.07 952.63,-274.61 958.35,-265.69 951.54,-264.07"/>
</a>
</g>
</g>
<!-- Node41&#45;&gt;Node34 -->
<g id="edge70_Node000041_Node000034" class="edge">
<title>Node41&#45;&gt;Node34</title>
<g id="a_edge70_Node000041_Node000034"><a xlink:title=" ">
<path fill="none" stroke="#63b8ff" d="M676.91,-275.84C646.51,-267.04 600.09,-253.61 566.39,-243.86"/>
<polygon fill="#63b8ff" stroke="#63b8ff" points="567.52,-240.54 556.95,-241.12 565.58,-247.27 567.52,-240.54"/>
</a>
</g>
</g>
<!-- Node42&#45;&gt;Node1 -->
<g id="edge72_Node000042_Node000001" class="edge">
<title>Node42&#45;&gt;Node1</title>
<g id="a_edge72_Node000042_Node000001"><a xlink:title=" ">
<path fill="none" stroke="#63b8ff" d="M1013.79,-295.55C906.92,-311.07 781.31,-326.42 710.88,-334.43"/>
<polygon fill="#63b8ff" stroke="#63b8ff" points="710.7,-330.93 701.15,-335.53 711.48,-337.88 710.7,-330.93"/>
</a>
</g>
</g>
<!-- Node43 -->
<g id="Node000043" class="node">
<title>Node43</title>
<g id="a_Node000043"><a xlink:title=" ">
<polygon fill="#e0e0e0" stroke="#999999" points="1081.12,-240.25 1035.12,-240.25 1035.12,-221 1081.12,-221 1081.12,-240.25"/>
<text text-anchor="middle" x="1058.12" y="-226.75" font-family="Times,serif" font-size="10.00">random</text>
</a>
</g>
</g>
<!-- Node42&#45;&gt;Node43 -->
<g id="edge73_Node000042_Node000043" class="edge">
<title>Node42&#45;&gt;Node43</title>
<g id="a_edge73_Node000042_Node000043"><a xlink:title=" ">
<path fill="none" stroke="#63b8ff" d="M1058.12,-276.08C1058.12,-269.57 1058.12,-260.42 1058.12,-252.12"/>
<polygon fill="#63b8ff" stroke="#63b8ff" points="1061.63,-252.12 1058.13,-242.12 1054.63,-252.12 1061.63,-252.12"/>
</a>
</g>
</g>
</g>
</svg>
