<?xml version="1.0" encoding="UTF-8" standalone="no"?>
<!DOCTYPE svg PUBLIC "-//W3C//DTD SVG 1.1//EN"
 "http://www.w3.org/Graphics/SVG/1.1/DTD/svg11.dtd">
<!-- Generated by graphviz version 9.0.0 (20230911.1827)
 -->
<!-- Title: mal_math::Triangle Pages: 1 -->
<svg width="287pt" height="382pt"
 viewBox="0.00 0.00 286.50 382.25" xmlns="http://www.w3.org/2000/svg" xmlns:xlink="http://www.w3.org/1999/xlink">

<svg id="main" version="1.1" xmlns="http://www.w3.org/2000/svg" xmlns:xlink="http://www.w3.org/1999/xlink" xml:space="preserve" onload="init(evt)">
<style type="text/css"><![CDATA[
.node, .edge {opacity: 0.7;}
.node.selected, .edge.selected {opacity: 1;}
.edge:hover path { stroke: red; }
.edge:hover polygon { stroke: red; fill: red; }
]]></style>
<script type="application/ecmascript" xlink:href="../../svg.min.js"/>
<svg id="graph" class="graph">
<g id="graph0" class="graph" transform="scale(1 1) rotate(0) translate(4 378.25)">
<title>mal_math::Triangle</title>
<!-- Node1 -->
<g id="Node000001" class="node">
<title>Node1</title>
<g id="a_Node000001"><a xlink:title="Represents a triangle defined by three 3D points.">
<polygon fill="#999999" stroke="#666666" points="147.5,-19.25 54.25,-19.25 54.25,0 147.5,0 147.5,-19.25"/>
<text text-anchor="middle" x="100.88" y="-5.75" font-family="Times,serif" font-size="10.00">mal_math::Triangle</text>
</a>
</g>
</g>
<!-- Node2 -->
<g id="Node000002" class="node">
<title>Node2</title>
<g id="a_Node000002"><a xlink:href="../../dd/dce/structmal__math_1_1vec.html" target="_top" xlink:title=" ">
<polygon fill="white" stroke="#666666" points="159.88,-108.25 41.88,-108.25 41.88,-89 159.88,-89 159.88,-108.25"/>
<text text-anchor="middle" x="100.88" y="-94.75" font-family="Times,serif" font-size="10.00">mal_math::vec&lt; 3, float &gt;</text>
</a>
</g>
</g>
<!-- Node2&#45;&gt;Node1 -->
<g id="edge1_Node000001_Node000002" class="edge">
<title>Node2&#45;&gt;Node1</title>
<g id="a_edge1_Node000001_Node000002"><a xlink:title=" ">
<path fill="none" stroke="#9a32cd" stroke-dasharray="5,2" d="M100.88,-77.26C100.88,-59.05 100.88,-33.22 100.88,-19.69"/>
<polygon fill="#9a32cd" stroke="#9a32cd" points="97.38,-77.13 100.88,-87.13 104.38,-77.13 97.38,-77.13"/>
</a>
</g>
<text text-anchor="middle" x="104.25" y="-61.5" font-family="Times,serif" font-size="10.00" fill="grey"> a</text>
<text text-anchor="middle" x="104.25" y="-50.25" font-family="Times,serif" font-size="10.00" fill="grey">b</text>
<text text-anchor="middle" x="104.25" y="-39" font-family="Times,serif" font-size="10.00" fill="grey">c</text>
</g>
<!-- Node3 -->
<g id="Node000003" class="node">
<title>Node3</title>
<g id="a_Node000003"><a xlink:title=" ">
<polygon fill="white" stroke="#666666" points="103.75,-241.25 0,-241.25 0,-222 103.75,-222 103.75,-241.25"/>
<text text-anchor="middle" x="51.88" y="-227.75" font-family="Times,serif" font-size="10.00">static constexpr size_t</text>
</a>
</g>
</g>
<!-- Node3&#45;&gt;Node2 -->
<g id="edge2_Node000002_Node000003" class="edge">
<title>Node3&#45;&gt;Node2</title>
<g id="a_edge2_Node000002_Node000003"><a xlink:title=" ">
<path fill="none" stroke="#9a32cd" stroke-dasharray="5,2" d="M35.86,-213.03C23.81,-197.55 10.94,-174.56 20.88,-155.5 32.7,-132.82 58.41,-117.45 77.51,-108.67"/>
<polygon fill="#9a32cd" stroke="#9a32cd" points="32.97,-215.03 42.08,-220.44 38.33,-210.53 32.97,-215.03"/>
</a>
</g>
<text text-anchor="middle" x="29.88" y="-161.25" font-family="Times,serif" font-size="10.00" fill="grey"> size</text>
</g>
<!-- Node7 -->
<g id="Node000007" class="node">
<title>Node7</title>
<g id="a_Node000007"><a xlink:href="../../dd/dce/structmal__math_1_1vec.html" target="_top" xlink:title="Definition of the mathematical vector with fixed size L and type T">
<polygon fill="white" stroke="#666666" points="154.25,-174.75 47.5,-174.75 47.5,-155.5 154.25,-155.5 154.25,-174.75"/>
<text text-anchor="middle" x="100.88" y="-161.25" font-family="Times,serif" font-size="10.00">mal_math::vec&lt; L, T &gt;</text>
</a>
</g>
</g>
<!-- Node3&#45;&gt;Node7 -->
<g id="edge8_Node000007_Node000003" class="edge">
<title>Node3&#45;&gt;Node7</title>
<g id="a_edge8_Node000007_Node000003"><a xlink:title=" ">
<path fill="none" stroke="#9a32cd" stroke-dasharray="5,2" d="M65.09,-212.51C69.72,-206.22 74.99,-199.15 79.88,-192.75 84.45,-186.76 89.7,-180.1 93.81,-174.95"/>
<polygon fill="#9a32cd" stroke="#9a32cd" points="62.46,-210.18 59.37,-220.32 68.1,-214.32 62.46,-210.18"/>
</a>
</g>
<text text-anchor="middle" x="88.88" y="-194.5" font-family="Times,serif" font-size="10.00" fill="grey"> size</text>
</g>
<!-- Node4 -->
<g id="Node000004" class="node">
<title>Node4</title>
<g id="a_Node000004"><a xlink:title=" ">
<polygon fill="white" stroke="#666666" points="227.62,-241.25 132.12,-241.25 132.12,-222 227.62,-222 227.62,-241.25"/>
<text text-anchor="middle" x="179.88" y="-227.75" font-family="Times,serif" font-size="10.00">std::array&lt; T, size &gt;</text>
</a>
</g>
</g>
<!-- Node4&#45;&gt;Node2 -->
<g id="edge3_Node000002_Node000004" class="edge">
<title>Node4&#45;&gt;Node2</title>
<g id="a_edge3_Node000002_Node000004"><a xlink:title=" ">
<path fill="none" stroke="#9a32cd" stroke-dasharray="5,2" d="M179.44,-210.05C177.88,-186.92 171.96,-149.56 150.88,-126.25 144.08,-118.74 134.66,-112.96 125.82,-108.74"/>
<polygon fill="#9a32cd" stroke="#9a32cd" points="175.94,-210.18 179.87,-220.02 182.94,-209.88 175.94,-210.18"/>
</a>
</g>
<text text-anchor="middle" x="184.62" y="-161.25" font-family="Times,serif" font-size="10.00" fill="grey"> data</text>
</g>
<!-- Node4&#45;&gt;Node7 -->
<g id="edge9_Node000007_Node000004" class="edge">
<title>Node4&#45;&gt;Node7</title>
<g id="a_edge9_Node000007_Node000004"><a xlink:title=" ">
<path fill="none" stroke="#9a32cd" stroke-dasharray="5,2" d="M160.23,-214.58C145.03,-202.17 124.52,-185.43 112.02,-175.23"/>
<polygon fill="#9a32cd" stroke="#9a32cd" points="157.76,-217.09 167.72,-220.7 162.19,-211.66 157.76,-217.09"/>
</a>
</g>
<text text-anchor="middle" x="155.62" y="-194.5" font-family="Times,serif" font-size="10.00" fill="grey"> data</text>
</g>
<!-- Node5 -->
<g id="Node000005" class="node">
<title>Node5</title>
<g id="a_Node000005"><a xlink:title=" ">
<polygon fill="white" stroke="#666666" points="179.28,-374.25 150.47,-374.25 150.47,-355 179.28,-355 179.28,-374.25"/>
<text text-anchor="middle" x="164.88" y="-360.75" font-family="Times,serif" font-size="10.00">T</text>
</a>
</g>
</g>
<!-- Node5&#45;&gt;Node4 -->
<g id="edge4_Node000004_Node000005" class="edge">
<title>Node5&#45;&gt;Node4</title>
<g id="a_edge4_Node000004_Node000005"><a xlink:title=" ">
<path fill="none" stroke="#9a32cd" stroke-dasharray="5,2" d="M159.62,-343.63C156.39,-328.41 153.5,-307 157.12,-288.5 160.55,-271.03 169.46,-252.12 175.06,-241.39"/>
<polygon fill="#9a32cd" stroke="#9a32cd" points="156.2,-344.37 161.93,-353.29 163.01,-342.75 156.2,-344.37"/>
</a>
</g>
<text text-anchor="middle" x="176.25" y="-294.25" font-family="Times,serif" font-size="10.00" fill="grey"> elements</text>
</g>
<!-- Node6 -->
<g id="Node000006" class="node">
<title>Node6</title>
<g id="a_Node000006"><a xlink:title=" ">
<polygon fill="white" stroke="#666666" points="278.5,-307.75 203.25,-307.75 203.25,-288.5 278.5,-288.5 278.5,-307.75"/>
<text text-anchor="middle" x="240.88" y="-294.25" font-family="Times,serif" font-size="10.00">std::array&lt; T &gt;</text>
</a>
</g>
</g>
<!-- Node5&#45;&gt;Node6 -->
<g id="edge6_Node000006_Node000005" class="edge">
<title>Node5&#45;&gt;Node6</title>
<g id="a_edge6_Node000006_Node000005"><a xlink:title=" ">
<path fill="none" stroke="#9a32cd" stroke-dasharray="5,2" d="M183.83,-347.54C198.55,-335.05 218.41,-318.19 230.4,-308.02"/>
<polygon fill="#9a32cd" stroke="#9a32cd" points="181.96,-344.54 176.6,-353.68 186.49,-349.88 181.96,-344.54"/>
</a>
</g>
<text text-anchor="middle" x="225.25" y="-327.5" font-family="Times,serif" font-size="10.00" fill="grey"> elements</text>
</g>
<!-- Node6&#45;&gt;Node4 -->
<g id="edge5_Node000004_Node000006" class="edge">
<title>Node6&#45;&gt;Node4</title>
<g id="a_edge5_Node000004_Node000006"><a xlink:title=" ">
<path fill="none" stroke="orange" stroke-dasharray="5,2" d="M224.65,-279.97C212.95,-267.6 197.63,-251.4 188.28,-241.52"/>
<polygon fill="orange" stroke="orange" points="221.94,-282.2 231.35,-287.06 227.02,-277.39 221.94,-282.2"/>
</a>
</g>
<text text-anchor="middle" x="236.38" y="-261" font-family="Times,serif" font-size="10.00" fill="grey"> &lt; T, size &gt;</text>
</g>
<!-- Node7&#45;&gt;Node2 -->
<g id="edge7_Node000002_Node000007" class="edge">
<title>Node7&#45;&gt;Node2</title>
<g id="a_edge7_Node000002_Node000007"><a xlink:title=" ">
<path fill="none" stroke="orange" stroke-dasharray="5,2" d="M100.88,-143.65C100.88,-131.82 100.88,-117.54 100.88,-108.52"/>
<polygon fill="orange" stroke="orange" points="97.38,-143.64 100.88,-153.64 104.38,-143.64 97.38,-143.64"/>
</a>
</g>
<text text-anchor="middle" x="124.12" y="-128" font-family="Times,serif" font-size="10.00" fill="grey"> &lt; 3, float &gt;</text>
</g>
</g>
</svg>
</svg>

<style type='text/css'>
<![CDATA[
[data-mouse-over-selected='false'] { opacity: 0.7; }
[data-mouse-over-selected='true']  { opacity: 1.0; }
]]>
</style>
<script type="application/ecmascript"><![CDATA[
document.addEventListener('DOMContentLoaded', (event) => {
  highlightEdges();
  highlightAdjacentNodes();
});
]]></script>
</svg>
