<?xml version="1.0" encoding="UTF-8" standalone="no"?>
<!DOCTYPE svg PUBLIC "-//W3C//DTD SVG 1.1//EN"
 "http://www.w3.org/Graphics/SVG/1.1/DTD/svg11.dtd">
<!-- Generated by graphviz version 9.0.0 (20230911.1827)
 -->
<!-- Title: include/math/triangle.hpp Pages: 1 -->
<svg width="634pt" height="193pt"
 viewBox="0.00 0.00 633.75 193.00" xmlns="http://www.w3.org/2000/svg" xmlns:xlink="http://www.w3.org/1999/xlink">
<g id="graph0" class="graph" transform="scale(1 1) rotate(0) translate(4 189)">
<title>include/math/triangle.hpp</title>
<!-- Node1 -->
<g id="Node000001" class="node">
<title>Node1</title>
<g id="a_Node000001"><a xlink:title="Defines the Triangle structure and methods for ray&#45;triangle intersection.">
<polygon fill="#999999" stroke="#666666" points="395.62,-185 276.12,-185 276.12,-165.75 395.62,-165.75 395.62,-185"/>
<text text-anchor="middle" x="335.88" y="-171.5" font-family="Times,serif" font-size="10.00">include/math/triangle.hpp</text>
</a>
</g>
</g>
<!-- Node2 -->
<g id="Node000002" class="node">
<title>Node2</title>
<g id="a_Node000002"><a xlink:href="../../d4/d78/math_8hpp.html" target="_top" xlink:title="Provides various mathematical utilities, vector operations, and custom hash specializations.">
<polygon fill="white" stroke="#666666" points="379.12,-129.75 292.62,-129.75 292.62,-110.5 379.12,-110.5 379.12,-129.75"/>
<text text-anchor="middle" x="335.88" y="-116.25" font-family="Times,serif" font-size="10.00">include/math.hpp</text>
</a>
</g>
</g>
<!-- Node1&#45;&gt;Node2 -->
<g id="edge1_Node000001_Node000002" class="edge">
<title>Node1&#45;&gt;Node2</title>
<g id="a_edge1_Node000001_Node000002"><a xlink:title=" ">
<path fill="none" stroke="#63b8ff" d="M329.32,-154.42C328.83,-146.05 329.28,-136.75 330.67,-130.11"/>
<polygon fill="#63b8ff" stroke="#63b8ff" points="325.81,-154.59 330.52,-164.08 332.76,-153.72 325.81,-154.59"/>
</a>
</g>
</g>
<!-- Node2&#45;&gt;Node1 -->
<g id="edge15_Node000002_Node000001" class="edge">
<title>Node2&#45;&gt;Node1</title>
<g id="a_edge15_Node000002_Node000001"><a xlink:title=" ">
<path fill="none" stroke="#63b8ff" d="M342.45,-141.32C342.92,-149.71 342.45,-158.99 341.04,-165.58"/>
<polygon fill="#63b8ff" stroke="#63b8ff" points="345.95,-141.12 341.26,-131.61 339,-141.96 345.95,-141.12"/>
</a>
</g>
</g>
<!-- Node3 -->
<g id="Node000003" class="node">
<title>Node3</title>
<g id="a_Node000003"><a xlink:href="../../d7/de4/box_8hpp.html" target="_top" xlink:title="Defines a templated bounding box class for 3D primitives.">
<polygon fill="white" stroke="#666666" points="103.75,-74.5 0,-74.5 0,-55.25 103.75,-55.25 103.75,-74.5"/>
<text text-anchor="middle" x="51.88" y="-61" font-family="Times,serif" font-size="10.00">include/math/box.hpp</text>
</a>
</g>
</g>
<!-- Node2&#45;&gt;Node3 -->
<g id="edge2_Node000002_Node000003" class="edge">
<title>Node2&#45;&gt;Node3</title>
<g id="a_edge2_Node000002_Node000003"><a xlink:title=" ">
<path fill="none" stroke="#63b8ff" d="M281.02,-109.83C226.73,-100.02 144.87,-84.67 95.04,-74.95"/>
<polygon fill="#63b8ff" stroke="#63b8ff" points="280.21,-113.24 290.68,-111.56 281.45,-106.35 280.21,-113.24"/>
</a>
</g>
</g>
<!-- Node4 -->
<g id="Node000004" class="node">
<title>Node4</title>
<g id="a_Node000004"><a xlink:href="../../d6/d02/intersection_8hpp.html" target="_top" xlink:title="Provides functionalities to represent and handle intersections in 3D space.">
<polygon fill="white" stroke="#666666" points="257.88,-74.5 121.88,-74.5 121.88,-55.25 257.88,-55.25 257.88,-74.5"/>
<text text-anchor="middle" x="189.88" y="-61" font-family="Times,serif" font-size="10.00">include/math/intersection.hpp</text>
</a>
</g>
</g>
<!-- Node2&#45;&gt;Node4 -->
<g id="edge4_Node000002_Node000004" class="edge">
<title>Node2&#45;&gt;Node4</title>
<g id="a_edge4_Node000002_Node000004"><a xlink:title=" ">
<path fill="none" stroke="#63b8ff" d="M295.22,-106.43C267.26,-96.74 231.48,-83.61 209.54,-74.95"/>
<polygon fill="#63b8ff" stroke="#63b8ff" points="293.86,-109.67 304.46,-109.6 296.14,-103.04 293.86,-109.67"/>
</a>
</g>
</g>
<!-- Node6 -->
<g id="Node000006" class="node">
<title>Node6</title>
<g id="a_Node000006"><a xlink:href="../../d1/df2/random_8hpp.html" target="_top" xlink:title="Provides functionality for random number generation and manipulation in vector spaces.">
<polygon fill="white" stroke="#666666" points="395.62,-74.5 276.12,-74.5 276.12,-55.25 395.62,-55.25 395.62,-74.5"/>
<text text-anchor="middle" x="335.88" y="-61" font-family="Times,serif" font-size="10.00">include/math/random.hpp</text>
</a>
</g>
</g>
<!-- Node2&#45;&gt;Node6 -->
<g id="edge8_Node000002_Node000006" class="edge">
<title>Node2&#45;&gt;Node6</title>
<g id="a_edge8_Node000002_Node000006"><a xlink:title=" ">
<path fill="none" stroke="#63b8ff" d="M329.32,-99.17C328.83,-90.8 329.28,-81.5 330.67,-74.86"/>
<polygon fill="#63b8ff" stroke="#63b8ff" points="325.81,-99.34 330.52,-108.83 332.76,-98.47 325.81,-99.34"/>
</a>
</g>
</g>
<!-- Node7 -->
<g id="Node000007" class="node">
<title>Node7</title>
<g id="a_Node000007"><a xlink:href="../../db/d1d/ray_8hpp.html" target="_top" xlink:title="Contains the definition of the Ray class.">
<polygon fill="white" stroke="#666666" points="553.62,-74.5 452.12,-74.5 452.12,-55.25 553.62,-55.25 553.62,-74.5"/>
<text text-anchor="middle" x="502.88" y="-61" font-family="Times,serif" font-size="10.00">include/math/ray.hpp</text>
</a>
</g>
</g>
<!-- Node2&#45;&gt;Node7 -->
<g id="edge10_Node000002_Node000007" class="edge">
<title>Node2&#45;&gt;Node7</title>
<g id="a_edge10_Node000002_Node000007"><a xlink:title=" ">
<path fill="none" stroke="#63b8ff" d="M369.83,-106.43C398.86,-96.74 440.23,-83.61 469.18,-74.95"/>
<polygon fill="#63b8ff" stroke="#63b8ff" points="368.78,-103.09 360.42,-109.61 371.02,-109.73 368.78,-103.09"/>
</a>
</g>
</g>
<!-- Node3&#45;&gt;Node2 -->
<g id="edge3_Node000003_Node000002" class="edge">
<title>Node3&#45;&gt;Node2</title>
<g id="a_edge3_Node000003_Node000002"><a xlink:title=" ">
<path fill="none" stroke="#63b8ff" d="M115.09,-76.69C169.11,-86.5 245.27,-100.8 292.61,-110.03"/>
<polygon fill="#63b8ff" stroke="#63b8ff" points="115.88,-73.27 105.41,-74.94 114.63,-80.16 115.88,-73.27"/>
</a>
</g>
</g>
<!-- Node4&#45;&gt;Node2 -->
<g id="edge5_Node000004_Node000002" class="edge">
<title>Node4&#45;&gt;Node2</title>
<g id="a_edge5_Node000004_Node000002"><a xlink:title=" ">
<path fill="none" stroke="#63b8ff" d="M230.67,-78.62C258.66,-88.32 294.43,-101.45 316.33,-110.09"/>
<polygon fill="#63b8ff" stroke="#63b8ff" points="232.02,-75.38 221.42,-75.44 229.74,-82 232.02,-75.38"/>
</a>
</g>
</g>
<!-- Node5 -->
<g id="Node000005" class="node">
<title>Node5</title>
<g id="a_Node000005"><a xlink:href="../../d7/d82/plane_8hpp.html" target="_top" xlink:title="Provides the definition of the Plane structure and its associated operations.">
<polygon fill="white" stroke="#666666" points="479.12,-19.25 368.62,-19.25 368.62,0 479.12,0 479.12,-19.25"/>
<text text-anchor="middle" x="423.88" y="-5.75" font-family="Times,serif" font-size="10.00">include/math/plane.hpp</text>
</a>
</g>
</g>
<!-- Node4&#45;&gt;Node5 -->
<g id="edge6_Node000004_Node000005" class="edge">
<title>Node4&#45;&gt;Node5</title>
<g id="a_edge6_Node000004_Node000005"><a xlink:title=" ">
<path fill="none" stroke="#63b8ff" d="M240.91,-52.26C283.92,-42.47 344.6,-28.67 384.08,-19.68"/>
<polygon fill="#63b8ff" stroke="#63b8ff" points="240.29,-48.81 231.31,-54.45 241.84,-55.64 240.29,-48.81"/>
</a>
</g>
</g>
<!-- Node5&#45;&gt;Node2 -->
<g id="edge7_Node000005_Node000002" class="edge">
<title>Node5&#45;&gt;Node2</title>
<g id="a_edge7_Node000005_Node000002"><a xlink:title=" ">
<path fill="none" stroke="#63b8ff" d="M421.58,-30.71C419.22,-44.18 414.44,-61.73 404.88,-74.5 392.73,-90.71 372.83,-102.67 357.51,-110.1"/>
<polygon fill="#63b8ff" stroke="#63b8ff" points="425.05,-31.22 422.98,-20.83 418.11,-30.24 425.05,-31.22"/>
</a>
</g>
</g>
<!-- Node6&#45;&gt;Node2 -->
<g id="edge9_Node000006_Node000002" class="edge">
<title>Node6&#45;&gt;Node2</title>
<g id="a_edge9_Node000006_Node000002"><a xlink:title=" ">
<path fill="none" stroke="#63b8ff" d="M342.45,-86.07C342.92,-94.46 342.45,-103.74 341.04,-110.33"/>
<polygon fill="#63b8ff" stroke="#63b8ff" points="345.95,-85.87 341.26,-76.36 339,-86.71 345.95,-85.87"/>
</a>
</g>
</g>
<!-- Node7&#45;&gt;Node2 -->
<g id="edge11_Node000007_Node000002" class="edge">
<title>Node7&#45;&gt;Node2</title>
<g id="a_edge11_Node000007_Node000002"><a xlink:title=" ">
<path fill="none" stroke="#63b8ff" d="M468.77,-78.62C439.7,-88.32 398.33,-101.45 369.42,-110.09"/>
<polygon fill="#63b8ff" stroke="#63b8ff" points="469.84,-81.95 478.2,-75.44 467.6,-75.32 469.84,-81.95"/>
</a>
</g>
</g>
<!-- Node7&#45;&gt;Node5 -->
<g id="edge12_Node000007_Node000005" class="edge">
<title>Node7&#45;&gt;Node5</title>
<g id="a_edge12_Node000007_Node000005"><a xlink:title=" ">
<path fill="none" stroke="#63b8ff" d="M480.11,-48.53C466.27,-39.2 449.05,-27.6 437.34,-19.7"/>
<polygon fill="#63b8ff" stroke="#63b8ff" points="477.97,-51.31 488.22,-54 481.88,-45.5 477.97,-51.31"/>
</a>
</g>
</g>
<!-- Node8 -->
<g id="Node000008" class="node">
<title>Node8</title>
<g id="a_Node000008"><a xlink:href="../../d0/da1/sphere_8hpp.html" target="_top" xlink:title="Defines the Sphere structure and its associated functionality.">
<polygon fill="white" stroke="#666666" points="625.75,-19.25 510,-19.25 510,0 625.75,0 625.75,-19.25"/>
<text text-anchor="middle" x="567.88" y="-5.75" font-family="Times,serif" font-size="10.00">include/math/sphere.hpp</text>
</a>
</g>
</g>
<!-- Node7&#45;&gt;Node8 -->
<g id="edge13_Node000007_Node000008" class="edge">
<title>Node7&#45;&gt;Node8</title>
<g id="a_edge13_Node000007_Node000008"><a xlink:title=" ">
<path fill="none" stroke="#63b8ff" d="M522.66,-47.66C533.95,-38.42 547.67,-27.18 557.01,-19.52"/>
<polygon fill="#63b8ff" stroke="#63b8ff" points="520.59,-44.84 515.07,-53.88 525.03,-50.25 520.59,-44.84"/>
</a>
</g>
</g>
<!-- Node8&#45;&gt;Node2 -->
<g id="edge14_Node000008_Node000002" class="edge">
<title>Node8&#45;&gt;Node2</title>
<g id="a_edge14_Node000008_Node000002"><a xlink:title=" ">
<path fill="none" stroke="#63b8ff" d="M572.07,-30.66C573.76,-44.63 573.29,-62.8 562.88,-74.5 539.04,-101.27 438.08,-112.41 379.14,-116.69"/>
<polygon fill="#63b8ff" stroke="#63b8ff" points="575.52,-30.08 570.39,-20.81 568.62,-31.25 575.52,-30.08"/>
</a>
</g>
</g>
</g>
</svg>
