<?xml version="1.0" encoding="UTF-8" standalone="no"?>
<!DOCTYPE svg PUBLIC "-//W3C//DTD SVG 1.1//EN"
 "http://www.w3.org/Graphics/SVG/1.1/DTD/svg11.dtd">
<!-- Generated by graphviz version 9.0.0 (20230911.1827)
 -->
<!-- Title: mal_math::vec&lt; L, T &gt; Pages: 1 -->
<svg width="327pt" height="138pt"
 viewBox="0.00 0.00 327.25 138.25" xmlns="http://www.w3.org/2000/svg" xmlns:xlink="http://www.w3.org/1999/xlink">
<g id="graph0" class="graph" transform="scale(1 1) rotate(0) translate(4 134.25)">
<title>mal_math::vec&lt; L, T &gt;</title>
<!-- Node1 -->
<g id="Node000001" class="node">
<title>Node1</title>
<g id="a_Node000001"><a xlink:title="Definition of the mathematical vector with fixed size L and type T">
<polygon fill="#999999" stroke="#666666" points="106.75,-74.25 0,-74.25 0,-55 106.75,-55 106.75,-74.25"/>
<text text-anchor="middle" x="53.38" y="-60.75" font-family="Times,serif" font-size="10.00">mal_math::vec&lt; L, T &gt;</text>
</a>
</g>
</g>
<!-- Node2 -->
<g id="Node000002" class="node">
<title>Node2</title>
<g id="a_Node000002"><a xlink:href="../../dd/dce/structmal__math_1_1vec.html" target="_top" xlink:title=" ">
<polygon fill="white" stroke="#666666" points="316.25,-130.25 198.25,-130.25 198.25,-111 316.25,-111 316.25,-130.25"/>
<text text-anchor="middle" x="257.25" y="-116.75" font-family="Times,serif" font-size="10.00">mal_math::vec&lt; 3, float &gt;</text>
</a>
</g>
</g>
<!-- Node1&#45;&gt;Node2 -->
<g id="edge1_Node000001_Node000002" class="edge">
<title>Node1&#45;&gt;Node2</title>
<g id="a_edge1_Node000001_Node000002"><a xlink:title=" ">
<path fill="none" stroke="orange" stroke-dasharray="5,2" d="M89.78,-78.73C100.88,-82.87 113.23,-87.2 124.75,-90.62 150.9,-98.4 180.48,-105.31 204.96,-110.54"/>
<polygon fill="orange" stroke="orange" points="91.19,-75.52 80.6,-75.23 88.7,-82.06 91.19,-75.52"/>
</a>
</g>
<text text-anchor="middle" x="151" y="-105.38" font-family="Times,serif" font-size="10.00" fill="grey"> &lt; 3, float &gt;</text>
</g>
<!-- Node3 -->
<g id="Node000003" class="node">
<title>Node3</title>
<g id="a_Node000003"><a xlink:href="../../dd/dce/structmal__math_1_1vec.html" target="_top" xlink:title=" ">
<polygon fill="white" stroke="#666666" points="312.5,-93.25 202,-93.25 202,-74 312.5,-74 312.5,-93.25"/>
<text text-anchor="middle" x="257.25" y="-79.75" font-family="Times,serif" font-size="10.00">mal_math::vec&lt; 3, int &gt;</text>
</a>
</g>
</g>
<!-- Node1&#45;&gt;Node3 -->
<g id="edge2_Node000001_Node000003" class="edge">
<title>Node1&#45;&gt;Node3</title>
<g id="a_edge2_Node000001_Node000003"><a xlink:title=" ">
<path fill="none" stroke="orange" stroke-dasharray="5,2" d="M118.36,-70.65C145.15,-73.17 175.97,-76.07 201.67,-78.49"/>
<polygon fill="orange" stroke="orange" points="118.94,-67.19 108.66,-69.73 118.29,-74.16 118.94,-67.19"/>
</a>
</g>
<text text-anchor="middle" x="151" y="-77.38" font-family="Times,serif" font-size="10.00" fill="grey"> &lt; 3, int &gt;</text>
</g>
<!-- Node4 -->
<g id="Node000004" class="node">
<title>Node4</title>
<g id="a_Node000004"><a xlink:href="../../dd/dce/structmal__math_1_1vec.html" target="_top" xlink:title=" ">
<polygon fill="white" stroke="#666666" points="319.25,-56.25 195.25,-56.25 195.25,-37 319.25,-37 319.25,-56.25"/>
<text text-anchor="middle" x="257.25" y="-42.75" font-family="Times,serif" font-size="10.00">mal_math::vec&lt; 2, size_t &gt;</text>
</a>
</g>
</g>
<!-- Node1&#45;&gt;Node4 -->
<g id="edge3_Node000001_Node000004" class="edge">
<title>Node1&#45;&gt;Node4</title>
<g id="a_edge3_Node000001_Node000004"><a xlink:title=" ">
<path fill="none" stroke="orange" stroke-dasharray="5,2" d="M109.37,-52.55C114.55,-51.7 119.74,-50.95 124.75,-50.38 147.55,-47.76 172.72,-46.62 194.88,-46.2"/>
<polygon fill="orange" stroke="orange" points="108.83,-49.09 99.6,-54.3 110.06,-55.98 108.83,-49.09"/>
</a>
</g>
<text text-anchor="middle" x="151" y="-51.38" font-family="Times,serif" font-size="10.00" fill="grey"> &lt; 2, size_t &gt;</text>
</g>
<!-- Node5 -->
<g id="Node000005" class="node">
<title>Node5</title>
<g id="a_Node000005"><a xlink:href="../../dd/dce/structmal__math_1_1vec.html" target="_top" xlink:title=" ">
<polygon fill="white" stroke="#666666" points="318.88,-19.25 195.62,-19.25 195.62,0 318.88,0 318.88,-19.25"/>
<text text-anchor="middle" x="257.25" y="-5.75" font-family="Times,serif" font-size="10.00">mal_math::vec&lt; size.y, T &gt;</text>
</a>
</g>
</g>
<!-- Node1&#45;&gt;Node5 -->
<g id="edge4_Node000001_Node000005" class="edge">
<title>Node1&#45;&gt;Node5</title>
<g id="a_edge4_Node000001_Node000005"><a xlink:title=" ">
<path fill="none" stroke="orange" stroke-dasharray="5,2" d="M81.98,-49.4C94.68,-42.97 110.14,-35.94 124.75,-31.38 147.28,-24.34 172.73,-19.46 195.2,-16.13"/>
<polygon fill="orange" stroke="orange" points="80.63,-46.16 73.39,-53.89 83.87,-52.36 80.63,-46.16"/>
</a>
</g>
<text text-anchor="middle" x="151" y="-32.38" font-family="Times,serif" font-size="10.00" fill="grey"> &lt; size.y, T &gt;</text>
</g>
</g>
</svg>
