<?xml version="1.0" encoding="UTF-8" standalone="no"?>
<!DOCTYPE svg PUBLIC "-//W3C//DTD SVG 1.1//EN"
 "http://www.w3.org/Graphics/SVG/1.1/DTD/svg11.dtd">
<!-- Generated by graphviz version 9.0.0 (20230911.1827)
 -->
<!-- Title: include/math/rvec3.hpp Pages: 1 -->
<svg width="1356pt" height="414pt"
 viewBox="0.00 0.00 1356.00 414.00" xmlns="http://www.w3.org/2000/svg" xmlns:xlink="http://www.w3.org/1999/xlink">
<g id="graph0" class="graph" transform="scale(1 1) rotate(0) translate(4 410)">
<title>include/math/rvec3.hpp</title>
<!-- Node1 -->
<g id="Node000001" class="node">
<title>Node1</title>
<g id="a_Node000001"><a xlink:title="Provides the implementation of a 3D reference vector.">
<polygon fill="#999999" stroke="#666666" points="491,-406 379,-406 379,-386.75 491,-386.75 491,-406"/>
<text text-anchor="middle" x="435" y="-392.5" font-family="Times,serif" font-size="10.00">include/math/rvec3.hpp</text>
</a>
</g>
</g>
<!-- Node2 -->
<g id="Node000002" class="node">
<title>Node2</title>
<g id="a_Node000002"><a xlink:href="../../d7/d70/rvec3_8inl.html" target="_top" xlink:title=" ">
<polygon fill="white" stroke="#666666" points="427.38,-350.75 320.62,-350.75 320.62,-331.5 427.38,-331.5 427.38,-350.75"/>
<text text-anchor="middle" x="374" y="-337.25" font-family="Times,serif" font-size="10.00">include/math/rvec3.inl</text>
</a>
</g>
</g>
<!-- Node1&#45;&gt;Node2 -->
<g id="edge1_Node000001_Node000002" class="edge">
<title>Node1&#45;&gt;Node2</title>
<g id="a_edge1_Node000001_Node000002"><a xlink:title=" ">
<path fill="none" stroke="#63b8ff" d="M410.51,-379.44C398.92,-370.14 386.23,-358.76 379.01,-351.02"/>
<polygon fill="#63b8ff" stroke="#63b8ff" points="408.18,-382.07 418.24,-385.42 412.47,-376.53 408.18,-382.07"/>
</a>
</g>
</g>
<!-- Node3 -->
<g id="Node000003" class="node">
<title>Node3</title>
<g id="a_Node000003"><a xlink:href="../../d7/d7c/vec_8hpp.html" target="_top" xlink:title=" ">
<polygon fill="white" stroke="#666666" points="548.5,-350.75 445.5,-350.75 445.5,-331.5 548.5,-331.5 548.5,-350.75"/>
<text text-anchor="middle" x="497" y="-337.25" font-family="Times,serif" font-size="10.00">include/math/vec.hpp</text>
</a>
</g>
</g>
<!-- Node1&#45;&gt;Node3 -->
<g id="edge3_Node000001_Node000003" class="edge">
<title>Node1&#45;&gt;Node3</title>
<g id="a_edge3_Node000001_Node000003"><a xlink:title=" ">
<path fill="none" stroke="#63b8ff" d="M448.24,-378.57C458.01,-369.48 471.04,-358.6 481.33,-351.11"/>
<polygon fill="#63b8ff" stroke="#63b8ff" points="445.84,-376.02 441.15,-385.52 450.74,-381.02 445.84,-376.02"/>
</a>
</g>
</g>
<!-- Node2&#45;&gt;Node1 -->
<g id="edge2_Node000002_Node000001" class="edge">
<title>Node2&#45;&gt;Node1</title>
<g id="a_edge2_Node000002_Node000001"><a xlink:title=" ">
<path fill="none" stroke="#63b8ff" d="M398.47,-358.04C410.12,-367.39 422.88,-378.84 430.09,-386.58"/>
<polygon fill="#63b8ff" stroke="#63b8ff" points="400.75,-355.38 390.7,-352.03 396.47,-360.92 400.75,-355.38"/>
</a>
</g>
</g>
<!-- Node3&#45;&gt;Node1 -->
<g id="edge8_Node000003_Node000001" class="edge">
<title>Node3&#45;&gt;Node1</title>
<g id="a_edge8_Node000003_Node000001"><a xlink:title=" ">
<path fill="none" stroke="#63b8ff" d="M483.67,-359.01C473.94,-368.07 460.98,-378.88 450.73,-386.34"/>
<polygon fill="#63b8ff" stroke="#63b8ff" points="486.05,-361.58 490.75,-352.08 481.15,-356.58 486.05,-361.58"/>
</a>
</g>
</g>
<!-- Node4 -->
<g id="Node000004" class="node">
<title>Node4</title>
<g id="a_Node000004"><a xlink:href="../../d4/d44/rvec2_8hpp.html" target="_top" xlink:title="Definitions for the rvec&lt;2, T&gt; specialized template representing 2D vectors with reference&#45;like seman...">
<polygon fill="white" stroke="#666666" points="112,-295.5 0,-295.5 0,-276.25 112,-276.25 112,-295.5"/>
<text text-anchor="middle" x="56" y="-282" font-family="Times,serif" font-size="10.00">include/math/rvec2.hpp</text>
</a>
</g>
</g>
<!-- Node3&#45;&gt;Node4 -->
<g id="edge4_Node000003_Node000004" class="edge">
<title>Node3&#45;&gt;Node4</title>
<g id="a_edge4_Node000003_Node000004"><a xlink:title=" ">
<path fill="none" stroke="#63b8ff" d="M433.96,-332.41C431.61,-332.09 429.28,-331.79 427,-331.5 287.36,-313.65 251.92,-312.77 112.41,-295.55"/>
<polygon fill="#63b8ff" stroke="#63b8ff" points="433.24,-335.84 443.62,-333.7 434.17,-328.9 433.24,-335.84"/>
</a>
</g>
</g>
<!-- Node6 -->
<g id="Node000006" class="node">
<title>Node6</title>
<g id="a_Node000006"><a xlink:href="../../d2/d88/rvec4_8hpp.html" target="_top" xlink:title="Defines a 4&#45;dimensional reference vector struct.">
<polygon fill="white" stroke="#666666" points="242,-295.5 130,-295.5 130,-276.25 242,-276.25 242,-295.5"/>
<text text-anchor="middle" x="186" y="-282" font-family="Times,serif" font-size="10.00">include/math/rvec4.hpp</text>
</a>
</g>
</g>
<!-- Node3&#45;&gt;Node6 -->
<g id="edge9_Node000003_Node000006" class="edge">
<title>Node3&#45;&gt;Node6</title>
<g id="a_edge9_Node000003_Node000006"><a xlink:title=" ">
<path fill="none" stroke="#63b8ff" d="M434.04,-330.27C374.89,-320.46 287.8,-305.54 234.05,-296"/>
<polygon fill="#63b8ff" stroke="#63b8ff" points="433.18,-333.67 443.61,-331.85 434.32,-326.76 433.18,-333.67"/>
</a>
</g>
</g>
<!-- Node8 -->
<g id="Node000008" class="node">
<title>Node8</title>
<g id="a_Node000008"><a xlink:href="../../d8/def/vec_8cpp.html" target="_top" xlink:title=" ">
<polygon fill="white" stroke="#666666" points="362.12,-295.5 259.88,-295.5 259.88,-276.25 362.12,-276.25 362.12,-295.5"/>
<text text-anchor="middle" x="311" y="-282" font-family="Times,serif" font-size="10.00">include/math/vec.cpp</text>
</a>
</g>
</g>
<!-- Node3&#45;&gt;Node8 -->
<g id="edge13_Node000003_Node000008" class="edge">
<title>Node3&#45;&gt;Node8</title>
<g id="a_edge13_Node000003_Node000008"><a xlink:title=" ">
<path fill="none" stroke="#63b8ff" d="M454.45,-327.94C420.43,-318.2 373.49,-304.77 342.71,-295.95"/>
<polygon fill="#63b8ff" stroke="#63b8ff" points="453.42,-331.29 463.99,-330.68 455.34,-324.56 453.42,-331.29"/>
</a>
</g>
</g>
<!-- Node9 -->
<g id="Node000009" class="node">
<title>Node9</title>
<g id="a_Node000009"><a xlink:href="../../dd/d91/vec2_8hpp.html" target="_top" xlink:title="Defines a 2D vector and provides its operations.">
<polygon fill="white" stroke="#666666" points="488.12,-295.5 379.88,-295.5 379.88,-276.25 488.12,-276.25 488.12,-295.5"/>
<text text-anchor="middle" x="434" y="-282" font-family="Times,serif" font-size="10.00">include/math/vec2.hpp</text>
</a>
</g>
</g>
<!-- Node3&#45;&gt;Node9 -->
<g id="edge14_Node000003_Node000009" class="edge">
<title>Node3&#45;&gt;Node9</title>
<g id="a_edge14_Node000003_Node000009"><a xlink:title=" ">
<path fill="none" stroke="#63b8ff" d="M471.91,-324.19C459.97,-314.89 446.85,-303.51 439.34,-295.77"/>
<polygon fill="#63b8ff" stroke="#63b8ff" points="469.79,-326.98 479.89,-330.18 473.99,-321.38 469.79,-326.98"/>
</a>
</g>
</g>
<!-- Node11 -->
<g id="Node000011" class="node">
<title>Node11</title>
<g id="a_Node000011"><a xlink:href="../../d9/dcd/vec3_8hpp.html" target="_top" xlink:title="Header file for the 3D vector definition.">
<polygon fill="white" stroke="#666666" points="614.12,-295.5 505.88,-295.5 505.88,-276.25 614.12,-276.25 614.12,-295.5"/>
<text text-anchor="middle" x="560" y="-282" font-family="Times,serif" font-size="10.00">include/math/vec3.hpp</text>
</a>
</g>
</g>
<!-- Node3&#45;&gt;Node11 -->
<g id="edge18_Node000003_Node000011" class="edge">
<title>Node3&#45;&gt;Node11</title>
<g id="a_edge18_Node000003_Node000011"><a xlink:title=" ">
<path fill="none" stroke="#63b8ff" d="M510.25,-323.6C520.22,-314.45 533.63,-303.43 544.16,-295.86"/>
<polygon fill="#63b8ff" stroke="#63b8ff" points="508.09,-320.82 503.33,-330.28 512.95,-325.86 508.09,-320.82"/>
</a>
</g>
</g>
<!-- Node13 -->
<g id="Node000013" class="node">
<title>Node13</title>
<g id="a_Node000013"><a xlink:href="../../dd/dc5/vec4_8hpp.html" target="_top" xlink:title="Contains the definition of the vec&lt;4, T&gt; structure.">
<polygon fill="white" stroke="#666666" points="740.12,-295.5 631.88,-295.5 631.88,-276.25 740.12,-276.25 740.12,-295.5"/>
<text text-anchor="middle" x="686" y="-282" font-family="Times,serif" font-size="10.00">include/math/vec4.hpp</text>
</a>
</g>
</g>
<!-- Node3&#45;&gt;Node13 -->
<g id="edge22_Node000003_Node000013" class="edge">
<title>Node3&#45;&gt;Node13</title>
<g id="a_edge22_Node000003_Node000013"><a xlink:title=" ">
<path fill="none" stroke="#63b8ff" d="M534.46,-327.94C567.57,-318.2 615.45,-304.77 648.56,-295.95"/>
<polygon fill="#63b8ff" stroke="#63b8ff" points="533.89,-324.46 525.3,-330.66 535.88,-331.17 533.89,-324.46"/>
</a>
</g>
</g>
<!-- Node15 -->
<g id="Node000015" class="node">
<title>Node15</title>
<g id="a_Node000015"><a xlink:href="../../df/dc2/vec__math_8hpp.html" target="_top" xlink:title="Contains a collection of mathematical operations and utility functions for vector objects.">
<polygon fill="white" stroke="#666666" points="913.25,-295.5 784.75,-295.5 784.75,-276.25 913.25,-276.25 913.25,-295.5"/>
<text text-anchor="middle" x="849" y="-282" font-family="Times,serif" font-size="10.00">include/math/vec_math.hpp</text>
</a>
</g>
</g>
<!-- Node3&#45;&gt;Node15 -->
<g id="edge26_Node000003_Node000015" class="edge">
<title>Node3&#45;&gt;Node15</title>
<g id="a_edge26_Node000003_Node000015"><a xlink:title=" ">
<path fill="none" stroke="#63b8ff" d="M560.22,-330.56C625.06,-320.75 725.19,-305.6 788.88,-295.97"/>
<polygon fill="#63b8ff" stroke="#63b8ff" points="559.8,-327.08 550.44,-332.04 560.85,-334.01 559.8,-327.08"/>
</a>
</g>
</g>
<!-- Node36 -->
<g id="Node000036" class="node">
<title>Node36</title>
<g id="a_Node000036"><a xlink:href="../../d4/d02/vecn_8hpp.html" target="_top" xlink:title="Contains the definition of the generic vec&lt;L, T&gt; structure.">
<polygon fill="white" stroke="#666666" points="1093.12,-295.5 984.88,-295.5 984.88,-276.25 1093.12,-276.25 1093.12,-295.5"/>
<text text-anchor="middle" x="1039" y="-282" font-family="Times,serif" font-size="10.00">include/math/vecn.hpp</text>
</a>
</g>
</g>
<!-- Node3&#45;&gt;Node36 -->
<g id="edge64_Node000003_Node000036" class="edge">
<title>Node3&#45;&gt;Node36</title>
<g id="a_edge64_Node000003_Node000036"><a xlink:title=" ">
<path fill="none" stroke="#63b8ff" d="M559.94,-333.48C667.28,-322.65 883.69,-301.4 984.77,-291.8"/>
<polygon fill="#63b8ff" stroke="#63b8ff" points="559.76,-329.99 550.16,-334.47 560.46,-336.95 559.76,-329.99"/>
</a>
</g>
</g>
<!-- Node4&#45;&gt;Node3 -->
<g id="edge7_Node000004_Node000003" class="edge">
<title>Node4&#45;&gt;Node3</title>
<g id="a_edge7_Node000004_Node000003"><a xlink:title=" ">
<path fill="none" stroke="#63b8ff" d="M123.82,-294.73C125.9,-294.99 127.97,-295.25 130,-295.5 269.71,-312.75 305.16,-313.63 444.59,-331.45"/>
<polygon fill="#63b8ff" stroke="#63b8ff" points="124.35,-291.27 113.99,-293.48 123.47,-298.21 124.35,-291.27"/>
</a>
</g>
</g>
<!-- Node5 -->
<g id="Node000005" class="node">
<title>Node5</title>
<g id="a_Node000005"><a xlink:href="../../dd/d72/rvec2_8inl.html" target="_top" xlink:title=" ">
<polygon fill="white" stroke="#666666" points="109.38,-240.25 2.63,-240.25 2.63,-221 109.38,-221 109.38,-240.25"/>
<text text-anchor="middle" x="56" y="-226.75" font-family="Times,serif" font-size="10.00">include/math/rvec2.inl</text>
</a>
</g>
</g>
<!-- Node4&#45;&gt;Node5 -->
<g id="edge5_Node000004_Node000005" class="edge">
<title>Node4&#45;&gt;Node5</title>
<g id="a_edge5_Node000004_Node000005"><a xlink:title=" ">
<path fill="none" stroke="#63b8ff" d="M49.44,-264.92C48.95,-256.55 49.4,-247.25 50.79,-240.61"/>
<polygon fill="#63b8ff" stroke="#63b8ff" points="45.94,-265.09 50.65,-274.58 52.88,-264.22 45.94,-265.09"/>
</a>
</g>
</g>
<!-- Node5&#45;&gt;Node4 -->
<g id="edge6_Node000005_Node000004" class="edge">
<title>Node5&#45;&gt;Node4</title>
<g id="a_edge6_Node000005_Node000004"><a xlink:title=" ">
<path fill="none" stroke="#63b8ff" d="M62.57,-251.82C63.04,-260.21 62.58,-269.49 61.17,-276.08"/>
<polygon fill="#63b8ff" stroke="#63b8ff" points="66.07,-251.62 61.39,-242.11 59.12,-252.46 66.07,-251.62"/>
</a>
</g>
</g>
<!-- Node6&#45;&gt;Node3 -->
<g id="edge12_Node000006_Node000003" class="edge">
<title>Node6&#45;&gt;Node3</title>
<g id="a_edge12_Node000006_Node000003"><a xlink:title=" ">
<path fill="none" stroke="#63b8ff" d="M253.33,-297.46C312.39,-307.27 396.69,-321.72 449.12,-331.03"/>
<polygon fill="#63b8ff" stroke="#63b8ff" points="254.17,-294.05 243.73,-295.87 253.03,-300.96 254.17,-294.05"/>
</a>
</g>
</g>
<!-- Node7 -->
<g id="Node000007" class="node">
<title>Node7</title>
<g id="a_Node000007"><a xlink:href="../../d1/d9f/rvec4_8inl.html" target="_top" xlink:title=" ">
<polygon fill="white" stroke="#666666" points="239.38,-240.25 132.62,-240.25 132.62,-221 239.38,-221 239.38,-240.25"/>
<text text-anchor="middle" x="186" y="-226.75" font-family="Times,serif" font-size="10.00">include/math/rvec4.inl</text>
</a>
</g>
</g>
<!-- Node6&#45;&gt;Node7 -->
<g id="edge10_Node000006_Node000007" class="edge">
<title>Node6&#45;&gt;Node7</title>
<g id="a_edge10_Node000006_Node000007"><a xlink:title=" ">
<path fill="none" stroke="#63b8ff" d="M179.44,-264.92C178.95,-256.55 179.4,-247.25 180.79,-240.61"/>
<polygon fill="#63b8ff" stroke="#63b8ff" points="175.94,-265.09 180.65,-274.58 182.88,-264.22 175.94,-265.09"/>
</a>
</g>
</g>
<!-- Node7&#45;&gt;Node6 -->
<g id="edge11_Node000007_Node000006" class="edge">
<title>Node7&#45;&gt;Node6</title>
<g id="a_edge11_Node000007_Node000006"><a xlink:title=" ">
<path fill="none" stroke="#63b8ff" d="M192.57,-251.82C193.04,-260.21 192.58,-269.49 191.17,-276.08"/>
<polygon fill="#63b8ff" stroke="#63b8ff" points="196.07,-251.62 191.39,-242.11 189.12,-252.46 196.07,-251.62"/>
</a>
</g>
</g>
<!-- Node9&#45;&gt;Node3 -->
<g id="edge15_Node000009_Node000003" class="edge">
<title>Node9&#45;&gt;Node3</title>
<g id="a_edge15_Node000009_Node000003"><a xlink:title=" ">
<path fill="none" stroke="#63b8ff" d="M458.71,-302.51C470.8,-311.91 484.19,-323.52 491.76,-331.33"/>
<polygon fill="#63b8ff" stroke="#63b8ff" points="461.15,-299.96 451.05,-296.77 456.95,-305.57 461.15,-299.96"/>
</a>
</g>
</g>
<!-- Node10 -->
<g id="Node000010" class="node">
<title>Node10</title>
<g id="a_Node000010"><a xlink:href="../../d2/d56/vec2_8inl.html" target="_top" xlink:title=" ">
<polygon fill="white" stroke="#666666" points="485.5,-240.25 382.5,-240.25 382.5,-221 485.5,-221 485.5,-240.25"/>
<text text-anchor="middle" x="434" y="-226.75" font-family="Times,serif" font-size="10.00">include/math/vec2.inl</text>
</a>
</g>
</g>
<!-- Node9&#45;&gt;Node10 -->
<g id="edge16_Node000009_Node000010" class="edge">
<title>Node9&#45;&gt;Node10</title>
<g id="a_edge16_Node000009_Node000010"><a xlink:title=" ">
<path fill="none" stroke="#63b8ff" d="M427.44,-264.92C426.95,-256.55 427.4,-247.25 428.79,-240.61"/>
<polygon fill="#63b8ff" stroke="#63b8ff" points="423.94,-265.09 428.65,-274.58 430.88,-264.22 423.94,-265.09"/>
</a>
</g>
</g>
<!-- Node10&#45;&gt;Node9 -->
<g id="edge17_Node000010_Node000009" class="edge">
<title>Node10&#45;&gt;Node9</title>
<g id="a_edge17_Node000010_Node000009"><a xlink:title=" ">
<path fill="none" stroke="#63b8ff" d="M440.57,-251.82C441.04,-260.21 440.58,-269.49 439.17,-276.08"/>
<polygon fill="#63b8ff" stroke="#63b8ff" points="444.07,-251.62 439.39,-242.11 437.12,-252.46 444.07,-251.62"/>
</a>
</g>
</g>
<!-- Node11&#45;&gt;Node3 -->
<g id="edge19_Node000011_Node000003" class="edge">
<title>Node11&#45;&gt;Node3</title>
<g id="a_edge19_Node000011_Node000003"><a xlink:title=" ">
<path fill="none" stroke="#63b8ff" d="M546.66,-303.48C536.72,-312.6 523.4,-323.55 512.9,-331.09"/>
<polygon fill="#63b8ff" stroke="#63b8ff" points="548.8,-306.28 553.57,-296.82 543.94,-301.24 548.8,-306.28"/>
</a>
</g>
</g>
<!-- Node12 -->
<g id="Node000012" class="node">
<title>Node12</title>
<g id="a_Node000012"><a xlink:href="../../d3/dc9/vec3_8inl.html" target="_top" xlink:title=" ">
<polygon fill="white" stroke="#666666" points="611.5,-240.25 508.5,-240.25 508.5,-221 611.5,-221 611.5,-240.25"/>
<text text-anchor="middle" x="560" y="-226.75" font-family="Times,serif" font-size="10.00">include/math/vec3.inl</text>
</a>
</g>
</g>
<!-- Node11&#45;&gt;Node12 -->
<g id="edge20_Node000011_Node000012" class="edge">
<title>Node11&#45;&gt;Node12</title>
<g id="a_edge20_Node000011_Node000012"><a xlink:title=" ">
<path fill="none" stroke="#63b8ff" d="M553.44,-264.92C552.95,-256.55 553.4,-247.25 554.79,-240.61"/>
<polygon fill="#63b8ff" stroke="#63b8ff" points="549.94,-265.09 554.65,-274.58 556.88,-264.22 549.94,-265.09"/>
</a>
</g>
</g>
<!-- Node12&#45;&gt;Node11 -->
<g id="edge21_Node000012_Node000011" class="edge">
<title>Node12&#45;&gt;Node11</title>
<g id="a_edge21_Node000012_Node000011"><a xlink:title=" ">
<path fill="none" stroke="#63b8ff" d="M566.57,-251.82C567.04,-260.21 566.58,-269.49 565.17,-276.08"/>
<polygon fill="#63b8ff" stroke="#63b8ff" points="570.07,-251.62 565.39,-242.11 563.12,-252.46 570.07,-251.62"/>
</a>
</g>
</g>
<!-- Node13&#45;&gt;Node3 -->
<g id="edge23_Node000013_Node000003" class="edge">
<title>Node13&#45;&gt;Node3</title>
<g id="a_edge23_Node000013_Node000003"><a xlink:title=" ">
<path fill="none" stroke="#63b8ff" d="M648.37,-299.11C615.21,-308.86 567.34,-322.29 534.28,-331.09"/>
<polygon fill="#63b8ff" stroke="#63b8ff" points="648.96,-302.58 657.56,-296.38 646.97,-295.87 648.96,-302.58"/>
</a>
</g>
</g>
<!-- Node14 -->
<g id="Node000014" class="node">
<title>Node14</title>
<g id="a_Node000014"><a xlink:href="../../da/d28/vec4_8inl.html" target="_top" xlink:title=" ">
<polygon fill="white" stroke="#666666" points="732.5,-240.25 629.5,-240.25 629.5,-221 732.5,-221 732.5,-240.25"/>
<text text-anchor="middle" x="681" y="-226.75" font-family="Times,serif" font-size="10.00">include/math/vec4.inl</text>
</a>
</g>
</g>
<!-- Node13&#45;&gt;Node14 -->
<g id="edge24_Node000013_Node000014" class="edge">
<title>Node13&#45;&gt;Node14</title>
<g id="a_edge24_Node000013_Node000014"><a xlink:title=" ">
<path fill="none" stroke="#63b8ff" d="M677.57,-264.92C676.29,-256.55 675.87,-247.25 676.64,-240.61"/>
<polygon fill="#63b8ff" stroke="#63b8ff" points="674.13,-265.58 679.68,-274.6 680.97,-264.09 674.13,-265.58"/>
</a>
</g>
</g>
<!-- Node14&#45;&gt;Node13 -->
<g id="edge25_Node000014_Node000013" class="edge">
<title>Node14&#45;&gt;Node13</title>
<g id="a_edge25_Node000014_Node000013"><a xlink:title=" ">
<path fill="none" stroke="#63b8ff" d="M689.47,-251.82C690.73,-260.21 691.13,-269.49 690.34,-276.08"/>
<polygon fill="#63b8ff" stroke="#63b8ff" points="692.9,-251.13 687.37,-242.09 686.06,-252.6 692.9,-251.13"/>
</a>
</g>
</g>
<!-- Node16 -->
<g id="Node000016" class="node">
<title>Node16</title>
<g id="a_Node000016"><a xlink:href="../../dc/dc2/mat_8hpp.html" target="_top" xlink:title="Provides matrix definitions tailored for various sizes and primitive types.">
<polygon fill="white" stroke="#666666" points="855.25,-240.25 750.75,-240.25 750.75,-221 855.25,-221 855.25,-240.25"/>
<text text-anchor="middle" x="803" y="-226.75" font-family="Times,serif" font-size="10.00">include/math/mat.hpp</text>
</a>
</g>
</g>
<!-- Node15&#45;&gt;Node16 -->
<g id="edge27_Node000015_Node000016" class="edge">
<title>Node15&#45;&gt;Node16</title>
<g id="a_edge27_Node000015_Node000016"><a xlink:title=" ">
<path fill="none" stroke="#63b8ff" d="M834,-267.51C826.24,-258.53 817.1,-247.95 810.76,-240.61"/>
<polygon fill="#63b8ff" stroke="#63b8ff" points="831.23,-269.66 840.41,-274.94 836.53,-265.08 831.23,-269.66"/>
</a>
</g>
</g>
<!-- Node35 -->
<g id="Node000035" class="node">
<title>Node35</title>
<g id="a_Node000035"><a xlink:href="../../dc/d15/vec__math_8inl.html" target="_top" xlink:title=" ">
<polygon fill="white" stroke="#666666" points="996.62,-240.25 873.38,-240.25 873.38,-221 996.62,-221 996.62,-240.25"/>
<text text-anchor="middle" x="935" y="-226.75" font-family="Times,serif" font-size="10.00">include/math/vec_math.inl</text>
</a>
</g>
</g>
<!-- Node15&#45;&gt;Node35 -->
<g id="edge62_Node000015_Node000035" class="edge">
<title>Node15&#45;&gt;Node35</title>
<g id="a_edge62_Node000015_Node000035"><a xlink:title=" ">
<path fill="none" stroke="#63b8ff" d="M867.6,-269.53C881.67,-260.2 900.73,-248.6 915.11,-240.7"/>
<polygon fill="#63b8ff" stroke="#63b8ff" points="865.9,-266.45 859.62,-274.99 869.85,-272.23 865.9,-266.45"/>
</a>
</g>
</g>
<!-- Node17 -->
<g id="Node000017" class="node">
<title>Node17</title>
<g id="a_Node000017"><a xlink:href="../../d4/d78/math_8hpp.html" target="_top" xlink:title="Provides various mathematical utilities, vector operations, and custom hash specializations.">
<polygon fill="white" stroke="#666666" points="917.25,-129.75 830.75,-129.75 830.75,-110.5 917.25,-110.5 917.25,-129.75"/>
<text text-anchor="middle" x="874" y="-116.25" font-family="Times,serif" font-size="10.00">include/math.hpp</text>
</a>
</g>
</g>
<!-- Node16&#45;&gt;Node17 -->
<g id="edge28_Node000016_Node000017" class="edge">
<title>Node16&#45;&gt;Node17</title>
<g id="a_edge28_Node000016_Node000017"><a xlink:title=" ">
<path fill="none" stroke="#63b8ff" d="M838.17,-215.44C851.13,-208.33 864.47,-198.33 872,-185 881.82,-167.61 878.82,-143.1 876.17,-130.07"/>
<polygon fill="#63b8ff" stroke="#63b8ff" points="836.71,-212.26 829.34,-219.86 839.84,-218.52 836.71,-212.26"/>
</a>
</g>
</g>
<!-- Node25 -->
<g id="Node000025" class="node">
<title>Node25</title>
<g id="a_Node000025"><a xlink:href="../../d1/dea/mat_8cpp.html" target="_top" xlink:title=" ">
<polygon fill="white" stroke="#666666" points="724.88,-185 621.12,-185 621.12,-165.75 724.88,-165.75 724.88,-185"/>
<text text-anchor="middle" x="673" y="-171.5" font-family="Times,serif" font-size="10.00">include/math/mat.cpp</text>
</a>
</g>
</g>
<!-- Node16&#45;&gt;Node25 -->
<g id="edge44_Node000016_Node000025" class="edge">
<title>Node16&#45;&gt;Node25</title>
<g id="a_edge44_Node000016_Node000025"><a xlink:title=" ">
<path fill="none" stroke="#63b8ff" d="M770.43,-216.28C746.93,-206.66 715.83,-193.92 695.16,-185.45"/>
<polygon fill="#63b8ff" stroke="#63b8ff" points="768.97,-219.47 779.55,-220.02 771.62,-212.99 768.97,-219.47"/>
</a>
</g>
</g>
<!-- Node26 -->
<g id="Node000026" class="node">
<title>Node26</title>
<g id="a_Node000026"><a xlink:href="../../dc/d4a/mat__math_8hpp.html" target="_top" xlink:title="Defines various matrix mathematical operations.">
<polygon fill="white" stroke="#666666" points="603,-185 473,-185 473,-165.75 603,-165.75 603,-185"/>
<text text-anchor="middle" x="538" y="-171.5" font-family="Times,serif" font-size="10.00">include/math/mat_math.hpp</text>
</a>
</g>
</g>
<!-- Node16&#45;&gt;Node26 -->
<g id="edge45_Node000016_Node000026" class="edge">
<title>Node16&#45;&gt;Node26</title>
<g id="a_edge45_Node000016_Node000026"><a xlink:title=" ">
<path fill="none" stroke="#63b8ff" d="M741.43,-218.38C691,-208.58 621.24,-194.53 577.85,-185.43"/>
<polygon fill="#63b8ff" stroke="#63b8ff" points="740.55,-221.78 751.03,-220.24 741.88,-214.91 740.55,-221.78"/>
</a>
</g>
</g>
<!-- Node28 -->
<g id="Node000028" class="node">
<title>Node28</title>
<g id="a_Node000028"><a xlink:href="../../dd/dad/matnxn_8hpp.html" target="_top" xlink:title="Provides the definition of a generic NxN matrix for mathematical operations.">
<polygon fill="white" stroke="#666666" points="862.75,-185 743.25,-185 743.25,-165.75 862.75,-165.75 862.75,-185"/>
<text text-anchor="middle" x="803" y="-171.5" font-family="Times,serif" font-size="10.00">include/math/matnxn.hpp</text>
</a>
</g>
</g>
<!-- Node16&#45;&gt;Node28 -->
<g id="edge49_Node000016_Node000028" class="edge">
<title>Node16&#45;&gt;Node28</title>
<g id="a_edge49_Node000016_Node000028"><a xlink:title=" ">
<path fill="none" stroke="#63b8ff" d="M796.44,-209.67C795.95,-201.3 796.4,-192 797.79,-185.36"/>
<polygon fill="#63b8ff" stroke="#63b8ff" points="792.94,-209.84 797.65,-219.33 799.88,-208.97 792.94,-209.84"/>
</a>
</g>
</g>
<!-- Node30 -->
<g id="Node000030" class="node">
<title>Node30</title>
<g id="a_Node000030"><a xlink:href="../../db/d65/quaternion_8hpp.html" target="_top" xlink:title="Quaternion operations and related mathematical functions.">
<polygon fill="white" stroke="#666666" points="1067.12,-185 934.88,-185 934.88,-165.75 1067.12,-165.75 1067.12,-185"/>
<text text-anchor="middle" x="1001" y="-171.5" font-family="Times,serif" font-size="10.00">include/math/quaternion.hpp</text>
</a>
</g>
</g>
<!-- Node16&#45;&gt;Node30 -->
<g id="edge53_Node000016_Node000030" class="edge">
<title>Node16&#45;&gt;Node30</title>
<g id="a_edge53_Node000016_Node000030"><a xlink:title=" ">
<path fill="none" stroke="#63b8ff" d="M847.36,-217.7C883.64,-207.94 934.19,-194.34 967.25,-185.45"/>
<polygon fill="#63b8ff" stroke="#63b8ff" points="846.8,-214.22 838.05,-220.2 848.62,-220.98 846.8,-214.22"/>
</a>
</g>
</g>
<!-- Node33 -->
<g id="Node000033" class="node">
<title>Node33</title>
<g id="a_Node000033"><a xlink:href="../../db/de9/rmatnxn_8hpp.html" target="_top" xlink:title="Specialized representation of matrices using reference semantics.">
<polygon fill="white" stroke="#666666" points="1279.62,-185 1156.38,-185 1156.38,-165.75 1279.62,-165.75 1279.62,-185"/>
<text text-anchor="middle" x="1218" y="-171.5" font-family="Times,serif" font-size="10.00">include/math/rmatnxn.hpp</text>
</a>
</g>
</g>
<!-- Node16&#45;&gt;Node33 -->
<g id="edge58_Node000016_Node000033" class="edge">
<title>Node16&#45;&gt;Node33</title>
<g id="a_edge58_Node000016_Node000033"><a xlink:title=" ">
<path fill="none" stroke="#63b8ff" d="M866.62,-219.45C969.29,-205.81 1086.16,-191.35 1155.98,-183.14"/>
<polygon fill="#63b8ff" stroke="#63b8ff" points="866.41,-215.95 856.96,-220.74 867.34,-222.89 866.41,-215.95"/>
</a>
</g>
</g>
<!-- Node18 -->
<g id="Node000018" class="node">
<title>Node18</title>
<g id="a_Node000018"><a xlink:href="../../d7/de4/box_8hpp.html" target="_top" xlink:title="Defines a templated bounding box class for 3D primitives.">
<polygon fill="white" stroke="#666666" points="597.88,-74.5 494.12,-74.5 494.12,-55.25 597.88,-55.25 597.88,-74.5"/>
<text text-anchor="middle" x="546" y="-61" font-family="Times,serif" font-size="10.00">include/math/box.hpp</text>
</a>
</g>
</g>
<!-- Node17&#45;&gt;Node18 -->
<g id="edge29_Node000017_Node000018" class="edge">
<title>Node17&#45;&gt;Node18</title>
<g id="a_edge29_Node000017_Node000018"><a xlink:title=" ">
<path fill="none" stroke="#63b8ff" d="M819.15,-111.51C817.07,-111.17 815.01,-110.83 813,-110.5 737.2,-98.09 649.64,-83.97 595.96,-75"/>
<polygon fill="#63b8ff" stroke="#63b8ff" points="818.52,-114.95 828.95,-113.11 819.65,-108.04 818.52,-114.95"/>
</a>
</g>
</g>
<!-- Node19 -->
<g id="Node000019" class="node">
<title>Node19</title>
<g id="a_Node000019"><a xlink:href="../../d6/d02/intersection_8hpp.html" target="_top" xlink:title="Provides functionalities to represent and handle intersections in 3D space.">
<polygon fill="white" stroke="#666666" points="752,-74.5 616,-74.5 616,-55.25 752,-55.25 752,-74.5"/>
<text text-anchor="middle" x="684" y="-61" font-family="Times,serif" font-size="10.00">include/math/intersection.hpp</text>
</a>
</g>
</g>
<!-- Node17&#45;&gt;Node19 -->
<g id="edge31_Node000017_Node000019" class="edge">
<title>Node17&#45;&gt;Node19</title>
<g id="a_edge31_Node000017_Node000019"><a xlink:title=" ">
<path fill="none" stroke="#63b8ff" d="M825.7,-107.2C789.37,-97.44 741.04,-83.84 711.16,-74.95"/>
<polygon fill="#63b8ff" stroke="#63b8ff" points="824.53,-110.51 835.09,-109.7 826.33,-103.74 824.53,-110.51"/>
</a>
</g>
</g>
<!-- Node21 -->
<g id="Node000021" class="node">
<title>Node21</title>
<g id="a_Node000021"><a xlink:href="../../d1/df2/random_8hpp.html" target="_top" xlink:title="Provides functionality for random number generation and manipulation in vector spaces.">
<polygon fill="white" stroke="#666666" points="889.75,-74.5 770.25,-74.5 770.25,-55.25 889.75,-55.25 889.75,-74.5"/>
<text text-anchor="middle" x="830" y="-61" font-family="Times,serif" font-size="10.00">include/math/random.hpp</text>
</a>
</g>
</g>
<!-- Node17&#45;&gt;Node21 -->
<g id="edge35_Node000017_Node000021" class="edge">
<title>Node17&#45;&gt;Node21</title>
<g id="a_edge35_Node000017_Node000021"><a xlink:title=" ">
<path fill="none" stroke="#63b8ff" d="M853.79,-102.32C845.45,-93.23 836.84,-82.35 832.22,-74.86"/>
<polygon fill="#63b8ff" stroke="#63b8ff" points="851.04,-104.51 860.51,-109.25 856.06,-99.63 851.04,-104.51"/>
</a>
</g>
</g>
<!-- Node22 -->
<g id="Node000022" class="node">
<title>Node22</title>
<g id="a_Node000022"><a xlink:href="../../db/d1d/ray_8hpp.html" target="_top" xlink:title="Contains the definition of the Ray class.">
<polygon fill="white" stroke="#666666" points="1185.75,-74.5 1084.25,-74.5 1084.25,-55.25 1185.75,-55.25 1185.75,-74.5"/>
<text text-anchor="middle" x="1135" y="-61" font-family="Times,serif" font-size="10.00">include/math/ray.hpp</text>
</a>
</g>
</g>
<!-- Node17&#45;&gt;Node22 -->
<g id="edge37_Node000017_Node000022" class="edge">
<title>Node17&#45;&gt;Node22</title>
<g id="a_edge37_Node000017_Node000022"><a xlink:title=" ">
<path fill="none" stroke="#63b8ff" d="M924.35,-107.7C970.79,-97.9 1039.19,-83.97 1085.39,-74.93"/>
<polygon fill="#63b8ff" stroke="#63b8ff" points="923.88,-104.22 914.82,-109.72 925.33,-111.07 923.88,-104.22"/>
</a>
</g>
</g>
<!-- Node24 -->
<g id="Node000024" class="node">
<title>Node24</title>
<g id="a_Node000024"><a xlink:href="../../d9/d6c/triangle_8hpp.html" target="_top" xlink:title="Defines the Triangle structure and methods for ray&#45;triangle intersection.">
<polygon fill="white" stroke="#666666" points="1065.75,-74.5 946.25,-74.5 946.25,-55.25 1065.75,-55.25 1065.75,-74.5"/>
<text text-anchor="middle" x="1006" y="-61" font-family="Times,serif" font-size="10.00">include/math/triangle.hpp</text>
</a>
</g>
</g>
<!-- Node17&#45;&gt;Node24 -->
<g id="edge42_Node000017_Node000024" class="edge">
<title>Node17&#45;&gt;Node24</title>
<g id="a_edge42_Node000017_Node000024"><a xlink:title=" ">
<path fill="none" stroke="#63b8ff" d="M901.44,-105.65C924,-96.04 955.63,-83.38 978.27,-74.95"/>
<polygon fill="#63b8ff" stroke="#63b8ff" points="900.35,-102.31 892.56,-109.49 903.13,-108.73 900.35,-102.31"/>
</a>
</g>
</g>
<!-- Node18&#45;&gt;Node17 -->
<g id="edge30_Node000018_Node000017" class="edge">
<title>Node18&#45;&gt;Node17</title>
<g id="a_edge30_Node000018_Node000017"><a xlink:title=" ">
<path fill="none" stroke="#63b8ff" d="M609.29,-74.93C667.04,-83.87 754.46,-97.97 830.28,-110.38"/>
<polygon fill="#63b8ff" stroke="#63b8ff" points="610.06,-71.51 599.65,-73.44 609,-78.43 610.06,-71.51"/>
</a>
</g>
</g>
<!-- Node19&#45;&gt;Node17 -->
<g id="edge32_Node000019_Node000017" class="edge">
<title>Node19&#45;&gt;Node17</title>
<g id="a_edge32_Node000019_Node000017"><a xlink:title=" ">
<path fill="none" stroke="#63b8ff" d="M732.48,-77.85C768.85,-87.62 817.17,-101.22 846.99,-110.09"/>
<polygon fill="#63b8ff" stroke="#63b8ff" points="733.64,-74.54 723.08,-75.34 731.84,-81.3 733.64,-74.54"/>
</a>
</g>
</g>
<!-- Node20 -->
<g id="Node000020" class="node">
<title>Node20</title>
<g id="a_Node000020"><a xlink:href="../../d7/d82/plane_8hpp.html" target="_top" xlink:title="Provides the definition of the Plane structure and its associated operations.">
<polygon fill="white" stroke="#666666" points="973.25,-19.25 862.75,-19.25 862.75,0 973.25,0 973.25,-19.25"/>
<text text-anchor="middle" x="918" y="-5.75" font-family="Times,serif" font-size="10.00">include/math/plane.hpp</text>
</a>
</g>
</g>
<!-- Node19&#45;&gt;Node20 -->
<g id="edge33_Node000019_Node000020" class="edge">
<title>Node19&#45;&gt;Node20</title>
<g id="a_edge33_Node000019_Node000020"><a xlink:title=" ">
<path fill="none" stroke="#63b8ff" d="M735.04,-52.26C778.05,-42.47 838.72,-28.67 878.2,-19.68"/>
<polygon fill="#63b8ff" stroke="#63b8ff" points="734.41,-48.81 725.44,-54.45 735.96,-55.64 734.41,-48.81"/>
</a>
</g>
</g>
<!-- Node20&#45;&gt;Node17 -->
<g id="edge34_Node000020_Node000017" class="edge">
<title>Node20&#45;&gt;Node17</title>
<g id="a_edge34_Node000020_Node000017"><a xlink:title=" ">
<path fill="none" stroke="#63b8ff" d="M913.35,-30.33C910.02,-43.16 905.08,-60.12 899,-74.5 893.54,-87.42 885.29,-101.39 879.78,-110.19"/>
<polygon fill="#63b8ff" stroke="#63b8ff" points="916.65,-31.53 915.65,-20.99 909.86,-29.86 916.65,-31.53"/>
</a>
</g>
</g>
<!-- Node21&#45;&gt;Node17 -->
<g id="edge36_Node000021_Node000017" class="edge">
<title>Node21&#45;&gt;Node17</title>
<g id="a_edge36_Node000021_Node000017"><a xlink:title=" ">
<path fill="none" stroke="#63b8ff" d="M850.42,-82.91C858.77,-92.04 867.35,-102.9 871.9,-110.33"/>
<polygon fill="#63b8ff" stroke="#63b8ff" points="853.15,-80.7 843.68,-75.95 848.12,-85.57 853.15,-80.7"/>
</a>
</g>
</g>
<!-- Node22&#45;&gt;Node17 -->
<g id="edge38_Node000022_Node000017" class="edge">
<title>Node22&#45;&gt;Node17</title>
<g id="a_edge38_Node000022_Node000017"><a xlink:title=" ">
<path fill="none" stroke="#63b8ff" d="M1084.68,-77.3C1036.14,-87.54 963.57,-102.3 917.47,-111.27"/>
<polygon fill="#63b8ff" stroke="#63b8ff" points="1085.33,-80.74 1094.39,-75.24 1083.88,-73.89 1085.33,-80.74"/>
</a>
</g>
</g>
<!-- Node22&#45;&gt;Node20 -->
<g id="edge39_Node000022_Node000020" class="edge">
<title>Node22&#45;&gt;Node20</title>
<g id="a_edge39_Node000022_Node000020"><a xlink:title=" ">
<path fill="none" stroke="#63b8ff" d="M1087.16,-52.13C1047.34,-42.36 991.45,-28.65 954.99,-19.7"/>
<polygon fill="#63b8ff" stroke="#63b8ff" points="1086.17,-55.5 1096.72,-54.48 1087.84,-48.7 1086.17,-55.5"/>
</a>
</g>
</g>
<!-- Node23 -->
<g id="Node000023" class="node">
<title>Node23</title>
<g id="a_Node000023"><a xlink:href="../../d0/da1/sphere_8hpp.html" target="_top" xlink:title="Defines the Sphere structure and its associated functionality.">
<polygon fill="white" stroke="#666666" points="1231.88,-19.25 1116.12,-19.25 1116.12,0 1231.88,0 1231.88,-19.25"/>
<text text-anchor="middle" x="1174" y="-5.75" font-family="Times,serif" font-size="10.00">include/math/sphere.hpp</text>
</a>
</g>
</g>
<!-- Node22&#45;&gt;Node23 -->
<g id="edge40_Node000022_Node000023" class="edge">
<title>Node22&#45;&gt;Node23</title>
<g id="a_edge40_Node000022_Node000023"><a xlink:title=" ">
<path fill="none" stroke="#63b8ff" d="M1148.14,-45.94C1154.62,-37.09 1162.16,-26.79 1167.42,-19.61"/>
<polygon fill="#63b8ff" stroke="#63b8ff" points="1145.42,-43.73 1142.33,-53.86 1151.07,-47.86 1145.42,-43.73"/>
</a>
</g>
</g>
<!-- Node23&#45;&gt;Node17 -->
<g id="edge41_Node000023_Node000017" class="edge">
<title>Node23&#45;&gt;Node17</title>
<g id="a_edge41_Node000023_Node000017"><a xlink:title=" ">
<path fill="none" stroke="#63b8ff" d="M1188.43,-28.64C1197.76,-42.58 1206.26,-61.63 1195,-74.5 1155.28,-119.89 985.65,-101.56 926,-110.5 923.28,-110.91 920.49,-111.34 917.68,-111.78"/>
<polygon fill="#63b8ff" stroke="#63b8ff" points="1191.39,-26.75 1182.65,-20.76 1185.75,-30.9 1191.39,-26.75"/>
</a>
</g>
</g>
<!-- Node24&#45;&gt;Node17 -->
<g id="edge43_Node000024_Node000017" class="edge">
<title>Node24&#45;&gt;Node17</title>
<g id="a_edge43_Node000024_Node000017"><a xlink:title=" ">
<path fill="none" stroke="#63b8ff" d="M978.44,-79.4C955.85,-89.02 924.22,-101.68 901.61,-110.09"/>
<polygon fill="#63b8ff" stroke="#63b8ff" points="979.55,-82.73 987.34,-75.55 976.77,-76.31 979.55,-82.73"/>
</a>
</g>
</g>
<!-- Node26&#45;&gt;Node16 -->
<g id="edge46_Node000026_Node000016" class="edge">
<title>Node26&#45;&gt;Node16</title>
<g id="a_edge46_Node000026_Node000016"><a xlink:title=" ">
<path fill="none" stroke="#63b8ff" d="M599.37,-187.58C649.74,-197.37 719.51,-211.42 762.98,-220.53"/>
<polygon fill="#63b8ff" stroke="#63b8ff" points="600.26,-184.18 589.78,-185.72 598.93,-191.06 600.26,-184.18"/>
</a>
</g>
</g>
<!-- Node27 -->
<g id="Node000027" class="node">
<title>Node27</title>
<g id="a_Node000027"><a xlink:href="../../d7/dab/mat__math_8inl.html" target="_top" xlink:title=" ">
<polygon fill="white" stroke="#666666" points="600.38,-129.75 475.62,-129.75 475.62,-110.5 600.38,-110.5 600.38,-129.75"/>
<text text-anchor="middle" x="538" y="-116.25" font-family="Times,serif" font-size="10.00">include/math/mat_math.inl</text>
</a>
</g>
</g>
<!-- Node26&#45;&gt;Node27 -->
<g id="edge47_Node000026_Node000027" class="edge">
<title>Node26&#45;&gt;Node27</title>
<g id="a_edge47_Node000026_Node000027"><a xlink:title=" ">
<path fill="none" stroke="#63b8ff" d="M531.44,-154.42C530.95,-146.05 531.4,-136.75 532.79,-130.11"/>
<polygon fill="#63b8ff" stroke="#63b8ff" points="527.94,-154.59 532.65,-164.08 534.88,-153.72 527.94,-154.59"/>
</a>
</g>
</g>
<!-- Node27&#45;&gt;Node26 -->
<g id="edge48_Node000027_Node000026" class="edge">
<title>Node27&#45;&gt;Node26</title>
<g id="a_edge48_Node000027_Node000026"><a xlink:title=" ">
<path fill="none" stroke="#63b8ff" d="M544.57,-141.32C545.04,-149.71 544.58,-158.99 543.17,-165.58"/>
<polygon fill="#63b8ff" stroke="#63b8ff" points="548.07,-141.12 543.39,-131.61 541.12,-141.96 548.07,-141.12"/>
</a>
</g>
</g>
<!-- Node28&#45;&gt;Node16 -->
<g id="edge50_Node000028_Node000016" class="edge">
<title>Node28&#45;&gt;Node16</title>
<g id="a_edge50_Node000028_Node000016"><a xlink:title=" ">
<path fill="none" stroke="#63b8ff" d="M809.57,-196.57C810.04,-204.96 809.58,-214.24 808.17,-220.83"/>
<polygon fill="#63b8ff" stroke="#63b8ff" points="813.07,-196.37 808.39,-186.86 806.12,-197.21 813.07,-196.37"/>
</a>
</g>
</g>
<!-- Node29 -->
<g id="Node000029" class="node">
<title>Node29</title>
<g id="a_Node000029"><a xlink:href="../../d3/df6/matnxn_8inl.html" target="_top" xlink:title=" ">
<polygon fill="white" stroke="#666666" points="813.12,-129.75 698.88,-129.75 698.88,-110.5 813.12,-110.5 813.12,-129.75"/>
<text text-anchor="middle" x="756" y="-116.25" font-family="Times,serif" font-size="10.00">include/math/matnxn.inl</text>
</a>
</g>
</g>
<!-- Node28&#45;&gt;Node29 -->
<g id="edge51_Node000028_Node000029" class="edge">
<title>Node28&#45;&gt;Node29</title>
<g id="a_edge51_Node000028_Node000029"><a xlink:title=" ">
<path fill="none" stroke="#63b8ff" d="M781.61,-157.33C772.79,-148.25 763.65,-137.45 758.67,-130.02"/>
<polygon fill="#63b8ff" stroke="#63b8ff" points="779.13,-159.8 788.73,-164.28 784.02,-154.79 779.13,-159.8"/>
</a>
</g>
</g>
<!-- Node29&#45;&gt;Node28 -->
<g id="edge52_Node000029_Node000028" class="edge">
<title>Node29&#45;&gt;Node28</title>
<g id="a_edge52_Node000029_Node000028"><a xlink:title=" ">
<path fill="none" stroke="#63b8ff" d="M777.11,-137.88C786.05,-147.06 795.38,-158.07 800.41,-165.58"/>
<polygon fill="#63b8ff" stroke="#63b8ff" points="779.82,-135.64 770.22,-131.17 774.94,-140.65 779.82,-135.64"/>
</a>
</g>
</g>
<!-- Node30&#45;&gt;Node17 -->
<g id="edge54_Node000030_Node000017" class="edge">
<title>Node30&#45;&gt;Node17</title>
<g id="a_edge54_Node000030_Node000017"><a xlink:title=" ">
<path fill="none" stroke="#63b8ff" d="M968.87,-160.9C945.95,-151.29 915.75,-138.63 895.65,-130.2"/>
<polygon fill="#63b8ff" stroke="#63b8ff" points="967.48,-164.12 978.06,-164.76 970.19,-157.66 967.48,-164.12"/>
</a>
</g>
</g>
<!-- Node31 -->
<g id="Node000031" class="node">
<title>Node31</title>
<g id="a_Node000031"><a xlink:href="../../da/d59/quaternion_8cpp.html" target="_top" xlink:title=" ">
<polygon fill="white" stroke="#666666" points="1066.75,-129.75 935.25,-129.75 935.25,-110.5 1066.75,-110.5 1066.75,-129.75"/>
<text text-anchor="middle" x="1001" y="-116.25" font-family="Times,serif" font-size="10.00">include/math/quaternion.cpp</text>
</a>
</g>
</g>
<!-- Node30&#45;&gt;Node31 -->
<g id="edge55_Node000030_Node000031" class="edge">
<title>Node30&#45;&gt;Node31</title>
<g id="a_edge55_Node000030_Node000031"><a xlink:title=" ">
<path fill="none" stroke="#63b8ff" d="M1001,-154.13C1001,-145.84 1001,-136.67 1001,-130.11"/>
<polygon fill="#63b8ff" stroke="#63b8ff" points="997.5,-154.07 1001,-164.07 1004.5,-154.07 997.5,-154.07"/>
</a>
</g>
</g>
<!-- Node32 -->
<g id="Node000032" class="node">
<title>Node32</title>
<g id="a_Node000032"><a xlink:href="../../d8/d7f/quaternion_8inl.html" target="_top" xlink:title=" ">
<polygon fill="white" stroke="#666666" points="1211.5,-129.75 1084.5,-129.75 1084.5,-110.5 1211.5,-110.5 1211.5,-129.75"/>
<text text-anchor="middle" x="1148" y="-116.25" font-family="Times,serif" font-size="10.00">include/math/quaternion.inl</text>
</a>
</g>
</g>
<!-- Node30&#45;&gt;Node32 -->
<g id="edge56_Node000030_Node000032" class="edge">
<title>Node30&#45;&gt;Node32</title>
<g id="a_edge56_Node000030_Node000032"><a xlink:title=" ">
<path fill="none" stroke="#63b8ff" d="M1031.21,-161.29C1056.54,-151.64 1092.35,-138.75 1117.71,-130.2"/>
<polygon fill="#63b8ff" stroke="#63b8ff" points="1030.2,-157.93 1022.13,-164.8 1032.72,-164.46 1030.2,-157.93"/>
</a>
</g>
</g>
<!-- Node32&#45;&gt;Node30 -->
<g id="edge57_Node000032_Node000030" class="edge">
<title>Node32&#45;&gt;Node30</title>
<g id="a_edge57_Node000032_Node000030"><a xlink:title=" ">
<path fill="none" stroke="#63b8ff" d="M1117.66,-134.26C1092.29,-143.92 1056.48,-156.81 1031.15,-165.34"/>
<polygon fill="#63b8ff" stroke="#63b8ff" points="1118.69,-137.61 1126.76,-130.75 1116.17,-131.08 1118.69,-137.61"/>
</a>
</g>
</g>
<!-- Node33&#45;&gt;Node16 -->
<g id="edge59_Node000033_Node000016" class="edge">
<title>Node33&#45;&gt;Node16</title>
<g id="a_edge59_Node000033_Node000016"><a xlink:title=" ">
<path fill="none" stroke="#63b8ff" d="M1144.87,-186.14C1075.01,-194.96 966.93,-208.44 873,-221 867.38,-221.75 861.47,-222.56 855.56,-223.37"/>
<polygon fill="#63b8ff" stroke="#63b8ff" points="1145.19,-189.62 1154.67,-184.9 1144.31,-182.68 1145.19,-189.62"/>
</a>
</g>
</g>
<!-- Node34 -->
<g id="Node000034" class="node">
<title>Node34</title>
<g id="a_Node000034"><a xlink:href="../../df/da5/rmatnxn_8inl.html" target="_top" xlink:title=" ">
<polygon fill="white" stroke="#666666" points="1348,-129.75 1230,-129.75 1230,-110.5 1348,-110.5 1348,-129.75"/>
<text text-anchor="middle" x="1289" y="-116.25" font-family="Times,serif" font-size="10.00">include/math/rmatnxn.inl</text>
</a>
</g>
</g>
<!-- Node33&#45;&gt;Node34 -->
<g id="edge60_Node000033_Node000034" class="edge">
<title>Node33&#45;&gt;Node34</title>
<g id="a_edge60_Node000033_Node000034"><a xlink:title=" ">
<path fill="none" stroke="#63b8ff" d="M1233.63,-157.93C1244.94,-148.8 1259.98,-137.79 1271.67,-130.2"/>
<polygon fill="#63b8ff" stroke="#63b8ff" points="1231.38,-155.25 1225.99,-164.37 1235.89,-160.61 1231.38,-155.25"/>
</a>
</g>
</g>
<!-- Node34&#45;&gt;Node33 -->
<g id="edge61_Node000034_Node000033" class="edge">
<title>Node34&#45;&gt;Node33</title>
<g id="a_edge61_Node000034_Node000033"><a xlink:title=" ">
<path fill="none" stroke="#63b8ff" d="M1273.85,-137.18C1262.47,-146.4 1247.13,-157.65 1235.26,-165.34"/>
<polygon fill="#63b8ff" stroke="#63b8ff" points="1275.78,-140.13 1281.17,-131 1271.27,-134.78 1275.78,-140.13"/>
</a>
</g>
</g>
<!-- Node35&#45;&gt;Node15 -->
<g id="edge63_Node000035_Node000015" class="edge">
<title>Node35&#45;&gt;Node15</title>
<g id="a_edge63_Node000035_Node000015"><a xlink:title=" ">
<path fill="none" stroke="#63b8ff" d="M916.32,-247.02C902.23,-256.36 883.17,-267.96 868.81,-275.84"/>
<polygon fill="#63b8ff" stroke="#63b8ff" points="918.04,-250.09 924.32,-241.56 914.09,-244.31 918.04,-250.09"/>
</a>
</g>
</g>
<!-- Node36&#45;&gt;Node3 -->
<g id="edge65_Node000036_Node000003" class="edge">
<title>Node36&#45;&gt;Node3</title>
<g id="a_edge65_Node000036_Node000003"><a xlink:title=" ">
<path fill="none" stroke="#63b8ff" d="M973.57,-293.77C864.48,-304.77 647.84,-326.03 548.65,-335.45"/>
<polygon fill="#63b8ff" stroke="#63b8ff" points="973.64,-297.28 983.24,-292.79 972.94,-290.31 973.64,-297.28"/>
</a>
</g>
</g>
<!-- Node37 -->
<g id="Node000037" class="node">
<title>Node37</title>
<g id="a_Node000037"><a xlink:href="../../d6/d8c/vecn_8inl.html" target="_top" xlink:title=" ">
<polygon fill="white" stroke="#666666" points="1117.5,-240.25 1014.5,-240.25 1014.5,-221 1117.5,-221 1117.5,-240.25"/>
<text text-anchor="middle" x="1066" y="-226.75" font-family="Times,serif" font-size="10.00">include/math/vecn.inl</text>
</a>
</g>
</g>
<!-- Node36&#45;&gt;Node37 -->
<g id="edge66_Node000036_Node000037" class="edge">
<title>Node36&#45;&gt;Node37</title>
<g id="a_edge66_Node000036_Node000037"><a xlink:title=" ">
<path fill="none" stroke="#63b8ff" d="M1042.3,-265.5C1046.07,-256.99 1051.37,-247.4 1056.24,-240.61"/>
<polygon fill="#63b8ff" stroke="#63b8ff" points="1039.1,-264.08 1038.83,-274.67 1045.64,-266.56 1039.1,-264.08"/>
</a>
</g>
</g>
<!-- Node37&#45;&gt;Node36 -->
<g id="edge67_Node000037_Node000036" class="edge">
<title>Node37&#45;&gt;Node36</title>
<g id="a_edge67_Node000037_Node000036"><a xlink:title=" ">
<path fill="none" stroke="#63b8ff" d="M1062.59,-251.24C1058.79,-259.77 1053.49,-269.34 1048.62,-276.08"/>
<polygon fill="#63b8ff" stroke="#63b8ff" points="1065.81,-252.61 1066.11,-242.02 1059.27,-250.12 1065.81,-252.61"/>
</a>
</g>
</g>
</g>
</svg>
