<?xml version="1.0" encoding="UTF-8" standalone="no"?>
<!DOCTYPE svg PUBLIC "-//W3C//DTD SVG 1.1//EN"
 "http://www.w3.org/Graphics/SVG/1.1/DTD/svg11.dtd">
<!-- Generated by graphviz version 9.0.0 (20230911.1827)
 -->
<!-- Title: mal_math::TBox&lt; T &gt; Pages: 1 -->
<!--zoomable 577 -->

<svg id="main" version="1.1" xmlns="http://www.w3.org/2000/svg" xmlns:xlink="http://www.w3.org/1999/xlink" xml:space="preserve" onload="init(evt)">
<style type="text/css"><![CDATA[
.node, .edge {opacity: 0.7;}
.node.selected, .edge.selected {opacity: 1;}
.edge:hover path { stroke: red; }
.edge:hover polygon { stroke: red; fill: red; }
]]></style>

<defs>
  <circle id="rim" cx="0" cy="0" r="7"/>
  <circle id="rim2" cx="0" cy="0" r="3.5"/>
  <g id="zoomPlus">
    <use xlink:href="#rim" fill="#404040"><set attributeName="fill" to="#808080" begin="zoomplus.mouseover" end="zoomplus.mouseout"/></use>
    <path d="M-4,0h8M0,-4v8" fill="none" stroke="white" stroke-width="1.5" pointer-events="none"/>
  </g>
  <g id="zoomMin">
    <use xlink:href="#rim" fill="#404040"><set attributeName="fill" to="#808080" begin="zoomminus.mouseover" end="zoomminus.mouseout"/></use>
    <path d="M-4,0h8" fill="none" stroke="white" stroke-width="1.5" pointer-events="none"/>
  </g>
  <g id="arrowUp" transform="translate(30 24)">
    <use xlink:href="#rim"/>
    <path pointer-events="none" fill="none" stroke="white" stroke-width="1.5" d="M0,-3.0v7 M-2.5,-0.5L0,-3.0L2.5,-0.5"/>
  </g>
  <g id="arrowRight" transform="rotate(90) translate(36 -43)">
    <use xlink:href="#rim"/>
    <path pointer-events="none" fill="none" stroke="white" stroke-width="1.5" d="M0,-3.0v7 M-2.5,-0.5L0,-3.0L2.5,-0.5"/>
  </g>
  <g id="arrowDown" transform="rotate(180) translate(-30 -48)">
    <use xlink:href="#rim"/>
    <path pointer-events="none" fill="none" stroke="white" stroke-width="1.5" d="M0,-3.0v7 M-2.5,-0.5L0,-3.0L2.5,-0.5"/>
  </g>
  <g id="arrowLeft" transform="rotate(270) translate(-36 17)">
    <use xlink:href="#rim"/>
    <path pointer-events="none" fill="none" stroke="white" stroke-width="1.5" d="M0,-3.0v7 M-2.5,-0.5L0,-3.0L2.5,-0.5"/>
  </g>
  <g id="resetDef">
    <use xlink:href="#rim2" fill="#404040"><set attributeName="fill" to="#808080" begin="reset.mouseover" end="reset.mouseout"/></use>
  </g>
</defs>
<script type="application/ecmascript">
var viewWidth = 478;
var viewHeight = 577;
var sectionId = 'dynsection-0';
</script>
<script type="application/ecmascript" xlink:href="../../svg.min.js"/>
<svg id="graph" class="graph">
<g id="viewport">
<title>mal_math::TBox&lt; T &gt;</title>
<!-- Node1 -->
<g id="Node000001" class="node">
<title>Node1</title>
<g id="a_Node000001"><a xlink:title="A templated bounding box structure in 3D.">
<polygon fill="#999999" stroke="#666666" points="103.75,-19.25 0,-19.25 0,0 103.75,0 103.75,-19.25"/>
<text text-anchor="middle" x="51.88" y="-5.75" font-family="Times,serif" font-size="10.00">mal_math::TBox&lt; T &gt;</text>
</a>
</g>
</g>
<!-- Node2 -->
<g id="Node000002" class="node">
<title>Node2</title>
<g id="a_Node000002"><a xlink:href="../../dc/d19/structmal__math_1_1vec_3_013_00_01_t_01_4.html" target="_top" xlink:title="Represents a 3D vector of a given primitive type.">
<polygon fill="white" stroke="#666666" points="216.88,-97 110.88,-97 110.88,-77.75 216.88,-77.75 216.88,-97"/>
<text text-anchor="middle" x="163.88" y="-83.5" font-family="Times,serif" font-size="10.00">mal_math::vec&lt; 3, T &gt;</text>
</a>
</g>
</g>
<!-- Node2&#45;&gt;Node1 -->
<g id="edge1_Node000001_Node000002" class="edge">
<title>Node2&#45;&gt;Node1</title>
<g id="a_edge1_Node000001_Node000002"><a xlink:title=" ">
<path fill="none" stroke="#9a32cd" stroke-dasharray="5,2" d="M141.3,-71.11C118.46,-55.66 83.91,-32.29 65.15,-19.6"/>
<polygon fill="#9a32cd" stroke="#9a32cd" points="139.09,-73.84 149.33,-76.54 143.01,-68.04 139.09,-73.84"/>
</a>
</g>
<text text-anchor="middle" x="134.25" y="-50.25" font-family="Times,serif" font-size="10.00" fill="grey"> max</text>
<text text-anchor="middle" x="134.25" y="-39" font-family="Times,serif" font-size="10.00" fill="grey">min</text>
</g>
<!-- Node2&#45;&gt;Node2 -->
<g id="edge15_Node000002_Node000002" class="edge">
<title>Node2&#45;&gt;Node2</title>
<g id="a_edge15_Node000002_Node000002"><a xlink:title=" ">
<path fill="none" stroke="#9a32cd" stroke-dasharray="5,2" d="M228.33,-92.51C232.41,-91.3 234.88,-89.59 234.88,-87.38 234.88,-83.54 227.51,-81.22 217.13,-80.41"/>
<polygon fill="#9a32cd" stroke="#9a32cd" points="227.93,-89.03 218.63,-94.1 229.06,-95.94 227.93,-89.03"/>
</a>
</g>
<text text-anchor="middle" x="245.75" y="-83.5" font-family="Times,serif" font-size="10.00" fill="grey"> @55</text>
</g>
<!-- Node3 -->
<g id="Node000003" class="node">
<title>Node3</title>
<g id="a_Node000003"><a xlink:title=" ">
<polygon fill="white" stroke="#666666" points="469.75,-299.12 366,-299.12 366,-279.88 469.75,-279.88 469.75,-299.12"/>
<text text-anchor="middle" x="417.88" y="-285.62" font-family="Times,serif" font-size="10.00">static constexpr size_t</text>
</a>
</g>
</g>
<!-- Node3&#45;&gt;Node2 -->
<g id="edge2_Node000002_Node000003" class="edge">
<title>Node3&#45;&gt;Node2</title>
<g id="a_edge2_Node000002_Node000003"><a xlink:title=" ">
<path fill="none" stroke="#9a32cd" stroke-dasharray="5,2" d="M418.11,-268.28C417.33,-239.42 411.59,-186.5 381.88,-155.5 338.85,-110.62 266.6,-95.54 217.16,-90.59"/>
<polygon fill="#9a32cd" stroke="#9a32cd" points="414.61,-268.19 418.18,-278.16 421.61,-268.14 414.61,-268.19"/>
</a>
</g>
<text text-anchor="middle" x="403.88" y="-161.25" font-family="Times,serif" font-size="10.00" fill="grey"> size</text>
</g>
<!-- Node7 -->
<g id="Node000007" class="node">
<title>Node7</title>
<g id="a_Node000007"><a xlink:href="../../d2/d70/structmal__math_1_1vec_3_012_00_01_t_01_4.html" target="_top" xlink:title="2D vector template class.">
<polygon fill="white" stroke="#666666" points="332.88,-174.75 226.88,-174.75 226.88,-155.5 332.88,-155.5 332.88,-174.75"/>
<text text-anchor="middle" x="279.88" y="-161.25" font-family="Times,serif" font-size="10.00">mal_math::vec&lt; 2, T &gt;</text>
</a>
</g>
</g>
<!-- Node3&#45;&gt;Node7 -->
<g id="edge9_Node000007_Node000003" class="edge">
<title>Node3&#45;&gt;Node7</title>
<g id="a_edge9_Node000007_Node000003"><a xlink:title=" ">
<path fill="none" stroke="#9a32cd" stroke-dasharray="5,2" d="M409.14,-269.33C398.47,-247.88 378.49,-213.44 351.88,-192.75 341.77,-184.9 329.12,-179.19 317.26,-175.12"/>
<polygon fill="#9a32cd" stroke="#9a32cd" points="405.86,-270.59 413.33,-278.11 412.18,-267.58 405.86,-270.59"/>
</a>
</g>
<text text-anchor="middle" x="371.88" y="-194.5" font-family="Times,serif" font-size="10.00" fill="grey"> size</text>
</g>
<!-- Node4 -->
<g id="Node000004" class="node">
<title>Node4</title>
<g id="a_Node000004"><a xlink:title=" ">
<polygon fill="white" stroke="#666666" points="166.28,-568.75 137.47,-568.75 137.47,-549.5 166.28,-549.5 166.28,-568.75"/>
<text text-anchor="middle" x="151.88" y="-555.25" font-family="Times,serif" font-size="10.00">T</text>
</a>
</g>
</g>
<!-- Node4&#45;&gt;Node1 -->
<g id="edge16_Node000001_Node000004" class="edge">
<title>Node4&#45;&gt;Node1</title>
<g id="a_edge16_Node000001_Node000004"><a xlink:title=" ">
<path fill="none" stroke="#9a32cd" stroke-dasharray="5,2" d="M125.75,-558.03C83.26,-556.35 3.88,-546.18 3.88,-493.62 3.88,-493.62 3.88,-493.62 3.88,-86.38 3.88,-58.66 27.08,-32.87 41.22,-19.72"/>
<polygon fill="#9a32cd" stroke="#9a32cd" points="125.55,-561.53 135.63,-558.27 125.72,-554.53 125.55,-561.53"/>
</a>
</g>
<text text-anchor="middle" x="11" y="-194.5" font-family="Times,serif" font-size="10.00" fill="grey"> Inf</text>
</g>
<!-- Node4&#45;&gt;Node2 -->
<g id="edge3_Node000002_Node000004" class="edge">
<title>Node4&#45;&gt;Node2</title>
<g id="a_edge3_Node000002_Node000004"><a xlink:title=" ">
<path fill="none" stroke="#9a32cd" stroke-dasharray="5,2" d="M126.21,-553.51C96,-546.42 49.88,-529.69 49.88,-493.62 49.88,-493.62 49.88,-493.62 49.88,-164.12 49.88,-127.53 91.13,-107.55 124,-97.44"/>
<polygon fill="#9a32cd" stroke="#9a32cd" points="125.27,-556.89 135.78,-555.53 126.72,-550.04 125.27,-556.89"/>
</a>
</g>
<text text-anchor="middle" x="76.5" y="-347.5" font-family="Times,serif" font-size="10.00" fill="grey"> b</text>
<text text-anchor="middle" x="76.5" y="-336.25" font-family="Times,serif" font-size="10.00" fill="grey">g</text>
<text text-anchor="middle" x="76.5" y="-325" font-family="Times,serif" font-size="10.00" fill="grey">p</text>
<text text-anchor="middle" x="76.5" y="-313.75" font-family="Times,serif" font-size="10.00" fill="grey">r</text>
<text text-anchor="middle" x="76.5" y="-302.5" font-family="Times,serif" font-size="10.00" fill="grey">s</text>
<text text-anchor="middle" x="76.5" y="-291.25" font-family="Times,serif" font-size="10.00" fill="grey">t</text>
<text text-anchor="middle" x="76.5" y="-280" font-family="Times,serif" font-size="10.00" fill="grey">x</text>
<text text-anchor="start" x="49.88" y="-268.75" font-family="Times,serif" font-size="10.00" fill="grey">x_anonymous</text>
<text text-anchor="middle" x="76.5" y="-257.5" font-family="Times,serif" font-size="10.00" fill="grey">_padding_</text>
<text text-anchor="middle" x="76.5" y="-246.25" font-family="Times,serif" font-size="10.00" fill="grey">y</text>
<text text-anchor="middle" x="76.5" y="-235" font-family="Times,serif" font-size="10.00" fill="grey">z</text>
<text text-anchor="middle" x="76.5" y="-223.75" font-family="Times,serif" font-size="10.00" fill="grey">...</text>
</g>
<!-- Node5 -->
<g id="Node000005" class="node">
<title>Node5</title>
<g id="a_Node000005"><a xlink:title=" ">
<polygon fill="white" stroke="#666666" points="206.38,-299.12 121.38,-299.12 121.38,-279.88 206.38,-279.88 206.38,-299.12"/>
<text text-anchor="middle" x="163.88" y="-285.62" font-family="Times,serif" font-size="10.00">std::array&lt; T, 3 &gt;</text>
</a>
</g>
</g>
<!-- Node4&#45;&gt;Node5 -->
<g id="edge5_Node000005_Node000004" class="edge">
<title>Node4&#45;&gt;Node5</title>
<g id="a_edge5_Node000005_Node000004"><a xlink:title=" ">
<path fill="none" stroke="#9a32cd" stroke-dasharray="5,2" d="M135.86,-540.39C127.63,-530.07 118.44,-516.33 114.12,-502.25 111.62,-494.07 113.05,-491.49 114.12,-483 123.31,-410.75 151.15,-326.83 160.66,-299.56"/>
<polygon fill="#9a32cd" stroke="#9a32cd" points="133.16,-542.62 142.29,-548 138.5,-538.1 133.16,-542.62"/>
</a>
</g>
<text text-anchor="middle" x="133.25" y="-488.75" font-family="Times,serif" font-size="10.00" fill="grey"> elements</text>
</g>
<!-- Node6 -->
<g id="Node000006" class="node">
<title>Node6</title>
<g id="a_Node000006"><a xlink:title=" ">
<polygon fill="white" stroke="#666666" points="235.5,-502.25 160.25,-502.25 160.25,-483 235.5,-483 235.5,-502.25"/>
<text text-anchor="middle" x="197.88" y="-488.75" font-family="Times,serif" font-size="10.00">std::array&lt; T &gt;</text>
</a>
</g>
</g>
<!-- Node4&#45;&gt;Node6 -->
<g id="edge7_Node000006_Node000004" class="edge">
<title>Node4&#45;&gt;Node6</title>
<g id="a_edge7_Node000006_Node000004"><a xlink:title=" ">
<path fill="none" stroke="#9a32cd" stroke-dasharray="5,2" d="M164.89,-539.88C173.6,-527.66 184.69,-512.11 191.53,-502.52"/>
<polygon fill="#9a32cd" stroke="#9a32cd" points="162.11,-537.75 159.15,-547.92 167.81,-541.81 162.11,-537.75"/>
</a>
</g>
<text text-anchor="middle" x="196.25" y="-522" font-family="Times,serif" font-size="10.00" fill="grey"> elements</text>
</g>
<!-- Node4&#45;&gt;Node7 -->
<g id="edge10_Node000007_Node000004" class="edge">
<title>Node4&#45;&gt;Node7</title>
<g id="a_edge10_Node000007_Node000004"><a xlink:title=" ">
<path fill="none" stroke="#9a32cd" stroke-dasharray="5,2" d="M177.66,-556.17C210.7,-552.14 266.91,-539.82 293.88,-502.25 366.78,-400.65 354.4,-341.9 318.88,-222 313.3,-203.17 298.55,-185.27 288.88,-175.01"/>
<polygon fill="#9a32cd" stroke="#9a32cd" points="177.72,-552.64 168.14,-557.15 178.44,-559.6 177.72,-552.64"/>
</a>
</g>
<text text-anchor="middle" x="349.25" y="-455.5" font-family="Times,serif" font-size="10.00" fill="grey"> g</text>
<text text-anchor="middle" x="349.25" y="-444.25" font-family="Times,serif" font-size="10.00" fill="grey">r</text>
<text text-anchor="middle" x="349.25" y="-433" font-family="Times,serif" font-size="10.00" fill="grey">s</text>
<text text-anchor="middle" x="349.25" y="-421.75" font-family="Times,serif" font-size="10.00" fill="grey">t</text>
<text text-anchor="middle" x="349.25" y="-410.5" font-family="Times,serif" font-size="10.00" fill="grey">u</text>
<text text-anchor="middle" x="349.25" y="-399.25" font-family="Times,serif" font-size="10.00" fill="grey">v</text>
<text text-anchor="middle" x="349.25" y="-388" font-family="Times,serif" font-size="10.00" fill="grey">x</text>
<text text-anchor="middle" x="349.25" y="-376.75" font-family="Times,serif" font-size="10.00" fill="grey">y</text>
</g>
<!-- Node8 -->
<g id="Node000008" class="node">
<title>Node8</title>
<g id="a_Node000008"><a xlink:title=" ">
<polygon fill="white" stroke="#666666" points="309.38,-299.12 224.38,-299.12 224.38,-279.88 309.38,-279.88 309.38,-299.12"/>
<text text-anchor="middle" x="266.88" y="-285.62" font-family="Times,serif" font-size="10.00">std::array&lt; T, 2 &gt;</text>
</a>
</g>
</g>
<!-- Node4&#45;&gt;Node8 -->
<g id="edge12_Node000008_Node000004" class="edge">
<title>Node4&#45;&gt;Node8</title>
<g id="a_edge12_Node000008_Node000004"><a xlink:title=" ">
<path fill="none" stroke="#9a32cd" stroke-dasharray="5,2" d="M177.38,-551.1C190.51,-546.74 206.35,-540.28 218.88,-531.5 233.12,-521.52 236.06,-517.25 244.88,-502.25 285.32,-433.42 273.18,-329.99 268.39,-299.35"/>
<polygon fill="#9a32cd" stroke="#9a32cd" points="176.67,-547.66 168.14,-553.95 178.73,-554.35 176.67,-547.66"/>
</a>
</g>
<text text-anchor="middle" x="271.25" y="-488.75" font-family="Times,serif" font-size="10.00" fill="grey"> elements</text>
</g>
<!-- Node5&#45;&gt;Node2 -->
<g id="edge4_Node000002_Node000005" class="edge">
<title>Node5&#45;&gt;Node2</title>
<g id="a_edge4_Node000002_Node000005"><a xlink:title=" ">
<path fill="none" stroke="#9a32cd" stroke-dasharray="5,2" d="M163.88,-267.92C163.88,-224.88 163.88,-126.84 163.88,-97.09"/>
<polygon fill="#9a32cd" stroke="#9a32cd" points="160.38,-267.87 163.88,-277.87 167.38,-267.87 160.38,-267.87"/>
</a>
</g>
<text text-anchor="middle" x="173.62" y="-161.25" font-family="Times,serif" font-size="10.00" fill="grey"> data</text>
</g>
<!-- Node6&#45;&gt;Node5 -->
<g id="edge6_Node000005_Node000006" class="edge">
<title>Node6&#45;&gt;Node5</title>
<g id="a_edge6_Node000005_Node000006"><a xlink:title=" ">
<path fill="none" stroke="orange" stroke-dasharray="5,2" d="M172.97,-475.4C169.91,-472.32 167.22,-468.84 165.38,-465 137.77,-407.34 154.65,-326.19 161.44,-299.44"/>
<polygon fill="orange" stroke="orange" points="170.51,-477.91 180.44,-481.62 174.99,-472.53 170.51,-477.91"/>
</a>
</g>
<text text-anchor="middle" x="183.12" y="-416.12" font-family="Times,serif" font-size="10.00" fill="grey"> &lt; T, 3 &gt;</text>
</g>
<!-- Node6&#45;&gt;Node8 -->
<g id="edge13_Node000008_Node000006" class="edge">
<title>Node6&#45;&gt;Node8</title>
<g id="a_edge13_Node000008_Node000006"><a xlink:title=" ">
<path fill="none" stroke="orange" stroke-dasharray="5,2" d="M200.67,-471.33C204.3,-447.71 211.59,-407.75 223.38,-375 233.76,-346.12 252.02,-314.6 261.23,-299.52"/>
<polygon fill="orange" stroke="orange" points="197.22,-470.73 199.25,-481.13 204.15,-471.74 197.22,-470.73"/>
</a>
</g>
<text text-anchor="middle" x="241.12" y="-416.12" font-family="Times,serif" font-size="10.00" fill="grey"> &lt; T, 2 &gt;</text>
</g>
<!-- Node7&#45;&gt;Node2 -->
<g id="edge8_Node000002_Node000007" class="edge">
<title>Node7&#45;&gt;Node2</title>
<g id="a_edge8_Node000002_Node000007"><a xlink:title=" ">
<path fill="none" stroke="#9a32cd" stroke-dasharray="5,2" d="M256.5,-148.86C232.84,-133.41 197.06,-110.04 177.62,-97.35"/>
<polygon fill="#9a32cd" stroke="#9a32cd" points="254.56,-151.77 264.85,-154.31 258.39,-145.91 254.56,-151.77"/>
</a>
</g>
<text text-anchor="middle" x="244.5" y="-128" font-family="Times,serif" font-size="10.00" fill="grey"> xy</text>
<text text-anchor="middle" x="244.5" y="-116.75" font-family="Times,serif" font-size="10.00" fill="grey">yz</text>
</g>
<!-- Node7&#45;&gt;Node7 -->
<g id="edge14_Node000007_Node000007" class="edge">
<title>Node7&#45;&gt;Node7</title>
<g id="a_edge14_Node000007_Node000007"><a xlink:title=" ">
<path fill="none" stroke="#9a32cd" stroke-dasharray="5,2" d="M344.33,-169.52C348.41,-168.48 350.88,-167.02 350.88,-165.12 350.88,-161.85 343.51,-159.86 333.13,-159.17"/>
<polygon fill="#9a32cd" stroke="#9a32cd" points="344.05,-166.02 334.63,-170.87 345.02,-172.95 344.05,-166.02"/>
</a>
</g>
<text text-anchor="middle" x="361.75" y="-161.25" font-family="Times,serif" font-size="10.00" fill="grey"> @47</text>
</g>
<!-- Node8&#45;&gt;Node7 -->
<g id="edge11_Node000007_Node000008" class="edge">
<title>Node8&#45;&gt;Node7</title>
<g id="a_edge11_Node000007_Node000008"><a xlink:title=" ">
<path fill="none" stroke="#9a32cd" stroke-dasharray="5,2" d="M268.99,-268.6C271.85,-241.69 276.83,-194.81 278.91,-175.18"/>
<polygon fill="#9a32cd" stroke="#9a32cd" points="265.55,-267.88 267.97,-278.19 272.51,-268.62 265.55,-267.88"/>
</a>
</g>
<text text-anchor="middle" x="285.62" y="-194.5" font-family="Times,serif" font-size="10.00" fill="grey"> data</text>
</g>
</g>
</svg>

<g id="navigator" transform="translate(0 0)" fill="#404254">
  <rect fill="#f2f5e9" fill-opacity="0.5" stroke="#606060" stroke-width=".5" x="0" y="0" width="60" height="60"/>
  <use id="zoomplus" xlink:href="#zoomPlus" x="17" y="9" onmousedown="handleZoom(evt,'in')"/>
  <use id="zoomminus" xlink:href="#zoomMin" x="42" y="9" onmousedown="handleZoom(evt,'out')"/>
  <use id="reset" xlink:href="#resetDef" x="30" y="36" onmousedown="handleReset()"/>
   <use id="arrowup" xlink:href="#arrowUp" x="0" y="0" onmousedown="handlePan(0,-1)"/>
  <use id="arrowright" xlink:href="#arrowRight" x="0" y="0" onmousedown="handlePan(1,0)"/>
  <use id="arrowdown" xlink:href="#arrowDown" x="0" y="0" onmousedown="handlePan(0,1)"/>
  <use id="arrowleft" xlink:href="#arrowLeft" x="0" y="0" onmousedown="handlePan(-1,0)"/>
</g>
<svg viewBox="0 0 15 15" width="100%" height="30px" preserveAspectRatio="xMaxYMin meet">
 <g id="arrow_out" transform="scale(0.3 0.3)">
  <a xlink:href="structmal__math_1_1_t_box__coll__graph_org.svg" target="_base">
   <rect id="button" ry="5" rx="5" y="6" x="6" height="38" width="38"
        fill="#f2f5e9" fill-opacity="0.5" stroke="#606060" stroke-width="1.0"/>
   <path id="arrow"
     d="M 11.500037,31.436501 C 11.940474,20.09759 22.043105,11.32322 32.158766,21.979434 L 37.068811,17.246167 C 37.068811,17.246167 37.088388,32 37.088388,32 L 22.160133,31.978069 C 22.160133,31.978069 26.997745,27.140456 26.997745,27.140456 C 18.528582,18.264221 13.291696,25.230495 11.500037,31.436501 z"
     style="fill:#404040;"/>
  </a>
 </g>
</svg>

<style type='text/css'>
<![CDATA[
[data-mouse-over-selected='false'] { opacity: 0.7; }
[data-mouse-over-selected='true']  { opacity: 1.0; }
]]>
</style>
<script type="application/ecmascript"><![CDATA[
document.addEventListener('DOMContentLoaded', (event) => {
  highlightEdges();
  highlightAdjacentNodes();
});
]]></script>
</svg>
