<?xml version="1.0" encoding="UTF-8" standalone="no"?>
<!DOCTYPE svg PUBLIC "-//W3C//DTD SVG 1.1//EN"
 "http://www.w3.org/Graphics/SVG/1.1/DTD/svg11.dtd">
<!-- Generated by graphviz version 9.0.0 (20230911.1827)
 -->
<!-- Title: mal_math::vec::vec Pages: 1 -->
<svg width="267pt" height="76pt"
 viewBox="0.00 0.00 266.50 75.88" xmlns="http://www.w3.org/2000/svg" xmlns:xlink="http://www.w3.org/1999/xlink">
<g id="graph0" class="graph" transform="scale(1 1) rotate(0) translate(4 71.88)">
<title>mal_math::vec::vec</title>
<!-- Node1 -->
<g id="Node000001" class="node">
<title>Node1</title>
<g id="a_Node000001"><a xlink:title="Variadic constructor.">
<polygon fill="#999999" stroke="#666666" points="91.75,-40.25 0,-40.25 0,-21 91.75,-21 91.75,-40.25"/>
<text text-anchor="middle" x="45.88" y="-26.75" font-family="Times,serif" font-size="10.00">mal_math::vec::vec</text>
</a>
</g>
</g>
<!-- Node2 -->
<g id="Node000002" class="node">
<title>Node2</title>
<g id="a_Node000002"><a xlink:href="../../dd/dce/structmal__math_1_1vec.html#a60d04587928247b6e0d6e00a9660b8bf" target="_top" xlink:title="Determines the size of a parameter pack for primitive types.">
<polygon fill="white" stroke="#666666" points="247.25,-67.88 139,-67.88 139,-37.38 247.25,-37.38 247.25,-67.88"/>
<text text-anchor="start" x="147" y="-54.38" font-family="Times,serif" font-size="10.00">mal_math::vec::get</text>
<text text-anchor="middle" x="193.12" y="-43.12" font-family="Times,serif" font-size="10.00">_parameter_pack_size</text>
</a>
</g>
</g>
<!-- Node1&#45;&gt;Node2 -->
<g id="edge1_Node000001_Node000002" class="edge">
<title>Node1&#45;&gt;Node2</title>
<g id="a_edge1_Node000001_Node000002"><a xlink:title=" ">
<path fill="none" stroke="#63b8ff" d="M92.04,-37.47C103.21,-39.16 115.39,-41 127.3,-42.81"/>
<polygon fill="#63b8ff" stroke="#63b8ff" points="126.67,-46.25 137.09,-44.29 127.72,-39.33 126.67,-46.25"/>
</a>
</g>
</g>
<!-- Node3 -->
<g id="Node000003" class="node">
<title>Node3</title>
<g id="a_Node000003"><a xlink:href="../../dd/dce/structmal__math_1_1vec.html#a67813dc45c4bd24932563730ea5e7b42" target="_top" xlink:title="Unpacks a single primitive value into the vector data.">
<polygon fill="white" stroke="#666666" points="258.5,-19.25 127.75,-19.25 127.75,0 258.5,0 258.5,-19.25"/>
<text text-anchor="middle" x="193.12" y="-5.75" font-family="Times,serif" font-size="10.00">mal_math::vec::unpack_data</text>
</a>
</g>
</g>
<!-- Node1&#45;&gt;Node3 -->
<g id="edge2_Node000001_Node000003" class="edge">
<title>Node1&#45;&gt;Node3</title>
<g id="a_edge2_Node000001_Node000003"><a xlink:title=" ">
<path fill="none" stroke="#63b8ff" d="M92.04,-24.1C99.71,-22.99 107.86,-21.81 116.07,-20.62"/>
<polygon fill="#63b8ff" stroke="#63b8ff" points="116.37,-24.11 125.76,-19.22 115.37,-17.19 116.37,-24.11"/>
</a>
</g>
</g>
</g>
</svg>
