<?xml version="1.0" encoding="UTF-8" standalone="no"?>
<!DOCTYPE svg PUBLIC "-//W3C//DTD SVG 1.1//EN"
 "http://www.w3.org/Graphics/SVG/1.1/DTD/svg11.dtd">
<!-- Generated by graphviz version 9.0.0 (20230911.1827)
 -->
<!-- Title: mal_math::vec::unpack_data Pages: 1 -->
<svg width="307pt" height="432pt"
 viewBox="0.00 0.00 307.00 432.25" xmlns="http://www.w3.org/2000/svg" xmlns:xlink="http://www.w3.org/1999/xlink">

<svg id="main" version="1.1" xmlns="http://www.w3.org/2000/svg" xmlns:xlink="http://www.w3.org/1999/xlink" xml:space="preserve" onload="init(evt)">
<style type="text/css"><![CDATA[
.node, .edge {opacity: 0.7;}
.node.selected, .edge.selected {opacity: 1;}
.edge:hover path { stroke: red; }
.edge:hover polygon { stroke: red; fill: red; }
]]></style>
<script type="application/ecmascript" xlink:href="../../svg.min.js"/>
<svg id="graph" class="graph">
<g id="graph0" class="graph" transform="scale(1 1) rotate(0) translate(4 428.25)">
<title>mal_math::vec::unpack_data</title>
<!-- Node1 -->
<g id="Node000001" class="node">
<title>Node1</title>
<g id="a_Node000001"><a xlink:title="Unpacks a single primitive value into the vector data.">
<polygon fill="#999999" stroke="#666666" points="299,-224.25 168.25,-224.25 168.25,-205 299,-205 299,-224.25"/>
<text text-anchor="middle" x="233.62" y="-210.75" font-family="Times,serif" font-size="10.00">mal_math::vec::unpack_data</text>
</a>
</g>
</g>
<!-- Node2 -->
<g id="Node000002" class="node">
<title>Node2</title>
<g id="a_Node000002"><a xlink:href="../../d7/de5/structmal__math_1_1mat.html#a97f9406eef3a9f398159f3f65d226bf3" target="_top" xlink:title="Constructor that initializes the matrix from any data (such as floats, vectors, integers etc....">
<polygon fill="white" stroke="#666666" points="113.5,-424.25 18.75,-424.25 18.75,-405 113.5,-405 113.5,-424.25"/>
<text text-anchor="middle" x="66.12" y="-410.75" font-family="Times,serif" font-size="10.00">mal_math::mat::mat</text>
</a>
</g>
</g>
<!-- Node1&#45;&gt;Node2 -->
<g id="edge1_Node000001_Node000002" class="edge">
<title>Node1&#45;&gt;Node2</title>
<g id="a_edge1_Node000001_Node000002"><a xlink:title=" ">
<path fill="none" stroke="#63b8ff" d="M227.01,-235.43C215.69,-273.38 186.43,-353.86 132.25,-396.62 126.82,-400.91 120.43,-404.18 113.82,-406.67"/>
<polygon fill="#63b8ff" stroke="#63b8ff" points="230.28,-236.74 229.66,-226.16 223.55,-234.82 230.28,-236.74"/>
</a>
</g>
</g>
<!-- Node3 -->
<g id="Node000003" class="node">
<title>Node3</title>
<g id="a_Node000003"><a xlink:href="../../dd/dce/structmal__math_1_1vec.html#a7a4b95bbd32fdf5f0f01295492612907" target="_top" xlink:title=" ">
<polygon fill="white" stroke="#666666" points="131.5,-387.25 0.75,-387.25 0.75,-368 131.5,-368 131.5,-387.25"/>
<text text-anchor="middle" x="66.12" y="-373.75" font-family="Times,serif" font-size="10.00">mal_math::vec::unpack_data</text>
</a>
</g>
</g>
<!-- Node1&#45;&gt;Node3 -->
<g id="edge2_Node000001_Node000003" class="edge">
<title>Node1&#45;&gt;Node3</title>
<g id="a_edge2_Node000001_Node000003"><a xlink:title=" ">
<path fill="none" stroke="#63b8ff" d="M223.97,-234.86C209.56,-266.13 177.68,-325.99 132.25,-358.62 127.18,-362.27 121.42,-365.22 115.47,-367.6"/>
<polygon fill="#63b8ff" stroke="#63b8ff" points="227.15,-236.33 228.02,-225.77 220.75,-233.48 227.15,-236.33"/>
</a>
</g>
</g>
<!-- Node4 -->
<g id="Node000004" class="node">
<title>Node4</title>
<g id="a_Node000004"><a xlink:href="../../d2/d70/structmal__math_1_1vec_3_012_00_01_t_01_4.html#a792e8188f1aade2251acfa93ac96fd9d" target="_top" xlink:title="Recursively unpacks multiple values into the vector data.">
<polygon fill="white" stroke="#666666" points="115,-349.88 17.25,-349.88 17.25,-319.38 115,-319.38 115,-349.88"/>
<text text-anchor="start" x="25.25" y="-336.38" font-family="Times,serif" font-size="10.00">mal_math::vec&lt; 2, T</text>
<text text-anchor="middle" x="66.12" y="-325.12" font-family="Times,serif" font-size="10.00"> &gt;::unpack_data</text>
</a>
</g>
</g>
<!-- Node1&#45;&gt;Node4 -->
<g id="edge3_Node000001_Node000004" class="edge">
<title>Node1&#45;&gt;Node4</title>
<g id="a_edge3_Node000001_Node000004"><a xlink:title=" ">
<path fill="none" stroke="#63b8ff" d="M217.08,-233.2C198.68,-254.2 166.23,-288.22 132.25,-309.62 126.72,-313.11 120.62,-316.24 114.44,-319"/>
<polygon fill="#63b8ff" stroke="#63b8ff" points="219.65,-235.58 223.51,-225.72 214.34,-231.02 219.65,-235.58"/>
</a>
</g>
</g>
<!-- Node5 -->
<g id="Node000005" class="node">
<title>Node5</title>
<g id="a_Node000005"><a xlink:href="../../dc/d19/structmal__math_1_1vec_3_013_00_01_t_01_4.html#ae518148fca318e4b0c9e6eb70cc18d06" target="_top" xlink:title="Recursively unpacks multiple values into the vector data.">
<polygon fill="white" stroke="#666666" points="115,-300.88 17.25,-300.88 17.25,-270.38 115,-270.38 115,-300.88"/>
<text text-anchor="start" x="25.25" y="-287.38" font-family="Times,serif" font-size="10.00">mal_math::vec&lt; 3, T</text>
<text text-anchor="middle" x="66.12" y="-276.12" font-family="Times,serif" font-size="10.00"> &gt;::unpack_data</text>
</a>
</g>
</g>
<!-- Node1&#45;&gt;Node5 -->
<g id="edge4_Node000001_Node000005" class="edge">
<title>Node1&#45;&gt;Node5</title>
<g id="a_edge4_Node000001_Node000005"><a xlink:title=" ">
<path fill="none" stroke="#63b8ff" d="M201.42,-229.54C181.72,-238.81 155.66,-250.78 132.25,-260.62 124.77,-263.77 116.74,-266.98 108.97,-270.01"/>
<polygon fill="#63b8ff" stroke="#63b8ff" points="202.73,-232.79 210.28,-225.35 199.74,-226.46 202.73,-232.79"/>
</a>
</g>
</g>
<!-- Node6 -->
<g id="Node000006" class="node">
<title>Node6</title>
<g id="a_Node000006"><a xlink:href="../../de/dfb/structmal__math_1_1vec_3_014_00_01_t_01_4.html#a609d475e028f939f04685675df418c38" target="_top" xlink:title="Recursively unpacks multiple values into the vector data.">
<polygon fill="white" stroke="#666666" points="115,-251.88 17.25,-251.88 17.25,-221.38 115,-221.38 115,-251.88"/>
<text text-anchor="start" x="25.25" y="-238.38" font-family="Times,serif" font-size="10.00">mal_math::vec&lt; 4, T</text>
<text text-anchor="middle" x="66.12" y="-227.12" font-family="Times,serif" font-size="10.00"> &gt;::unpack_data</text>
</a>
</g>
</g>
<!-- Node1&#45;&gt;Node6 -->
<g id="edge5_Node000001_Node000006" class="edge">
<title>Node1&#45;&gt;Node6</title>
<g id="a_edge5_Node000001_Node000006"><a xlink:title=" ">
<path fill="none" stroke="#63b8ff" d="M156.9,-224.69C142.74,-226.57 128.3,-228.49 115.26,-230.23"/>
<polygon fill="#63b8ff" stroke="#63b8ff" points="157.21,-228.18 166.66,-223.39 156.29,-221.24 157.21,-228.18"/>
</a>
</g>
</g>
<!-- Node7 -->
<g id="Node000007" class="node">
<title>Node7</title>
<g id="a_Node000007"><a xlink:href="../../d7/de5/structmal__math_1_1mat.html#a22e9216e773e4b7b165491a74b407878" target="_top" xlink:title="Recursively unpacks multiple values into the matrix data.">
<polygon fill="white" stroke="#666666" points="132.25,-203.25 0,-203.25 0,-184 132.25,-184 132.25,-203.25"/>
<text text-anchor="middle" x="66.12" y="-189.75" font-family="Times,serif" font-size="10.00">mal_math::mat::unpack_data</text>
</a>
</g>
</g>
<!-- Node1&#45;&gt;Node7 -->
<g id="edge6_Node000001_Node000007" class="edge">
<title>Node1&#45;&gt;Node7</title>
<g id="a_edge6_Node000001_Node000007"><a xlink:title=" ">
<path fill="none" stroke="#63b8ff" d="M156.79,-205C148.68,-203.97 140.48,-202.93 132.5,-201.92"/>
<polygon fill="#63b8ff" stroke="#63b8ff" points="156.3,-208.47 166.66,-206.26 157.18,-201.52 156.3,-208.47"/>
</a>
</g>
</g>
<!-- Node8 -->
<g id="Node000008" class="node">
<title>Node8</title>
<g id="a_Node000008"><a xlink:href="../../d2/d70/structmal__math_1_1vec_3_012_00_01_t_01_4.html#a3cbf6ab7d34c8741c0d73b35ad11a9df" target="_top" xlink:title="Constructs a vec from a variadic list of values.">
<polygon fill="white" stroke="#666666" points="115,-165.88 17.25,-165.88 17.25,-135.38 115,-135.38 115,-165.88"/>
<text text-anchor="start" x="25.25" y="-152.38" font-family="Times,serif" font-size="10.00">mal_math::vec&lt; 2, T</text>
<text text-anchor="middle" x="66.12" y="-141.12" font-family="Times,serif" font-size="10.00"> &gt;::vec</text>
</a>
</g>
</g>
<!-- Node1&#45;&gt;Node8 -->
<g id="edge7_Node000001_Node000008" class="edge">
<title>Node1&#45;&gt;Node8</title>
<g id="a_edge7_Node000001_Node000008"><a xlink:title=" ">
<path fill="none" stroke="#63b8ff" d="M197.28,-200.28C178.09,-192.55 153.92,-182.93 132.25,-174.62 125.16,-171.91 117.62,-169.07 110.27,-166.35"/>
<polygon fill="#63b8ff" stroke="#63b8ff" points="195.96,-203.52 206.54,-204.02 198.58,-197.03 195.96,-203.52"/>
</a>
</g>
</g>
<!-- Node9 -->
<g id="Node000009" class="node">
<title>Node9</title>
<g id="a_Node000009"><a xlink:href="../../dc/d19/structmal__math_1_1vec_3_013_00_01_t_01_4.html#a4eee56b8cb6fe3cd6446d2ea36e24264" target="_top" xlink:title="Variadic constructor.">
<polygon fill="white" stroke="#666666" points="115,-116.88 17.25,-116.88 17.25,-86.38 115,-86.38 115,-116.88"/>
<text text-anchor="start" x="25.25" y="-103.38" font-family="Times,serif" font-size="10.00">mal_math::vec&lt; 3, T</text>
<text text-anchor="middle" x="66.12" y="-92.12" font-family="Times,serif" font-size="10.00"> &gt;::vec</text>
</a>
</g>
</g>
<!-- Node1&#45;&gt;Node9 -->
<g id="edge8_Node000001_Node000009" class="edge">
<title>Node1&#45;&gt;Node9</title>
<g id="a_edge8_Node000001_Node000009"><a xlink:title=" ">
<path fill="none" stroke="#63b8ff" d="M215.67,-196.32C196.84,-176.87 164.79,-146.27 132.25,-126.62 126.55,-123.18 120.29,-120.06 113.98,-117.29"/>
<polygon fill="#63b8ff" stroke="#63b8ff" points="213.1,-198.7 222.52,-203.53 218.17,-193.87 213.1,-198.7"/>
</a>
</g>
</g>
<!-- Node10 -->
<g id="Node000010" class="node">
<title>Node10</title>
<g id="a_Node000010"><a xlink:href="../../de/dfb/structmal__math_1_1vec_3_014_00_01_t_01_4.html#a76582bc85bfe3824a8fa536170615707" target="_top" xlink:title="Variadic constructor.">
<polygon fill="white" stroke="#666666" points="115,-67.88 17.25,-67.88 17.25,-37.38 115,-37.38 115,-67.88"/>
<text text-anchor="start" x="25.25" y="-54.38" font-family="Times,serif" font-size="10.00">mal_math::vec&lt; 4, T</text>
<text text-anchor="middle" x="66.12" y="-43.12" font-family="Times,serif" font-size="10.00"> &gt;::vec</text>
</a>
</g>
</g>
<!-- Node1&#45;&gt;Node10 -->
<g id="edge9_Node000001_Node000010" class="edge">
<title>Node1&#45;&gt;Node10</title>
<g id="a_edge9_Node000001_Node000010"><a xlink:title=" ">
<path fill="none" stroke="#63b8ff" d="M222.94,-194.96C207.55,-165.57 174.84,-110.17 132.25,-77.62 127.15,-73.73 121.37,-70.37 115.41,-67.5"/>
<polygon fill="#63b8ff" stroke="#63b8ff" points="219.64,-196.18 227.29,-203.5 225.87,-193 219.64,-196.18"/>
</a>
</g>
</g>
<!-- Node11 -->
<g id="Node000011" class="node">
<title>Node11</title>
<g id="a_Node000011"><a xlink:href="../../dd/dce/structmal__math_1_1vec.html#a1af9a16c5ca6f42554efdb39f0714896" target="_top" xlink:title="Variadic constructor.">
<polygon fill="white" stroke="#666666" points="112,-19.25 20.25,-19.25 20.25,0 112,0 112,-19.25"/>
<text text-anchor="middle" x="66.12" y="-5.75" font-family="Times,serif" font-size="10.00">mal_math::vec::vec</text>
</a>
</g>
</g>
<!-- Node1&#45;&gt;Node11 -->
<g id="edge10_Node000001_Node000011" class="edge">
<title>Node1&#45;&gt;Node11</title>
<g id="a_edge10_Node000001_Node000011"><a xlink:title=" ">
<path fill="none" stroke="#63b8ff" d="M227.18,-193.74C216.04,-155.21 186.97,-72.87 132.25,-28.62 126.39,-23.89 119.39,-20.33 112.18,-17.66"/>
<polygon fill="#63b8ff" stroke="#63b8ff" points="223.79,-194.63 229.82,-203.34 230.54,-192.77 223.79,-194.63"/>
</a>
</g>
</g>
</g>
</svg>
</svg>

<style type='text/css'>
<![CDATA[
[data-mouse-over-selected='false'] { opacity: 0.7; }
[data-mouse-over-selected='true']  { opacity: 1.0; }
]]>
</style>
<script type="application/ecmascript"><![CDATA[
document.addEventListener('DOMContentLoaded', (event) => {
  highlightEdges();
  highlightAdjacentNodes();
});
]]></script>
</svg>
