<?xml version="1.0" encoding="UTF-8" standalone="no"?>
<!DOCTYPE svg PUBLIC "-//W3C//DTD SVG 1.1//EN"
 "http://www.w3.org/Graphics/SVG/1.1/DTD/svg11.dtd">
<!-- Generated by graphviz version 9.0.0 (20230911.1827)
 -->
<!-- Title: mal_math::vec::get_parameter_pack_size Pages: 1 -->
<!--zoomable 456 -->

<svg id="main" version="1.1" xmlns="http://www.w3.org/2000/svg" xmlns:xlink="http://www.w3.org/1999/xlink" xml:space="preserve" onload="init(evt)">
<style type="text/css"><![CDATA[
.node, .edge {opacity: 0.7;}
.node.selected, .edge.selected {opacity: 1;}
.edge:hover path { stroke: red; }
.edge:hover polygon { stroke: red; fill: red; }
]]></style>

<defs>
  <circle id="rim" cx="0" cy="0" r="7"/>
  <circle id="rim2" cx="0" cy="0" r="3.5"/>
  <g id="zoomPlus">
    <use xlink:href="#rim" fill="#404040"><set attributeName="fill" to="#808080" begin="zoomplus.mouseover" end="zoomplus.mouseout"/></use>
    <path d="M-4,0h8M0,-4v8" fill="none" stroke="white" stroke-width="1.5" pointer-events="none"/>
  </g>
  <g id="zoomMin">
    <use xlink:href="#rim" fill="#404040"><set attributeName="fill" to="#808080" begin="zoomminus.mouseover" end="zoomminus.mouseout"/></use>
    <path d="M-4,0h8" fill="none" stroke="white" stroke-width="1.5" pointer-events="none"/>
  </g>
  <g id="arrowUp" transform="translate(30 24)">
    <use xlink:href="#rim"/>
    <path pointer-events="none" fill="none" stroke="white" stroke-width="1.5" d="M0,-3.0v7 M-2.5,-0.5L0,-3.0L2.5,-0.5"/>
  </g>
  <g id="arrowRight" transform="rotate(90) translate(36 -43)">
    <use xlink:href="#rim"/>
    <path pointer-events="none" fill="none" stroke="white" stroke-width="1.5" d="M0,-3.0v7 M-2.5,-0.5L0,-3.0L2.5,-0.5"/>
  </g>
  <g id="arrowDown" transform="rotate(180) translate(-30 -48)">
    <use xlink:href="#rim"/>
    <path pointer-events="none" fill="none" stroke="white" stroke-width="1.5" d="M0,-3.0v7 M-2.5,-0.5L0,-3.0L2.5,-0.5"/>
  </g>
  <g id="arrowLeft" transform="rotate(270) translate(-36 17)">
    <use xlink:href="#rim"/>
    <path pointer-events="none" fill="none" stroke="white" stroke-width="1.5" d="M0,-3.0v7 M-2.5,-0.5L0,-3.0L2.5,-0.5"/>
  </g>
  <g id="resetDef">
    <use xlink:href="#rim2" fill="#404040"><set attributeName="fill" to="#808080" begin="reset.mouseover" end="reset.mouseout"/></use>
  </g>
</defs>
<script type="application/ecmascript">
var viewWidth = 285;
var viewHeight = 456;
var sectionId = 'dynsection-5';
</script>
<script type="application/ecmascript" xlink:href="../../svg.min.js"/>
<svg id="graph" class="graph">
<g id="viewport">
<title>mal_math::vec::get_parameter_pack_size</title>
<!-- Node1 -->
<g id="Node000001" class="node">
<title>Node1</title>
<g id="a_Node000001"><a xlink:title="Determines the size of a parameter pack for primitive types.">
<polygon fill="#999999" stroke="#666666" points="277.25,-229.88 169,-229.88 169,-199.38 277.25,-199.38 277.25,-229.88"/>
<text text-anchor="start" x="177" y="-216.38" font-family="Times,serif" font-size="10.00">mal_math::vec::get</text>
<text text-anchor="middle" x="223.12" y="-205.12" font-family="Times,serif" font-size="10.00">_parameter_pack_size</text>
</a>
</g>
</g>
<!-- Node2 -->
<g id="Node000002" class="node">
<title>Node2</title>
<g id="a_Node000002"><a xlink:href="../../d7/de5/structmal__math_1_1mat.html#ac4687d75fc645f5fd700c3b2b86dbdf9" target="_top" xlink:title="Determines the size of a parameter pack for a mixed set of types.">
<polygon fill="white" stroke="#666666" points="120.62,-447.88 12.38,-447.88 12.38,-417.38 120.62,-417.38 120.62,-447.88"/>
<text text-anchor="start" x="20.38" y="-434.38" font-family="Times,serif" font-size="10.00">mal_math::mat::get</text>
<text text-anchor="middle" x="66.5" y="-423.12" font-family="Times,serif" font-size="10.00">_parameter_pack_size</text>
</a>
</g>
</g>
<!-- Node1&#45;&gt;Node2 -->
<g id="edge1_Node000001_Node000002" class="edge">
<title>Node1&#45;&gt;Node2</title>
<g id="a_edge1_Node000001_Node000002"><a xlink:title=" ">
<path fill="none" stroke="#63b8ff" d="M216.62,-241.24C206.8,-282.36 182.46,-361.42 133,-407.62 129.18,-411.2 124.79,-414.28 120.13,-416.92"/>
<polygon fill="#63b8ff" stroke="#63b8ff" points="219.98,-242.24 218.78,-231.72 213.16,-240.69 219.98,-242.24"/>
</a>
</g>
</g>
<!-- Node3 -->
<g id="Node000003" class="node">
<title>Node3</title>
<g id="a_Node000003"><a xlink:href="../../d2/d70/structmal__math_1_1vec_3_012_00_01_t_01_4.html#a2dec5b544197628d0fe8ece12693a20a" target="_top" xlink:title="Determines the size of a parameter pack for a mixed set of types.">
<polygon fill="white" stroke="#666666" points="133,-398.88 0,-398.88 0,-368.38 133,-368.38 133,-398.88"/>
<text text-anchor="start" x="8" y="-385.38" font-family="Times,serif" font-size="10.00">mal_math::vec&lt; 2, T</text>
<text text-anchor="middle" x="66.5" y="-374.12" font-family="Times,serif" font-size="10.00"> &gt;::get_parameter_pack_size</text>
</a>
</g>
</g>
<!-- Node1&#45;&gt;Node3 -->
<g id="edge2_Node000001_Node000003" class="edge">
<title>Node1&#45;&gt;Node3</title>
<g id="a_edge2_Node000001_Node000003"><a xlink:title=" ">
<path fill="none" stroke="#63b8ff" d="M212.38,-240.2C199.02,-272.08 172.13,-326.29 133,-358.62 128.68,-362.19 123.8,-365.28 118.7,-367.96"/>
<polygon fill="#63b8ff" stroke="#63b8ff" points="215.46,-241.91 215.97,-231.33 208.97,-239.29 215.46,-241.91"/>
</a>
</g>
</g>
<!-- Node4 -->
<g id="Node000004" class="node">
<title>Node4</title>
<g id="a_Node000004"><a xlink:href="../../dc/d19/structmal__math_1_1vec_3_013_00_01_t_01_4.html#a68934bca26fe7ee3f4e2dc2e96411beb" target="_top" xlink:title="Determines the size of a parameter pack for a mixed set of types.">
<polygon fill="white" stroke="#666666" points="133,-349.88 0,-349.88 0,-319.38 133,-319.38 133,-349.88"/>
<text text-anchor="start" x="8" y="-336.38" font-family="Times,serif" font-size="10.00">mal_math::vec&lt; 3, T</text>
<text text-anchor="middle" x="66.5" y="-325.12" font-family="Times,serif" font-size="10.00"> &gt;::get_parameter_pack_size</text>
</a>
</g>
</g>
<!-- Node1&#45;&gt;Node4 -->
<g id="edge3_Node000001_Node000004" class="edge">
<title>Node1&#45;&gt;Node4</title>
<g id="a_edge3_Node000001_Node000004"><a xlink:title=" ">
<path fill="none" stroke="#63b8ff" d="M204.28,-239.18C187.83,-260.33 161.66,-290.39 133,-309.62 127.74,-313.15 121.92,-316.28 115.98,-319.02"/>
<polygon fill="#63b8ff" stroke="#63b8ff" points="206.96,-241.45 210.22,-231.37 201.38,-237.21 206.96,-241.45"/>
</a>
</g>
</g>
<!-- Node5 -->
<g id="Node000005" class="node">
<title>Node5</title>
<g id="a_Node000005"><a xlink:href="../../de/dfb/structmal__math_1_1vec_3_014_00_01_t_01_4.html#a3dbc208846eb165b9a726682a941e4c8" target="_top" xlink:title="Determines the size of a parameter pack for a mixed set of types.">
<polygon fill="white" stroke="#666666" points="133,-300.88 0,-300.88 0,-270.38 133,-270.38 133,-300.88"/>
<text text-anchor="start" x="8" y="-287.38" font-family="Times,serif" font-size="10.00">mal_math::vec&lt; 4, T</text>
<text text-anchor="middle" x="66.5" y="-276.12" font-family="Times,serif" font-size="10.00"> &gt;::get_parameter_pack_size</text>
</a>
</g>
</g>
<!-- Node1&#45;&gt;Node5 -->
<g id="edge4_Node000001_Node000005" class="edge">
<title>Node1&#45;&gt;Node5</title>
<g id="a_edge4_Node000001_Node000005"><a xlink:title=" ">
<path fill="none" stroke="#63b8ff" d="M183.82,-235.59C168.24,-243.8 149.95,-253.04 133,-260.62 125.89,-263.81 118.24,-266.96 110.77,-269.9"/>
<polygon fill="#63b8ff" stroke="#63b8ff" points="185.11,-238.87 192.29,-231.08 181.82,-232.69 185.11,-238.87"/>
</a>
</g>
</g>
<!-- Node6 -->
<g id="Node000006" class="node">
<title>Node6</title>
<g id="a_Node000006"><a xlink:href="../../dd/dce/structmal__math_1_1vec.html#ae6c9c43742bb68449e8a71d27ddc43ba" target="_top" xlink:title="Determines the size of a parameter pack for a mixed set of types.">
<polygon fill="white" stroke="#666666" points="120.62,-251.88 12.38,-251.88 12.38,-221.38 120.62,-221.38 120.62,-251.88"/>
<text text-anchor="start" x="20.38" y="-238.38" font-family="Times,serif" font-size="10.00">mal_math::vec::get</text>
<text text-anchor="middle" x="66.5" y="-227.12" font-family="Times,serif" font-size="10.00">_parameter_pack_size</text>
</a>
</g>
</g>
<!-- Node1&#45;&gt;Node6 -->
<g id="edge5_Node000001_Node000006" class="edge">
<title>Node1&#45;&gt;Node6</title>
<g id="a_edge5_Node000001_Node000006"><a xlink:title=" ">
<path fill="none" stroke="#63b8ff" d="M157.84,-223.77C145.61,-225.51 132.93,-227.32 121.07,-229"/>
<polygon fill="#63b8ff" stroke="#63b8ff" points="158.01,-227.28 167.41,-222.41 157.02,-220.35 158.01,-227.28"/>
</a>
</g>
</g>
<!-- Node7 -->
<g id="Node000007" class="node">
<title>Node7</title>
<g id="a_Node000007"><a xlink:href="../../d7/de5/structmal__math_1_1mat.html#a97f9406eef3a9f398159f3f65d226bf3" target="_top" xlink:title="Constructor that initializes the matrix from any data (such as floats, vectors, integers etc....">
<polygon fill="white" stroke="#666666" points="113.88,-203.25 19.12,-203.25 19.12,-184 113.88,-184 113.88,-203.25"/>
<text text-anchor="middle" x="66.5" y="-189.75" font-family="Times,serif" font-size="10.00">mal_math::mat::mat</text>
</a>
</g>
</g>
<!-- Node1&#45;&gt;Node7 -->
<g id="edge6_Node000001_Node000007" class="edge">
<title>Node1&#45;&gt;Node7</title>
<g id="a_edge6_Node000001_Node000007"><a xlink:title=" ">
<path fill="none" stroke="#63b8ff" d="M157.91,-205.9C143.31,-203.92 128.07,-201.85 114.35,-199.99"/>
<polygon fill="#63b8ff" stroke="#63b8ff" points="157.03,-209.32 167.41,-207.19 157.97,-202.38 157.03,-209.32"/>
</a>
</g>
</g>
<!-- Node8 -->
<g id="Node000008" class="node">
<title>Node8</title>
<g id="a_Node000008"><a xlink:href="../../d2/d70/structmal__math_1_1vec_3_012_00_01_t_01_4.html#a3cbf6ab7d34c8741c0d73b35ad11a9df" target="_top" xlink:title="Constructs a vec from a variadic list of values.">
<polygon fill="white" stroke="#666666" points="115.38,-165.88 17.62,-165.88 17.62,-135.38 115.38,-135.38 115.38,-165.88"/>
<text text-anchor="start" x="25.62" y="-152.38" font-family="Times,serif" font-size="10.00">mal_math::vec&lt; 2, T</text>
<text text-anchor="middle" x="66.5" y="-141.12" font-family="Times,serif" font-size="10.00"> &gt;::vec</text>
</a>
</g>
</g>
<!-- Node1&#45;&gt;Node8 -->
<g id="edge7_Node000001_Node000008" class="edge">
<title>Node1&#45;&gt;Node8</title>
<g id="a_edge7_Node000001_Node000008"><a xlink:title=" ">
<path fill="none" stroke="#63b8ff" d="M178.76,-194.42C164.3,-187.89 148.04,-180.75 133,-174.62 126.16,-171.84 118.86,-169.02 111.7,-166.34"/>
<polygon fill="#63b8ff" stroke="#63b8ff" points="177,-197.47 187.55,-198.43 179.9,-191.1 177,-197.47"/>
</a>
</g>
</g>
<!-- Node9 -->
<g id="Node000009" class="node">
<title>Node9</title>
<g id="a_Node000009"><a xlink:href="../../dc/d19/structmal__math_1_1vec_3_013_00_01_t_01_4.html#a4eee56b8cb6fe3cd6446d2ea36e24264" target="_top" xlink:title="Variadic constructor.">
<polygon fill="white" stroke="#666666" points="115.38,-116.88 17.62,-116.88 17.62,-86.38 115.38,-86.38 115.38,-116.88"/>
<text text-anchor="start" x="25.62" y="-103.38" font-family="Times,serif" font-size="10.00">mal_math::vec&lt; 3, T</text>
<text text-anchor="middle" x="66.5" y="-92.12" font-family="Times,serif" font-size="10.00"> &gt;::vec</text>
</a>
</g>
</g>
<!-- Node1&#45;&gt;Node9 -->
<g id="edge8_Node000001_Node000009" class="edge">
<title>Node1&#45;&gt;Node9</title>
<g id="a_edge8_Node000001_Node000009"><a xlink:title=" ">
<path fill="none" stroke="#63b8ff" d="M202.54,-190.34C185.79,-170.91 160.15,-144.1 133,-126.62 127.58,-123.13 121.59,-120.02 115.51,-117.27"/>
<polygon fill="#63b8ff" stroke="#63b8ff" points="199.7,-192.41 208.82,-197.8 205.05,-187.9 199.7,-192.41"/>
</a>
</g>
</g>
<!-- Node10 -->
<g id="Node000010" class="node">
<title>Node10</title>
<g id="a_Node000010"><a xlink:href="../../de/dfb/structmal__math_1_1vec_3_014_00_01_t_01_4.html#a76582bc85bfe3824a8fa536170615707" target="_top" xlink:title="Variadic constructor.">
<polygon fill="white" stroke="#666666" points="115.38,-67.88 17.62,-67.88 17.62,-37.38 115.38,-37.38 115.38,-67.88"/>
<text text-anchor="start" x="25.62" y="-54.38" font-family="Times,serif" font-size="10.00">mal_math::vec&lt; 4, T</text>
<text text-anchor="middle" x="66.5" y="-43.12" font-family="Times,serif" font-size="10.00"> &gt;::vec</text>
</a>
</g>
</g>
<!-- Node1&#45;&gt;Node10 -->
<g id="edge9_Node000001_Node000010" class="edge">
<title>Node1&#45;&gt;Node10</title>
<g id="a_edge9_Node000001_Node000010"><a xlink:title=" ">
<path fill="none" stroke="#63b8ff" d="M211.44,-188.95C197.55,-158.47 170.55,-107.95 133,-77.62 127.79,-73.42 121.8,-69.87 115.6,-66.88"/>
<polygon fill="#63b8ff" stroke="#63b8ff" points="208.11,-190.08 215.35,-197.81 214.52,-187.25 208.11,-190.08"/>
</a>
</g>
</g>
<!-- Node11 -->
<g id="Node000011" class="node">
<title>Node11</title>
<g id="a_Node000011"><a xlink:href="../../dd/dce/structmal__math_1_1vec.html#a1af9a16c5ca6f42554efdb39f0714896" target="_top" xlink:title="Variadic constructor.">
<polygon fill="white" stroke="#666666" points="112.38,-19.25 20.62,-19.25 20.62,0 112.38,0 112.38,-19.25"/>
<text text-anchor="middle" x="66.5" y="-5.75" font-family="Times,serif" font-size="10.00">mal_math::vec::vec</text>
</a>
</g>
</g>
<!-- Node1&#45;&gt;Node11 -->
<g id="edge10_Node000001_Node000011" class="edge">
<title>Node1&#45;&gt;Node11</title>
<g id="a_edge10_Node000001_Node000011"><a xlink:title=" ">
<path fill="none" stroke="#63b8ff" d="M216.64,-187.91C206.93,-147.46 182.86,-70.89 133,-28.62 127.13,-23.65 120.02,-19.97 112.67,-17.26"/>
<polygon fill="#63b8ff" stroke="#63b8ff" points="213.19,-188.55 218.82,-197.53 220.02,-187 213.19,-188.55"/>
</a>
</g>
</g>
</g>
</svg>

<g id="navigator" transform="translate(0 0)" fill="#404254">
  <rect fill="#f2f5e9" fill-opacity="0.5" stroke="#606060" stroke-width=".5" x="0" y="0" width="60" height="60"/>
  <use id="zoomplus" xlink:href="#zoomPlus" x="17" y="9" onmousedown="handleZoom(evt,'in')"/>
  <use id="zoomminus" xlink:href="#zoomMin" x="42" y="9" onmousedown="handleZoom(evt,'out')"/>
  <use id="reset" xlink:href="#resetDef" x="30" y="36" onmousedown="handleReset()"/>
   <use id="arrowup" xlink:href="#arrowUp" x="0" y="0" onmousedown="handlePan(0,-1)"/>
  <use id="arrowright" xlink:href="#arrowRight" x="0" y="0" onmousedown="handlePan(1,0)"/>
  <use id="arrowdown" xlink:href="#arrowDown" x="0" y="0" onmousedown="handlePan(0,1)"/>
  <use id="arrowleft" xlink:href="#arrowLeft" x="0" y="0" onmousedown="handlePan(-1,0)"/>
</g>
<svg viewBox="0 0 15 15" width="100%" height="30px" preserveAspectRatio="xMaxYMin meet">
 <g id="arrow_out" transform="scale(0.3 0.3)">
  <a xlink:href="structmal__math_1_1vec_a60d04587928247b6e0d6e00a9660b8bf_icgraph_org.svg" target="_base">
   <rect id="button" ry="5" rx="5" y="6" x="6" height="38" width="38"
        fill="#f2f5e9" fill-opacity="0.5" stroke="#606060" stroke-width="1.0"/>
   <path id="arrow"
     d="M 11.500037,31.436501 C 11.940474,20.09759 22.043105,11.32322 32.158766,21.979434 L 37.068811,17.246167 C 37.068811,17.246167 37.088388,32 37.088388,32 L 22.160133,31.978069 C 22.160133,31.978069 26.997745,27.140456 26.997745,27.140456 C 18.528582,18.264221 13.291696,25.230495 11.500037,31.436501 z"
     style="fill:#404040;"/>
  </a>
 </g>
</svg>

<style type='text/css'>
<![CDATA[
[data-mouse-over-selected='false'] { opacity: 0.7; }
[data-mouse-over-selected='true']  { opacity: 1.0; }
]]>
</style>
<script type="application/ecmascript"><![CDATA[
document.addEventListener('DOMContentLoaded', (event) => {
  highlightEdges();
  highlightAdjacentNodes();
});
]]></script>
</svg>
