<?xml version="1.0" encoding="UTF-8" standalone="no"?>
<!DOCTYPE svg PUBLIC "-//W3C//DTD SVG 1.1//EN"
 "http://www.w3.org/Graphics/SVG/1.1/DTD/svg11.dtd">
<!-- Generated by graphviz version 9.0.0 (20230911.1827)
 -->
<!-- Title: mal_math::adjugate Pages: 1 -->
<svg width="437pt" height="101pt"
 viewBox="0.00 0.00 437.25 101.25" xmlns="http://www.w3.org/2000/svg" xmlns:xlink="http://www.w3.org/1999/xlink">
<g id="graph0" class="graph" transform="scale(1 1) rotate(0) translate(4 97.25)">
<title>mal_math::adjugate</title>
<!-- Node1 -->
<g id="Node000001" class="node">
<title>Node1</title>
<g id="a_Node000001"><a xlink:title="Alias for the adj() function to compute the adjugate of a matrix.">
<polygon fill="#999999" stroke="#666666" points="92.5,-56.25 0,-56.25 0,-37 92.5,-37 92.5,-56.25"/>
<text text-anchor="middle" x="46.25" y="-42.75" font-family="Times,serif" font-size="10.00">mal_math::adjugate</text>
</a>
</g>
</g>
<!-- Node2 -->
<g id="Node000002" class="node">
<title>Node2</title>
<g id="a_Node000002"><a xlink:href="../../d1/d1d/namespacemal__math.html#a6b9483d460a882f9c49428abb7d7ed21" target="_top" xlink:title="Computes the adjoint (or adjugate) of a square matrix.">
<polygon fill="white" stroke="#666666" points="200.75,-56.25 128.5,-56.25 128.5,-37 200.75,-37 200.75,-56.25"/>
<text text-anchor="middle" x="164.62" y="-42.75" font-family="Times,serif" font-size="10.00">mal_math::adj</text>
</a>
</g>
</g>
<!-- Node1&#45;&gt;Node2 -->
<g id="edge1_Node000001_Node000002" class="edge">
<title>Node1&#45;&gt;Node2</title>
<g id="a_edge1_Node000001_Node000002"><a xlink:title=" ">
<path fill="none" stroke="#63b8ff" d="M92.91,-46.62C100.78,-46.62 108.98,-46.62 116.88,-46.62"/>
<polygon fill="#63b8ff" stroke="#63b8ff" points="116.66,-50.13 126.66,-46.63 116.66,-43.13 116.66,-50.13"/>
</a>
</g>
</g>
<!-- Node3 -->
<g id="Node000003" class="node">
<title>Node3</title>
<g id="a_Node000003"><a xlink:href="../../d1/d1d/namespacemal__math.html#a245dd949a6bfab7e377c6dab6ebf6280" target="_top" xlink:title="Calculates the determinant of a square matrix.">
<polygon fill="white" stroke="#666666" points="309.75,-56.25 236.75,-56.25 236.75,-37 309.75,-37 309.75,-56.25"/>
<text text-anchor="middle" x="273.25" y="-42.75" font-family="Times,serif" font-size="10.00">mal_math::det</text>
</a>
</g>
</g>
<!-- Node2&#45;&gt;Node3 -->
<g id="edge2_Node000002_Node000003" class="edge">
<title>Node2&#45;&gt;Node3</title>
<g id="a_edge2_Node000002_Node000003"><a xlink:title=" ">
<path fill="none" stroke="#63b8ff" d="M201.13,-46.62C208.87,-46.62 217.18,-46.62 225.29,-46.62"/>
<polygon fill="#63b8ff" stroke="#63b8ff" points="225.02,-50.13 235.02,-46.63 225.02,-43.13 225.02,-50.13"/>
</a>
</g>
</g>
<!-- Node4 -->
<g id="Node000004" class="node">
<title>Node4</title>
<g id="a_Node000004"><a xlink:href="../../d1/d1d/namespacemal__math.html#a4ca4a22c985a535c67c1821c42193f59" target="_top" xlink:title=" ">
<polygon fill="white" stroke="#666666" points="429.25,-93.25 345.75,-93.25 345.75,-74 429.25,-74 429.25,-93.25"/>
<text text-anchor="middle" x="387.5" y="-79.75" font-family="Times,serif" font-size="10.00">mal_math::det_2</text>
</a>
</g>
</g>
<!-- Node3&#45;&gt;Node4 -->
<g id="edge3_Node000003_Node000004" class="edge">
<title>Node3&#45;&gt;Node4</title>
<g id="a_edge3_Node000003_Node000004"><a xlink:title=" ">
<path fill="none" stroke="#63b8ff" d="M304.92,-56.74C317.3,-60.81 331.76,-65.58 345.05,-69.96"/>
<polygon fill="#63b8ff" stroke="#63b8ff" points="343.83,-73.25 354.43,-73.05 346.03,-66.6 343.83,-73.25"/>
</a>
</g>
</g>
<!-- Node5 -->
<g id="Node000005" class="node">
<title>Node5</title>
<g id="a_Node000005"><a xlink:href="../../d1/d1d/namespacemal__math.html#a684065c9e18fa3625d06a8762bff8dd1" target="_top" xlink:title=" ">
<polygon fill="white" stroke="#666666" points="429.25,-56.25 345.75,-56.25 345.75,-37 429.25,-37 429.25,-56.25"/>
<text text-anchor="middle" x="387.5" y="-42.75" font-family="Times,serif" font-size="10.00">mal_math::det_3</text>
</a>
</g>
</g>
<!-- Node3&#45;&gt;Node5 -->
<g id="edge4_Node000003_Node000005" class="edge">
<title>Node3&#45;&gt;Node5</title>
<g id="a_edge4_Node000003_Node000005"><a xlink:title=" ">
<path fill="none" stroke="#63b8ff" d="M310.08,-46.62C317.75,-46.62 326.01,-46.62 334.16,-46.62"/>
<polygon fill="#63b8ff" stroke="#63b8ff" points="334.03,-50.13 344.03,-46.63 334.03,-43.13 334.03,-50.13"/>
</a>
</g>
</g>
<!-- Node6 -->
<g id="Node000006" class="node">
<title>Node6</title>
<g id="a_Node000006"><a xlink:href="../../d1/d1d/namespacemal__math.html#a7205ab27aa1028ece0e9ad92fa2ac8e3" target="_top" xlink:title=" ">
<polygon fill="white" stroke="#666666" points="429.25,-19.25 345.75,-19.25 345.75,0 429.25,0 429.25,-19.25"/>
<text text-anchor="middle" x="387.5" y="-5.75" font-family="Times,serif" font-size="10.00">mal_math::det_4</text>
</a>
</g>
</g>
<!-- Node3&#45;&gt;Node6 -->
<g id="edge5_Node000003_Node000006" class="edge">
<title>Node3&#45;&gt;Node6</title>
<g id="a_edge5_Node000003_Node000006"><a xlink:title=" ">
<path fill="none" stroke="#63b8ff" d="M304.92,-36.51C317.3,-32.44 331.76,-27.67 345.05,-23.29"/>
<polygon fill="#63b8ff" stroke="#63b8ff" points="346.03,-26.65 354.43,-20.2 343.83,-20 346.03,-26.65"/>
</a>
</g>
</g>
</g>
</svg>
