<?xml version="1.0" encoding="UTF-8" standalone="no"?>
<!DOCTYPE svg PUBLIC "-//W3C//DTD SVG 1.1//EN"
 "http://www.w3.org/Graphics/SVG/1.1/DTD/svg11.dtd">
<!-- Generated by graphviz version 9.0.0 (20230911.1827)
 -->
<!-- Title: mal_math::rotate Pages: 1 -->
<svg width="459pt" height="214pt"
 viewBox="0.00 0.00 459.00 214.25" xmlns="http://www.w3.org/2000/svg" xmlns:xlink="http://www.w3.org/1999/xlink">

<svg id="main" version="1.1" xmlns="http://www.w3.org/2000/svg" xmlns:xlink="http://www.w3.org/1999/xlink" xml:space="preserve" onload="init(evt)">
<style type="text/css"><![CDATA[
.node, .edge {opacity: 0.7;}
.node.selected, .edge.selected {opacity: 1;}
.edge:hover path { stroke: red; }
.edge:hover polygon { stroke: red; fill: red; }
]]></style>
<script type="application/ecmascript" xlink:href="../../svg.min.js"/>
<svg id="graph" class="graph">
<g id="graph0" class="graph" transform="scale(1 1) rotate(0) translate(4 210.25)">
<title>mal_math::rotate</title>
<!-- Node1 -->
<g id="Node000001" class="node">
<title>Node1</title>
<g id="a_Node000001"><a xlink:title="Rotates a matrix by a given angle around a given axis.">
<polygon fill="#999999" stroke="#666666" points="83.5,-75.25 0,-75.25 0,-56 83.5,-56 83.5,-75.25"/>
<text text-anchor="middle" x="41.75" y="-61.75" font-family="Times,serif" font-size="10.00">mal_math::rotate</text>
</a>
</g>
</g>
<!-- Node1&#45;&gt;Node1 -->
<g id="edge11_Node000001_Node000001" class="edge">
<title>Node1&#45;&gt;Node1</title>
<g id="a_edge11_Node000001_Node000001"><a xlink:title=" ">
<path fill="none" stroke="#63b8ff" d="M21.81,-75.54C12.71,-84.15 19.36,-93.25 41.75,-93.25 53.99,-93.25 61.53,-90.53 64.36,-86.65"/>
<polygon fill="#63b8ff" stroke="#63b8ff" points="67.78,-85.92 62.04,-77.01 60.98,-87.55 67.78,-85.92"/>
</a>
</g>
</g>
<!-- Node2 -->
<g id="Node000002" class="node">
<title>Node2</title>
<g id="a_Node000002"><a xlink:href="../../d1/d1d/namespacemal__math.html#a536e0e1ac498d427d7d51bce8ed5e50b" target="_top" xlink:title="Computes the angle (or magnitude) of a quaternion.">
<polygon fill="white" stroke="#666666" points="209.75,-113.25 128.5,-113.25 128.5,-94 209.75,-94 209.75,-113.25"/>
<text text-anchor="middle" x="169.12" y="-99.75" font-family="Times,serif" font-size="10.00">mal_math::angle</text>
</a>
</g>
</g>
<!-- Node1&#45;&gt;Node2 -->
<g id="edge1_Node000001_Node000002" class="edge">
<title>Node1&#45;&gt;Node2</title>
<g id="a_edge1_Node000001_Node000002"><a xlink:title=" ">
<path fill="none" stroke="#63b8ff" d="M76.02,-75.71C90.87,-80.21 108.58,-85.58 124.47,-90.39"/>
<polygon fill="#63b8ff" stroke="#63b8ff" points="123.1,-93.64 133.69,-93.19 125.13,-86.94 123.1,-93.64"/>
</a>
</g>
</g>
<!-- Node8 -->
<g id="Node000008" class="node">
<title>Node8</title>
<g id="a_Node000008"><a xlink:href="../../d1/d1d/namespacemal__math.html#abe612f1321c4a59501c42f7759feaba4" target="_top" xlink:title="Normalizes a quaternion.">
<polygon fill="white" stroke="#666666" points="218.75,-57.25 119.5,-57.25 119.5,-38 218.75,-38 218.75,-57.25"/>
<text text-anchor="middle" x="169.12" y="-43.75" font-family="Times,serif" font-size="10.00">mal_math::normalize</text>
</a>
</g>
</g>
<!-- Node1&#45;&gt;Node8 -->
<g id="edge7_Node000001_Node000008" class="edge">
<title>Node1&#45;&gt;Node8</title>
<g id="a_edge7_Node000001_Node000008"><a xlink:title=" ">
<path fill="none" stroke="#63b8ff" d="M83.8,-59.73C91.47,-58.63 99.63,-57.46 107.74,-56.29"/>
<polygon fill="#63b8ff" stroke="#63b8ff" points="108.22,-59.76 117.62,-54.88 107.22,-52.83 108.22,-59.76"/>
</a>
</g>
</g>
<!-- Node3 -->
<g id="Node000003" class="node">
<title>Node3</title>
<g id="a_Node000003"><a xlink:href="../../d1/d1d/namespacemal__math.html#a6e7fa1a478c0db96bd23647ad1d5a118" target="_top" xlink:title=" ">
<polygon fill="white" stroke="#666666" points="334.12,-206.25 260.38,-206.25 260.38,-187 334.12,-187 334.12,-206.25"/>
<text text-anchor="middle" x="297.25" y="-192.75" font-family="Times,serif" font-size="10.00">mal_math::abs</text>
</a>
</g>
</g>
<!-- Node2&#45;&gt;Node3 -->
<g id="edge2_Node000002_Node000003" class="edge">
<title>Node2&#45;&gt;Node3</title>
<g id="a_edge2_Node000002_Node000003"><a xlink:title=" ">
<path fill="none" stroke="#63b8ff" d="M179.45,-113.73C194.23,-129.29 224.45,-159.32 254.75,-178.62 256.34,-179.64 258,-180.62 259.71,-181.57"/>
<polygon fill="#63b8ff" stroke="#63b8ff" points="257.85,-184.55 268.35,-185.92 260.99,-178.3 257.85,-184.55"/>
</a>
</g>
</g>
<!-- Node4 -->
<g id="Node000004" class="node">
<title>Node4</title>
<g id="a_Node000004"><a xlink:href="../../d1/d1d/namespacemal__math.html#a280c7762332b780e1c64d757a2dfa8c7" target="_top" xlink:title=" ">
<polygon fill="white" stroke="#666666" points="336.38,-169.25 258.12,-169.25 258.12,-150 336.38,-150 336.38,-169.25"/>
<text text-anchor="middle" x="297.25" y="-155.75" font-family="Times,serif" font-size="10.00">mal_math::acos</text>
</a>
</g>
</g>
<!-- Node2&#45;&gt;Node4 -->
<g id="edge3_Node000002_Node000004" class="edge">
<title>Node2&#45;&gt;Node4</title>
<g id="a_edge3_Node000002_Node000004"><a xlink:title=" ">
<path fill="none" stroke="#63b8ff" d="M192.36,-113.7C209.41,-121.41 233.53,-132.26 254.75,-141.62 257.33,-142.76 260,-143.93 262.68,-145.11"/>
<polygon fill="#63b8ff" stroke="#63b8ff" points="261.01,-148.2 271.57,-148.98 263.8,-141.78 261.01,-148.2"/>
</a>
</g>
</g>
<!-- Node5 -->
<g id="Node000005" class="node">
<title>Node5</title>
<g id="a_Node000005"><a xlink:href="../../d1/d1d/namespacemal__math.html#a1e523742ea66fe6117bfc9e95f297019" target="_top" xlink:title=" ">
<polygon fill="white" stroke="#666666" points="335.62,-132.25 258.88,-132.25 258.88,-113 335.62,-113 335.62,-132.25"/>
<text text-anchor="middle" x="297.25" y="-118.75" font-family="Times,serif" font-size="10.00">mal_math::asin</text>
</a>
</g>
</g>
<!-- Node2&#45;&gt;Node5 -->
<g id="edge4_Node000002_Node000005" class="edge">
<title>Node2&#45;&gt;Node5</title>
<g id="a_edge4_Node000002_Node000005"><a xlink:title=" ">
<path fill="none" stroke="#63b8ff" d="M210.03,-109.64C221.97,-111.43 235.19,-113.43 247.62,-115.3"/>
<polygon fill="#63b8ff" stroke="#63b8ff" points="246.84,-118.72 257.25,-116.75 247.89,-111.8 246.84,-118.72"/>
</a>
</g>
</g>
<!-- Node6 -->
<g id="Node000006" class="node">
<title>Node6</title>
<g id="a_Node000006"><a xlink:href="../../d1/d1d/namespacemal__math.html#a16d6c0540a171f065334b7fe17a0dd72" target="_top" xlink:title=" ">
<polygon fill="white" stroke="#666666" points="334.12,-95.25 260.38,-95.25 260.38,-76 334.12,-76 334.12,-95.25"/>
<text text-anchor="middle" x="297.25" y="-81.75" font-family="Times,serif" font-size="10.00">mal_math::cos</text>
</a>
</g>
</g>
<!-- Node2&#45;&gt;Node6 -->
<g id="edge5_Node000002_Node000006" class="edge">
<title>Node2&#45;&gt;Node6</title>
<g id="a_edge5_Node000002_Node000006"><a xlink:title=" ">
<path fill="none" stroke="#63b8ff" d="M210.03,-97.93C222.3,-96.18 235.92,-94.23 248.65,-92.42"/>
<polygon fill="#63b8ff" stroke="#63b8ff" points="249.12,-95.89 258.52,-91.01 248.13,-88.96 249.12,-95.89"/>
</a>
</g>
</g>
<!-- Node7 -->
<g id="Node000007" class="node">
<title>Node7</title>
<g id="a_Node000007"><a xlink:href="../../d1/d1d/namespacemal__math.html#a8578ea303028d0b058d33dc3aca926b3" target="_top" xlink:title=" ">
<polygon fill="white" stroke="#666666" points="451,-56.25 375.75,-56.25 375.75,-37 451,-37 451,-56.25"/>
<text text-anchor="middle" x="413.38" y="-42.75" font-family="Times,serif" font-size="10.00">mal_math::sqrt</text>
</a>
</g>
</g>
<!-- Node2&#45;&gt;Node7 -->
<g id="edge6_Node000002_Node000007" class="edge">
<title>Node2&#45;&gt;Node7</title>
<g id="a_edge6_Node000002_Node000007"><a xlink:title=" ">
<path fill="none" stroke="#63b8ff" d="M188.71,-93.64C205.49,-85.09 231.1,-73.15 254.75,-66.62 290.75,-56.69 332.75,-51.67 364.34,-49.15"/>
<polygon fill="#63b8ff" stroke="#63b8ff" points="364.26,-52.66 373.97,-48.44 363.74,-45.68 364.26,-52.66"/>
</a>
</g>
</g>
<!-- Node9 -->
<g id="Node000009" class="node">
<title>Node9</title>
<g id="a_Node000009"><a xlink:href="../../d1/d1d/namespacemal__math.html#a39c5199d92cd6fd327cd1719bd148dcc" target="_top" xlink:title="Computes the length (or magnitude) of a quaternion.">
<polygon fill="white" stroke="#666666" points="339.75,-19.25 254.75,-19.25 254.75,0 339.75,0 339.75,-19.25"/>
<text text-anchor="middle" x="297.25" y="-5.75" font-family="Times,serif" font-size="10.00">mal_math::length</text>
</a>
</g>
</g>
<!-- Node8&#45;&gt;Node9 -->
<g id="edge8_Node000008_Node000009" class="edge">
<title>Node8&#45;&gt;Node9</title>
<g id="a_edge8_Node000008_Node000009"><a xlink:title=" ">
<path fill="none" stroke="#63b8ff" d="M203.59,-37.54C218.54,-33.04 236.34,-27.67 252.34,-22.86"/>
<polygon fill="#63b8ff" stroke="#63b8ff" points="253.05,-26.3 261.61,-20.06 251.03,-19.59 253.05,-26.3"/>
</a>
</g>
</g>
<!-- Node9&#45;&gt;Node7 -->
<g id="edge10_Node000009_Node000007" class="edge">
<title>Node9&#45;&gt;Node7</title>
<g id="a_edge10_Node000009_Node000007"><a xlink:title=" ">
<path fill="none" stroke="#63b8ff" d="M329.44,-19.74C342.14,-23.85 357.02,-28.68 370.64,-33.09"/>
<polygon fill="#63b8ff" stroke="#63b8ff" points="369.2,-36.31 379.79,-36.06 371.35,-29.65 369.2,-36.31"/>
</a>
</g>
</g>
<!-- Node10 -->
<g id="Node000010" class="node">
<title>Node10</title>
<g id="a_Node000010"><a xlink:href="../../d1/d1d/namespacemal__math.html#aab7b54d530da999aae378287a25da1c0" target="_top" xlink:title="Computes the dot product of two quaternions.">
<polygon fill="white" stroke="#666666" points="450.25,-19.25 376.5,-19.25 376.5,0 450.25,0 450.25,-19.25"/>
<text text-anchor="middle" x="413.38" y="-5.75" font-family="Times,serif" font-size="10.00">mal_math::dot</text>
</a>
</g>
</g>
<!-- Node9&#45;&gt;Node10 -->
<g id="edge9_Node000009_Node000010" class="edge">
<title>Node9&#45;&gt;Node10</title>
<g id="a_edge9_Node000009_Node000010"><a xlink:title=" ">
<path fill="none" stroke="#63b8ff" d="M340.1,-9.62C348.14,-9.62 356.62,-9.62 364.82,-9.62"/>
<polygon fill="#63b8ff" stroke="#63b8ff" points="364.66,-13.13 374.66,-9.63 364.66,-6.13 364.66,-13.13"/>
</a>
</g>
</g>
</g>
</svg>
</svg>

<style type='text/css'>
<![CDATA[
[data-mouse-over-selected='false'] { opacity: 0.7; }
[data-mouse-over-selected='true']  { opacity: 1.0; }
]]>
</style>
<script type="application/ecmascript"><![CDATA[
document.addEventListener('DOMContentLoaded', (event) => {
  highlightEdges();
  highlightAdjacentNodes();
});
]]></script>
</svg>
