<?xml version="1.0" encoding="UTF-8" standalone="no"?>
<!DOCTYPE svg PUBLIC "-//W3C//DTD SVG 1.1//EN"
 "http://www.w3.org/Graphics/SVG/1.1/DTD/svg11.dtd">
<!-- Generated by graphviz version 9.0.0 (20230911.1827)
 -->
<!-- Title: mal_math::min Pages: 1 -->
<svg width="648pt" height="315pt"
 viewBox="0.00 0.00 648.25 315.25" xmlns="http://www.w3.org/2000/svg" xmlns:xlink="http://www.w3.org/1999/xlink">
<g id="graph0" class="graph" transform="scale(1 1) rotate(0) translate(4 311.25)">
<title>mal_math::min</title>
<!-- Node1 -->
<g id="Node000001" class="node">
<title>Node1</title>
<g id="a_Node000001"><a xlink:title="Returns a new vector with each element being the minimum of the corresponding element in left and max...">
<polygon fill="#999999" stroke="#666666" points="640.25,-151.25 564.25,-151.25 564.25,-132 640.25,-132 640.25,-151.25"/>
<text text-anchor="middle" x="602.25" y="-137.75" font-family="Times,serif" font-size="10.00">mal_math::min</text>
</a>
</g>
</g>
<!-- Node2 -->
<g id="Node000002" class="node">
<title>Node2</title>
<g id="a_Node000002"><a xlink:href="../../d1/d1d/namespacemal__math.html#a2cc744886db3eb1957bc8ab02c4f07ba" target="_top" xlink:title="Clamp the value of left between min and max.">
<polygon fill="white" stroke="#666666" points="410.25,-307.25 326,-307.25 326,-288 410.25,-288 410.25,-307.25"/>
<text text-anchor="middle" x="368.12" y="-293.75" font-family="Times,serif" font-size="10.00">mal_math::clamp</text>
</a>
</g>
</g>
<!-- Node1&#45;&gt;Node2 -->
<g id="edge1_Node000001_Node000002" class="edge">
<title>Node1&#45;&gt;Node2</title>
<g id="a_edge1_Node000001_Node000002"><a xlink:title=" ">
<path fill="none" stroke="#63b8ff" d="M586.15,-160.44C572.29,-176.9 550.58,-200.75 528.25,-217.62 486.07,-249.51 429.24,-274.49 396.15,-287.57"/>
<polygon fill="#63b8ff" stroke="#63b8ff" points="588.72,-162.82 592.38,-152.88 583.32,-158.37 588.72,-162.82"/>
</a>
</g>
</g>
<!-- Node3 -->
<g id="Node000003" class="node">
<title>Node3</title>
<g id="a_Node000003"><a xlink:href="../../d1/d1d/namespacemal__math.html#a155cd682c1a04cbf38d755c37ffe4b80" target="_top" xlink:title="Clamp the value of left between min and max.">
<polygon fill="white" stroke="#666666" points="410.25,-270.25 326,-270.25 326,-251 410.25,-251 410.25,-270.25"/>
<text text-anchor="middle" x="368.12" y="-256.75" font-family="Times,serif" font-size="10.00">mal_math::clamp</text>
</a>
</g>
</g>
<!-- Node1&#45;&gt;Node3 -->
<g id="edge2_Node000001_Node000003" class="edge">
<title>Node1&#45;&gt;Node3</title>
<g id="a_edge2_Node000001_Node000003"><a xlink:title=" ">
<path fill="none" stroke="#63b8ff" d="M573.87,-157.22C537.38,-177.78 470.56,-214.6 411.75,-242.62 406.09,-245.32 399.93,-248.04 394.09,-250.53"/>
<polygon fill="#63b8ff" stroke="#63b8ff" points="575.46,-160.35 582.44,-152.38 572.01,-154.25 575.46,-160.35"/>
</a>
</g>
</g>
<!-- Node4 -->
<g id="Node000004" class="node">
<title>Node4</title>
<g id="a_Node000004"><a xlink:href="../../d1/d1d/namespacemal__math.html#a62078768f0d05a97bc7bfc7dba63ba1d" target="_top" xlink:title="Clamp the value of left between min and max.">
<polygon fill="white" stroke="#666666" points="410.25,-122.25 326,-122.25 326,-103 410.25,-103 410.25,-122.25"/>
<text text-anchor="middle" x="368.12" y="-108.75" font-family="Times,serif" font-size="10.00">mal_math::clamp</text>
</a>
</g>
</g>
<!-- Node1&#45;&gt;Node4 -->
<g id="edge3_Node000001_Node000004" class="edge">
<title>Node1&#45;&gt;Node4</title>
<g id="a_edge3_Node000001_Node000004"><a xlink:title=" ">
<path fill="none" stroke="#63b8ff" d="M552.61,-135.55C510.57,-130.3 450.46,-122.79 410.64,-117.81"/>
<polygon fill="#63b8ff" stroke="#63b8ff" points="552.1,-139.01 562.45,-136.78 552.96,-132.07 552.1,-139.01"/>
</a>
</g>
</g>
<!-- Node5 -->
<g id="Node000005" class="node">
<title>Node5</title>
<g id="a_Node000005"><a xlink:href="../../d1/d1d/namespacemal__math.html#a1772c0a8c3a9672ecf7b372fb536e492" target="_top" xlink:title="Returns a new vector with each element being the maximum of the corresponding element in left and min...">
<polygon fill="white" stroke="#666666" points="526.38,-170.25 449.62,-170.25 449.62,-151 526.38,-151 526.38,-170.25"/>
<text text-anchor="middle" x="488" y="-156.75" font-family="Times,serif" font-size="10.00">mal_math::max</text>
</a>
</g>
</g>
<!-- Node1&#45;&gt;Node5 -->
<g id="edge4_Node000001_Node000005" class="edge">
<title>Node1&#45;&gt;Node5</title>
<g id="a_edge4_Node000001_Node000005"><a xlink:title=" ">
<path fill="none" stroke="#63b8ff" d="M552.57,-143.17C539.47,-145.2 525.82,-147.82 514.53,-150.54"/>
<polygon fill="#63b8ff" stroke="#63b8ff" points="552.97,-146.65 562.37,-141.76 551.98,-139.72 552.97,-146.65"/>
</a>
</g>
</g>
<!-- Node11 -->
<g id="Node000011" class="node">
<title>Node11</title>
<g id="a_Node000011"><a xlink:href="../../d1/d1d/namespacemal__math.html#a9df9f049be433c7e1cd8ab01fdef2502" target="_top" xlink:title="Clamp the value of left between min and max in&#45;place.">
<polygon fill="white" stroke="#666666" points="411.75,-85.25 324.5,-85.25 324.5,-66 411.75,-66 411.75,-85.25"/>
<text text-anchor="middle" x="368.12" y="-71.75" font-family="Times,serif" font-size="10.00">mal_math::rclamp</text>
</a>
</g>
</g>
<!-- Node1&#45;&gt;Node11 -->
<g id="edge18_Node000001_Node000011" class="edge">
<title>Node1&#45;&gt;Node11</title>
<g id="a_edge18_Node000001_Node000011"><a xlink:title=" ">
<path fill="none" stroke="#63b8ff" d="M559.67,-128.2C549.42,-124.98 538.46,-121.61 528.25,-118.62 487.46,-106.69 440.45,-94.14 408.16,-85.69"/>
<polygon fill="#63b8ff" stroke="#63b8ff" points="558.4,-131.47 568.99,-131.15 560.51,-124.79 558.4,-131.47"/>
</a>
</g>
</g>
<!-- Node15 -->
<g id="Node000015" class="node">
<title>Node15</title>
<g id="a_Node000015"><a xlink:href="../../d1/d1d/namespacemal__math.html#aaf8395dd0451e6ad4acc08131d8ef023" target="_top" xlink:title="Modifies left in&#45;place, setting each element to the maximum of itself and the corresponding element i...">
<polygon fill="white" stroke="#666666" points="528.25,-56.25 447.75,-56.25 447.75,-37 528.25,-37 528.25,-56.25"/>
<text text-anchor="middle" x="488" y="-42.75" font-family="Times,serif" font-size="10.00">mal_math::rmax</text>
</a>
</g>
</g>
<!-- Node1&#45;&gt;Node15 -->
<g id="edge19_Node000001_Node000015" class="edge">
<title>Node1&#45;&gt;Node15</title>
<g id="a_edge19_Node000001_Node000015"><a xlink:title=" ">
<path fill="none" stroke="#63b8ff" d="M584.97,-123.69C570.79,-108.6 549.26,-86.94 528.25,-70.62 521.69,-65.53 513.98,-60.61 507.14,-56.57"/>
<polygon fill="#63b8ff" stroke="#63b8ff" points="582.02,-125.66 591.39,-130.62 587.16,-120.9 582.02,-125.66"/>
</a>
</g>
</g>
<!-- Node16 -->
<g id="Node000016" class="node">
<title>Node16</title>
<g id="a_Node000016"><a xlink:href="../../d1/d1d/namespacemal__math.html#ac321a786300a672c0a5b07a551d47680" target="_top" xlink:title="Modifies left in&#45;place, setting each element to the maximum of itself and min.">
<polygon fill="white" stroke="#666666" points="528.25,-19.25 447.75,-19.25 447.75,0 528.25,0 528.25,-19.25"/>
<text text-anchor="middle" x="488" y="-5.75" font-family="Times,serif" font-size="10.00">mal_math::rmax</text>
</a>
</g>
</g>
<!-- Node1&#45;&gt;Node16 -->
<g id="edge21_Node000001_Node000016" class="edge">
<title>Node1&#45;&gt;Node16</title>
<g id="a_edge21_Node000001_Node000016"><a xlink:title=" ">
<path fill="none" stroke="#63b8ff" d="M592.64,-121.33C581.17,-96.39 558.72,-54.11 528.25,-27.62 524.74,-24.58 520.63,-21.95 516.42,-19.72"/>
<polygon fill="#63b8ff" stroke="#63b8ff" points="589.39,-122.64 596.64,-130.37 595.79,-119.81 589.39,-122.64"/>
</a>
</g>
</g>
<!-- Node5&#45;&gt;Node1 -->
<g id="edge13_Node000005_Node000001" class="edge">
<title>Node5&#45;&gt;Node1</title>
<g id="a_edge13_Node000005_Node000001"><a xlink:title=" ">
<path fill="none" stroke="#63b8ff" d="M537.98,-159.04C551.01,-157.01 564.57,-154.4 575.78,-151.7"/>
<polygon fill="#63b8ff" stroke="#63b8ff" points="537.63,-155.55 528.23,-160.44 538.62,-162.48 537.63,-155.55"/>
</a>
</g>
</g>
<!-- Node5&#45;&gt;Node2 -->
<g id="edge5_Node000005_Node000002" class="edge">
<title>Node5&#45;&gt;Node2</title>
<g id="a_edge5_Node000005_Node000002"><a xlink:title=" ">
<path fill="none" stroke="#63b8ff" d="M478.66,-181.22C467.15,-207.32 444.09,-252.21 411.75,-279.62 408.07,-282.74 403.78,-285.39 399.36,-287.61"/>
<polygon fill="#63b8ff" stroke="#63b8ff" points="481.85,-182.64 482.54,-172.07 475.41,-179.91 481.85,-182.64"/>
</a>
</g>
</g>
<!-- Node5&#45;&gt;Node3 -->
<g id="edge6_Node000005_Node000003" class="edge">
<title>Node5&#45;&gt;Node3</title>
<g id="a_edge6_Node000005_Node000003"><a xlink:title=" ">
<path fill="none" stroke="#63b8ff" d="M473.27,-179.82C459.46,-198 436.67,-225.06 411.75,-242.62 407.42,-245.68 402.48,-248.36 397.55,-250.64"/>
<polygon fill="#63b8ff" stroke="#63b8ff" points="475.95,-182.09 479.08,-171.97 470.32,-177.92 475.95,-182.09"/>
</a>
</g>
</g>
<!-- Node5&#45;&gt;Node4 -->
<g id="edge7_Node000005_Node000004" class="edge">
<title>Node5&#45;&gt;Node4</title>
<g id="a_edge7_Node000005_Node000004"><a xlink:title=" ">
<path fill="none" stroke="#63b8ff" d="M451.8,-146.29C433.12,-138.68 410.61,-129.52 393.8,-122.67"/>
<polygon fill="#63b8ff" stroke="#63b8ff" points="450.31,-149.46 460.89,-149.99 452.95,-142.98 450.31,-149.46"/>
</a>
</g>
</g>
<!-- Node6 -->
<g id="Node000006" class="node">
<title>Node6</title>
<g id="a_Node000006"><a xlink:href="../../d1/d1d/namespacemal__math.html#a4d2f468cb836cd1462730c9f8c7e450a" target="_top" xlink:title="Function to clamp a value between a minimum and maximum.">
<polygon fill="white" stroke="#666666" points="410.25,-196.25 326,-196.25 326,-177 410.25,-177 410.25,-196.25"/>
<text text-anchor="middle" x="368.12" y="-182.75" font-family="Times,serif" font-size="10.00">mal_math::clamp</text>
</a>
</g>
</g>
<!-- Node5&#45;&gt;Node6 -->
<g id="edge8_Node000005_Node000006" class="edge">
<title>Node5&#45;&gt;Node6</title>
<g id="a_edge8_Node000005_Node000006"><a xlink:title=" ">
<path fill="none" stroke="#63b8ff" d="M438.33,-171.36C429.07,-173.4 419.47,-175.52 410.47,-177.51"/>
<polygon fill="#63b8ff" stroke="#63b8ff" points="438.89,-174.82 447.9,-169.25 437.38,-167.99 438.89,-174.82"/>
</a>
</g>
</g>
<!-- Node5&#45;&gt;Node11 -->
<g id="edge14_Node000005_Node000011" class="edge">
<title>Node5&#45;&gt;Node11</title>
<g id="a_edge14_Node000005_Node000011"><a xlink:title=" ">
<path fill="none" stroke="#63b8ff" d="M470.12,-142.61C455.68,-127.98 433.79,-107.55 411.75,-93.62 407,-90.62 401.66,-87.91 396.4,-85.57"/>
<polygon fill="#63b8ff" stroke="#63b8ff" points="467.57,-145.01 477.03,-149.77 472.6,-140.15 467.57,-145.01"/>
</a>
</g>
</g>
<!-- Node12 -->
<g id="Node000012" class="node">
<title>Node12</title>
<g id="a_Node000012"><a xlink:href="../../d1/d1d/namespacemal__math.html#a4447cd563a68bd32f6497735ee70a3b8" target="_top" xlink:title="Modifies left in&#45;place, setting each element to the minimum of itself and the corresponding element i...">
<polygon fill="white" stroke="#666666" points="408,-159.25 328.25,-159.25 328.25,-140 408,-140 408,-159.25"/>
<text text-anchor="middle" x="368.12" y="-145.75" font-family="Times,serif" font-size="10.00">mal_math::rmin</text>
</a>
</g>
</g>
<!-- Node5&#45;&gt;Node12 -->
<g id="edge15_Node000005_Node000012" class="edge">
<title>Node5&#45;&gt;Node12</title>
<g id="a_edge15_Node000005_Node000012"><a xlink:title=" ">
<path fill="none" stroke="#63b8ff" d="M438.04,-156.06C428.16,-155.13 417.91,-154.18 408.42,-153.29"/>
<polygon fill="#63b8ff" stroke="#63b8ff" points="437.59,-159.53 447.87,-156.97 438.24,-152.56 437.59,-159.53"/>
</a>
</g>
</g>
<!-- Node14 -->
<g id="Node000014" class="node">
<title>Node14</title>
<g id="a_Node000014"><a xlink:href="../../d1/d1d/namespacemal__math.html#a6471aad090de0ad37483ee8d64562425" target="_top" xlink:title="Modifies left in&#45;place, setting each element to the minimum of itself and max.">
<polygon fill="white" stroke="#666666" points="408,-233.25 328.25,-233.25 328.25,-214 408,-214 408,-233.25"/>
<text text-anchor="middle" x="368.12" y="-219.75" font-family="Times,serif" font-size="10.00">mal_math::rmin</text>
</a>
</g>
</g>
<!-- Node5&#45;&gt;Node14 -->
<g id="edge17_Node000005_Node000014" class="edge">
<title>Node5&#45;&gt;Node14</title>
<g id="a_edge17_Node000005_Node000014"><a xlink:title=" ">
<path fill="none" stroke="#63b8ff" d="M462.12,-176.7C447.69,-185.71 429.01,-196.87 411.75,-205.62 406.3,-208.39 400.34,-211.09 394.63,-213.54"/>
<polygon fill="#63b8ff" stroke="#63b8ff" points="463.93,-179.69 470.51,-171.39 460.19,-173.78 463.93,-179.69"/>
</a>
</g>
</g>
<!-- Node7 -->
<g id="Node000007" class="node">
<title>Node7</title>
<g id="a_Node000007"><a xlink:href="../../d1/d1d/namespacemal__math.html#a6c89bca6ee3f863870442353a30e89e2" target="_top" xlink:title="Compute the angle between two vectors.">
<polygon fill="white" stroke="#666666" points="272,-214.25 190.75,-214.25 190.75,-195 272,-195 272,-214.25"/>
<text text-anchor="middle" x="231.38" y="-200.75" font-family="Times,serif" font-size="10.00">mal_math::angle</text>
</a>
</g>
</g>
<!-- Node6&#45;&gt;Node7 -->
<g id="edge9_Node000006_Node000007" class="edge">
<title>Node6&#45;&gt;Node7</title>
<g id="a_edge9_Node000006_Node000007"><a xlink:title=" ">
<path fill="none" stroke="#63b8ff" d="M314.53,-193.65C300.44,-195.53 285.43,-197.54 272.15,-199.31"/>
<polygon fill="#63b8ff" stroke="#63b8ff" points="314.65,-197.17 324.1,-192.37 313.72,-190.23 314.65,-197.17"/>
</a>
</g>
</g>
<!-- Node8 -->
<g id="Node000008" class="node">
<title>Node8</title>
<g id="a_Node000008"><a xlink:href="../../d1/d1d/namespacemal__math.html#a7b0f322eff757ae4fe380a81a6c42c63" target="_top" xlink:title="Computes the yaw from a quaternion.">
<polygon fill="white" stroke="#666666" points="269,-177.25 193.75,-177.25 193.75,-158 269,-158 269,-177.25"/>
<text text-anchor="middle" x="231.38" y="-163.75" font-family="Times,serif" font-size="10.00">mal_math::yaw</text>
</a>
</g>
</g>
<!-- Node6&#45;&gt;Node8 -->
<g id="edge10_Node000006_Node000008" class="edge">
<title>Node6&#45;&gt;Node8</title>
<g id="a_edge10_Node000006_Node000008"><a xlink:title=" ">
<path fill="none" stroke="#63b8ff" d="M314.36,-179.18C299.34,-177.07 283.3,-174.81 269.42,-172.85"/>
<polygon fill="#63b8ff" stroke="#63b8ff" points="313.71,-182.63 324.1,-180.56 314.68,-175.7 313.71,-182.63"/>
</a>
</g>
</g>
<!-- Node9 -->
<g id="Node000009" class="node">
<title>Node9</title>
<g id="a_Node000009"><a xlink:href="../../d1/d1d/namespacemal__math.html#a58cd6b68785c108f943056ae8f463d4c" target="_top" xlink:title="Creates a quaternion from individual Euler angles.">
<polygon fill="white" stroke="#666666" points="132.62,-204.88 5.62,-204.88 5.62,-174.38 132.62,-174.38 132.62,-204.88"/>
<text text-anchor="start" x="13.62" y="-191.38" font-family="Times,serif" font-size="10.00">mal_math::QuaternionFrom</text>
<text text-anchor="middle" x="69.12" y="-180.12" font-family="Times,serif" font-size="10.00">Euler</text>
</a>
</g>
</g>
<!-- Node8&#45;&gt;Node9 -->
<g id="edge11_Node000008_Node000009" class="edge">
<title>Node8&#45;&gt;Node9</title>
<g id="a_edge11_Node000008_Node000009"><a xlink:title=" ">
<path fill="none" stroke="#63b8ff" d="M182.22,-174.24C166.78,-176.36 149.45,-178.73 133.11,-180.98"/>
<polygon fill="#63b8ff" stroke="#63b8ff" points="182.68,-177.71 192.11,-172.88 181.73,-170.77 182.68,-177.71"/>
</a>
</g>
</g>
<!-- Node10 -->
<g id="Node000010" class="node">
<title>Node10</title>
<g id="a_Node000010"><a xlink:href="../../d1/d1d/namespacemal__math.html#a66974d61c29bbf4008522006be6d7ac9" target="_top" xlink:title="Converts a quaternion to Euler angles.">
<polygon fill="white" stroke="#666666" points="138.25,-156.25 0,-156.25 0,-137 138.25,-137 138.25,-156.25"/>
<text text-anchor="middle" x="69.12" y="-142.75" font-family="Times,serif" font-size="10.00">mal_math::QuaternionToEuler</text>
</a>
</g>
</g>
<!-- Node8&#45;&gt;Node10 -->
<g id="edge12_Node000008_Node000010" class="edge">
<title>Node8&#45;&gt;Node10</title>
<g id="a_edge12_Node000008_Node000010"><a xlink:title=" ">
<path fill="none" stroke="#63b8ff" d="M182.43,-161.34C168.63,-159.53 153.31,-157.53 138.53,-155.59"/>
<polygon fill="#63b8ff" stroke="#63b8ff" points="181.74,-164.78 192.11,-162.61 182.65,-157.84 181.74,-164.78"/>
</a>
</g>
</g>
<!-- Node13 -->
<g id="Node000013" class="node">
<title>Node13</title>
<g id="a_Node000013"><a xlink:href="../../d7/d3f/structmal__math_1_1_t_box.html#adcade33b33746b6e1372d82bd6ade3f6" target="_top" xlink:title="Expands the box to include a point.">
<polygon fill="white" stroke="#666666" points="288.5,-103.25 174.25,-103.25 174.25,-84 288.5,-84 288.5,-103.25"/>
<text text-anchor="middle" x="231.38" y="-89.75" font-family="Times,serif" font-size="10.00">mal_math::TBox::expand</text>
</a>
</g>
</g>
<!-- Node12&#45;&gt;Node13 -->
<g id="edge16_Node000012_Node000013" class="edge">
<title>Node12&#45;&gt;Node13</title>
<g id="a_edge16_Node000012_Node000013"><a xlink:title=" ">
<path fill="none" stroke="#63b8ff" d="M332.69,-135.31C308.93,-125.44 277.93,-112.56 256.71,-103.74"/>
<polygon fill="#63b8ff" stroke="#63b8ff" points="331.06,-138.43 341.64,-139.03 333.75,-131.96 331.06,-138.43"/>
</a>
</g>
</g>
<!-- Node15&#45;&gt;Node13 -->
<g id="edge20_Node000015_Node000013" class="edge">
<title>Node15&#45;&gt;Node13</title>
<g id="a_edge20_Node000015_Node000013"><a xlink:title=" ">
<path fill="none" stroke="#63b8ff" d="M436.01,-45.61C403.7,-45.98 361.21,-48.35 324.5,-56.62 298.44,-62.5 270.16,-74.82 251.91,-83.63"/>
<polygon fill="#63b8ff" stroke="#63b8ff" points="435.93,-49.11 445.92,-45.56 435.9,-42.11 435.93,-49.11"/>
</a>
</g>
</g>
</g>
</svg>
