<?xml version="1.0" encoding="UTF-8" standalone="no"?>
<!DOCTYPE svg PUBLIC "-//W3C//DTD SVG 1.1//EN"
 "http://www.w3.org/Graphics/SVG/1.1/DTD/svg11.dtd">
<!-- Generated by graphviz version 9.0.0 (20230911.1827)
 -->
<!-- Title: mal_math::adj Pages: 1 -->
<svg width="309pt" height="101pt"
 viewBox="0.00 0.00 308.75 101.25" xmlns="http://www.w3.org/2000/svg" xmlns:xlink="http://www.w3.org/1999/xlink">
<g id="graph0" class="graph" transform="scale(1 1) rotate(0) translate(4 97.25)">
<title>mal_math::adj</title>
<!-- Node1 -->
<g id="Node000001" class="node">
<title>Node1</title>
<g id="a_Node000001"><a xlink:title="Computes the adjoint (or adjugate) of a square matrix.">
<polygon fill="#999999" stroke="#666666" points="72.25,-56.25 0,-56.25 0,-37 72.25,-37 72.25,-56.25"/>
<text text-anchor="middle" x="36.12" y="-42.75" font-family="Times,serif" font-size="10.00">mal_math::adj</text>
</a>
</g>
</g>
<!-- Node2 -->
<g id="Node000002" class="node">
<title>Node2</title>
<g id="a_Node000002"><a xlink:href="../../d1/d1d/namespacemal__math.html#a245dd949a6bfab7e377c6dab6ebf6280" target="_top" xlink:title="Calculates the determinant of a square matrix.">
<polygon fill="white" stroke="#666666" points="181.25,-56.25 108.25,-56.25 108.25,-37 181.25,-37 181.25,-56.25"/>
<text text-anchor="middle" x="144.75" y="-42.75" font-family="Times,serif" font-size="10.00">mal_math::det</text>
</a>
</g>
</g>
<!-- Node1&#45;&gt;Node2 -->
<g id="edge1_Node000001_Node000002" class="edge">
<title>Node1&#45;&gt;Node2</title>
<g id="a_edge1_Node000001_Node000002"><a xlink:title=" ">
<path fill="none" stroke="#63b8ff" d="M72.63,-46.62C80.37,-46.62 88.68,-46.62 96.79,-46.62"/>
<polygon fill="#63b8ff" stroke="#63b8ff" points="96.52,-50.13 106.52,-46.63 96.52,-43.13 96.52,-50.13"/>
</a>
</g>
</g>
<!-- Node3 -->
<g id="Node000003" class="node">
<title>Node3</title>
<g id="a_Node000003"><a xlink:href="../../d1/d1d/namespacemal__math.html#a4ca4a22c985a535c67c1821c42193f59" target="_top" xlink:title=" ">
<polygon fill="white" stroke="#666666" points="300.75,-93.25 217.25,-93.25 217.25,-74 300.75,-74 300.75,-93.25"/>
<text text-anchor="middle" x="259" y="-79.75" font-family="Times,serif" font-size="10.00">mal_math::det_2</text>
</a>
</g>
</g>
<!-- Node2&#45;&gt;Node3 -->
<g id="edge2_Node000002_Node000003" class="edge">
<title>Node2&#45;&gt;Node3</title>
<g id="a_edge2_Node000002_Node000003"><a xlink:title=" ">
<path fill="none" stroke="#63b8ff" d="M176.42,-56.74C188.8,-60.81 203.26,-65.58 216.55,-69.96"/>
<polygon fill="#63b8ff" stroke="#63b8ff" points="215.33,-73.25 225.93,-73.05 217.53,-66.6 215.33,-73.25"/>
</a>
</g>
</g>
<!-- Node4 -->
<g id="Node000004" class="node">
<title>Node4</title>
<g id="a_Node000004"><a xlink:href="../../d1/d1d/namespacemal__math.html#a684065c9e18fa3625d06a8762bff8dd1" target="_top" xlink:title=" ">
<polygon fill="white" stroke="#666666" points="300.75,-56.25 217.25,-56.25 217.25,-37 300.75,-37 300.75,-56.25"/>
<text text-anchor="middle" x="259" y="-42.75" font-family="Times,serif" font-size="10.00">mal_math::det_3</text>
</a>
</g>
</g>
<!-- Node2&#45;&gt;Node4 -->
<g id="edge3_Node000002_Node000004" class="edge">
<title>Node2&#45;&gt;Node4</title>
<g id="a_edge3_Node000002_Node000004"><a xlink:title=" ">
<path fill="none" stroke="#63b8ff" d="M181.58,-46.62C189.25,-46.62 197.51,-46.62 205.66,-46.62"/>
<polygon fill="#63b8ff" stroke="#63b8ff" points="205.53,-50.13 215.53,-46.63 205.53,-43.13 205.53,-50.13"/>
</a>
</g>
</g>
<!-- Node5 -->
<g id="Node000005" class="node">
<title>Node5</title>
<g id="a_Node000005"><a xlink:href="../../d1/d1d/namespacemal__math.html#a7205ab27aa1028ece0e9ad92fa2ac8e3" target="_top" xlink:title=" ">
<polygon fill="white" stroke="#666666" points="300.75,-19.25 217.25,-19.25 217.25,0 300.75,0 300.75,-19.25"/>
<text text-anchor="middle" x="259" y="-5.75" font-family="Times,serif" font-size="10.00">mal_math::det_4</text>
</a>
</g>
</g>
<!-- Node2&#45;&gt;Node5 -->
<g id="edge4_Node000002_Node000005" class="edge">
<title>Node2&#45;&gt;Node5</title>
<g id="a_edge4_Node000002_Node000005"><a xlink:title=" ">
<path fill="none" stroke="#63b8ff" d="M176.42,-36.51C188.8,-32.44 203.26,-27.67 216.55,-23.29"/>
<polygon fill="#63b8ff" stroke="#63b8ff" points="217.53,-26.65 225.93,-20.2 215.33,-20 217.53,-26.65"/>
</a>
</g>
</g>
</g>
</svg>
