<?xml version="1.0" encoding="UTF-8" standalone="no"?>
<!DOCTYPE svg PUBLIC "-//W3C//DTD SVG 1.1//EN"
 "http://www.w3.org/Graphics/SVG/1.1/DTD/svg11.dtd">
<!-- Generated by graphviz version 9.0.0 (20230911.1827)
 -->
<!-- Title: mal_math::operator* Pages: 1 -->
<svg width="697pt" height="101pt"
 viewBox="0.00 0.00 697.25 101.25" xmlns="http://www.w3.org/2000/svg" xmlns:xlink="http://www.w3.org/1999/xlink">
<g id="graph0" class="graph" transform="scale(1 1) rotate(0) translate(4 97.25)">
<title>mal_math::operator*</title>
<!-- Node1 -->
<g id="Node000001" class="node">
<title>Node1</title>
<g id="a_Node000001"><a xlink:title="Vector&#45;Quaternion multiplication.">
<polygon fill="#999999" stroke="#666666" points="99.25,-56.25 0,-56.25 0,-37 99.25,-37 99.25,-56.25"/>
<text text-anchor="middle" x="49.62" y="-42.75" font-family="Times,serif" font-size="10.00">mal_math::operator*</text>
</a>
</g>
</g>
<!-- Node2 -->
<g id="Node000002" class="node">
<title>Node2</title>
<g id="a_Node000002"><a xlink:href="../../d1/d1d/namespacemal__math.html#a9839c7f488349def9a85e418a6f96710" target="_top" xlink:title="Calculates the inverse of a square matrix.">
<polygon fill="white" stroke="#666666" points="224,-56.25 135.25,-56.25 135.25,-37 224,-37 224,-56.25"/>
<text text-anchor="middle" x="179.62" y="-42.75" font-family="Times,serif" font-size="10.00">mal_math::inverse</text>
</a>
</g>
</g>
<!-- Node1&#45;&gt;Node2 -->
<g id="edge1_Node000001_Node000002" class="edge">
<title>Node1&#45;&gt;Node2</title>
<g id="a_edge1_Node000001_Node000002"><a xlink:title=" ">
<path fill="none" stroke="#63b8ff" d="M99.75,-46.62C107.52,-46.62 115.59,-46.62 123.49,-46.62"/>
<polygon fill="#63b8ff" stroke="#63b8ff" points="123.35,-50.13 133.35,-46.63 123.35,-43.13 123.35,-50.13"/>
</a>
</g>
</g>
<!-- Node3 -->
<g id="Node000003" class="node">
<title>Node3</title>
<g id="a_Node000003"><a xlink:href="../../d1/d1d/namespacemal__math.html#ad2fb7080daf9beb776f0cb7b8628ee49" target="_top" xlink:title="Alias for the adj() function to compute the adjugate of a matrix.">
<polygon fill="white" stroke="#666666" points="352.5,-75.25 260,-75.25 260,-56 352.5,-56 352.5,-75.25"/>
<text text-anchor="middle" x="306.25" y="-61.75" font-family="Times,serif" font-size="10.00">mal_math::adjugate</text>
</a>
</g>
</g>
<!-- Node2&#45;&gt;Node3 -->
<g id="edge2_Node000002_Node000003" class="edge">
<title>Node2&#45;&gt;Node3</title>
<g id="a_edge2_Node000002_Node000003"><a xlink:title=" ">
<path fill="none" stroke="#63b8ff" d="M224.21,-53.27C232.04,-54.46 240.3,-55.72 248.43,-56.96"/>
<polygon fill="#63b8ff" stroke="#63b8ff" points="247.87,-60.42 258.29,-58.47 248.93,-53.5 247.87,-60.42"/>
</a>
</g>
</g>
<!-- Node5 -->
<g id="Node000005" class="node">
<title>Node5</title>
<g id="a_Node000005"><a xlink:href="../../d1/d1d/namespacemal__math.html#a245dd949a6bfab7e377c6dab6ebf6280" target="_top" xlink:title="Calculates the determinant of a square matrix.">
<polygon fill="white" stroke="#666666" points="569.75,-56.25 496.75,-56.25 496.75,-37 569.75,-37 569.75,-56.25"/>
<text text-anchor="middle" x="533.25" y="-42.75" font-family="Times,serif" font-size="10.00">mal_math::det</text>
</a>
</g>
</g>
<!-- Node2&#45;&gt;Node5 -->
<g id="edge8_Node000002_Node000005" class="edge">
<title>Node2&#45;&gt;Node5</title>
<g id="a_edge8_Node000002_Node000005"><a xlink:title=" ">
<path fill="none" stroke="#63b8ff" d="M224.45,-46.62C290.93,-46.62 416.74,-46.62 485.13,-46.62"/>
<polygon fill="#63b8ff" stroke="#63b8ff" points="484.88,-50.13 494.88,-46.63 484.88,-43.13 484.88,-50.13"/>
</a>
</g>
</g>
<!-- Node4 -->
<g id="Node000004" class="node">
<title>Node4</title>
<g id="a_Node000004"><a xlink:href="../../d1/d1d/namespacemal__math.html#a6b9483d460a882f9c49428abb7d7ed21" target="_top" xlink:title="Computes the adjoint (or adjugate) of a square matrix.">
<polygon fill="white" stroke="#666666" points="460.75,-75.25 388.5,-75.25 388.5,-56 460.75,-56 460.75,-75.25"/>
<text text-anchor="middle" x="424.62" y="-61.75" font-family="Times,serif" font-size="10.00">mal_math::adj</text>
</a>
</g>
</g>
<!-- Node3&#45;&gt;Node4 -->
<g id="edge3_Node000003_Node000004" class="edge">
<title>Node3&#45;&gt;Node4</title>
<g id="a_edge3_Node000003_Node000004"><a xlink:title=" ">
<path fill="none" stroke="#63b8ff" d="M352.91,-65.62C360.78,-65.62 368.98,-65.62 376.88,-65.62"/>
<polygon fill="#63b8ff" stroke="#63b8ff" points="376.66,-69.13 386.66,-65.63 376.66,-62.13 376.66,-69.13"/>
</a>
</g>
</g>
<!-- Node4&#45;&gt;Node5 -->
<g id="edge4_Node000004_Node000005" class="edge">
<title>Node4&#45;&gt;Node5</title>
<g id="a_edge4_Node000004_Node000005"><a xlink:title=" ">
<path fill="none" stroke="#63b8ff" d="M461.13,-59.3C468.87,-57.92 477.18,-56.44 485.29,-54.99"/>
<polygon fill="#63b8ff" stroke="#63b8ff" points="485.82,-58.45 495.05,-53.25 484.59,-51.56 485.82,-58.45"/>
</a>
</g>
</g>
<!-- Node6 -->
<g id="Node000006" class="node">
<title>Node6</title>
<g id="a_Node000006"><a xlink:href="../../d1/d1d/namespacemal__math.html#a4ca4a22c985a535c67c1821c42193f59" target="_top" xlink:title=" ">
<polygon fill="white" stroke="#666666" points="689.25,-93.25 605.75,-93.25 605.75,-74 689.25,-74 689.25,-93.25"/>
<text text-anchor="middle" x="647.5" y="-79.75" font-family="Times,serif" font-size="10.00">mal_math::det_2</text>
</a>
</g>
</g>
<!-- Node5&#45;&gt;Node6 -->
<g id="edge5_Node000005_Node000006" class="edge">
<title>Node5&#45;&gt;Node6</title>
<g id="a_edge5_Node000005_Node000006"><a xlink:title=" ">
<path fill="none" stroke="#63b8ff" d="M564.92,-56.74C577.3,-60.81 591.76,-65.58 605.05,-69.96"/>
<polygon fill="#63b8ff" stroke="#63b8ff" points="603.83,-73.25 614.43,-73.05 606.03,-66.6 603.83,-73.25"/>
</a>
</g>
</g>
<!-- Node7 -->
<g id="Node000007" class="node">
<title>Node7</title>
<g id="a_Node000007"><a xlink:href="../../d1/d1d/namespacemal__math.html#a684065c9e18fa3625d06a8762bff8dd1" target="_top" xlink:title=" ">
<polygon fill="white" stroke="#666666" points="689.25,-56.25 605.75,-56.25 605.75,-37 689.25,-37 689.25,-56.25"/>
<text text-anchor="middle" x="647.5" y="-42.75" font-family="Times,serif" font-size="10.00">mal_math::det_3</text>
</a>
</g>
</g>
<!-- Node5&#45;&gt;Node7 -->
<g id="edge6_Node000005_Node000007" class="edge">
<title>Node5&#45;&gt;Node7</title>
<g id="a_edge6_Node000005_Node000007"><a xlink:title=" ">
<path fill="none" stroke="#63b8ff" d="M570.08,-46.62C577.75,-46.62 586.01,-46.62 594.16,-46.62"/>
<polygon fill="#63b8ff" stroke="#63b8ff" points="594.03,-50.13 604.03,-46.63 594.03,-43.13 594.03,-50.13"/>
</a>
</g>
</g>
<!-- Node8 -->
<g id="Node000008" class="node">
<title>Node8</title>
<g id="a_Node000008"><a xlink:href="../../d1/d1d/namespacemal__math.html#a7205ab27aa1028ece0e9ad92fa2ac8e3" target="_top" xlink:title=" ">
<polygon fill="white" stroke="#666666" points="689.25,-19.25 605.75,-19.25 605.75,0 689.25,0 689.25,-19.25"/>
<text text-anchor="middle" x="647.5" y="-5.75" font-family="Times,serif" font-size="10.00">mal_math::det_4</text>
</a>
</g>
</g>
<!-- Node5&#45;&gt;Node8 -->
<g id="edge7_Node000005_Node000008" class="edge">
<title>Node5&#45;&gt;Node8</title>
<g id="a_edge7_Node000005_Node000008"><a xlink:title=" ">
<path fill="none" stroke="#63b8ff" d="M564.92,-36.51C577.3,-32.44 591.76,-27.67 605.05,-23.29"/>
<polygon fill="#63b8ff" stroke="#63b8ff" points="606.03,-26.65 614.43,-20.2 603.83,-20 606.03,-26.65"/>
</a>
</g>
</g>
</g>
</svg>
