<?xml version="1.0" encoding="UTF-8" standalone="no"?>
<!DOCTYPE svg PUBLIC "-//W3C//DTD SVG 1.1//EN"
 "http://www.w3.org/Graphics/SVG/1.1/DTD/svg11.dtd">
<!-- Generated by graphviz version 9.0.0 (20230911.1827)
 -->
<!-- Title: mal_math::distance Pages: 1 -->
<svg width="334pt" height="64pt"
 viewBox="0.00 0.00 333.50 64.25" xmlns="http://www.w3.org/2000/svg" xmlns:xlink="http://www.w3.org/1999/xlink">
<g id="graph0" class="graph" transform="scale(1 1) rotate(0) translate(4 60.25)">
<title>mal_math::distance</title>
<!-- Node1 -->
<g id="Node000001" class="node">
<title>Node1</title>
<g id="a_Node000001"><a xlink:title="Compute the distance between two vectors.">
<polygon fill="#999999" stroke="#666666" points="93.25,-37.25 0,-37.25 0,-18 93.25,-18 93.25,-37.25"/>
<text text-anchor="middle" x="46.62" y="-23.75" font-family="Times,serif" font-size="10.00">mal_math::distance</text>
</a>
</g>
</g>
<!-- Node2 -->
<g id="Node000002" class="node">
<title>Node2</title>
<g id="a_Node000002"><a xlink:href="../../d1/d1d/namespacemal__math.html#a39c5199d92cd6fd327cd1719bd148dcc" target="_top" xlink:title="Computes the length (or magnitude) of a quaternion.">
<polygon fill="white" stroke="#666666" points="214.25,-37.25 129.25,-37.25 129.25,-18 214.25,-18 214.25,-37.25"/>
<text text-anchor="middle" x="171.75" y="-23.75" font-family="Times,serif" font-size="10.00">mal_math::length</text>
</a>
</g>
</g>
<!-- Node1&#45;&gt;Node2 -->
<g id="edge1_Node000001_Node000002" class="edge">
<title>Node1&#45;&gt;Node2</title>
<g id="a_edge1_Node000001_Node000002"><a xlink:title=" ">
<path fill="none" stroke="#63b8ff" d="M93.47,-27.62C101.28,-27.62 109.45,-27.62 117.43,-27.62"/>
<polygon fill="#63b8ff" stroke="#63b8ff" points="117.42,-31.13 127.42,-27.63 117.42,-24.13 117.42,-31.13"/>
</a>
</g>
</g>
<!-- Node3 -->
<g id="Node000003" class="node">
<title>Node3</title>
<g id="a_Node000003"><a xlink:href="../../d1/d1d/namespacemal__math.html#aab7b54d530da999aae378287a25da1c0" target="_top" xlink:title="Computes the dot product of two quaternions.">
<polygon fill="white" stroke="#666666" points="324.75,-56.25 251,-56.25 251,-37 324.75,-37 324.75,-56.25"/>
<text text-anchor="middle" x="287.88" y="-42.75" font-family="Times,serif" font-size="10.00">mal_math::dot</text>
</a>
</g>
</g>
<!-- Node2&#45;&gt;Node3 -->
<g id="edge2_Node000002_Node000003" class="edge">
<title>Node2&#45;&gt;Node3</title>
<g id="a_edge2_Node000002_Node000003"><a xlink:title=" ">
<path fill="none" stroke="#63b8ff" d="M214.6,-34.59C222.64,-35.93 231.12,-37.34 239.32,-38.71"/>
<polygon fill="#63b8ff" stroke="#63b8ff" points="238.74,-42.16 249.18,-40.35 239.89,-35.25 238.74,-42.16"/>
</a>
</g>
</g>
<!-- Node4 -->
<g id="Node000004" class="node">
<title>Node4</title>
<g id="a_Node000004"><a xlink:href="../../d1/d1d/namespacemal__math.html#a8578ea303028d0b058d33dc3aca926b3" target="_top" xlink:title=" ">
<polygon fill="white" stroke="#666666" points="325.5,-19.25 250.25,-19.25 250.25,0 325.5,0 325.5,-19.25"/>
<text text-anchor="middle" x="287.88" y="-5.75" font-family="Times,serif" font-size="10.00">mal_math::sqrt</text>
</a>
</g>
</g>
<!-- Node2&#45;&gt;Node4 -->
<g id="edge3_Node000002_Node000004" class="edge">
<title>Node2&#45;&gt;Node4</title>
<g id="a_edge3_Node000002_Node000004"><a xlink:title=" ">
<path fill="none" stroke="#63b8ff" d="M214.6,-21.02C222.47,-19.78 230.75,-18.48 238.8,-17.21"/>
<polygon fill="#63b8ff" stroke="#63b8ff" points="239.11,-20.7 248.44,-15.69 238.01,-13.79 239.11,-20.7"/>
</a>
</g>
</g>
</g>
</svg>
