<?xml version="1.0" encoding="UTF-8" standalone="no"?>
<!DOCTYPE svg PUBLIC "-//W3C//DTD SVG 1.1//EN"
 "http://www.w3.org/Graphics/SVG/1.1/DTD/svg11.dtd">
<!-- Generated by graphviz version 9.0.0 (20230911.1827)
 -->
<!-- Title: mal_math::length Pages: 1 -->
<svg width="250pt" height="64pt"
 viewBox="0.00 0.00 250.00 64.25" xmlns="http://www.w3.org/2000/svg" xmlns:xlink="http://www.w3.org/1999/xlink">
<g id="graph0" class="graph" transform="scale(1 1) rotate(0) translate(4 60.25)">
<title>mal_math::length</title>
<!-- Node1 -->
<g id="Node000001" class="node">
<title>Node1</title>
<g id="a_Node000001"><a xlink:title="Compute the length (magnitude) of the given vector.">
<polygon fill="#999999" stroke="#666666" points="85,-37.25 0,-37.25 0,-18 85,-18 85,-37.25"/>
<text text-anchor="middle" x="42.5" y="-23.75" font-family="Times,serif" font-size="10.00">mal_math::length</text>
</a>
</g>
</g>
<!-- Node2 -->
<g id="Node000002" class="node">
<title>Node2</title>
<g id="a_Node000002"><a xlink:href="../../d1/d1d/namespacemal__math.html#a8578ea303028d0b058d33dc3aca926b3" target="_top" xlink:title=" ">
<polygon fill="white" stroke="#666666" points="219.12,-56.25 143.88,-56.25 143.88,-37 219.12,-37 219.12,-56.25"/>
<text text-anchor="middle" x="181.5" y="-42.75" font-family="Times,serif" font-size="10.00">mal_math::sqrt</text>
</a>
</g>
</g>
<!-- Node1&#45;&gt;Node2 -->
<g id="edge1_Node000001_Node000002" class="edge">
<title>Node1&#45;&gt;Node2</title>
<g id="a_edge1_Node000001_Node000002"><a xlink:title=" ">
<path fill="none" stroke="#63b8ff" d="M85.35,-33.43C100.15,-35.48 116.91,-37.81 132.2,-39.93"/>
<polygon fill="#63b8ff" stroke="#63b8ff" points="131.66,-43.39 142.05,-41.29 132.63,-36.45 131.66,-43.39"/>
</a>
</g>
</g>
<!-- Node3 -->
<g id="Node000003" class="node">
<title>Node3</title>
<g id="a_Node000003"><a xlink:href="../../d1/d1d/namespacemal__math.html#a8ed914d94b8eee0950e6ae215558bdd2" target="_top" xlink:title="Compute the squared length of the given vector.">
<polygon fill="white" stroke="#666666" points="242,-19.25 121,-19.25 121,0 242,0 242,-19.25"/>
<text text-anchor="middle" x="181.5" y="-5.75" font-family="Times,serif" font-size="10.00">mal_math::squared_length</text>
</a>
</g>
</g>
<!-- Node1&#45;&gt;Node3 -->
<g id="edge2_Node000001_Node000003" class="edge">
<title>Node1&#45;&gt;Node3</title>
<g id="a_edge2_Node000001_Node000003"><a xlink:title=" ">
<path fill="none" stroke="#63b8ff" d="M85.35,-22.13C92.98,-21.12 101.13,-20.05 109.33,-18.98"/>
<polygon fill="#63b8ff" stroke="#63b8ff" points="109.54,-22.48 119,-17.71 108.63,-15.54 109.54,-22.48"/>
</a>
</g>
</g>
</g>
</svg>
