<?xml version="1.0" encoding="UTF-8" standalone="no"?>
<!DOCTYPE svg PUBLIC "-//W3C//DTD SVG 1.1//EN"
 "http://www.w3.org/Graphics/SVG/1.1/DTD/svg11.dtd">
<!-- Generated by graphviz version 9.0.0 (20230911.1827)
 -->
<!-- Title: mal_math::clamp Pages: 1 -->
<svg width="384pt" height="85pt"
 viewBox="0.00 0.00 383.75 85.25" xmlns="http://www.w3.org/2000/svg" xmlns:xlink="http://www.w3.org/1999/xlink">
<g id="graph0" class="graph" transform="scale(1 1) rotate(0) translate(4 81.25)">
<title>mal_math::clamp</title>
<!-- Node1 -->
<g id="Node000001" class="node">
<title>Node1</title>
<g id="a_Node000001"><a xlink:title="Function to clamp a value between a minimum and maximum.">
<polygon fill="#999999" stroke="#666666" points="375.75,-58.25 291.5,-58.25 291.5,-39 375.75,-39 375.75,-58.25"/>
<text text-anchor="middle" x="333.62" y="-44.75" font-family="Times,serif" font-size="10.00">mal_math::clamp</text>
</a>
</g>
</g>
<!-- Node2 -->
<g id="Node000002" class="node">
<title>Node2</title>
<g id="a_Node000002"><a xlink:href="../../d1/d1d/namespacemal__math.html#a6c89bca6ee3f863870442353a30e89e2" target="_top" xlink:title="Compute the angle between two vectors.">
<polygon fill="white" stroke="#666666" points="255.5,-77.25 174.25,-77.25 174.25,-58 255.5,-58 255.5,-77.25"/>
<text text-anchor="middle" x="214.88" y="-63.75" font-family="Times,serif" font-size="10.00">mal_math::angle</text>
</a>
</g>
</g>
<!-- Node1&#45;&gt;Node2 -->
<g id="edge1_Node000001_Node000002" class="edge">
<title>Node1&#45;&gt;Node2</title>
<g id="a_edge1_Node000001_Node000002"><a xlink:title=" ">
<path fill="none" stroke="#63b8ff" d="M279.82,-57.22C271.7,-58.54 263.44,-59.88 255.67,-61.15"/>
<polygon fill="#63b8ff" stroke="#63b8ff" points="280.33,-60.68 289.64,-55.62 279.21,-53.77 280.33,-60.68"/>
</a>
</g>
</g>
<!-- Node3 -->
<g id="Node000003" class="node">
<title>Node3</title>
<g id="a_Node000003"><a xlink:href="../../d1/d1d/namespacemal__math.html#a7b0f322eff757ae4fe380a81a6c42c63" target="_top" xlink:title="Computes the yaw from a quaternion.">
<polygon fill="white" stroke="#666666" points="252.5,-40.25 177.25,-40.25 177.25,-21 252.5,-21 252.5,-40.25"/>
<text text-anchor="middle" x="214.88" y="-26.75" font-family="Times,serif" font-size="10.00">mal_math::yaw</text>
</a>
</g>
</g>
<!-- Node1&#45;&gt;Node3 -->
<g id="edge2_Node000001_Node000003" class="edge">
<title>Node1&#45;&gt;Node3</title>
<g id="a_edge2_Node000001_Node000003"><a xlink:title=" ">
<path fill="none" stroke="#63b8ff" d="M279.81,-40.48C270.75,-39.08 261.5,-37.66 252.96,-36.34"/>
<polygon fill="#63b8ff" stroke="#63b8ff" points="279.22,-43.93 289.64,-42 280.29,-37.01 279.22,-43.93"/>
</a>
</g>
</g>
<!-- Node4 -->
<g id="Node000004" class="node">
<title>Node4</title>
<g id="a_Node000004"><a xlink:href="../../d1/d1d/namespacemal__math.html#a58cd6b68785c108f943056ae8f463d4c" target="_top" xlink:title="Creates a quaternion from individual Euler angles.">
<polygon fill="white" stroke="#666666" points="132.62,-67.88 5.62,-67.88 5.62,-37.38 132.62,-37.38 132.62,-67.88"/>
<text text-anchor="start" x="13.62" y="-54.38" font-family="Times,serif" font-size="10.00">mal_math::QuaternionFrom</text>
<text text-anchor="middle" x="69.12" y="-43.12" font-family="Times,serif" font-size="10.00">Euler</text>
</a>
</g>
</g>
<!-- Node3&#45;&gt;Node4 -->
<g id="edge3_Node000003_Node000004" class="edge">
<title>Node3&#45;&gt;Node4</title>
<g id="a_edge3_Node000003_Node000004"><a xlink:title=" ">
<path fill="none" stroke="#63b8ff" d="M165.78,-37.99C155.25,-39.6 143.96,-41.33 132.95,-43.01"/>
<polygon fill="#63b8ff" stroke="#63b8ff" points="166,-41.49 175.36,-36.52 164.95,-34.57 166,-41.49"/>
</a>
</g>
</g>
<!-- Node5 -->
<g id="Node000005" class="node">
<title>Node5</title>
<g id="a_Node000005"><a xlink:href="../../d1/d1d/namespacemal__math.html#a66974d61c29bbf4008522006be6d7ac9" target="_top" xlink:title="Converts a quaternion to Euler angles.">
<polygon fill="white" stroke="#666666" points="138.25,-19.25 0,-19.25 0,0 138.25,0 138.25,-19.25"/>
<text text-anchor="middle" x="69.12" y="-5.75" font-family="Times,serif" font-size="10.00">mal_math::QuaternionToEuler</text>
</a>
</g>
</g>
<!-- Node3&#45;&gt;Node5 -->
<g id="edge4_Node000003_Node000005" class="edge">
<title>Node3&#45;&gt;Node5</title>
<g id="a_edge4_Node000003_Node000005"><a xlink:title=" ">
<path fill="none" stroke="#63b8ff" d="M165.73,-23.59C157,-22.32 147.74,-20.96 138.55,-19.62"/>
<polygon fill="#63b8ff" stroke="#63b8ff" points="164.96,-27.02 175.36,-25 165.97,-20.09 164.96,-27.02"/>
</a>
</g>
</g>
</g>
</svg>
