<?xml version="1.0" encoding="UTF-8" standalone="no"?>
<!DOCTYPE svg PUBLIC "-//W3C//DTD SVG 1.1//EN"
 "http://www.w3.org/Graphics/SVG/1.1/DTD/svg11.dtd">
<!-- Generated by graphviz version 9.0.0 (20230911.1827)
 -->
<!-- Title: mal_math::asin Pages: 1 -->
<svg width="441pt" height="82pt"
 viewBox="0.00 0.00 441.00 82.25" xmlns="http://www.w3.org/2000/svg" xmlns:xlink="http://www.w3.org/1999/xlink">
<g id="graph0" class="graph" transform="scale(1 1) rotate(0) translate(4 78.25)">
<title>mal_math::asin</title>
<!-- Node1 -->
<g id="Node000001" class="node">
<title>Node1</title>
<g id="a_Node000001"><a xlink:title=" ">
<polygon fill="#999999" stroke="#666666" points="433,-37.25 356.25,-37.25 356.25,-18 433,-18 433,-37.25"/>
<text text-anchor="middle" x="394.62" y="-23.75" font-family="Times,serif" font-size="10.00">mal_math::asin</text>
</a>
</g>
</g>
<!-- Node2 -->
<g id="Node000002" class="node">
<title>Node2</title>
<g id="a_Node000002"><a xlink:href="../../d1/d1d/namespacemal__math.html#a536e0e1ac498d427d7d51bce8ed5e50b" target="_top" xlink:title="Computes the angle (or magnitude) of a quaternion.">
<polygon fill="white" stroke="#666666" points="320.25,-56.25 239,-56.25 239,-37 320.25,-37 320.25,-56.25"/>
<text text-anchor="middle" x="279.62" y="-42.75" font-family="Times,serif" font-size="10.00">mal_math::angle</text>
</a>
</g>
</g>
<!-- Node1&#45;&gt;Node2 -->
<g id="edge1_Node000001_Node000002" class="edge">
<title>Node1&#45;&gt;Node2</title>
<g id="a_edge1_Node000001_Node000002"><a xlink:title=" ">
<path fill="none" stroke="#63b8ff" d="M344.73,-35.85C336.61,-37.21 328.27,-38.61 320.41,-39.94"/>
<polygon fill="#63b8ff" stroke="#63b8ff" points="345.22,-39.31 354.51,-34.2 344.06,-32.41 345.22,-39.31"/>
</a>
</g>
</g>
<!-- Node5 -->
<g id="Node000005" class="node">
<title>Node5</title>
<g id="a_Node000005"><a xlink:href="../../d1/d1d/namespacemal__math.html#a3b1ee11687b7ff60a2c05bbae08070ee" target="_top" xlink:title=" ">
<polygon fill="white" stroke="#666666" points="318,-19.25 241.25,-19.25 241.25,0 318,0 318,-19.25"/>
<text text-anchor="middle" x="279.62" y="-5.75" font-family="Times,serif" font-size="10.00">mal_math::asin</text>
</a>
</g>
</g>
<!-- Node1&#45;&gt;Node5 -->
<g id="edge5_Node000001_Node000005" class="edge">
<title>Node1&#45;&gt;Node5</title>
<g id="a_edge5_Node000001_Node000005"><a xlink:title=" ">
<path fill="none" stroke="#63b8ff" d="M344.68,-19.83C335.9,-18.43 326.88,-16.99 318.47,-15.65"/>
<polygon fill="#63b8ff" stroke="#63b8ff" points="344.08,-23.28 354.5,-21.39 345.18,-16.36 344.08,-23.28"/>
</a>
</g>
</g>
<!-- Node3 -->
<g id="Node000003" class="node">
<title>Node3</title>
<g id="a_Node000003"><a xlink:href="../../d1/d1d/namespacemal__math.html#a3e5409e48ad66d42b0f0643bf4591163" target="_top" xlink:title="Rotates a matrix by a given angle around a given axis.">
<polygon fill="white" stroke="#666666" points="203,-56.25 119.5,-56.25 119.5,-37 203,-37 203,-56.25"/>
<text text-anchor="middle" x="161.25" y="-42.75" font-family="Times,serif" font-size="10.00">mal_math::rotate</text>
</a>
</g>
</g>
<!-- Node2&#45;&gt;Node3 -->
<g id="edge2_Node000002_Node000003" class="edge">
<title>Node2&#45;&gt;Node3</title>
<g id="a_edge2_Node000002_Node000003"><a xlink:title=" ">
<path fill="none" stroke="#63b8ff" d="M227.33,-46.62C219.24,-46.62 210.97,-46.62 203.16,-46.62"/>
<polygon fill="#63b8ff" stroke="#63b8ff" points="227.06,-50.13 237.06,-46.63 227.06,-43.13 227.06,-50.13"/>
</a>
</g>
</g>
<!-- Node3&#45;&gt;Node3 -->
<g id="edge4_Node000003_Node000003" class="edge">
<title>Node3&#45;&gt;Node3</title>
<g id="a_edge4_Node000003_Node000003"><a xlink:title=" ">
<path fill="none" stroke="#63b8ff" d="M182.26,-67.65C179.63,-71.53 172.63,-74.25 161.25,-74.25 140.44,-74.25 134.26,-65.15 142.72,-56.54"/>
<polygon fill="#63b8ff" stroke="#63b8ff" points="185.71,-67.01 180.11,-58.02 178.87,-68.54 185.71,-67.01"/>
</a>
</g>
</g>
<!-- Node4 -->
<g id="Node000004" class="node">
<title>Node4</title>
<g id="a_Node000004"><a xlink:href="../../d1/d1d/namespacemal__math.html#ae2ea884f0e0c63166d344b52a7633934" target="_top" xlink:title="Rotates a 4x4 matrix using a quaternion.">
<polygon fill="white" stroke="#666666" points="83.5,-56.25 0,-56.25 0,-37 83.5,-37 83.5,-56.25"/>
<text text-anchor="middle" x="41.75" y="-42.75" font-family="Times,serif" font-size="10.00">mal_math::rotate</text>
</a>
</g>
</g>
<!-- Node3&#45;&gt;Node4 -->
<g id="edge3_Node000003_Node000004" class="edge">
<title>Node3&#45;&gt;Node4</title>
<g id="a_edge3_Node000003_Node000004"><a xlink:title=" ">
<path fill="none" stroke="#63b8ff" d="M107.85,-46.62C99.73,-46.62 91.44,-46.62 83.62,-46.62"/>
<polygon fill="#63b8ff" stroke="#63b8ff" points="107.64,-50.13 117.64,-46.63 107.64,-43.13 107.64,-50.13"/>
</a>
</g>
</g>
</g>
</svg>
