<?xml version="1.0" encoding="UTF-8" standalone="no"?>
<!DOCTYPE svg PUBLIC "-//W3C//DTD SVG 1.1//EN"
 "http://www.w3.org/Graphics/SVG/1.1/DTD/svg11.dtd">
<!-- Generated by graphviz version 9.0.0 (20230911.1827)
 -->
<!-- Title: mal_math::operator* Pages: 1 -->
<!--zoomable 101 -->

<svg id="main" version="1.1" xmlns="http://www.w3.org/2000/svg" xmlns:xlink="http://www.w3.org/1999/xlink" xml:space="preserve" onload="init(evt)">
<style type="text/css"><![CDATA[
.node, .edge {opacity: 0.7;}
.node.selected, .edge.selected {opacity: 1;}
.edge:hover path { stroke: red; }
.edge:hover polygon { stroke: red; fill: red; }
]]></style>

<defs>
  <circle id="rim" cx="0" cy="0" r="7"/>
  <circle id="rim2" cx="0" cy="0" r="3.5"/>
  <g id="zoomPlus">
    <use xlink:href="#rim" fill="#404040"><set attributeName="fill" to="#808080" begin="zoomplus.mouseover" end="zoomplus.mouseout"/></use>
    <path d="M-4,0h8M0,-4v8" fill="none" stroke="white" stroke-width="1.5" pointer-events="none"/>
  </g>
  <g id="zoomMin">
    <use xlink:href="#rim" fill="#404040"><set attributeName="fill" to="#808080" begin="zoomminus.mouseover" end="zoomminus.mouseout"/></use>
    <path d="M-4,0h8" fill="none" stroke="white" stroke-width="1.5" pointer-events="none"/>
  </g>
  <g id="arrowUp" transform="translate(30 24)">
    <use xlink:href="#rim"/>
    <path pointer-events="none" fill="none" stroke="white" stroke-width="1.5" d="M0,-3.0v7 M-2.5,-0.5L0,-3.0L2.5,-0.5"/>
  </g>
  <g id="arrowRight" transform="rotate(90) translate(36 -43)">
    <use xlink:href="#rim"/>
    <path pointer-events="none" fill="none" stroke="white" stroke-width="1.5" d="M0,-3.0v7 M-2.5,-0.5L0,-3.0L2.5,-0.5"/>
  </g>
  <g id="arrowDown" transform="rotate(180) translate(-30 -48)">
    <use xlink:href="#rim"/>
    <path pointer-events="none" fill="none" stroke="white" stroke-width="1.5" d="M0,-3.0v7 M-2.5,-0.5L0,-3.0L2.5,-0.5"/>
  </g>
  <g id="arrowLeft" transform="rotate(270) translate(-36 17)">
    <use xlink:href="#rim"/>
    <path pointer-events="none" fill="none" stroke="white" stroke-width="1.5" d="M0,-3.0v7 M-2.5,-0.5L0,-3.0L2.5,-0.5"/>
  </g>
  <g id="resetDef">
    <use xlink:href="#rim2" fill="#404040"><set attributeName="fill" to="#808080" begin="reset.mouseover" end="reset.mouseout"/></use>
  </g>
</defs>
<script type="application/ecmascript">
var viewWidth = 697;
var viewHeight = 101;
var sectionId = 'dynsection-96';
</script>
<script type="application/ecmascript" xlink:href="../../svg.min.js"/>
<svg id="graph" class="graph">
<g id="viewport">
<title>mal_math::operator*</title>
<!-- Node1 -->
<g id="Node000001" class="node">
<title>Node1</title>
<g id="a_Node000001"><a xlink:title="Vector&#45;Quaternion multiplication.">
<polygon fill="#999999" stroke="#666666" points="99.25,-56.25 0,-56.25 0,-37 99.25,-37 99.25,-56.25"/>
<text text-anchor="middle" x="49.62" y="-42.75" font-family="Times,serif" font-size="10.00">mal_math::operator*</text>
</a>
</g>
</g>
<!-- Node2 -->
<g id="Node000002" class="node">
<title>Node2</title>
<g id="a_Node000002"><a xlink:href="../../d1/d1d/namespacemal__math.html#a9839c7f488349def9a85e418a6f96710" target="_top" xlink:title="Calculates the inverse of a square matrix.">
<polygon fill="white" stroke="#666666" points="224,-56.25 135.25,-56.25 135.25,-37 224,-37 224,-56.25"/>
<text text-anchor="middle" x="179.62" y="-42.75" font-family="Times,serif" font-size="10.00">mal_math::inverse</text>
</a>
</g>
</g>
<!-- Node1&#45;&gt;Node2 -->
<g id="edge1_Node000001_Node000002" class="edge">
<title>Node1&#45;&gt;Node2</title>
<g id="a_edge1_Node000001_Node000002"><a xlink:title=" ">
<path fill="none" stroke="#63b8ff" d="M99.75,-46.62C107.52,-46.62 115.59,-46.62 123.49,-46.62"/>
<polygon fill="#63b8ff" stroke="#63b8ff" points="123.35,-50.13 133.35,-46.63 123.35,-43.13 123.35,-50.13"/>
</a>
</g>
</g>
<!-- Node3 -->
<g id="Node000003" class="node">
<title>Node3</title>
<g id="a_Node000003"><a xlink:href="../../d1/d1d/namespacemal__math.html#ad2fb7080daf9beb776f0cb7b8628ee49" target="_top" xlink:title="Alias for the adj() function to compute the adjugate of a matrix.">
<polygon fill="white" stroke="#666666" points="352.5,-75.25 260,-75.25 260,-56 352.5,-56 352.5,-75.25"/>
<text text-anchor="middle" x="306.25" y="-61.75" font-family="Times,serif" font-size="10.00">mal_math::adjugate</text>
</a>
</g>
</g>
<!-- Node2&#45;&gt;Node3 -->
<g id="edge2_Node000002_Node000003" class="edge">
<title>Node2&#45;&gt;Node3</title>
<g id="a_edge2_Node000002_Node000003"><a xlink:title=" ">
<path fill="none" stroke="#63b8ff" d="M224.21,-53.27C232.04,-54.46 240.3,-55.72 248.43,-56.96"/>
<polygon fill="#63b8ff" stroke="#63b8ff" points="247.87,-60.42 258.29,-58.47 248.93,-53.5 247.87,-60.42"/>
</a>
</g>
</g>
<!-- Node5 -->
<g id="Node000005" class="node">
<title>Node5</title>
<g id="a_Node000005"><a xlink:href="../../d1/d1d/namespacemal__math.html#a245dd949a6bfab7e377c6dab6ebf6280" target="_top" xlink:title="Calculates the determinant of a square matrix.">
<polygon fill="white" stroke="#666666" points="569.75,-56.25 496.75,-56.25 496.75,-37 569.75,-37 569.75,-56.25"/>
<text text-anchor="middle" x="533.25" y="-42.75" font-family="Times,serif" font-size="10.00">mal_math::det</text>
</a>
</g>
</g>
<!-- Node2&#45;&gt;Node5 -->
<g id="edge8_Node000002_Node000005" class="edge">
<title>Node2&#45;&gt;Node5</title>
<g id="a_edge8_Node000002_Node000005"><a xlink:title=" ">
<path fill="none" stroke="#63b8ff" d="M224.45,-46.62C290.93,-46.62 416.74,-46.62 485.13,-46.62"/>
<polygon fill="#63b8ff" stroke="#63b8ff" points="484.88,-50.13 494.88,-46.63 484.88,-43.13 484.88,-50.13"/>
</a>
</g>
</g>
<!-- Node4 -->
<g id="Node000004" class="node">
<title>Node4</title>
<g id="a_Node000004"><a xlink:href="../../d1/d1d/namespacemal__math.html#a6b9483d460a882f9c49428abb7d7ed21" target="_top" xlink:title="Computes the adjoint (or adjugate) of a square matrix.">
<polygon fill="white" stroke="#666666" points="460.75,-75.25 388.5,-75.25 388.5,-56 460.75,-56 460.75,-75.25"/>
<text text-anchor="middle" x="424.62" y="-61.75" font-family="Times,serif" font-size="10.00">mal_math::adj</text>
</a>
</g>
</g>
<!-- Node3&#45;&gt;Node4 -->
<g id="edge3_Node000003_Node000004" class="edge">
<title>Node3&#45;&gt;Node4</title>
<g id="a_edge3_Node000003_Node000004"><a xlink:title=" ">
<path fill="none" stroke="#63b8ff" d="M352.91,-65.62C360.78,-65.62 368.98,-65.62 376.88,-65.62"/>
<polygon fill="#63b8ff" stroke="#63b8ff" points="376.66,-69.13 386.66,-65.63 376.66,-62.13 376.66,-69.13"/>
</a>
</g>
</g>
<!-- Node4&#45;&gt;Node5 -->
<g id="edge4_Node000004_Node000005" class="edge">
<title>Node4&#45;&gt;Node5</title>
<g id="a_edge4_Node000004_Node000005"><a xlink:title=" ">
<path fill="none" stroke="#63b8ff" d="M461.13,-59.3C468.87,-57.92 477.18,-56.44 485.29,-54.99"/>
<polygon fill="#63b8ff" stroke="#63b8ff" points="485.82,-58.45 495.05,-53.25 484.59,-51.56 485.82,-58.45"/>
</a>
</g>
</g>
<!-- Node6 -->
<g id="Node000006" class="node">
<title>Node6</title>
<g id="a_Node000006"><a xlink:href="../../d1/d1d/namespacemal__math.html#a4ca4a22c985a535c67c1821c42193f59" target="_top" xlink:title=" ">
<polygon fill="white" stroke="#666666" points="689.25,-93.25 605.75,-93.25 605.75,-74 689.25,-74 689.25,-93.25"/>
<text text-anchor="middle" x="647.5" y="-79.75" font-family="Times,serif" font-size="10.00">mal_math::det_2</text>
</a>
</g>
</g>
<!-- Node5&#45;&gt;Node6 -->
<g id="edge5_Node000005_Node000006" class="edge">
<title>Node5&#45;&gt;Node6</title>
<g id="a_edge5_Node000005_Node000006"><a xlink:title=" ">
<path fill="none" stroke="#63b8ff" d="M564.92,-56.74C577.3,-60.81 591.76,-65.58 605.05,-69.96"/>
<polygon fill="#63b8ff" stroke="#63b8ff" points="603.83,-73.25 614.43,-73.05 606.03,-66.6 603.83,-73.25"/>
</a>
</g>
</g>
<!-- Node7 -->
<g id="Node000007" class="node">
<title>Node7</title>
<g id="a_Node000007"><a xlink:href="../../d1/d1d/namespacemal__math.html#a684065c9e18fa3625d06a8762bff8dd1" target="_top" xlink:title=" ">
<polygon fill="white" stroke="#666666" points="689.25,-56.25 605.75,-56.25 605.75,-37 689.25,-37 689.25,-56.25"/>
<text text-anchor="middle" x="647.5" y="-42.75" font-family="Times,serif" font-size="10.00">mal_math::det_3</text>
</a>
</g>
</g>
<!-- Node5&#45;&gt;Node7 -->
<g id="edge6_Node000005_Node000007" class="edge">
<title>Node5&#45;&gt;Node7</title>
<g id="a_edge6_Node000005_Node000007"><a xlink:title=" ">
<path fill="none" stroke="#63b8ff" d="M570.08,-46.62C577.75,-46.62 586.01,-46.62 594.16,-46.62"/>
<polygon fill="#63b8ff" stroke="#63b8ff" points="594.03,-50.13 604.03,-46.63 594.03,-43.13 594.03,-50.13"/>
</a>
</g>
</g>
<!-- Node8 -->
<g id="Node000008" class="node">
<title>Node8</title>
<g id="a_Node000008"><a xlink:href="../../d1/d1d/namespacemal__math.html#a7205ab27aa1028ece0e9ad92fa2ac8e3" target="_top" xlink:title=" ">
<polygon fill="white" stroke="#666666" points="689.25,-19.25 605.75,-19.25 605.75,0 689.25,0 689.25,-19.25"/>
<text text-anchor="middle" x="647.5" y="-5.75" font-family="Times,serif" font-size="10.00">mal_math::det_4</text>
</a>
</g>
</g>
<!-- Node5&#45;&gt;Node8 -->
<g id="edge7_Node000005_Node000008" class="edge">
<title>Node5&#45;&gt;Node8</title>
<g id="a_edge7_Node000005_Node000008"><a xlink:title=" ">
<path fill="none" stroke="#63b8ff" d="M564.92,-36.51C577.3,-32.44 591.76,-27.67 605.05,-23.29"/>
<polygon fill="#63b8ff" stroke="#63b8ff" points="606.03,-26.65 614.43,-20.2 603.83,-20 606.03,-26.65"/>
</a>
</g>
</g>
</g>
</svg>

<g id="navigator" transform="translate(0 0)" fill="#404254">
  <rect fill="#f2f5e9" fill-opacity="0.5" stroke="#606060" stroke-width=".5" x="0" y="0" width="60" height="60"/>
  <use id="zoomplus" xlink:href="#zoomPlus" x="17" y="9" onmousedown="handleZoom(evt,'in')"/>
  <use id="zoomminus" xlink:href="#zoomMin" x="42" y="9" onmousedown="handleZoom(evt,'out')"/>
  <use id="reset" xlink:href="#resetDef" x="30" y="36" onmousedown="handleReset()"/>
   <use id="arrowup" xlink:href="#arrowUp" x="0" y="0" onmousedown="handlePan(0,-1)"/>
  <use id="arrowright" xlink:href="#arrowRight" x="0" y="0" onmousedown="handlePan(1,0)"/>
  <use id="arrowdown" xlink:href="#arrowDown" x="0" y="0" onmousedown="handlePan(0,1)"/>
  <use id="arrowleft" xlink:href="#arrowLeft" x="0" y="0" onmousedown="handlePan(-1,0)"/>
</g>
<svg viewBox="0 0 15 15" width="100%" height="30px" preserveAspectRatio="xMaxYMin meet">
 <g id="arrow_out" transform="scale(0.3 0.3)">
  <a xlink:href="namespacemal__math_a4c84e1ef3c67bb12e006214e1f72e505_cgraph_org.svg" target="_base">
   <rect id="button" ry="5" rx="5" y="6" x="6" height="38" width="38"
        fill="#f2f5e9" fill-opacity="0.5" stroke="#606060" stroke-width="1.0"/>
   <path id="arrow"
     d="M 11.500037,31.436501 C 11.940474,20.09759 22.043105,11.32322 32.158766,21.979434 L 37.068811,17.246167 C 37.068811,17.246167 37.088388,32 37.088388,32 L 22.160133,31.978069 C 22.160133,31.978069 26.997745,27.140456 26.997745,27.140456 C 18.528582,18.264221 13.291696,25.230495 11.500037,31.436501 z"
     style="fill:#404040;"/>
  </a>
 </g>
</svg>

<style type='text/css'>
<![CDATA[
[data-mouse-over-selected='false'] { opacity: 0.7; }
[data-mouse-over-selected='true']  { opacity: 1.0; }
]]>
</style>
<script type="application/ecmascript"><![CDATA[
document.addEventListener('DOMContentLoaded', (event) => {
  highlightEdges();
  highlightAdjacentNodes();
});
]]></script>
</svg>
