<?xml version="1.0" encoding="UTF-8" standalone="no"?>
<!DOCTYPE svg PUBLIC "-//W3C//DTD SVG 1.1//EN"
 "http://www.w3.org/Graphics/SVG/1.1/DTD/svg11.dtd">
<!-- Generated by graphviz version 9.0.0 (20230911.1827)
 -->
<!-- Title: mal_math::rotate Pages: 1 -->
<svg width="579pt" height="214pt"
 viewBox="0.00 0.00 578.50 214.25" xmlns="http://www.w3.org/2000/svg" xmlns:xlink="http://www.w3.org/1999/xlink">
<g id="graph0" class="graph" transform="scale(1 1) rotate(0) translate(4 210.25)">
<title>mal_math::rotate</title>
<!-- Node1 -->
<g id="Node000001" class="node">
<title>Node1</title>
<g id="a_Node000001"><a xlink:title="Rotates a 4x4 matrix using a quaternion.">
<polygon fill="#999999" stroke="#666666" points="83.5,-75.25 0,-75.25 0,-56 83.5,-56 83.5,-75.25"/>
<text text-anchor="middle" x="41.75" y="-61.75" font-family="Times,serif" font-size="10.00">mal_math::rotate</text>
</a>
</g>
</g>
<!-- Node2 -->
<g id="Node000002" class="node">
<title>Node2</title>
<g id="a_Node000002"><a xlink:href="../../d1/d1d/namespacemal__math.html#a3e5409e48ad66d42b0f0643bf4591163" target="_top" xlink:title="Rotates a matrix by a given angle around a given axis.">
<polygon fill="white" stroke="#666666" points="203,-75.25 119.5,-75.25 119.5,-56 203,-56 203,-75.25"/>
<text text-anchor="middle" x="161.25" y="-61.75" font-family="Times,serif" font-size="10.00">mal_math::rotate</text>
</a>
</g>
</g>
<!-- Node1&#45;&gt;Node2 -->
<g id="edge1_Node000001_Node000002" class="edge">
<title>Node1&#45;&gt;Node2</title>
<g id="a_edge1_Node000001_Node000002"><a xlink:title=" ">
<path fill="none" stroke="#63b8ff" d="M83.85,-65.62C91.67,-65.62 99.96,-65.62 108.08,-65.62"/>
<polygon fill="#63b8ff" stroke="#63b8ff" points="107.86,-69.13 117.86,-65.63 107.86,-62.13 107.86,-69.13"/>
</a>
</g>
</g>
<!-- Node2&#45;&gt;Node2 -->
<g id="edge12_Node000002_Node000002" class="edge">
<title>Node2&#45;&gt;Node2</title>
<g id="a_edge12_Node000002_Node000002"><a xlink:title=" ">
<path fill="none" stroke="#63b8ff" d="M142.54,-75.54C134.01,-84.15 140.24,-93.25 161.25,-93.25 172.74,-93.25 179.81,-90.53 182.46,-86.65"/>
<polygon fill="#63b8ff" stroke="#63b8ff" points="185.9,-86 180.29,-77.01 179.07,-87.54 185.9,-86"/>
</a>
</g>
</g>
<!-- Node3 -->
<g id="Node000003" class="node">
<title>Node3</title>
<g id="a_Node000003"><a xlink:href="../../d1/d1d/namespacemal__math.html#a536e0e1ac498d427d7d51bce8ed5e50b" target="_top" xlink:title="Computes the angle (or magnitude) of a quaternion.">
<polygon fill="white" stroke="#666666" points="329.25,-113.25 248,-113.25 248,-94 329.25,-94 329.25,-113.25"/>
<text text-anchor="middle" x="288.62" y="-99.75" font-family="Times,serif" font-size="10.00">mal_math::angle</text>
</a>
</g>
</g>
<!-- Node2&#45;&gt;Node3 -->
<g id="edge2_Node000002_Node000003" class="edge">
<title>Node2&#45;&gt;Node3</title>
<g id="a_edge2_Node000002_Node000003"><a xlink:title=" ">
<path fill="none" stroke="#63b8ff" d="M195.52,-75.71C210.37,-80.21 228.08,-85.58 243.97,-90.39"/>
<polygon fill="#63b8ff" stroke="#63b8ff" points="242.6,-93.64 253.19,-93.19 244.63,-86.94 242.6,-93.64"/>
</a>
</g>
</g>
<!-- Node9 -->
<g id="Node000009" class="node">
<title>Node9</title>
<g id="a_Node000009"><a xlink:href="../../d1/d1d/namespacemal__math.html#abe612f1321c4a59501c42f7759feaba4" target="_top" xlink:title="Normalizes a quaternion.">
<polygon fill="white" stroke="#666666" points="338.25,-57.25 239,-57.25 239,-38 338.25,-38 338.25,-57.25"/>
<text text-anchor="middle" x="288.62" y="-43.75" font-family="Times,serif" font-size="10.00">mal_math::normalize</text>
</a>
</g>
</g>
<!-- Node2&#45;&gt;Node9 -->
<g id="edge8_Node000002_Node000009" class="edge">
<title>Node2&#45;&gt;Node9</title>
<g id="a_edge8_Node000002_Node000009"><a xlink:title=" ">
<path fill="none" stroke="#63b8ff" d="M203.3,-59.73C210.97,-58.63 219.13,-57.46 227.24,-56.29"/>
<polygon fill="#63b8ff" stroke="#63b8ff" points="227.72,-59.76 237.12,-54.88 226.72,-52.83 227.72,-59.76"/>
</a>
</g>
</g>
<!-- Node4 -->
<g id="Node000004" class="node">
<title>Node4</title>
<g id="a_Node000004"><a xlink:href="../../d1/d1d/namespacemal__math.html#a6e7fa1a478c0db96bd23647ad1d5a118" target="_top" xlink:title=" ">
<polygon fill="white" stroke="#666666" points="453.62,-206.25 379.88,-206.25 379.88,-187 453.62,-187 453.62,-206.25"/>
<text text-anchor="middle" x="416.75" y="-192.75" font-family="Times,serif" font-size="10.00">mal_math::abs</text>
</a>
</g>
</g>
<!-- Node3&#45;&gt;Node4 -->
<g id="edge3_Node000003_Node000004" class="edge">
<title>Node3&#45;&gt;Node4</title>
<g id="a_edge3_Node000003_Node000004"><a xlink:title=" ">
<path fill="none" stroke="#63b8ff" d="M298.95,-113.73C313.73,-129.29 343.95,-159.32 374.25,-178.62 375.84,-179.64 377.5,-180.62 379.21,-181.57"/>
<polygon fill="#63b8ff" stroke="#63b8ff" points="377.35,-184.55 387.85,-185.92 380.49,-178.3 377.35,-184.55"/>
</a>
</g>
</g>
<!-- Node5 -->
<g id="Node000005" class="node">
<title>Node5</title>
<g id="a_Node000005"><a xlink:href="../../d1/d1d/namespacemal__math.html#a280c7762332b780e1c64d757a2dfa8c7" target="_top" xlink:title=" ">
<polygon fill="white" stroke="#666666" points="455.88,-169.25 377.62,-169.25 377.62,-150 455.88,-150 455.88,-169.25"/>
<text text-anchor="middle" x="416.75" y="-155.75" font-family="Times,serif" font-size="10.00">mal_math::acos</text>
</a>
</g>
</g>
<!-- Node3&#45;&gt;Node5 -->
<g id="edge4_Node000003_Node000005" class="edge">
<title>Node3&#45;&gt;Node5</title>
<g id="a_edge4_Node000003_Node000005"><a xlink:title=" ">
<path fill="none" stroke="#63b8ff" d="M311.86,-113.7C328.91,-121.41 353.03,-132.26 374.25,-141.62 376.83,-142.76 379.5,-143.93 382.18,-145.11"/>
<polygon fill="#63b8ff" stroke="#63b8ff" points="380.51,-148.2 391.07,-148.98 383.3,-141.78 380.51,-148.2"/>
</a>
</g>
</g>
<!-- Node6 -->
<g id="Node000006" class="node">
<title>Node6</title>
<g id="a_Node000006"><a xlink:href="../../d1/d1d/namespacemal__math.html#a1e523742ea66fe6117bfc9e95f297019" target="_top" xlink:title=" ">
<polygon fill="white" stroke="#666666" points="455.12,-132.25 378.38,-132.25 378.38,-113 455.12,-113 455.12,-132.25"/>
<text text-anchor="middle" x="416.75" y="-118.75" font-family="Times,serif" font-size="10.00">mal_math::asin</text>
</a>
</g>
</g>
<!-- Node3&#45;&gt;Node6 -->
<g id="edge5_Node000003_Node000006" class="edge">
<title>Node3&#45;&gt;Node6</title>
<g id="a_edge5_Node000003_Node000006"><a xlink:title=" ">
<path fill="none" stroke="#63b8ff" d="M329.53,-109.64C341.47,-111.43 354.69,-113.43 367.12,-115.3"/>
<polygon fill="#63b8ff" stroke="#63b8ff" points="366.34,-118.72 376.75,-116.75 367.39,-111.8 366.34,-118.72"/>
</a>
</g>
</g>
<!-- Node7 -->
<g id="Node000007" class="node">
<title>Node7</title>
<g id="a_Node000007"><a xlink:href="../../d1/d1d/namespacemal__math.html#a16d6c0540a171f065334b7fe17a0dd72" target="_top" xlink:title=" ">
<polygon fill="white" stroke="#666666" points="453.62,-95.25 379.88,-95.25 379.88,-76 453.62,-76 453.62,-95.25"/>
<text text-anchor="middle" x="416.75" y="-81.75" font-family="Times,serif" font-size="10.00">mal_math::cos</text>
</a>
</g>
</g>
<!-- Node3&#45;&gt;Node7 -->
<g id="edge6_Node000003_Node000007" class="edge">
<title>Node3&#45;&gt;Node7</title>
<g id="a_edge6_Node000003_Node000007"><a xlink:title=" ">
<path fill="none" stroke="#63b8ff" d="M329.53,-97.93C341.8,-96.18 355.42,-94.23 368.15,-92.42"/>
<polygon fill="#63b8ff" stroke="#63b8ff" points="368.62,-95.89 378.02,-91.01 367.63,-88.96 368.62,-95.89"/>
</a>
</g>
</g>
<!-- Node8 -->
<g id="Node000008" class="node">
<title>Node8</title>
<g id="a_Node000008"><a xlink:href="../../d1/d1d/namespacemal__math.html#a8578ea303028d0b058d33dc3aca926b3" target="_top" xlink:title=" ">
<polygon fill="white" stroke="#666666" points="570.5,-56.25 495.25,-56.25 495.25,-37 570.5,-37 570.5,-56.25"/>
<text text-anchor="middle" x="532.88" y="-42.75" font-family="Times,serif" font-size="10.00">mal_math::sqrt</text>
</a>
</g>
</g>
<!-- Node3&#45;&gt;Node8 -->
<g id="edge7_Node000003_Node000008" class="edge">
<title>Node3&#45;&gt;Node8</title>
<g id="a_edge7_Node000003_Node000008"><a xlink:title=" ">
<path fill="none" stroke="#63b8ff" d="M308.21,-93.64C324.99,-85.09 350.6,-73.15 374.25,-66.62 410.25,-56.69 452.25,-51.67 483.84,-49.15"/>
<polygon fill="#63b8ff" stroke="#63b8ff" points="483.76,-52.66 493.47,-48.44 483.24,-45.68 483.76,-52.66"/>
</a>
</g>
</g>
<!-- Node10 -->
<g id="Node000010" class="node">
<title>Node10</title>
<g id="a_Node000010"><a xlink:href="../../d1/d1d/namespacemal__math.html#a39c5199d92cd6fd327cd1719bd148dcc" target="_top" xlink:title="Computes the length (or magnitude) of a quaternion.">
<polygon fill="white" stroke="#666666" points="459.25,-19.25 374.25,-19.25 374.25,0 459.25,0 459.25,-19.25"/>
<text text-anchor="middle" x="416.75" y="-5.75" font-family="Times,serif" font-size="10.00">mal_math::length</text>
</a>
</g>
</g>
<!-- Node9&#45;&gt;Node10 -->
<g id="edge9_Node000009_Node000010" class="edge">
<title>Node9&#45;&gt;Node10</title>
<g id="a_edge9_Node000009_Node000010"><a xlink:title=" ">
<path fill="none" stroke="#63b8ff" d="M323.09,-37.54C338.04,-33.04 355.84,-27.67 371.84,-22.86"/>
<polygon fill="#63b8ff" stroke="#63b8ff" points="372.55,-26.3 381.11,-20.06 370.53,-19.59 372.55,-26.3"/>
</a>
</g>
</g>
<!-- Node10&#45;&gt;Node8 -->
<g id="edge11_Node000010_Node000008" class="edge">
<title>Node10&#45;&gt;Node8</title>
<g id="a_edge11_Node000010_Node000008"><a xlink:title=" ">
<path fill="none" stroke="#63b8ff" d="M448.94,-19.74C461.64,-23.85 476.52,-28.68 490.14,-33.09"/>
<polygon fill="#63b8ff" stroke="#63b8ff" points="488.7,-36.31 499.29,-36.06 490.85,-29.65 488.7,-36.31"/>
</a>
</g>
</g>
<!-- Node11 -->
<g id="Node000011" class="node">
<title>Node11</title>
<g id="a_Node000011"><a xlink:href="../../d1/d1d/namespacemal__math.html#aab7b54d530da999aae378287a25da1c0" target="_top" xlink:title="Computes the dot product of two quaternions.">
<polygon fill="white" stroke="#666666" points="569.75,-19.25 496,-19.25 496,0 569.75,0 569.75,-19.25"/>
<text text-anchor="middle" x="532.88" y="-5.75" font-family="Times,serif" font-size="10.00">mal_math::dot</text>
</a>
</g>
</g>
<!-- Node10&#45;&gt;Node11 -->
<g id="edge10_Node000010_Node000011" class="edge">
<title>Node10&#45;&gt;Node11</title>
<g id="a_edge10_Node000010_Node000011"><a xlink:title=" ">
<path fill="none" stroke="#63b8ff" d="M459.6,-9.62C467.64,-9.62 476.12,-9.62 484.32,-9.62"/>
<polygon fill="#63b8ff" stroke="#63b8ff" points="484.16,-13.13 494.16,-9.63 484.16,-6.13 484.16,-13.13"/>
</a>
</g>
</g>
</g>
</svg>
