<?xml version="1.0" encoding="UTF-8" standalone="no"?>
<!DOCTYPE svg PUBLIC "-//W3C//DTD SVG 1.1//EN"
 "http://www.w3.org/Graphics/SVG/1.1/DTD/svg11.dtd">
<!-- Generated by graphviz version 9.0.0 (20230911.1827)
 -->
<!-- Title: mal_math::angle Pages: 1 -->
<svg width="204pt" height="175pt"
 viewBox="0.00 0.00 203.50 175.25" xmlns="http://www.w3.org/2000/svg" xmlns:xlink="http://www.w3.org/1999/xlink">
<g id="graph0" class="graph" transform="scale(1 1) rotate(0) translate(4 171.25)">
<title>mal_math::angle</title>
<!-- Node1 -->
<g id="Node000001" class="node">
<title>Node1</title>
<g id="a_Node000001"><a xlink:title="Computes the angle (or magnitude) of a quaternion.">
<polygon fill="#999999" stroke="#666666" points="81.25,-93.25 0,-93.25 0,-74 81.25,-74 81.25,-93.25"/>
<text text-anchor="middle" x="40.62" y="-79.75" font-family="Times,serif" font-size="10.00">mal_math::angle</text>
</a>
</g>
</g>
<!-- Node2 -->
<g id="Node000002" class="node">
<title>Node2</title>
<g id="a_Node000002"><a xlink:href="../../d1/d1d/namespacemal__math.html#a6e7fa1a478c0db96bd23647ad1d5a118" target="_top" xlink:title=" ">
<polygon fill="white" stroke="#666666" points="193.25,-167.25 119.5,-167.25 119.5,-148 193.25,-148 193.25,-167.25"/>
<text text-anchor="middle" x="156.38" y="-153.75" font-family="Times,serif" font-size="10.00">mal_math::abs</text>
</a>
</g>
</g>
<!-- Node1&#45;&gt;Node2 -->
<g id="edge1_Node000001_Node000002" class="edge">
<title>Node1&#45;&gt;Node2</title>
<g id="a_edge1_Node000001_Node000002"><a xlink:title=" ">
<path fill="none" stroke="#63b8ff" d="M53.68,-93.72C68.19,-105.58 93.56,-125.45 117.25,-139.62 118.89,-140.61 120.59,-141.58 122.33,-142.52"/>
<polygon fill="#63b8ff" stroke="#63b8ff" points="120.57,-145.56 131.07,-146.99 123.76,-139.32 120.57,-145.56"/>
</a>
</g>
</g>
<!-- Node3 -->
<g id="Node000003" class="node">
<title>Node3</title>
<g id="a_Node000003"><a xlink:href="../../d1/d1d/namespacemal__math.html#a280c7762332b780e1c64d757a2dfa8c7" target="_top" xlink:title=" ">
<polygon fill="white" stroke="#666666" points="195.5,-130.25 117.25,-130.25 117.25,-111 195.5,-111 195.5,-130.25"/>
<text text-anchor="middle" x="156.38" y="-116.75" font-family="Times,serif" font-size="10.00">mal_math::acos</text>
</a>
</g>
</g>
<!-- Node1&#45;&gt;Node3 -->
<g id="edge2_Node000001_Node000003" class="edge">
<title>Node1&#45;&gt;Node3</title>
<g id="a_edge2_Node000001_Node000003"><a xlink:title=" ">
<path fill="none" stroke="#63b8ff" d="M72.71,-93.74C85.37,-97.85 100.2,-102.68 113.78,-107.09"/>
<polygon fill="#63b8ff" stroke="#63b8ff" points="112.3,-110.29 122.89,-110.06 114.46,-103.64 112.3,-110.29"/>
</a>
</g>
</g>
<!-- Node4 -->
<g id="Node000004" class="node">
<title>Node4</title>
<g id="a_Node000004"><a xlink:href="../../d1/d1d/namespacemal__math.html#a1e523742ea66fe6117bfc9e95f297019" target="_top" xlink:title=" ">
<polygon fill="white" stroke="#666666" points="194.75,-93.25 118,-93.25 118,-74 194.75,-74 194.75,-93.25"/>
<text text-anchor="middle" x="156.38" y="-79.75" font-family="Times,serif" font-size="10.00">mal_math::asin</text>
</a>
</g>
</g>
<!-- Node1&#45;&gt;Node4 -->
<g id="edge3_Node000001_Node000004" class="edge">
<title>Node1&#45;&gt;Node4</title>
<g id="a_edge3_Node000001_Node000004"><a xlink:title=" ">
<path fill="none" stroke="#63b8ff" d="M81.73,-83.62C89.64,-83.62 98.03,-83.62 106.2,-83.62"/>
<polygon fill="#63b8ff" stroke="#63b8ff" points="106.03,-87.13 116.03,-83.63 106.03,-80.13 106.03,-87.13"/>
</a>
</g>
</g>
<!-- Node5 -->
<g id="Node000005" class="node">
<title>Node5</title>
<g id="a_Node000005"><a xlink:href="../../d1/d1d/namespacemal__math.html#a16d6c0540a171f065334b7fe17a0dd72" target="_top" xlink:title=" ">
<polygon fill="white" stroke="#666666" points="193.25,-56.25 119.5,-56.25 119.5,-37 193.25,-37 193.25,-56.25"/>
<text text-anchor="middle" x="156.38" y="-42.75" font-family="Times,serif" font-size="10.00">mal_math::cos</text>
</a>
</g>
</g>
<!-- Node1&#45;&gt;Node5 -->
<g id="edge4_Node000001_Node000005" class="edge">
<title>Node1&#45;&gt;Node5</title>
<g id="a_edge4_Node000001_Node000005"><a xlink:title=" ">
<path fill="none" stroke="#63b8ff" d="M72.71,-73.51C85.37,-69.4 100.2,-64.57 113.78,-60.16"/>
<polygon fill="#63b8ff" stroke="#63b8ff" points="114.46,-63.61 122.89,-57.19 112.3,-56.96 114.46,-63.61"/>
</a>
</g>
</g>
<!-- Node6 -->
<g id="Node000006" class="node">
<title>Node6</title>
<g id="a_Node000006"><a xlink:href="../../d1/d1d/namespacemal__math.html#a8578ea303028d0b058d33dc3aca926b3" target="_top" xlink:title=" ">
<polygon fill="white" stroke="#666666" points="194,-19.25 118.75,-19.25 118.75,0 194,0 194,-19.25"/>
<text text-anchor="middle" x="156.38" y="-5.75" font-family="Times,serif" font-size="10.00">mal_math::sqrt</text>
</a>
</g>
</g>
<!-- Node1&#45;&gt;Node6 -->
<g id="edge5_Node000001_Node000006" class="edge">
<title>Node1&#45;&gt;Node6</title>
<g id="a_edge5_Node000001_Node000006"><a xlink:title=" ">
<path fill="none" stroke="#63b8ff" d="M53.68,-73.53C68.19,-61.67 93.56,-41.8 117.25,-27.62 118.89,-26.64 120.59,-25.67 122.33,-24.73"/>
<polygon fill="#63b8ff" stroke="#63b8ff" points="123.76,-27.93 131.07,-20.26 120.57,-21.69 123.76,-27.93"/>
</a>
</g>
</g>
</g>
</svg>
