<?xml version="1.0" encoding="UTF-8" standalone="no"?>
<!DOCTYPE svg PUBLIC "-//W3C//DTD SVG 1.1//EN"
 "http://www.w3.org/Graphics/SVG/1.1/DTD/svg11.dtd">
<!-- Generated by graphviz version 9.0.0 (20230911.1827)
 -->
<!-- Title: mal_math::pitch Pages: 1 -->
<svg width="263pt" height="76pt"
 viewBox="0.00 0.00 262.75 75.88" xmlns="http://www.w3.org/2000/svg" xmlns:xlink="http://www.w3.org/1999/xlink">
<g id="graph0" class="graph" transform="scale(1 1) rotate(0) translate(4 71.88)">
<title>mal_math::pitch</title>
<!-- Node1 -->
<g id="Node000001" class="node">
<title>Node1</title>
<g id="a_Node000001"><a xlink:title="Computes the pitch from a quaternion.">
<polygon fill="#999999" stroke="#666666" points="254.75,-40.25 174.25,-40.25 174.25,-21 254.75,-21 254.75,-40.25"/>
<text text-anchor="middle" x="214.5" y="-26.75" font-family="Times,serif" font-size="10.00">mal_math::pitch</text>
</a>
</g>
</g>
<!-- Node2 -->
<g id="Node000002" class="node">
<title>Node2</title>
<g id="a_Node000002"><a xlink:href="../../d1/d1d/namespacemal__math.html#a58cd6b68785c108f943056ae8f463d4c" target="_top" xlink:title="Creates a quaternion from individual Euler angles.">
<polygon fill="white" stroke="#666666" points="132.62,-67.88 5.62,-67.88 5.62,-37.38 132.62,-37.38 132.62,-67.88"/>
<text text-anchor="start" x="13.62" y="-54.38" font-family="Times,serif" font-size="10.00">mal_math::QuaternionFrom</text>
<text text-anchor="middle" x="69.12" y="-43.12" font-family="Times,serif" font-size="10.00">Euler</text>
</a>
</g>
</g>
<!-- Node1&#45;&gt;Node2 -->
<g id="edge1_Node000001_Node000002" class="edge">
<title>Node1&#45;&gt;Node2</title>
<g id="a_edge1_Node000001_Node000002"><a xlink:title=" ">
<path fill="none" stroke="#63b8ff" d="M162.57,-38.44C152.99,-39.91 142.86,-41.46 132.97,-42.98"/>
<polygon fill="#63b8ff" stroke="#63b8ff" points="163.09,-41.9 172.45,-36.92 162.03,-34.98 163.09,-41.9"/>
</a>
</g>
</g>
<!-- Node3 -->
<g id="Node000003" class="node">
<title>Node3</title>
<g id="a_Node000003"><a xlink:href="../../d1/d1d/namespacemal__math.html#a66974d61c29bbf4008522006be6d7ac9" target="_top" xlink:title="Converts a quaternion to Euler angles.">
<polygon fill="white" stroke="#666666" points="138.25,-19.25 0,-19.25 0,0 138.25,0 138.25,-19.25"/>
<text text-anchor="middle" x="69.12" y="-5.75" font-family="Times,serif" font-size="10.00">mal_math::QuaternionToEuler</text>
</a>
</g>
</g>
<!-- Node1&#45;&gt;Node3 -->
<g id="edge2_Node000001_Node000003" class="edge">
<title>Node1&#45;&gt;Node3</title>
<g id="a_edge2_Node000001_Node000003"><a xlink:title=" ">
<path fill="none" stroke="#63b8ff" d="M162.81,-23.2C155.01,-22.06 146.84,-20.86 138.72,-19.67"/>
<polygon fill="#63b8ff" stroke="#63b8ff" points="162.04,-26.63 172.45,-24.61 163.06,-19.7 162.04,-26.63"/>
</a>
</g>
</g>
</g>
</svg>
