<?xml version="1.0" encoding="UTF-8" standalone="no"?>
<!DOCTYPE svg PUBLIC "-//W3C//DTD SVG 1.1//EN"
 "http://www.w3.org/Graphics/SVG/1.1/DTD/svg11.dtd">
<!-- Generated by graphviz version 9.0.0 (20230911.1827)
 -->
<!-- Title: mal_math::angle Pages: 1 -->
<svg width="434pt" height="101pt"
 viewBox="0.00 0.00 434.25 101.25" xmlns="http://www.w3.org/2000/svg" xmlns:xlink="http://www.w3.org/1999/xlink">
<g id="graph0" class="graph" transform="scale(1 1) rotate(0) translate(4 97.25)">
<title>mal_math::angle</title>
<!-- Node1 -->
<g id="Node000001" class="node">
<title>Node1</title>
<g id="a_Node000001"><a xlink:title="Compute the angle between two vectors.">
<polygon fill="#999999" stroke="#666666" points="81.25,-56.25 0,-56.25 0,-37 81.25,-37 81.25,-56.25"/>
<text text-anchor="middle" x="40.62" y="-42.75" font-family="Times,serif" font-size="10.00">mal_math::angle</text>
</a>
</g>
</g>
<!-- Node2 -->
<g id="Node000002" class="node">
<title>Node2</title>
<g id="a_Node000002"><a xlink:href="../../d1/d1d/namespacemal__math.html#a280c7762332b780e1c64d757a2dfa8c7" target="_top" xlink:title=" ">
<polygon fill="white" stroke="#666666" points="198.5,-93.25 120.25,-93.25 120.25,-74 198.5,-74 198.5,-93.25"/>
<text text-anchor="middle" x="159.38" y="-79.75" font-family="Times,serif" font-size="10.00">mal_math::acos</text>
</a>
</g>
</g>
<!-- Node1&#45;&gt;Node2 -->
<g id="edge1_Node000001_Node000002" class="edge">
<title>Node1&#45;&gt;Node2</title>
<g id="a_edge1_Node000001_Node000002"><a xlink:title=" ">
<path fill="none" stroke="#63b8ff" d="M73.53,-56.74C86.53,-60.85 101.75,-65.68 115.68,-70.09"/>
<polygon fill="#63b8ff" stroke="#63b8ff" points="114.48,-73.38 125.07,-73.07 116.59,-66.71 114.48,-73.38"/>
</a>
</g>
</g>
<!-- Node3 -->
<g id="Node000003" class="node">
<title>Node3</title>
<g id="a_Node000003"><a xlink:href="../../d1/d1d/namespacemal__math.html#a4d2f468cb836cd1462730c9f8c7e450a" target="_top" xlink:title="Function to clamp a value between a minimum and maximum.">
<polygon fill="white" stroke="#666666" points="201.5,-56.25 117.25,-56.25 117.25,-37 201.5,-37 201.5,-56.25"/>
<text text-anchor="middle" x="159.38" y="-42.75" font-family="Times,serif" font-size="10.00">mal_math::clamp</text>
</a>
</g>
</g>
<!-- Node1&#45;&gt;Node3 -->
<g id="edge2_Node000001_Node000003" class="edge">
<title>Node1&#45;&gt;Node3</title>
<g id="a_edge2_Node000001_Node000003"><a xlink:title=" ">
<path fill="none" stroke="#63b8ff" d="M81.48,-46.62C89.29,-46.62 97.6,-46.62 105.75,-46.62"/>
<polygon fill="#63b8ff" stroke="#63b8ff" points="105.6,-50.13 115.6,-46.63 105.6,-43.13 105.6,-50.13"/>
</a>
</g>
</g>
<!-- Node6 -->
<g id="Node000006" class="node">
<title>Node6</title>
<g id="a_Node000006"><a xlink:href="../../d1/d1d/namespacemal__math.html#aab7b54d530da999aae378287a25da1c0" target="_top" xlink:title="Computes the dot product of two quaternions.">
<polygon fill="white" stroke="#666666" points="196.25,-19.25 122.5,-19.25 122.5,0 196.25,0 196.25,-19.25"/>
<text text-anchor="middle" x="159.38" y="-5.75" font-family="Times,serif" font-size="10.00">mal_math::dot</text>
</a>
</g>
</g>
<!-- Node1&#45;&gt;Node6 -->
<g id="edge6_Node000001_Node000006" class="edge">
<title>Node1&#45;&gt;Node6</title>
<g id="a_edge6_Node000001_Node000006"><a xlink:title=" ">
<path fill="none" stroke="#63b8ff" d="M73.53,-36.51C86.53,-32.4 101.75,-27.57 115.68,-23.16"/>
<polygon fill="#63b8ff" stroke="#63b8ff" points="116.59,-26.54 125.07,-20.18 114.48,-19.87 116.59,-26.54"/>
</a>
</g>
</g>
<!-- Node4 -->
<g id="Node000004" class="node">
<title>Node4</title>
<g id="a_Node000004"><a xlink:href="../../d1/d1d/namespacemal__math.html#a1772c0a8c3a9672ecf7b372fb536e492" target="_top" xlink:title="Returns a new vector with each element being the maximum of the corresponding element in left and min...">
<polygon fill="white" stroke="#666666" points="314.25,-56.25 237.5,-56.25 237.5,-37 314.25,-37 314.25,-56.25"/>
<text text-anchor="middle" x="275.88" y="-42.75" font-family="Times,serif" font-size="10.00">mal_math::max</text>
</a>
</g>
</g>
<!-- Node3&#45;&gt;Node4 -->
<g id="edge3_Node000003_Node000004" class="edge">
<title>Node3&#45;&gt;Node4</title>
<g id="a_edge3_Node000003_Node000004"><a xlink:title=" ">
<path fill="none" stroke="#63b8ff" d="M201.71,-46.62C209.46,-46.62 217.63,-46.62 225.59,-46.62"/>
<polygon fill="#63b8ff" stroke="#63b8ff" points="225.51,-50.13 235.51,-46.63 225.51,-43.13 225.51,-50.13"/>
</a>
</g>
</g>
<!-- Node5 -->
<g id="Node000005" class="node">
<title>Node5</title>
<g id="a_Node000005"><a xlink:href="../../d1/d1d/namespacemal__math.html#aef6065b4c161e80e15f71159af8119ce" target="_top" xlink:title="Returns a new vector with each element being the minimum of the corresponding element in left and max...">
<polygon fill="white" stroke="#666666" points="426.25,-56.25 350.25,-56.25 350.25,-37 426.25,-37 426.25,-56.25"/>
<text text-anchor="middle" x="388.25" y="-42.75" font-family="Times,serif" font-size="10.00">mal_math::min</text>
</a>
</g>
</g>
<!-- Node4&#45;&gt;Node5 -->
<g id="edge4_Node000004_Node000005" class="edge">
<title>Node4&#45;&gt;Node5</title>
<g id="a_edge4_Node000004_Node000005"><a xlink:title=" ">
<path fill="none" stroke="#63b8ff" d="M314.55,-40.19C322.36,-39.9 330.69,-39.81 338.83,-39.92"/>
<polygon fill="#63b8ff" stroke="#63b8ff" points="338.52,-43.41 348.6,-40.17 338.7,-36.42 338.52,-43.41"/>
</a>
</g>
</g>
<!-- Node5&#45;&gt;Node4 -->
<g id="edge5_Node000005_Node000004" class="edge">
<title>Node5&#45;&gt;Node4</title>
<g id="a_edge5_Node000005_Node000004"><a xlink:title=" ">
<path fill="none" stroke="#63b8ff" d="M350.12,-53.04C342.33,-53.34 334.01,-53.44 325.87,-53.34"/>
<polygon fill="#63b8ff" stroke="#63b8ff" points="326.15,-49.84 316.06,-53.1 325.98,-56.84 326.15,-49.84"/>
</a>
</g>
</g>
</g>
</svg>
