<?xml version="1.0" encoding="UTF-8" standalone="no"?>
<!DOCTYPE svg PUBLIC "-//W3C//DTD SVG 1.1//EN"
 "http://www.w3.org/Graphics/SVG/1.1/DTD/svg11.dtd">
<!-- Generated by graphviz version 9.0.0 (20230911.1827)
 -->
<!-- Title: mal_math::invert_orthogonal Pages: 1 -->
<svg width="415pt" height="27pt"
 viewBox="0.00 0.00 415.25 27.25" xmlns="http://www.w3.org/2000/svg" xmlns:xlink="http://www.w3.org/1999/xlink">
<g id="graph0" class="graph" transform="scale(1 1) rotate(0) translate(4 23.25)">
<title>mal_math::invert_orthogonal</title>
<!-- Node1 -->
<g id="Node000001" class="node">
<title>Node1</title>
<g id="a_Node000001"><a xlink:title="Returns an inverted orthogonal matrix.">
<polygon fill="#999999" stroke="#666666" points="130,-19.25 0,-19.25 0,0 130,0 130,-19.25"/>
<text text-anchor="middle" x="65" y="-5.75" font-family="Times,serif" font-size="10.00">mal_math::invert_orthogonal</text>
</a>
</g>
</g>
<!-- Node2 -->
<g id="Node000002" class="node">
<title>Node2</title>
<g id="a_Node000002"><a xlink:href="../../d1/d1d/namespacemal__math.html#a437a31375b8dadbdae42dd2b22d08185" target="_top" xlink:title="Inverts an orthogonal matrix in&#45;place and stores the result in a destination matrix.">
<polygon fill="white" stroke="#666666" points="296,-19.25 166,-19.25 166,0 296,0 296,-19.25"/>
<text text-anchor="middle" x="231" y="-5.75" font-family="Times,serif" font-size="10.00">mal_math::invert_orthogonal</text>
</a>
</g>
</g>
<!-- Node1&#45;&gt;Node2 -->
<g id="edge1_Node000001_Node000002" class="edge">
<title>Node1&#45;&gt;Node2</title>
<g id="a_edge1_Node000001_Node000002"><a xlink:title=" ">
<path fill="none" stroke="#63b8ff" d="M130.35,-9.62C138.21,-9.62 146.31,-9.62 154.33,-9.62"/>
<polygon fill="#63b8ff" stroke="#63b8ff" points="154.06,-13.13 164.06,-9.63 154.06,-6.13 154.06,-13.13"/>
</a>
</g>
</g>
<!-- Node3 -->
<g id="Node000003" class="node">
<title>Node3</title>
<g id="a_Node000003"><a xlink:href="../../d1/d1d/namespacemal__math.html#a8578ea303028d0b058d33dc3aca926b3" target="_top" xlink:title=" ">
<polygon fill="white" stroke="#666666" points="407.25,-19.25 332,-19.25 332,0 407.25,0 407.25,-19.25"/>
<text text-anchor="middle" x="369.62" y="-5.75" font-family="Times,serif" font-size="10.00">mal_math::sqrt</text>
</a>
</g>
</g>
<!-- Node2&#45;&gt;Node3 -->
<g id="edge2_Node000002_Node000003" class="edge">
<title>Node2&#45;&gt;Node3</title>
<g id="a_edge2_Node000002_Node000003"><a xlink:title=" ">
<path fill="none" stroke="#63b8ff" d="M296.31,-9.62C304.4,-9.62 312.57,-9.62 320.35,-9.62"/>
<polygon fill="#63b8ff" stroke="#63b8ff" points="320.3,-13.13 330.3,-9.63 320.3,-6.13 320.3,-13.13"/>
</a>
</g>
</g>
</g>
</svg>
