<?xml version="1.0" encoding="UTF-8" standalone="no"?>
<!DOCTYPE svg PUBLIC "-//W3C//DTD SVG 1.1//EN"
 "http://www.w3.org/Graphics/SVG/1.1/DTD/svg11.dtd">
<!-- Generated by graphviz version 9.0.0 (20230911.1827)
 -->
<!-- Title: mal_math::acos Pages: 1 -->
<svg width="443pt" height="101pt"
 viewBox="0.00 0.00 442.50 101.25" xmlns="http://www.w3.org/2000/svg" xmlns:xlink="http://www.w3.org/1999/xlink">

<svg id="main" version="1.1" xmlns="http://www.w3.org/2000/svg" xmlns:xlink="http://www.w3.org/1999/xlink" xml:space="preserve" onload="init(evt)">
<style type="text/css"><![CDATA[
.node, .edge {opacity: 0.7;}
.node.selected, .edge.selected {opacity: 1;}
.edge:hover path { stroke: red; }
.edge:hover polygon { stroke: red; fill: red; }
]]></style>
<script type="application/ecmascript" xlink:href="../../svg.min.js"/>
<svg id="graph" class="graph">
<g id="graph0" class="graph" transform="scale(1 1) rotate(0) translate(4 97.25)">
<title>mal_math::acos</title>
<!-- Node1 -->
<g id="Node000001" class="node">
<title>Node1</title>
<g id="a_Node000001"><a xlink:title=" ">
<polygon fill="#999999" stroke="#666666" points="434.5,-56.25 356.25,-56.25 356.25,-37 434.5,-37 434.5,-56.25"/>
<text text-anchor="middle" x="395.38" y="-42.75" font-family="Times,serif" font-size="10.00">mal_math::acos</text>
</a>
</g>
</g>
<!-- Node2 -->
<g id="Node000002" class="node">
<title>Node2</title>
<g id="a_Node000002"><a xlink:href="../../d1/d1d/namespacemal__math.html#a534749d72fe4ad902861be65408beb86" target="_top" xlink:title=" ">
<polygon fill="white" stroke="#666666" points="318.75,-93.25 240.5,-93.25 240.5,-74 318.75,-74 318.75,-93.25"/>
<text text-anchor="middle" x="279.62" y="-79.75" font-family="Times,serif" font-size="10.00">mal_math::acos</text>
</a>
</g>
</g>
<!-- Node1&#45;&gt;Node2 -->
<g id="edge1_Node000001_Node000002" class="edge">
<title>Node1&#45;&gt;Node2</title>
<g id="a_edge1_Node000001_Node000002"><a xlink:title=" ">
<path fill="none" stroke="#63b8ff" d="M352.74,-60.17C339.16,-64.59 324.33,-69.41 311.67,-73.53"/>
<polygon fill="#63b8ff" stroke="#63b8ff" points="353.43,-63.63 361.85,-57.2 351.26,-56.97 353.43,-63.63"/>
</a>
</g>
</g>
<!-- Node3 -->
<g id="Node000003" class="node">
<title>Node3</title>
<g id="a_Node000003"><a xlink:href="../../d1/d1d/namespacemal__math.html#a536e0e1ac498d427d7d51bce8ed5e50b" target="_top" xlink:title="Computes the angle (or magnitude) of a quaternion.">
<polygon fill="white" stroke="#666666" points="320.25,-56.25 239,-56.25 239,-37 320.25,-37 320.25,-56.25"/>
<text text-anchor="middle" x="279.62" y="-42.75" font-family="Times,serif" font-size="10.00">mal_math::angle</text>
</a>
</g>
</g>
<!-- Node1&#45;&gt;Node3 -->
<g id="edge2_Node000001_Node000003" class="edge">
<title>Node1&#45;&gt;Node3</title>
<g id="a_edge2_Node000001_Node000003"><a xlink:title=" ">
<path fill="none" stroke="#63b8ff" d="M344.42,-46.62C336.47,-46.62 328.33,-46.62 320.65,-46.62"/>
<polygon fill="#63b8ff" stroke="#63b8ff" points="344.35,-50.13 354.35,-46.63 344.35,-43.13 344.35,-50.13"/>
</a>
</g>
</g>
<!-- Node6 -->
<g id="Node000006" class="node">
<title>Node6</title>
<g id="a_Node000006"><a xlink:href="../../d1/d1d/namespacemal__math.html#a6c89bca6ee3f863870442353a30e89e2" target="_top" xlink:title="Compute the angle between two vectors.">
<polygon fill="white" stroke="#666666" points="320.25,-19.25 239,-19.25 239,0 320.25,0 320.25,-19.25"/>
<text text-anchor="middle" x="279.62" y="-5.75" font-family="Times,serif" font-size="10.00">mal_math::angle</text>
</a>
</g>
</g>
<!-- Node1&#45;&gt;Node6 -->
<g id="edge6_Node000001_Node000006" class="edge">
<title>Node1&#45;&gt;Node6</title>
<g id="a_edge6_Node000001_Node000006"><a xlink:title=" ">
<path fill="none" stroke="#63b8ff" d="M352.74,-33.08C339.16,-28.66 324.33,-23.84 311.67,-19.72"/>
<polygon fill="#63b8ff" stroke="#63b8ff" points="351.26,-36.28 361.85,-36.05 353.43,-29.62 351.26,-36.28"/>
</a>
</g>
</g>
<!-- Node4 -->
<g id="Node000004" class="node">
<title>Node4</title>
<g id="a_Node000004"><a xlink:href="../../d1/d1d/namespacemal__math.html#a3e5409e48ad66d42b0f0643bf4591163" target="_top" xlink:title="Rotates a matrix by a given angle around a given axis.">
<polygon fill="white" stroke="#666666" points="203,-56.25 119.5,-56.25 119.5,-37 203,-37 203,-56.25"/>
<text text-anchor="middle" x="161.25" y="-42.75" font-family="Times,serif" font-size="10.00">mal_math::rotate</text>
</a>
</g>
</g>
<!-- Node3&#45;&gt;Node4 -->
<g id="edge3_Node000003_Node000004" class="edge">
<title>Node3&#45;&gt;Node4</title>
<g id="a_edge3_Node000003_Node000004"><a xlink:title=" ">
<path fill="none" stroke="#63b8ff" d="M227.33,-46.62C219.24,-46.62 210.97,-46.62 203.16,-46.62"/>
<polygon fill="#63b8ff" stroke="#63b8ff" points="227.06,-50.13 237.06,-46.63 227.06,-43.13 227.06,-50.13"/>
</a>
</g>
</g>
<!-- Node4&#45;&gt;Node4 -->
<g id="edge5_Node000004_Node000004" class="edge">
<title>Node4&#45;&gt;Node4</title>
<g id="a_edge5_Node000004_Node000004"><a xlink:title=" ">
<path fill="none" stroke="#63b8ff" d="M182.26,-67.65C179.63,-71.53 172.63,-74.25 161.25,-74.25 140.44,-74.25 134.26,-65.15 142.72,-56.54"/>
<polygon fill="#63b8ff" stroke="#63b8ff" points="185.71,-67.01 180.11,-58.02 178.87,-68.54 185.71,-67.01"/>
</a>
</g>
</g>
<!-- Node5 -->
<g id="Node000005" class="node">
<title>Node5</title>
<g id="a_Node000005"><a xlink:href="../../d1/d1d/namespacemal__math.html#ae2ea884f0e0c63166d344b52a7633934" target="_top" xlink:title="Rotates a 4x4 matrix using a quaternion.">
<polygon fill="white" stroke="#666666" points="83.5,-56.25 0,-56.25 0,-37 83.5,-37 83.5,-56.25"/>
<text text-anchor="middle" x="41.75" y="-42.75" font-family="Times,serif" font-size="10.00">mal_math::rotate</text>
</a>
</g>
</g>
<!-- Node4&#45;&gt;Node5 -->
<g id="edge4_Node000004_Node000005" class="edge">
<title>Node4&#45;&gt;Node5</title>
<g id="a_edge4_Node000004_Node000005"><a xlink:title=" ">
<path fill="none" stroke="#63b8ff" d="M107.85,-46.62C99.73,-46.62 91.44,-46.62 83.62,-46.62"/>
<polygon fill="#63b8ff" stroke="#63b8ff" points="107.64,-50.13 117.64,-46.63 107.64,-43.13 107.64,-50.13"/>
</a>
</g>
</g>
</g>
</svg>
</svg>

<style type='text/css'>
<![CDATA[
[data-mouse-over-selected='false'] { opacity: 0.7; }
[data-mouse-over-selected='true']  { opacity: 1.0; }
]]>
</style>
<script type="application/ecmascript"><![CDATA[
document.addEventListener('DOMContentLoaded', (event) => {
  highlightEdges();
  highlightAdjacentNodes();
});
]]></script>
</svg>
