<?xml version="1.0" encoding="UTF-8" standalone="no"?>
<!DOCTYPE svg PUBLIC "-//W3C//DTD SVG 1.1//EN"
 "http://www.w3.org/Graphics/SVG/1.1/DTD/svg11.dtd">
<!-- Generated by graphviz version 9.0.0 (20230911.1827)
 -->
<!-- Title: mal_math::rotate Pages: 1 -->
<svg width="211pt" height="45pt"
 viewBox="0.00 0.00 211.00 45.25" xmlns="http://www.w3.org/2000/svg" xmlns:xlink="http://www.w3.org/1999/xlink">
<g id="graph0" class="graph" transform="scale(1 1) rotate(0) translate(4 41.25)">
<title>mal_math::rotate</title>
<!-- Node1 -->
<g id="Node000001" class="node">
<title>Node1</title>
<g id="a_Node000001"><a xlink:title="Rotates a matrix by a given angle around a given axis.">
<polygon fill="#999999" stroke="#666666" points="203,-19.25 119.5,-19.25 119.5,0 203,0 203,-19.25"/>
<text text-anchor="middle" x="161.25" y="-5.75" font-family="Times,serif" font-size="10.00">mal_math::rotate</text>
</a>
</g>
</g>
<!-- Node1&#45;&gt;Node1 -->
<g id="edge2_Node000001_Node000001" class="edge">
<title>Node1&#45;&gt;Node1</title>
<g id="a_edge2_Node000001_Node000001"><a xlink:title=" ">
<path fill="none" stroke="#63b8ff" d="M182.46,-30.65C179.81,-34.53 172.74,-37.25 161.25,-37.25 140.24,-37.25 134.01,-28.15 142.54,-19.54"/>
<polygon fill="#63b8ff" stroke="#63b8ff" points="185.9,-30 180.29,-21.01 179.07,-31.54 185.9,-30"/>
</a>
</g>
</g>
<!-- Node2 -->
<g id="Node000002" class="node">
<title>Node2</title>
<g id="a_Node000002"><a xlink:href="../../d1/d1d/namespacemal__math.html#ae2ea884f0e0c63166d344b52a7633934" target="_top" xlink:title="Rotates a 4x4 matrix using a quaternion.">
<polygon fill="white" stroke="#666666" points="83.5,-19.25 0,-19.25 0,0 83.5,0 83.5,-19.25"/>
<text text-anchor="middle" x="41.75" y="-5.75" font-family="Times,serif" font-size="10.00">mal_math::rotate</text>
</a>
</g>
</g>
<!-- Node1&#45;&gt;Node2 -->
<g id="edge1_Node000001_Node000002" class="edge">
<title>Node1&#45;&gt;Node2</title>
<g id="a_edge1_Node000001_Node000002"><a xlink:title=" ">
<path fill="none" stroke="#63b8ff" d="M107.85,-9.62C99.73,-9.62 91.44,-9.62 83.62,-9.62"/>
<polygon fill="#63b8ff" stroke="#63b8ff" points="107.64,-13.13 117.64,-9.63 107.64,-6.13 107.64,-13.13"/>
</a>
</g>
</g>
</g>
</svg>
