<?xml version="1.0" encoding="UTF-8" standalone="no"?>
<!DOCTYPE svg PUBLIC "-//W3C//DTD SVG 1.1//EN"
 "http://www.w3.org/Graphics/SVG/1.1/DTD/svg11.dtd">
<!-- Generated by graphviz version 9.0.0 (20230911.1827)
 -->
<!-- Title: mal_math::look_at Pages: 1 -->
<svg width="466pt" height="103pt"
 viewBox="0.00 0.00 465.75 103.25" xmlns="http://www.w3.org/2000/svg" xmlns:xlink="http://www.w3.org/1999/xlink">
<g id="graph0" class="graph" transform="scale(1 1) rotate(0) translate(4 99.25)">
<title>mal_math::look_at</title>
<!-- Node1 -->
<g id="Node000001" class="node">
<title>Node1</title>
<g id="a_Node000001"><a xlink:title="Generates a look&#45;at matrix for camera positioning.">
<polygon fill="#999999" stroke="#666666" points="90.25,-57.25 0,-57.25 0,-38 90.25,-38 90.25,-57.25"/>
<text text-anchor="middle" x="45.12" y="-43.75" font-family="Times,serif" font-size="10.00">mal_math::look_at</text>
</a>
</g>
</g>
<!-- Node2 -->
<g id="Node000002" class="node">
<title>Node2</title>
<g id="a_Node000002"><a xlink:href="../../d1/d1d/namespacemal__math.html#af6fac0124c0a8511b0f747b9f15d1f74" target="_top" xlink:title="Cross product between quaternion and vector.">
<polygon fill="white" stroke="#666666" points="216.12,-95.25 135.62,-95.25 135.62,-76 216.12,-76 216.12,-95.25"/>
<text text-anchor="middle" x="175.88" y="-81.75" font-family="Times,serif" font-size="10.00">mal_math::cross</text>
</a>
</g>
</g>
<!-- Node1&#45;&gt;Node2 -->
<g id="edge1_Node000001_Node000002" class="edge">
<title>Node1&#45;&gt;Node2</title>
<g id="a_edge1_Node000001_Node000002"><a xlink:title=" ">
<path fill="none" stroke="#63b8ff" d="M80.29,-57.71C95.54,-62.21 113.72,-67.58 130.05,-72.39"/>
<polygon fill="#63b8ff" stroke="#63b8ff" points="128.96,-75.72 139.55,-75.2 130.95,-69.01 128.96,-75.72"/>
</a>
</g>
</g>
<!-- Node3 -->
<g id="Node000003" class="node">
<title>Node3</title>
<g id="a_Node000003"><a xlink:href="../../d1/d1d/namespacemal__math.html#aab7b54d530da999aae378287a25da1c0" target="_top" xlink:title="Computes the dot product of two quaternions.">
<polygon fill="white" stroke="#666666" points="457,-56.25 383.25,-56.25 383.25,-37 457,-37 457,-56.25"/>
<text text-anchor="middle" x="420.12" y="-42.75" font-family="Times,serif" font-size="10.00">mal_math::dot</text>
</a>
</g>
</g>
<!-- Node1&#45;&gt;Node3 -->
<g id="edge2_Node000001_Node000003" class="edge">
<title>Node1&#45;&gt;Node3</title>
<g id="a_edge2_Node000001_Node000003"><a xlink:title=" ">
<path fill="none" stroke="#63b8ff" d="M90.75,-47.51C161.45,-47.32 298.65,-46.95 371.3,-46.75"/>
<polygon fill="#63b8ff" stroke="#63b8ff" points="371.31,-50.25 381.3,-46.73 371.29,-43.25 371.31,-50.25"/>
</a>
</g>
</g>
<!-- Node4 -->
<g id="Node000004" class="node">
<title>Node4</title>
<g id="a_Node000004"><a xlink:href="../../d1/d1d/namespacemal__math.html#abe612f1321c4a59501c42f7759feaba4" target="_top" xlink:title="Normalizes a quaternion.">
<polygon fill="white" stroke="#666666" points="225.5,-19.25 126.25,-19.25 126.25,0 225.5,0 225.5,-19.25"/>
<text text-anchor="middle" x="175.88" y="-5.75" font-family="Times,serif" font-size="10.00">mal_math::normalize</text>
</a>
</g>
</g>
<!-- Node1&#45;&gt;Node4 -->
<g id="edge3_Node000001_Node000004" class="edge">
<title>Node1&#45;&gt;Node4</title>
<g id="a_edge3_Node000001_Node000004"><a xlink:title=" ">
<path fill="none" stroke="#63b8ff" d="M80.29,-37.54C95.54,-33.04 113.72,-27.67 130.05,-22.86"/>
<polygon fill="#63b8ff" stroke="#63b8ff" points="130.95,-26.24 139.55,-20.05 128.96,-19.53 130.95,-26.24"/>
</a>
</g>
</g>
<!-- Node5 -->
<g id="Node000005" class="node">
<title>Node5</title>
<g id="a_Node000005"><a xlink:href="../../d1/d1d/namespacemal__math.html#a39c5199d92cd6fd327cd1719bd148dcc" target="_top" xlink:title="Computes the length (or magnitude) of a quaternion.">
<polygon fill="white" stroke="#666666" points="346.5,-19.25 261.5,-19.25 261.5,0 346.5,0 346.5,-19.25"/>
<text text-anchor="middle" x="304" y="-5.75" font-family="Times,serif" font-size="10.00">mal_math::length</text>
</a>
</g>
</g>
<!-- Node4&#45;&gt;Node5 -->
<g id="edge4_Node000004_Node000005" class="edge">
<title>Node4&#45;&gt;Node5</title>
<g id="a_edge4_Node000004_Node000005"><a xlink:title=" ">
<path fill="none" stroke="#63b8ff" d="M226,-9.62C233.81,-9.62 241.91,-9.62 249.81,-9.62"/>
<polygon fill="#63b8ff" stroke="#63b8ff" points="249.65,-13.13 259.65,-9.63 249.65,-6.13 249.65,-13.13"/>
</a>
</g>
</g>
<!-- Node5&#45;&gt;Node3 -->
<g id="edge5_Node000005_Node000003" class="edge">
<title>Node5&#45;&gt;Node3</title>
<g id="a_edge5_Node000005_Node000003"><a xlink:title=" ">
<path fill="none" stroke="#63b8ff" d="M336.19,-19.74C348.89,-23.85 363.77,-28.68 377.39,-33.09"/>
<polygon fill="#63b8ff" stroke="#63b8ff" points="375.95,-36.31 386.54,-36.06 378.1,-29.65 375.95,-36.31"/>
</a>
</g>
</g>
<!-- Node6 -->
<g id="Node000006" class="node">
<title>Node6</title>
<g id="a_Node000006"><a xlink:href="../../d1/d1d/namespacemal__math.html#a8578ea303028d0b058d33dc3aca926b3" target="_top" xlink:title=" ">
<polygon fill="white" stroke="#666666" points="457.75,-19.25 382.5,-19.25 382.5,0 457.75,0 457.75,-19.25"/>
<text text-anchor="middle" x="420.12" y="-5.75" font-family="Times,serif" font-size="10.00">mal_math::sqrt</text>
</a>
</g>
</g>
<!-- Node5&#45;&gt;Node6 -->
<g id="edge6_Node000005_Node000006" class="edge">
<title>Node5&#45;&gt;Node6</title>
<g id="a_edge6_Node000005_Node000006"><a xlink:title=" ">
<path fill="none" stroke="#63b8ff" d="M346.85,-9.62C354.63,-9.62 362.81,-9.62 370.77,-9.62"/>
<polygon fill="#63b8ff" stroke="#63b8ff" points="370.67,-13.13 380.67,-9.63 370.67,-6.13 370.67,-13.13"/>
</a>
</g>
</g>
</g>
</svg>
