<?xml version="1.0" encoding="UTF-8" standalone="no"?>
<!DOCTYPE svg PUBLIC "-//W3C//DTD SVG 1.1//EN"
 "http://www.w3.org/Graphics/SVG/1.1/DTD/svg11.dtd">
<!-- Generated by graphviz version 9.0.0 (20230911.1827)
 -->
<!-- Title: mal_math::rmax Pages: 1 -->
<svg width="313pt" height="27pt"
 viewBox="0.00 0.00 313.25 27.25" xmlns="http://www.w3.org/2000/svg" xmlns:xlink="http://www.w3.org/1999/xlink">
<g id="graph0" class="graph" transform="scale(1 1) rotate(0) translate(4 23.25)">
<title>mal_math::rmax</title>
<!-- Node1 -->
<g id="Node000001" class="node">
<title>Node1</title>
<g id="a_Node000001"><a xlink:title="Modifies left in&#45;place, setting each element to the maximum of itself and min.">
<polygon fill="#999999" stroke="#666666" points="80.5,-19.25 0,-19.25 0,0 80.5,0 80.5,-19.25"/>
<text text-anchor="middle" x="40.25" y="-5.75" font-family="Times,serif" font-size="10.00">mal_math::rmax</text>
</a>
</g>
</g>
<!-- Node2 -->
<g id="Node000002" class="node">
<title>Node2</title>
<g id="a_Node000002"><a xlink:href="../../d1/d1d/namespacemal__math.html#aef6065b4c161e80e15f71159af8119ce" target="_top" xlink:title="Returns a new vector with each element being the minimum of the corresponding element in left and max...">
<polygon fill="white" stroke="#666666" points="192.5,-19.25 116.5,-19.25 116.5,0 192.5,0 192.5,-19.25"/>
<text text-anchor="middle" x="154.5" y="-5.75" font-family="Times,serif" font-size="10.00">mal_math::min</text>
</a>
</g>
</g>
<!-- Node1&#45;&gt;Node2 -->
<g id="edge1_Node000001_Node000002" class="edge">
<title>Node1&#45;&gt;Node2</title>
<g id="a_edge1_Node000001_Node000002"><a xlink:title=" ">
<path fill="none" stroke="#63b8ff" d="M80.83,-9.62C88.54,-9.62 96.72,-9.62 104.7,-9.62"/>
<polygon fill="#63b8ff" stroke="#63b8ff" points="104.65,-13.13 114.65,-9.63 104.65,-6.13 104.65,-13.13"/>
</a>
</g>
</g>
<!-- Node3 -->
<g id="Node000003" class="node">
<title>Node3</title>
<g id="a_Node000003"><a xlink:href="../../d1/d1d/namespacemal__math.html#a1772c0a8c3a9672ecf7b372fb536e492" target="_top" xlink:title="Returns a new vector with each element being the maximum of the corresponding element in left and min...">
<polygon fill="white" stroke="#666666" points="305.25,-19.25 228.5,-19.25 228.5,0 305.25,0 305.25,-19.25"/>
<text text-anchor="middle" x="266.88" y="-5.75" font-family="Times,serif" font-size="10.00">mal_math::max</text>
</a>
</g>
</g>
<!-- Node2&#45;&gt;Node3 -->
<g id="edge2_Node000002_Node000003" class="edge">
<title>Node2&#45;&gt;Node3</title>
<g id="a_edge2_Node000002_Node000003"><a xlink:title=" ">
<path fill="none" stroke="#63b8ff" d="M192.87,-3.2C200.52,-2.91 208.67,-2.82 216.66,-2.91"/>
<polygon fill="#63b8ff" stroke="#63b8ff" points="216.58,-6.41 226.66,-3.15 216.74,0.59 216.58,-6.41"/>
</a>
</g>
</g>
<!-- Node3&#45;&gt;Node2 -->
<g id="edge3_Node000003_Node000002" class="edge">
<title>Node3&#45;&gt;Node2</title>
<g id="a_edge3_Node000003_Node000002"><a xlink:title=" ">
<path fill="none" stroke="#63b8ff" d="M228.17,-16.06C220.51,-16.35 212.34,-16.44 204.36,-16.34"/>
<polygon fill="#63b8ff" stroke="#63b8ff" points="204.46,-12.84 194.38,-16.09 204.29,-19.83 204.46,-12.84"/>
</a>
</g>
</g>
</g>
</svg>
