<?xml version="1.0" encoding="UTF-8" standalone="no"?>
<!DOCTYPE svg PUBLIC "-//W3C//DTD SVG 1.1//EN"
 "http://www.w3.org/Graphics/SVG/1.1/DTD/svg11.dtd">
<!-- Generated by graphviz version 9.0.0 (20230911.1827)
 -->
<!-- Title: mal_math::normalize Pages: 1 -->
<svg width="390pt" height="254pt"
 viewBox="0.00 0.00 389.75 253.88" xmlns="http://www.w3.org/2000/svg" xmlns:xlink="http://www.w3.org/1999/xlink">
<g id="graph0" class="graph" transform="scale(1 1) rotate(0) translate(4 249.88)">
<title>mal_math::normalize</title>
<!-- Node1 -->
<g id="Node000001" class="node">
<title>Node1</title>
<g id="a_Node000001"><a xlink:title="Normalizes a quaternion.">
<polygon fill="#999999" stroke="#666666" points="381.75,-143.88 282.5,-143.88 282.5,-124.62 381.75,-124.62 381.75,-143.88"/>
<text text-anchor="middle" x="332.12" y="-130.38" font-family="Times,serif" font-size="10.00">mal_math::normalize</text>
</a>
</g>
</g>
<!-- Node2 -->
<g id="Node000002" class="node">
<title>Node2</title>
<g id="a_Node000002"><a xlink:href="../../d2/dd8/structmal__math_1_1_sphere.html#a16d1dfc076a08ee64ff10aff05669da4" target="_top" xlink:title="Determines if a Ray intersects with the Sphere.">
<polygon fill="white" stroke="#666666" points="246.5,-245.88 119.5,-245.88 119.5,-226.62 246.5,-226.62 246.5,-245.88"/>
<text text-anchor="middle" x="183" y="-232.38" font-family="Times,serif" font-size="10.00">mal_math::Sphere::Intersect</text>
</a>
</g>
</g>
<!-- Node1&#45;&gt;Node2 -->
<g id="edge1_Node000001_Node000002" class="edge">
<title>Node1&#45;&gt;Node2</title>
<g id="a_edge1_Node000001_Node000002"><a xlink:title=" ">
<path fill="none" stroke="#63b8ff" d="M316.91,-153.11C301.56,-172.21 275.38,-201.29 246.5,-218.25 241.14,-221.4 235.21,-224.02 229.18,-226.2"/>
<polygon fill="#63b8ff" stroke="#63b8ff" points="319.58,-155.38 322.98,-145.34 314.07,-151.07 319.58,-155.38"/>
</a>
</g>
</g>
<!-- Node3 -->
<g id="Node000003" class="node">
<title>Node3</title>
<g id="a_Node000003"><a xlink:href="../../d1/d1d/namespacemal__math.html#ae75c0f78e391bc79564c5ddc63a74612" target="_top" xlink:title="Generates a look&#45;at matrix for camera positioning.">
<polygon fill="white" stroke="#666666" points="228.12,-208.88 137.88,-208.88 137.88,-189.62 228.12,-189.62 228.12,-208.88"/>
<text text-anchor="middle" x="183" y="-195.38" font-family="Times,serif" font-size="10.00">mal_math::look_at</text>
</a>
</g>
</g>
<!-- Node1&#45;&gt;Node3 -->
<g id="edge2_Node000001_Node000003" class="edge">
<title>Node1&#45;&gt;Node3</title>
<g id="a_edge2_Node000001_Node000003"><a xlink:title=" ">
<path fill="none" stroke="#63b8ff" d="M306.32,-149.99C289.83,-159.96 267.45,-172.55 246.5,-181.25 239.41,-184.2 231.68,-186.85 224.14,-189.15"/>
<polygon fill="#63b8ff" stroke="#63b8ff" points="307.78,-153.21 314.46,-144.98 304.11,-147.24 307.78,-153.21"/>
</a>
</g>
</g>
<!-- Node4 -->
<g id="Node000004" class="node">
<title>Node4</title>
<g id="a_Node000004"><a xlink:href="../../d9/d76/structmal__math_1_1qua.html#a76e9e79edda5b35e32e583dc638ad252" target="_top" xlink:title="Constructs a quaternion from an angle and rotation axis.">
<polygon fill="white" stroke="#666666" points="229.62,-171.88 136.38,-171.88 136.38,-152.62 229.62,-152.62 229.62,-171.88"/>
<text text-anchor="middle" x="183" y="-158.38" font-family="Times,serif" font-size="10.00">mal_math::qua::qua</text>
</a>
</g>
</g>
<!-- Node1&#45;&gt;Node4 -->
<g id="edge3_Node000001_Node000004" class="edge">
<title>Node1&#45;&gt;Node4</title>
<g id="a_edge3_Node000001_Node000004"><a xlink:title=" ">
<path fill="none" stroke="#63b8ff" d="M271.23,-145.65C257.4,-148.28 242.91,-151.04 229.79,-153.54"/>
<polygon fill="#63b8ff" stroke="#63b8ff" points="271.48,-149.16 280.65,-143.86 270.17,-142.29 271.48,-149.16"/>
</a>
</g>
</g>
<!-- Node5 -->
<g id="Node000005" class="node">
<title>Node5</title>
<g id="a_Node000005"><a xlink:href="../../d1/d1d/namespacemal__math.html#a3e5409e48ad66d42b0f0643bf4591163" target="_top" xlink:title="Rotates a matrix by a given angle around a given axis.">
<polygon fill="white" stroke="#666666" points="224.75,-116.88 141.25,-116.88 141.25,-97.62 224.75,-97.62 224.75,-116.88"/>
<text text-anchor="middle" x="183" y="-103.38" font-family="Times,serif" font-size="10.00">mal_math::rotate</text>
</a>
</g>
</g>
<!-- Node1&#45;&gt;Node5 -->
<g id="edge4_Node000001_Node000005" class="edge">
<title>Node1&#45;&gt;Node5</title>
<g id="a_edge4_Node000001_Node000005"><a xlink:title=" ">
<path fill="none" stroke="#63b8ff" d="M271.03,-123.22C255.53,-120.38 239.2,-117.38 224.92,-114.76"/>
<polygon fill="#63b8ff" stroke="#63b8ff" points="270.18,-126.62 280.65,-124.99 271.44,-119.74 270.18,-126.62"/>
</a>
</g>
</g>
<!-- Node7 -->
<g id="Node000007" class="node">
<title>Node7</title>
<g id="a_Node000007"><a xlink:href="../../db/d90/namespacemal__math_1_1random_1_1__detail.html#a8a729c12da52b3aa8764cbd4ebe7252f" target="_top" xlink:title="Generates a unit vector with random direction.">
<polygon fill="white" stroke="#666666" points="232.25,-79.5 133.75,-79.5 133.75,-49 232.25,-49 232.25,-79.5"/>
<text text-anchor="start" x="141.75" y="-66" font-family="Times,serif" font-size="10.00">mal_math::random::</text>
<text text-anchor="middle" x="183" y="-54.75" font-family="Times,serif" font-size="10.00">_detail::UnitRandom</text>
</a>
</g>
</g>
<!-- Node1&#45;&gt;Node7 -->
<g id="edge7_Node000001_Node000007" class="edge">
<title>Node1&#45;&gt;Node7</title>
<g id="a_edge7_Node000001_Node000007"><a xlink:title=" ">
<path fill="none" stroke="#63b8ff" d="M304.31,-118.5C287.9,-109.15 266.3,-97.39 246.5,-88.25 240.27,-85.38 233.6,-82.55 227.01,-79.91"/>
<polygon fill="#63b8ff" stroke="#63b8ff" points="302.56,-121.53 312.97,-123.48 306.05,-115.46 302.56,-121.53"/>
</a>
</g>
</g>
<!-- Node8 -->
<g id="Node000008" class="node">
<title>Node8</title>
<g id="a_Node000008"><a xlink:href="../../de/db9/structmal__math_1_1_plane.html#a568a7d2c844bc73f43611217334106f9" target="_top" xlink:title="Updates the plane&#39;s vectors and normal based on two new vectors.">
<polygon fill="white" stroke="#666666" points="239.75,-30.5 126.25,-30.5 126.25,0 239.75,0 239.75,-30.5"/>
<text text-anchor="start" x="134.25" y="-17" font-family="Times,serif" font-size="10.00">mal_math::Plane::update</text>
<text text-anchor="middle" x="183" y="-5.75" font-family="Times,serif" font-size="10.00">_plane</text>
</a>
</g>
</g>
<!-- Node1&#45;&gt;Node8 -->
<g id="edge8_Node000001_Node000008" class="edge">
<title>Node1&#45;&gt;Node8</title>
<g id="a_edge8_Node000001_Node000008"><a xlink:title=" ">
<path fill="none" stroke="#63b8ff" d="M318.15,-115.25C303.06,-94.38 276.37,-61.09 246.5,-40.25 241.52,-36.77 235.98,-33.68 230.32,-30.95"/>
<polygon fill="#63b8ff" stroke="#63b8ff" points="315.09,-116.99 323.71,-123.14 320.81,-112.95 315.09,-116.99"/>
</a>
</g>
</g>
<!-- Node5&#45;&gt;Node5 -->
<g id="edge6_Node000005_Node000005" class="edge">
<title>Node5&#45;&gt;Node5</title>
<g id="a_edge6_Node000005_Node000005"><a xlink:title=" ">
<path fill="none" stroke="#63b8ff" d="M208.07,-128.28C204.94,-132.15 196.58,-134.88 183,-134.88 158.17,-134.88 150.8,-125.77 160.89,-117.16"/>
<polygon fill="#63b8ff" stroke="#63b8ff" points="211.46,-127.39 205.5,-118.63 204.69,-129.19 211.46,-127.39"/>
</a>
</g>
</g>
<!-- Node6 -->
<g id="Node000006" class="node">
<title>Node6</title>
<g id="a_Node000006"><a xlink:href="../../d1/d1d/namespacemal__math.html#ae2ea884f0e0c63166d344b52a7633934" target="_top" xlink:title="Rotates a 4x4 matrix using a quaternion.">
<polygon fill="white" stroke="#666666" points="83.5,-116.88 0,-116.88 0,-97.62 83.5,-97.62 83.5,-116.88"/>
<text text-anchor="middle" x="41.75" y="-103.38" font-family="Times,serif" font-size="10.00">mal_math::rotate</text>
</a>
</g>
</g>
<!-- Node5&#45;&gt;Node6 -->
<g id="edge5_Node000005_Node000006" class="edge">
<title>Node5&#45;&gt;Node6</title>
<g id="a_edge5_Node000005_Node000006"><a xlink:title=" ">
<path fill="none" stroke="#63b8ff" d="M129.69,-107.25C114.58,-107.25 98.3,-107.25 83.96,-107.25"/>
<polygon fill="#63b8ff" stroke="#63b8ff" points="129.46,-110.75 139.46,-107.25 129.46,-103.75 129.46,-110.75"/>
</a>
</g>
</g>
</g>
</svg>
