<?xml version="1.0" encoding="UTF-8" standalone="no"?>
<!DOCTYPE svg PUBLIC "-//W3C//DTD SVG 1.1//EN"
 "http://www.w3.org/Graphics/SVG/1.1/DTD/svg11.dtd">
<!-- Generated by graphviz version 9.0.0 (20230911.1827)
 -->
<!-- Title: mal_math::inverse Pages: 1 -->
<svg width="562pt" height="101pt"
 viewBox="0.00 0.00 562.00 101.25" xmlns="http://www.w3.org/2000/svg" xmlns:xlink="http://www.w3.org/1999/xlink">
<g id="graph0" class="graph" transform="scale(1 1) rotate(0) translate(4 97.25)">
<title>mal_math::inverse</title>
<!-- Node1 -->
<g id="Node000001" class="node">
<title>Node1</title>
<g id="a_Node000001"><a xlink:title="Calculates the inverse of a square matrix.">
<polygon fill="#999999" stroke="#666666" points="88.75,-56.25 0,-56.25 0,-37 88.75,-37 88.75,-56.25"/>
<text text-anchor="middle" x="44.38" y="-42.75" font-family="Times,serif" font-size="10.00">mal_math::inverse</text>
</a>
</g>
</g>
<!-- Node2 -->
<g id="Node000002" class="node">
<title>Node2</title>
<g id="a_Node000002"><a xlink:href="../../d1/d1d/namespacemal__math.html#ad2fb7080daf9beb776f0cb7b8628ee49" target="_top" xlink:title="Alias for the adj() function to compute the adjugate of a matrix.">
<polygon fill="white" stroke="#666666" points="217.25,-75.25 124.75,-75.25 124.75,-56 217.25,-56 217.25,-75.25"/>
<text text-anchor="middle" x="171" y="-61.75" font-family="Times,serif" font-size="10.00">mal_math::adjugate</text>
</a>
</g>
</g>
<!-- Node1&#45;&gt;Node2 -->
<g id="edge1_Node000001_Node000002" class="edge">
<title>Node1&#45;&gt;Node2</title>
<g id="a_edge1_Node000001_Node000002"><a xlink:title=" ">
<path fill="none" stroke="#63b8ff" d="M88.96,-53.27C96.79,-54.46 105.05,-55.72 113.18,-56.96"/>
<polygon fill="#63b8ff" stroke="#63b8ff" points="112.62,-60.42 123.04,-58.47 113.68,-53.5 112.62,-60.42"/>
</a>
</g>
</g>
<!-- Node4 -->
<g id="Node000004" class="node">
<title>Node4</title>
<g id="a_Node000004"><a xlink:href="../../d1/d1d/namespacemal__math.html#a245dd949a6bfab7e377c6dab6ebf6280" target="_top" xlink:title="Calculates the determinant of a square matrix.">
<polygon fill="white" stroke="#666666" points="434.5,-56.25 361.5,-56.25 361.5,-37 434.5,-37 434.5,-56.25"/>
<text text-anchor="middle" x="398" y="-42.75" font-family="Times,serif" font-size="10.00">mal_math::det</text>
</a>
</g>
</g>
<!-- Node1&#45;&gt;Node4 -->
<g id="edge7_Node000001_Node000004" class="edge">
<title>Node1&#45;&gt;Node4</title>
<g id="a_edge7_Node000001_Node000004"><a xlink:title=" ">
<path fill="none" stroke="#63b8ff" d="M89.2,-46.62C155.68,-46.62 281.49,-46.62 349.88,-46.62"/>
<polygon fill="#63b8ff" stroke="#63b8ff" points="349.63,-50.13 359.63,-46.63 349.63,-43.13 349.63,-50.13"/>
</a>
</g>
</g>
<!-- Node3 -->
<g id="Node000003" class="node">
<title>Node3</title>
<g id="a_Node000003"><a xlink:href="../../d1/d1d/namespacemal__math.html#a6b9483d460a882f9c49428abb7d7ed21" target="_top" xlink:title="Computes the adjoint (or adjugate) of a square matrix.">
<polygon fill="white" stroke="#666666" points="325.5,-75.25 253.25,-75.25 253.25,-56 325.5,-56 325.5,-75.25"/>
<text text-anchor="middle" x="289.38" y="-61.75" font-family="Times,serif" font-size="10.00">mal_math::adj</text>
</a>
</g>
</g>
<!-- Node2&#45;&gt;Node3 -->
<g id="edge2_Node000002_Node000003" class="edge">
<title>Node2&#45;&gt;Node3</title>
<g id="a_edge2_Node000002_Node000003"><a xlink:title=" ">
<path fill="none" stroke="#63b8ff" d="M217.66,-65.62C225.53,-65.62 233.73,-65.62 241.63,-65.62"/>
<polygon fill="#63b8ff" stroke="#63b8ff" points="241.41,-69.13 251.41,-65.63 241.41,-62.13 241.41,-69.13"/>
</a>
</g>
</g>
<!-- Node3&#45;&gt;Node4 -->
<g id="edge3_Node000003_Node000004" class="edge">
<title>Node3&#45;&gt;Node4</title>
<g id="a_edge3_Node000003_Node000004"><a xlink:title=" ">
<path fill="none" stroke="#63b8ff" d="M325.88,-59.3C333.62,-57.92 341.93,-56.44 350.04,-54.99"/>
<polygon fill="#63b8ff" stroke="#63b8ff" points="350.57,-58.45 359.8,-53.25 349.34,-51.56 350.57,-58.45"/>
</a>
</g>
</g>
<!-- Node5 -->
<g id="Node000005" class="node">
<title>Node5</title>
<g id="a_Node000005"><a xlink:href="../../d1/d1d/namespacemal__math.html#a4ca4a22c985a535c67c1821c42193f59" target="_top" xlink:title=" ">
<polygon fill="white" stroke="#666666" points="554,-93.25 470.5,-93.25 470.5,-74 554,-74 554,-93.25"/>
<text text-anchor="middle" x="512.25" y="-79.75" font-family="Times,serif" font-size="10.00">mal_math::det_2</text>
</a>
</g>
</g>
<!-- Node4&#45;&gt;Node5 -->
<g id="edge4_Node000004_Node000005" class="edge">
<title>Node4&#45;&gt;Node5</title>
<g id="a_edge4_Node000004_Node000005"><a xlink:title=" ">
<path fill="none" stroke="#63b8ff" d="M429.67,-56.74C442.05,-60.81 456.51,-65.58 469.8,-69.96"/>
<polygon fill="#63b8ff" stroke="#63b8ff" points="468.58,-73.25 479.18,-73.05 470.78,-66.6 468.58,-73.25"/>
</a>
</g>
</g>
<!-- Node6 -->
<g id="Node000006" class="node">
<title>Node6</title>
<g id="a_Node000006"><a xlink:href="../../d1/d1d/namespacemal__math.html#a684065c9e18fa3625d06a8762bff8dd1" target="_top" xlink:title=" ">
<polygon fill="white" stroke="#666666" points="554,-56.25 470.5,-56.25 470.5,-37 554,-37 554,-56.25"/>
<text text-anchor="middle" x="512.25" y="-42.75" font-family="Times,serif" font-size="10.00">mal_math::det_3</text>
</a>
</g>
</g>
<!-- Node4&#45;&gt;Node6 -->
<g id="edge5_Node000004_Node000006" class="edge">
<title>Node4&#45;&gt;Node6</title>
<g id="a_edge5_Node000004_Node000006"><a xlink:title=" ">
<path fill="none" stroke="#63b8ff" d="M434.83,-46.62C442.5,-46.62 450.76,-46.62 458.91,-46.62"/>
<polygon fill="#63b8ff" stroke="#63b8ff" points="458.78,-50.13 468.78,-46.63 458.78,-43.13 458.78,-50.13"/>
</a>
</g>
</g>
<!-- Node7 -->
<g id="Node000007" class="node">
<title>Node7</title>
<g id="a_Node000007"><a xlink:href="../../d1/d1d/namespacemal__math.html#a7205ab27aa1028ece0e9ad92fa2ac8e3" target="_top" xlink:title=" ">
<polygon fill="white" stroke="#666666" points="554,-19.25 470.5,-19.25 470.5,0 554,0 554,-19.25"/>
<text text-anchor="middle" x="512.25" y="-5.75" font-family="Times,serif" font-size="10.00">mal_math::det_4</text>
</a>
</g>
</g>
<!-- Node4&#45;&gt;Node7 -->
<g id="edge6_Node000004_Node000007" class="edge">
<title>Node4&#45;&gt;Node7</title>
<g id="a_edge6_Node000004_Node000007"><a xlink:title=" ">
<path fill="none" stroke="#63b8ff" d="M429.67,-36.51C442.05,-32.44 456.51,-27.67 469.8,-23.29"/>
<polygon fill="#63b8ff" stroke="#63b8ff" points="470.78,-26.65 479.18,-20.2 468.58,-20 470.78,-26.65"/>
</a>
</g>
</g>
</g>
</svg>
