<?xml version="1.0" encoding="UTF-8" standalone="no"?>
<!DOCTYPE svg PUBLIC "-//W3C//DTD SVG 1.1//EN"
 "http://www.w3.org/Graphics/SVG/1.1/DTD/svg11.dtd">
<!-- Generated by graphviz version 9.0.0 (20230911.1827)
 -->
<!-- Title: mal_math::det Pages: 1 -->
<!--zoomable 103 -->

<svg id="main" version="1.1" xmlns="http://www.w3.org/2000/svg" xmlns:xlink="http://www.w3.org/1999/xlink" xml:space="preserve" onload="init(evt)">
<style type="text/css"><![CDATA[
.node, .edge {opacity: 0.7;}
.node.selected, .edge.selected {opacity: 1;}
.edge:hover path { stroke: red; }
.edge:hover polygon { stroke: red; fill: red; }
]]></style>

<defs>
  <circle id="rim" cx="0" cy="0" r="7"/>
  <circle id="rim2" cx="0" cy="0" r="3.5"/>
  <g id="zoomPlus">
    <use xlink:href="#rim" fill="#404040"><set attributeName="fill" to="#808080" begin="zoomplus.mouseover" end="zoomplus.mouseout"/></use>
    <path d="M-4,0h8M0,-4v8" fill="none" stroke="white" stroke-width="1.5" pointer-events="none"/>
  </g>
  <g id="zoomMin">
    <use xlink:href="#rim" fill="#404040"><set attributeName="fill" to="#808080" begin="zoomminus.mouseover" end="zoomminus.mouseout"/></use>
    <path d="M-4,0h8" fill="none" stroke="white" stroke-width="1.5" pointer-events="none"/>
  </g>
  <g id="arrowUp" transform="translate(30 24)">
    <use xlink:href="#rim"/>
    <path pointer-events="none" fill="none" stroke="white" stroke-width="1.5" d="M0,-3.0v7 M-2.5,-0.5L0,-3.0L2.5,-0.5"/>
  </g>
  <g id="arrowRight" transform="rotate(90) translate(36 -43)">
    <use xlink:href="#rim"/>
    <path pointer-events="none" fill="none" stroke="white" stroke-width="1.5" d="M0,-3.0v7 M-2.5,-0.5L0,-3.0L2.5,-0.5"/>
  </g>
  <g id="arrowDown" transform="rotate(180) translate(-30 -48)">
    <use xlink:href="#rim"/>
    <path pointer-events="none" fill="none" stroke="white" stroke-width="1.5" d="M0,-3.0v7 M-2.5,-0.5L0,-3.0L2.5,-0.5"/>
  </g>
  <g id="arrowLeft" transform="rotate(270) translate(-36 17)">
    <use xlink:href="#rim"/>
    <path pointer-events="none" fill="none" stroke="white" stroke-width="1.5" d="M0,-3.0v7 M-2.5,-0.5L0,-3.0L2.5,-0.5"/>
  </g>
  <g id="resetDef">
    <use xlink:href="#rim2" fill="#404040"><set attributeName="fill" to="#808080" begin="reset.mouseover" end="reset.mouseout"/></use>
  </g>
</defs>
<script type="application/ecmascript">
var viewWidth = 614;
var viewHeight = 103;
var sectionId = 'dynsection-40';
</script>
<script type="application/ecmascript" xlink:href="../../svg.min.js"/>
<svg id="graph" class="graph">
<g id="viewport">
<title>mal_math::det</title>
<!-- Node1 -->
<g id="Node000001" class="node">
<title>Node1</title>
<g id="a_Node000001"><a xlink:title="Calculates the determinant of a square matrix.">
<polygon fill="#999999" stroke="#666666" points="605.75,-57.25 532.75,-57.25 532.75,-38 605.75,-38 605.75,-57.25"/>
<text text-anchor="middle" x="569.25" y="-43.75" font-family="Times,serif" font-size="10.00">mal_math::det</text>
</a>
</g>
</g>
<!-- Node2 -->
<g id="Node000002" class="node">
<title>Node2</title>
<g id="a_Node000002"><a xlink:href="../../d1/d1d/namespacemal__math.html#a6b9483d460a882f9c49428abb7d7ed21" target="_top" xlink:title="Computes the adjoint (or adjugate) of a square matrix.">
<polygon fill="white" stroke="#666666" points="478.75,-95.25 406.5,-95.25 406.5,-76 478.75,-76 478.75,-95.25"/>
<text text-anchor="middle" x="442.62" y="-81.75" font-family="Times,serif" font-size="10.00">mal_math::adj</text>
</a>
</g>
</g>
<!-- Node1&#45;&gt;Node2 -->
<g id="edge1_Node000001_Node000002" class="edge">
<title>Node1&#45;&gt;Node2</title>
<g id="a_edge1_Node000001_Node000002"><a xlink:title=" ">
<path fill="none" stroke="#63b8ff" d="M524.56,-60.95C508.74,-65.77 491.15,-71.14 476.42,-75.63"/>
<polygon fill="#63b8ff" stroke="#63b8ff" points="525.19,-64.41 533.73,-58.15 523.15,-57.72 525.19,-64.41"/>
</a>
</g>
</g>
<!-- Node4 -->
<g id="Node000004" class="node">
<title>Node4</title>
<g id="a_Node000004"><a xlink:href="../../d1/d1d/namespacemal__math.html#a9839c7f488349def9a85e418a6f96710" target="_top" xlink:title="Calculates the inverse of a square matrix.">
<polygon fill="white" stroke="#666666" points="224,-76.25 135.25,-76.25 135.25,-57 224,-57 224,-76.25"/>
<text text-anchor="middle" x="179.62" y="-62.75" font-family="Times,serif" font-size="10.00">mal_math::inverse</text>
</a>
</g>
</g>
<!-- Node1&#45;&gt;Node4 -->
<g id="edge7_Node000001_Node000004" class="edge">
<title>Node1&#45;&gt;Node4</title>
<g id="a_edge7_Node000001_Node000004"><a xlink:title=" ">
<path fill="none" stroke="#63b8ff" d="M521.42,-49.92C445.77,-53.63 297.75,-60.88 224.22,-64.49"/>
<polygon fill="#63b8ff" stroke="#63b8ff" points="521.15,-53.44 530.97,-49.45 520.81,-46.45 521.15,-53.44"/>
</a>
</g>
</g>
<!-- Node7 -->
<g id="Node000007" class="node">
<title>Node7</title>
<g id="a_Node000007"><a xlink:href="../../d1/d1d/namespacemal__math.html#a7e5dee672cb37af1145dae5cc4f7d6f2" target="_top" xlink:title="Calculates the determinant of a square matrix.">
<polygon fill="white" stroke="#666666" points="496.75,-19.25 388.5,-19.25 388.5,0 496.75,0 496.75,-19.25"/>
<text text-anchor="middle" x="442.62" y="-5.75" font-family="Times,serif" font-size="10.00">mal_math::determinant</text>
</a>
</g>
</g>
<!-- Node1&#45;&gt;Node7 -->
<g id="edge6_Node000001_Node000007" class="edge">
<title>Node1&#45;&gt;Node7</title>
<g id="a_edge6_Node000001_Node000007"><a xlink:title=" ">
<path fill="none" stroke="#63b8ff" d="M524.56,-34.3C508.74,-29.48 491.15,-24.11 476.42,-19.62"/>
<polygon fill="#63b8ff" stroke="#63b8ff" points="523.15,-37.53 533.73,-37.1 525.19,-30.84 523.15,-37.53"/>
</a>
</g>
</g>
<!-- Node3 -->
<g id="Node000003" class="node">
<title>Node3</title>
<g id="a_Node000003"><a xlink:href="../../d1/d1d/namespacemal__math.html#ad2fb7080daf9beb776f0cb7b8628ee49" target="_top" xlink:title="Alias for the adj() function to compute the adjugate of a matrix.">
<polygon fill="white" stroke="#666666" points="352.5,-95.25 260,-95.25 260,-76 352.5,-76 352.5,-95.25"/>
<text text-anchor="middle" x="306.25" y="-81.75" font-family="Times,serif" font-size="10.00">mal_math::adjugate</text>
</a>
</g>
</g>
<!-- Node2&#45;&gt;Node3 -->
<g id="edge2_Node000002_Node000003" class="edge">
<title>Node2&#45;&gt;Node3</title>
<g id="a_edge2_Node000002_Node000003"><a xlink:title=" ">
<path fill="none" stroke="#63b8ff" d="M395.19,-85.62C381.52,-85.62 366.57,-85.62 352.95,-85.62"/>
<polygon fill="#63b8ff" stroke="#63b8ff" points="394.81,-89.13 404.81,-85.63 394.81,-82.13 394.81,-89.13"/>
</a>
</g>
</g>
<!-- Node3&#45;&gt;Node4 -->
<g id="edge3_Node000003_Node000004" class="edge">
<title>Node3&#45;&gt;Node4</title>
<g id="a_edge3_Node000003_Node000004"><a xlink:title=" ">
<path fill="none" stroke="#63b8ff" d="M248.28,-76.94C240.2,-75.71 232.01,-74.46 224.24,-73.27"/>
<polygon fill="#63b8ff" stroke="#63b8ff" points="247.64,-80.38 258.06,-78.43 248.7,-73.46 247.64,-80.38"/>
</a>
</g>
</g>
<!-- Node5 -->
<g id="Node000005" class="node">
<title>Node5</title>
<g id="a_Node000005"><a xlink:href="../../d1/d1d/namespacemal__math.html#a30b82cf993680d0ed1395d185375b4b4" target="_top" xlink:title="Cross product between vector and quaternion.">
<polygon fill="white" stroke="#666666" points="89.88,-95.25 9.38,-95.25 9.38,-76 89.88,-76 89.88,-95.25"/>
<text text-anchor="middle" x="49.62" y="-81.75" font-family="Times,serif" font-size="10.00">mal_math::cross</text>
</a>
</g>
</g>
<!-- Node4&#45;&gt;Node5 -->
<g id="edge4_Node000004_Node000005" class="edge">
<title>Node4&#45;&gt;Node5</title>
<g id="a_edge4_Node000004_Node000005"><a xlink:title=" ">
<path fill="none" stroke="#63b8ff" d="M123.83,-74.76C112.55,-76.43 100.87,-78.17 90.25,-79.74"/>
<polygon fill="#63b8ff" stroke="#63b8ff" points="124.06,-78.26 133.44,-73.33 123.03,-71.34 124.06,-78.26"/>
</a>
</g>
</g>
<!-- Node6 -->
<g id="Node000006" class="node">
<title>Node6</title>
<g id="a_Node000006"><a xlink:href="../../d1/d1d/namespacemal__math.html#a4c84e1ef3c67bb12e006214e1f72e505" target="_top" xlink:title="Vector&#45;Quaternion multiplication.">
<polygon fill="white" stroke="#666666" points="99.25,-58.25 0,-58.25 0,-39 99.25,-39 99.25,-58.25"/>
<text text-anchor="middle" x="49.62" y="-44.75" font-family="Times,serif" font-size="10.00">mal_math::operator*</text>
</a>
</g>
</g>
<!-- Node4&#45;&gt;Node6 -->
<g id="edge5_Node000004_Node000006" class="edge">
<title>Node4&#45;&gt;Node6</title>
<g id="a_edge5_Node000004_Node000006"><a xlink:title=" ">
<path fill="none" stroke="#63b8ff" d="M123.69,-58.9C115.61,-57.76 107.34,-56.6 99.39,-55.48"/>
<polygon fill="#63b8ff" stroke="#63b8ff" points="123.04,-62.34 133.43,-60.27 124.02,-55.41 123.04,-62.34"/>
</a>
</g>
</g>
</g>
</svg>

<g id="navigator" transform="translate(0 0)" fill="#404254">
  <rect fill="#f2f5e9" fill-opacity="0.5" stroke="#606060" stroke-width=".5" x="0" y="0" width="60" height="60"/>
  <use id="zoomplus" xlink:href="#zoomPlus" x="17" y="9" onmousedown="handleZoom(evt,'in')"/>
  <use id="zoomminus" xlink:href="#zoomMin" x="42" y="9" onmousedown="handleZoom(evt,'out')"/>
  <use id="reset" xlink:href="#resetDef" x="30" y="36" onmousedown="handleReset()"/>
   <use id="arrowup" xlink:href="#arrowUp" x="0" y="0" onmousedown="handlePan(0,-1)"/>
  <use id="arrowright" xlink:href="#arrowRight" x="0" y="0" onmousedown="handlePan(1,0)"/>
  <use id="arrowdown" xlink:href="#arrowDown" x="0" y="0" onmousedown="handlePan(0,1)"/>
  <use id="arrowleft" xlink:href="#arrowLeft" x="0" y="0" onmousedown="handlePan(-1,0)"/>
</g>
<svg viewBox="0 0 15 15" width="100%" height="30px" preserveAspectRatio="xMaxYMin meet">
 <g id="arrow_out" transform="scale(0.3 0.3)">
  <a xlink:href="namespacemal__math_a245dd949a6bfab7e377c6dab6ebf6280_icgraph_org.svg" target="_base">
   <rect id="button" ry="5" rx="5" y="6" x="6" height="38" width="38"
        fill="#f2f5e9" fill-opacity="0.5" stroke="#606060" stroke-width="1.0"/>
   <path id="arrow"
     d="M 11.500037,31.436501 C 11.940474,20.09759 22.043105,11.32322 32.158766,21.979434 L 37.068811,17.246167 C 37.068811,17.246167 37.088388,32 37.088388,32 L 22.160133,31.978069 C 22.160133,31.978069 26.997745,27.140456 26.997745,27.140456 C 18.528582,18.264221 13.291696,25.230495 11.500037,31.436501 z"
     style="fill:#404040;"/>
  </a>
 </g>
</svg>

<style type='text/css'>
<![CDATA[
[data-mouse-over-selected='false'] { opacity: 0.7; }
[data-mouse-over-selected='true']  { opacity: 1.0; }
]]>
</style>
<script type="application/ecmascript"><![CDATA[
document.addEventListener('DOMContentLoaded', (event) => {
  highlightEdges();
  highlightAdjacentNodes();
});
]]></script>
</svg>
