<?xml version="1.0" encoding="UTF-8" standalone="no"?>
<!DOCTYPE svg PUBLIC "-//W3C//DTD SVG 1.1//EN"
 "http://www.w3.org/Graphics/SVG/1.1/DTD/svg11.dtd">
<!-- Generated by graphviz version 9.0.0 (20230911.1827)
 -->
<!-- Title: mal_math::det Pages: 1 -->
<svg width="614pt" height="103pt"
 viewBox="0.00 0.00 613.75 103.25" xmlns="http://www.w3.org/2000/svg" xmlns:xlink="http://www.w3.org/1999/xlink">
<g id="graph0" class="graph" transform="scale(1 1) rotate(0) translate(4 99.25)">
<title>mal_math::det</title>
<!-- Node1 -->
<g id="Node000001" class="node">
<title>Node1</title>
<g id="a_Node000001"><a xlink:title="Calculates the determinant of a square matrix.">
<polygon fill="#999999" stroke="#666666" points="605.75,-57.25 532.75,-57.25 532.75,-38 605.75,-38 605.75,-57.25"/>
<text text-anchor="middle" x="569.25" y="-43.75" font-family="Times,serif" font-size="10.00">mal_math::det</text>
</a>
</g>
</g>
<!-- Node2 -->
<g id="Node000002" class="node">
<title>Node2</title>
<g id="a_Node000002"><a xlink:href="../../d1/d1d/namespacemal__math.html#a6b9483d460a882f9c49428abb7d7ed21" target="_top" xlink:title="Computes the adjoint (or adjugate) of a square matrix.">
<polygon fill="white" stroke="#666666" points="478.75,-95.25 406.5,-95.25 406.5,-76 478.75,-76 478.75,-95.25"/>
<text text-anchor="middle" x="442.62" y="-81.75" font-family="Times,serif" font-size="10.00">mal_math::adj</text>
</a>
</g>
</g>
<!-- Node1&#45;&gt;Node2 -->
<g id="edge1_Node000001_Node000002" class="edge">
<title>Node1&#45;&gt;Node2</title>
<g id="a_edge1_Node000001_Node000002"><a xlink:title=" ">
<path fill="none" stroke="#63b8ff" d="M524.56,-60.95C508.74,-65.77 491.15,-71.14 476.42,-75.63"/>
<polygon fill="#63b8ff" stroke="#63b8ff" points="525.19,-64.41 533.73,-58.15 523.15,-57.72 525.19,-64.41"/>
</a>
</g>
</g>
<!-- Node4 -->
<g id="Node000004" class="node">
<title>Node4</title>
<g id="a_Node000004"><a xlink:href="../../d1/d1d/namespacemal__math.html#a9839c7f488349def9a85e418a6f96710" target="_top" xlink:title="Calculates the inverse of a square matrix.">
<polygon fill="white" stroke="#666666" points="224,-76.25 135.25,-76.25 135.25,-57 224,-57 224,-76.25"/>
<text text-anchor="middle" x="179.62" y="-62.75" font-family="Times,serif" font-size="10.00">mal_math::inverse</text>
</a>
</g>
</g>
<!-- Node1&#45;&gt;Node4 -->
<g id="edge7_Node000001_Node000004" class="edge">
<title>Node1&#45;&gt;Node4</title>
<g id="a_edge7_Node000001_Node000004"><a xlink:title=" ">
<path fill="none" stroke="#63b8ff" d="M521.42,-49.92C445.77,-53.63 297.75,-60.88 224.22,-64.49"/>
<polygon fill="#63b8ff" stroke="#63b8ff" points="521.15,-53.44 530.97,-49.45 520.81,-46.45 521.15,-53.44"/>
</a>
</g>
</g>
<!-- Node7 -->
<g id="Node000007" class="node">
<title>Node7</title>
<g id="a_Node000007"><a xlink:href="../../d1/d1d/namespacemal__math.html#a7e5dee672cb37af1145dae5cc4f7d6f2" target="_top" xlink:title="Calculates the determinant of a square matrix.">
<polygon fill="white" stroke="#666666" points="496.75,-19.25 388.5,-19.25 388.5,0 496.75,0 496.75,-19.25"/>
<text text-anchor="middle" x="442.62" y="-5.75" font-family="Times,serif" font-size="10.00">mal_math::determinant</text>
</a>
</g>
</g>
<!-- Node1&#45;&gt;Node7 -->
<g id="edge6_Node000001_Node000007" class="edge">
<title>Node1&#45;&gt;Node7</title>
<g id="a_edge6_Node000001_Node000007"><a xlink:title=" ">
<path fill="none" stroke="#63b8ff" d="M524.56,-34.3C508.74,-29.48 491.15,-24.11 476.42,-19.62"/>
<polygon fill="#63b8ff" stroke="#63b8ff" points="523.15,-37.53 533.73,-37.1 525.19,-30.84 523.15,-37.53"/>
</a>
</g>
</g>
<!-- Node3 -->
<g id="Node000003" class="node">
<title>Node3</title>
<g id="a_Node000003"><a xlink:href="../../d1/d1d/namespacemal__math.html#ad2fb7080daf9beb776f0cb7b8628ee49" target="_top" xlink:title="Alias for the adj() function to compute the adjugate of a matrix.">
<polygon fill="white" stroke="#666666" points="352.5,-95.25 260,-95.25 260,-76 352.5,-76 352.5,-95.25"/>
<text text-anchor="middle" x="306.25" y="-81.75" font-family="Times,serif" font-size="10.00">mal_math::adjugate</text>
</a>
</g>
</g>
<!-- Node2&#45;&gt;Node3 -->
<g id="edge2_Node000002_Node000003" class="edge">
<title>Node2&#45;&gt;Node3</title>
<g id="a_edge2_Node000002_Node000003"><a xlink:title=" ">
<path fill="none" stroke="#63b8ff" d="M395.19,-85.62C381.52,-85.62 366.57,-85.62 352.95,-85.62"/>
<polygon fill="#63b8ff" stroke="#63b8ff" points="394.81,-89.13 404.81,-85.63 394.81,-82.13 394.81,-89.13"/>
</a>
</g>
</g>
<!-- Node3&#45;&gt;Node4 -->
<g id="edge3_Node000003_Node000004" class="edge">
<title>Node3&#45;&gt;Node4</title>
<g id="a_edge3_Node000003_Node000004"><a xlink:title=" ">
<path fill="none" stroke="#63b8ff" d="M248.28,-76.94C240.2,-75.71 232.01,-74.46 224.24,-73.27"/>
<polygon fill="#63b8ff" stroke="#63b8ff" points="247.64,-80.38 258.06,-78.43 248.7,-73.46 247.64,-80.38"/>
</a>
</g>
</g>
<!-- Node5 -->
<g id="Node000005" class="node">
<title>Node5</title>
<g id="a_Node000005"><a xlink:href="../../d1/d1d/namespacemal__math.html#a30b82cf993680d0ed1395d185375b4b4" target="_top" xlink:title="Cross product between vector and quaternion.">
<polygon fill="white" stroke="#666666" points="89.88,-95.25 9.38,-95.25 9.38,-76 89.88,-76 89.88,-95.25"/>
<text text-anchor="middle" x="49.62" y="-81.75" font-family="Times,serif" font-size="10.00">mal_math::cross</text>
</a>
</g>
</g>
<!-- Node4&#45;&gt;Node5 -->
<g id="edge4_Node000004_Node000005" class="edge">
<title>Node4&#45;&gt;Node5</title>
<g id="a_edge4_Node000004_Node000005"><a xlink:title=" ">
<path fill="none" stroke="#63b8ff" d="M123.83,-74.76C112.55,-76.43 100.87,-78.17 90.25,-79.74"/>
<polygon fill="#63b8ff" stroke="#63b8ff" points="124.06,-78.26 133.44,-73.33 123.03,-71.34 124.06,-78.26"/>
</a>
</g>
</g>
<!-- Node6 -->
<g id="Node000006" class="node">
<title>Node6</title>
<g id="a_Node000006"><a xlink:href="../../d1/d1d/namespacemal__math.html#a4c84e1ef3c67bb12e006214e1f72e505" target="_top" xlink:title="Vector&#45;Quaternion multiplication.">
<polygon fill="white" stroke="#666666" points="99.25,-58.25 0,-58.25 0,-39 99.25,-39 99.25,-58.25"/>
<text text-anchor="middle" x="49.62" y="-44.75" font-family="Times,serif" font-size="10.00">mal_math::operator*</text>
</a>
</g>
</g>
<!-- Node4&#45;&gt;Node6 -->
<g id="edge5_Node000004_Node000006" class="edge">
<title>Node4&#45;&gt;Node6</title>
<g id="a_edge5_Node000004_Node000006"><a xlink:title=" ">
<path fill="none" stroke="#63b8ff" d="M123.69,-58.9C115.61,-57.76 107.34,-56.6 99.39,-55.48"/>
<polygon fill="#63b8ff" stroke="#63b8ff" points="123.04,-62.34 133.43,-60.27 124.02,-55.41 123.04,-62.34"/>
</a>
</g>
</g>
</g>
</svg>
