<?xml version="1.0" encoding="UTF-8" standalone="no"?>
<!DOCTYPE svg PUBLIC "-//W3C//DTD SVG 1.1//EN"
 "http://www.w3.org/Graphics/SVG/1.1/DTD/svg11.dtd">
<!-- Generated by graphviz version 9.0.0 (20230911.1827)
 -->
<!-- Title: mal_math::QuaternionFromEuler Pages: 1 -->
<svg width="643pt" height="150pt"
 viewBox="0.00 0.00 643.00 150.25" xmlns="http://www.w3.org/2000/svg" xmlns:xlink="http://www.w3.org/1999/xlink">
<g id="graph0" class="graph" transform="scale(1 1) rotate(0) translate(4 146.25)">
<title>mal_math::QuaternionFromEuler</title>
<!-- Node1 -->
<g id="Node000001" class="node">
<title>Node1</title>
<g id="a_Node000001"><a xlink:title="Creates a quaternion from individual Euler angles.">
<polygon fill="#999999" stroke="#666666" points="127,-82.88 0,-82.88 0,-52.38 127,-52.38 127,-82.88"/>
<text text-anchor="start" x="8" y="-69.38" font-family="Times,serif" font-size="10.00">mal_math::QuaternionFrom</text>
<text text-anchor="middle" x="63.5" y="-58.12" font-family="Times,serif" font-size="10.00">Euler</text>
</a>
</g>
</g>
<!-- Node2 -->
<g id="Node000002" class="node">
<title>Node2</title>
<g id="a_Node000002"><a xlink:href="../../d1/d1d/namespacemal__math.html#aeb9028c5cc109ccc9cab84ec4432429d" target="_top" xlink:title="Computes the pitch from a quaternion.">
<polygon fill="white" stroke="#666666" points="266.75,-142.25 186.25,-142.25 186.25,-123 266.75,-123 266.75,-142.25"/>
<text text-anchor="middle" x="226.5" y="-128.75" font-family="Times,serif" font-size="10.00">mal_math::pitch</text>
</a>
</g>
</g>
<!-- Node1&#45;&gt;Node2 -->
<g id="edge1_Node000001_Node000002" class="edge">
<title>Node1&#45;&gt;Node2</title>
<g id="a_edge1_Node000001_Node000002"><a xlink:title=" ">
<path fill="none" stroke="#63b8ff" d="M95.07,-83.27C114.28,-92.76 139.74,-104.71 163,-113.62 167.97,-115.53 173.21,-117.37 178.47,-119.12"/>
<polygon fill="#63b8ff" stroke="#63b8ff" points="177.15,-122.37 187.74,-122.07 179.28,-115.7 177.15,-122.37"/>
</a>
</g>
</g>
<!-- Node3 -->
<g id="Node000003" class="node">
<title>Node3</title>
<g id="a_Node000003"><a xlink:href="../../d1/d1d/namespacemal__math.html#ad3f11e8c21758e34e6d24558f177ddc9" target="_top" xlink:title="Creates a quaternion from Euler angles given in a vector.">
<polygon fill="white" stroke="#666666" points="290,-104.88 163,-104.88 163,-74.38 290,-74.38 290,-104.88"/>
<text text-anchor="start" x="171" y="-91.38" font-family="Times,serif" font-size="10.00">mal_math::QuaternionFrom</text>
<text text-anchor="middle" x="226.5" y="-80.12" font-family="Times,serif" font-size="10.00">Euler</text>
</a>
</g>
</g>
<!-- Node1&#45;&gt;Node3 -->
<g id="edge2_Node000001_Node000003" class="edge">
<title>Node1&#45;&gt;Node3</title>
<g id="a_edge2_Node000001_Node000003"><a xlink:title=" ">
<path fill="none" stroke="#63b8ff" d="M127.21,-76.19C135.13,-77.28 143.29,-78.39 151.37,-79.5"/>
<polygon fill="#63b8ff" stroke="#63b8ff" points="150.82,-82.95 161.2,-80.84 151.76,-76.02 150.82,-82.95"/>
</a>
</g>
</g>
<!-- Node6 -->
<g id="Node000006" class="node">
<title>Node6</title>
<g id="a_Node000006"><a xlink:href="../../d1/d1d/namespacemal__math.html#a7b56ddaf7701b0ee7ac3e13ce63e8aa8" target="_top" xlink:title="Computes the roll from a quaternion.">
<polygon fill="white" stroke="#666666" points="262.62,-56.25 190.38,-56.25 190.38,-37 262.62,-37 262.62,-56.25"/>
<text text-anchor="middle" x="226.5" y="-42.75" font-family="Times,serif" font-size="10.00">mal_math::roll</text>
</a>
</g>
</g>
<!-- Node1&#45;&gt;Node6 -->
<g id="edge5_Node000001_Node000006" class="edge">
<title>Node1&#45;&gt;Node6</title>
<g id="a_edge5_Node000001_Node000006"><a xlink:title=" ">
<path fill="none" stroke="#63b8ff" d="M127.21,-59.45C144.4,-57.2 162.74,-54.81 178.85,-52.71"/>
<polygon fill="#63b8ff" stroke="#63b8ff" points="179.19,-56.2 188.65,-51.43 178.28,-49.25 179.19,-56.2"/>
</a>
</g>
</g>
<!-- Node7 -->
<g id="Node000007" class="node">
<title>Node7</title>
<g id="a_Node000007"><a xlink:href="../../d1/d1d/namespacemal__math.html#a7b0f322eff757ae4fe380a81a6c42c63" target="_top" xlink:title="Computes the yaw from a quaternion.">
<polygon fill="white" stroke="#666666" points="264.12,-19.25 188.88,-19.25 188.88,0 264.12,0 264.12,-19.25"/>
<text text-anchor="middle" x="226.5" y="-5.75" font-family="Times,serif" font-size="10.00">mal_math::yaw</text>
</a>
</g>
</g>
<!-- Node1&#45;&gt;Node7 -->
<g id="edge6_Node000001_Node000007" class="edge">
<title>Node1&#45;&gt;Node7</title>
<g id="a_edge6_Node000001_Node000007"><a xlink:title=" ">
<path fill="none" stroke="#63b8ff" d="M100.64,-51.88C119.12,-44.11 142.07,-34.87 163,-27.62 167.75,-25.98 172.74,-24.37 177.74,-22.82"/>
<polygon fill="#63b8ff" stroke="#63b8ff" points="178.59,-26.21 187.16,-19.99 176.58,-19.51 178.59,-26.21"/>
</a>
</g>
</g>
<!-- Node4 -->
<g id="Node000004" class="node">
<title>Node4</title>
<g id="a_Node000004"><a xlink:href="../../d1/d1d/namespacemal__math.html#a16d6c0540a171f065334b7fe17a0dd72" target="_top" xlink:title=" ">
<polygon fill="white" stroke="#666666" points="405,-117.25 331.25,-117.25 331.25,-98 405,-98 405,-117.25"/>
<text text-anchor="middle" x="368.12" y="-103.75" font-family="Times,serif" font-size="10.00">mal_math::cos</text>
</a>
</g>
</g>
<!-- Node3&#45;&gt;Node4 -->
<g id="edge3_Node000003_Node000004" class="edge">
<title>Node3&#45;&gt;Node4</title>
<g id="a_edge3_Node000003_Node000004"><a xlink:title=" ">
<path fill="none" stroke="#63b8ff" d="M290.37,-97.73C300.25,-99 310.32,-100.3 319.77,-101.52"/>
<polygon fill="#63b8ff" stroke="#63b8ff" points="319.07,-104.96 329.44,-102.77 319.97,-98.02 319.07,-104.96"/>
</a>
</g>
</g>
<!-- Node5 -->
<g id="Node000005" class="node">
<title>Node5</title>
<g id="a_Node000005"><a xlink:href="../../d1/d1d/namespacemal__math.html#a21797e88329a52f7abd899312ce7b726" target="_top" xlink:title=" ">
<polygon fill="white" stroke="#666666" points="404.25,-80.25 332,-80.25 332,-61 404.25,-61 404.25,-80.25"/>
<text text-anchor="middle" x="368.12" y="-66.75" font-family="Times,serif" font-size="10.00">mal_math::sin</text>
</a>
</g>
</g>
<!-- Node3&#45;&gt;Node5 -->
<g id="edge4_Node000003_Node000005" class="edge">
<title>Node3&#45;&gt;Node5</title>
<g id="a_edge4_Node000003_Node000005"><a xlink:title=" ">
<path fill="none" stroke="#63b8ff" d="M290.37,-81.07C300.45,-79.7 310.74,-78.3 320.36,-76.99"/>
<polygon fill="#63b8ff" stroke="#63b8ff" points="320.78,-80.46 330.21,-75.65 319.83,-73.53 320.78,-80.46"/>
</a>
</g>
</g>
<!-- Node8 -->
<g id="Node000008" class="node">
<title>Node8</title>
<g id="a_Node000008"><a xlink:href="../../d1/d1d/namespacemal__math.html#a4d2f468cb836cd1462730c9f8c7e450a" target="_top" xlink:title="Function to clamp a value between a minimum and maximum.">
<polygon fill="white" stroke="#666666" points="410.25,-19.25 326,-19.25 326,0 410.25,0 410.25,-19.25"/>
<text text-anchor="middle" x="368.12" y="-5.75" font-family="Times,serif" font-size="10.00">mal_math::clamp</text>
</a>
</g>
</g>
<!-- Node7&#45;&gt;Node8 -->
<g id="edge7_Node000007_Node000008" class="edge">
<title>Node7&#45;&gt;Node8</title>
<g id="a_edge7_Node000007_Node000008"><a xlink:title=" ">
<path fill="none" stroke="#63b8ff" d="M264.55,-9.62C279.91,-9.62 298.01,-9.62 314.69,-9.62"/>
<polygon fill="#63b8ff" stroke="#63b8ff" points="314.45,-13.13 324.45,-9.63 314.45,-6.13 314.45,-13.13"/>
</a>
</g>
</g>
<!-- Node9 -->
<g id="Node000009" class="node">
<title>Node9</title>
<g id="a_Node000009"><a xlink:href="../../d1/d1d/namespacemal__math.html#a1772c0a8c3a9672ecf7b372fb536e492" target="_top" xlink:title="Returns a new vector with each element being the maximum of the corresponding element in left and min...">
<polygon fill="white" stroke="#666666" points="523,-19.25 446.25,-19.25 446.25,0 523,0 523,-19.25"/>
<text text-anchor="middle" x="484.62" y="-5.75" font-family="Times,serif" font-size="10.00">mal_math::max</text>
</a>
</g>
</g>
<!-- Node8&#45;&gt;Node9 -->
<g id="edge8_Node000008_Node000009" class="edge">
<title>Node8&#45;&gt;Node9</title>
<g id="a_edge8_Node000008_Node000009"><a xlink:title=" ">
<path fill="none" stroke="#63b8ff" d="M410.46,-9.62C418.21,-9.62 426.38,-9.62 434.34,-9.62"/>
<polygon fill="#63b8ff" stroke="#63b8ff" points="434.26,-13.13 444.26,-9.63 434.26,-6.13 434.26,-13.13"/>
</a>
</g>
</g>
<!-- Node10 -->
<g id="Node000010" class="node">
<title>Node10</title>
<g id="a_Node000010"><a xlink:href="../../d1/d1d/namespacemal__math.html#aef6065b4c161e80e15f71159af8119ce" target="_top" xlink:title="Returns a new vector with each element being the minimum of the corresponding element in left and max...">
<polygon fill="white" stroke="#666666" points="635,-19.25 559,-19.25 559,0 635,0 635,-19.25"/>
<text text-anchor="middle" x="597" y="-5.75" font-family="Times,serif" font-size="10.00">mal_math::min</text>
</a>
</g>
</g>
<!-- Node9&#45;&gt;Node10 -->
<g id="edge9_Node000009_Node000010" class="edge">
<title>Node9&#45;&gt;Node10</title>
<g id="a_edge9_Node000009_Node000010"><a xlink:title=" ">
<path fill="none" stroke="#63b8ff" d="M523.3,-3.19C531.11,-2.9 539.44,-2.81 547.58,-2.92"/>
<polygon fill="#63b8ff" stroke="#63b8ff" points="547.27,-6.41 557.35,-3.17 547.45,0.58 547.27,-6.41"/>
</a>
</g>
</g>
<!-- Node10&#45;&gt;Node9 -->
<g id="edge10_Node000010_Node000009" class="edge">
<title>Node10&#45;&gt;Node9</title>
<g id="a_edge10_Node000010_Node000009"><a xlink:title=" ">
<path fill="none" stroke="#63b8ff" d="M558.87,-16.04C551.08,-16.34 542.76,-16.44 534.62,-16.34"/>
<polygon fill="#63b8ff" stroke="#63b8ff" points="534.9,-12.84 524.81,-16.1 534.73,-19.84 534.9,-12.84"/>
</a>
</g>
</g>
</g>
</svg>
