<?xml version="1.0" encoding="UTF-8" standalone="no"?>
<!DOCTYPE svg PUBLIC "-//W3C//DTD SVG 1.1//EN"
 "http://www.w3.org/Graphics/SVG/1.1/DTD/svg11.dtd">
<!-- Generated by graphviz version 9.0.0 (20230911.1827)
 -->
<!-- Title: mal_math::cross Pages: 1 -->
<!--zoomable 101 -->

<svg id="main" version="1.1" xmlns="http://www.w3.org/2000/svg" xmlns:xlink="http://www.w3.org/1999/xlink" xml:space="preserve" onload="init(evt)">
<style type="text/css"><![CDATA[
.node, .edge {opacity: 0.7;}
.node.selected, .edge.selected {opacity: 1;}
.edge:hover path { stroke: red; }
.edge:hover polygon { stroke: red; fill: red; }
]]></style>

<defs>
  <circle id="rim" cx="0" cy="0" r="7"/>
  <circle id="rim2" cx="0" cy="0" r="3.5"/>
  <g id="zoomPlus">
    <use xlink:href="#rim" fill="#404040"><set attributeName="fill" to="#808080" begin="zoomplus.mouseover" end="zoomplus.mouseout"/></use>
    <path d="M-4,0h8M0,-4v8" fill="none" stroke="white" stroke-width="1.5" pointer-events="none"/>
  </g>
  <g id="zoomMin">
    <use xlink:href="#rim" fill="#404040"><set attributeName="fill" to="#808080" begin="zoomminus.mouseover" end="zoomminus.mouseout"/></use>
    <path d="M-4,0h8" fill="none" stroke="white" stroke-width="1.5" pointer-events="none"/>
  </g>
  <g id="arrowUp" transform="translate(30 24)">
    <use xlink:href="#rim"/>
    <path pointer-events="none" fill="none" stroke="white" stroke-width="1.5" d="M0,-3.0v7 M-2.5,-0.5L0,-3.0L2.5,-0.5"/>
  </g>
  <g id="arrowRight" transform="rotate(90) translate(36 -43)">
    <use xlink:href="#rim"/>
    <path pointer-events="none" fill="none" stroke="white" stroke-width="1.5" d="M0,-3.0v7 M-2.5,-0.5L0,-3.0L2.5,-0.5"/>
  </g>
  <g id="arrowDown" transform="rotate(180) translate(-30 -48)">
    <use xlink:href="#rim"/>
    <path pointer-events="none" fill="none" stroke="white" stroke-width="1.5" d="M0,-3.0v7 M-2.5,-0.5L0,-3.0L2.5,-0.5"/>
  </g>
  <g id="arrowLeft" transform="rotate(270) translate(-36 17)">
    <use xlink:href="#rim"/>
    <path pointer-events="none" fill="none" stroke="white" stroke-width="1.5" d="M0,-3.0v7 M-2.5,-0.5L0,-3.0L2.5,-0.5"/>
  </g>
  <g id="resetDef">
    <use xlink:href="#rim2" fill="#404040"><set attributeName="fill" to="#808080" begin="reset.mouseover" end="reset.mouseout"/></use>
  </g>
</defs>
<script type="application/ecmascript">
var viewWidth = 679;
var viewHeight = 101;
var sectionId = 'dynsection-38';
</script>
<script type="application/ecmascript" xlink:href="../../svg.min.js"/>
<svg id="graph" class="graph">
<g id="viewport">
<title>mal_math::cross</title>
<!-- Node1 -->
<g id="Node000001" class="node">
<title>Node1</title>
<g id="a_Node000001"><a xlink:title="Cross product between vector and quaternion.">
<polygon fill="#999999" stroke="#666666" points="80.5,-56.25 0,-56.25 0,-37 80.5,-37 80.5,-56.25"/>
<text text-anchor="middle" x="40.25" y="-42.75" font-family="Times,serif" font-size="10.00">mal_math::cross</text>
</a>
</g>
</g>
<!-- Node2 -->
<g id="Node000002" class="node">
<title>Node2</title>
<g id="a_Node000002"><a xlink:href="../../d1/d1d/namespacemal__math.html#a9839c7f488349def9a85e418a6f96710" target="_top" xlink:title="Calculates the inverse of a square matrix.">
<polygon fill="white" stroke="#666666" points="205.25,-56.25 116.5,-56.25 116.5,-37 205.25,-37 205.25,-56.25"/>
<text text-anchor="middle" x="160.88" y="-42.75" font-family="Times,serif" font-size="10.00">mal_math::inverse</text>
</a>
</g>
</g>
<!-- Node1&#45;&gt;Node2 -->
<g id="edge1_Node000001_Node000002" class="edge">
<title>Node1&#45;&gt;Node2</title>
<g id="a_edge1_Node000001_Node000002"><a xlink:title=" ">
<path fill="none" stroke="#63b8ff" d="M80.75,-46.62C88.45,-46.62 96.65,-46.62 104.74,-46.62"/>
<polygon fill="#63b8ff" stroke="#63b8ff" points="104.54,-50.13 114.54,-46.63 104.54,-43.13 104.54,-50.13"/>
</a>
</g>
</g>
<!-- Node3 -->
<g id="Node000003" class="node">
<title>Node3</title>
<g id="a_Node000003"><a xlink:href="../../d1/d1d/namespacemal__math.html#ad2fb7080daf9beb776f0cb7b8628ee49" target="_top" xlink:title="Alias for the adj() function to compute the adjugate of a matrix.">
<polygon fill="white" stroke="#666666" points="333.75,-75.25 241.25,-75.25 241.25,-56 333.75,-56 333.75,-75.25"/>
<text text-anchor="middle" x="287.5" y="-61.75" font-family="Times,serif" font-size="10.00">mal_math::adjugate</text>
</a>
</g>
</g>
<!-- Node2&#45;&gt;Node3 -->
<g id="edge2_Node000002_Node000003" class="edge">
<title>Node2&#45;&gt;Node3</title>
<g id="a_edge2_Node000002_Node000003"><a xlink:title=" ">
<path fill="none" stroke="#63b8ff" d="M205.46,-53.27C213.29,-54.46 221.55,-55.72 229.68,-56.96"/>
<polygon fill="#63b8ff" stroke="#63b8ff" points="229.12,-60.42 239.54,-58.47 230.18,-53.5 229.12,-60.42"/>
</a>
</g>
</g>
<!-- Node5 -->
<g id="Node000005" class="node">
<title>Node5</title>
<g id="a_Node000005"><a xlink:href="../../d1/d1d/namespacemal__math.html#a245dd949a6bfab7e377c6dab6ebf6280" target="_top" xlink:title="Calculates the determinant of a square matrix.">
<polygon fill="white" stroke="#666666" points="551,-56.25 478,-56.25 478,-37 551,-37 551,-56.25"/>
<text text-anchor="middle" x="514.5" y="-42.75" font-family="Times,serif" font-size="10.00">mal_math::det</text>
</a>
</g>
</g>
<!-- Node2&#45;&gt;Node5 -->
<g id="edge8_Node000002_Node000005" class="edge">
<title>Node2&#45;&gt;Node5</title>
<g id="a_edge8_Node000002_Node000005"><a xlink:title=" ">
<path fill="none" stroke="#63b8ff" d="M205.7,-46.62C272.18,-46.62 397.99,-46.62 466.38,-46.62"/>
<polygon fill="#63b8ff" stroke="#63b8ff" points="466.13,-50.13 476.13,-46.63 466.13,-43.13 466.13,-50.13"/>
</a>
</g>
</g>
<!-- Node4 -->
<g id="Node000004" class="node">
<title>Node4</title>
<g id="a_Node000004"><a xlink:href="../../d1/d1d/namespacemal__math.html#a6b9483d460a882f9c49428abb7d7ed21" target="_top" xlink:title="Computes the adjoint (or adjugate) of a square matrix.">
<polygon fill="white" stroke="#666666" points="442,-75.25 369.75,-75.25 369.75,-56 442,-56 442,-75.25"/>
<text text-anchor="middle" x="405.88" y="-61.75" font-family="Times,serif" font-size="10.00">mal_math::adj</text>
</a>
</g>
</g>
<!-- Node3&#45;&gt;Node4 -->
<g id="edge3_Node000003_Node000004" class="edge">
<title>Node3&#45;&gt;Node4</title>
<g id="a_edge3_Node000003_Node000004"><a xlink:title=" ">
<path fill="none" stroke="#63b8ff" d="M334.16,-65.62C342.03,-65.62 350.23,-65.62 358.13,-65.62"/>
<polygon fill="#63b8ff" stroke="#63b8ff" points="357.91,-69.13 367.91,-65.63 357.91,-62.13 357.91,-69.13"/>
</a>
</g>
</g>
<!-- Node4&#45;&gt;Node5 -->
<g id="edge4_Node000004_Node000005" class="edge">
<title>Node4&#45;&gt;Node5</title>
<g id="a_edge4_Node000004_Node000005"><a xlink:title=" ">
<path fill="none" stroke="#63b8ff" d="M442.38,-59.3C450.12,-57.92 458.43,-56.44 466.54,-54.99"/>
<polygon fill="#63b8ff" stroke="#63b8ff" points="467.07,-58.45 476.3,-53.25 465.84,-51.56 467.07,-58.45"/>
</a>
</g>
</g>
<!-- Node6 -->
<g id="Node000006" class="node">
<title>Node6</title>
<g id="a_Node000006"><a xlink:href="../../d1/d1d/namespacemal__math.html#a4ca4a22c985a535c67c1821c42193f59" target="_top" xlink:title=" ">
<polygon fill="white" stroke="#666666" points="670.5,-93.25 587,-93.25 587,-74 670.5,-74 670.5,-93.25"/>
<text text-anchor="middle" x="628.75" y="-79.75" font-family="Times,serif" font-size="10.00">mal_math::det_2</text>
</a>
</g>
</g>
<!-- Node5&#45;&gt;Node6 -->
<g id="edge5_Node000005_Node000006" class="edge">
<title>Node5&#45;&gt;Node6</title>
<g id="a_edge5_Node000005_Node000006"><a xlink:title=" ">
<path fill="none" stroke="#63b8ff" d="M546.17,-56.74C558.55,-60.81 573.01,-65.58 586.3,-69.96"/>
<polygon fill="#63b8ff" stroke="#63b8ff" points="585.08,-73.25 595.68,-73.05 587.28,-66.6 585.08,-73.25"/>
</a>
</g>
</g>
<!-- Node7 -->
<g id="Node000007" class="node">
<title>Node7</title>
<g id="a_Node000007"><a xlink:href="../../d1/d1d/namespacemal__math.html#a684065c9e18fa3625d06a8762bff8dd1" target="_top" xlink:title=" ">
<polygon fill="white" stroke="#666666" points="670.5,-56.25 587,-56.25 587,-37 670.5,-37 670.5,-56.25"/>
<text text-anchor="middle" x="628.75" y="-42.75" font-family="Times,serif" font-size="10.00">mal_math::det_3</text>
</a>
</g>
</g>
<!-- Node5&#45;&gt;Node7 -->
<g id="edge6_Node000005_Node000007" class="edge">
<title>Node5&#45;&gt;Node7</title>
<g id="a_edge6_Node000005_Node000007"><a xlink:title=" ">
<path fill="none" stroke="#63b8ff" d="M551.33,-46.62C559,-46.62 567.26,-46.62 575.41,-46.62"/>
<polygon fill="#63b8ff" stroke="#63b8ff" points="575.28,-50.13 585.28,-46.63 575.28,-43.13 575.28,-50.13"/>
</a>
</g>
</g>
<!-- Node8 -->
<g id="Node000008" class="node">
<title>Node8</title>
<g id="a_Node000008"><a xlink:href="../../d1/d1d/namespacemal__math.html#a7205ab27aa1028ece0e9ad92fa2ac8e3" target="_top" xlink:title=" ">
<polygon fill="white" stroke="#666666" points="670.5,-19.25 587,-19.25 587,0 670.5,0 670.5,-19.25"/>
<text text-anchor="middle" x="628.75" y="-5.75" font-family="Times,serif" font-size="10.00">mal_math::det_4</text>
</a>
</g>
</g>
<!-- Node5&#45;&gt;Node8 -->
<g id="edge7_Node000005_Node000008" class="edge">
<title>Node5&#45;&gt;Node8</title>
<g id="a_edge7_Node000005_Node000008"><a xlink:title=" ">
<path fill="none" stroke="#63b8ff" d="M546.17,-36.51C558.55,-32.44 573.01,-27.67 586.3,-23.29"/>
<polygon fill="#63b8ff" stroke="#63b8ff" points="587.28,-26.65 595.68,-20.2 585.08,-20 587.28,-26.65"/>
</a>
</g>
</g>
</g>
</svg>

<g id="navigator" transform="translate(0 0)" fill="#404254">
  <rect fill="#f2f5e9" fill-opacity="0.5" stroke="#606060" stroke-width=".5" x="0" y="0" width="60" height="60"/>
  <use id="zoomplus" xlink:href="#zoomPlus" x="17" y="9" onmousedown="handleZoom(evt,'in')"/>
  <use id="zoomminus" xlink:href="#zoomMin" x="42" y="9" onmousedown="handleZoom(evt,'out')"/>
  <use id="reset" xlink:href="#resetDef" x="30" y="36" onmousedown="handleReset()"/>
   <use id="arrowup" xlink:href="#arrowUp" x="0" y="0" onmousedown="handlePan(0,-1)"/>
  <use id="arrowright" xlink:href="#arrowRight" x="0" y="0" onmousedown="handlePan(1,0)"/>
  <use id="arrowdown" xlink:href="#arrowDown" x="0" y="0" onmousedown="handlePan(0,1)"/>
  <use id="arrowleft" xlink:href="#arrowLeft" x="0" y="0" onmousedown="handlePan(-1,0)"/>
</g>
<svg viewBox="0 0 15 15" width="100%" height="30px" preserveAspectRatio="xMaxYMin meet">
 <g id="arrow_out" transform="scale(0.3 0.3)">
  <a xlink:href="namespacemal__math_a30b82cf993680d0ed1395d185375b4b4_cgraph_org.svg" target="_base">
   <rect id="button" ry="5" rx="5" y="6" x="6" height="38" width="38"
        fill="#f2f5e9" fill-opacity="0.5" stroke="#606060" stroke-width="1.0"/>
   <path id="arrow"
     d="M 11.500037,31.436501 C 11.940474,20.09759 22.043105,11.32322 32.158766,21.979434 L 37.068811,17.246167 C 37.068811,17.246167 37.088388,32 37.088388,32 L 22.160133,31.978069 C 22.160133,31.978069 26.997745,27.140456 26.997745,27.140456 C 18.528582,18.264221 13.291696,25.230495 11.500037,31.436501 z"
     style="fill:#404040;"/>
  </a>
 </g>
</svg>

<style type='text/css'>
<![CDATA[
[data-mouse-over-selected='false'] { opacity: 0.7; }
[data-mouse-over-selected='true']  { opacity: 1.0; }
]]>
</style>
<script type="application/ecmascript"><![CDATA[
document.addEventListener('DOMContentLoaded', (event) => {
  highlightEdges();
  highlightAdjacentNodes();
});
]]></script>
</svg>
