<?xml version="1.0" encoding="UTF-8" standalone="no"?>
<!DOCTYPE svg PUBLIC "-//W3C//DTD SVG 1.1//EN"
 "http://www.w3.org/Graphics/SVG/1.1/DTD/svg11.dtd">
<!-- Generated by graphviz version 9.0.0 (20230911.1827)
 -->
<!-- Title: mal_math::max Pages: 1 -->
<svg width="503pt" height="320pt"
 viewBox="0.00 0.00 502.50 320.25" xmlns="http://www.w3.org/2000/svg" xmlns:xlink="http://www.w3.org/1999/xlink">
<g id="graph0" class="graph" transform="scale(1 1) rotate(0) translate(4 316.25)">
<title>mal_math::max</title>
<!-- Node1 -->
<g id="Node000001" class="node">
<title>Node1</title>
<g id="a_Node000001"><a xlink:title="Returns a new vector with each element being the maximum of the corresponding element in left and min...">
<polygon fill="#999999" stroke="#666666" points="494.5,-170.25 417.75,-170.25 417.75,-151 494.5,-151 494.5,-170.25"/>
<text text-anchor="middle" x="456.12" y="-156.75" font-family="Times,serif" font-size="10.00">mal_math::max</text>
</a>
</g>
</g>
<!-- Node2 -->
<g id="Node000002" class="node">
<title>Node2</title>
<g id="a_Node000002"><a xlink:href="../../d1/d1d/namespacemal__math.html#a2cc744886db3eb1957bc8ab02c4f07ba" target="_top" xlink:title="Clamp the value of left between min and max.">
<polygon fill="white" stroke="#666666" points="260,-278.25 175.75,-278.25 175.75,-259 260,-259 260,-278.25"/>
<text text-anchor="middle" x="217.88" y="-264.75" font-family="Times,serif" font-size="10.00">mal_math::clamp</text>
</a>
</g>
</g>
<!-- Node1&#45;&gt;Node2 -->
<g id="edge1_Node000001_Node000002" class="edge">
<title>Node1&#45;&gt;Node2</title>
<g id="a_edge1_Node000001_Node000002"><a xlink:title=" ">
<path fill="none" stroke="#63b8ff" d="M433.26,-177.27C419.1,-187.52 399.97,-200.41 381.75,-209.62 339.61,-230.93 287.9,-248.3 254.21,-258.54"/>
<polygon fill="#63b8ff" stroke="#63b8ff" points="435.01,-180.32 440.98,-171.57 430.85,-174.69 435.01,-180.32"/>
</a>
</g>
</g>
<!-- Node3 -->
<g id="Node000003" class="node">
<title>Node3</title>
<g id="a_Node000003"><a xlink:href="../../d1/d1d/namespacemal__math.html#a155cd682c1a04cbf38d755c37ffe4b80" target="_top" xlink:title="Clamp the value of left between min and max.">
<polygon fill="white" stroke="#666666" points="260,-241.25 175.75,-241.25 175.75,-222 260,-222 260,-241.25"/>
<text text-anchor="middle" x="217.88" y="-227.75" font-family="Times,serif" font-size="10.00">mal_math::clamp</text>
</a>
</g>
</g>
<!-- Node1&#45;&gt;Node3 -->
<g id="edge2_Node000001_Node000003" class="edge">
<title>Node1&#45;&gt;Node3</title>
<g id="a_edge2_Node000001_Node000003"><a xlink:title=" ">
<path fill="none" stroke="#63b8ff" d="M410.68,-173.98C364.68,-187.81 293.85,-209.09 252.36,-221.56"/>
<polygon fill="#63b8ff" stroke="#63b8ff" points="411.51,-177.39 420.08,-171.16 409.49,-170.68 411.51,-177.39"/>
</a>
</g>
</g>
<!-- Node4 -->
<g id="Node000004" class="node">
<title>Node4</title>
<g id="a_Node000004"><a xlink:href="../../d1/d1d/namespacemal__math.html#a62078768f0d05a97bc7bfc7dba63ba1d" target="_top" xlink:title="Clamp the value of left between min and max.">
<polygon fill="white" stroke="#666666" points="260,-130.25 175.75,-130.25 175.75,-111 260,-111 260,-130.25"/>
<text text-anchor="middle" x="217.88" y="-116.75" font-family="Times,serif" font-size="10.00">mal_math::clamp</text>
</a>
</g>
</g>
<!-- Node1&#45;&gt;Node4 -->
<g id="edge3_Node000001_Node000004" class="edge">
<title>Node1&#45;&gt;Node4</title>
<g id="a_edge3_Node000001_Node000004"><a xlink:title=" ">
<path fill="none" stroke="#63b8ff" d="M408.83,-147.7C399.89,-145.47 390.56,-143.33 381.75,-141.62 340.74,-133.7 293.33,-127.97 260.27,-124.52"/>
<polygon fill="#63b8ff" stroke="#63b8ff" points="407.85,-151.06 418.41,-150.17 409.6,-144.28 407.85,-151.06"/>
</a>
</g>
</g>
<!-- Node5 -->
<g id="Node000005" class="node">
<title>Node5</title>
<g id="a_Node000005"><a xlink:href="../../d1/d1d/namespacemal__math.html#a4d2f468cb836cd1462730c9f8c7e450a" target="_top" xlink:title="Function to clamp a value between a minimum and maximum.">
<polygon fill="white" stroke="#666666" points="381.75,-56.25 297.5,-56.25 297.5,-37 381.75,-37 381.75,-56.25"/>
<text text-anchor="middle" x="339.62" y="-42.75" font-family="Times,serif" font-size="10.00">mal_math::clamp</text>
</a>
</g>
</g>
<!-- Node1&#45;&gt;Node5 -->
<g id="edge4_Node000001_Node000005" class="edge">
<title>Node1&#45;&gt;Node5</title>
<g id="a_edge4_Node000001_Node000005"><a xlink:title=" ">
<path fill="none" stroke="#63b8ff" d="M442.52,-141.38C429.09,-121.9 406.42,-91.73 381.75,-70.62 375.59,-65.36 368.12,-60.61 361.25,-56.75"/>
<polygon fill="#63b8ff" stroke="#63b8ff" points="439.48,-143.13 447.97,-149.47 445.28,-139.22 439.48,-143.13"/>
</a>
</g>
</g>
<!-- Node10 -->
<g id="Node000010" class="node">
<title>Node10</title>
<g id="a_Node000010"><a xlink:href="../../d1/d1d/namespacemal__math.html#aef6065b4c161e80e15f71159af8119ce" target="_top" xlink:title="Returns a new vector with each element being the minimum of the corresponding element in left and max...">
<polygon fill="white" stroke="#666666" points="377.62,-170.25 301.62,-170.25 301.62,-151 377.62,-151 377.62,-170.25"/>
<text text-anchor="middle" x="339.62" y="-156.75" font-family="Times,serif" font-size="10.00">mal_math::min</text>
</a>
</g>
</g>
<!-- Node1&#45;&gt;Node10 -->
<g id="edge9_Node000001_Node000010" class="edge">
<title>Node1&#45;&gt;Node10</title>
<g id="a_edge9_Node000001_Node000010"><a xlink:title=" ">
<path fill="none" stroke="#63b8ff" d="M406.07,-153.94C396.67,-153.79 386.96,-153.9 378,-154.25"/>
<polygon fill="#63b8ff" stroke="#63b8ff" points="405.71,-157.43 415.8,-154.19 405.9,-150.43 405.71,-157.43"/>
</a>
</g>
</g>
<!-- Node11 -->
<g id="Node000011" class="node">
<title>Node11</title>
<g id="a_Node000011"><a xlink:href="../../d1/d1d/namespacemal__math.html#a9df9f049be433c7e1cd8ab01fdef2502" target="_top" xlink:title="Clamp the value of left between min and max in&#45;place.">
<polygon fill="white" stroke="#666666" points="261.5,-93.25 174.25,-93.25 174.25,-74 261.5,-74 261.5,-93.25"/>
<text text-anchor="middle" x="217.88" y="-79.75" font-family="Times,serif" font-size="10.00">mal_math::rclamp</text>
</a>
</g>
</g>
<!-- Node1&#45;&gt;Node11 -->
<g id="edge18_Node000001_Node000011" class="edge">
<title>Node1&#45;&gt;Node11</title>
<g id="a_edge18_Node000001_Node000011"><a xlink:title=" ">
<path fill="none" stroke="#63b8ff" d="M426.54,-145.41C413.19,-138.72 396.93,-131.14 381.75,-125.62 341.96,-111.16 294.99,-99.6 261.74,-92.31"/>
<polygon fill="#63b8ff" stroke="#63b8ff" points="424.71,-148.4 435.2,-149.85 427.9,-142.17 424.71,-148.4"/>
</a>
</g>
</g>
<!-- Node15 -->
<g id="Node000015" class="node">
<title>Node15</title>
<g id="a_Node000015"><a xlink:href="../../d1/d1d/namespacemal__math.html#a4447cd563a68bd32f6497735ee70a3b8" target="_top" xlink:title="Modifies left in&#45;place, setting each element to the minimum of itself and the corresponding element i...">
<polygon fill="white" stroke="#666666" points="379.5,-312.25 299.75,-312.25 299.75,-293 379.5,-293 379.5,-312.25"/>
<text text-anchor="middle" x="339.62" y="-298.75" font-family="Times,serif" font-size="10.00">mal_math::rmin</text>
</a>
</g>
</g>
<!-- Node1&#45;&gt;Node15 -->
<g id="edge19_Node000001_Node000015" class="edge">
<title>Node1&#45;&gt;Node15</title>
<g id="a_edge19_Node000001_Node000015"><a xlink:title=" ">
<path fill="none" stroke="#63b8ff" d="M445.32,-180.85C432.89,-205.07 409.69,-245.96 381.75,-274.62 375,-281.55 366.28,-287.78 358.61,-292.59"/>
<polygon fill="#63b8ff" stroke="#63b8ff" points="448.37,-182.57 449.71,-172.06 442.11,-179.44 448.37,-182.57"/>
</a>
</g>
</g>
<!-- Node16 -->
<g id="Node000016" class="node">
<title>Node16</title>
<g id="a_Node000016"><a xlink:href="../../d1/d1d/namespacemal__math.html#a6471aad090de0ad37483ee8d64562425" target="_top" xlink:title="Modifies left in&#45;place, setting each element to the minimum of itself and max.">
<polygon fill="white" stroke="#666666" points="379.5,-19.25 299.75,-19.25 299.75,0 379.5,0 379.5,-19.25"/>
<text text-anchor="middle" x="339.62" y="-5.75" font-family="Times,serif" font-size="10.00">mal_math::rmin</text>
</a>
</g>
</g>
<!-- Node1&#45;&gt;Node16 -->
<g id="edge21_Node000001_Node000016" class="edge">
<title>Node1&#45;&gt;Node16</title>
<g id="a_edge21_Node000001_Node000016"><a xlink:title=" ">
<path fill="none" stroke="#63b8ff" d="M448.43,-139.74C438.26,-110.99 416.35,-59.2 381.75,-27.62 378.3,-24.47 374.2,-21.81 369.96,-19.58"/>
<polygon fill="#63b8ff" stroke="#63b8ff" points="445.08,-140.74 451.59,-149.09 451.71,-138.49 445.08,-140.74"/>
</a>
</g>
</g>
<!-- Node6 -->
<g id="Node000006" class="node">
<title>Node6</title>
<g id="a_Node000006"><a xlink:href="../../d1/d1d/namespacemal__math.html#a6c89bca6ee3f863870442353a30e89e2" target="_top" xlink:title="Compute the angle between two vectors.">
<polygon fill="white" stroke="#666666" points="258.5,-19.25 177.25,-19.25 177.25,0 258.5,0 258.5,-19.25"/>
<text text-anchor="middle" x="217.88" y="-5.75" font-family="Times,serif" font-size="10.00">mal_math::angle</text>
</a>
</g>
</g>
<!-- Node5&#45;&gt;Node6 -->
<g id="edge5_Node000005_Node000006" class="edge">
<title>Node5&#45;&gt;Node6</title>
<g id="a_edge5_Node000005_Node000006"><a xlink:title=" ">
<path fill="none" stroke="#63b8ff" d="M295.21,-33.21C280.81,-28.76 265.02,-23.88 251.56,-19.72"/>
<polygon fill="#63b8ff" stroke="#63b8ff" points="293.87,-36.46 304.46,-36.07 295.94,-29.77 293.87,-36.46"/>
</a>
</g>
</g>
<!-- Node7 -->
<g id="Node000007" class="node">
<title>Node7</title>
<g id="a_Node000007"><a xlink:href="../../d1/d1d/namespacemal__math.html#a7b0f322eff757ae4fe380a81a6c42c63" target="_top" xlink:title="Computes the yaw from a quaternion.">
<polygon fill="white" stroke="#666666" points="255.5,-56.25 180.25,-56.25 180.25,-37 255.5,-37 255.5,-56.25"/>
<text text-anchor="middle" x="217.88" y="-42.75" font-family="Times,serif" font-size="10.00">mal_math::yaw</text>
</a>
</g>
</g>
<!-- Node5&#45;&gt;Node7 -->
<g id="edge6_Node000005_Node000007" class="edge">
<title>Node5&#45;&gt;Node7</title>
<g id="a_edge6_Node000005_Node000007"><a xlink:title=" ">
<path fill="none" stroke="#63b8ff" d="M285.87,-46.62C275.78,-46.62 265.41,-46.62 255.95,-46.62"/>
<polygon fill="#63b8ff" stroke="#63b8ff" points="285.56,-50.13 295.56,-46.63 285.56,-43.13 285.56,-50.13"/>
</a>
</g>
</g>
<!-- Node8 -->
<g id="Node000008" class="node">
<title>Node8</title>
<g id="a_Node000008"><a xlink:href="../../d1/d1d/namespacemal__math.html#a58cd6b68785c108f943056ae8f463d4c" target="_top" xlink:title="Creates a quaternion from individual Euler angles.">
<polygon fill="white" stroke="#666666" points="132.62,-39.88 5.62,-39.88 5.62,-9.37 132.62,-9.37 132.62,-39.88"/>
<text text-anchor="start" x="13.62" y="-26.38" font-family="Times,serif" font-size="10.00">mal_math::QuaternionFrom</text>
<text text-anchor="middle" x="69.12" y="-15.12" font-family="Times,serif" font-size="10.00">Euler</text>
</a>
</g>
</g>
<!-- Node7&#45;&gt;Node8 -->
<g id="edge7_Node000007_Node000008" class="edge">
<title>Node7&#45;&gt;Node8</title>
<g id="a_edge7_Node000007_Node000008"><a xlink:title=" ">
<path fill="none" stroke="#63b8ff" d="M168.73,-39.41C157.26,-37.69 144.86,-35.83 132.84,-34.03"/>
<polygon fill="#63b8ff" stroke="#63b8ff" points="167.94,-42.83 178.35,-40.85 168.98,-35.91 167.94,-42.83"/>
</a>
</g>
</g>
<!-- Node9 -->
<g id="Node000009" class="node">
<title>Node9</title>
<g id="a_Node000009"><a xlink:href="../../d1/d1d/namespacemal__math.html#a66974d61c29bbf4008522006be6d7ac9" target="_top" xlink:title="Converts a quaternion to Euler angles.">
<polygon fill="white" stroke="#666666" points="138.25,-77.25 0,-77.25 0,-58 138.25,-58 138.25,-77.25"/>
<text text-anchor="middle" x="69.12" y="-63.75" font-family="Times,serif" font-size="10.00">mal_math::QuaternionToEuler</text>
</a>
</g>
</g>
<!-- Node7&#45;&gt;Node9 -->
<g id="edge8_Node000007_Node000009" class="edge">
<title>Node7&#45;&gt;Node9</title>
<g id="a_edge8_Node000007_Node000009"><a xlink:title=" ">
<path fill="none" stroke="#63b8ff" d="M168.52,-53.54C158.93,-54.92 148.7,-56.38 138.59,-57.83"/>
<polygon fill="#63b8ff" stroke="#63b8ff" points="168.94,-57.02 178.35,-52.14 167.95,-50.09 168.94,-57.02"/>
</a>
</g>
</g>
<!-- Node10&#45;&gt;Node1 -->
<g id="edge13_Node000010_Node000001" class="edge">
<title>Node10&#45;&gt;Node1</title>
<g id="a_edge13_Node000010_Node000001"><a xlink:title=" ">
<path fill="none" stroke="#63b8ff" d="M389.23,-167.31C398.62,-167.46 408.33,-167.36 417.32,-167.02"/>
<polygon fill="#63b8ff" stroke="#63b8ff" points="389.61,-163.82 379.52,-167.04 389.42,-170.81 389.61,-163.82"/>
</a>
</g>
</g>
<!-- Node10&#45;&gt;Node2 -->
<g id="edge10_Node000010_Node000002" class="edge">
<title>Node10&#45;&gt;Node2</title>
<g id="a_edge10_Node000010_Node000002"><a xlink:title=" ">
<path fill="none" stroke="#63b8ff" d="M326.12,-179.92C312.34,-199.9 288.53,-230.88 261.5,-250.62 257.35,-253.66 252.61,-256.3 247.83,-258.56"/>
<polygon fill="#63b8ff" stroke="#63b8ff" points="328.86,-182.11 331.53,-171.86 323.05,-178.21 328.86,-182.11"/>
</a>
</g>
</g>
<!-- Node10&#45;&gt;Node3 -->
<g id="edge11_Node000010_Node000003" class="edge">
<title>Node10&#45;&gt;Node3</title>
<g id="a_edge11_Node000010_Node000003"><a xlink:title=" ">
<path fill="none" stroke="#63b8ff" d="M316.78,-177.41C301.74,-188.51 281.02,-202.94 261.5,-213.62 256.29,-216.48 250.52,-219.19 244.97,-221.6"/>
<polygon fill="#63b8ff" stroke="#63b8ff" points="318.66,-180.37 324.56,-171.57 314.46,-174.77 318.66,-180.37"/>
</a>
</g>
</g>
<!-- Node10&#45;&gt;Node4 -->
<g id="edge12_Node000010_Node000004" class="edge">
<title>Node10&#45;&gt;Node4</title>
<g id="a_edge12_Node000010_Node000004"><a xlink:title=" ">
<path fill="none" stroke="#63b8ff" d="M297.75,-146.97C281.79,-141.64 263.83,-135.64 249.08,-130.72"/>
<polygon fill="#63b8ff" stroke="#63b8ff" points="296.38,-150.2 306.97,-150.05 298.6,-143.56 296.38,-150.2"/>
</a>
</g>
</g>
<!-- Node10&#45;&gt;Node11 -->
<g id="edge14_Node000010_Node000011" class="edge">
<title>Node10&#45;&gt;Node11</title>
<g id="a_edge14_Node000010_Node000011"><a xlink:title=" ">
<path fill="none" stroke="#63b8ff" d="M319.08,-143.44C304.05,-130.79 282.38,-113.76 261.5,-101.62 256.5,-98.72 250.94,-96.02 245.53,-93.65"/>
<polygon fill="#63b8ff" stroke="#63b8ff" points="316.49,-145.83 326.36,-149.68 321.05,-140.51 316.49,-145.83"/>
</a>
</g>
</g>
<!-- Node12 -->
<g id="Node000012" class="node">
<title>Node12</title>
<g id="a_Node000012"><a xlink:href="../../d1/d1d/namespacemal__math.html#aaf8395dd0451e6ad4acc08131d8ef023" target="_top" xlink:title="Modifies left in&#45;place, setting each element to the maximum of itself and the corresponding element i...">
<polygon fill="white" stroke="#666666" points="258.12,-204.25 177.62,-204.25 177.62,-185 258.12,-185 258.12,-204.25"/>
<text text-anchor="middle" x="217.88" y="-190.75" font-family="Times,serif" font-size="10.00">mal_math::rmax</text>
</a>
</g>
</g>
<!-- Node10&#45;&gt;Node12 -->
<g id="edge15_Node000010_Node000012" class="edge">
<title>Node10&#45;&gt;Node12</title>
<g id="a_edge15_Node000010_Node000012"><a xlink:title=" ">
<path fill="none" stroke="#63b8ff" d="M292.19,-173.81C279.54,-177.4 266.05,-181.23 254.14,-184.61"/>
<polygon fill="#63b8ff" stroke="#63b8ff" points="292.9,-177.25 301.56,-171.15 290.99,-170.51 292.9,-177.25"/>
</a>
</g>
</g>
<!-- Node14 -->
<g id="Node000014" class="node">
<title>Node14</title>
<g id="a_Node000014"><a xlink:href="../../d1/d1d/namespacemal__math.html#ac321a786300a672c0a5b07a551d47680" target="_top" xlink:title="Modifies left in&#45;place, setting each element to the maximum of itself and min.">
<polygon fill="white" stroke="#666666" points="258.12,-167.25 177.62,-167.25 177.62,-148 258.12,-148 258.12,-167.25"/>
<text text-anchor="middle" x="217.88" y="-153.75" font-family="Times,serif" font-size="10.00">mal_math::rmax</text>
</a>
</g>
</g>
<!-- Node10&#45;&gt;Node14 -->
<g id="edge17_Node000010_Node000014" class="edge">
<title>Node10&#45;&gt;Node14</title>
<g id="a_edge17_Node000010_Node000014"><a xlink:title=" ">
<path fill="none" stroke="#63b8ff" d="M289.9,-159.4C279.49,-159.14 268.6,-158.87 258.58,-158.62"/>
<polygon fill="#63b8ff" stroke="#63b8ff" points="289.79,-162.9 299.88,-159.65 289.97,-155.9 289.79,-162.9"/>
</a>
</g>
</g>
<!-- Node13 -->
<g id="Node000013" class="node">
<title>Node13</title>
<g id="a_Node000013"><a xlink:href="../../d7/d3f/structmal__math_1_1_t_box.html#adcade33b33746b6e1372d82bd6ade3f6" target="_top" xlink:title="Expands the box to include a point.">
<polygon fill="white" stroke="#666666" points="126.25,-260.25 12,-260.25 12,-241 126.25,-241 126.25,-260.25"/>
<text text-anchor="middle" x="69.12" y="-246.75" font-family="Times,serif" font-size="10.00">mal_math::TBox::expand</text>
</a>
</g>
</g>
<!-- Node12&#45;&gt;Node13 -->
<g id="edge16_Node000012_Node000013" class="edge">
<title>Node12&#45;&gt;Node13</title>
<g id="a_edge16_Node000012_Node000013"><a xlink:title=" ">
<path fill="none" stroke="#63b8ff" d="M180.07,-208.67C154.11,-218.58 119.94,-231.62 96.63,-240.51"/>
<polygon fill="#63b8ff" stroke="#63b8ff" points="181.13,-212.01 189.22,-205.18 178.63,-205.47 181.13,-212.01"/>
</a>
</g>
</g>
<!-- Node15&#45;&gt;Node13 -->
<g id="edge20_Node000015_Node000013" class="edge">
<title>Node15&#45;&gt;Node13</title>
<g id="a_edge20_Node000015_Node000013"><a xlink:title=" ">
<path fill="none" stroke="#63b8ff" d="M288.22,-301.29C255.44,-299.62 211.93,-295.9 174.25,-287.62 145.58,-281.33 113.99,-269.34 93.21,-260.72"/>
<polygon fill="#63b8ff" stroke="#63b8ff" points="287.69,-304.77 297.83,-301.73 288,-297.77 287.69,-304.77"/>
</a>
</g>
</g>
</g>
</svg>
