<?xml version="1.0" encoding="UTF-8" standalone="no"?>
<!DOCTYPE svg PUBLIC "-//W3C//DTD SVG 1.1//EN"
 "http://www.w3.org/Graphics/SVG/1.1/DTD/svg11.dtd">
<!-- Generated by graphviz version 9.0.0 (20230911.1827)
 -->
<!-- Title: mal_math::max Pages: 1 -->
<svg width="197pt" height="27pt"
 viewBox="0.00 0.00 196.75 27.25" xmlns="http://www.w3.org/2000/svg" xmlns:xlink="http://www.w3.org/1999/xlink">
<g id="graph0" class="graph" transform="scale(1 1) rotate(0) translate(4 23.25)">
<title>mal_math::max</title>
<!-- Node1 -->
<g id="Node000001" class="node">
<title>Node1</title>
<g id="a_Node000001"><a xlink:title="Returns a new vector with each element being the maximum of the corresponding element in left and min...">
<polygon fill="#999999" stroke="#666666" points="76.75,-19.25 0,-19.25 0,0 76.75,0 76.75,-19.25"/>
<text text-anchor="middle" x="38.38" y="-5.75" font-family="Times,serif" font-size="10.00">mal_math::max</text>
</a>
</g>
</g>
<!-- Node2 -->
<g id="Node000002" class="node">
<title>Node2</title>
<g id="a_Node000002"><a xlink:href="../../d1/d1d/namespacemal__math.html#aef6065b4c161e80e15f71159af8119ce" target="_top" xlink:title="Returns a new vector with each element being the minimum of the corresponding element in left and max...">
<polygon fill="white" stroke="#666666" points="188.75,-19.25 112.75,-19.25 112.75,0 188.75,0 188.75,-19.25"/>
<text text-anchor="middle" x="150.75" y="-5.75" font-family="Times,serif" font-size="10.00">mal_math::min</text>
</a>
</g>
</g>
<!-- Node1&#45;&gt;Node2 -->
<g id="edge1_Node000001_Node000002" class="edge">
<title>Node1&#45;&gt;Node2</title>
<g id="a_edge1_Node000001_Node000002"><a xlink:title=" ">
<path fill="none" stroke="#63b8ff" d="M77.05,-3.19C84.86,-2.9 93.19,-2.81 101.33,-2.92"/>
<polygon fill="#63b8ff" stroke="#63b8ff" points="101.02,-6.41 111.1,-3.17 101.2,0.58 101.02,-6.41"/>
</a>
</g>
</g>
<!-- Node2&#45;&gt;Node1 -->
<g id="edge2_Node000002_Node000001" class="edge">
<title>Node2&#45;&gt;Node1</title>
<g id="a_edge2_Node000002_Node000001"><a xlink:title=" ">
<path fill="none" stroke="#63b8ff" d="M112.62,-16.04C104.83,-16.34 96.51,-16.44 88.37,-16.34"/>
<polygon fill="#63b8ff" stroke="#63b8ff" points="88.65,-12.84 78.56,-16.1 88.48,-19.84 88.65,-12.84"/>
</a>
</g>
</g>
</g>
</svg>
