<?xml version="1.0" encoding="UTF-8" standalone="no"?>
<!DOCTYPE svg PUBLIC "-//W3C//DTD SVG 1.1//EN"
 "http://www.w3.org/Graphics/SVG/1.1/DTD/svg11.dtd">
<!-- Generated by graphviz version 9.0.0 (20230911.1827)
 -->
<!-- Title: mal_math::sqrt Pages: 1 -->
<svg width="698pt" height="409pt"
 viewBox="0.00 0.00 697.75 408.68" xmlns="http://www.w3.org/2000/svg" xmlns:xlink="http://www.w3.org/1999/xlink">
<g id="graph0" class="graph" transform="scale(1 1) rotate(0) translate(4 404.68)">
<title>mal_math::sqrt</title>
<!-- Node1 -->
<g id="Node000001" class="node">
<title>Node1</title>
<g id="a_Node000001"><a xlink:title=" ">
<polygon fill="#999999" stroke="#666666" points="689.75,-111.25 614.5,-111.25 614.5,-92 689.75,-92 689.75,-111.25"/>
<text text-anchor="middle" x="652.12" y="-97.75" font-family="Times,serif" font-size="10.00">mal_math::sqrt</text>
</a>
</g>
</g>
<!-- Node2 -->
<g id="Node000002" class="node">
<title>Node2</title>
<g id="a_Node000002"><a xlink:href="../../d1/d1d/namespacemal__math.html#a536e0e1ac498d427d7d51bce8ed5e50b" target="_top" xlink:title="Computes the angle (or magnitude) of a quaternion.">
<polygon fill="white" stroke="#666666" points="554.12,-130.25 472.88,-130.25 472.88,-111 554.12,-111 554.12,-130.25"/>
<text text-anchor="middle" x="513.5" y="-116.75" font-family="Times,serif" font-size="10.00">mal_math::angle</text>
</a>
</g>
</g>
<!-- Node1&#45;&gt;Node2 -->
<g id="edge1_Node000001_Node000002" class="edge">
<title>Node1&#45;&gt;Node2</title>
<g id="a_edge1_Node000001_Node000002"><a xlink:title=" ">
<path fill="none" stroke="#63b8ff" d="M602.92,-108.33C587.04,-110.54 569.57,-112.97 554.38,-115.08"/>
<polygon fill="#63b8ff" stroke="#63b8ff" points="603.23,-111.82 612.65,-106.98 602.27,-104.89 603.23,-111.82"/>
</a>
</g>
</g>
<!-- Node5 -->
<g id="Node000005" class="node">
<title>Node5</title>
<g id="a_Node000005"><a xlink:href="../../d2/dd8/structmal__math_1_1_sphere.html#acc2e23b368333c7044a94666b488578e" target="_top" xlink:title="Determines the intersection point of a Ray with the Sphere.">
<polygon fill="white" stroke="#666666" points="566.12,-338.25 460.88,-338.25 460.88,-319 566.12,-319 566.12,-338.25"/>
<text text-anchor="middle" x="513.5" y="-324.75" font-family="Times,serif" font-size="10.00">mal_math::Sphere::Hit</text>
</a>
</g>
</g>
<!-- Node1&#45;&gt;Node5 -->
<g id="edge5_Node000001_Node000005" class="edge">
<title>Node1&#45;&gt;Node5</title>
<g id="a_edge5_Node000001_Node000005"><a xlink:title=" ">
<path fill="none" stroke="#63b8ff" d="M640.95,-121.7C627.41,-148.04 602.41,-195.52 578.5,-234.62 559.24,-266.12 533.97,-301.76 521.74,-318.68"/>
<polygon fill="#63b8ff" stroke="#63b8ff" points="644.04,-123.33 645.47,-112.84 637.81,-120.15 644.04,-123.33"/>
</a>
</g>
</g>
<!-- Node7 -->
<g id="Node000007" class="node">
<title>Node7</title>
<g id="a_Node000007"><a xlink:href="../../d1/d1d/namespacemal__math.html#a437a31375b8dadbdae42dd2b22d08185" target="_top" xlink:title="Inverts an orthogonal matrix in&#45;place and stores the result in a destination matrix.">
<polygon fill="white" stroke="#666666" points="578.5,-93.25 448.5,-93.25 448.5,-74 578.5,-74 578.5,-93.25"/>
<text text-anchor="middle" x="513.5" y="-79.75" font-family="Times,serif" font-size="10.00">mal_math::invert_orthogonal</text>
</a>
</g>
</g>
<!-- Node1&#45;&gt;Node7 -->
<g id="edge7_Node000001_Node000007" class="edge">
<title>Node1&#45;&gt;Node7</title>
<g id="a_edge7_Node000001_Node000007"><a xlink:title=" ">
<path fill="none" stroke="#63b8ff" d="M602.76,-95.25C595.02,-94.23 586.91,-93.17 578.88,-92.11"/>
<polygon fill="#63b8ff" stroke="#63b8ff" points="602.28,-98.72 612.65,-96.56 603.19,-91.78 602.28,-98.72"/>
</a>
</g>
</g>
<!-- Node9 -->
<g id="Node000009" class="node">
<title>Node9</title>
<g id="a_Node000009"><a xlink:href="../../d1/d1d/namespacemal__math.html#a39c5199d92cd6fd327cd1719bd148dcc" target="_top" xlink:title="Computes the length (or magnitude) of a quaternion.">
<polygon fill="white" stroke="#666666" points="556,-225.25 471,-225.25 471,-206 556,-206 556,-225.25"/>
<text text-anchor="middle" x="513.5" y="-211.75" font-family="Times,serif" font-size="10.00">mal_math::length</text>
</a>
</g>
</g>
<!-- Node1&#45;&gt;Node9 -->
<g id="edge9_Node000001_Node000009" class="edge">
<title>Node1&#45;&gt;Node9</title>
<g id="a_edge9_Node000001_Node000009"><a xlink:title=" ">
<path fill="none" stroke="#63b8ff" d="M630.45,-118.87C601.46,-143.06 549.68,-186.27 526.4,-205.69"/>
<polygon fill="#63b8ff" stroke="#63b8ff" points="632.4,-121.81 637.84,-112.71 627.92,-116.43 632.4,-121.81"/>
</a>
</g>
</g>
<!-- Node20 -->
<g id="Node000020" class="node">
<title>Node20</title>
<g id="a_Node000020"><a xlink:href="../../d1/d1d/namespacemal__math.html#a7a6006bc3633b22ea823dcb8d893c75a" target="_top" xlink:title="Compute the length (magnitude) of the given vector.">
<polygon fill="white" stroke="#666666" points="556,-56.25 471,-56.25 471,-37 556,-37 556,-56.25"/>
<text text-anchor="middle" x="513.5" y="-42.75" font-family="Times,serif" font-size="10.00">mal_math::length</text>
</a>
</g>
</g>
<!-- Node1&#45;&gt;Node20 -->
<g id="edge25_Node000001_Node000020" class="edge">
<title>Node1&#45;&gt;Node20</title>
<g id="a_edge25_Node000001_Node000020"><a xlink:title=" ">
<path fill="none" stroke="#63b8ff" d="M623.98,-86.18C610.58,-78.98 593.99,-70.68 578.5,-64.62 570.98,-61.68 562.78,-59 554.84,-56.66"/>
<polygon fill="#63b8ff" stroke="#63b8ff" points="622.18,-89.19 632.63,-90.93 625.55,-83.05 622.18,-89.19"/>
</a>
</g>
</g>
<!-- Node21 -->
<g id="Node000021" class="node">
<title>Node21</title>
<g id="a_Node000021"><a xlink:href="../../d1/d1d/namespacemal__math.html#a6907f9ba5fe249c8d066b91675cc89b2" target="_top" xlink:title=" ">
<polygon fill="white" stroke="#666666" points="551.12,-19.25 475.88,-19.25 475.88,0 551.12,0 551.12,-19.25"/>
<text text-anchor="middle" x="513.5" y="-5.75" font-family="Times,serif" font-size="10.00">mal_math::sqrt</text>
</a>
</g>
</g>
<!-- Node1&#45;&gt;Node21 -->
<g id="edge26_Node000001_Node000021" class="edge">
<title>Node1&#45;&gt;Node21</title>
<g id="a_edge26_Node000001_Node000021"><a xlink:title=" ">
<path fill="none" stroke="#63b8ff" d="M637.25,-82.68C623.97,-65.86 602.46,-41.81 578.5,-27.62 570.26,-22.75 560.63,-19.14 551.39,-16.49"/>
<polygon fill="#63b8ff" stroke="#63b8ff" points="634.31,-84.59 643.16,-90.42 639.87,-80.35 634.31,-84.59"/>
</a>
</g>
</g>
<!-- Node3 -->
<g id="Node000003" class="node">
<title>Node3</title>
<g id="a_Node000003"><a xlink:href="../../d1/d1d/namespacemal__math.html#a3e5409e48ad66d42b0f0643bf4591163" target="_top" xlink:title="Rotates a matrix by a given angle around a given axis.">
<polygon fill="white" stroke="#666666" points="224.75,-79.25 141.25,-79.25 141.25,-60 224.75,-60 224.75,-79.25"/>
<text text-anchor="middle" x="183" y="-65.75" font-family="Times,serif" font-size="10.00">mal_math::rotate</text>
</a>
</g>
</g>
<!-- Node2&#45;&gt;Node3 -->
<g id="edge2_Node000002_Node000003" class="edge">
<title>Node2&#45;&gt;Node3</title>
<g id="a_edge2_Node000002_Node000003"><a xlink:title=" ">
<path fill="none" stroke="#63b8ff" d="M461.8,-107.55C457.25,-106.03 452.76,-104.38 448.5,-102.62 431.58,-95.66 430.08,-87.72 412.5,-82.62 348.95,-64.22 271.41,-64.25 224.96,-66.53"/>
<polygon fill="#63b8ff" stroke="#63b8ff" points="460.38,-110.78 470.97,-110.44 462.48,-104.1 460.38,-110.78"/>
</a>
</g>
</g>
<!-- Node3&#45;&gt;Node3 -->
<g id="edge4_Node000003_Node000003" class="edge">
<title>Node3&#45;&gt;Node3</title>
<g id="a_edge4_Node000003_Node000003"><a xlink:title=" ">
<path fill="none" stroke="#63b8ff" d="M208.07,-90.65C204.94,-94.53 196.58,-97.25 183,-97.25 158.17,-97.25 150.8,-88.15 160.89,-79.54"/>
<polygon fill="#63b8ff" stroke="#63b8ff" points="211.46,-89.76 205.5,-81 204.69,-91.56 211.46,-89.76"/>
</a>
</g>
</g>
<!-- Node4 -->
<g id="Node000004" class="node">
<title>Node4</title>
<g id="a_Node000004"><a xlink:href="../../d1/d1d/namespacemal__math.html#ae2ea884f0e0c63166d344b52a7633934" target="_top" xlink:title="Rotates a 4x4 matrix using a quaternion.">
<polygon fill="white" stroke="#666666" points="83.5,-79.25 0,-79.25 0,-60 83.5,-60 83.5,-79.25"/>
<text text-anchor="middle" x="41.75" y="-65.75" font-family="Times,serif" font-size="10.00">mal_math::rotate</text>
</a>
</g>
</g>
<!-- Node3&#45;&gt;Node4 -->
<g id="edge3_Node000003_Node000004" class="edge">
<title>Node3&#45;&gt;Node4</title>
<g id="a_edge3_Node000003_Node000004"><a xlink:title=" ">
<path fill="none" stroke="#63b8ff" d="M129.69,-69.62C114.58,-69.62 98.3,-69.62 83.96,-69.62"/>
<polygon fill="#63b8ff" stroke="#63b8ff" points="129.46,-73.13 139.46,-69.63 129.46,-66.13 129.46,-73.13"/>
</a>
</g>
</g>
<!-- Node6 -->
<g id="Node000006" class="node">
<title>Node6</title>
<g id="a_Node000006"><a xlink:href="../../d2/dd8/structmal__math_1_1_sphere.html#a16d1dfc076a08ee64ff10aff05669da4" target="_top" xlink:title="Determines if a Ray intersects with the Sphere.">
<polygon fill="white" stroke="#666666" points="246.5,-335.25 119.5,-335.25 119.5,-316 246.5,-316 246.5,-335.25"/>
<text text-anchor="middle" x="183" y="-321.75" font-family="Times,serif" font-size="10.00">mal_math::Sphere::Intersect</text>
</a>
</g>
</g>
<!-- Node5&#45;&gt;Node6 -->
<g id="edge6_Node000005_Node000006" class="edge">
<title>Node5&#45;&gt;Node6</title>
<g id="a_edge6_Node000005_Node000006"><a xlink:title=" ">
<path fill="none" stroke="#63b8ff" d="M490.77,-345.47C471.44,-359.31 441.78,-377.87 412.5,-385.62 356.65,-400.42 335.13,-409.45 282.5,-385.62 260.41,-375.62 266.88,-357.77 246.5,-344.62 240.97,-341.06 234.74,-338.14 228.41,-335.74"/>
<polygon fill="#63b8ff" stroke="#63b8ff" points="492.7,-348.39 498.67,-339.64 488.54,-342.76 492.7,-348.39"/>
</a>
</g>
</g>
<!-- Node8 -->
<g id="Node000008" class="node">
<title>Node8</title>
<g id="a_Node000008"><a xlink:href="../../d1/d1d/namespacemal__math.html#a8d2621a310f06dadb356d0ec63100496" target="_top" xlink:title="Returns an inverted orthogonal matrix.">
<polygon fill="white" stroke="#666666" points="412.5,-35.25 282.5,-35.25 282.5,-16 412.5,-16 412.5,-35.25"/>
<text text-anchor="middle" x="347.5" y="-21.75" font-family="Times,serif" font-size="10.00">mal_math::invert_orthogonal</text>
</a>
</g>
</g>
<!-- Node7&#45;&gt;Node8 -->
<g id="edge8_Node000007_Node000008" class="edge">
<title>Node7&#45;&gt;Node8</title>
<g id="a_edge8_Node000007_Node000008"><a xlink:title=" ">
<path fill="none" stroke="#63b8ff" d="M462.34,-70.27C457.63,-68.79 452.96,-67.23 448.5,-65.62 432.03,-59.68 428.7,-56.26 412.5,-49.62 400.75,-44.82 387.64,-39.83 376.36,-35.66"/>
<polygon fill="#63b8ff" stroke="#63b8ff" points="461.26,-73.6 471.85,-73.13 463.28,-66.89 461.26,-73.6"/>
</a>
</g>
</g>
<!-- Node9&#45;&gt;Node6 -->
<g id="edge12_Node000009_Node000006" class="edge">
<title>Node9&#45;&gt;Node6</title>
<g id="a_edge12_Node000009_Node000006"><a xlink:title=" ">
<path fill="none" stroke="#63b8ff" d="M498.78,-234.84C481.52,-257.28 449.61,-293.4 412.5,-309.62 360.03,-332.57 294.29,-334.76 246.81,-332.29"/>
<polygon fill="#63b8ff" stroke="#63b8ff" points="501.58,-236.94 504.74,-226.83 495.97,-232.76 501.58,-236.94"/>
</a>
</g>
</g>
<!-- Node10 -->
<g id="Node000010" class="node">
<title>Node10</title>
<g id="a_Node000010"><a xlink:href="../../d1/d1d/namespacemal__math.html#a70273f9f35b9c5fafb0c4c027a0cc427" target="_top" xlink:title="Compute the distance between two vectors.">
<polygon fill="white" stroke="#666666" points="394.12,-376.25 300.88,-376.25 300.88,-357 394.12,-357 394.12,-376.25"/>
<text text-anchor="middle" x="347.5" y="-362.75" font-family="Times,serif" font-size="10.00">mal_math::distance</text>
</a>
</g>
</g>
<!-- Node9&#45;&gt;Node10 -->
<g id="edge10_Node000009_Node000010" class="edge">
<title>Node9&#45;&gt;Node10</title>
<g id="a_edge10_Node000009_Node000010"><a xlink:title=" ">
<path fill="none" stroke="#63b8ff" d="M501.63,-235.45C485.54,-263.08 452.9,-313.09 412.5,-342.62 404.55,-348.44 395.03,-353 385.79,-356.52"/>
<polygon fill="#63b8ff" stroke="#63b8ff" points="504.5,-237.47 506.39,-227.04 498.41,-234.02 504.5,-237.47"/>
</a>
</g>
</g>
<!-- Node12 -->
<g id="Node000012" class="node">
<title>Node12</title>
<g id="a_Node000012"><a xlink:href="../../d1/d1d/namespacemal__math.html#abe612f1321c4a59501c42f7759feaba4" target="_top" xlink:title="Normalizes a quaternion.">
<polygon fill="white" stroke="#666666" points="397.12,-187.25 297.88,-187.25 297.88,-168 397.12,-168 397.12,-187.25"/>
<text text-anchor="middle" x="347.5" y="-173.75" font-family="Times,serif" font-size="10.00">mal_math::normalize</text>
</a>
</g>
</g>
<!-- Node9&#45;&gt;Node12 -->
<g id="edge13_Node000009_Node000012" class="edge">
<title>Node9&#45;&gt;Node12</title>
<g id="a_edge13_Node000009_Node000012"><a xlink:title=" ">
<path fill="none" stroke="#63b8ff" d="M459.59,-203.37C437.73,-198.3 412.71,-192.5 391.95,-187.69"/>
<polygon fill="#63b8ff" stroke="#63b8ff" points="458.69,-206.75 469.22,-205.6 460.27,-199.93 458.69,-206.75"/>
</a>
</g>
</g>
<!-- Node14 -->
<g id="Node000014" class="node">
<title>Node14</title>
<g id="a_Node000014"><a xlink:href="../../d9/d76/structmal__math_1_1qua.html#a76e9e79edda5b35e32e583dc638ad252" target="_top" xlink:title="Constructs a quaternion from an angle and rotation axis.">
<polygon fill="white" stroke="#666666" points="229.62,-139.25 136.38,-139.25 136.38,-120 229.62,-120 229.62,-139.25"/>
<text text-anchor="middle" x="183" y="-125.75" font-family="Times,serif" font-size="10.00">mal_math::qua::qua</text>
</a>
</g>
</g>
<!-- Node9&#45;&gt;Node14 -->
<g id="edge21_Node000009_Node000014" class="edge">
<title>Node9&#45;&gt;Node14</title>
<g id="a_edge21_Node000009_Node000014"><a xlink:title=" ">
<path fill="none" stroke="#63b8ff" d="M489.84,-199.25C470.33,-186.02 440.91,-168.11 412.5,-158.62 351.43,-138.24 276.8,-132.03 229.82,-130.22"/>
<polygon fill="#63b8ff" stroke="#63b8ff" points="487.63,-201.97 497.84,-204.8 491.62,-196.22 487.63,-201.97"/>
</a>
</g>
</g>
<!-- Node16 -->
<g id="Node000016" class="node">
<title>Node16</title>
<g id="a_Node000016"><a xlink:href="../../de/db9/structmal__math_1_1_plane.html#a568a7d2c844bc73f43611217334106f9" target="_top" xlink:title="Updates the plane&#39;s vectors and normal based on two new vectors.">
<polygon fill="white" stroke="#666666" points="239.75,-273.88 126.25,-273.88 126.25,-243.38 239.75,-243.38 239.75,-273.88"/>
<text text-anchor="start" x="134.25" y="-260.38" font-family="Times,serif" font-size="10.00">mal_math::Plane::update</text>
<text text-anchor="middle" x="183" y="-249.12" font-family="Times,serif" font-size="10.00">_plane</text>
</a>
</g>
</g>
<!-- Node9&#45;&gt;Node16 -->
<g id="edge24_Node000009_Node000016" class="edge">
<title>Node9&#45;&gt;Node16</title>
<g id="a_edge24_Node000009_Node000016"><a xlink:title=" ">
<path fill="none" stroke="#63b8ff" d="M459.33,-217.65C412.53,-220 342.66,-224.87 282.5,-234.62 268.69,-236.86 253.95,-240.03 240.21,-243.32"/>
<polygon fill="#63b8ff" stroke="#63b8ff" points="459.38,-221.16 469.2,-217.18 459.04,-214.16 459.38,-221.16"/>
</a>
</g>
</g>
<!-- Node17 -->
<g id="Node000017" class="node">
<title>Node17</title>
<g id="a_Node000017"><a xlink:href="../../d1/d1d/namespacemal__math.html#a1cc95439dc8db428b1b9f7c1ec9aba5a" target="_top" xlink:title="Normalize the given vector.">
<polygon fill="white" stroke="#666666" points="397.12,-111.25 297.88,-111.25 297.88,-92 397.12,-92 397.12,-111.25"/>
<text text-anchor="middle" x="347.5" y="-97.75" font-family="Times,serif" font-size="10.00">mal_math::normalize</text>
</a>
</g>
</g>
<!-- Node9&#45;&gt;Node17 -->
<g id="edge20_Node000009_Node000017" class="edge">
<title>Node9&#45;&gt;Node17</title>
<g id="a_edge20_Node000009_Node000017"><a xlink:title=" ">
<path fill="none" stroke="#63b8ff" d="M496.28,-197.41C477.71,-177.48 445.57,-145.71 412.5,-125.62 403.27,-120.02 392.52,-115.37 382.49,-111.7"/>
<polygon fill="#63b8ff" stroke="#63b8ff" points="493.46,-199.51 502.79,-204.53 498.62,-194.78 493.46,-199.51"/>
</a>
</g>
</g>
<!-- Node18 -->
<g id="Node000018" class="node">
<title>Node18</title>
<g id="a_Node000018"><a xlink:href="../../d7/d3f/structmal__math_1_1_t_box.html#a3783194457bcf643aeabd8b62bc5592c" target="_top" xlink:title="Returns the radius of a sphere that tightly encloses the box.">
<polygon fill="white" stroke="#666666" points="402.75,-300.25 292.25,-300.25 292.25,-281 402.75,-281 402.75,-300.25"/>
<text text-anchor="middle" x="347.5" y="-286.75" font-family="Times,serif" font-size="10.00">mal_math::TBox::radius</text>
</a>
</g>
</g>
<!-- Node9&#45;&gt;Node18 -->
<g id="edge22_Node000009_Node000018" class="edge">
<title>Node9&#45;&gt;Node18</title>
<g id="a_edge22_Node000009_Node000018"><a xlink:title=" ">
<path fill="none" stroke="#63b8ff" d="M488.08,-231.8C468.34,-244.3 439.5,-261.33 412.5,-272.62 405.37,-275.61 397.58,-278.26 389.98,-280.56"/>
<polygon fill="#63b8ff" stroke="#63b8ff" points="489.72,-234.9 496.24,-226.54 485.93,-229.01 489.72,-234.9"/>
</a>
</g>
</g>
<!-- Node19 -->
<g id="Node000019" class="node">
<title>Node19</title>
<g id="a_Node000019"><a xlink:href="../../d1/d1d/namespacemal__math.html#ac450bfaa356fc4830954be733bcf465b" target="_top" xlink:title="Compute the unit vector (normalized vector) of the given vector.">
<polygon fill="white" stroke="#666666" points="400.5,-263.25 294.5,-263.25 294.5,-244 400.5,-244 400.5,-263.25"/>
<text text-anchor="middle" x="347.5" y="-249.75" font-family="Times,serif" font-size="10.00">mal_math::unit_vector</text>
</a>
</g>
</g>
<!-- Node9&#45;&gt;Node19 -->
<g id="edge23_Node000009_Node000019" class="edge">
<title>Node9&#45;&gt;Node19</title>
<g id="a_edge23_Node000009_Node000019"><a xlink:title=" ">
<path fill="none" stroke="#63b8ff" d="M459.59,-227.88C437.73,-232.95 412.71,-238.75 391.95,-243.56"/>
<polygon fill="#63b8ff" stroke="#63b8ff" points="460.27,-231.32 469.22,-225.65 458.69,-224.5 460.27,-231.32"/>
</a>
</g>
</g>
<!-- Node11 -->
<g id="Node000011" class="node">
<title>Node11</title>
<g id="a_Node000011"><a xlink:href="../../de/d54/namespacemal__math_1_1random_1_1poisson__disc_1_1__detail.html#a5fc2fd014656cd15396002f5cdc8df16" target="_top" xlink:title="Generates a set of points distributed according to Poisson Disk Sampling.">
<polygon fill="white" stroke="#666666" points="245.38,-383.88 120.62,-383.88 120.62,-353.38 245.38,-353.38 245.38,-383.88"/>
<text text-anchor="start" x="128.62" y="-370.38" font-family="Times,serif" font-size="10.00">mal_math::random::poisson</text>
<text text-anchor="middle" x="183" y="-359.12" font-family="Times,serif" font-size="10.00">_disc::_detail::PoissonDisc</text>
</a>
</g>
</g>
<!-- Node10&#45;&gt;Node11 -->
<g id="edge11_Node000010_Node000011" class="edge">
<title>Node10&#45;&gt;Node11</title>
<g id="a_edge11_Node000010_Node000011"><a xlink:title=" ">
<path fill="none" stroke="#63b8ff" d="M289.68,-367.32C275.47,-367.5 260.16,-367.69 245.73,-367.87"/>
<polygon fill="#63b8ff" stroke="#63b8ff" points="289.33,-370.83 299.29,-367.21 289.25,-363.83 289.33,-370.83"/>
</a>
</g>
</g>
<!-- Node12&#45;&gt;Node3 -->
<g id="edge17_Node000012_Node000003" class="edge">
<title>Node12&#45;&gt;Node3</title>
<g id="a_edge17_Node000012_Node000003"><a xlink:title=" ">
<path fill="none" stroke="#63b8ff" d="M322.24,-161.27C302.01,-147.67 272.43,-127.81 246.5,-110.62 230.49,-100.01 212.1,-87.97 199.44,-79.69"/>
<polygon fill="#63b8ff" stroke="#63b8ff" points="320.12,-164.06 330.37,-166.75 324.02,-158.26 320.12,-164.06"/>
</a>
</g>
</g>
<!-- Node12&#45;&gt;Node6 -->
<g id="edge14_Node000012_Node000006" class="edge">
<title>Node12&#45;&gt;Node6</title>
<g id="a_edge14_Node000012_Node000006"><a xlink:title=" ">
<path fill="none" stroke="#63b8ff" d="M325.35,-194.62C312.38,-205.47 295.79,-220.17 282.5,-234.62 264.45,-254.26 265.74,-264.16 246.5,-282.62 232.91,-295.67 215,-307.56 201.84,-315.51"/>
<polygon fill="#63b8ff" stroke="#63b8ff" points="327.38,-197.48 332.87,-188.42 322.93,-192.08 327.38,-197.48"/>
</a>
</g>
</g>
<!-- Node13 -->
<g id="Node000013" class="node">
<title>Node13</title>
<g id="a_Node000013"><a xlink:href="../../d1/d1d/namespacemal__math.html#ae75c0f78e391bc79564c5ddc63a74612" target="_top" xlink:title="Generates a look&#45;at matrix for camera positioning.">
<polygon fill="white" stroke="#666666" points="228.12,-176.25 137.88,-176.25 137.88,-157 228.12,-157 228.12,-176.25"/>
<text text-anchor="middle" x="183" y="-162.75" font-family="Times,serif" font-size="10.00">mal_math::look_at</text>
</a>
</g>
</g>
<!-- Node12&#45;&gt;Node13 -->
<g id="edge15_Node000012_Node000013" class="edge">
<title>Node12&#45;&gt;Node13</title>
<g id="a_edge15_Node000012_Node000013"><a xlink:title=" ">
<path fill="none" stroke="#63b8ff" d="M286.39,-173.56C267.24,-172.26 246.41,-170.85 228.56,-169.64"/>
<polygon fill="#63b8ff" stroke="#63b8ff" points="286.02,-177.04 296.23,-174.22 286.49,-170.05 286.02,-177.04"/>
</a>
</g>
</g>
<!-- Node12&#45;&gt;Node14 -->
<g id="edge16_Node000012_Node000014" class="edge">
<title>Node12&#45;&gt;Node14</title>
<g id="a_edge16_Node000012_Node000014"><a xlink:title=" ">
<path fill="none" stroke="#63b8ff" d="M302.23,-164.23C284.86,-159 264.76,-152.99 246.5,-147.62 237.73,-145.05 228.25,-142.3 219.39,-139.74"/>
<polygon fill="#63b8ff" stroke="#63b8ff" points="301.16,-167.56 311.74,-167.1 303.18,-160.86 301.16,-167.56"/>
</a>
</g>
</g>
<!-- Node15 -->
<g id="Node000015" class="node">
<title>Node15</title>
<g id="a_Node000015"><a xlink:href="../../db/d90/namespacemal__math_1_1random_1_1__detail.html#a8a729c12da52b3aa8764cbd4ebe7252f" target="_top" xlink:title="Generates a unit vector with random direction.">
<polygon fill="white" stroke="#666666" points="232.25,-224.88 133.75,-224.88 133.75,-194.38 232.25,-194.38 232.25,-224.88"/>
<text text-anchor="start" x="141.75" y="-211.38" font-family="Times,serif" font-size="10.00">mal_math::random::</text>
<text text-anchor="middle" x="183" y="-200.12" font-family="Times,serif" font-size="10.00">_detail::UnitRandom</text>
</a>
</g>
</g>
<!-- Node12&#45;&gt;Node15 -->
<g id="edge18_Node000012_Node000015" class="edge">
<title>Node12&#45;&gt;Node15</title>
<g id="a_edge18_Node000012_Node000015"><a xlink:title=" ">
<path fill="none" stroke="#63b8ff" d="M286.63,-189.42C268.88,-192.91 249.67,-196.69 232.72,-200.03"/>
<polygon fill="#63b8ff" stroke="#63b8ff" points="287.12,-192.88 296.26,-187.52 285.77,-186.02 287.12,-192.88"/>
</a>
</g>
</g>
<!-- Node12&#45;&gt;Node16 -->
<g id="edge19_Node000012_Node000016" class="edge">
<title>Node12&#45;&gt;Node16</title>
<g id="a_edge19_Node000012_Node000016"><a xlink:title=" ">
<path fill="none" stroke="#63b8ff" d="M302.03,-191.86C295.29,-194.71 288.57,-197.97 282.5,-201.62 264.17,-212.68 264.71,-222.37 246.5,-233.62 240.93,-237.07 234.81,-240.2 228.64,-242.99"/>
<polygon fill="#63b8ff" stroke="#63b8ff" points="303.1,-195.2 311.13,-188.29 300.54,-188.68 303.1,-195.2"/>
</a>
</g>
</g>
</g>
</svg>
