<?xml version="1.0" encoding="UTF-8" standalone="no"?>
<!DOCTYPE svg PUBLIC "-//W3C//DTD SVG 1.1//EN"
 "http://www.w3.org/Graphics/SVG/1.1/DTD/svg11.dtd">
<!-- Generated by graphviz version 9.0.0 (20230911.1827)
 -->
<!-- Title: mal_math::determinant Pages: 1 -->
<svg width="345pt" height="101pt"
 viewBox="0.00 0.00 344.75 101.25" xmlns="http://www.w3.org/2000/svg" xmlns:xlink="http://www.w3.org/1999/xlink">

<svg id="main" version="1.1" xmlns="http://www.w3.org/2000/svg" xmlns:xlink="http://www.w3.org/1999/xlink" xml:space="preserve" onload="init(evt)">
<style type="text/css"><![CDATA[
.node, .edge {opacity: 0.7;}
.node.selected, .edge.selected {opacity: 1;}
.edge:hover path { stroke: red; }
.edge:hover polygon { stroke: red; fill: red; }
]]></style>
<script type="application/ecmascript" xlink:href="../../svg.min.js"/>
<svg id="graph" class="graph">
<g id="graph0" class="graph" transform="scale(1 1) rotate(0) translate(4 97.25)">
<title>mal_math::determinant</title>
<!-- Node1 -->
<g id="Node000001" class="node">
<title>Node1</title>
<g id="a_Node000001"><a xlink:title="Calculates the determinant of a square matrix.">
<polygon fill="#999999" stroke="#666666" points="108.25,-56.25 0,-56.25 0,-37 108.25,-37 108.25,-56.25"/>
<text text-anchor="middle" x="54.12" y="-42.75" font-family="Times,serif" font-size="10.00">mal_math::determinant</text>
</a>
</g>
</g>
<!-- Node2 -->
<g id="Node000002" class="node">
<title>Node2</title>
<g id="a_Node000002"><a xlink:href="../../d1/d1d/namespacemal__math.html#a245dd949a6bfab7e377c6dab6ebf6280" target="_top" xlink:title="Calculates the determinant of a square matrix.">
<polygon fill="white" stroke="#666666" points="217.25,-56.25 144.25,-56.25 144.25,-37 217.25,-37 217.25,-56.25"/>
<text text-anchor="middle" x="180.75" y="-42.75" font-family="Times,serif" font-size="10.00">mal_math::det</text>
</a>
</g>
</g>
<!-- Node1&#45;&gt;Node2 -->
<g id="edge1_Node000001_Node000002" class="edge">
<title>Node1&#45;&gt;Node2</title>
<g id="a_edge1_Node000001_Node000002"><a xlink:title=" ">
<path fill="none" stroke="#63b8ff" d="M108.7,-46.62C116.59,-46.62 124.66,-46.62 132.41,-46.62"/>
<polygon fill="#63b8ff" stroke="#63b8ff" points="132.34,-50.13 142.34,-46.63 132.34,-43.13 132.34,-50.13"/>
</a>
</g>
</g>
<!-- Node3 -->
<g id="Node000003" class="node">
<title>Node3</title>
<g id="a_Node000003"><a xlink:href="../../d1/d1d/namespacemal__math.html#a4ca4a22c985a535c67c1821c42193f59" target="_top" xlink:title=" ">
<polygon fill="white" stroke="#666666" points="336.75,-93.25 253.25,-93.25 253.25,-74 336.75,-74 336.75,-93.25"/>
<text text-anchor="middle" x="295" y="-79.75" font-family="Times,serif" font-size="10.00">mal_math::det_2</text>
</a>
</g>
</g>
<!-- Node2&#45;&gt;Node3 -->
<g id="edge2_Node000002_Node000003" class="edge">
<title>Node2&#45;&gt;Node3</title>
<g id="a_edge2_Node000002_Node000003"><a xlink:title=" ">
<path fill="none" stroke="#63b8ff" d="M212.42,-56.74C224.8,-60.81 239.26,-65.58 252.55,-69.96"/>
<polygon fill="#63b8ff" stroke="#63b8ff" points="251.33,-73.25 261.93,-73.05 253.53,-66.6 251.33,-73.25"/>
</a>
</g>
</g>
<!-- Node4 -->
<g id="Node000004" class="node">
<title>Node4</title>
<g id="a_Node000004"><a xlink:href="../../d1/d1d/namespacemal__math.html#a684065c9e18fa3625d06a8762bff8dd1" target="_top" xlink:title=" ">
<polygon fill="white" stroke="#666666" points="336.75,-56.25 253.25,-56.25 253.25,-37 336.75,-37 336.75,-56.25"/>
<text text-anchor="middle" x="295" y="-42.75" font-family="Times,serif" font-size="10.00">mal_math::det_3</text>
</a>
</g>
</g>
<!-- Node2&#45;&gt;Node4 -->
<g id="edge3_Node000002_Node000004" class="edge">
<title>Node2&#45;&gt;Node4</title>
<g id="a_edge3_Node000002_Node000004"><a xlink:title=" ">
<path fill="none" stroke="#63b8ff" d="M217.58,-46.62C225.25,-46.62 233.51,-46.62 241.66,-46.62"/>
<polygon fill="#63b8ff" stroke="#63b8ff" points="241.53,-50.13 251.53,-46.63 241.53,-43.13 241.53,-50.13"/>
</a>
</g>
</g>
<!-- Node5 -->
<g id="Node000005" class="node">
<title>Node5</title>
<g id="a_Node000005"><a xlink:href="../../d1/d1d/namespacemal__math.html#a7205ab27aa1028ece0e9ad92fa2ac8e3" target="_top" xlink:title=" ">
<polygon fill="white" stroke="#666666" points="336.75,-19.25 253.25,-19.25 253.25,0 336.75,0 336.75,-19.25"/>
<text text-anchor="middle" x="295" y="-5.75" font-family="Times,serif" font-size="10.00">mal_math::det_4</text>
</a>
</g>
</g>
<!-- Node2&#45;&gt;Node5 -->
<g id="edge4_Node000002_Node000005" class="edge">
<title>Node2&#45;&gt;Node5</title>
<g id="a_edge4_Node000002_Node000005"><a xlink:title=" ">
<path fill="none" stroke="#63b8ff" d="M212.42,-36.51C224.8,-32.44 239.26,-27.67 252.55,-23.29"/>
<polygon fill="#63b8ff" stroke="#63b8ff" points="253.53,-26.65 261.93,-20.2 251.33,-20 253.53,-26.65"/>
</a>
</g>
</g>
</g>
</svg>
</svg>

<style type='text/css'>
<![CDATA[
[data-mouse-over-selected='false'] { opacity: 0.7; }
[data-mouse-over-selected='true']  { opacity: 1.0; }
]]>
</style>
<script type="application/ecmascript"><![CDATA[
document.addEventListener('DOMContentLoaded', (event) => {
  highlightEdges();
  highlightAdjacentNodes();
});
]]></script>
</svg>
