<?xml version="1.0" encoding="UTF-8" standalone="no"?>
<!DOCTYPE svg PUBLIC "-//W3C//DTD SVG 1.1//EN"
 "http://www.w3.org/Graphics/SVG/1.1/DTD/svg11.dtd">
<!-- Generated by graphviz version 9.0.0 (20230911.1827)
 -->
<!-- Title: mal_math::QuaternionToEuler Pages: 1 -->
<svg width="608pt" height="101pt"
 viewBox="0.00 0.00 607.75 101.25" xmlns="http://www.w3.org/2000/svg" xmlns:xlink="http://www.w3.org/1999/xlink">
<g id="graph0" class="graph" transform="scale(1 1) rotate(0) translate(4 97.25)">
<title>mal_math::QuaternionToEuler</title>
<!-- Node1 -->
<g id="Node000001" class="node">
<title>Node1</title>
<g id="a_Node000001"><a xlink:title="Converts a quaternion to Euler angles.">
<polygon fill="#999999" stroke="#666666" points="138.25,-56.25 0,-56.25 0,-37 138.25,-37 138.25,-56.25"/>
<text text-anchor="middle" x="69.12" y="-42.75" font-family="Times,serif" font-size="10.00">mal_math::QuaternionToEuler</text>
</a>
</g>
</g>
<!-- Node2 -->
<g id="Node000002" class="node">
<title>Node2</title>
<g id="a_Node000002"><a xlink:href="../../d1/d1d/namespacemal__math.html#aeb9028c5cc109ccc9cab84ec4432429d" target="_top" xlink:title="Computes the pitch from a quaternion.">
<polygon fill="white" stroke="#666666" points="254.75,-93.25 174.25,-93.25 174.25,-74 254.75,-74 254.75,-93.25"/>
<text text-anchor="middle" x="214.5" y="-79.75" font-family="Times,serif" font-size="10.00">mal_math::pitch</text>
</a>
</g>
</g>
<!-- Node1&#45;&gt;Node2 -->
<g id="edge1_Node000001_Node000002" class="edge">
<title>Node1&#45;&gt;Node2</title>
<g id="a_edge1_Node000001_Node000002"><a xlink:title=" ">
<path fill="none" stroke="#63b8ff" d="M109.3,-56.74C125.98,-61.04 145.63,-66.11 163.35,-70.68"/>
<polygon fill="#63b8ff" stroke="#63b8ff" points="162.35,-74.04 172.9,-73.15 164.1,-67.26 162.35,-74.04"/>
</a>
</g>
</g>
<!-- Node3 -->
<g id="Node000003" class="node">
<title>Node3</title>
<g id="a_Node000003"><a xlink:href="../../d1/d1d/namespacemal__math.html#a7b56ddaf7701b0ee7ac3e13ce63e8aa8" target="_top" xlink:title="Computes the roll from a quaternion.">
<polygon fill="white" stroke="#666666" points="250.62,-56.25 178.38,-56.25 178.38,-37 250.62,-37 250.62,-56.25"/>
<text text-anchor="middle" x="214.5" y="-42.75" font-family="Times,serif" font-size="10.00">mal_math::roll</text>
</a>
</g>
</g>
<!-- Node1&#45;&gt;Node3 -->
<g id="edge2_Node000001_Node000003" class="edge">
<title>Node1&#45;&gt;Node3</title>
<g id="a_edge2_Node000001_Node000003"><a xlink:title=" ">
<path fill="none" stroke="#63b8ff" d="M138.45,-46.62C147.98,-46.62 157.59,-46.62 166.6,-46.62"/>
<polygon fill="#63b8ff" stroke="#63b8ff" points="166.53,-50.13 176.53,-46.63 166.53,-43.13 166.53,-50.13"/>
</a>
</g>
</g>
<!-- Node4 -->
<g id="Node000004" class="node">
<title>Node4</title>
<g id="a_Node000004"><a xlink:href="../../d1/d1d/namespacemal__math.html#a7b0f322eff757ae4fe380a81a6c42c63" target="_top" xlink:title="Computes the yaw from a quaternion.">
<polygon fill="white" stroke="#666666" points="252.12,-19.25 176.88,-19.25 176.88,0 252.12,0 252.12,-19.25"/>
<text text-anchor="middle" x="214.5" y="-5.75" font-family="Times,serif" font-size="10.00">mal_math::yaw</text>
</a>
</g>
</g>
<!-- Node1&#45;&gt;Node4 -->
<g id="edge3_Node000001_Node000004" class="edge">
<title>Node1&#45;&gt;Node4</title>
<g id="a_edge3_Node000001_Node000004"><a xlink:title=" ">
<path fill="none" stroke="#63b8ff" d="M109.3,-36.51C126.74,-32.01 147.44,-26.67 165.77,-21.94"/>
<polygon fill="#63b8ff" stroke="#63b8ff" points="166.56,-25.35 175.37,-19.47 164.81,-18.58 166.56,-25.35"/>
</a>
</g>
</g>
<!-- Node5 -->
<g id="Node000005" class="node">
<title>Node5</title>
<g id="a_Node000005"><a xlink:href="../../d1/d1d/namespacemal__math.html#a4d2f468cb836cd1462730c9f8c7e450a" target="_top" xlink:title="Function to clamp a value between a minimum and maximum.">
<polygon fill="white" stroke="#666666" points="375,-19.25 290.75,-19.25 290.75,0 375,0 375,-19.25"/>
<text text-anchor="middle" x="332.88" y="-5.75" font-family="Times,serif" font-size="10.00">mal_math::clamp</text>
</a>
</g>
</g>
<!-- Node4&#45;&gt;Node5 -->
<g id="edge4_Node000004_Node000005" class="edge">
<title>Node4&#45;&gt;Node5</title>
<g id="a_edge4_Node000004_Node000005"><a xlink:title=" ">
<path fill="none" stroke="#63b8ff" d="M252.32,-9.62C260.84,-9.62 270.07,-9.62 279.13,-9.62"/>
<polygon fill="#63b8ff" stroke="#63b8ff" points="278.92,-13.13 288.92,-9.63 278.92,-6.13 278.92,-13.13"/>
</a>
</g>
</g>
<!-- Node6 -->
<g id="Node000006" class="node">
<title>Node6</title>
<g id="a_Node000006"><a xlink:href="../../d1/d1d/namespacemal__math.html#a1772c0a8c3a9672ecf7b372fb536e492" target="_top" xlink:title="Returns a new vector with each element being the maximum of the corresponding element in left and min...">
<polygon fill="white" stroke="#666666" points="487.75,-19.25 411,-19.25 411,0 487.75,0 487.75,-19.25"/>
<text text-anchor="middle" x="449.38" y="-5.75" font-family="Times,serif" font-size="10.00">mal_math::max</text>
</a>
</g>
</g>
<!-- Node5&#45;&gt;Node6 -->
<g id="edge5_Node000005_Node000006" class="edge">
<title>Node5&#45;&gt;Node6</title>
<g id="a_edge5_Node000005_Node000006"><a xlink:title=" ">
<path fill="none" stroke="#63b8ff" d="M375.21,-9.62C382.96,-9.62 391.13,-9.62 399.09,-9.62"/>
<polygon fill="#63b8ff" stroke="#63b8ff" points="399.01,-13.13 409.01,-9.63 399.01,-6.13 399.01,-13.13"/>
</a>
</g>
</g>
<!-- Node7 -->
<g id="Node000007" class="node">
<title>Node7</title>
<g id="a_Node000007"><a xlink:href="../../d1/d1d/namespacemal__math.html#aef6065b4c161e80e15f71159af8119ce" target="_top" xlink:title="Returns a new vector with each element being the minimum of the corresponding element in left and max...">
<polygon fill="white" stroke="#666666" points="599.75,-19.25 523.75,-19.25 523.75,0 599.75,0 599.75,-19.25"/>
<text text-anchor="middle" x="561.75" y="-5.75" font-family="Times,serif" font-size="10.00">mal_math::min</text>
</a>
</g>
</g>
<!-- Node6&#45;&gt;Node7 -->
<g id="edge6_Node000006_Node000007" class="edge">
<title>Node6&#45;&gt;Node7</title>
<g id="a_edge6_Node000006_Node000007"><a xlink:title=" ">
<path fill="none" stroke="#63b8ff" d="M488.05,-3.19C495.86,-2.9 504.19,-2.81 512.33,-2.92"/>
<polygon fill="#63b8ff" stroke="#63b8ff" points="512.02,-6.41 522.1,-3.17 512.2,0.58 512.02,-6.41"/>
</a>
</g>
</g>
<!-- Node7&#45;&gt;Node6 -->
<g id="edge7_Node000007_Node000006" class="edge">
<title>Node7&#45;&gt;Node6</title>
<g id="a_edge7_Node000007_Node000006"><a xlink:title=" ">
<path fill="none" stroke="#63b8ff" d="M523.62,-16.04C515.83,-16.34 507.51,-16.44 499.37,-16.34"/>
<polygon fill="#63b8ff" stroke="#63b8ff" points="499.65,-12.84 489.56,-16.1 499.48,-19.84 499.65,-12.84"/>
</a>
</g>
</g>
</g>
</svg>
