<?xml version="1.0" encoding="UTF-8" standalone="no"?>
<!DOCTYPE svg PUBLIC "-//W3C//DTD SVG 1.1//EN"
 "http://www.w3.org/Graphics/SVG/1.1/DTD/svg11.dtd">
<!-- Generated by graphviz version 9.0.0 (20230911.1827)
 -->
<!-- Title: mal_math::yaw Pages: 1 -->
<svg width="258pt" height="76pt"
 viewBox="0.00 0.00 257.50 75.88" xmlns="http://www.w3.org/2000/svg" xmlns:xlink="http://www.w3.org/1999/xlink">
<g id="graph0" class="graph" transform="scale(1 1) rotate(0) translate(4 71.88)">
<title>mal_math::yaw</title>
<!-- Node1 -->
<g id="Node000001" class="node">
<title>Node1</title>
<g id="a_Node000001"><a xlink:title="Computes the yaw from a quaternion.">
<polygon fill="#999999" stroke="#666666" points="249.5,-40.25 174.25,-40.25 174.25,-21 249.5,-21 249.5,-40.25"/>
<text text-anchor="middle" x="211.88" y="-26.75" font-family="Times,serif" font-size="10.00">mal_math::yaw</text>
</a>
</g>
</g>
<!-- Node2 -->
<g id="Node000002" class="node">
<title>Node2</title>
<g id="a_Node000002"><a xlink:href="../../d1/d1d/namespacemal__math.html#a58cd6b68785c108f943056ae8f463d4c" target="_top" xlink:title="Creates a quaternion from individual Euler angles.">
<polygon fill="white" stroke="#666666" points="132.62,-67.88 5.62,-67.88 5.62,-37.38 132.62,-37.38 132.62,-67.88"/>
<text text-anchor="start" x="13.62" y="-54.38" font-family="Times,serif" font-size="10.00">mal_math::QuaternionFrom</text>
<text text-anchor="middle" x="69.12" y="-43.12" font-family="Times,serif" font-size="10.00">Euler</text>
</a>
</g>
</g>
<!-- Node1&#45;&gt;Node2 -->
<g id="edge1_Node000001_Node000002" class="edge">
<title>Node1&#45;&gt;Node2</title>
<g id="a_edge1_Node000001_Node000002"><a xlink:title=" ">
<path fill="none" stroke="#63b8ff" d="M162.61,-38.17C153.07,-39.66 142.92,-41.25 132.98,-42.8"/>
<polygon fill="#63b8ff" stroke="#63b8ff" points="163.06,-41.64 172.4,-36.64 161.98,-34.73 163.06,-41.64"/>
</a>
</g>
</g>
<!-- Node3 -->
<g id="Node000003" class="node">
<title>Node3</title>
<g id="a_Node000003"><a xlink:href="../../d1/d1d/namespacemal__math.html#a66974d61c29bbf4008522006be6d7ac9" target="_top" xlink:title="Converts a quaternion to Euler angles.">
<polygon fill="white" stroke="#666666" points="138.25,-19.25 0,-19.25 0,0 138.25,0 138.25,-19.25"/>
<text text-anchor="middle" x="69.12" y="-5.75" font-family="Times,serif" font-size="10.00">mal_math::QuaternionToEuler</text>
</a>
</g>
</g>
<!-- Node1&#45;&gt;Node3 -->
<g id="edge2_Node000001_Node000003" class="edge">
<title>Node1&#45;&gt;Node3</title>
<g id="a_edge2_Node000001_Node000003"><a xlink:title=" ">
<path fill="none" stroke="#63b8ff" d="M162.58,-23.42C154.62,-22.23 146.23,-20.98 137.9,-19.74"/>
<polygon fill="#63b8ff" stroke="#63b8ff" points="161.99,-26.87 172.4,-24.88 163.02,-19.95 161.99,-26.87"/>
</a>
</g>
</g>
</g>
</svg>
