<?xml version="1.0" encoding="UTF-8" standalone="no"?>
<!DOCTYPE svg PUBLIC "-//W3C//DTD SVG 1.1//EN"
 "http://www.w3.org/Graphics/SVG/1.1/DTD/svg11.dtd">
<!-- Generated by graphviz version 9.0.0 (20230911.1827)
 -->
<!-- Title: mal_math::sin Pages: 1 -->
<svg width="406pt" height="113pt"
 viewBox="0.00 0.00 406.25 113.25" xmlns="http://www.w3.org/2000/svg" xmlns:xlink="http://www.w3.org/1999/xlink">
<g id="graph0" class="graph" transform="scale(1 1) rotate(0) translate(4 109.25)">
<title>mal_math::sin</title>
<!-- Node1 -->
<g id="Node000001" class="node">
<title>Node1</title>
<g id="a_Node000001"><a xlink:title=" ">
<polygon fill="#999999" stroke="#666666" points="398.25,-62.25 326,-62.25 326,-43 398.25,-43 398.25,-62.25"/>
<text text-anchor="middle" x="362.12" y="-48.75" font-family="Times,serif" font-size="10.00">mal_math::sin</text>
</a>
</g>
</g>
<!-- Node2 -->
<g id="Node000002" class="node">
<title>Node2</title>
<g id="a_Node000002"><a xlink:href="../../d9/d76/structmal__math_1_1qua.html#a76e9e79edda5b35e32e583dc638ad252" target="_top" xlink:title="Constructs a quaternion from an angle and rotation axis.">
<polygon fill="white" stroke="#666666" points="273.12,-105.25 179.88,-105.25 179.88,-86 273.12,-86 273.12,-105.25"/>
<text text-anchor="middle" x="226.5" y="-91.75" font-family="Times,serif" font-size="10.00">mal_math::qua::qua</text>
</a>
</g>
</g>
<!-- Node1&#45;&gt;Node2 -->
<g id="edge1_Node000001_Node000002" class="edge">
<title>Node1&#45;&gt;Node2</title>
<g id="a_edge1_Node000001_Node000002"><a xlink:title=" ">
<path fill="none" stroke="#63b8ff" d="M321.41,-66.26C311.2,-69.71 300.21,-73.35 290,-76.62 280.71,-79.6 270.61,-82.72 261.29,-85.56"/>
<polygon fill="#63b8ff" stroke="#63b8ff" points="322.34,-69.64 330.69,-63.12 320.09,-63.01 322.34,-69.64"/>
</a>
</g>
</g>
<!-- Node3 -->
<g id="Node000003" class="node">
<title>Node3</title>
<g id="a_Node000003"><a xlink:href="../../d1/d1d/namespacemal__math.html#ad3f11e8c21758e34e6d24558f177ddc9" target="_top" xlink:title="Creates a quaternion from Euler angles given in a vector.">
<polygon fill="white" stroke="#666666" points="290,-67.88 163,-67.88 163,-37.38 290,-37.38 290,-67.88"/>
<text text-anchor="start" x="171" y="-54.38" font-family="Times,serif" font-size="10.00">mal_math::QuaternionFrom</text>
<text text-anchor="middle" x="226.5" y="-43.12" font-family="Times,serif" font-size="10.00">Euler</text>
</a>
</g>
</g>
<!-- Node1&#45;&gt;Node3 -->
<g id="edge2_Node000001_Node000003" class="edge">
<title>Node1&#45;&gt;Node3</title>
<g id="a_edge2_Node000001_Node000003"><a xlink:title=" ">
<path fill="none" stroke="#63b8ff" d="M314.25,-52.62C306.49,-52.62 298.34,-52.62 290.26,-52.62"/>
<polygon fill="#63b8ff" stroke="#63b8ff" points="314.15,-56.13 324.15,-52.63 314.15,-49.13 314.15,-56.13"/>
</a>
</g>
</g>
<!-- Node5 -->
<g id="Node000005" class="node">
<title>Node5</title>
<g id="a_Node000005"><a xlink:href="../../d1/d1d/namespacemal__math.html#a0dca2439b6f120ca6b67d6970653bd60" target="_top" xlink:title=" ">
<polygon fill="white" stroke="#666666" points="262.62,-19.25 190.38,-19.25 190.38,0 262.62,0 262.62,-19.25"/>
<text text-anchor="middle" x="226.5" y="-5.75" font-family="Times,serif" font-size="10.00">mal_math::sin</text>
</a>
</g>
</g>
<!-- Node1&#45;&gt;Node5 -->
<g id="edge4_Node000001_Node000005" class="edge">
<title>Node1&#45;&gt;Node5</title>
<g id="a_edge4_Node000001_Node000005"><a xlink:title=" ">
<path fill="none" stroke="#63b8ff" d="M321.41,-38.99C311.2,-35.54 300.21,-31.9 290,-28.62 280.71,-25.65 270.61,-22.53 261.29,-19.69"/>
<polygon fill="#63b8ff" stroke="#63b8ff" points="320.09,-42.24 330.69,-42.13 322.34,-35.61 320.09,-42.24"/>
</a>
</g>
</g>
<!-- Node4 -->
<g id="Node000004" class="node">
<title>Node4</title>
<g id="a_Node000004"><a xlink:href="../../d1/d1d/namespacemal__math.html#a58cd6b68785c108f943056ae8f463d4c" target="_top" xlink:title="Creates a quaternion from individual Euler angles.">
<polygon fill="white" stroke="#666666" points="127,-67.88 0,-67.88 0,-37.38 127,-37.38 127,-67.88"/>
<text text-anchor="start" x="8" y="-54.38" font-family="Times,serif" font-size="10.00">mal_math::QuaternionFrom</text>
<text text-anchor="middle" x="63.5" y="-43.12" font-family="Times,serif" font-size="10.00">Euler</text>
</a>
</g>
</g>
<!-- Node3&#45;&gt;Node4 -->
<g id="edge3_Node000003_Node000004" class="edge">
<title>Node3&#45;&gt;Node4</title>
<g id="a_edge3_Node000003_Node000004"><a xlink:title=" ">
<path fill="none" stroke="#63b8ff" d="M151.47,-52.62C143.39,-52.62 135.22,-52.62 127.3,-52.62"/>
<polygon fill="#63b8ff" stroke="#63b8ff" points="151.28,-56.13 161.28,-52.63 151.28,-49.13 151.28,-56.13"/>
</a>
</g>
</g>
</g>
</svg>
