<?xml version="1.0" encoding="UTF-8" standalone="no"?>
<!DOCTYPE svg PUBLIC "-//W3C//DTD SVG 1.1//EN"
 "http://www.w3.org/Graphics/SVG/1.1/DTD/svg11.dtd">
<!-- Generated by graphviz version 9.0.0 (20230911.1827)
 -->
<!-- Title: mal_math::length Pages: 1 -->
<!--zoomable 303 -->

<svg id="main" version="1.1" xmlns="http://www.w3.org/2000/svg" xmlns:xlink="http://www.w3.org/1999/xlink" xml:space="preserve" onload="init(evt)">
<style type="text/css"><![CDATA[
.node, .edge {opacity: 0.7;}
.node.selected, .edge.selected {opacity: 1;}
.edge:hover path { stroke: red; }
.edge:hover polygon { stroke: red; fill: red; }
]]></style>

<defs>
  <circle id="rim" cx="0" cy="0" r="7"/>
  <circle id="rim2" cx="0" cy="0" r="3.5"/>
  <g id="zoomPlus">
    <use xlink:href="#rim" fill="#404040"><set attributeName="fill" to="#808080" begin="zoomplus.mouseover" end="zoomplus.mouseout"/></use>
    <path d="M-4,0h8M0,-4v8" fill="none" stroke="white" stroke-width="1.5" pointer-events="none"/>
  </g>
  <g id="zoomMin">
    <use xlink:href="#rim" fill="#404040"><set attributeName="fill" to="#808080" begin="zoomminus.mouseover" end="zoomminus.mouseout"/></use>
    <path d="M-4,0h8" fill="none" stroke="white" stroke-width="1.5" pointer-events="none"/>
  </g>
  <g id="arrowUp" transform="translate(30 24)">
    <use xlink:href="#rim"/>
    <path pointer-events="none" fill="none" stroke="white" stroke-width="1.5" d="M0,-3.0v7 M-2.5,-0.5L0,-3.0L2.5,-0.5"/>
  </g>
  <g id="arrowRight" transform="rotate(90) translate(36 -43)">
    <use xlink:href="#rim"/>
    <path pointer-events="none" fill="none" stroke="white" stroke-width="1.5" d="M0,-3.0v7 M-2.5,-0.5L0,-3.0L2.5,-0.5"/>
  </g>
  <g id="arrowDown" transform="rotate(180) translate(-30 -48)">
    <use xlink:href="#rim"/>
    <path pointer-events="none" fill="none" stroke="white" stroke-width="1.5" d="M0,-3.0v7 M-2.5,-0.5L0,-3.0L2.5,-0.5"/>
  </g>
  <g id="arrowLeft" transform="rotate(270) translate(-36 17)">
    <use xlink:href="#rim"/>
    <path pointer-events="none" fill="none" stroke="white" stroke-width="1.5" d="M0,-3.0v7 M-2.5,-0.5L0,-3.0L2.5,-0.5"/>
  </g>
  <g id="resetDef">
    <use xlink:href="#rim2" fill="#404040"><set attributeName="fill" to="#808080" begin="reset.mouseover" end="reset.mouseout"/></use>
  </g>
</defs>
<script type="application/ecmascript">
var viewWidth = 522;
var viewHeight = 303;
var sectionId = 'dynsection-70';
</script>
<script type="application/ecmascript" xlink:href="../../svg.min.js"/>
<svg id="graph" class="graph">
<g id="viewport">
<title>mal_math::length</title>
<!-- Node1 -->
<g id="Node000001" class="node">
<title>Node1</title>
<g id="a_Node000001"><a xlink:title="Computes the length (or magnitude) of a quaternion.">
<polygon fill="#999999" stroke="#666666" points="514,-151.88 429,-151.88 429,-132.62 514,-132.62 514,-151.88"/>
<text text-anchor="middle" x="471.5" y="-138.38" font-family="Times,serif" font-size="10.00">mal_math::length</text>
</a>
</g>
</g>
<!-- Node2 -->
<g id="Node000002" class="node">
<title>Node2</title>
<g id="a_Node000002"><a xlink:href="../../d1/d1d/namespacemal__math.html#a70273f9f35b9c5fafb0c4c027a0cc427" target="_top" xlink:title="Compute the distance between two vectors.">
<polygon fill="white" stroke="#666666" points="384.38,-286.88 291.12,-286.88 291.12,-267.62 384.38,-267.62 384.38,-286.88"/>
<text text-anchor="middle" x="337.75" y="-273.38" font-family="Times,serif" font-size="10.00">mal_math::distance</text>
</a>
</g>
</g>
<!-- Node1&#45;&gt;Node2 -->
<g id="edge1_Node000001_Node000002" class="edge">
<title>Node1&#45;&gt;Node2</title>
<g id="a_edge1_Node000001_Node000002"><a xlink:title=" ">
<path fill="none" stroke="#63b8ff" d="M460.38,-162.25C447.48,-186.07 423.21,-225.82 393,-251.25 385.25,-257.78 375.58,-263.09 366.57,-267.17"/>
<polygon fill="#63b8ff" stroke="#63b8ff" points="463.37,-164.08 464.92,-153.6 457.17,-160.82 463.37,-164.08"/>
</a>
</g>
</g>
<!-- Node4 -->
<g id="Node000004" class="node">
<title>Node4</title>
<g id="a_Node000004"><a xlink:href="../../d2/dd8/structmal__math_1_1_sphere.html#a16d1dfc076a08ee64ff10aff05669da4" target="_top" xlink:title="Determines if a Ray intersects with the Sphere.">
<polygon fill="white" stroke="#666666" points="246.5,-245.88 119.5,-245.88 119.5,-226.62 246.5,-226.62 246.5,-245.88"/>
<text text-anchor="middle" x="183" y="-232.38" font-family="Times,serif" font-size="10.00">mal_math::Sphere::Intersect</text>
</a>
</g>
</g>
<!-- Node1&#45;&gt;Node4 -->
<g id="edge3_Node000001_Node000004" class="edge">
<title>Node1&#45;&gt;Node4</title>
<g id="a_edge3_Node000001_Node000004"><a xlink:title=" ">
<path fill="none" stroke="#63b8ff" d="M452.91,-160.08C438.21,-173.87 416,-192.25 393,-202.25 346.47,-222.47 289.38,-230.77 246.62,-234.13"/>
<polygon fill="#63b8ff" stroke="#63b8ff" points="455.21,-162.73 459.95,-153.26 450.33,-157.71 455.21,-162.73"/>
</a>
</g>
</g>
<!-- Node5 -->
<g id="Node000005" class="node">
<title>Node5</title>
<g id="a_Node000005"><a xlink:href="../../d1/d1d/namespacemal__math.html#abe612f1321c4a59501c42f7759feaba4" target="_top" xlink:title="Normalizes a quaternion.">
<polygon fill="white" stroke="#666666" points="387.38,-170.88 288.12,-170.88 288.12,-151.62 387.38,-151.62 387.38,-170.88"/>
<text text-anchor="middle" x="337.75" y="-157.38" font-family="Times,serif" font-size="10.00">mal_math::normalize</text>
</a>
</g>
</g>
<!-- Node1&#45;&gt;Node5 -->
<g id="edge4_Node000001_Node000005" class="edge">
<title>Node1&#45;&gt;Node5</title>
<g id="a_edge4_Node000001_Node000005"><a xlink:title=" ">
<path fill="none" stroke="#63b8ff" d="M417.45,-149.9C407.56,-151.33 397.28,-152.81 387.53,-154.22"/>
<polygon fill="#63b8ff" stroke="#63b8ff" points="417.92,-153.37 427.32,-148.48 416.92,-146.44 417.92,-153.37"/>
</a>
</g>
</g>
<!-- Node7 -->
<g id="Node000007" class="node">
<title>Node7</title>
<g id="a_Node000007"><a xlink:href="../../d9/d76/structmal__math_1_1qua.html#a76e9e79edda5b35e32e583dc638ad252" target="_top" xlink:title="Constructs a quaternion from an angle and rotation axis.">
<polygon fill="white" stroke="#666666" points="229.62,-208.88 136.38,-208.88 136.38,-189.62 229.62,-189.62 229.62,-208.88"/>
<text text-anchor="middle" x="183" y="-195.38" font-family="Times,serif" font-size="10.00">mal_math::qua::qua</text>
</a>
</g>
</g>
<!-- Node1&#45;&gt;Node7 -->
<g id="edge14_Node000001_Node000007" class="edge">
<title>Node1&#45;&gt;Node7</title>
<g id="a_edge14_Node000001_Node000007"><a xlink:title=" ">
<path fill="none" stroke="#63b8ff" d="M444.74,-157.84C430.1,-165.94 411.11,-175.17 393,-180.25 338.45,-195.54 273.05,-199.27 230.12,-199.83"/>
<polygon fill="#63b8ff" stroke="#63b8ff" points="446.31,-160.98 453.25,-152.98 442.83,-154.9 446.31,-160.98"/>
</a>
</g>
</g>
<!-- Node11 -->
<g id="Node000011" class="node">
<title>Node11</title>
<g id="a_Node000011"><a xlink:href="../../de/db9/structmal__math_1_1_plane.html#a568a7d2c844bc73f43611217334106f9" target="_top" xlink:title="Updates the plane&#39;s vectors and normal based on two new vectors.">
<polygon fill="white" stroke="#666666" points="239.75,-30.5 126.25,-30.5 126.25,0 239.75,0 239.75,-30.5"/>
<text text-anchor="start" x="134.25" y="-17" font-family="Times,serif" font-size="10.00">mal_math::Plane::update</text>
<text text-anchor="middle" x="183" y="-5.75" font-family="Times,serif" font-size="10.00">_plane</text>
</a>
</g>
</g>
<!-- Node1&#45;&gt;Node11 -->
<g id="edge17_Node000001_Node000011" class="edge">
<title>Node1&#45;&gt;Node11</title>
<g id="a_edge17_Node000001_Node000011"><a xlink:title=" ">
<path fill="none" stroke="#63b8ff" d="M417.54,-143.05C377.04,-141.13 321.67,-132.75 282.5,-104.25 256.11,-85.05 271.05,-61.76 246.5,-40.25 242.46,-36.71 237.85,-33.63 233.01,-30.97"/>
<polygon fill="#63b8ff" stroke="#63b8ff" points="417.18,-146.54 427.29,-143.39 417.42,-139.55 417.18,-146.54"/>
</a>
</g>
</g>
<!-- Node12 -->
<g id="Node000012" class="node">
<title>Node12</title>
<g id="a_Node000012"><a xlink:href="../../d1/d1d/namespacemal__math.html#a1cc95439dc8db428b1b9f7c1ec9aba5a" target="_top" xlink:title="Normalize the given vector.">
<polygon fill="white" stroke="#666666" points="387.38,-94.88 288.12,-94.88 288.12,-75.62 387.38,-75.62 387.38,-94.88"/>
<text text-anchor="middle" x="337.75" y="-81.38" font-family="Times,serif" font-size="10.00">mal_math::normalize</text>
</a>
</g>
</g>
<!-- Node1&#45;&gt;Node12 -->
<g id="edge13_Node000001_Node000012" class="edge">
<title>Node1&#45;&gt;Node12</title>
<g id="a_edge13_Node000001_Node000012"><a xlink:title=" ">
<path fill="none" stroke="#63b8ff" d="M436.69,-127.62C413.19,-117.46 382.48,-104.17 361.77,-95.21"/>
<polygon fill="#63b8ff" stroke="#63b8ff" points="435.29,-130.83 445.86,-131.59 438.07,-124.41 435.29,-130.83"/>
</a>
</g>
</g>
<!-- Node13 -->
<g id="Node000013" class="node">
<title>Node13</title>
<g id="a_Node000013"><a xlink:href="../../d7/d3f/structmal__math_1_1_t_box.html#a3783194457bcf643aeabd8b62bc5592c" target="_top" xlink:title="Returns the radius of a sphere that tightly encloses the box.">
<polygon fill="white" stroke="#666666" points="393,-57.88 282.5,-57.88 282.5,-38.62 393,-38.62 393,-57.88"/>
<text text-anchor="middle" x="337.75" y="-44.38" font-family="Times,serif" font-size="10.00">mal_math::TBox::radius</text>
</a>
</g>
</g>
<!-- Node1&#45;&gt;Node13 -->
<g id="edge15_Node000001_Node000013" class="edge">
<title>Node1&#45;&gt;Node13</title>
<g id="a_edge15_Node000001_Node000013"><a xlink:title=" ">
<path fill="none" stroke="#63b8ff" d="M455.77,-123.56C441.41,-106.47 418.11,-81.57 393,-66.25 387.92,-63.15 382.24,-60.51 376.52,-58.29"/>
<polygon fill="#63b8ff" stroke="#63b8ff" points="452.79,-125.45 461.83,-130.97 458.21,-121.02 452.79,-125.45"/>
</a>
</g>
</g>
<!-- Node14 -->
<g id="Node000014" class="node">
<title>Node14</title>
<g id="a_Node000014"><a xlink:href="../../d1/d1d/namespacemal__math.html#ac450bfaa356fc4830954be733bcf465b" target="_top" xlink:title="Compute the unit vector (normalized vector) of the given vector.">
<polygon fill="white" stroke="#666666" points="390.75,-20.88 284.75,-20.88 284.75,-1.62 390.75,-1.62 390.75,-20.88"/>
<text text-anchor="middle" x="337.75" y="-7.38" font-family="Times,serif" font-size="10.00">mal_math::unit_vector</text>
</a>
</g>
</g>
<!-- Node1&#45;&gt;Node14 -->
<g id="edge16_Node000001_Node000014" class="edge">
<title>Node1&#45;&gt;Node14</title>
<g id="a_edge16_Node000001_Node000014"><a xlink:title=" ">
<path fill="none" stroke="#63b8ff" d="M461.62,-121.93C449.6,-96.69 425.8,-53.93 393,-29.25 388.8,-26.09 384.01,-23.46 379.06,-21.29"/>
<polygon fill="#63b8ff" stroke="#63b8ff" points="458.34,-123.16 465.68,-130.8 464.7,-120.25 458.34,-123.16"/>
</a>
</g>
</g>
<!-- Node3 -->
<g id="Node000003" class="node">
<title>Node3</title>
<g id="a_Node000003"><a xlink:href="../../de/d54/namespacemal__math_1_1random_1_1poisson__disc_1_1__detail.html#a5fc2fd014656cd15396002f5cdc8df16" target="_top" xlink:title="Generates a set of points distributed according to Poisson Disk Sampling.">
<polygon fill="white" stroke="#666666" points="245.38,-294.5 120.62,-294.5 120.62,-264 245.38,-264 245.38,-294.5"/>
<text text-anchor="start" x="128.62" y="-281" font-family="Times,serif" font-size="10.00">mal_math::random::poisson</text>
<text text-anchor="middle" x="183" y="-269.75" font-family="Times,serif" font-size="10.00">_disc::_detail::PoissonDisc</text>
</a>
</g>
</g>
<!-- Node2&#45;&gt;Node3 -->
<g id="edge2_Node000002_Node000003" class="edge">
<title>Node2&#45;&gt;Node3</title>
<g id="a_edge2_Node000002_Node000003"><a xlink:title=" ">
<path fill="none" stroke="#63b8ff" d="M279.61,-278C268.52,-278.14 256.85,-278.3 245.62,-278.44"/>
<polygon fill="#63b8ff" stroke="#63b8ff" points="279.45,-281.5 289.41,-277.87 279.36,-274.5 279.45,-281.5"/>
</a>
</g>
</g>
<!-- Node5&#45;&gt;Node4 -->
<g id="edge5_Node000005_Node000004" class="edge">
<title>Node5&#45;&gt;Node4</title>
<g id="a_edge5_Node000005_Node000004"><a xlink:title=" ">
<path fill="none" stroke="#63b8ff" d="M314.74,-177.65C297.06,-190.2 271.18,-207.17 246.5,-218.25 239.8,-221.26 232.48,-223.89 225.28,-226.16"/>
<polygon fill="#63b8ff" stroke="#63b8ff" points="316.38,-180.78 322.44,-172.09 312.28,-175.11 316.38,-180.78"/>
</a>
</g>
</g>
<!-- Node6 -->
<g id="Node000006" class="node">
<title>Node6</title>
<g id="a_Node000006"><a xlink:href="../../d1/d1d/namespacemal__math.html#ae75c0f78e391bc79564c5ddc63a74612" target="_top" xlink:title="Generates a look&#45;at matrix for camera positioning.">
<polygon fill="white" stroke="#666666" points="228.12,-171.88 137.88,-171.88 137.88,-152.62 228.12,-152.62 228.12,-171.88"/>
<text text-anchor="middle" x="183" y="-158.38" font-family="Times,serif" font-size="10.00">mal_math::look_at</text>
</a>
</g>
</g>
<!-- Node5&#45;&gt;Node6 -->
<g id="edge6_Node000005_Node000006" class="edge">
<title>Node5&#45;&gt;Node6</title>
<g id="a_edge6_Node000005_Node000006"><a xlink:title=" ">
<path fill="none" stroke="#63b8ff" d="M276.53,-161.64C260.48,-161.75 243.44,-161.86 228.41,-161.96"/>
<polygon fill="#63b8ff" stroke="#63b8ff" points="276.51,-165.14 286.49,-161.58 276.46,-158.14 276.51,-165.14"/>
</a>
</g>
</g>
<!-- Node5&#45;&gt;Node7 -->
<g id="edge7_Node000005_Node000007" class="edge">
<title>Node5&#45;&gt;Node7</title>
<g id="a_edge7_Node000005_Node000007"><a xlink:title=" ">
<path fill="none" stroke="#63b8ff" d="M285.2,-174.07C265.39,-179 243.08,-184.55 224.46,-189.19"/>
<polygon fill="#63b8ff" stroke="#63b8ff" points="285.89,-177.51 294.75,-171.7 284.2,-170.72 285.89,-177.51"/>
</a>
</g>
</g>
<!-- Node8 -->
<g id="Node000008" class="node">
<title>Node8</title>
<g id="a_Node000008"><a xlink:href="../../d1/d1d/namespacemal__math.html#a3e5409e48ad66d42b0f0643bf4591163" target="_top" xlink:title="Rotates a matrix by a given angle around a given axis.">
<polygon fill="white" stroke="#666666" points="224.75,-116.88 141.25,-116.88 141.25,-97.62 224.75,-97.62 224.75,-116.88"/>
<text text-anchor="middle" x="183" y="-103.38" font-family="Times,serif" font-size="10.00">mal_math::rotate</text>
</a>
</g>
</g>
<!-- Node5&#45;&gt;Node8 -->
<g id="edge8_Node000005_Node000008" class="edge">
<title>Node5&#45;&gt;Node8</title>
<g id="a_edge8_Node000005_Node000008"><a xlink:title=" ">
<path fill="none" stroke="#63b8ff" d="M297.53,-147.38C270.95,-137.99 236.44,-125.79 212.48,-117.32"/>
<polygon fill="#63b8ff" stroke="#63b8ff" points="296.36,-150.68 306.95,-150.72 298.69,-144.08 296.36,-150.68"/>
</a>
</g>
</g>
<!-- Node10 -->
<g id="Node000010" class="node">
<title>Node10</title>
<g id="a_Node000010"><a xlink:href="../../db/d90/namespacemal__math_1_1random_1_1__detail.html#a8a729c12da52b3aa8764cbd4ebe7252f" target="_top" xlink:title="Generates a unit vector with random direction.">
<polygon fill="white" stroke="#666666" points="232.25,-79.5 133.75,-79.5 133.75,-49 232.25,-49 232.25,-79.5"/>
<text text-anchor="start" x="141.75" y="-66" font-family="Times,serif" font-size="10.00">mal_math::random::</text>
<text text-anchor="middle" x="183" y="-54.75" font-family="Times,serif" font-size="10.00">_detail::UnitRandom</text>
</a>
</g>
</g>
<!-- Node5&#45;&gt;Node10 -->
<g id="edge11_Node000005_Node000010" class="edge">
<title>Node5&#45;&gt;Node10</title>
<g id="a_edge11_Node000005_Node000010"><a xlink:title=" ">
<path fill="none" stroke="#63b8ff" d="M296.33,-146.25C291.44,-143.61 286.69,-140.62 282.5,-137.25 261.43,-120.32 267.98,-104.65 246.5,-88.25 242.25,-85.01 237.51,-82.15 232.59,-79.66"/>
<polygon fill="#63b8ff" stroke="#63b8ff" points="294.56,-149.28 305.09,-150.48 297.61,-142.98 294.56,-149.28"/>
</a>
</g>
</g>
<!-- Node5&#45;&gt;Node11 -->
<g id="edge12_Node000005_Node000011" class="edge">
<title>Node5&#45;&gt;Node11</title>
<g id="a_edge12_Node000005_Node000011"><a xlink:title=" ">
<path fill="none" stroke="#63b8ff" d="M292.93,-145.79C289.11,-143.32 285.55,-140.49 282.5,-137.25 250.99,-103.76 278.6,-73.17 246.5,-40.25 242.99,-36.65 238.9,-33.56 234.52,-30.9"/>
<polygon fill="#63b8ff" stroke="#63b8ff" points="291.03,-148.73 301.48,-150.47 294.39,-142.59 291.03,-148.73"/>
</a>
</g>
</g>
<!-- Node8&#45;&gt;Node8 -->
<g id="edge10_Node000008_Node000008" class="edge">
<title>Node8&#45;&gt;Node8</title>
<g id="a_edge10_Node000008_Node000008"><a xlink:title=" ">
<path fill="none" stroke="#63b8ff" d="M208.07,-128.28C204.94,-132.15 196.58,-134.88 183,-134.88 158.17,-134.88 150.8,-125.77 160.89,-117.16"/>
<polygon fill="#63b8ff" stroke="#63b8ff" points="211.46,-127.39 205.5,-118.63 204.69,-129.19 211.46,-127.39"/>
</a>
</g>
</g>
<!-- Node9 -->
<g id="Node000009" class="node">
<title>Node9</title>
<g id="a_Node000009"><a xlink:href="../../d1/d1d/namespacemal__math.html#ae2ea884f0e0c63166d344b52a7633934" target="_top" xlink:title="Rotates a 4x4 matrix using a quaternion.">
<polygon fill="white" stroke="#666666" points="83.5,-116.88 0,-116.88 0,-97.62 83.5,-97.62 83.5,-116.88"/>
<text text-anchor="middle" x="41.75" y="-103.38" font-family="Times,serif" font-size="10.00">mal_math::rotate</text>
</a>
</g>
</g>
<!-- Node8&#45;&gt;Node9 -->
<g id="edge9_Node000008_Node000009" class="edge">
<title>Node8&#45;&gt;Node9</title>
<g id="a_edge9_Node000008_Node000009"><a xlink:title=" ">
<path fill="none" stroke="#63b8ff" d="M129.69,-107.25C114.58,-107.25 98.3,-107.25 83.96,-107.25"/>
<polygon fill="#63b8ff" stroke="#63b8ff" points="129.46,-110.75 139.46,-107.25 129.46,-103.75 129.46,-110.75"/>
</a>
</g>
</g>
</g>
</svg>

<g id="navigator" transform="translate(0 0)" fill="#404254">
  <rect fill="#f2f5e9" fill-opacity="0.5" stroke="#606060" stroke-width=".5" x="0" y="0" width="60" height="60"/>
  <use id="zoomplus" xlink:href="#zoomPlus" x="17" y="9" onmousedown="handleZoom(evt,'in')"/>
  <use id="zoomminus" xlink:href="#zoomMin" x="42" y="9" onmousedown="handleZoom(evt,'out')"/>
  <use id="reset" xlink:href="#resetDef" x="30" y="36" onmousedown="handleReset()"/>
   <use id="arrowup" xlink:href="#arrowUp" x="0" y="0" onmousedown="handlePan(0,-1)"/>
  <use id="arrowright" xlink:href="#arrowRight" x="0" y="0" onmousedown="handlePan(1,0)"/>
  <use id="arrowdown" xlink:href="#arrowDown" x="0" y="0" onmousedown="handlePan(0,1)"/>
  <use id="arrowleft" xlink:href="#arrowLeft" x="0" y="0" onmousedown="handlePan(-1,0)"/>
</g>
<svg viewBox="0 0 15 15" width="100%" height="30px" preserveAspectRatio="xMaxYMin meet">
 <g id="arrow_out" transform="scale(0.3 0.3)">
  <a xlink:href="namespacemal__math_a39c5199d92cd6fd327cd1719bd148dcc_icgraph_org.svg" target="_base">
   <rect id="button" ry="5" rx="5" y="6" x="6" height="38" width="38"
        fill="#f2f5e9" fill-opacity="0.5" stroke="#606060" stroke-width="1.0"/>
   <path id="arrow"
     d="M 11.500037,31.436501 C 11.940474,20.09759 22.043105,11.32322 32.158766,21.979434 L 37.068811,17.246167 C 37.068811,17.246167 37.088388,32 37.088388,32 L 22.160133,31.978069 C 22.160133,31.978069 26.997745,27.140456 26.997745,27.140456 C 18.528582,18.264221 13.291696,25.230495 11.500037,31.436501 z"
     style="fill:#404040;"/>
  </a>
 </g>
</svg>

<style type='text/css'>
<![CDATA[
[data-mouse-over-selected='false'] { opacity: 0.7; }
[data-mouse-over-selected='true']  { opacity: 1.0; }
]]>
</style>
<script type="application/ecmascript"><![CDATA[
document.addEventListener('DOMContentLoaded', (event) => {
  highlightEdges();
  highlightAdjacentNodes();
});
]]></script>
</svg>
