<?xml version="1.0" encoding="UTF-8" standalone="no"?>
<!DOCTYPE svg PUBLIC "-//W3C//DTD SVG 1.1//EN"
 "http://www.w3.org/Graphics/SVG/1.1/DTD/svg11.dtd">
<!-- Generated by graphviz version 9.0.0 (20230911.1827)
 -->
<!-- Title: mal_math::dot Pages: 1 -->
<!--zoomable 576 -->

<svg id="main" version="1.1" xmlns="http://www.w3.org/2000/svg" xmlns:xlink="http://www.w3.org/1999/xlink" xml:space="preserve" onload="init(evt)">
<style type="text/css"><![CDATA[
.node, .edge {opacity: 0.7;}
.node.selected, .edge.selected {opacity: 1;}
.edge:hover path { stroke: red; }
.edge:hover polygon { stroke: red; fill: red; }
]]></style>

<defs>
  <circle id="rim" cx="0" cy="0" r="7"/>
  <circle id="rim2" cx="0" cy="0" r="3.5"/>
  <g id="zoomPlus">
    <use xlink:href="#rim" fill="#404040"><set attributeName="fill" to="#808080" begin="zoomplus.mouseover" end="zoomplus.mouseout"/></use>
    <path d="M-4,0h8M0,-4v8" fill="none" stroke="white" stroke-width="1.5" pointer-events="none"/>
  </g>
  <g id="zoomMin">
    <use xlink:href="#rim" fill="#404040"><set attributeName="fill" to="#808080" begin="zoomminus.mouseover" end="zoomminus.mouseout"/></use>
    <path d="M-4,0h8" fill="none" stroke="white" stroke-width="1.5" pointer-events="none"/>
  </g>
  <g id="arrowUp" transform="translate(30 24)">
    <use xlink:href="#rim"/>
    <path pointer-events="none" fill="none" stroke="white" stroke-width="1.5" d="M0,-3.0v7 M-2.5,-0.5L0,-3.0L2.5,-0.5"/>
  </g>
  <g id="arrowRight" transform="rotate(90) translate(36 -43)">
    <use xlink:href="#rim"/>
    <path pointer-events="none" fill="none" stroke="white" stroke-width="1.5" d="M0,-3.0v7 M-2.5,-0.5L0,-3.0L2.5,-0.5"/>
  </g>
  <g id="arrowDown" transform="rotate(180) translate(-30 -48)">
    <use xlink:href="#rim"/>
    <path pointer-events="none" fill="none" stroke="white" stroke-width="1.5" d="M0,-3.0v7 M-2.5,-0.5L0,-3.0L2.5,-0.5"/>
  </g>
  <g id="arrowLeft" transform="rotate(270) translate(-36 17)">
    <use xlink:href="#rim"/>
    <path pointer-events="none" fill="none" stroke="white" stroke-width="1.5" d="M0,-3.0v7 M-2.5,-0.5L0,-3.0L2.5,-0.5"/>
  </g>
  <g id="resetDef">
    <use xlink:href="#rim2" fill="#404040"><set attributeName="fill" to="#808080" begin="reset.mouseover" end="reset.mouseout"/></use>
  </g>
</defs>
<script type="application/ecmascript">
var viewWidth = 668;
var viewHeight = 576;
var sectionId = 'dynsection-47';
</script>
<script type="application/ecmascript" xlink:href="../../svg.min.js"/>
<svg id="graph" class="graph">
<g id="viewport">
<title>mal_math::dot</title>
<!-- Node1 -->
<g id="Node000001" class="node">
<title>Node1</title>
<g id="a_Node000001"><a xlink:title="Computes the dot product of two quaternions.">
<polygon fill="#999999" stroke="#666666" points="659.75,-357.25 586,-357.25 586,-338 659.75,-338 659.75,-357.25"/>
<text text-anchor="middle" x="622.88" y="-343.75" font-family="Times,serif" font-size="10.00">mal_math::dot</text>
</a>
</g>
</g>
<!-- Node2 -->
<g id="Node000002" class="node">
<title>Node2</title>
<g id="a_Node000002"><a xlink:href="../../d1/d1d/namespacemal__math.html#a6c89bca6ee3f863870442353a30e89e2" target="_top" xlink:title="Compute the angle between two vectors.">
<polygon fill="white" stroke="#666666" points="530.12,-536.25 448.88,-536.25 448.88,-517 530.12,-517 530.12,-536.25"/>
<text text-anchor="middle" x="489.5" y="-522.75" font-family="Times,serif" font-size="10.00">mal_math::angle</text>
</a>
</g>
</g>
<!-- Node1&#45;&gt;Node2 -->
<g id="edge1_Node000001_Node000002" class="edge">
<title>Node1&#45;&gt;Node2</title>
<g id="a_edge1_Node000001_Node000002"><a xlink:title=" ">
<path fill="none" stroke="#63b8ff" d="M618.29,-368.63C611.33,-402.95 592.75,-470.95 550,-508.62 544.41,-513.55 537.52,-517.13 530.42,-519.72"/>
<polygon fill="#63b8ff" stroke="#63b8ff" points="621.67,-369.6 620.07,-359.12 614.79,-368.31 621.67,-369.6"/>
</a>
</g>
</g>
<!-- Node3 -->
<g id="Node000003" class="node">
<title>Node3</title>
<g id="a_Node000003"><a xlink:href="../../d2/dd8/structmal__math_1_1_sphere.html#acc2e23b368333c7044a94666b488578e" target="_top" xlink:title="Determines the intersection point of a Ray with the Sphere.">
<polygon fill="white" stroke="#666666" points="542.12,-499.25 436.88,-499.25 436.88,-480 542.12,-480 542.12,-499.25"/>
<text text-anchor="middle" x="489.5" y="-485.75" font-family="Times,serif" font-size="10.00">mal_math::Sphere::Hit</text>
</a>
</g>
</g>
<!-- Node1&#45;&gt;Node3 -->
<g id="edge2_Node000001_Node000003" class="edge">
<title>Node1&#45;&gt;Node3</title>
<g id="a_edge2_Node000001_Node000003"><a xlink:title=" ">
<path fill="none" stroke="#63b8ff" d="M615.26,-368.44C605.42,-396.05 584.33,-444.45 550,-471.62 546.02,-474.77 541.5,-477.37 536.77,-479.52"/>
<polygon fill="#63b8ff" stroke="#63b8ff" points="618.52,-369.71 618.41,-359.12 611.89,-367.47 618.52,-369.71"/>
</a>
</g>
</g>
<!-- Node5 -->
<g id="Node000005" class="node">
<title>Node5</title>
<g id="a_Node000005"><a xlink:href="../../de/db9/structmal__math_1_1_plane.html#ad59fe8bfb1f87f1e05764607a372b359" target="_top" xlink:title="Checks for the intersection of the plane with a given ray.">
<polygon fill="white" stroke="#666666" points="550,-462.25 429,-462.25 429,-443 550,-443 550,-462.25"/>
<text text-anchor="middle" x="489.5" y="-448.75" font-family="Times,serif" font-size="10.00">mal_math::Plane::Intersect</text>
</a>
</g>
</g>
<!-- Node1&#45;&gt;Node5 -->
<g id="edge4_Node000001_Node000005" class="edge">
<title>Node1&#45;&gt;Node5</title>
<g id="a_edge4_Node000001_Node000005"><a xlink:title=" ">
<path fill="none" stroke="#63b8ff" d="M610.11,-367.39C597.54,-386.89 575.89,-416.22 550,-433.62 544.69,-437.19 538.67,-440.13 532.54,-442.53"/>
<polygon fill="#63b8ff" stroke="#63b8ff" points="613.02,-369.34 615.33,-359 607.07,-365.64 613.02,-369.34"/>
</a>
</g>
</g>
<!-- Node6 -->
<g id="Node000006" class="node">
<title>Node6</title>
<g id="a_Node000006"><a xlink:href="../../d3/dc1/structmal__math_1_1_triangle.html#af4c79ad8378a09c5266336dde0626bac" target="_top" xlink:title="Determines if a ray intersects with the triangle using its vertices.">
<polygon fill="white" stroke="#666666" points="536.12,-424.88 442.88,-424.88 442.88,-394.38 536.12,-394.38 536.12,-424.88"/>
<text text-anchor="start" x="450.88" y="-411.38" font-family="Times,serif" font-size="10.00">mal_math::Triangle</text>
<text text-anchor="middle" x="489.5" y="-400.12" font-family="Times,serif" font-size="10.00">::Intersect</text>
</a>
</g>
</g>
<!-- Node1&#45;&gt;Node6 -->
<g id="edge5_Node000001_Node000006" class="edge">
<title>Node1&#45;&gt;Node6</title>
<g id="a_edge5_Node000001_Node000006"><a xlink:title=" ">
<path fill="none" stroke="#63b8ff" d="M590.27,-362.54C570.15,-372.04 544.13,-384.31 523.71,-393.95"/>
<polygon fill="#63b8ff" stroke="#63b8ff" points="591.56,-365.8 599.11,-358.37 588.57,-359.47 591.56,-365.8"/>
</a>
</g>
</g>
<!-- Node10 -->
<g id="Node000010" class="node">
<title>Node10</title>
<g id="a_Node000010"><a xlink:href="../../d1/d1d/namespacemal__math.html#a39b70d2a248cf04c8856704747eebba7" target="_top" xlink:title="Computes the inverse of a quaternion.">
<polygon fill="white" stroke="#666666" points="533.88,-357.25 445.12,-357.25 445.12,-338 533.88,-338 533.88,-357.25"/>
<text text-anchor="middle" x="489.5" y="-343.75" font-family="Times,serif" font-size="10.00">mal_math::inverse</text>
</a>
</g>
</g>
<!-- Node1&#45;&gt;Node10 -->
<g id="edge9_Node000001_Node000010" class="edge">
<title>Node1&#45;&gt;Node10</title>
<g id="a_edge9_Node000001_Node000010"><a xlink:title=" ">
<path fill="none" stroke="#63b8ff" d="M574.4,-347.62C561.24,-347.62 547.02,-347.62 534.1,-347.62"/>
<polygon fill="#63b8ff" stroke="#63b8ff" points="574.11,-351.13 584.11,-347.63 574.11,-344.13 574.11,-351.13"/>
</a>
</g>
</g>
<!-- Node11 -->
<g id="Node000011" class="node">
<title>Node11</title>
<g id="a_Node000011"><a xlink:href="../../d1/d1d/namespacemal__math.html#a39c5199d92cd6fd327cd1719bd148dcc" target="_top" xlink:title="Computes the length (or magnitude) of a quaternion.">
<polygon fill="white" stroke="#666666" points="532,-282.25 447,-282.25 447,-263 532,-263 532,-282.25"/>
<text text-anchor="middle" x="489.5" y="-268.75" font-family="Times,serif" font-size="10.00">mal_math::length</text>
</a>
</g>
</g>
<!-- Node1&#45;&gt;Node11 -->
<g id="edge10_Node000001_Node000011" class="edge">
<title>Node1&#45;&gt;Node11</title>
<g id="a_edge10_Node000001_Node000011"><a xlink:title=" ">
<path fill="none" stroke="#63b8ff" d="M594.16,-331.8C568.12,-316.94 529.96,-295.15 507.94,-282.58"/>
<polygon fill="#63b8ff" stroke="#63b8ff" points="592.42,-334.84 602.84,-336.76 595.89,-328.76 592.42,-334.84"/>
</a>
</g>
</g>
<!-- Node15 -->
<g id="Node000015" class="node">
<title>Node15</title>
<g id="a_Node000015"><a xlink:href="../../d1/d1d/namespacemal__math.html#ae75c0f78e391bc79564c5ddc63a74612" target="_top" xlink:title="Generates a look&#45;at matrix for camera positioning.">
<polygon fill="white" stroke="#666666" points="228.12,-120.25 137.88,-120.25 137.88,-101 228.12,-101 228.12,-120.25"/>
<text text-anchor="middle" x="183" y="-106.75" font-family="Times,serif" font-size="10.00">mal_math::look_at</text>
</a>
</g>
</g>
<!-- Node1&#45;&gt;Node15 -->
<g id="edge28_Node000001_Node000015" class="edge">
<title>Node1&#45;&gt;Node15</title>
<g id="a_edge28_Node000001_Node000015"><a xlink:title=" ">
<path fill="none" stroke="#63b8ff" d="M611.4,-327.7C583.8,-277.74 503.51,-147.93 393,-103.62 336.56,-81 264.5,-90.98 221.43,-100.58"/>
<polygon fill="#63b8ff" stroke="#63b8ff" points="608.2,-329.14 616.03,-336.27 614.35,-325.81 608.2,-329.14"/>
</a>
</g>
</g>
<!-- Node24 -->
<g id="Node000024" class="node">
<title>Node24</title>
<g id="a_Node000024"><a xlink:href="../../d1/d1d/namespacemal__math.html#acaee67bdf61bcdcb3f6020296b8a8420" target="_top" xlink:title="Computes the reflection of an incident vector based on a surface&#39;s normal.">
<polygon fill="white" stroke="#666666" points="532,-56.25 447,-56.25 447,-37 532,-37 532,-56.25"/>
<text text-anchor="middle" x="489.5" y="-42.75" font-family="Times,serif" font-size="10.00">mal_math::reflect</text>
</a>
</g>
</g>
<!-- Node1&#45;&gt;Node24 -->
<g id="edge29_Node000001_Node000024" class="edge">
<title>Node1&#45;&gt;Node24</title>
<g id="a_edge29_Node000001_Node000024"><a xlink:title=" ">
<path fill="none" stroke="#63b8ff" d="M622.47,-326.2C622.71,-275.39 616.35,-146.18 550,-70.62 544.71,-64.6 537.69,-60.06 530.33,-56.66"/>
<polygon fill="#63b8ff" stroke="#63b8ff" points="618.97,-326.04 622.31,-336.09 625.97,-326.15 618.97,-326.04"/>
</a>
</g>
</g>
<!-- Node25 -->
<g id="Node000025" class="node">
<title>Node25</title>
<g id="a_Node000025"><a xlink:href="../../d1/d1d/namespacemal__math.html#af6d612d4cba91e31876b9a752a2f6509" target="_top" xlink:title="Computes the refraction of a vector given an interface&#39;s normal and an index of refraction.">
<polygon fill="white" stroke="#666666" points="532.75,-19.25 446.25,-19.25 446.25,0 532.75,0 532.75,-19.25"/>
<text text-anchor="middle" x="489.5" y="-5.75" font-family="Times,serif" font-size="10.00">mal_math::refract</text>
</a>
</g>
</g>
<!-- Node1&#45;&gt;Node25 -->
<g id="edge30_Node000001_Node000025" class="edge">
<title>Node1&#45;&gt;Node25</title>
<g id="a_edge30_Node000001_Node000025"><a xlink:title=" ">
<path fill="none" stroke="#63b8ff" d="M619.87,-326.34C613.4,-262.1 591.08,-71.81 550,-27.62 545.37,-22.65 539.42,-19.03 533.07,-16.4"/>
<polygon fill="#63b8ff" stroke="#63b8ff" points="616.38,-326.62 620.83,-336.23 623.35,-325.94 616.38,-326.62"/>
</a>
</g>
</g>
<!-- Node4 -->
<g id="Node000004" class="node">
<title>Node4</title>
<g id="a_Node000004"><a xlink:href="../../d2/dd8/structmal__math_1_1_sphere.html#a16d1dfc076a08ee64ff10aff05669da4" target="_top" xlink:title="Determines if a Ray intersects with the Sphere.">
<polygon fill="white" stroke="#666666" points="246.5,-414.25 119.5,-414.25 119.5,-395 246.5,-395 246.5,-414.25"/>
<text text-anchor="middle" x="183" y="-400.75" font-family="Times,serif" font-size="10.00">mal_math::Sphere::Intersect</text>
</a>
</g>
</g>
<!-- Node3&#45;&gt;Node4 -->
<g id="edge3_Node000003_Node000004" class="edge">
<title>Node3&#45;&gt;Node4</title>
<g id="a_edge3_Node000003_Node000004"><a xlink:title=" ">
<path fill="none" stroke="#63b8ff" d="M434.57,-504.27C432.65,-505.32 430.78,-506.43 429,-507.62 408,-521.67 415.83,-540.8 393,-551.62 348.62,-572.66 325.83,-574.75 282.5,-551.62 225.86,-521.4 196.05,-442.55 187.01,-414.61"/>
<polygon fill="#63b8ff" stroke="#63b8ff" points="435.6,-507.66 443.19,-500.27 432.65,-501.31 435.6,-507.66"/>
</a>
</g>
</g>
<!-- Node7 -->
<g id="Node000007" class="node">
<title>Node7</title>
<g id="a_Node000007"><a xlink:href="../../d3/dc1/structmal__math_1_1_triangle.html#a2b3747420339d9b11d7c8f9cede86e6e" target="_top" xlink:title="Determines if a ray intersects with this triangle.">
<polygon fill="white" stroke="#666666" points="384.38,-542.88 291.12,-542.88 291.12,-512.38 384.38,-512.38 384.38,-542.88"/>
<text text-anchor="start" x="299.12" y="-529.38" font-family="Times,serif" font-size="10.00">mal_math::Triangle</text>
<text text-anchor="middle" x="337.75" y="-518.12" font-family="Times,serif" font-size="10.00">::Intersect</text>
</a>
</g>
</g>
<!-- Node6&#45;&gt;Node7 -->
<g id="edge6_Node000006_Node000007" class="edge">
<title>Node6&#45;&gt;Node7</title>
<g id="a_edge6_Node000006_Node000007"><a xlink:title=" ">
<path fill="none" stroke="#63b8ff" d="M432.96,-430.34C431.59,-431.38 430.26,-432.48 429,-433.62 403.38,-456.86 418.05,-478.77 393,-502.62 389.32,-506.13 385.06,-509.21 380.58,-511.89"/>
<polygon fill="#63b8ff" stroke="#63b8ff" points="434.84,-433.3 441.36,-424.95 431.05,-427.41 434.84,-433.3"/>
</a>
</g>
</g>
<!-- Node8 -->
<g id="Node000008" class="node">
<title>Node8</title>
<g id="a_Node000008"><a xlink:href="../../d3/dc1/structmal__math_1_1_triangle.html#a5c67412b71f174a92313b79d54b9a1b2" target="_top" xlink:title="Determines if a ray intersects with this triangle and updates intersection details.">
<polygon fill="white" stroke="#666666" points="384.38,-493.88 291.12,-493.88 291.12,-463.38 384.38,-463.38 384.38,-493.88"/>
<text text-anchor="start" x="299.12" y="-480.38" font-family="Times,serif" font-size="10.00">mal_math::Triangle</text>
<text text-anchor="middle" x="337.75" y="-469.12" font-family="Times,serif" font-size="10.00">::Intersect</text>
</a>
</g>
</g>
<!-- Node6&#45;&gt;Node8 -->
<g id="edge7_Node000006_Node000008" class="edge">
<title>Node6&#45;&gt;Node8</title>
<g id="a_edge7_Node000006_Node000008"><a xlink:title=" ">
<path fill="none" stroke="#63b8ff" d="M437.28,-429.81C434.46,-431.07 431.69,-432.34 429,-433.62 412.48,-441.51 409.32,-445.34 393,-453.62 386.8,-456.77 380.13,-459.98 373.66,-463.01"/>
<polygon fill="#63b8ff" stroke="#63b8ff" points="438.38,-433.14 446.17,-425.96 435.6,-426.72 438.38,-433.14"/>
</a>
</g>
</g>
<!-- Node9 -->
<g id="Node000009" class="node">
<title>Node9</title>
<g id="a_Node000009"><a xlink:href="../../d3/dc1/structmal__math_1_1_triangle.html#af99f2bd3f4549825492e1908ee61c8c5" target="_top" xlink:title="Determines if a ray intersects with the triangle and updates intersection details.">
<polygon fill="white" stroke="#666666" points="384.38,-444.88 291.12,-444.88 291.12,-414.38 384.38,-414.38 384.38,-444.88"/>
<text text-anchor="start" x="299.12" y="-431.38" font-family="Times,serif" font-size="10.00">mal_math::Triangle</text>
<text text-anchor="middle" x="337.75" y="-420.12" font-family="Times,serif" font-size="10.00">::Intersect</text>
</a>
</g>
</g>
<!-- Node6&#45;&gt;Node9 -->
<g id="edge8_Node000006_Node000009" class="edge">
<title>Node6&#45;&gt;Node9</title>
<g id="a_edge8_Node000006_Node000009"><a xlink:title=" ">
<path fill="none" stroke="#63b8ff" d="M431.69,-417.21C416.18,-419.28 399.56,-421.5 384.73,-423.48"/>
<polygon fill="#63b8ff" stroke="#63b8ff" points="431.81,-420.73 441.26,-415.93 430.88,-413.79 431.81,-420.73"/>
</a>
</g>
</g>
<!-- Node11&#45;&gt;Node4 -->
<g id="edge13_Node000011_Node000004" class="edge">
<title>Node11&#45;&gt;Node4</title>
<g id="a_edge13_Node000011_Node000004"><a xlink:title=" ">
<path fill="none" stroke="#63b8ff" d="M469.06,-290.27C457.28,-301.14 442.05,-315.45 429,-328.62 412.4,-345.39 413.7,-356.31 393,-367.62 348.06,-392.19 290.3,-400.99 246.9,-403.9"/>
<polygon fill="#63b8ff" stroke="#63b8ff" points="471.19,-293.08 476.2,-283.74 466.46,-287.92 471.19,-293.08"/>
</a>
</g>
</g>
<!-- Node12 -->
<g id="Node000012" class="node">
<title>Node12</title>
<g id="a_Node000012"><a xlink:href="../../d1/d1d/namespacemal__math.html#a70273f9f35b9c5fafb0c4c027a0cc427" target="_top" xlink:title="Compute the distance between two vectors.">
<polygon fill="white" stroke="#666666" points="384.38,-358.25 291.12,-358.25 291.12,-339 384.38,-339 384.38,-358.25"/>
<text text-anchor="middle" x="337.75" y="-344.75" font-family="Times,serif" font-size="10.00">mal_math::distance</text>
</a>
</g>
</g>
<!-- Node11&#45;&gt;Node12 -->
<g id="edge11_Node000011_Node000012" class="edge">
<title>Node11&#45;&gt;Node12</title>
<g id="a_edge11_Node000011_Node000012"><a xlink:title=" ">
<path fill="none" stroke="#63b8ff" d="M461.12,-288.31C442.2,-298.96 416.33,-313.14 393,-324.62 383.21,-329.45 372.22,-334.39 362.71,-338.53"/>
<polygon fill="#63b8ff" stroke="#63b8ff" points="462.83,-291.36 469.81,-283.39 459.38,-285.27 462.83,-291.36"/>
</a>
</g>
</g>
<!-- Node14 -->
<g id="Node000014" class="node">
<title>Node14</title>
<g id="a_Node000014"><a xlink:href="../../d1/d1d/namespacemal__math.html#abe612f1321c4a59501c42f7759feaba4" target="_top" xlink:title="Normalizes a quaternion.">
<polygon fill="white" stroke="#666666" points="387.38,-282.25 288.12,-282.25 288.12,-263 387.38,-263 387.38,-282.25"/>
<text text-anchor="middle" x="337.75" y="-268.75" font-family="Times,serif" font-size="10.00">mal_math::normalize</text>
</a>
</g>
</g>
<!-- Node11&#45;&gt;Node14 -->
<g id="edge14_Node000011_Node000014" class="edge">
<title>Node11&#45;&gt;Node14</title>
<g id="a_edge14_Node000011_Node000014"><a xlink:title=" ">
<path fill="none" stroke="#63b8ff" d="M435.7,-272.62C420.07,-272.62 403.03,-272.62 387.66,-272.62"/>
<polygon fill="#63b8ff" stroke="#63b8ff" points="435.27,-276.13 445.27,-272.63 435.27,-269.13 435.27,-276.13"/>
</a>
</g>
</g>
<!-- Node16 -->
<g id="Node000016" class="node">
<title>Node16</title>
<g id="a_Node000016"><a xlink:href="../../d9/d76/structmal__math_1_1qua.html#a76e9e79edda5b35e32e583dc638ad252" target="_top" xlink:title="Constructs a quaternion from an angle and rotation axis.">
<polygon fill="white" stroke="#666666" points="229.62,-328.25 136.38,-328.25 136.38,-309 229.62,-309 229.62,-328.25"/>
<text text-anchor="middle" x="183" y="-314.75" font-family="Times,serif" font-size="10.00">mal_math::qua::qua</text>
</a>
</g>
</g>
<!-- Node11&#45;&gt;Node16 -->
<g id="edge24_Node000011_Node000016" class="edge">
<title>Node11&#45;&gt;Node16</title>
<g id="a_edge24_Node000011_Node000016"><a xlink:title=" ">
<path fill="none" stroke="#63b8ff" d="M435.9,-283.76C421.98,-286.52 406.95,-289.34 393,-291.62 337.04,-300.8 272.22,-308.76 229.79,-313.62"/>
<polygon fill="#63b8ff" stroke="#63b8ff" points="436.18,-287.27 445.29,-281.86 434.8,-280.41 436.18,-287.27"/>
</a>
</g>
</g>
<!-- Node20 -->
<g id="Node000020" class="node">
<title>Node20</title>
<g id="a_Node000020"><a xlink:href="../../de/db9/structmal__math_1_1_plane.html#a568a7d2c844bc73f43611217334106f9" target="_top" xlink:title="Updates the plane&#39;s vectors and normal based on two new vectors.">
<polygon fill="white" stroke="#666666" points="239.75,-186.88 126.25,-186.88 126.25,-156.38 239.75,-156.38 239.75,-186.88"/>
<text text-anchor="start" x="134.25" y="-173.38" font-family="Times,serif" font-size="10.00">mal_math::Plane::update</text>
<text text-anchor="middle" x="183" y="-162.12" font-family="Times,serif" font-size="10.00">_plane</text>
</a>
</g>
</g>
<!-- Node11&#45;&gt;Node20 -->
<g id="edge27_Node000011_Node000020" class="edge">
<title>Node11&#45;&gt;Node20</title>
<g id="a_edge27_Node000011_Node000020"><a xlink:title=" ">
<path fill="none" stroke="#63b8ff" d="M435.46,-261.28C393.24,-251.46 333.05,-235.69 282.5,-215.62 265.68,-208.95 262.92,-204.22 246.5,-196.62 239.6,-193.44 232.18,-190.26 224.94,-187.28"/>
<polygon fill="#63b8ff" stroke="#63b8ff" points="434.6,-264.67 445.13,-263.49 436.16,-257.85 434.6,-264.67"/>
</a>
</g>
</g>
<!-- Node21 -->
<g id="Node000021" class="node">
<title>Node21</title>
<g id="a_Node000021"><a xlink:href="../../d1/d1d/namespacemal__math.html#a1cc95439dc8db428b1b9f7c1ec9aba5a" target="_top" xlink:title="Normalize the given vector.">
<polygon fill="white" stroke="#666666" points="387.38,-206.25 288.12,-206.25 288.12,-187 387.38,-187 387.38,-206.25"/>
<text text-anchor="middle" x="337.75" y="-192.75" font-family="Times,serif" font-size="10.00">mal_math::normalize</text>
</a>
</g>
</g>
<!-- Node11&#45;&gt;Node21 -->
<g id="edge23_Node000011_Node000021" class="edge">
<title>Node11&#45;&gt;Node21</title>
<g id="a_edge23_Node000011_Node000021"><a xlink:title=" ">
<path fill="none" stroke="#63b8ff" d="M461.12,-256.94C442.2,-246.29 416.33,-232.11 393,-220.62 383.21,-215.8 372.22,-210.86 362.71,-206.72"/>
<polygon fill="#63b8ff" stroke="#63b8ff" points="459.38,-259.98 469.81,-261.86 462.83,-253.89 459.38,-259.98"/>
</a>
</g>
</g>
<!-- Node22 -->
<g id="Node000022" class="node">
<title>Node22</title>
<g id="a_Node000022"><a xlink:href="../../d7/d3f/structmal__math_1_1_t_box.html#a3783194457bcf643aeabd8b62bc5592c" target="_top" xlink:title="Returns the radius of a sphere that tightly encloses the box.">
<polygon fill="white" stroke="#666666" points="393,-169.25 282.5,-169.25 282.5,-150 393,-150 393,-169.25"/>
<text text-anchor="middle" x="337.75" y="-155.75" font-family="Times,serif" font-size="10.00">mal_math::TBox::radius</text>
</a>
</g>
</g>
<!-- Node11&#45;&gt;Node22 -->
<g id="edge25_Node000011_Node000022" class="edge">
<title>Node11&#45;&gt;Node22</title>
<g id="a_edge25_Node000011_Node000022"><a xlink:title=" ">
<path fill="none" stroke="#63b8ff" d="M474.11,-253.77C456.94,-232.48 426.36,-198.15 393,-177.62 388.01,-174.56 382.44,-171.95 376.82,-169.75"/>
<polygon fill="#63b8ff" stroke="#63b8ff" points="471.34,-255.91 480.27,-261.6 476.84,-251.58 471.34,-255.91"/>
</a>
</g>
</g>
<!-- Node23 -->
<g id="Node000023" class="node">
<title>Node23</title>
<g id="a_Node000023"><a xlink:href="../../d1/d1d/namespacemal__math.html#ac450bfaa356fc4830954be733bcf465b" target="_top" xlink:title="Compute the unit vector (normalized vector) of the given vector.">
<polygon fill="white" stroke="#666666" points="390.75,-132.25 284.75,-132.25 284.75,-113 390.75,-113 390.75,-132.25"/>
<text text-anchor="middle" x="337.75" y="-118.75" font-family="Times,serif" font-size="10.00">mal_math::unit_vector</text>
</a>
</g>
</g>
<!-- Node11&#45;&gt;Node23 -->
<g id="edge26_Node000011_Node000023" class="edge">
<title>Node11&#45;&gt;Node23</title>
<g id="a_edge26_Node000011_Node000023"><a xlink:title=" ">
<path fill="none" stroke="#63b8ff" d="M479.13,-252.63C464.63,-223.81 434.09,-170.74 393,-140.62 388.68,-137.46 383.77,-134.83 378.7,-132.64"/>
<polygon fill="#63b8ff" stroke="#63b8ff" points="475.85,-253.9 483.38,-261.36 482.15,-250.84 475.85,-253.9"/>
</a>
</g>
</g>
<!-- Node13 -->
<g id="Node000013" class="node">
<title>Node13</title>
<g id="a_Node000013"><a xlink:href="../../de/d54/namespacemal__math_1_1random_1_1poisson__disc_1_1__detail.html#a5fc2fd014656cd15396002f5cdc8df16" target="_top" xlink:title="Generates a set of points distributed according to Poisson Disk Sampling.">
<polygon fill="white" stroke="#666666" points="245.38,-376.88 120.62,-376.88 120.62,-346.38 245.38,-346.38 245.38,-376.88"/>
<text text-anchor="start" x="128.62" y="-363.38" font-family="Times,serif" font-size="10.00">mal_math::random::poisson</text>
<text text-anchor="middle" x="183" y="-352.12" font-family="Times,serif" font-size="10.00">_disc::_detail::PoissonDisc</text>
</a>
</g>
</g>
<!-- Node12&#45;&gt;Node13 -->
<g id="edge12_Node000012_Node000013" class="edge">
<title>Node12&#45;&gt;Node13</title>
<g id="a_edge12_Node000012_Node000013"><a xlink:title=" ">
<path fill="none" stroke="#63b8ff" d="M279.61,-353.49C268.52,-354.43 256.85,-355.42 245.62,-356.38"/>
<polygon fill="#63b8ff" stroke="#63b8ff" points="279.74,-356.99 289.41,-352.65 279.15,-350.01 279.74,-356.99"/>
</a>
</g>
</g>
<!-- Node14&#45;&gt;Node4 -->
<g id="edge15_Node000014_Node000004" class="edge">
<title>Node14&#45;&gt;Node4</title>
<g id="a_edge15_Node000014_Node000004"><a xlink:title=" ">
<path fill="none" stroke="#63b8ff" d="M318.09,-290.46C307.17,-301.31 293.42,-315.72 282.5,-329.62 264.22,-352.89 270.1,-367.78 246.5,-385.62 241.71,-389.25 236.22,-392.19 230.53,-394.57"/>
<polygon fill="#63b8ff" stroke="#63b8ff" points="320.34,-293.14 325.05,-283.65 315.45,-288.14 320.34,-293.14"/>
</a>
</g>
</g>
<!-- Node14&#45;&gt;Node15 -->
<g id="edge16_Node000014_Node000015" class="edge">
<title>Node14&#45;&gt;Node15</title>
<g id="a_edge16_Node000014_Node000015"><a xlink:title=" ">
<path fill="none" stroke="#63b8ff" d="M317.65,-255.12C306.58,-244.38 292.83,-229.97 282.5,-215.62 262.53,-187.87 270.1,-172.37 246.5,-147.62 235.54,-136.13 220.22,-126.98 207.5,-120.66"/>
<polygon fill="#63b8ff" stroke="#63b8ff" points="315.07,-257.5 324.74,-261.84 319.88,-252.42 315.07,-257.5"/>
</a>
</g>
</g>
<!-- Node14&#45;&gt;Node16 -->
<g id="edge17_Node000014_Node000016" class="edge">
<title>Node14&#45;&gt;Node16</title>
<g id="a_edge17_Node000014_Node000016"><a xlink:title=" ">
<path fill="none" stroke="#63b8ff" d="M294.46,-285.94C279.35,-290.65 262.18,-295.93 246.5,-300.62 237.74,-303.25 228.26,-306.01 219.4,-308.56"/>
<polygon fill="#63b8ff" stroke="#63b8ff" points="295.11,-289.41 303.61,-283.08 293.02,-282.72 295.11,-289.41"/>
</a>
</g>
</g>
<!-- Node17 -->
<g id="Node000017" class="node">
<title>Node17</title>
<g id="a_Node000017"><a xlink:href="../../d1/d1d/namespacemal__math.html#a3e5409e48ad66d42b0f0643bf4591163" target="_top" xlink:title="Rotates a matrix by a given angle around a given axis.">
<polygon fill="white" stroke="#666666" points="224.75,-273.25 141.25,-273.25 141.25,-254 224.75,-254 224.75,-273.25"/>
<text text-anchor="middle" x="183" y="-259.75" font-family="Times,serif" font-size="10.00">mal_math::rotate</text>
</a>
</g>
</g>
<!-- Node14&#45;&gt;Node17 -->
<g id="edge18_Node000014_Node000017" class="edge">
<title>Node14&#45;&gt;Node17</title>
<g id="a_edge18_Node000014_Node000017"><a xlink:title=" ">
<path fill="none" stroke="#63b8ff" d="M276.83,-269.09C259.51,-268.07 241.01,-266.98 225.12,-266.05"/>
<polygon fill="#63b8ff" stroke="#63b8ff" points="276.3,-272.57 286.49,-269.66 276.71,-265.58 276.3,-272.57"/>
</a>
</g>
</g>
<!-- Node19 -->
<g id="Node000019" class="node">
<title>Node19</title>
<g id="a_Node000019"><a xlink:href="../../db/d90/namespacemal__math_1_1random_1_1__detail.html#a8a729c12da52b3aa8764cbd4ebe7252f" target="_top" xlink:title="Generates a unit vector with random direction.">
<polygon fill="white" stroke="#666666" points="232.25,-235.88 133.75,-235.88 133.75,-205.38 232.25,-205.38 232.25,-235.88"/>
<text text-anchor="start" x="141.75" y="-222.38" font-family="Times,serif" font-size="10.00">mal_math::random::</text>
<text text-anchor="middle" x="183" y="-211.12" font-family="Times,serif" font-size="10.00">_detail::UnitRandom</text>
</a>
</g>
</g>
<!-- Node14&#45;&gt;Node19 -->
<g id="edge21_Node000014_Node000019" class="edge">
<title>Node14&#45;&gt;Node19</title>
<g id="a_edge21_Node000014_Node000019"><a xlink:title=" ">
<path fill="none" stroke="#63b8ff" d="M296.5,-258.92C276.14,-251.99 251.33,-243.54 230.19,-236.35"/>
<polygon fill="#63b8ff" stroke="#63b8ff" points="295.27,-262.2 305.87,-262.11 297.53,-255.58 295.27,-262.2"/>
</a>
</g>
</g>
<!-- Node14&#45;&gt;Node20 -->
<g id="edge22_Node000014_Node000020" class="edge">
<title>Node14&#45;&gt;Node20</title>
<g id="a_edge22_Node000014_Node000020"><a xlink:title=" ">
<path fill="none" stroke="#63b8ff" d="M296.07,-257.64C291.25,-255.01 286.6,-252.02 282.5,-248.62 260.84,-230.71 268.48,-214.14 246.5,-196.62 242.02,-193.06 236.97,-189.94 231.72,-187.23"/>
<polygon fill="#63b8ff" stroke="#63b8ff" points="294.18,-260.62 304.71,-261.86 297.26,-254.32 294.18,-260.62"/>
</a>
</g>
</g>
<!-- Node17&#45;&gt;Node17 -->
<g id="edge20_Node000017_Node000017" class="edge">
<title>Node17&#45;&gt;Node17</title>
<g id="a_edge20_Node000017_Node000017"><a xlink:title=" ">
<path fill="none" stroke="#63b8ff" d="M208.07,-284.65C204.94,-288.53 196.58,-291.25 183,-291.25 158.17,-291.25 150.8,-282.15 160.89,-273.54"/>
<polygon fill="#63b8ff" stroke="#63b8ff" points="211.46,-283.76 205.5,-275 204.69,-285.56 211.46,-283.76"/>
</a>
</g>
</g>
<!-- Node18 -->
<g id="Node000018" class="node">
<title>Node18</title>
<g id="a_Node000018"><a xlink:href="../../d1/d1d/namespacemal__math.html#ae2ea884f0e0c63166d344b52a7633934" target="_top" xlink:title="Rotates a 4x4 matrix using a quaternion.">
<polygon fill="white" stroke="#666666" points="83.5,-273.25 0,-273.25 0,-254 83.5,-254 83.5,-273.25"/>
<text text-anchor="middle" x="41.75" y="-259.75" font-family="Times,serif" font-size="10.00">mal_math::rotate</text>
</a>
</g>
</g>
<!-- Node17&#45;&gt;Node18 -->
<g id="edge19_Node000017_Node000018" class="edge">
<title>Node17&#45;&gt;Node18</title>
<g id="a_edge19_Node000017_Node000018"><a xlink:title=" ">
<path fill="none" stroke="#63b8ff" d="M129.69,-263.62C114.58,-263.62 98.3,-263.62 83.96,-263.62"/>
<polygon fill="#63b8ff" stroke="#63b8ff" points="129.46,-267.13 139.46,-263.63 129.46,-260.13 129.46,-267.13"/>
</a>
</g>
</g>
</g>
</svg>

<g id="navigator" transform="translate(0 0)" fill="#404254">
  <rect fill="#f2f5e9" fill-opacity="0.5" stroke="#606060" stroke-width=".5" x="0" y="0" width="60" height="60"/>
  <use id="zoomplus" xlink:href="#zoomPlus" x="17" y="9" onmousedown="handleZoom(evt,'in')"/>
  <use id="zoomminus" xlink:href="#zoomMin" x="42" y="9" onmousedown="handleZoom(evt,'out')"/>
  <use id="reset" xlink:href="#resetDef" x="30" y="36" onmousedown="handleReset()"/>
   <use id="arrowup" xlink:href="#arrowUp" x="0" y="0" onmousedown="handlePan(0,-1)"/>
  <use id="arrowright" xlink:href="#arrowRight" x="0" y="0" onmousedown="handlePan(1,0)"/>
  <use id="arrowdown" xlink:href="#arrowDown" x="0" y="0" onmousedown="handlePan(0,1)"/>
  <use id="arrowleft" xlink:href="#arrowLeft" x="0" y="0" onmousedown="handlePan(-1,0)"/>
</g>
<svg viewBox="0 0 15 15" width="100%" height="30px" preserveAspectRatio="xMaxYMin meet">
 <g id="arrow_out" transform="scale(0.3 0.3)">
  <a xlink:href="namespacemal__math_aab7b54d530da999aae378287a25da1c0_icgraph_org.svg" target="_base">
   <rect id="button" ry="5" rx="5" y="6" x="6" height="38" width="38"
        fill="#f2f5e9" fill-opacity="0.5" stroke="#606060" stroke-width="1.0"/>
   <path id="arrow"
     d="M 11.500037,31.436501 C 11.940474,20.09759 22.043105,11.32322 32.158766,21.979434 L 37.068811,17.246167 C 37.068811,17.246167 37.088388,32 37.088388,32 L 22.160133,31.978069 C 22.160133,31.978069 26.997745,27.140456 26.997745,27.140456 C 18.528582,18.264221 13.291696,25.230495 11.500037,31.436501 z"
     style="fill:#404040;"/>
  </a>
 </g>
</svg>

<style type='text/css'>
<![CDATA[
[data-mouse-over-selected='false'] { opacity: 0.7; }
[data-mouse-over-selected='true']  { opacity: 1.0; }
]]>
</style>
<script type="application/ecmascript"><![CDATA[
document.addEventListener('DOMContentLoaded', (event) => {
  highlightEdges();
  highlightAdjacentNodes();
});
]]></script>
</svg>
