<?xml version="1.0" encoding="UTF-8" standalone="no"?>
<!DOCTYPE svg PUBLIC "-//W3C//DTD SVG 1.1//EN"
 "http://www.w3.org/Graphics/SVG/1.1/DTD/svg11.dtd">
<!-- Generated by graphviz version 9.0.0 (20230911.1827)
 -->
<!-- Title: mal_math::cos Pages: 1 -->
<svg width="527pt" height="168pt"
 viewBox="0.00 0.00 527.25 167.88" xmlns="http://www.w3.org/2000/svg" xmlns:xlink="http://www.w3.org/1999/xlink">
<g id="graph0" class="graph" transform="scale(1 1) rotate(0) translate(4 163.88)">
<title>mal_math::cos</title>
<!-- Node1 -->
<g id="Node000001" class="node">
<title>Node1</title>
<g id="a_Node000001"><a xlink:title=" ">
<polygon fill="#999999" stroke="#666666" points="519.25,-85.88 445.5,-85.88 445.5,-66.62 519.25,-66.62 519.25,-85.88"/>
<text text-anchor="middle" x="482.38" y="-72.38" font-family="Times,serif" font-size="10.00">mal_math::cos</text>
</a>
</g>
</g>
<!-- Node2 -->
<g id="Node000002" class="node">
<title>Node2</title>
<g id="a_Node000002"><a xlink:href="../../d1/d1d/namespacemal__math.html#a536e0e1ac498d427d7d51bce8ed5e50b" target="_top" xlink:title="Computes the angle (or magnitude) of a quaternion.">
<polygon fill="white" stroke="#666666" points="386.62,-141.88 305.38,-141.88 305.38,-122.62 386.62,-122.62 386.62,-141.88"/>
<text text-anchor="middle" x="346" y="-128.38" font-family="Times,serif" font-size="10.00">mal_math::angle</text>
</a>
</g>
</g>
<!-- Node1&#45;&gt;Node2 -->
<g id="edge1_Node000001_Node000002" class="edge">
<title>Node1&#45;&gt;Node2</title>
<g id="a_edge1_Node000001_Node000002"><a xlink:title=" ">
<path fill="none" stroke="#63b8ff" d="M454.82,-91.97C441.52,-99.41 424.99,-108 409.5,-114.25 402.27,-117.16 394.4,-119.82 386.76,-122.13"/>
<polygon fill="#63b8ff" stroke="#63b8ff" points="456.45,-95.07 463.4,-87.08 452.98,-89 456.45,-95.07"/>
</a>
</g>
</g>
<!-- Node5 -->
<g id="Node000005" class="node">
<title>Node5</title>
<g id="a_Node000005"><a xlink:href="../../d1/d1d/namespacemal__math.html#a79f7279123ce203380ce38f98bf661af" target="_top" xlink:title=" ">
<polygon fill="white" stroke="#666666" points="382.88,-104.88 309.12,-104.88 309.12,-85.62 382.88,-85.62 382.88,-104.88"/>
<text text-anchor="middle" x="346" y="-91.38" font-family="Times,serif" font-size="10.00">mal_math::cos</text>
</a>
</g>
</g>
<!-- Node1&#45;&gt;Node5 -->
<g id="edge5_Node000001_Node000005" class="edge">
<title>Node1&#45;&gt;Node5</title>
<g id="a_edge5_Node000001_Node000005"><a xlink:title=" ">
<path fill="none" stroke="#63b8ff" d="M433.77,-82.98C417.04,-85.35 398.54,-87.96 382.93,-90.17"/>
<polygon fill="#63b8ff" stroke="#63b8ff" points="434.1,-86.47 443.51,-81.6 433.12,-79.54 434.1,-86.47"/>
</a>
</g>
</g>
<!-- Node6 -->
<g id="Node000006" class="node">
<title>Node6</title>
<g id="a_Node000006"><a xlink:href="../../d9/d76/structmal__math_1_1qua.html#a76e9e79edda5b35e32e583dc638ad252" target="_top" xlink:title="Constructs a quaternion from an angle and rotation axis.">
<polygon fill="white" stroke="#666666" points="392.62,-67.88 299.38,-67.88 299.38,-48.62 392.62,-48.62 392.62,-67.88"/>
<text text-anchor="middle" x="346" y="-54.38" font-family="Times,serif" font-size="10.00">mal_math::qua::qua</text>
</a>
</g>
</g>
<!-- Node1&#45;&gt;Node6 -->
<g id="edge6_Node000001_Node000006" class="edge">
<title>Node1&#45;&gt;Node6</title>
<g id="a_edge6_Node000001_Node000006"><a xlink:title=" ">
<path fill="none" stroke="#63b8ff" d="M433.73,-69.87C420.5,-68.1 406.16,-66.17 393.02,-64.41"/>
<polygon fill="#63b8ff" stroke="#63b8ff" points="433.13,-73.32 443.51,-71.18 434.06,-66.38 433.13,-73.32"/>
</a>
</g>
</g>
<!-- Node7 -->
<g id="Node000007" class="node">
<title>Node7</title>
<g id="a_Node000007"><a xlink:href="../../d1/d1d/namespacemal__math.html#ad3f11e8c21758e34e6d24558f177ddc9" target="_top" xlink:title="Creates a quaternion from Euler angles given in a vector.">
<polygon fill="white" stroke="#666666" points="409.5,-30.5 282.5,-30.5 282.5,0 409.5,0 409.5,-30.5"/>
<text text-anchor="start" x="290.5" y="-17" font-family="Times,serif" font-size="10.00">mal_math::QuaternionFrom</text>
<text text-anchor="middle" x="346" y="-5.75" font-family="Times,serif" font-size="10.00">Euler</text>
</a>
</g>
</g>
<!-- Node1&#45;&gt;Node7 -->
<g id="edge7_Node000001_Node000007" class="edge">
<title>Node1&#45;&gt;Node7</title>
<g id="a_edge7_Node000001_Node000007"><a xlink:title=" ">
<path fill="none" stroke="#63b8ff" d="M453.46,-60.98C440.29,-54.01 424.26,-45.86 409.5,-39.25 403.14,-36.4 396.32,-33.57 389.62,-30.9"/>
<polygon fill="#63b8ff" stroke="#63b8ff" points="451.52,-63.92 461.99,-65.55 454.83,-57.75 451.52,-63.92"/>
</a>
</g>
</g>
<!-- Node3 -->
<g id="Node000003" class="node">
<title>Node3</title>
<g id="a_Node000003"><a xlink:href="../../d1/d1d/namespacemal__math.html#a3e5409e48ad66d42b0f0643bf4591163" target="_top" xlink:title="Rotates a matrix by a given angle around a given axis.">
<polygon fill="white" stroke="#666666" points="224.75,-141.88 141.25,-141.88 141.25,-122.62 224.75,-122.62 224.75,-141.88"/>
<text text-anchor="middle" x="183" y="-128.38" font-family="Times,serif" font-size="10.00">mal_math::rotate</text>
</a>
</g>
</g>
<!-- Node2&#45;&gt;Node3 -->
<g id="edge2_Node000002_Node000003" class="edge">
<title>Node2&#45;&gt;Node3</title>
<g id="a_edge2_Node000002_Node000003"><a xlink:title=" ">
<path fill="none" stroke="#63b8ff" d="M293.93,-132.25C271.7,-132.25 245.99,-132.25 225.02,-132.25"/>
<polygon fill="#63b8ff" stroke="#63b8ff" points="293.69,-135.75 303.69,-132.25 293.69,-128.75 293.69,-135.75"/>
</a>
</g>
</g>
<!-- Node3&#45;&gt;Node3 -->
<g id="edge4_Node000003_Node000003" class="edge">
<title>Node3&#45;&gt;Node3</title>
<g id="a_edge4_Node000003_Node000003"><a xlink:title=" ">
<path fill="none" stroke="#63b8ff" d="M208.07,-153.28C204.94,-157.15 196.58,-159.88 183,-159.88 158.17,-159.88 150.8,-150.77 160.89,-142.16"/>
<polygon fill="#63b8ff" stroke="#63b8ff" points="211.46,-152.39 205.5,-143.63 204.69,-154.19 211.46,-152.39"/>
</a>
</g>
</g>
<!-- Node4 -->
<g id="Node000004" class="node">
<title>Node4</title>
<g id="a_Node000004"><a xlink:href="../../d1/d1d/namespacemal__math.html#ae2ea884f0e0c63166d344b52a7633934" target="_top" xlink:title="Rotates a 4x4 matrix using a quaternion.">
<polygon fill="white" stroke="#666666" points="83.5,-141.88 0,-141.88 0,-122.62 83.5,-122.62 83.5,-141.88"/>
<text text-anchor="middle" x="41.75" y="-128.38" font-family="Times,serif" font-size="10.00">mal_math::rotate</text>
</a>
</g>
</g>
<!-- Node3&#45;&gt;Node4 -->
<g id="edge3_Node000003_Node000004" class="edge">
<title>Node3&#45;&gt;Node4</title>
<g id="a_edge3_Node000003_Node000004"><a xlink:title=" ">
<path fill="none" stroke="#63b8ff" d="M129.69,-132.25C114.58,-132.25 98.3,-132.25 83.96,-132.25"/>
<polygon fill="#63b8ff" stroke="#63b8ff" points="129.46,-135.75 139.46,-132.25 129.46,-128.75 129.46,-135.75"/>
</a>
</g>
</g>
<!-- Node8 -->
<g id="Node000008" class="node">
<title>Node8</title>
<g id="a_Node000008"><a xlink:href="../../d1/d1d/namespacemal__math.html#a58cd6b68785c108f943056ae8f463d4c" target="_top" xlink:title="Creates a quaternion from individual Euler angles.">
<polygon fill="white" stroke="#666666" points="246.5,-30.5 119.5,-30.5 119.5,0 246.5,0 246.5,-30.5"/>
<text text-anchor="start" x="127.5" y="-17" font-family="Times,serif" font-size="10.00">mal_math::QuaternionFrom</text>
<text text-anchor="middle" x="183" y="-5.75" font-family="Times,serif" font-size="10.00">Euler</text>
</a>
</g>
</g>
<!-- Node7&#45;&gt;Node8 -->
<g id="edge8_Node000007_Node000008" class="edge">
<title>Node7&#45;&gt;Node8</title>
<g id="a_edge8_Node000007_Node000008"><a xlink:title=" ">
<path fill="none" stroke="#63b8ff" d="M270.97,-15.25C262.89,-15.25 254.72,-15.25 246.8,-15.25"/>
<polygon fill="#63b8ff" stroke="#63b8ff" points="270.78,-18.75 280.78,-15.25 270.78,-11.75 270.78,-18.75"/>
</a>
</g>
</g>
</g>
</svg>
