<?xml version="1.0" encoding="UTF-8" standalone="no"?>
<!DOCTYPE svg PUBLIC "-//W3C//DTD SVG 1.1//EN"
 "http://www.w3.org/Graphics/SVG/1.1/DTD/svg11.dtd">
<!-- Generated by graphviz version 9.0.0 (20230911.1827)
 -->
<!-- Title: mal_math::det Pages: 1 -->
<svg width="201pt" height="101pt"
 viewBox="0.00 0.00 200.50 101.25" xmlns="http://www.w3.org/2000/svg" xmlns:xlink="http://www.w3.org/1999/xlink">
<g id="graph0" class="graph" transform="scale(1 1) rotate(0) translate(4 97.25)">
<title>mal_math::det</title>
<!-- Node1 -->
<g id="Node000001" class="node">
<title>Node1</title>
<g id="a_Node000001"><a xlink:title="Calculates the determinant of a square matrix.">
<polygon fill="#999999" stroke="#666666" points="73,-56.25 0,-56.25 0,-37 73,-37 73,-56.25"/>
<text text-anchor="middle" x="36.5" y="-42.75" font-family="Times,serif" font-size="10.00">mal_math::det</text>
</a>
</g>
</g>
<!-- Node2 -->
<g id="Node000002" class="node">
<title>Node2</title>
<g id="a_Node000002"><a xlink:href="../../d1/d1d/namespacemal__math.html#a4ca4a22c985a535c67c1821c42193f59" target="_top" xlink:title=" ">
<polygon fill="white" stroke="#666666" points="192.5,-93.25 109,-93.25 109,-74 192.5,-74 192.5,-93.25"/>
<text text-anchor="middle" x="150.75" y="-79.75" font-family="Times,serif" font-size="10.00">mal_math::det_2</text>
</a>
</g>
</g>
<!-- Node1&#45;&gt;Node2 -->
<g id="edge1_Node000001_Node000002" class="edge">
<title>Node1&#45;&gt;Node2</title>
<g id="a_edge1_Node000001_Node000002"><a xlink:title=" ">
<path fill="none" stroke="#63b8ff" d="M68.17,-56.74C80.55,-60.81 95.01,-65.58 108.3,-69.96"/>
<polygon fill="#63b8ff" stroke="#63b8ff" points="107.08,-73.25 117.68,-73.05 109.28,-66.6 107.08,-73.25"/>
</a>
</g>
</g>
<!-- Node3 -->
<g id="Node000003" class="node">
<title>Node3</title>
<g id="a_Node000003"><a xlink:href="../../d1/d1d/namespacemal__math.html#a684065c9e18fa3625d06a8762bff8dd1" target="_top" xlink:title=" ">
<polygon fill="white" stroke="#666666" points="192.5,-56.25 109,-56.25 109,-37 192.5,-37 192.5,-56.25"/>
<text text-anchor="middle" x="150.75" y="-42.75" font-family="Times,serif" font-size="10.00">mal_math::det_3</text>
</a>
</g>
</g>
<!-- Node1&#45;&gt;Node3 -->
<g id="edge2_Node000001_Node000003" class="edge">
<title>Node1&#45;&gt;Node3</title>
<g id="a_edge2_Node000001_Node000003"><a xlink:title=" ">
<path fill="none" stroke="#63b8ff" d="M73.33,-46.62C81,-46.62 89.26,-46.62 97.41,-46.62"/>
<polygon fill="#63b8ff" stroke="#63b8ff" points="97.28,-50.13 107.28,-46.63 97.28,-43.13 97.28,-50.13"/>
</a>
</g>
</g>
<!-- Node4 -->
<g id="Node000004" class="node">
<title>Node4</title>
<g id="a_Node000004"><a xlink:href="../../d1/d1d/namespacemal__math.html#a7205ab27aa1028ece0e9ad92fa2ac8e3" target="_top" xlink:title=" ">
<polygon fill="white" stroke="#666666" points="192.5,-19.25 109,-19.25 109,0 192.5,0 192.5,-19.25"/>
<text text-anchor="middle" x="150.75" y="-5.75" font-family="Times,serif" font-size="10.00">mal_math::det_4</text>
</a>
</g>
</g>
<!-- Node1&#45;&gt;Node4 -->
<g id="edge3_Node000001_Node000004" class="edge">
<title>Node1&#45;&gt;Node4</title>
<g id="a_edge3_Node000001_Node000004"><a xlink:title=" ">
<path fill="none" stroke="#63b8ff" d="M68.17,-36.51C80.55,-32.44 95.01,-27.67 108.3,-23.29"/>
<polygon fill="#63b8ff" stroke="#63b8ff" points="109.28,-26.65 117.68,-20.2 107.08,-20 109.28,-26.65"/>
</a>
</g>
</g>
</g>
</svg>
