<?xml version="1.0" encoding="UTF-8" standalone="no"?>
<!DOCTYPE svg PUBLIC "-//W3C//DTD SVG 1.1//EN"
 "http://www.w3.org/Graphics/SVG/1.1/DTD/svg11.dtd">
<!-- Generated by graphviz version 9.0.0 (20230911.1827)
 -->
<!-- Title: mal_math::cross Pages: 1 -->
<svg width="367pt" height="211pt"
 viewBox="0.00 0.00 367.25 210.50" xmlns="http://www.w3.org/2000/svg" xmlns:xlink="http://www.w3.org/1999/xlink">
<g id="graph0" class="graph" transform="scale(1 1) rotate(0) translate(4 206.5)">
<title>mal_math::cross</title>
<!-- Node1 -->
<g id="Node000001" class="node">
<title>Node1</title>
<g id="a_Node000001"><a xlink:title="Cross product between quaternion and vector.">
<polygon fill="#999999" stroke="#666666" points="359.25,-85.88 278.75,-85.88 278.75,-66.62 359.25,-66.62 359.25,-85.88"/>
<text text-anchor="middle" x="319" y="-72.38" font-family="Times,serif" font-size="10.00">mal_math::cross</text>
</a>
</g>
</g>
<!-- Node2 -->
<g id="Node000002" class="node">
<title>Node2</title>
<g id="a_Node000002"><a xlink:href="../../d3/dc1/structmal__math_1_1_triangle.html#af4c79ad8378a09c5266336dde0626bac" target="_top" xlink:title="Determines if a ray intersects with the triangle using its vertices.">
<polygon fill="white" stroke="#666666" points="232.62,-153.5 139.38,-153.5 139.38,-123 232.62,-123 232.62,-153.5"/>
<text text-anchor="start" x="147.38" y="-140" font-family="Times,serif" font-size="10.00">mal_math::Triangle</text>
<text text-anchor="middle" x="186" y="-128.75" font-family="Times,serif" font-size="10.00">::Intersect</text>
</a>
</g>
</g>
<!-- Node1&#45;&gt;Node2 -->
<g id="edge1_Node000001_Node000002" class="edge">
<title>Node1&#45;&gt;Node2</title>
<g id="a_edge1_Node000001_Node000002"><a xlink:title=" ">
<path fill="none" stroke="#63b8ff" d="M289.02,-91.4C275.12,-98.54 258.18,-107.04 242.75,-114.25 236.83,-117.02 230.51,-119.85 224.33,-122.56"/>
<polygon fill="#63b8ff" stroke="#63b8ff" points="290.36,-94.65 297.64,-86.95 287.15,-88.43 290.36,-94.65"/>
</a>
</g>
</g>
<!-- Node6 -->
<g id="Node000006" class="node">
<title>Node6</title>
<g id="a_Node000006"><a xlink:href="../../d1/d1d/namespacemal__math.html#ae75c0f78e391bc79564c5ddc63a74612" target="_top" xlink:title="Generates a look&#45;at matrix for camera positioning.">
<polygon fill="white" stroke="#666666" points="231.12,-104.88 140.88,-104.88 140.88,-85.62 231.12,-85.62 231.12,-104.88"/>
<text text-anchor="middle" x="186" y="-91.38" font-family="Times,serif" font-size="10.00">mal_math::look_at</text>
</a>
</g>
</g>
<!-- Node1&#45;&gt;Node6 -->
<g id="edge5_Node000001_Node000006" class="edge">
<title>Node1&#45;&gt;Node6</title>
<g id="a_edge5_Node000001_Node000006"><a xlink:title=" ">
<path fill="none" stroke="#63b8ff" d="M267.3,-83.6C255.52,-85.31 243.06,-87.12 231.56,-88.79"/>
<polygon fill="#63b8ff" stroke="#63b8ff" points="267.45,-87.12 276.84,-82.22 266.44,-80.19 267.45,-87.12"/>
</a>
</g>
</g>
<!-- Node7 -->
<g id="Node000007" class="node">
<title>Node7</title>
<g id="a_Node000007"><a xlink:href="../../d1/d1d/namespacemal__math.html#a560421b2c3c74355e7f93e2cecb680cb" target="_top" xlink:title="Quaternion&#45;Vector multiplication.">
<polygon fill="white" stroke="#666666" points="235.62,-67.88 136.38,-67.88 136.38,-48.62 235.62,-48.62 235.62,-67.88"/>
<text text-anchor="middle" x="186" y="-54.38" font-family="Times,serif" font-size="10.00">mal_math::operator*</text>
</a>
</g>
</g>
<!-- Node1&#45;&gt;Node7 -->
<g id="edge6_Node000001_Node000007" class="edge">
<title>Node1&#45;&gt;Node7</title>
<g id="a_edge6_Node000001_Node000007"><a xlink:title=" ">
<path fill="none" stroke="#63b8ff" d="M267.02,-69.24C256.75,-67.83 245.98,-66.35 235.78,-64.95"/>
<polygon fill="#63b8ff" stroke="#63b8ff" points="266.46,-72.7 276.84,-70.59 267.41,-65.77 266.46,-72.7"/>
</a>
</g>
</g>
<!-- Node8 -->
<g id="Node000008" class="node">
<title>Node8</title>
<g id="a_Node000008"><a xlink:href="../../de/db9/structmal__math_1_1_plane.html#a568a7d2c844bc73f43611217334106f9" target="_top" xlink:title="Updates the plane&#39;s vectors and normal based on two new vectors.">
<polygon fill="white" stroke="#666666" points="242.75,-30.5 129.25,-30.5 129.25,0 242.75,0 242.75,-30.5"/>
<text text-anchor="start" x="137.25" y="-17" font-family="Times,serif" font-size="10.00">mal_math::Plane::update</text>
<text text-anchor="middle" x="186" y="-5.75" font-family="Times,serif" font-size="10.00">_plane</text>
</a>
</g>
</g>
<!-- Node1&#45;&gt;Node8 -->
<g id="edge7_Node000001_Node000008" class="edge">
<title>Node1&#45;&gt;Node8</title>
<g id="a_edge7_Node000001_Node000008"><a xlink:title=" ">
<path fill="none" stroke="#63b8ff" d="M288.41,-61.27C274.61,-54.4 257.92,-46.24 242.75,-39.25 236.82,-36.52 230.49,-33.7 224.3,-31"/>
<polygon fill="#63b8ff" stroke="#63b8ff" points="286.46,-64.21 296.97,-65.56 289.6,-57.95 286.46,-64.21"/>
</a>
</g>
</g>
<!-- Node3 -->
<g id="Node000003" class="node">
<title>Node3</title>
<g id="a_Node000003"><a xlink:href="../../d3/dc1/structmal__math_1_1_triangle.html#a2b3747420339d9b11d7c8f9cede86e6e" target="_top" xlink:title="Determines if a ray intersects with this triangle.">
<polygon fill="white" stroke="#666666" points="93.25,-202.5 0,-202.5 0,-172 93.25,-172 93.25,-202.5"/>
<text text-anchor="start" x="8" y="-189" font-family="Times,serif" font-size="10.00">mal_math::Triangle</text>
<text text-anchor="middle" x="46.62" y="-177.75" font-family="Times,serif" font-size="10.00">::Intersect</text>
</a>
</g>
</g>
<!-- Node2&#45;&gt;Node3 -->
<g id="edge2_Node000002_Node000003" class="edge">
<title>Node2&#45;&gt;Node3</title>
<g id="a_edge2_Node000002_Node000003"><a xlink:title=" ">
<path fill="none" stroke="#63b8ff" d="M130.5,-157.69C117.56,-162.31 103.92,-167.17 91.52,-171.59"/>
<polygon fill="#63b8ff" stroke="#63b8ff" points="131.49,-161.05 139.73,-154.4 129.14,-154.46 131.49,-161.05"/>
</a>
</g>
</g>
<!-- Node4 -->
<g id="Node000004" class="node">
<title>Node4</title>
<g id="a_Node000004"><a xlink:href="../../d3/dc1/structmal__math_1_1_triangle.html#a5c67412b71f174a92313b79d54b9a1b2" target="_top" xlink:title="Determines if a ray intersects with this triangle and updates intersection details.">
<polygon fill="white" stroke="#666666" points="93.25,-153.5 0,-153.5 0,-123 93.25,-123 93.25,-153.5"/>
<text text-anchor="start" x="8" y="-140" font-family="Times,serif" font-size="10.00">mal_math::Triangle</text>
<text text-anchor="middle" x="46.62" y="-128.75" font-family="Times,serif" font-size="10.00">::Intersect</text>
</a>
</g>
</g>
<!-- Node2&#45;&gt;Node4 -->
<g id="edge3_Node000002_Node000004" class="edge">
<title>Node2&#45;&gt;Node4</title>
<g id="a_edge3_Node000002_Node000004"><a xlink:title=" ">
<path fill="none" stroke="#63b8ff" d="M128,-138.25C116.55,-138.25 104.66,-138.25 93.64,-138.25"/>
<polygon fill="#63b8ff" stroke="#63b8ff" points="127.74,-141.75 137.74,-138.25 127.74,-134.75 127.74,-141.75"/>
</a>
</g>
</g>
<!-- Node5 -->
<g id="Node000005" class="node">
<title>Node5</title>
<g id="a_Node000005"><a xlink:href="../../d3/dc1/structmal__math_1_1_triangle.html#af99f2bd3f4549825492e1908ee61c8c5" target="_top" xlink:title="Determines if a ray intersects with the triangle and updates intersection details.">
<polygon fill="white" stroke="#666666" points="93.25,-104.5 0,-104.5 0,-74 93.25,-74 93.25,-104.5"/>
<text text-anchor="start" x="8" y="-91" font-family="Times,serif" font-size="10.00">mal_math::Triangle</text>
<text text-anchor="middle" x="46.62" y="-79.75" font-family="Times,serif" font-size="10.00">::Intersect</text>
</a>
</g>
</g>
<!-- Node2&#45;&gt;Node5 -->
<g id="edge4_Node000002_Node000005" class="edge">
<title>Node2&#45;&gt;Node5</title>
<g id="a_edge4_Node000002_Node000005"><a xlink:title=" ">
<path fill="none" stroke="#63b8ff" d="M130.5,-118.81C117.56,-114.19 103.92,-109.33 91.52,-104.91"/>
<polygon fill="#63b8ff" stroke="#63b8ff" points="129.14,-122.04 139.73,-122.1 131.49,-115.45 129.14,-122.04"/>
</a>
</g>
</g>
</g>
</svg>
