<?xml version="1.0" encoding="UTF-8" standalone="no"?>
<!DOCTYPE svg PUBLIC "-//W3C//DTD SVG 1.1//EN"
 "http://www.w3.org/Graphics/SVG/1.1/DTD/svg11.dtd">
<!-- Generated by graphviz version 9.0.0 (20230911.1827)
 -->
<!-- Title: mal_math::cross Pages: 1 -->
<svg width="679pt" height="101pt"
 viewBox="0.00 0.00 678.50 101.25" xmlns="http://www.w3.org/2000/svg" xmlns:xlink="http://www.w3.org/1999/xlink">
<g id="graph0" class="graph" transform="scale(1 1) rotate(0) translate(4 97.25)">
<title>mal_math::cross</title>
<!-- Node1 -->
<g id="Node000001" class="node">
<title>Node1</title>
<g id="a_Node000001"><a xlink:title="Cross product between vector and quaternion.">
<polygon fill="#999999" stroke="#666666" points="80.5,-56.25 0,-56.25 0,-37 80.5,-37 80.5,-56.25"/>
<text text-anchor="middle" x="40.25" y="-42.75" font-family="Times,serif" font-size="10.00">mal_math::cross</text>
</a>
</g>
</g>
<!-- Node2 -->
<g id="Node000002" class="node">
<title>Node2</title>
<g id="a_Node000002"><a xlink:href="../../d1/d1d/namespacemal__math.html#a9839c7f488349def9a85e418a6f96710" target="_top" xlink:title="Calculates the inverse of a square matrix.">
<polygon fill="white" stroke="#666666" points="205.25,-56.25 116.5,-56.25 116.5,-37 205.25,-37 205.25,-56.25"/>
<text text-anchor="middle" x="160.88" y="-42.75" font-family="Times,serif" font-size="10.00">mal_math::inverse</text>
</a>
</g>
</g>
<!-- Node1&#45;&gt;Node2 -->
<g id="edge1_Node000001_Node000002" class="edge">
<title>Node1&#45;&gt;Node2</title>
<g id="a_edge1_Node000001_Node000002"><a xlink:title=" ">
<path fill="none" stroke="#63b8ff" d="M80.75,-46.62C88.45,-46.62 96.65,-46.62 104.74,-46.62"/>
<polygon fill="#63b8ff" stroke="#63b8ff" points="104.54,-50.13 114.54,-46.63 104.54,-43.13 104.54,-50.13"/>
</a>
</g>
</g>
<!-- Node3 -->
<g id="Node000003" class="node">
<title>Node3</title>
<g id="a_Node000003"><a xlink:href="../../d1/d1d/namespacemal__math.html#ad2fb7080daf9beb776f0cb7b8628ee49" target="_top" xlink:title="Alias for the adj() function to compute the adjugate of a matrix.">
<polygon fill="white" stroke="#666666" points="333.75,-75.25 241.25,-75.25 241.25,-56 333.75,-56 333.75,-75.25"/>
<text text-anchor="middle" x="287.5" y="-61.75" font-family="Times,serif" font-size="10.00">mal_math::adjugate</text>
</a>
</g>
</g>
<!-- Node2&#45;&gt;Node3 -->
<g id="edge2_Node000002_Node000003" class="edge">
<title>Node2&#45;&gt;Node3</title>
<g id="a_edge2_Node000002_Node000003"><a xlink:title=" ">
<path fill="none" stroke="#63b8ff" d="M205.46,-53.27C213.29,-54.46 221.55,-55.72 229.68,-56.96"/>
<polygon fill="#63b8ff" stroke="#63b8ff" points="229.12,-60.42 239.54,-58.47 230.18,-53.5 229.12,-60.42"/>
</a>
</g>
</g>
<!-- Node5 -->
<g id="Node000005" class="node">
<title>Node5</title>
<g id="a_Node000005"><a xlink:href="../../d1/d1d/namespacemal__math.html#a245dd949a6bfab7e377c6dab6ebf6280" target="_top" xlink:title="Calculates the determinant of a square matrix.">
<polygon fill="white" stroke="#666666" points="551,-56.25 478,-56.25 478,-37 551,-37 551,-56.25"/>
<text text-anchor="middle" x="514.5" y="-42.75" font-family="Times,serif" font-size="10.00">mal_math::det</text>
</a>
</g>
</g>
<!-- Node2&#45;&gt;Node5 -->
<g id="edge8_Node000002_Node000005" class="edge">
<title>Node2&#45;&gt;Node5</title>
<g id="a_edge8_Node000002_Node000005"><a xlink:title=" ">
<path fill="none" stroke="#63b8ff" d="M205.7,-46.62C272.18,-46.62 397.99,-46.62 466.38,-46.62"/>
<polygon fill="#63b8ff" stroke="#63b8ff" points="466.13,-50.13 476.13,-46.63 466.13,-43.13 466.13,-50.13"/>
</a>
</g>
</g>
<!-- Node4 -->
<g id="Node000004" class="node">
<title>Node4</title>
<g id="a_Node000004"><a xlink:href="../../d1/d1d/namespacemal__math.html#a6b9483d460a882f9c49428abb7d7ed21" target="_top" xlink:title="Computes the adjoint (or adjugate) of a square matrix.">
<polygon fill="white" stroke="#666666" points="442,-75.25 369.75,-75.25 369.75,-56 442,-56 442,-75.25"/>
<text text-anchor="middle" x="405.88" y="-61.75" font-family="Times,serif" font-size="10.00">mal_math::adj</text>
</a>
</g>
</g>
<!-- Node3&#45;&gt;Node4 -->
<g id="edge3_Node000003_Node000004" class="edge">
<title>Node3&#45;&gt;Node4</title>
<g id="a_edge3_Node000003_Node000004"><a xlink:title=" ">
<path fill="none" stroke="#63b8ff" d="M334.16,-65.62C342.03,-65.62 350.23,-65.62 358.13,-65.62"/>
<polygon fill="#63b8ff" stroke="#63b8ff" points="357.91,-69.13 367.91,-65.63 357.91,-62.13 357.91,-69.13"/>
</a>
</g>
</g>
<!-- Node4&#45;&gt;Node5 -->
<g id="edge4_Node000004_Node000005" class="edge">
<title>Node4&#45;&gt;Node5</title>
<g id="a_edge4_Node000004_Node000005"><a xlink:title=" ">
<path fill="none" stroke="#63b8ff" d="M442.38,-59.3C450.12,-57.92 458.43,-56.44 466.54,-54.99"/>
<polygon fill="#63b8ff" stroke="#63b8ff" points="467.07,-58.45 476.3,-53.25 465.84,-51.56 467.07,-58.45"/>
</a>
</g>
</g>
<!-- Node6 -->
<g id="Node000006" class="node">
<title>Node6</title>
<g id="a_Node000006"><a xlink:href="../../d1/d1d/namespacemal__math.html#a4ca4a22c985a535c67c1821c42193f59" target="_top" xlink:title=" ">
<polygon fill="white" stroke="#666666" points="670.5,-93.25 587,-93.25 587,-74 670.5,-74 670.5,-93.25"/>
<text text-anchor="middle" x="628.75" y="-79.75" font-family="Times,serif" font-size="10.00">mal_math::det_2</text>
</a>
</g>
</g>
<!-- Node5&#45;&gt;Node6 -->
<g id="edge5_Node000005_Node000006" class="edge">
<title>Node5&#45;&gt;Node6</title>
<g id="a_edge5_Node000005_Node000006"><a xlink:title=" ">
<path fill="none" stroke="#63b8ff" d="M546.17,-56.74C558.55,-60.81 573.01,-65.58 586.3,-69.96"/>
<polygon fill="#63b8ff" stroke="#63b8ff" points="585.08,-73.25 595.68,-73.05 587.28,-66.6 585.08,-73.25"/>
</a>
</g>
</g>
<!-- Node7 -->
<g id="Node000007" class="node">
<title>Node7</title>
<g id="a_Node000007"><a xlink:href="../../d1/d1d/namespacemal__math.html#a684065c9e18fa3625d06a8762bff8dd1" target="_top" xlink:title=" ">
<polygon fill="white" stroke="#666666" points="670.5,-56.25 587,-56.25 587,-37 670.5,-37 670.5,-56.25"/>
<text text-anchor="middle" x="628.75" y="-42.75" font-family="Times,serif" font-size="10.00">mal_math::det_3</text>
</a>
</g>
</g>
<!-- Node5&#45;&gt;Node7 -->
<g id="edge6_Node000005_Node000007" class="edge">
<title>Node5&#45;&gt;Node7</title>
<g id="a_edge6_Node000005_Node000007"><a xlink:title=" ">
<path fill="none" stroke="#63b8ff" d="M551.33,-46.62C559,-46.62 567.26,-46.62 575.41,-46.62"/>
<polygon fill="#63b8ff" stroke="#63b8ff" points="575.28,-50.13 585.28,-46.63 575.28,-43.13 575.28,-50.13"/>
</a>
</g>
</g>
<!-- Node8 -->
<g id="Node000008" class="node">
<title>Node8</title>
<g id="a_Node000008"><a xlink:href="../../d1/d1d/namespacemal__math.html#a7205ab27aa1028ece0e9ad92fa2ac8e3" target="_top" xlink:title=" ">
<polygon fill="white" stroke="#666666" points="670.5,-19.25 587,-19.25 587,0 670.5,0 670.5,-19.25"/>
<text text-anchor="middle" x="628.75" y="-5.75" font-family="Times,serif" font-size="10.00">mal_math::det_4</text>
</a>
</g>
</g>
<!-- Node5&#45;&gt;Node8 -->
<g id="edge7_Node000005_Node000008" class="edge">
<title>Node5&#45;&gt;Node8</title>
<g id="a_edge7_Node000005_Node000008"><a xlink:title=" ">
<path fill="none" stroke="#63b8ff" d="M546.17,-36.51C558.55,-32.44 573.01,-27.67 586.3,-23.29"/>
<polygon fill="#63b8ff" stroke="#63b8ff" points="587.28,-26.65 595.68,-20.2 585.08,-20 587.28,-26.65"/>
</a>
</g>
</g>
</g>
</svg>
