<?xml version="1.0" encoding="UTF-8" standalone="no"?>
<!DOCTYPE svg PUBLIC "-//W3C//DTD SVG 1.1//EN"
 "http://www.w3.org/Graphics/SVG/1.1/DTD/svg11.dtd">
<!-- Generated by graphviz version 9.0.0 (20230911.1827)
 -->
<!-- Title: include/math/math&#45;common.hpp Pages: 1 -->
<svg width="1394pt" height="469pt"
 viewBox="0.00 0.00 1394.00 469.25" xmlns="http://www.w3.org/2000/svg" xmlns:xlink="http://www.w3.org/1999/xlink">
<g id="graph0" class="graph" transform="scale(1 1) rotate(0) translate(4 465.25)">
<title>include/math/math&#45;common.hpp</title>
<!-- Node1 -->
<g id="Node000001" class="node">
<title>Node1</title>
<g id="a_Node000001"><a xlink:title=" ">
<polygon fill="#999999" stroke="#666666" points="964.12,-461.25 817.62,-461.25 817.62,-442 964.12,-442 964.12,-461.25"/>
<text text-anchor="middle" x="890.88" y="-447.75" font-family="Times,serif" font-size="10.00">include/math/math&#45;common.hpp</text>
</a>
</g>
</g>
<!-- Node2 -->
<g id="Node000002" class="node">
<title>Node2</title>
<g id="a_Node000002"><a xlink:href="../../d4/d44/rvec2_8hpp.html" target="_top" xlink:title="Definitions for the rvec&lt;2, T&gt; specialized template representing 2D vectors with reference&#45;like seman...">
<polygon fill="white" stroke="#666666" points="536.88,-406 424.88,-406 424.88,-386.75 536.88,-386.75 536.88,-406"/>
<text text-anchor="middle" x="480.88" y="-392.5" font-family="Times,serif" font-size="10.00">include/math/rvec2.hpp</text>
</a>
</g>
</g>
<!-- Node1&#45;&gt;Node2 -->
<g id="edge1_Node000001_Node000002" class="edge">
<title>Node1&#45;&gt;Node2</title>
<g id="a_edge1_Node000001_Node000002"><a xlink:title=" ">
<path fill="none" stroke="#63b8ff" d="M809.77,-440.09C729.15,-429.62 607.64,-413.84 537.09,-404.68"/>
<polygon fill="#63b8ff" stroke="#63b8ff" points="808.99,-443.52 819.36,-441.34 809.89,-436.58 808.99,-443.52"/>
</a>
</g>
</g>
<!-- Node4 -->
<g id="Node000004" class="node">
<title>Node4</title>
<g id="a_Node000004"><a xlink:href="../../d7/d7c/vec_8hpp.html" target="_top" xlink:title=" ">
<polygon fill="white" stroke="#666666" points="900.38,-350.75 797.38,-350.75 797.38,-331.5 900.38,-331.5 900.38,-350.75"/>
<text text-anchor="middle" x="848.88" y="-337.25" font-family="Times,serif" font-size="10.00">include/math/vec.hpp</text>
</a>
</g>
</g>
<!-- Node1&#45;&gt;Node4 -->
<g id="edge52_Node000001_Node000004" class="edge">
<title>Node1&#45;&gt;Node4</title>
<g id="a_edge52_Node000001_Node000004"><a xlink:title=" ">
<path fill="none" stroke="#63b8ff" d="M883.38,-431.26C874.23,-407.62 859.14,-368.63 852.36,-351.13"/>
<polygon fill="#63b8ff" stroke="#63b8ff" points="880.02,-432.27 886.89,-440.33 886.55,-429.75 880.02,-432.27"/>
</a>
</g>
</g>
<!-- Node27 -->
<g id="Node000027" class="node">
<title>Node27</title>
<g id="a_Node000027"><a xlink:href="../../d9/dc3/rvec3_8hpp.html" target="_top" xlink:title="Provides the implementation of a 3D reference vector.">
<polygon fill="white" stroke="#666666" points="680.88,-406 568.88,-406 568.88,-386.75 680.88,-386.75 680.88,-406"/>
<text text-anchor="middle" x="624.88" y="-392.5" font-family="Times,serif" font-size="10.00">include/math/rvec3.hpp</text>
</a>
</g>
</g>
<!-- Node1&#45;&gt;Node27 -->
<g id="edge44_Node000001_Node000027" class="edge">
<title>Node1&#45;&gt;Node27</title>
<g id="a_edge44_Node000001_Node000027"><a xlink:title=" ">
<path fill="none" stroke="#63b8ff" d="M834.41,-439.32C785.43,-429.52 715.47,-415.51 670.11,-406.43"/>
<polygon fill="#63b8ff" stroke="#63b8ff" points="833.47,-442.7 843.97,-441.23 834.85,-435.84 833.47,-442.7"/>
</a>
</g>
</g>
<!-- Node29 -->
<g id="Node000029" class="node">
<title>Node29</title>
<g id="a_Node000029"><a xlink:href="../../d2/d88/rvec4_8hpp.html" target="_top" xlink:title="Defines a 4&#45;dimensional reference vector struct.">
<polygon fill="white" stroke="#666666" points="817.88,-406 705.88,-406 705.88,-386.75 817.88,-386.75 817.88,-406"/>
<text text-anchor="middle" x="761.88" y="-392.5" font-family="Times,serif" font-size="10.00">include/math/rvec4.hpp</text>
</a>
</g>
</g>
<!-- Node1&#45;&gt;Node29 -->
<g id="edge48_Node000001_Node000029" class="edge">
<title>Node1&#45;&gt;Node29</title>
<g id="a_edge48_Node000001_Node000029"><a xlink:title=" ">
<path fill="none" stroke="#63b8ff" d="M858.55,-437.28C835.24,-427.66 804.38,-414.92 783.87,-406.45"/>
<polygon fill="#63b8ff" stroke="#63b8ff" points="857.01,-440.43 867.59,-441.01 859.68,-433.96 857.01,-440.43"/>
</a>
</g>
</g>
<!-- Node31 -->
<g id="Node000031" class="node">
<title>Node31</title>
<g id="a_Node000031"><a xlink:href="../../dd/d91/vec2_8hpp.html" target="_top" xlink:title="Defines a 2D vector and provides its operations.">
<polygon fill="white" stroke="#666666" points="998,-406 889.75,-406 889.75,-386.75 998,-386.75 998,-406"/>
<text text-anchor="middle" x="943.88" y="-392.5" font-family="Times,serif" font-size="10.00">include/math/vec2.hpp</text>
</a>
</g>
</g>
<!-- Node1&#45;&gt;Node31 -->
<g id="edge53_Node000001_Node000031" class="edge">
<title>Node1&#45;&gt;Node31</title>
<g id="a_edge53_Node000001_Node000031"><a xlink:title=" ">
<path fill="none" stroke="#63b8ff" d="M907.6,-433.82C916.65,-424.73 927.48,-413.85 934.93,-406.36"/>
<polygon fill="#63b8ff" stroke="#63b8ff" points="905.27,-431.2 900.69,-440.76 910.23,-436.14 905.27,-431.2"/>
</a>
</g>
</g>
<!-- Node33 -->
<g id="Node000033" class="node">
<title>Node33</title>
<g id="a_Node000033"><a xlink:href="../../d9/dcd/vec3_8hpp.html" target="_top" xlink:title="Header file for the 3D vector definition.">
<polygon fill="white" stroke="#666666" points="1130,-406 1021.75,-406 1021.75,-386.75 1130,-386.75 1130,-406"/>
<text text-anchor="middle" x="1075.88" y="-392.5" font-family="Times,serif" font-size="10.00">include/math/vec3.hpp</text>
</a>
</g>
</g>
<!-- Node1&#45;&gt;Node33 -->
<g id="edge57_Node000001_Node000033" class="edge">
<title>Node1&#45;&gt;Node33</title>
<g id="a_edge57_Node000001_Node000033"><a xlink:title=" ">
<path fill="none" stroke="#63b8ff" d="M933.2,-438.44C967.04,-428.7 1013.72,-415.27 1044.34,-406.45"/>
<polygon fill="#63b8ff" stroke="#63b8ff" points="932.35,-435.04 923.71,-441.17 934.29,-441.77 932.35,-435.04"/>
</a>
</g>
</g>
<!-- Node35 -->
<g id="Node000035" class="node">
<title>Node35</title>
<g id="a_Node000035"><a xlink:href="../../dd/dc5/vec4_8hpp.html" target="_top" xlink:title="Contains the definition of the vec&lt;4, T&gt; structure.">
<polygon fill="white" stroke="#666666" points="1259,-406 1150.75,-406 1150.75,-386.75 1259,-386.75 1259,-406"/>
<text text-anchor="middle" x="1204.88" y="-392.5" font-family="Times,serif" font-size="10.00">include/math/vec4.hpp</text>
</a>
</g>
</g>
<!-- Node1&#45;&gt;Node35 -->
<g id="edge61_Node000001_Node000035" class="edge">
<title>Node1&#45;&gt;Node35</title>
<g id="a_edge61_Node000001_Node000035"><a xlink:title=" ">
<path fill="none" stroke="#63b8ff" d="M955.7,-439.63C1013.49,-429.83 1097.09,-415.65 1151.21,-406.48"/>
<polygon fill="#63b8ff" stroke="#63b8ff" points="955.26,-436.16 945.99,-441.28 956.43,-443.06 955.26,-436.16"/>
</a>
</g>
</g>
<!-- Node37 -->
<g id="Node000037" class="node">
<title>Node37</title>
<g id="a_Node000037"><a xlink:href="../../d4/d02/vecn_8hpp.html" target="_top" xlink:title="Contains the definition of the generic vec&lt;L, T&gt; structure.">
<polygon fill="white" stroke="#666666" points="1386,-406 1277.75,-406 1277.75,-386.75 1386,-386.75 1386,-406"/>
<text text-anchor="middle" x="1331.88" y="-392.5" font-family="Times,serif" font-size="10.00">include/math/vecn.hpp</text>
</a>
</g>
</g>
<!-- Node1&#45;&gt;Node37 -->
<g id="edge65_Node000001_Node000037" class="edge">
<title>Node1&#45;&gt;Node37</title>
<g id="a_edge65_Node000001_Node000037"><a xlink:title=" ">
<path fill="none" stroke="#63b8ff" d="M975.59,-440.99C1052.03,-432.21 1167.54,-418.7 1267.88,-406 1270.99,-405.61 1274.19,-405.19 1277.42,-404.78"/>
<polygon fill="#63b8ff" stroke="#63b8ff" points="975.64,-437.46 966.11,-442.08 976.44,-444.42 975.64,-437.46"/>
</a>
</g>
</g>
<!-- Node3 -->
<g id="Node000003" class="node">
<title>Node3</title>
<g id="a_Node000003"><a xlink:href="../../dd/d72/rvec2_8inl.html" target="_top" xlink:title=" ">
<polygon fill="white" stroke="#666666" points="529.25,-350.75 422.5,-350.75 422.5,-331.5 529.25,-331.5 529.25,-350.75"/>
<text text-anchor="middle" x="475.88" y="-337.25" font-family="Times,serif" font-size="10.00">include/math/rvec2.inl</text>
</a>
</g>
</g>
<!-- Node2&#45;&gt;Node3 -->
<g id="edge2_Node000002_Node000003" class="edge">
<title>Node2&#45;&gt;Node3</title>
<g id="a_edge2_Node000002_Node000003"><a xlink:title=" ">
<path fill="none" stroke="#63b8ff" d="M472.44,-375.42C471.17,-367.05 470.74,-357.75 471.51,-351.11"/>
<polygon fill="#63b8ff" stroke="#63b8ff" points="469.01,-376.08 474.56,-385.1 475.84,-374.59 469.01,-376.08"/>
</a>
</g>
</g>
<!-- Node2&#45;&gt;Node4 -->
<g id="edge4_Node000002_Node000004" class="edge">
<title>Node2&#45;&gt;Node4</title>
<g id="a_edge4_Node000002_Node000004"><a xlink:title=" ">
<path fill="none" stroke="#63b8ff" d="M548.32,-385.62C620.04,-375.24 731.93,-359.05 797.05,-349.62"/>
<polygon fill="#63b8ff" stroke="#63b8ff" points="548.06,-382.12 538.66,-387.01 549.06,-389.04 548.06,-382.12"/>
</a>
</g>
</g>
<!-- Node3&#45;&gt;Node2 -->
<g id="edge3_Node000003_Node000002" class="edge">
<title>Node3&#45;&gt;Node2</title>
<g id="a_edge3_Node000003_Node000002"><a xlink:title=" ">
<path fill="none" stroke="#63b8ff" d="M484.34,-362.32C485.6,-370.71 486.01,-379.99 485.22,-386.58"/>
<polygon fill="#63b8ff" stroke="#63b8ff" points="487.77,-361.63 482.24,-352.59 480.93,-363.1 487.77,-361.63"/>
</a>
</g>
</g>
<!-- Node5 -->
<g id="Node000005" class="node">
<title>Node5</title>
<g id="a_Node000005"><a xlink:href="../../d8/def/vec_8cpp.html" target="_top" xlink:title=" ">
<polygon fill="white" stroke="#666666" points="833,-295.5 730.75,-295.5 730.75,-276.25 833,-276.25 833,-295.5"/>
<text text-anchor="middle" x="781.88" y="-282" font-family="Times,serif" font-size="10.00">include/math/vec.cpp</text>
</a>
</g>
</g>
<!-- Node4&#45;&gt;Node5 -->
<g id="edge5_Node000004_Node000005" class="edge">
<title>Node4&#45;&gt;Node5</title>
<g id="a_edge5_Node000004_Node000005"><a xlink:title=" ">
<path fill="none" stroke="#63b8ff" d="M828.83,-324.19C817.13,-314.89 802.8,-303.51 793.07,-295.77"/>
<polygon fill="#63b8ff" stroke="#63b8ff" points="826.32,-326.67 836.32,-330.15 830.67,-321.19 826.32,-326.67"/>
</a>
</g>
</g>
<!-- Node6 -->
<g id="Node000006" class="node">
<title>Node6</title>
<g id="a_Node000006"><a xlink:href="../../df/dc2/vec__math_8hpp.html" target="_top" xlink:title="Contains a collection of mathematical operations and utility functions for vector objects.">
<polygon fill="white" stroke="#666666" points="979.12,-295.5 850.62,-295.5 850.62,-276.25 979.12,-276.25 979.12,-295.5"/>
<text text-anchor="middle" x="914.88" y="-282" font-family="Times,serif" font-size="10.00">include/math/vec_math.hpp</text>
</a>
</g>
</g>
<!-- Node4&#45;&gt;Node6 -->
<g id="edge6_Node000004_Node000006" class="edge">
<title>Node4&#45;&gt;Node6</title>
<g id="a_edge6_Node000004_Node000006"><a xlink:title=" ">
<path fill="none" stroke="#63b8ff" d="M868.97,-323.91C880.43,-314.67 894.36,-303.43 903.84,-295.77"/>
<polygon fill="#63b8ff" stroke="#63b8ff" points="866.83,-321.14 861.25,-330.14 871.23,-326.59 866.83,-321.14"/>
</a>
</g>
</g>
<!-- Node7 -->
<g id="Node000007" class="node">
<title>Node7</title>
<g id="a_Node000007"><a xlink:href="../../dc/dc2/mat_8hpp.html" target="_top" xlink:title="Provides matrix definitions tailored for various sizes and primitive types.">
<polygon fill="white" stroke="#666666" points="835.12,-240.25 730.62,-240.25 730.62,-221 835.12,-221 835.12,-240.25"/>
<text text-anchor="middle" x="782.88" y="-226.75" font-family="Times,serif" font-size="10.00">include/math/mat.hpp</text>
</a>
</g>
</g>
<!-- Node6&#45;&gt;Node7 -->
<g id="edge7_Node000006_Node000007" class="edge">
<title>Node6&#45;&gt;Node7</title>
<g id="a_edge7_Node000006_Node000007"><a xlink:title=" ">
<path fill="none" stroke="#63b8ff" d="M882.12,-271.66C858.23,-262.02 826.46,-249.21 805.38,-240.7"/>
<polygon fill="#63b8ff" stroke="#63b8ff" points="880.5,-274.78 891.08,-275.28 883.11,-268.29 880.5,-274.78"/>
</a>
</g>
</g>
<!-- Node26 -->
<g id="Node000026" class="node">
<title>Node26</title>
<g id="a_Node000026"><a xlink:href="../../dc/d15/vec__math_8inl.html" target="_top" xlink:title=" ">
<polygon fill="white" stroke="#666666" points="976.5,-240.25 853.25,-240.25 853.25,-221 976.5,-221 976.5,-240.25"/>
<text text-anchor="middle" x="914.88" y="-226.75" font-family="Times,serif" font-size="10.00">include/math/vec_math.inl</text>
</a>
</g>
</g>
<!-- Node6&#45;&gt;Node26 -->
<g id="edge42_Node000006_Node000026" class="edge">
<title>Node6&#45;&gt;Node26</title>
<g id="a_edge42_Node000006_Node000026"><a xlink:title=" ">
<path fill="none" stroke="#63b8ff" d="M908.32,-264.92C907.83,-256.55 908.28,-247.25 909.67,-240.61"/>
<polygon fill="#63b8ff" stroke="#63b8ff" points="904.81,-265.09 909.52,-274.58 911.76,-264.22 904.81,-265.09"/>
</a>
</g>
</g>
<!-- Node8 -->
<g id="Node000008" class="node">
<title>Node8</title>
<g id="a_Node000008"><a xlink:href="../../d4/d78/math_8hpp.html" target="_top" xlink:title="Provides various mathematical utilities, vector operations, and custom hash specializations.">
<polygon fill="white" stroke="#666666" points="408.12,-129.75 321.62,-129.75 321.62,-110.5 408.12,-110.5 408.12,-129.75"/>
<text text-anchor="middle" x="364.88" y="-116.25" font-family="Times,serif" font-size="10.00">include/math.hpp</text>
</a>
</g>
</g>
<!-- Node7&#45;&gt;Node8 -->
<g id="edge8_Node000007_Node000008" class="edge">
<title>Node7&#45;&gt;Node8</title>
<g id="a_edge8_Node000007_Node000008"><a xlink:title=" ">
<path fill="none" stroke="#63b8ff" d="M718.81,-225.87C632.97,-220.08 485.76,-207.24 436.88,-185 408.58,-172.13 383.4,-144.24 371.74,-129.95"/>
<polygon fill="#63b8ff" stroke="#63b8ff" points="718.52,-229.36 728.73,-226.53 718.98,-222.38 718.52,-229.36"/>
</a>
</g>
</g>
<!-- Node16 -->
<g id="Node000016" class="node">
<title>Node16</title>
<g id="a_Node000016"><a xlink:href="../../d1/dea/mat_8cpp.html" target="_top" xlink:title=" ">
<polygon fill="white" stroke="#666666" points="699.75,-185 596,-185 596,-165.75 699.75,-165.75 699.75,-185"/>
<text text-anchor="middle" x="647.88" y="-171.5" font-family="Times,serif" font-size="10.00">include/math/mat.cpp</text>
</a>
</g>
</g>
<!-- Node7&#45;&gt;Node16 -->
<g id="edge24_Node000007_Node000016" class="edge">
<title>Node7&#45;&gt;Node16</title>
<g id="a_edge24_Node000007_Node000016"><a xlink:title=" ">
<path fill="none" stroke="#63b8ff" d="M749.38,-216.41C724.94,-206.77 692.45,-193.96 670.89,-185.45"/>
<polygon fill="#63b8ff" stroke="#63b8ff" points="747.98,-219.62 758.57,-220.04 750.55,-213.11 747.98,-219.62"/>
</a>
</g>
</g>
<!-- Node17 -->
<g id="Node000017" class="node">
<title>Node17</title>
<g id="a_Node000017"><a xlink:href="../../dc/d4a/mat__math_8hpp.html" target="_top" xlink:title="Defines various matrix mathematical operations.">
<polygon fill="white" stroke="#666666" points="847.88,-185 717.88,-185 717.88,-165.75 847.88,-165.75 847.88,-185"/>
<text text-anchor="middle" x="782.88" y="-171.5" font-family="Times,serif" font-size="10.00">include/math/mat_math.hpp</text>
</a>
</g>
</g>
<!-- Node7&#45;&gt;Node17 -->
<g id="edge25_Node000007_Node000017" class="edge">
<title>Node7&#45;&gt;Node17</title>
<g id="a_edge25_Node000007_Node000017"><a xlink:title=" ">
<path fill="none" stroke="#63b8ff" d="M776.32,-209.67C775.83,-201.3 776.28,-192 777.67,-185.36"/>
<polygon fill="#63b8ff" stroke="#63b8ff" points="772.81,-209.84 777.52,-219.33 779.76,-208.97 772.81,-209.84"/>
</a>
</g>
</g>
<!-- Node19 -->
<g id="Node000019" class="node">
<title>Node19</title>
<g id="a_Node000019"><a xlink:href="../../dd/dad/matnxn_8hpp.html" target="_top" xlink:title="Provides the definition of a generic NxN matrix for mathematical operations.">
<polygon fill="white" stroke="#666666" points="985.62,-185 866.12,-185 866.12,-165.75 985.62,-165.75 985.62,-185"/>
<text text-anchor="middle" x="925.88" y="-171.5" font-family="Times,serif" font-size="10.00">include/math/matnxn.hpp</text>
</a>
</g>
</g>
<!-- Node7&#45;&gt;Node19 -->
<g id="edge29_Node000007_Node000019" class="edge">
<title>Node7&#45;&gt;Node19</title>
<g id="a_edge29_Node000007_Node000019"><a xlink:title=" ">
<path fill="none" stroke="#63b8ff" d="M812.43,-216.41C837.02,-206.77 871.66,-193.96 896.27,-185.45"/>
<polygon fill="#63b8ff" stroke="#63b8ff" points="811.32,-213.09 803.32,-220.03 813.91,-219.59 811.32,-213.09"/>
</a>
</g>
</g>
<!-- Node21 -->
<g id="Node000021" class="node">
<title>Node21</title>
<g id="a_Node000021"><a xlink:href="../../db/d65/quaternion_8hpp.html" target="_top" xlink:title="Quaternion operations and related mathematical functions.">
<polygon fill="white" stroke="#666666" points="578,-185 445.75,-185 445.75,-165.75 578,-165.75 578,-185"/>
<text text-anchor="middle" x="511.88" y="-171.5" font-family="Times,serif" font-size="10.00">include/math/quaternion.hpp</text>
</a>
</g>
</g>
<!-- Node7&#45;&gt;Node21 -->
<g id="edge33_Node000007_Node000021" class="edge">
<title>Node7&#45;&gt;Node21</title>
<g id="a_edge33_Node000007_Node000021"><a xlink:title=" ">
<path fill="none" stroke="#63b8ff" d="M725.35,-218.32C675.45,-208.52 604.18,-194.51 557.96,-185.43"/>
<polygon fill="#63b8ff" stroke="#63b8ff" points="724.62,-221.75 735.11,-220.24 725.97,-214.88 724.62,-221.75"/>
</a>
</g>
</g>
<!-- Node24 -->
<g id="Node000024" class="node">
<title>Node24</title>
<g id="a_Node000024"><a xlink:href="../../db/de9/rmatnxn_8hpp.html" target="_top" xlink:title="Specialized representation of matrices using reference semantics.">
<polygon fill="white" stroke="#666666" points="1126.5,-185 1003.25,-185 1003.25,-165.75 1126.5,-165.75 1126.5,-185"/>
<text text-anchor="middle" x="1064.88" y="-171.5" font-family="Times,serif" font-size="10.00">include/math/rmatnxn.hpp</text>
</a>
</g>
</g>
<!-- Node7&#45;&gt;Node24 -->
<g id="edge38_Node000007_Node000024" class="edge">
<title>Node7&#45;&gt;Node24</title>
<g id="a_edge38_Node000007_Node000024"><a xlink:title=" ">
<path fill="none" stroke="#63b8ff" d="M837.1,-218.32C887.41,-208.52 961.72,-194.51 1011.69,-185.43"/>
<polygon fill="#63b8ff" stroke="#63b8ff" points="836.43,-214.89 827.29,-220.24 837.77,-221.76 836.43,-214.89"/>
</a>
</g>
</g>
<!-- Node9 -->
<g id="Node000009" class="node">
<title>Node9</title>
<g id="a_Node000009"><a xlink:href="../../d7/de4/box_8hpp.html" target="_top" xlink:title="Defines a templated bounding box class for 3D primitives.">
<polygon fill="white" stroke="#666666" points="103.75,-74.5 0,-74.5 0,-55.25 103.75,-55.25 103.75,-74.5"/>
<text text-anchor="middle" x="51.88" y="-61" font-family="Times,serif" font-size="10.00">include/math/box.hpp</text>
</a>
</g>
</g>
<!-- Node8&#45;&gt;Node9 -->
<g id="edge9_Node000008_Node000009" class="edge">
<title>Node8&#45;&gt;Node9</title>
<g id="a_edge9_Node000008_Node000009"><a xlink:title=" ">
<path fill="none" stroke="#63b8ff" d="M310.18,-110.69C250.73,-100.94 156.81,-84.97 100.05,-74.96"/>
<polygon fill="#63b8ff" stroke="#63b8ff" points="309.3,-114.09 319.73,-112.24 310.42,-107.18 309.3,-114.09"/>
</a>
</g>
</g>
<!-- Node10 -->
<g id="Node000010" class="node">
<title>Node10</title>
<g id="a_Node000010"><a xlink:href="../../d6/d02/intersection_8hpp.html" target="_top" xlink:title="Provides functionalities to represent and handle intersections in 3D space.">
<polygon fill="white" stroke="#666666" points="295.88,-74.5 159.88,-74.5 159.88,-55.25 295.88,-55.25 295.88,-74.5"/>
<text text-anchor="middle" x="227.88" y="-61" font-family="Times,serif" font-size="10.00">include/math/intersection.hpp</text>
</a>
</g>
</g>
<!-- Node8&#45;&gt;Node10 -->
<g id="edge11_Node000008_Node000010" class="edge">
<title>Node8&#45;&gt;Node10</title>
<g id="a_edge11_Node000008_Node000010"><a xlink:title=" ">
<path fill="none" stroke="#63b8ff" d="M325.67,-106.17C299.45,-96.5 266.31,-83.54 246,-74.95"/>
<polygon fill="#63b8ff" stroke="#63b8ff" points="324.4,-109.44 335,-109.57 326.8,-102.86 324.4,-109.44"/>
</a>
</g>
</g>
<!-- Node12 -->
<g id="Node000012" class="node">
<title>Node12</title>
<g id="a_Node000012"><a xlink:href="../../d1/df2/random_8hpp.html" target="_top" xlink:title="Provides functionality for random number generation and manipulation in vector spaces.">
<polygon fill="white" stroke="#666666" points="591.62,-74.5 472.12,-74.5 472.12,-55.25 591.62,-55.25 591.62,-74.5"/>
<text text-anchor="middle" x="531.88" y="-61" font-family="Times,serif" font-size="10.00">include/math/random.hpp</text>
</a>
</g>
</g>
<!-- Node8&#45;&gt;Node12 -->
<g id="edge15_Node000008_Node000012" class="edge">
<title>Node8&#45;&gt;Node12</title>
<g id="a_edge15_Node000008_Node000012"><a xlink:title=" ">
<path fill="none" stroke="#63b8ff" d="M398.83,-106.43C427.86,-96.74 469.23,-83.61 498.18,-74.95"/>
<polygon fill="#63b8ff" stroke="#63b8ff" points="397.78,-103.09 389.42,-109.61 400.02,-109.73 397.78,-103.09"/>
</a>
</g>
</g>
<!-- Node13 -->
<g id="Node000013" class="node">
<title>Node13</title>
<g id="a_Node000013"><a xlink:href="../../db/d1d/ray_8hpp.html" target="_top" xlink:title="Contains the definition of the Ray class.">
<polygon fill="white" stroke="#666666" points="415.62,-74.5 314.12,-74.5 314.12,-55.25 415.62,-55.25 415.62,-74.5"/>
<text text-anchor="middle" x="364.88" y="-61" font-family="Times,serif" font-size="10.00">include/math/ray.hpp</text>
</a>
</g>
</g>
<!-- Node8&#45;&gt;Node13 -->
<g id="edge17_Node000008_Node000013" class="edge">
<title>Node8&#45;&gt;Node13</title>
<g id="a_edge17_Node000008_Node000013"><a xlink:title=" ">
<path fill="none" stroke="#63b8ff" d="M358.32,-99.17C357.83,-90.8 358.28,-81.5 359.67,-74.86"/>
<polygon fill="#63b8ff" stroke="#63b8ff" points="354.81,-99.34 359.52,-108.83 361.76,-98.47 354.81,-99.34"/>
</a>
</g>
</g>
<!-- Node15 -->
<g id="Node000015" class="node">
<title>Node15</title>
<g id="a_Node000015"><a xlink:href="../../d9/d6c/triangle_8hpp.html" target="_top" xlink:title="Defines the Triangle structure and methods for ray&#45;triangle intersection.">
<polygon fill="white" stroke="#666666" points="729.62,-74.5 610.12,-74.5 610.12,-55.25 729.62,-55.25 729.62,-74.5"/>
<text text-anchor="middle" x="669.88" y="-61" font-family="Times,serif" font-size="10.00">include/math/triangle.hpp</text>
</a>
</g>
</g>
<!-- Node8&#45;&gt;Node15 -->
<g id="edge22_Node000008_Node000015" class="edge">
<title>Node8&#45;&gt;Node15</title>
<g id="a_edge22_Node000008_Node000015"><a xlink:title=" ">
<path fill="none" stroke="#63b8ff" d="M419.61,-108.61C474.09,-98.79 557.22,-84.29 612.58,-74.97"/>
<polygon fill="#63b8ff" stroke="#63b8ff" points="419.15,-105.14 409.93,-110.36 420.39,-112.02 419.15,-105.14"/>
</a>
</g>
</g>
<!-- Node9&#45;&gt;Node8 -->
<g id="edge10_Node000009_Node000008" class="edge">
<title>Node9&#45;&gt;Node8</title>
<g id="a_edge10_Node000009_Node000008"><a xlink:title=" ">
<path fill="none" stroke="#63b8ff" d="M115.1,-75.72C176.43,-85.82 267.74,-101.38 321.36,-110.86"/>
<polygon fill="#63b8ff" stroke="#63b8ff" points="115.94,-72.31 105.5,-74.14 114.8,-79.21 115.94,-72.31"/>
</a>
</g>
</g>
<!-- Node10&#45;&gt;Node8 -->
<g id="edge12_Node000010_Node000008" class="edge">
<title>Node10&#45;&gt;Node8</title>
<g id="a_edge12_Node000010_Node000008"><a xlink:title=" ">
<path fill="none" stroke="#63b8ff" d="M267.22,-78.88C293.46,-88.56 326.59,-101.52 346.85,-110.09"/>
<polygon fill="#63b8ff" stroke="#63b8ff" points="268.47,-75.61 257.88,-75.47 266.07,-82.18 268.47,-75.61"/>
</a>
</g>
</g>
<!-- Node11 -->
<g id="Node000011" class="node">
<title>Node11</title>
<g id="a_Node000011"><a xlink:href="../../d7/d82/plane_8hpp.html" target="_top" xlink:title="Provides the definition of the Plane structure and its associated operations.">
<polygon fill="white" stroke="#666666" points="283.12,-19.25 172.62,-19.25 172.62,0 283.12,0 283.12,-19.25"/>
<text text-anchor="middle" x="227.88" y="-5.75" font-family="Times,serif" font-size="10.00">include/math/plane.hpp</text>
</a>
</g>
</g>
<!-- Node10&#45;&gt;Node11 -->
<g id="edge13_Node000010_Node000011" class="edge">
<title>Node10&#45;&gt;Node11</title>
<g id="a_edge13_Node000010_Node000011"><a xlink:title=" ">
<path fill="none" stroke="#63b8ff" d="M227.88,-43.63C227.88,-35.34 227.88,-26.17 227.88,-19.61"/>
<polygon fill="#63b8ff" stroke="#63b8ff" points="224.38,-43.57 227.88,-53.57 231.38,-43.57 224.38,-43.57"/>
</a>
</g>
</g>
<!-- Node11&#45;&gt;Node8 -->
<g id="edge14_Node000011_Node000008" class="edge">
<title>Node11&#45;&gt;Node8</title>
<g id="a_edge14_Node000011_Node000008"><a xlink:title=" ">
<path fill="none" stroke="#63b8ff" d="M190.79,-23.99C163.73,-35.81 134.43,-54.27 150.88,-74.5 171.94,-100.41 265.19,-111.79 321.41,-116.37"/>
<polygon fill="#63b8ff" stroke="#63b8ff" points="192.02,-27.27 199.94,-20.23 189.36,-20.8 192.02,-27.27"/>
</a>
</g>
</g>
<!-- Node12&#45;&gt;Node8 -->
<g id="edge16_Node000012_Node000008" class="edge">
<title>Node12&#45;&gt;Node8</title>
<g id="a_edge16_Node000012_Node000008"><a xlink:title=" ">
<path fill="none" stroke="#63b8ff" d="M497.77,-78.62C468.7,-88.32 427.33,-101.45 398.42,-110.09"/>
<polygon fill="#63b8ff" stroke="#63b8ff" points="498.84,-81.95 507.2,-75.44 496.6,-75.32 498.84,-81.95"/>
</a>
</g>
</g>
<!-- Node13&#45;&gt;Node8 -->
<g id="edge18_Node000013_Node000008" class="edge">
<title>Node13&#45;&gt;Node8</title>
<g id="a_edge18_Node000013_Node000008"><a xlink:title=" ">
<path fill="none" stroke="#63b8ff" d="M371.45,-86.07C371.92,-94.46 371.45,-103.74 370.04,-110.33"/>
<polygon fill="#63b8ff" stroke="#63b8ff" points="374.95,-85.87 370.26,-76.36 368,-86.71 374.95,-85.87"/>
</a>
</g>
</g>
<!-- Node13&#45;&gt;Node11 -->
<g id="edge19_Node000013_Node000011" class="edge">
<title>Node13&#45;&gt;Node11</title>
<g id="a_edge19_Node000013_Node000011"><a xlink:title=" ">
<path fill="none" stroke="#63b8ff" d="M331.22,-50.79C306.38,-41.14 273.21,-28.25 251.23,-19.7"/>
<polygon fill="#63b8ff" stroke="#63b8ff" points="329.64,-53.93 340.22,-54.29 332.17,-47.41 329.64,-53.93"/>
</a>
</g>
</g>
<!-- Node14 -->
<g id="Node000014" class="node">
<title>Node14</title>
<g id="a_Node000014"><a xlink:href="../../d0/da1/sphere_8hpp.html" target="_top" xlink:title="Defines the Sphere structure and its associated functionality.">
<polygon fill="white" stroke="#666666" points="461.75,-19.25 346,-19.25 346,0 461.75,0 461.75,-19.25"/>
<text text-anchor="middle" x="403.88" y="-5.75" font-family="Times,serif" font-size="10.00">include/math/sphere.hpp</text>
</a>
</g>
</g>
<!-- Node13&#45;&gt;Node14 -->
<g id="edge20_Node000013_Node000014" class="edge">
<title>Node13&#45;&gt;Node14</title>
<g id="a_edge20_Node000013_Node000014"><a xlink:title=" ">
<path fill="none" stroke="#63b8ff" d="M378.01,-45.94C384.5,-37.09 392.04,-26.79 397.3,-19.61"/>
<polygon fill="#63b8ff" stroke="#63b8ff" points="375.29,-43.73 372.21,-53.86 380.94,-47.86 375.29,-43.73"/>
</a>
</g>
</g>
<!-- Node14&#45;&gt;Node8 -->
<g id="edge21_Node000014_Node000008" class="edge">
<title>Node14&#45;&gt;Node8</title>
<g id="a_edge21_Node000014_Node000008"><a xlink:title=" ">
<path fill="none" stroke="#63b8ff" d="M417.35,-28.96C425.2,-42.05 432.24,-59.85 424.88,-74.5 416.66,-90.86 399.29,-102.73 385.34,-110.1"/>
<polygon fill="#63b8ff" stroke="#63b8ff" points="420.43,-27.27 411.97,-20.89 414.6,-31.15 420.43,-27.27"/>
</a>
</g>
</g>
<!-- Node15&#45;&gt;Node8 -->
<g id="edge23_Node000015_Node000008" class="edge">
<title>Node15&#45;&gt;Node8</title>
<g id="a_edge23_Node000015_Node000008"><a xlink:title=" ">
<path fill="none" stroke="#63b8ff" d="M611.83,-76.99C552.54,-87.65 461.97,-103.41 408.5,-112.33"/>
<polygon fill="#63b8ff" stroke="#63b8ff" points="612.18,-80.48 621.4,-75.26 610.93,-73.59 612.18,-80.48"/>
</a>
</g>
</g>
<!-- Node17&#45;&gt;Node7 -->
<g id="edge26_Node000017_Node000007" class="edge">
<title>Node17&#45;&gt;Node7</title>
<g id="a_edge26_Node000017_Node000007"><a xlink:title=" ">
<path fill="none" stroke="#63b8ff" d="M789.45,-196.57C789.92,-204.96 789.45,-214.24 788.04,-220.83"/>
<polygon fill="#63b8ff" stroke="#63b8ff" points="792.95,-196.37 788.26,-186.86 786,-197.21 792.95,-196.37"/>
</a>
</g>
</g>
<!-- Node18 -->
<g id="Node000018" class="node">
<title>Node18</title>
<g id="a_Node000018"><a xlink:href="../../d7/dab/mat__math_8inl.html" target="_top" xlink:title=" ">
<polygon fill="white" stroke="#666666" points="845.25,-129.75 720.5,-129.75 720.5,-110.5 845.25,-110.5 845.25,-129.75"/>
<text text-anchor="middle" x="782.88" y="-116.25" font-family="Times,serif" font-size="10.00">include/math/mat_math.inl</text>
</a>
</g>
</g>
<!-- Node17&#45;&gt;Node18 -->
<g id="edge27_Node000017_Node000018" class="edge">
<title>Node17&#45;&gt;Node18</title>
<g id="a_edge27_Node000017_Node000018"><a xlink:title=" ">
<path fill="none" stroke="#63b8ff" d="M776.32,-154.42C775.83,-146.05 776.28,-136.75 777.67,-130.11"/>
<polygon fill="#63b8ff" stroke="#63b8ff" points="772.81,-154.59 777.52,-164.08 779.76,-153.72 772.81,-154.59"/>
</a>
</g>
</g>
<!-- Node18&#45;&gt;Node17 -->
<g id="edge28_Node000018_Node000017" class="edge">
<title>Node18&#45;&gt;Node17</title>
<g id="a_edge28_Node000018_Node000017"><a xlink:title=" ">
<path fill="none" stroke="#63b8ff" d="M789.45,-141.32C789.92,-149.71 789.45,-158.99 788.04,-165.58"/>
<polygon fill="#63b8ff" stroke="#63b8ff" points="792.95,-141.12 788.26,-131.61 786,-141.96 792.95,-141.12"/>
</a>
</g>
</g>
<!-- Node19&#45;&gt;Node7 -->
<g id="edge30_Node000019_Node000007" class="edge">
<title>Node19&#45;&gt;Node7</title>
<g id="a_edge30_Node000019_Node000007"><a xlink:title=" ">
<path fill="none" stroke="#63b8ff" d="M896.19,-189.64C871.57,-199.29 836.92,-212.1 812.35,-220.59"/>
<polygon fill="#63b8ff" stroke="#63b8ff" points="897.32,-192.96 905.32,-186.01 894.73,-186.45 897.32,-192.96"/>
</a>
</g>
</g>
<!-- Node20 -->
<g id="Node000020" class="node">
<title>Node20</title>
<g id="a_Node000020"><a xlink:href="../../d3/df6/matnxn_8inl.html" target="_top" xlink:title=" ">
<polygon fill="white" stroke="#666666" points="983,-129.75 868.75,-129.75 868.75,-110.5 983,-110.5 983,-129.75"/>
<text text-anchor="middle" x="925.88" y="-116.25" font-family="Times,serif" font-size="10.00">include/math/matnxn.inl</text>
</a>
</g>
</g>
<!-- Node19&#45;&gt;Node20 -->
<g id="edge31_Node000019_Node000020" class="edge">
<title>Node19&#45;&gt;Node20</title>
<g id="a_edge31_Node000019_Node000020"><a xlink:title=" ">
<path fill="none" stroke="#63b8ff" d="M919.32,-154.42C918.83,-146.05 919.28,-136.75 920.67,-130.11"/>
<polygon fill="#63b8ff" stroke="#63b8ff" points="915.81,-154.59 920.52,-164.08 922.76,-153.72 915.81,-154.59"/>
</a>
</g>
</g>
<!-- Node20&#45;&gt;Node19 -->
<g id="edge32_Node000020_Node000019" class="edge">
<title>Node20&#45;&gt;Node19</title>
<g id="a_edge32_Node000020_Node000019"><a xlink:title=" ">
<path fill="none" stroke="#63b8ff" d="M932.45,-141.32C932.92,-149.71 932.45,-158.99 931.04,-165.58"/>
<polygon fill="#63b8ff" stroke="#63b8ff" points="935.95,-141.12 931.26,-131.61 929,-141.96 935.95,-141.12"/>
</a>
</g>
</g>
<!-- Node21&#45;&gt;Node8 -->
<g id="edge34_Node000021_Node000008" class="edge">
<title>Node21&#45;&gt;Node8</title>
<g id="a_edge34_Node000021_Node000008"><a xlink:title=" ">
<path fill="none" stroke="#63b8ff" d="M476.12,-161.42C449.43,-151.75 413.63,-138.79 389.93,-130.2"/>
<polygon fill="#63b8ff" stroke="#63b8ff" points="474.92,-164.71 485.52,-164.83 477.31,-158.13 474.92,-164.71"/>
</a>
</g>
</g>
<!-- Node22 -->
<g id="Node000022" class="node">
<title>Node22</title>
<g id="a_Node000022"><a xlink:href="../../da/d59/quaternion_8cpp.html" target="_top" xlink:title=" ">
<polygon fill="white" stroke="#666666" points="557.62,-129.75 426.12,-129.75 426.12,-110.5 557.62,-110.5 557.62,-129.75"/>
<text text-anchor="middle" x="491.88" y="-116.25" font-family="Times,serif" font-size="10.00">include/math/quaternion.cpp</text>
</a>
</g>
</g>
<!-- Node21&#45;&gt;Node22 -->
<g id="edge35_Node000021_Node000022" class="edge">
<title>Node21&#45;&gt;Node22</title>
<g id="a_edge35_Node000021_Node000022"><a xlink:title=" ">
<path fill="none" stroke="#63b8ff" d="M504.6,-155C501.4,-146.49 497.8,-136.9 495.25,-130.11"/>
<polygon fill="#63b8ff" stroke="#63b8ff" points="501.25,-156.03 508.04,-164.16 507.8,-153.57 501.25,-156.03"/>
</a>
</g>
</g>
<!-- Node23 -->
<g id="Node000023" class="node">
<title>Node23</title>
<g id="a_Node000023"><a xlink:href="../../d8/d7f/quaternion_8inl.html" target="_top" xlink:title=" ">
<polygon fill="white" stroke="#666666" points="702.38,-129.75 575.38,-129.75 575.38,-110.5 702.38,-110.5 702.38,-129.75"/>
<text text-anchor="middle" x="638.88" y="-116.25" font-family="Times,serif" font-size="10.00">include/math/quaternion.inl</text>
</a>
</g>
</g>
<!-- Node21&#45;&gt;Node23 -->
<g id="edge36_Node000021_Node000023" class="edge">
<title>Node21&#45;&gt;Node23</title>
<g id="a_edge36_Node000021_Node000023"><a xlink:title=" ">
<path fill="none" stroke="#63b8ff" d="M538.64,-160.64C560.26,-151.06 590.34,-138.56 612,-130.2"/>
<polygon fill="#63b8ff" stroke="#63b8ff" points="537.26,-157.42 529.58,-164.72 540.14,-163.81 537.26,-157.42"/>
</a>
</g>
</g>
<!-- Node23&#45;&gt;Node21 -->
<g id="edge37_Node000023_Node000021" class="edge">
<title>Node23&#45;&gt;Node21</title>
<g id="a_edge37_Node000023_Node000021"><a xlink:title=" ">
<path fill="none" stroke="#63b8ff" d="M611.99,-134.91C590.35,-144.5 560.26,-157 538.64,-165.34"/>
<polygon fill="#63b8ff" stroke="#63b8ff" points="613.39,-138.12 621.07,-130.82 610.52,-131.74 613.39,-138.12"/>
</a>
</g>
</g>
<!-- Node24&#45;&gt;Node7 -->
<g id="edge39_Node000024_Node000007" class="edge">
<title>Node24&#45;&gt;Node7</title>
<g id="a_edge39_Node000024_Node000007"><a xlink:title=" ">
<path fill="none" stroke="#63b8ff" d="M1010.91,-187.63C960.44,-197.46 885.66,-211.56 835.6,-220.65"/>
<polygon fill="#63b8ff" stroke="#63b8ff" points="1011.29,-191.12 1020.43,-185.76 1009.95,-184.25 1011.29,-191.12"/>
</a>
</g>
</g>
<!-- Node25 -->
<g id="Node000025" class="node">
<title>Node25</title>
<g id="a_Node000025"><a xlink:href="../../df/da5/rmatnxn_8inl.html" target="_top" xlink:title=" ">
<polygon fill="white" stroke="#666666" points="1123.88,-129.75 1005.88,-129.75 1005.88,-110.5 1123.88,-110.5 1123.88,-129.75"/>
<text text-anchor="middle" x="1064.88" y="-116.25" font-family="Times,serif" font-size="10.00">include/math/rmatnxn.inl</text>
</a>
</g>
</g>
<!-- Node24&#45;&gt;Node25 -->
<g id="edge40_Node000024_Node000025" class="edge">
<title>Node24&#45;&gt;Node25</title>
<g id="a_edge40_Node000024_Node000025"><a xlink:title=" ">
<path fill="none" stroke="#63b8ff" d="M1058.32,-154.42C1057.83,-146.05 1058.28,-136.75 1059.67,-130.11"/>
<polygon fill="#63b8ff" stroke="#63b8ff" points="1054.81,-154.59 1059.52,-164.08 1061.76,-153.72 1054.81,-154.59"/>
</a>
</g>
</g>
<!-- Node25&#45;&gt;Node24 -->
<g id="edge41_Node000025_Node000024" class="edge">
<title>Node25&#45;&gt;Node24</title>
<g id="a_edge41_Node000025_Node000024"><a xlink:title=" ">
<path fill="none" stroke="#63b8ff" d="M1071.45,-141.32C1071.92,-149.71 1071.45,-158.99 1070.04,-165.58"/>
<polygon fill="#63b8ff" stroke="#63b8ff" points="1074.95,-141.12 1070.26,-131.61 1068,-141.96 1074.95,-141.12"/>
</a>
</g>
</g>
<!-- Node26&#45;&gt;Node6 -->
<g id="edge43_Node000026_Node000006" class="edge">
<title>Node26&#45;&gt;Node6</title>
<g id="a_edge43_Node000026_Node000006"><a xlink:title=" ">
<path fill="none" stroke="#63b8ff" d="M921.45,-251.82C921.92,-260.21 921.45,-269.49 920.04,-276.08"/>
<polygon fill="#63b8ff" stroke="#63b8ff" points="924.95,-251.62 920.26,-242.11 918,-252.46 924.95,-251.62"/>
</a>
</g>
</g>
<!-- Node27&#45;&gt;Node4 -->
<g id="edge47_Node000027_Node000004" class="edge">
<title>Node27&#45;&gt;Node4</title>
<g id="a_edge47_Node000027_Node000004"><a xlink:title=" ">
<path fill="none" stroke="#63b8ff" d="M674.26,-383.64C715.4,-373.86 773.14,-360.13 810.78,-351.18"/>
<polygon fill="#63b8ff" stroke="#63b8ff" points="673.52,-380.21 664.6,-385.93 675.14,-387.02 673.52,-380.21"/>
</a>
</g>
</g>
<!-- Node28 -->
<g id="Node000028" class="node">
<title>Node28</title>
<g id="a_Node000028"><a xlink:href="../../d7/d70/rvec3_8inl.html" target="_top" xlink:title=" ">
<polygon fill="white" stroke="#666666" points="654.25,-350.75 547.5,-350.75 547.5,-331.5 654.25,-331.5 654.25,-350.75"/>
<text text-anchor="middle" x="600.88" y="-337.25" font-family="Times,serif" font-size="10.00">include/math/rvec3.inl</text>
</a>
</g>
</g>
<!-- Node27&#45;&gt;Node28 -->
<g id="edge45_Node000027_Node000028" class="edge">
<title>Node27&#45;&gt;Node28</title>
<g id="a_edge45_Node000027_Node000028"><a xlink:title=" ">
<path fill="none" stroke="#63b8ff" d="M610.07,-376.87C605.5,-368.14 601.41,-358.14 599.72,-351.11"/>
<polygon fill="#63b8ff" stroke="#63b8ff" points="606.92,-378.41 614.98,-385.27 612.96,-374.87 606.92,-378.41"/>
</a>
</g>
</g>
<!-- Node28&#45;&gt;Node27 -->
<g id="edge46_Node000028_Node000027" class="edge">
<title>Node28&#45;&gt;Node27</title>
<g id="a_edge46_Node000028_Node000027"><a xlink:title=" ">
<path fill="none" stroke="#63b8ff" d="M615.8,-360.87C620.36,-369.62 624.43,-379.61 626.08,-386.58"/>
<polygon fill="#63b8ff" stroke="#63b8ff" points="618.94,-359.31 610.89,-352.42 612.89,-362.82 618.94,-359.31"/>
</a>
</g>
</g>
<!-- Node29&#45;&gt;Node4 -->
<g id="edge51_Node000029_Node000004" class="edge">
<title>Node29&#45;&gt;Node4</title>
<g id="a_edge51_Node000029_Node000004"><a xlink:title=" ">
<path fill="none" stroke="#63b8ff" d="M786.06,-380.57C801.45,-371.15 820.9,-359.25 834.04,-351.2"/>
<polygon fill="#63b8ff" stroke="#63b8ff" points="784.63,-377.35 777.92,-385.55 788.28,-383.32 784.63,-377.35"/>
</a>
</g>
</g>
<!-- Node30 -->
<g id="Node000030" class="node">
<title>Node30</title>
<g id="a_Node000030"><a xlink:href="../../d1/d9f/rvec4_8inl.html" target="_top" xlink:title=" ">
<polygon fill="white" stroke="#666666" points="779.25,-350.75 672.5,-350.75 672.5,-331.5 779.25,-331.5 779.25,-350.75"/>
<text text-anchor="middle" x="725.88" y="-337.25" font-family="Times,serif" font-size="10.00">include/math/rvec4.inl</text>
</a>
</g>
</g>
<!-- Node29&#45;&gt;Node30 -->
<g id="edge49_Node000029_Node000030" class="edge">
<title>Node29&#45;&gt;Node30</title>
<g id="a_edge49_Node000029_Node000030"><a xlink:title=" ">
<path fill="none" stroke="#63b8ff" d="M743.55,-377.72C736.79,-368.81 730.13,-358.37 726.74,-351.11"/>
<polygon fill="#63b8ff" stroke="#63b8ff" points="740.78,-379.87 749.81,-385.41 746.2,-375.45 740.78,-379.87"/>
</a>
</g>
</g>
<!-- Node30&#45;&gt;Node29 -->
<g id="edge50_Node000030_Node000029" class="edge">
<title>Node30&#45;&gt;Node29</title>
<g id="a_edge50_Node000030_Node000029"><a xlink:title=" ">
<path fill="none" stroke="#63b8ff" d="M744.38,-360.01C751.14,-368.96 757.77,-379.38 761.1,-386.58"/>
<polygon fill="#63b8ff" stroke="#63b8ff" points="747.13,-357.84 738.11,-352.28 741.7,-362.25 747.13,-357.84"/>
</a>
</g>
</g>
<!-- Node31&#45;&gt;Node4 -->
<g id="edge54_Node000031_Node000004" class="edge">
<title>Node31&#45;&gt;Node4</title>
<g id="a_edge54_Node000031_Node000004"><a xlink:title=" ">
<path fill="none" stroke="#63b8ff" d="M917.95,-380.84C901.06,-371.38 879.56,-359.33 865.07,-351.2"/>
<polygon fill="#63b8ff" stroke="#63b8ff" points="916,-383.77 926.44,-385.6 919.43,-377.66 916,-383.77"/>
</a>
</g>
</g>
<!-- Node32 -->
<g id="Node000032" class="node">
<title>Node32</title>
<g id="a_Node000032"><a xlink:href="../../d2/d56/vec2_8inl.html" target="_top" xlink:title=" ">
<polygon fill="white" stroke="#666666" points="1021.38,-350.75 918.38,-350.75 918.38,-331.5 1021.38,-331.5 1021.38,-350.75"/>
<text text-anchor="middle" x="969.88" y="-337.25" font-family="Times,serif" font-size="10.00">include/math/vec2.inl</text>
</a>
</g>
</g>
<!-- Node31&#45;&gt;Node32 -->
<g id="edge55_Node000031_Node000032" class="edge">
<title>Node31&#45;&gt;Node32</title>
<g id="a_edge55_Node000031_Node000032"><a xlink:title=" ">
<path fill="none" stroke="#63b8ff" d="M946.81,-376C950.42,-367.49 955.54,-357.9 960.28,-351.11"/>
<polygon fill="#63b8ff" stroke="#63b8ff" points="943.61,-374.56 943.51,-385.16 950.2,-376.94 943.61,-374.56"/>
</a>
</g>
</g>
<!-- Node32&#45;&gt;Node31 -->
<g id="edge56_Node000032_Node000031" class="edge">
<title>Node32&#45;&gt;Node31</title>
<g id="a_edge56_Node000032_Node000031"><a xlink:title=" ">
<path fill="none" stroke="#63b8ff" d="M966.83,-361.74C963.2,-370.27 958.07,-379.84 953.33,-386.58"/>
<polygon fill="#63b8ff" stroke="#63b8ff" points="970.06,-363.13 970.18,-352.53 963.48,-360.74 970.06,-363.13"/>
</a>
</g>
</g>
<!-- Node33&#45;&gt;Node4 -->
<g id="edge58_Node000033_Node000004" class="edge">
<title>Node33&#45;&gt;Node4</title>
<g id="a_edge58_Node000033_Node000004"><a xlink:title=" ">
<path fill="none" stroke="#63b8ff" d="M1026.1,-383.7C984.39,-373.91 925.7,-360.15 887.48,-351.18"/>
<polygon fill="#63b8ff" stroke="#63b8ff" points="1025.1,-387.06 1035.64,-385.94 1026.7,-380.24 1025.1,-387.06"/>
</a>
</g>
</g>
<!-- Node34 -->
<g id="Node000034" class="node">
<title>Node34</title>
<g id="a_Node000034"><a xlink:href="../../d3/dc9/vec3_8inl.html" target="_top" xlink:title=" ">
<polygon fill="white" stroke="#666666" points="1142.38,-350.75 1039.38,-350.75 1039.38,-331.5 1142.38,-331.5 1142.38,-350.75"/>
<text text-anchor="middle" x="1090.88" y="-337.25" font-family="Times,serif" font-size="10.00">include/math/vec3.inl</text>
</a>
</g>
</g>
<!-- Node33&#45;&gt;Node34 -->
<g id="edge59_Node000033_Node000034" class="edge">
<title>Node33&#45;&gt;Node34</title>
<g id="a_edge59_Node000033_Node000034"><a xlink:title=" ">
<path fill="none" stroke="#63b8ff" d="M1074.94,-375.42C1076.8,-367.05 1079.88,-357.75 1083.14,-351.11"/>
<polygon fill="#63b8ff" stroke="#63b8ff" points="1071.51,-374.66 1073.42,-385.09 1078.43,-375.75 1071.51,-374.66"/>
</a>
</g>
</g>
<!-- Node34&#45;&gt;Node33 -->
<g id="edge60_Node000034_Node000033" class="edge">
<title>Node34&#45;&gt;Node33</title>
<g id="a_edge60_Node000034_Node000033"><a xlink:title=" ">
<path fill="none" stroke="#63b8ff" d="M1091.76,-362.32C1089.87,-370.71 1086.78,-379.99 1083.52,-386.58"/>
<polygon fill="#63b8ff" stroke="#63b8ff" points="1095.19,-363.03 1093.31,-352.6 1088.28,-361.93 1095.19,-363.03"/>
</a>
</g>
</g>
<!-- Node35&#45;&gt;Node4 -->
<g id="edge62_Node000035_Node000004" class="edge">
<title>Node35&#45;&gt;Node4</title>
<g id="a_edge62_Node000035_Node000004"><a xlink:title=" ">
<path fill="none" stroke="#63b8ff" d="M1139.3,-385.57C1070.53,-375.28 963.85,-359.32 900.72,-349.88"/>
<polygon fill="#63b8ff" stroke="#63b8ff" points="1138.51,-388.99 1148.92,-387.01 1139.55,-382.06 1138.51,-388.99"/>
</a>
</g>
</g>
<!-- Node36 -->
<g id="Node000036" class="node">
<title>Node36</title>
<g id="a_Node000036"><a xlink:href="../../da/d28/vec4_8inl.html" target="_top" xlink:title=" ">
<polygon fill="white" stroke="#666666" points="1263.38,-350.75 1160.38,-350.75 1160.38,-331.5 1263.38,-331.5 1263.38,-350.75"/>
<text text-anchor="middle" x="1211.88" y="-337.25" font-family="Times,serif" font-size="10.00">include/math/vec4.inl</text>
</a>
</g>
</g>
<!-- Node35&#45;&gt;Node36 -->
<g id="edge63_Node000035_Node000036" class="edge">
<title>Node35&#45;&gt;Node36</title>
<g id="a_edge63_Node000035_Node000036"><a xlink:title=" ">
<path fill="none" stroke="#63b8ff" d="M1200.96,-375.13C1201.59,-366.84 1203.25,-357.67 1205.49,-351.11"/>
<polygon fill="#63b8ff" stroke="#63b8ff" points="1197.46,-375.04 1200.88,-385.07 1204.46,-375.1 1197.46,-375.04"/>
</a>
</g>
</g>
<!-- Node36&#45;&gt;Node35 -->
<g id="edge64_Node000036_Node000035" class="edge">
<title>Node36&#45;&gt;Node35</title>
<g id="a_edge64_Node000036_Node000035"><a xlink:title=" ">
<path fill="none" stroke="#63b8ff" d="M1215.77,-362.62C1215.12,-370.92 1213.45,-380.07 1211.2,-386.58"/>
<polygon fill="#63b8ff" stroke="#63b8ff" points="1219.27,-362.66 1215.88,-352.62 1212.27,-362.58 1219.27,-362.66"/>
</a>
</g>
</g>
<!-- Node37&#45;&gt;Node4 -->
<g id="edge66_Node000037_Node000004" class="edge">
<title>Node37&#45;&gt;Node4</title>
<g id="a_edge66_Node000037_Node000004"><a xlink:title=" ">
<path fill="none" stroke="#63b8ff" d="M1266.27,-386.61C1107.18,-368.14 1065.07,-369.52 909.88,-350.75 906.9,-350.39 903.85,-350.01 900.77,-349.61"/>
<polygon fill="#63b8ff" stroke="#63b8ff" points="1265.58,-390.05 1275.92,-387.73 1266.39,-383.1 1265.58,-390.05"/>
</a>
</g>
</g>
<!-- Node38 -->
<g id="Node000038" class="node">
<title>Node38</title>
<g id="a_Node000038"><a xlink:href="../../d6/d8c/vecn_8inl.html" target="_top" xlink:title=" ">
<polygon fill="white" stroke="#666666" points="1384.38,-350.75 1281.38,-350.75 1281.38,-331.5 1384.38,-331.5 1384.38,-350.75"/>
<text text-anchor="middle" x="1332.88" y="-337.25" font-family="Times,serif" font-size="10.00">include/math/vecn.inl</text>
</a>
</g>
</g>
<!-- Node37&#45;&gt;Node38 -->
<g id="edge67_Node000037_Node000038" class="edge">
<title>Node37&#45;&gt;Node38</title>
<g id="a_edge67_Node000037_Node000038"><a xlink:title=" ">
<path fill="none" stroke="#63b8ff" d="M1325.69,-375.42C1325.36,-367.05 1325.98,-357.75 1327.5,-351.11"/>
<polygon fill="#63b8ff" stroke="#63b8ff" points="1322.18,-375.5 1326.71,-385.08 1329.14,-374.76 1322.18,-375.5"/>
</a>
</g>
</g>
<!-- Node38&#45;&gt;Node37 -->
<g id="edge68_Node000038_Node000037" class="edge">
<title>Node38&#45;&gt;Node37</title>
<g id="a_edge68_Node000038_Node000037"><a xlink:title=" ">
<path fill="none" stroke="#63b8ff" d="M1339.07,-362.32C1339.38,-370.71 1338.74,-379.99 1337.21,-386.58"/>
<polygon fill="#63b8ff" stroke="#63b8ff" points="1342.57,-362.2 1338.07,-352.61 1335.61,-362.92 1342.57,-362.2"/>
</a>
</g>
</g>
</g>
</svg>
