<?xml version="1.0" encoding="UTF-8" standalone="no"?>
<!DOCTYPE svg PUBLIC "-//W3C//DTD SVG 1.1//EN"
 "http://www.w3.org/Graphics/SVG/1.1/DTD/svg11.dtd">
<!-- Generated by graphviz version 9.0.0 (20230911.1827)
 -->
<!-- Title: include/math/rmatnxn.hpp Pages: 1 -->
<svg width="806pt" height="304pt"
 viewBox="0.00 0.00 805.88 303.50" xmlns="http://www.w3.org/2000/svg" xmlns:xlink="http://www.w3.org/1999/xlink">
<g id="graph0" class="graph" transform="scale(1 1) rotate(0) translate(4 299.5)">
<title>include/math/rmatnxn.hpp</title>
<!-- Node1 -->
<g id="Node000001" class="node">
<title>Node1</title>
<g id="a_Node000001"><a xlink:title="Specialized representation of matrices using reference semantics.">
<polygon fill="#999999" stroke="#666666" points="455.62,-295.5 332.38,-295.5 332.38,-276.25 455.62,-276.25 455.62,-295.5"/>
<text text-anchor="middle" x="394" y="-282" font-family="Times,serif" font-size="10.00">include/math/rmatnxn.hpp</text>
</a>
</g>
</g>
<!-- Node2 -->
<g id="Node000002" class="node">
<title>Node2</title>
<g id="a_Node000002"><a xlink:href="../../dc/dc2/mat_8hpp.html" target="_top" xlink:title="Provides matrix definitions tailored for various sizes and primitive types.">
<polygon fill="white" stroke="#666666" points="382.25,-240.25 277.75,-240.25 277.75,-221 382.25,-221 382.25,-240.25"/>
<text text-anchor="middle" x="330" y="-226.75" font-family="Times,serif" font-size="10.00">include/math/mat.hpp</text>
</a>
</g>
</g>
<!-- Node1&#45;&gt;Node2 -->
<g id="edge1_Node000001_Node000002" class="edge">
<title>Node1&#45;&gt;Node2</title>
<g id="a_edge1_Node000001_Node000002"><a xlink:title=" ">
<path fill="none" stroke="#63b8ff" d="M368.97,-269.22C356.76,-259.87 343.24,-248.33 335.51,-240.52"/>
<polygon fill="#63b8ff" stroke="#63b8ff" points="366.59,-271.81 376.71,-274.94 370.75,-266.18 366.59,-271.81"/>
</a>
</g>
</g>
<!-- Node19 -->
<g id="Node000019" class="node">
<title>Node19</title>
<g id="a_Node000019"><a xlink:href="../../df/da5/rmatnxn_8inl.html" target="_top" xlink:title=" ">
<polygon fill="white" stroke="#666666" points="518,-240.25 400,-240.25 400,-221 518,-221 518,-240.25"/>
<text text-anchor="middle" x="459" y="-226.75" font-family="Times,serif" font-size="10.00">include/math/rmatnxn.inl</text>
</a>
</g>
</g>
<!-- Node1&#45;&gt;Node19 -->
<g id="edge33_Node000001_Node000019" class="edge">
<title>Node1&#45;&gt;Node19</title>
<g id="a_edge33_Node000001_Node000019"><a xlink:title=" ">
<path fill="none" stroke="#63b8ff" d="M407.87,-268.35C418.18,-259.2 432,-248.18 442.83,-240.61"/>
<polygon fill="#63b8ff" stroke="#63b8ff" points="405.61,-265.68 400.67,-275.05 410.38,-270.8 405.61,-265.68"/>
</a>
</g>
</g>
<!-- Node2&#45;&gt;Node1 -->
<g id="edge32_Node000002_Node000001" class="edge">
<title>Node2&#45;&gt;Node1</title>
<g id="a_edge32_Node000002_Node000001"><a xlink:title=" ">
<path fill="none" stroke="#63b8ff" d="M355.01,-247.26C367.27,-256.66 380.88,-268.27 388.6,-276.08"/>
<polygon fill="#63b8ff" stroke="#63b8ff" points="357.34,-244.64 347.22,-241.51 353.18,-250.27 357.34,-244.64"/>
</a>
</g>
</g>
<!-- Node3 -->
<g id="Node000003" class="node">
<title>Node3</title>
<g id="a_Node000003"><a xlink:href="../../d4/d78/math_8hpp.html" target="_top" xlink:title="Provides various mathematical utilities, vector operations, and custom hash specializations.">
<polygon fill="white" stroke="#666666" points="483.25,-129.75 396.75,-129.75 396.75,-110.5 483.25,-110.5 483.25,-129.75"/>
<text text-anchor="middle" x="440" y="-116.25" font-family="Times,serif" font-size="10.00">include/math.hpp</text>
</a>
</g>
</g>
<!-- Node2&#45;&gt;Node3 -->
<g id="edge2_Node000002_Node000003" class="edge">
<title>Node2&#45;&gt;Node3</title>
<g id="a_edge2_Node000002_Node000003"><a xlink:title=" ">
<path fill="none" stroke="#63b8ff" d="M357.93,-215.24C371.33,-207.47 387.04,-197 399,-185 415.74,-168.2 429.21,-143.45 435.73,-130.23"/>
<polygon fill="#63b8ff" stroke="#63b8ff" points="356.58,-211.99 349.54,-219.91 359.98,-218.1 356.58,-211.99"/>
</a>
</g>
</g>
<!-- Node11 -->
<g id="Node000011" class="node">
<title>Node11</title>
<g id="a_Node000011"><a xlink:href="../../d1/dea/mat_8cpp.html" target="_top" xlink:title=" ">
<polygon fill="white" stroke="#666666" points="251.88,-185 148.12,-185 148.12,-165.75 251.88,-165.75 251.88,-185"/>
<text text-anchor="middle" x="200" y="-171.5" font-family="Times,serif" font-size="10.00">include/math/mat.cpp</text>
</a>
</g>
</g>
<!-- Node2&#45;&gt;Node11 -->
<g id="edge18_Node000002_Node000011" class="edge">
<title>Node2&#45;&gt;Node11</title>
<g id="a_edge18_Node000002_Node000011"><a xlink:title=" ">
<path fill="none" stroke="#63b8ff" d="M297.43,-216.28C273.93,-206.66 242.83,-193.92 222.16,-185.45"/>
<polygon fill="#63b8ff" stroke="#63b8ff" points="295.97,-219.47 306.55,-220.02 298.62,-212.99 295.97,-219.47"/>
</a>
</g>
</g>
<!-- Node12 -->
<g id="Node000012" class="node">
<title>Node12</title>
<g id="a_Node000012"><a xlink:href="../../dc/d4a/mat__math_8hpp.html" target="_top" xlink:title="Defines various matrix mathematical operations.">
<polygon fill="white" stroke="#666666" points="130,-185 0,-185 0,-165.75 130,-165.75 130,-185"/>
<text text-anchor="middle" x="65" y="-171.5" font-family="Times,serif" font-size="10.00">include/math/mat_math.hpp</text>
</a>
</g>
</g>
<!-- Node2&#45;&gt;Node12 -->
<g id="edge19_Node000002_Node000012" class="edge">
<title>Node2&#45;&gt;Node12</title>
<g id="a_edge19_Node000002_Node000012"><a xlink:title=" ">
<path fill="none" stroke="#63b8ff" d="M268.43,-218.38C218,-208.58 148.24,-194.53 104.85,-185.43"/>
<polygon fill="#63b8ff" stroke="#63b8ff" points="267.55,-221.78 278.03,-220.24 268.88,-214.91 267.55,-221.78"/>
</a>
</g>
</g>
<!-- Node14 -->
<g id="Node000014" class="node">
<title>Node14</title>
<g id="a_Node000014"><a xlink:href="../../dd/dad/matnxn_8hpp.html" target="_top" xlink:title="Provides the definition of a generic NxN matrix for mathematical operations.">
<polygon fill="white" stroke="#666666" points="389.75,-185 270.25,-185 270.25,-165.75 389.75,-165.75 389.75,-185"/>
<text text-anchor="middle" x="330" y="-171.5" font-family="Times,serif" font-size="10.00">include/math/matnxn.hpp</text>
</a>
</g>
</g>
<!-- Node2&#45;&gt;Node14 -->
<g id="edge23_Node000002_Node000014" class="edge">
<title>Node2&#45;&gt;Node14</title>
<g id="a_edge23_Node000002_Node000014"><a xlink:title=" ">
<path fill="none" stroke="#63b8ff" d="M323.44,-209.67C322.95,-201.3 323.4,-192 324.79,-185.36"/>
<polygon fill="#63b8ff" stroke="#63b8ff" points="319.94,-209.84 324.65,-219.33 326.88,-208.97 319.94,-209.84"/>
</a>
</g>
</g>
<!-- Node16 -->
<g id="Node000016" class="node">
<title>Node16</title>
<g id="a_Node000016"><a xlink:href="../../db/d65/quaternion_8hpp.html" target="_top" xlink:title="Quaternion operations and related mathematical functions.">
<polygon fill="white" stroke="#666666" points="631.12,-185 498.88,-185 498.88,-165.75 631.12,-165.75 631.12,-185"/>
<text text-anchor="middle" x="565" y="-171.5" font-family="Times,serif" font-size="10.00">include/math/quaternion.hpp</text>
</a>
</g>
</g>
<!-- Node2&#45;&gt;Node16 -->
<g id="edge27_Node000002_Node000016" class="edge">
<title>Node2&#45;&gt;Node16</title>
<g id="a_edge27_Node000002_Node000016"><a xlink:title=" ">
<path fill="none" stroke="#63b8ff" d="M381.26,-218.01C424.45,-208.22 485.38,-194.42 525.03,-185.43"/>
<polygon fill="#63b8ff" stroke="#63b8ff" points="380.59,-214.57 371.61,-220.2 382.13,-221.4 380.59,-214.57"/>
</a>
</g>
</g>
<!-- Node4 -->
<g id="Node000004" class="node">
<title>Node4</title>
<g id="a_Node000004"><a xlink:href="../../d7/de4/box_8hpp.html" target="_top" xlink:title="Defines a templated bounding box class for 3D primitives.">
<polygon fill="white" stroke="#666666" points="163.88,-74.5 60.12,-74.5 60.12,-55.25 163.88,-55.25 163.88,-74.5"/>
<text text-anchor="middle" x="112" y="-61" font-family="Times,serif" font-size="10.00">include/math/box.hpp</text>
</a>
</g>
</g>
<!-- Node3&#45;&gt;Node4 -->
<g id="edge3_Node000003_Node000004" class="edge">
<title>Node3&#45;&gt;Node4</title>
<g id="a_edge3_Node000003_Node000004"><a xlink:title=" ">
<path fill="none" stroke="#63b8ff" d="M385.15,-111.51C383.07,-111.17 381.01,-110.83 379,-110.5 303.2,-98.09 215.64,-83.97 161.96,-75"/>
<polygon fill="#63b8ff" stroke="#63b8ff" points="384.52,-114.95 394.95,-113.11 385.65,-108.04 384.52,-114.95"/>
</a>
</g>
</g>
<!-- Node5 -->
<g id="Node000005" class="node">
<title>Node5</title>
<g id="a_Node000005"><a xlink:href="../../d6/d02/intersection_8hpp.html" target="_top" xlink:title="Provides functionalities to represent and handle intersections in 3D space.">
<polygon fill="white" stroke="#666666" points="318,-74.5 182,-74.5 182,-55.25 318,-55.25 318,-74.5"/>
<text text-anchor="middle" x="250" y="-61" font-family="Times,serif" font-size="10.00">include/math/intersection.hpp</text>
</a>
</g>
</g>
<!-- Node3&#45;&gt;Node5 -->
<g id="edge5_Node000003_Node000005" class="edge">
<title>Node3&#45;&gt;Node5</title>
<g id="a_edge5_Node000003_Node000005"><a xlink:title=" ">
<path fill="none" stroke="#63b8ff" d="M391.7,-107.2C355.37,-97.44 307.04,-83.84 277.16,-74.95"/>
<polygon fill="#63b8ff" stroke="#63b8ff" points="390.53,-110.51 401.09,-109.7 392.33,-103.74 390.53,-110.51"/>
</a>
</g>
</g>
<!-- Node7 -->
<g id="Node000007" class="node">
<title>Node7</title>
<g id="a_Node000007"><a xlink:href="../../d1/df2/random_8hpp.html" target="_top" xlink:title="Provides functionality for random number generation and manipulation in vector spaces.">
<polygon fill="white" stroke="#666666" points="455.75,-74.5 336.25,-74.5 336.25,-55.25 455.75,-55.25 455.75,-74.5"/>
<text text-anchor="middle" x="396" y="-61" font-family="Times,serif" font-size="10.00">include/math/random.hpp</text>
</a>
</g>
</g>
<!-- Node3&#45;&gt;Node7 -->
<g id="edge9_Node000003_Node000007" class="edge">
<title>Node3&#45;&gt;Node7</title>
<g id="a_edge9_Node000003_Node000007"><a xlink:title=" ">
<path fill="none" stroke="#63b8ff" d="M419.79,-102.32C411.45,-93.23 402.84,-82.35 398.22,-74.86"/>
<polygon fill="#63b8ff" stroke="#63b8ff" points="417.04,-104.51 426.51,-109.25 422.06,-99.63 417.04,-104.51"/>
</a>
</g>
</g>
<!-- Node8 -->
<g id="Node000008" class="node">
<title>Node8</title>
<g id="a_Node000008"><a xlink:href="../../db/d1d/ray_8hpp.html" target="_top" xlink:title="Contains the definition of the Ray class.">
<polygon fill="white" stroke="#666666" points="751.75,-74.5 650.25,-74.5 650.25,-55.25 751.75,-55.25 751.75,-74.5"/>
<text text-anchor="middle" x="701" y="-61" font-family="Times,serif" font-size="10.00">include/math/ray.hpp</text>
</a>
</g>
</g>
<!-- Node3&#45;&gt;Node8 -->
<g id="edge11_Node000003_Node000008" class="edge">
<title>Node3&#45;&gt;Node8</title>
<g id="a_edge11_Node000003_Node000008"><a xlink:title=" ">
<path fill="none" stroke="#63b8ff" d="M490.35,-107.7C536.79,-97.9 605.19,-83.97 651.39,-74.93"/>
<polygon fill="#63b8ff" stroke="#63b8ff" points="489.88,-104.22 480.82,-109.72 491.33,-111.07 489.88,-104.22"/>
</a>
</g>
</g>
<!-- Node10 -->
<g id="Node000010" class="node">
<title>Node10</title>
<g id="a_Node000010"><a xlink:href="../../d9/d6c/triangle_8hpp.html" target="_top" xlink:title="Defines the Triangle structure and methods for ray&#45;triangle intersection.">
<polygon fill="white" stroke="#666666" points="631.75,-74.5 512.25,-74.5 512.25,-55.25 631.75,-55.25 631.75,-74.5"/>
<text text-anchor="middle" x="572" y="-61" font-family="Times,serif" font-size="10.00">include/math/triangle.hpp</text>
</a>
</g>
</g>
<!-- Node3&#45;&gt;Node10 -->
<g id="edge16_Node000003_Node000010" class="edge">
<title>Node3&#45;&gt;Node10</title>
<g id="a_edge16_Node000003_Node000010"><a xlink:title=" ">
<path fill="none" stroke="#63b8ff" d="M467.44,-105.65C490,-96.04 521.63,-83.38 544.27,-74.95"/>
<polygon fill="#63b8ff" stroke="#63b8ff" points="466.35,-102.31 458.56,-109.49 469.13,-108.73 466.35,-102.31"/>
</a>
</g>
</g>
<!-- Node4&#45;&gt;Node3 -->
<g id="edge4_Node000004_Node000003" class="edge">
<title>Node4&#45;&gt;Node3</title>
<g id="a_edge4_Node000004_Node000003"><a xlink:title=" ">
<path fill="none" stroke="#63b8ff" d="M175.29,-74.93C233.04,-83.87 320.46,-97.97 396.28,-110.38"/>
<polygon fill="#63b8ff" stroke="#63b8ff" points="176.06,-71.51 165.65,-73.44 175,-78.43 176.06,-71.51"/>
</a>
</g>
</g>
<!-- Node5&#45;&gt;Node3 -->
<g id="edge6_Node000005_Node000003" class="edge">
<title>Node5&#45;&gt;Node3</title>
<g id="a_edge6_Node000005_Node000003"><a xlink:title=" ">
<path fill="none" stroke="#63b8ff" d="M298.48,-77.85C334.85,-87.62 383.17,-101.22 412.99,-110.09"/>
<polygon fill="#63b8ff" stroke="#63b8ff" points="299.64,-74.54 289.08,-75.34 297.84,-81.3 299.64,-74.54"/>
</a>
</g>
</g>
<!-- Node6 -->
<g id="Node000006" class="node">
<title>Node6</title>
<g id="a_Node000006"><a xlink:href="../../d7/d82/plane_8hpp.html" target="_top" xlink:title="Provides the definition of the Plane structure and its associated operations.">
<polygon fill="white" stroke="#666666" points="539.25,-19.25 428.75,-19.25 428.75,0 539.25,0 539.25,-19.25"/>
<text text-anchor="middle" x="484" y="-5.75" font-family="Times,serif" font-size="10.00">include/math/plane.hpp</text>
</a>
</g>
</g>
<!-- Node5&#45;&gt;Node6 -->
<g id="edge7_Node000005_Node000006" class="edge">
<title>Node5&#45;&gt;Node6</title>
<g id="a_edge7_Node000005_Node000006"><a xlink:title=" ">
<path fill="none" stroke="#63b8ff" d="M301.04,-52.26C344.05,-42.47 404.72,-28.67 444.2,-19.68"/>
<polygon fill="#63b8ff" stroke="#63b8ff" points="300.41,-48.81 291.44,-54.45 301.96,-55.64 300.41,-48.81"/>
</a>
</g>
</g>
<!-- Node6&#45;&gt;Node3 -->
<g id="edge8_Node000006_Node000003" class="edge">
<title>Node6&#45;&gt;Node3</title>
<g id="a_edge8_Node000006_Node000003"><a xlink:title=" ">
<path fill="none" stroke="#63b8ff" d="M479.35,-30.33C476.02,-43.16 471.08,-60.12 465,-74.5 459.54,-87.42 451.29,-101.39 445.78,-110.19"/>
<polygon fill="#63b8ff" stroke="#63b8ff" points="482.65,-31.53 481.65,-20.99 475.86,-29.86 482.65,-31.53"/>
</a>
</g>
</g>
<!-- Node7&#45;&gt;Node3 -->
<g id="edge10_Node000007_Node000003" class="edge">
<title>Node7&#45;&gt;Node3</title>
<g id="a_edge10_Node000007_Node000003"><a xlink:title=" ">
<path fill="none" stroke="#63b8ff" d="M416.42,-82.91C424.77,-92.04 433.35,-102.9 437.9,-110.33"/>
<polygon fill="#63b8ff" stroke="#63b8ff" points="419.15,-80.7 409.68,-75.95 414.12,-85.57 419.15,-80.7"/>
</a>
</g>
</g>
<!-- Node8&#45;&gt;Node3 -->
<g id="edge12_Node000008_Node000003" class="edge">
<title>Node8&#45;&gt;Node3</title>
<g id="a_edge12_Node000008_Node000003"><a xlink:title=" ">
<path fill="none" stroke="#63b8ff" d="M650.68,-77.3C602.14,-87.54 529.57,-102.3 483.47,-111.27"/>
<polygon fill="#63b8ff" stroke="#63b8ff" points="651.33,-80.74 660.39,-75.24 649.88,-73.89 651.33,-80.74"/>
</a>
</g>
</g>
<!-- Node8&#45;&gt;Node6 -->
<g id="edge13_Node000008_Node000006" class="edge">
<title>Node8&#45;&gt;Node6</title>
<g id="a_edge13_Node000008_Node000006"><a xlink:title=" ">
<path fill="none" stroke="#63b8ff" d="M653.16,-52.13C613.34,-42.36 557.45,-28.65 520.99,-19.7"/>
<polygon fill="#63b8ff" stroke="#63b8ff" points="652.17,-55.5 662.72,-54.48 653.84,-48.7 652.17,-55.5"/>
</a>
</g>
</g>
<!-- Node9 -->
<g id="Node000009" class="node">
<title>Node9</title>
<g id="a_Node000009"><a xlink:href="../../d0/da1/sphere_8hpp.html" target="_top" xlink:title="Defines the Sphere structure and its associated functionality.">
<polygon fill="white" stroke="#666666" points="797.88,-19.25 682.12,-19.25 682.12,0 797.88,0 797.88,-19.25"/>
<text text-anchor="middle" x="740" y="-5.75" font-family="Times,serif" font-size="10.00">include/math/sphere.hpp</text>
</a>
</g>
</g>
<!-- Node8&#45;&gt;Node9 -->
<g id="edge14_Node000008_Node000009" class="edge">
<title>Node8&#45;&gt;Node9</title>
<g id="a_edge14_Node000008_Node000009"><a xlink:title=" ">
<path fill="none" stroke="#63b8ff" d="M714.14,-45.94C720.62,-37.09 728.16,-26.79 733.42,-19.61"/>
<polygon fill="#63b8ff" stroke="#63b8ff" points="711.42,-43.73 708.33,-53.86 717.07,-47.86 711.42,-43.73"/>
</a>
</g>
</g>
<!-- Node9&#45;&gt;Node3 -->
<g id="edge15_Node000009_Node000003" class="edge">
<title>Node9&#45;&gt;Node3</title>
<g id="a_edge15_Node000009_Node000003"><a xlink:title=" ">
<path fill="none" stroke="#63b8ff" d="M754.43,-28.63C763.76,-42.58 772.26,-61.63 761,-74.5 721.44,-119.73 552.44,-101.67 493,-110.5 489.96,-110.95 486.82,-111.43 483.66,-111.92"/>
<polygon fill="#63b8ff" stroke="#63b8ff" points="757.39,-26.75 748.65,-20.76 751.75,-30.9 757.39,-26.75"/>
</a>
</g>
</g>
<!-- Node10&#45;&gt;Node3 -->
<g id="edge17_Node000010_Node000003" class="edge">
<title>Node10&#45;&gt;Node3</title>
<g id="a_edge17_Node000010_Node000003"><a xlink:title=" ">
<path fill="none" stroke="#63b8ff" d="M544.44,-79.4C521.85,-89.02 490.22,-101.68 467.61,-110.09"/>
<polygon fill="#63b8ff" stroke="#63b8ff" points="545.55,-82.73 553.34,-75.55 542.77,-76.31 545.55,-82.73"/>
</a>
</g>
</g>
<!-- Node12&#45;&gt;Node2 -->
<g id="edge20_Node000012_Node000002" class="edge">
<title>Node12&#45;&gt;Node2</title>
<g id="a_edge20_Node000012_Node000002"><a xlink:title=" ">
<path fill="none" stroke="#63b8ff" d="M126.37,-187.58C176.74,-197.37 246.51,-211.42 289.98,-220.53"/>
<polygon fill="#63b8ff" stroke="#63b8ff" points="127.26,-184.18 116.78,-185.72 125.93,-191.06 127.26,-184.18"/>
</a>
</g>
</g>
<!-- Node13 -->
<g id="Node000013" class="node">
<title>Node13</title>
<g id="a_Node000013"><a xlink:href="../../d7/dab/mat__math_8inl.html" target="_top" xlink:title=" ">
<polygon fill="white" stroke="#666666" points="127.38,-129.75 2.63,-129.75 2.63,-110.5 127.38,-110.5 127.38,-129.75"/>
<text text-anchor="middle" x="65" y="-116.25" font-family="Times,serif" font-size="10.00">include/math/mat_math.inl</text>
</a>
</g>
</g>
<!-- Node12&#45;&gt;Node13 -->
<g id="edge21_Node000012_Node000013" class="edge">
<title>Node12&#45;&gt;Node13</title>
<g id="a_edge21_Node000012_Node000013"><a xlink:title=" ">
<path fill="none" stroke="#63b8ff" d="M58.44,-154.42C57.95,-146.05 58.4,-136.75 59.79,-130.11"/>
<polygon fill="#63b8ff" stroke="#63b8ff" points="54.94,-154.59 59.65,-164.08 61.88,-153.72 54.94,-154.59"/>
</a>
</g>
</g>
<!-- Node13&#45;&gt;Node12 -->
<g id="edge22_Node000013_Node000012" class="edge">
<title>Node13&#45;&gt;Node12</title>
<g id="a_edge22_Node000013_Node000012"><a xlink:title=" ">
<path fill="none" stroke="#63b8ff" d="M71.57,-141.32C72.04,-149.71 71.58,-158.99 70.17,-165.58"/>
<polygon fill="#63b8ff" stroke="#63b8ff" points="75.07,-141.12 70.39,-131.61 68.12,-141.96 75.07,-141.12"/>
</a>
</g>
</g>
<!-- Node14&#45;&gt;Node2 -->
<g id="edge24_Node000014_Node000002" class="edge">
<title>Node14&#45;&gt;Node2</title>
<g id="a_edge24_Node000014_Node000002"><a xlink:title=" ">
<path fill="none" stroke="#63b8ff" d="M336.57,-196.57C337.04,-204.96 336.58,-214.24 335.17,-220.83"/>
<polygon fill="#63b8ff" stroke="#63b8ff" points="340.07,-196.37 335.39,-186.86 333.12,-197.21 340.07,-196.37"/>
</a>
</g>
</g>
<!-- Node15 -->
<g id="Node000015" class="node">
<title>Node15</title>
<g id="a_Node000015"><a xlink:href="../../d3/df6/matnxn_8inl.html" target="_top" xlink:title=" ">
<polygon fill="white" stroke="#666666" points="379.12,-129.75 264.88,-129.75 264.88,-110.5 379.12,-110.5 379.12,-129.75"/>
<text text-anchor="middle" x="322" y="-116.25" font-family="Times,serif" font-size="10.00">include/math/matnxn.inl</text>
</a>
</g>
</g>
<!-- Node14&#45;&gt;Node15 -->
<g id="edge25_Node000014_Node000015" class="edge">
<title>Node14&#45;&gt;Node15</title>
<g id="a_edge25_Node000014_Node000015"><a xlink:title=" ">
<path fill="none" stroke="#63b8ff" d="M320.5,-154.71C318.72,-146.27 317.74,-136.83 318.14,-130.11"/>
<polygon fill="#63b8ff" stroke="#63b8ff" points="317.07,-155.42 323.11,-164.12 323.82,-153.55 317.07,-155.42"/>
</a>
</g>
</g>
<!-- Node15&#45;&gt;Node14 -->
<g id="edge26_Node000015_Node000014" class="edge">
<title>Node15&#45;&gt;Node14</title>
<g id="a_edge26_Node000015_Node000014"><a xlink:title=" ">
<path fill="none" stroke="#63b8ff" d="M331.55,-141.03C333.32,-149.49 334.27,-158.92 333.85,-165.58"/>
<polygon fill="#63b8ff" stroke="#63b8ff" points="334.97,-140.29 328.96,-131.57 328.22,-142.14 334.97,-140.29"/>
</a>
</g>
</g>
<!-- Node16&#45;&gt;Node3 -->
<g id="edge28_Node000016_Node000003" class="edge">
<title>Node16&#45;&gt;Node3</title>
<g id="a_edge28_Node000016_Node000003"><a xlink:title=" ">
<path fill="none" stroke="#63b8ff" d="M533.37,-160.9C510.82,-151.29 481.1,-138.63 461.31,-130.2"/>
<polygon fill="#63b8ff" stroke="#63b8ff" points="531.83,-164.05 542.4,-164.75 534.57,-157.61 531.83,-164.05"/>
</a>
</g>
</g>
<!-- Node17 -->
<g id="Node000017" class="node">
<title>Node17</title>
<g id="a_Node000017"><a xlink:href="../../da/d59/quaternion_8cpp.html" target="_top" xlink:title=" ">
<polygon fill="white" stroke="#666666" points="777.75,-129.75 646.25,-129.75 646.25,-110.5 777.75,-110.5 777.75,-129.75"/>
<text text-anchor="middle" x="712" y="-116.25" font-family="Times,serif" font-size="10.00">include/math/quaternion.cpp</text>
</a>
</g>
</g>
<!-- Node16&#45;&gt;Node17 -->
<g id="edge29_Node000016_Node000017" class="edge">
<title>Node16&#45;&gt;Node17</title>
<g id="a_edge29_Node000016_Node000017"><a xlink:title=" ">
<path fill="none" stroke="#63b8ff" d="M600.76,-161.42C627.44,-151.75 663.25,-138.79 686.94,-130.2"/>
<polygon fill="#63b8ff" stroke="#63b8ff" points="599.57,-158.13 591.36,-164.83 601.95,-164.71 599.57,-158.13"/>
</a>
</g>
</g>
<!-- Node18 -->
<g id="Node000018" class="node">
<title>Node18</title>
<g id="a_Node000018"><a xlink:href="../../d8/d7f/quaternion_8inl.html" target="_top" xlink:title=" ">
<polygon fill="white" stroke="#666666" points="628.5,-129.75 501.5,-129.75 501.5,-110.5 628.5,-110.5 628.5,-129.75"/>
<text text-anchor="middle" x="565" y="-116.25" font-family="Times,serif" font-size="10.00">include/math/quaternion.inl</text>
</a>
</g>
</g>
<!-- Node16&#45;&gt;Node18 -->
<g id="edge30_Node000016_Node000018" class="edge">
<title>Node16&#45;&gt;Node18</title>
<g id="a_edge30_Node000016_Node000018"><a xlink:title=" ">
<path fill="none" stroke="#63b8ff" d="M558.44,-154.42C557.95,-146.05 558.4,-136.75 559.79,-130.11"/>
<polygon fill="#63b8ff" stroke="#63b8ff" points="554.94,-154.59 559.65,-164.08 561.88,-153.72 554.94,-154.59"/>
</a>
</g>
</g>
<!-- Node18&#45;&gt;Node16 -->
<g id="edge31_Node000018_Node000016" class="edge">
<title>Node18&#45;&gt;Node16</title>
<g id="a_edge31_Node000018_Node000016"><a xlink:title=" ">
<path fill="none" stroke="#63b8ff" d="M571.57,-141.32C572.04,-149.71 571.58,-158.99 570.17,-165.58"/>
<polygon fill="#63b8ff" stroke="#63b8ff" points="575.07,-141.12 570.39,-131.61 568.12,-141.96 575.07,-141.12"/>
</a>
</g>
</g>
<!-- Node19&#45;&gt;Node1 -->
<g id="edge34_Node000019_Node000001" class="edge">
<title>Node19&#45;&gt;Node1</title>
<g id="a_edge34_Node000019_Node000001"><a xlink:title=" ">
<path fill="none" stroke="#63b8ff" d="M445.04,-248.23C434.75,-257.35 421.02,-268.3 410.24,-275.84"/>
<polygon fill="#63b8ff" stroke="#63b8ff" points="447.28,-250.93 452.22,-241.56 442.51,-245.8 447.28,-250.93"/>
</a>
</g>
</g>
</g>
</svg>
