<?xml version="1.0" encoding="UTF-8" standalone="no"?>
<!DOCTYPE svg PUBLIC "-//W3C//DTD SVG 1.1//EN"
 "http://www.w3.org/Graphics/SVG/1.1/DTD/svg11.dtd">
<!-- Generated by graphviz version 9.0.0 (20230911.1827)
 -->
<!-- Title: mal_math::qua::qua Pages: 1 -->
<svg width="469pt" height="214pt"
 viewBox="0.00 0.00 468.75 214.25" xmlns="http://www.w3.org/2000/svg" xmlns:xlink="http://www.w3.org/1999/xlink">

<svg id="main" version="1.1" xmlns="http://www.w3.org/2000/svg" xmlns:xlink="http://www.w3.org/1999/xlink" xml:space="preserve" onload="init(evt)">
<style type="text/css"><![CDATA[
.node, .edge {opacity: 0.7;}
.node.selected, .edge.selected {opacity: 1;}
.edge:hover path { stroke: red; }
.edge:hover polygon { stroke: red; fill: red; }
]]></style>
<script type="application/ecmascript" xlink:href="../../svg.min.js"/>
<svg id="graph" class="graph">
<g id="graph0" class="graph" transform="scale(1 1) rotate(0) translate(4 210.25)">
<title>mal_math::qua::qua</title>
<!-- Node1 -->
<g id="Node000001" class="node">
<title>Node1</title>
<g id="a_Node000001"><a xlink:title="Constructs a quaternion from an angle and rotation axis.">
<polygon fill="#999999" stroke="#666666" points="93.25,-111.25 0,-111.25 0,-92 93.25,-92 93.25,-111.25"/>
<text text-anchor="middle" x="46.62" y="-97.75" font-family="Times,serif" font-size="10.00">mal_math::qua::qua</text>
</a>
</g>
</g>
<!-- Node2 -->
<g id="Node000002" class="node">
<title>Node2</title>
<g id="a_Node000002"><a xlink:href="../../d1/d1d/namespacemal__math.html#a16d6c0540a171f065334b7fe17a0dd72" target="_top" xlink:title=" ">
<polygon fill="white" stroke="#666666" points="215.75,-206.25 142,-206.25 142,-187 215.75,-187 215.75,-206.25"/>
<text text-anchor="middle" x="178.88" y="-192.75" font-family="Times,serif" font-size="10.00">mal_math::cos</text>
</a>
</g>
</g>
<!-- Node1&#45;&gt;Node2 -->
<g id="edge1_Node000001_Node000002" class="edge">
<title>Node1&#45;&gt;Node2</title>
<g id="a_edge1_Node000001_Node000002"><a xlink:title=" ">
<path fill="none" stroke="#63b8ff" d="M57.49,-111.73C72.19,-126.4 101.11,-153.89 129.25,-172.62 134.03,-175.8 139.28,-178.83 144.52,-181.59"/>
<polygon fill="#63b8ff" stroke="#63b8ff" points="142.58,-184.54 153.09,-185.88 145.72,-178.28 142.58,-184.54"/>
</a>
</g>
</g>
<!-- Node3 -->
<g id="Node000003" class="node">
<title>Node3</title>
<g id="a_Node000003"><a xlink:href="../../d1/d1d/namespacemal__math.html#a39c5199d92cd6fd327cd1719bd148dcc" target="_top" xlink:title="Computes the length (or magnitude) of a quaternion.">
<polygon fill="white" stroke="#666666" points="349.5,-149.25 264.5,-149.25 264.5,-130 349.5,-130 349.5,-149.25"/>
<text text-anchor="middle" x="307" y="-135.75" font-family="Times,serif" font-size="10.00">mal_math::length</text>
</a>
</g>
</g>
<!-- Node1&#45;&gt;Node3 -->
<g id="edge2_Node000001_Node000003" class="edge">
<title>Node1&#45;&gt;Node3</title>
<g id="a_edge2_Node000001_Node000003"><a xlink:title=" ">
<path fill="none" stroke="#63b8ff" d="M63.75,-111.72C79.7,-121.06 105.14,-134.29 129.25,-139.62 170.07,-148.66 217.51,-148.08 252.96,-145.56"/>
<polygon fill="#63b8ff" stroke="#63b8ff" points="252.82,-149.08 262.51,-144.8 252.27,-142.1 252.82,-149.08"/>
</a>
</g>
</g>
<!-- Node6 -->
<g id="Node000006" class="node">
<title>Node6</title>
<g id="a_Node000006"><a xlink:href="../../d1/d1d/namespacemal__math.html#abe612f1321c4a59501c42f7759feaba4" target="_top" xlink:title="Normalizes a quaternion.">
<polygon fill="white" stroke="#666666" points="228.5,-130.25 129.25,-130.25 129.25,-111 228.5,-111 228.5,-130.25"/>
<text text-anchor="middle" x="178.88" y="-116.75" font-family="Times,serif" font-size="10.00">mal_math::normalize</text>
</a>
</g>
</g>
<!-- Node1&#45;&gt;Node6 -->
<g id="edge5_Node000001_Node000006" class="edge">
<title>Node1&#45;&gt;Node6</title>
<g id="a_edge5_Node000001_Node000006"><a xlink:title=" ">
<path fill="none" stroke="#63b8ff" d="M93.55,-108.32C101.31,-109.46 109.48,-110.65 117.55,-111.82"/>
<polygon fill="#63b8ff" stroke="#63b8ff" points="116.93,-115.27 127.34,-113.25 117.95,-108.35 116.93,-115.27"/>
</a>
</g>
</g>
<!-- Node7 -->
<g id="Node000007" class="node">
<title>Node7</title>
<g id="a_Node000007"><a xlink:href="../../d1/d1d/namespacemal__math.html#a9b55d59f09251b614d8cdc0b7934548d" target="_top" xlink:title="Function to convert degrees to radians.">
<polygon fill="white" stroke="#666666" points="223.25,-93.25 134.5,-93.25 134.5,-74 223.25,-74 223.25,-93.25"/>
<text text-anchor="middle" x="178.88" y="-79.75" font-family="Times,serif" font-size="10.00">mal_math::radians</text>
</a>
</g>
</g>
<!-- Node1&#45;&gt;Node7 -->
<g id="edge7_Node000001_Node000007" class="edge">
<title>Node1&#45;&gt;Node7</title>
<g id="a_edge7_Node000001_Node000007"><a xlink:title=" ">
<path fill="none" stroke="#63b8ff" d="M93.55,-95.28C103.02,-93.97 113.09,-92.58 122.85,-91.23"/>
<polygon fill="#63b8ff" stroke="#63b8ff" points="123.19,-94.72 132.62,-89.88 122.23,-87.78 123.19,-94.72"/>
</a>
</g>
</g>
<!-- Node8 -->
<g id="Node000008" class="node">
<title>Node8</title>
<g id="a_Node000008"><a xlink:href="../../d1/d1d/namespacemal__math.html#a21797e88329a52f7abd899312ce7b726" target="_top" xlink:title=" ">
<polygon fill="white" stroke="#666666" points="215,-56.25 142.75,-56.25 142.75,-37 215,-37 215,-56.25"/>
<text text-anchor="middle" x="178.88" y="-42.75" font-family="Times,serif" font-size="10.00">mal_math::sin</text>
</a>
</g>
</g>
<!-- Node1&#45;&gt;Node8 -->
<g id="edge8_Node000001_Node000008" class="edge">
<title>Node1&#45;&gt;Node8</title>
<g id="a_edge8_Node000001_Node000008"><a xlink:title=" ">
<path fill="none" stroke="#63b8ff" d="M68.59,-91.63C84.97,-83.93 108.38,-73.2 129.25,-64.62 132.44,-63.32 135.76,-61.99 139.1,-60.7"/>
<polygon fill="#63b8ff" stroke="#63b8ff" points="140.2,-64.02 148.3,-57.2 137.71,-57.48 140.2,-64.02"/>
</a>
</g>
</g>
<!-- Node9 -->
<g id="Node000009" class="node">
<title>Node9</title>
<g id="a_Node000009"><a xlink:href="../../dd/dce/structmal__math_1_1vec.html#a9dd6ae5456770afade593ebb10ee6f76" target="_top" xlink:title="Default constructor.">
<polygon fill="white" stroke="#666666" points="224.75,-19.25 133,-19.25 133,0 224.75,0 224.75,-19.25"/>
<text text-anchor="middle" x="178.88" y="-5.75" font-family="Times,serif" font-size="10.00">mal_math::vec::vec</text>
</a>
</g>
</g>
<!-- Node1&#45;&gt;Node9 -->
<g id="edge9_Node000001_Node000009" class="edge">
<title>Node1&#45;&gt;Node9</title>
<g id="a_edge9_Node000001_Node000009"><a xlink:title=" ">
<path fill="none" stroke="#63b8ff" d="M56.22,-91.69C70.16,-76.13 99.16,-45.89 129.25,-27.62 131.13,-26.49 133.09,-25.4 135.1,-24.37"/>
<polygon fill="#63b8ff" stroke="#63b8ff" points="136.39,-27.63 144.04,-20.29 133.49,-21.26 136.39,-27.63"/>
</a>
</g>
</g>
<!-- Node4 -->
<g id="Node000004" class="node">
<title>Node4</title>
<g id="a_Node000004"><a xlink:href="../../d1/d1d/namespacemal__math.html#aab7b54d530da999aae378287a25da1c0" target="_top" xlink:title="Computes the dot product of two quaternions.">
<polygon fill="white" stroke="#666666" points="460,-168.25 386.25,-168.25 386.25,-149 460,-149 460,-168.25"/>
<text text-anchor="middle" x="423.12" y="-154.75" font-family="Times,serif" font-size="10.00">mal_math::dot</text>
</a>
</g>
</g>
<!-- Node3&#45;&gt;Node4 -->
<g id="edge3_Node000003_Node000004" class="edge">
<title>Node3&#45;&gt;Node4</title>
<g id="a_edge3_Node000003_Node000004"><a xlink:title=" ">
<path fill="none" stroke="#63b8ff" d="M349.85,-146.59C357.89,-147.93 366.37,-149.34 374.57,-150.71"/>
<polygon fill="#63b8ff" stroke="#63b8ff" points="373.99,-154.16 384.43,-152.35 375.14,-147.25 373.99,-154.16"/>
</a>
</g>
</g>
<!-- Node5 -->
<g id="Node000005" class="node">
<title>Node5</title>
<g id="a_Node000005"><a xlink:href="../../d1/d1d/namespacemal__math.html#a8578ea303028d0b058d33dc3aca926b3" target="_top" xlink:title=" ">
<polygon fill="white" stroke="#666666" points="460.75,-131.25 385.5,-131.25 385.5,-112 460.75,-112 460.75,-131.25"/>
<text text-anchor="middle" x="423.12" y="-117.75" font-family="Times,serif" font-size="10.00">mal_math::sqrt</text>
</a>
</g>
</g>
<!-- Node3&#45;&gt;Node5 -->
<g id="edge4_Node000003_Node000005" class="edge">
<title>Node3&#45;&gt;Node5</title>
<g id="a_edge4_Node000003_Node000005"><a xlink:title=" ">
<path fill="none" stroke="#63b8ff" d="M349.85,-133.02C357.72,-131.78 366,-130.48 374.05,-129.21"/>
<polygon fill="#63b8ff" stroke="#63b8ff" points="374.36,-132.7 383.69,-127.69 373.26,-125.79 374.36,-132.7"/>
</a>
</g>
</g>
<!-- Node6&#45;&gt;Node3 -->
<g id="edge6_Node000006_Node000003" class="edge">
<title>Node6&#45;&gt;Node3</title>
<g id="a_edge6_Node000006_Node000003"><a xlink:title=" ">
<path fill="none" stroke="#63b8ff" d="M229,-128.03C236.81,-129.2 244.91,-130.42 252.81,-131.61"/>
<polygon fill="#63b8ff" stroke="#63b8ff" points="252.26,-135.07 262.67,-133.1 253.3,-128.15 252.26,-135.07"/>
</a>
</g>
</g>
</g>
</svg>
</svg>

<style type='text/css'>
<![CDATA[
[data-mouse-over-selected='false'] { opacity: 0.7; }
[data-mouse-over-selected='true']  { opacity: 1.0; }
]]>
</style>
<script type="application/ecmascript"><![CDATA[
document.addEventListener('DOMContentLoaded', (event) => {
  highlightEdges();
  highlightAdjacentNodes();
});
]]></script>
</svg>
