<?xml version="1.0" encoding="UTF-8" standalone="no"?>
<!DOCTYPE svg PUBLIC "-//W3C//DTD SVG 1.1//EN"
 "http://www.w3.org/Graphics/SVG/1.1/DTD/svg11.dtd">
<!-- Generated by graphviz version 9.0.0 (20230911.1827)
 -->
<!-- Title: mal_math::qua::qua Pages: 1 -->
<svg width="469pt" height="177pt"
 viewBox="0.00 0.00 468.75 177.25" xmlns="http://www.w3.org/2000/svg" xmlns:xlink="http://www.w3.org/1999/xlink">

<svg id="main" version="1.1" xmlns="http://www.w3.org/2000/svg" xmlns:xlink="http://www.w3.org/1999/xlink" xml:space="preserve" onload="init(evt)">
<style type="text/css"><![CDATA[
.node, .edge {opacity: 0.7;}
.node.selected, .edge.selected {opacity: 1;}
.edge:hover path { stroke: red; }
.edge:hover polygon { stroke: red; fill: red; }
]]></style>
<script type="application/ecmascript" xlink:href="../../svg.min.js"/>
<svg id="graph" class="graph">
<g id="graph0" class="graph" transform="scale(1 1) rotate(0) translate(4 173.25)">
<title>mal_math::qua::qua</title>
<!-- Node1 -->
<g id="Node000001" class="node">
<title>Node1</title>
<g id="a_Node000001"><a xlink:title="Constructs a quaternion from an angle and rotation axis.">
<polygon fill="#999999" stroke="#666666" points="93.25,-93.25 0,-93.25 0,-74 93.25,-74 93.25,-93.25"/>
<text text-anchor="middle" x="46.62" y="-79.75" font-family="Times,serif" font-size="10.00">mal_math::qua::qua</text>
</a>
</g>
</g>
<!-- Node2 -->
<g id="Node000002" class="node">
<title>Node2</title>
<g id="a_Node000002"><a xlink:href="../../d1/d1d/namespacemal__math.html#a16d6c0540a171f065334b7fe17a0dd72" target="_top" xlink:title=" ">
<polygon fill="white" stroke="#666666" points="215.75,-169.25 142,-169.25 142,-150 215.75,-150 215.75,-169.25"/>
<text text-anchor="middle" x="178.88" y="-155.75" font-family="Times,serif" font-size="10.00">mal_math::cos</text>
</a>
</g>
</g>
<!-- Node1&#45;&gt;Node2 -->
<g id="edge1_Node000001_Node000002" class="edge">
<title>Node1&#45;&gt;Node2</title>
<g id="a_edge1_Node000001_Node000002"><a xlink:title=" ">
<path fill="none" stroke="#63b8ff" d="M62.37,-93.71C78.49,-104.57 105.24,-122.1 129.25,-135.62 134.68,-138.69 140.56,-141.77 146.29,-144.66"/>
<polygon fill="#63b8ff" stroke="#63b8ff" points="144.44,-147.65 154.95,-148.93 147.54,-141.37 144.44,-147.65"/>
</a>
</g>
</g>
<!-- Node3 -->
<g id="Node000003" class="node">
<title>Node3</title>
<g id="a_Node000003"><a xlink:href="../../d1/d1d/namespacemal__math.html#a39c5199d92cd6fd327cd1719bd148dcc" target="_top" xlink:title="Computes the length (or magnitude) of a quaternion.">
<polygon fill="white" stroke="#666666" points="349.5,-112.25 264.5,-112.25 264.5,-93 349.5,-93 349.5,-112.25"/>
<text text-anchor="middle" x="307" y="-98.75" font-family="Times,serif" font-size="10.00">mal_math::length</text>
</a>
</g>
</g>
<!-- Node1&#45;&gt;Node3 -->
<g id="edge2_Node000001_Node000003" class="edge">
<title>Node1&#45;&gt;Node3</title>
<g id="a_edge2_Node000001_Node000003"><a xlink:title=" ">
<path fill="none" stroke="#63b8ff" d="M83.07,-93.74C97.3,-97.31 113.93,-100.87 129.25,-102.62 170.47,-107.36 217.46,-107.09 252.62,-105.79"/>
<polygon fill="#63b8ff" stroke="#63b8ff" points="252.71,-109.29 262.55,-105.37 252.41,-102.29 252.71,-109.29"/>
</a>
</g>
</g>
<!-- Node6 -->
<g id="Node000006" class="node">
<title>Node6</title>
<g id="a_Node000006"><a xlink:href="../../d1/d1d/namespacemal__math.html#abe612f1321c4a59501c42f7759feaba4" target="_top" xlink:title="Normalizes a quaternion.">
<polygon fill="white" stroke="#666666" points="228.5,-93.25 129.25,-93.25 129.25,-74 228.5,-74 228.5,-93.25"/>
<text text-anchor="middle" x="178.88" y="-79.75" font-family="Times,serif" font-size="10.00">mal_math::normalize</text>
</a>
</g>
</g>
<!-- Node1&#45;&gt;Node6 -->
<g id="edge5_Node000001_Node000006" class="edge">
<title>Node1&#45;&gt;Node6</title>
<g id="a_edge5_Node000001_Node000006"><a xlink:title=" ">
<path fill="none" stroke="#63b8ff" d="M93.55,-83.62C101.31,-83.62 109.48,-83.62 117.55,-83.62"/>
<polygon fill="#63b8ff" stroke="#63b8ff" points="117.32,-87.13 127.32,-83.63 117.32,-80.13 117.32,-87.13"/>
</a>
</g>
</g>
<!-- Node7 -->
<g id="Node000007" class="node">
<title>Node7</title>
<g id="a_Node000007"><a xlink:href="../../d1/d1d/namespacemal__math.html#a9b55d59f09251b614d8cdc0b7934548d" target="_top" xlink:title="Function to convert degrees to radians.">
<polygon fill="white" stroke="#666666" points="223.25,-56.25 134.5,-56.25 134.5,-37 223.25,-37 223.25,-56.25"/>
<text text-anchor="middle" x="178.88" y="-42.75" font-family="Times,serif" font-size="10.00">mal_math::radians</text>
</a>
</g>
</g>
<!-- Node1&#45;&gt;Node7 -->
<g id="edge7_Node000001_Node000007" class="edge">
<title>Node1&#45;&gt;Node7</title>
<g id="a_edge7_Node000001_Node000007"><a xlink:title=" ">
<path fill="none" stroke="#63b8ff" d="M83.22,-73.51C98.15,-69.27 115.71,-64.28 131.62,-59.76"/>
<polygon fill="#63b8ff" stroke="#63b8ff" points="132.21,-63.24 140.87,-57.14 130.29,-56.5 132.21,-63.24"/>
</a>
</g>
</g>
<!-- Node8 -->
<g id="Node000008" class="node">
<title>Node8</title>
<g id="a_Node000008"><a xlink:href="../../d1/d1d/namespacemal__math.html#a21797e88329a52f7abd899312ce7b726" target="_top" xlink:title=" ">
<polygon fill="white" stroke="#666666" points="215,-19.25 142.75,-19.25 142.75,0 215,0 215,-19.25"/>
<text text-anchor="middle" x="178.88" y="-5.75" font-family="Times,serif" font-size="10.00">mal_math::sin</text>
</a>
</g>
</g>
<!-- Node1&#45;&gt;Node8 -->
<g id="edge8_Node000001_Node000008" class="edge">
<title>Node1&#45;&gt;Node8</title>
<g id="a_edge8_Node000001_Node000008"><a xlink:title=" ">
<path fill="none" stroke="#63b8ff" d="M60.02,-73.67C75.5,-61.59 103.16,-41.14 129.25,-27.62 131.61,-26.4 134.07,-25.22 136.58,-24.09"/>
<polygon fill="#63b8ff" stroke="#63b8ff" points="137.75,-27.4 145.63,-20.32 135.06,-20.94 137.75,-27.4"/>
</a>
</g>
</g>
<!-- Node4 -->
<g id="Node000004" class="node">
<title>Node4</title>
<g id="a_Node000004"><a xlink:href="../../d1/d1d/namespacemal__math.html#aab7b54d530da999aae378287a25da1c0" target="_top" xlink:title="Computes the dot product of two quaternions.">
<polygon fill="white" stroke="#666666" points="460,-131.25 386.25,-131.25 386.25,-112 460,-112 460,-131.25"/>
<text text-anchor="middle" x="423.12" y="-117.75" font-family="Times,serif" font-size="10.00">mal_math::dot</text>
</a>
</g>
</g>
<!-- Node3&#45;&gt;Node4 -->
<g id="edge3_Node000003_Node000004" class="edge">
<title>Node3&#45;&gt;Node4</title>
<g id="a_edge3_Node000003_Node000004"><a xlink:title=" ">
<path fill="none" stroke="#63b8ff" d="M349.85,-109.59C357.89,-110.93 366.37,-112.34 374.57,-113.71"/>
<polygon fill="#63b8ff" stroke="#63b8ff" points="373.99,-117.16 384.43,-115.35 375.14,-110.25 373.99,-117.16"/>
</a>
</g>
</g>
<!-- Node5 -->
<g id="Node000005" class="node">
<title>Node5</title>
<g id="a_Node000005"><a xlink:href="../../d1/d1d/namespacemal__math.html#a8578ea303028d0b058d33dc3aca926b3" target="_top" xlink:title=" ">
<polygon fill="white" stroke="#666666" points="460.75,-94.25 385.5,-94.25 385.5,-75 460.75,-75 460.75,-94.25"/>
<text text-anchor="middle" x="423.12" y="-80.75" font-family="Times,serif" font-size="10.00">mal_math::sqrt</text>
</a>
</g>
</g>
<!-- Node3&#45;&gt;Node5 -->
<g id="edge4_Node000003_Node000005" class="edge">
<title>Node3&#45;&gt;Node5</title>
<g id="a_edge4_Node000003_Node000005"><a xlink:title=" ">
<path fill="none" stroke="#63b8ff" d="M349.85,-96.02C357.72,-94.78 366,-93.48 374.05,-92.21"/>
<polygon fill="#63b8ff" stroke="#63b8ff" points="374.36,-95.7 383.69,-90.69 373.26,-88.79 374.36,-95.7"/>
</a>
</g>
</g>
<!-- Node6&#45;&gt;Node3 -->
<g id="edge6_Node000006_Node000003" class="edge">
<title>Node6&#45;&gt;Node3</title>
<g id="a_edge6_Node000006_Node000003"><a xlink:title=" ">
<path fill="none" stroke="#63b8ff" d="M229,-91.03C236.81,-92.2 244.91,-93.42 252.81,-94.61"/>
<polygon fill="#63b8ff" stroke="#63b8ff" points="252.26,-98.07 262.67,-96.1 253.3,-91.15 252.26,-98.07"/>
</a>
</g>
</g>
</g>
</svg>
</svg>

<style type='text/css'>
<![CDATA[
[data-mouse-over-selected='false'] { opacity: 0.7; }
[data-mouse-over-selected='true']  { opacity: 1.0; }
]]>
</style>
<script type="application/ecmascript"><![CDATA[
document.addEventListener('DOMContentLoaded', (event) => {
  highlightEdges();
  highlightAdjacentNodes();
});
]]></script>
</svg>
