<?xml version="1.0" encoding="UTF-8" standalone="no"?>
<!DOCTYPE svg PUBLIC "-//W3C//DTD SVG 1.1//EN"
 "http://www.w3.org/Graphics/SVG/1.1/DTD/svg11.dtd">
<!-- Generated by graphviz version 9.0.0 (20230911.1827)
 -->
<!-- Title: mal_math::vec&lt; 3, T &gt; Pages: 1 -->
<!--zoomable 499 -->

<svg id="main" version="1.1" xmlns="http://www.w3.org/2000/svg" xmlns:xlink="http://www.w3.org/1999/xlink" xml:space="preserve" onload="init(evt)">
<style type="text/css"><![CDATA[
.node, .edge {opacity: 0.7;}
.node.selected, .edge.selected {opacity: 1;}
.edge:hover path { stroke: red; }
.edge:hover polygon { stroke: red; fill: red; }
]]></style>

<defs>
  <circle id="rim" cx="0" cy="0" r="7"/>
  <circle id="rim2" cx="0" cy="0" r="3.5"/>
  <g id="zoomPlus">
    <use xlink:href="#rim" fill="#404040"><set attributeName="fill" to="#808080" begin="zoomplus.mouseover" end="zoomplus.mouseout"/></use>
    <path d="M-4,0h8M0,-4v8" fill="none" stroke="white" stroke-width="1.5" pointer-events="none"/>
  </g>
  <g id="zoomMin">
    <use xlink:href="#rim" fill="#404040"><set attributeName="fill" to="#808080" begin="zoomminus.mouseover" end="zoomminus.mouseout"/></use>
    <path d="M-4,0h8" fill="none" stroke="white" stroke-width="1.5" pointer-events="none"/>
  </g>
  <g id="arrowUp" transform="translate(30 24)">
    <use xlink:href="#rim"/>
    <path pointer-events="none" fill="none" stroke="white" stroke-width="1.5" d="M0,-3.0v7 M-2.5,-0.5L0,-3.0L2.5,-0.5"/>
  </g>
  <g id="arrowRight" transform="rotate(90) translate(36 -43)">
    <use xlink:href="#rim"/>
    <path pointer-events="none" fill="none" stroke="white" stroke-width="1.5" d="M0,-3.0v7 M-2.5,-0.5L0,-3.0L2.5,-0.5"/>
  </g>
  <g id="arrowDown" transform="rotate(180) translate(-30 -48)">
    <use xlink:href="#rim"/>
    <path pointer-events="none" fill="none" stroke="white" stroke-width="1.5" d="M0,-3.0v7 M-2.5,-0.5L0,-3.0L2.5,-0.5"/>
  </g>
  <g id="arrowLeft" transform="rotate(270) translate(-36 17)">
    <use xlink:href="#rim"/>
    <path pointer-events="none" fill="none" stroke="white" stroke-width="1.5" d="M0,-3.0v7 M-2.5,-0.5L0,-3.0L2.5,-0.5"/>
  </g>
  <g id="resetDef">
    <use xlink:href="#rim2" fill="#404040"><set attributeName="fill" to="#808080" begin="reset.mouseover" end="reset.mouseout"/></use>
  </g>
</defs>
<script type="application/ecmascript">
var viewWidth = 414;
var viewHeight = 499;
var sectionId = 'dynsection-0';
</script>
<script type="application/ecmascript" xlink:href="../../svg.min.js"/>
<svg id="graph" class="graph">
<g id="viewport">
<title>mal_math::vec&lt; 3, T &gt;</title>
<!-- Node1 -->
<g id="Node000001" class="node">
<title>Node1</title>
<g id="a_Node000001"><a xlink:title="Represents a 3D vector of a given primitive type.">
<polygon fill="#999999" stroke="#666666" points="210,-19.25 104,-19.25 104,0 210,0 210,-19.25"/>
<text text-anchor="middle" x="157" y="-5.75" font-family="Times,serif" font-size="10.00">mal_math::vec&lt; 3, T &gt;</text>
</a>
</g>
</g>
<!-- Node1&#45;&gt;Node1 -->
<g id="edge14_Node000001_Node000001" class="edge">
<title>Node1&#45;&gt;Node1</title>
<g id="a_edge14_Node000001_Node000001"><a xlink:title=" ">
<path fill="none" stroke="#9a32cd" stroke-dasharray="5,2" d="M221.46,-14.76C225.54,-13.55 228,-11.84 228,-9.62 228,-5.79 220.63,-3.47 210.26,-2.66"/>
<polygon fill="#9a32cd" stroke="#9a32cd" points="221.05,-11.28 211.75,-16.35 222.18,-18.19 221.05,-11.28"/>
</a>
</g>
<text text-anchor="middle" x="238.88" y="-5.75" font-family="Times,serif" font-size="10.00" fill="grey"> @55</text>
</g>
<!-- Node2 -->
<g id="Node000002" class="node">
<title>Node2</title>
<g id="a_Node000002"><a xlink:title=" ">
<polygon fill="white" stroke="#666666" points="277.88,-221.38 174.12,-221.38 174.12,-202.12 277.88,-202.12 277.88,-221.38"/>
<text text-anchor="middle" x="226" y="-207.88" font-family="Times,serif" font-size="10.00">static constexpr size_t</text>
</a>
</g>
</g>
<!-- Node2&#45;&gt;Node1 -->
<g id="edge1_Node000001_Node000002" class="edge">
<title>Node2&#45;&gt;Node1</title>
<g id="a_edge1_Node000001_Node000002"><a xlink:title=" ">
<path fill="none" stroke="#9a32cd" stroke-dasharray="5,2" d="M219.19,-191C204.5,-148.4 170.33,-49.28 160.01,-19.34"/>
<polygon fill="#9a32cd" stroke="#9a32cd" points="215.79,-191.89 222.36,-200.2 222.41,-189.61 215.79,-191.89"/>
</a>
</g>
<text text-anchor="middle" x="195" y="-83.5" font-family="Times,serif" font-size="10.00" fill="grey"> size</text>
</g>
<!-- Node6 -->
<g id="Node000006" class="node">
<title>Node6</title>
<g id="a_Node000006"><a xlink:href="../../d2/d70/structmal__math_1_1vec_3_012_00_01_t_01_4.html" target="_top" xlink:title="2D vector template class.">
<polygon fill="white" stroke="#666666" points="347,-97 241,-97 241,-77.75 347,-77.75 347,-97"/>
<text text-anchor="middle" x="294" y="-83.5" font-family="Times,serif" font-size="10.00">mal_math::vec&lt; 2, T &gt;</text>
</a>
</g>
</g>
<!-- Node2&#45;&gt;Node6 -->
<g id="edge8_Node000006_Node000002" class="edge">
<title>Node2&#45;&gt;Node6</title>
<g id="a_edge8_Node000006_Node000002"><a xlink:title=" ">
<path fill="none" stroke="#9a32cd" stroke-dasharray="5,2" d="M236.45,-191.94C251.3,-165.22 277.91,-117.32 288.97,-97.43"/>
<polygon fill="#9a32cd" stroke="#9a32cd" points="233.42,-190.18 231.63,-200.63 239.54,-193.58 233.42,-190.18"/>
</a>
</g>
<text text-anchor="middle" x="287" y="-116.75" font-family="Times,serif" font-size="10.00" fill="grey"> size</text>
</g>
<!-- Node3 -->
<g id="Node000003" class="node">
<title>Node3</title>
<g id="a_Node000003"><a xlink:title=" ">
<polygon fill="white" stroke="#666666" points="241.4,-491 212.6,-491 212.6,-471.75 241.4,-471.75 241.4,-491"/>
<text text-anchor="middle" x="227" y="-477.5" font-family="Times,serif" font-size="10.00">T</text>
</a>
</g>
</g>
<!-- Node3&#45;&gt;Node1 -->
<g id="edge2_Node000001_Node000003" class="edge">
<title>Node3&#45;&gt;Node1</title>
<g id="a_edge2_Node000001_Node000003"><a xlink:title=" ">
<path fill="none" stroke="#9a32cd" stroke-dasharray="5,2" d="M200.66,-478.47C140.85,-473.44 0,-457.18 0,-415.88 0,-415.88 0,-415.88 0,-86.38 0,-39.16 58.3,-21.36 103.85,-14.66"/>
<polygon fill="#9a32cd" stroke="#9a32cd" points="200.35,-481.96 210.6,-479.26 200.91,-474.98 200.35,-481.96"/>
</a>
</g>
<text text-anchor="middle" x="26.62" y="-269.75" font-family="Times,serif" font-size="10.00" fill="grey"> b</text>
<text text-anchor="middle" x="26.62" y="-258.5" font-family="Times,serif" font-size="10.00" fill="grey">g</text>
<text text-anchor="middle" x="26.62" y="-247.25" font-family="Times,serif" font-size="10.00" fill="grey">p</text>
<text text-anchor="middle" x="26.62" y="-236" font-family="Times,serif" font-size="10.00" fill="grey">r</text>
<text text-anchor="middle" x="26.62" y="-224.75" font-family="Times,serif" font-size="10.00" fill="grey">s</text>
<text text-anchor="middle" x="26.62" y="-213.5" font-family="Times,serif" font-size="10.00" fill="grey">t</text>
<text text-anchor="middle" x="26.62" y="-202.25" font-family="Times,serif" font-size="10.00" fill="grey">x</text>
<text text-anchor="start" x="0" y="-191" font-family="Times,serif" font-size="10.00" fill="grey">x_anonymous</text>
<text text-anchor="middle" x="26.62" y="-179.75" font-family="Times,serif" font-size="10.00" fill="grey">_padding_</text>
<text text-anchor="middle" x="26.62" y="-168.5" font-family="Times,serif" font-size="10.00" fill="grey">y</text>
<text text-anchor="middle" x="26.62" y="-157.25" font-family="Times,serif" font-size="10.00" fill="grey">z</text>
<text text-anchor="middle" x="26.62" y="-146" font-family="Times,serif" font-size="10.00" fill="grey">...</text>
</g>
<!-- Node4 -->
<g id="Node000004" class="node">
<title>Node4</title>
<g id="a_Node000004"><a xlink:title=" ">
<polygon fill="white" stroke="#666666" points="156.5,-221.38 71.5,-221.38 71.5,-202.12 156.5,-202.12 156.5,-221.38"/>
<text text-anchor="middle" x="114" y="-207.88" font-family="Times,serif" font-size="10.00">std::array&lt; T, 3 &gt;</text>
</a>
</g>
</g>
<!-- Node3&#45;&gt;Node4 -->
<g id="edge4_Node000004_Node000003" class="edge">
<title>Node3&#45;&gt;Node4</title>
<g id="a_edge4_Node000004_Node000003"><a xlink:title=" ">
<path fill="none" stroke="#9a32cd" stroke-dasharray="5,2" d="M201.85,-470.48C182.53,-461.49 156.91,-446.29 143.25,-424.5 100.68,-356.58 109.12,-252.53 112.8,-221.67"/>
<polygon fill="#9a32cd" stroke="#9a32cd" points="200.41,-473.67 210.97,-474.45 203.2,-467.25 200.41,-473.67"/>
</a>
</g>
<text text-anchor="middle" x="162.38" y="-411" font-family="Times,serif" font-size="10.00" fill="grey"> elements</text>
</g>
<!-- Node5 -->
<g id="Node000005" class="node">
<title>Node5</title>
<g id="a_Node000005"><a xlink:title=" ">
<polygon fill="white" stroke="#666666" points="264.62,-424.5 189.38,-424.5 189.38,-405.25 264.62,-405.25 264.62,-424.5"/>
<text text-anchor="middle" x="227" y="-411" font-family="Times,serif" font-size="10.00">std::array&lt; T &gt;</text>
</a>
</g>
</g>
<!-- Node3&#45;&gt;Node5 -->
<g id="edge6_Node000005_Node000003" class="edge">
<title>Node3&#45;&gt;Node5</title>
<g id="a_edge6_Node000005_Node000003"><a xlink:title=" ">
<path fill="none" stroke="#9a32cd" stroke-dasharray="5,2" d="M227,-459.9C227,-448.07 227,-433.79 227,-424.77"/>
<polygon fill="#9a32cd" stroke="#9a32cd" points="223.5,-459.89 227,-469.89 230.5,-459.89 223.5,-459.89"/>
</a>
</g>
<text text-anchor="middle" x="245.38" y="-444.25" font-family="Times,serif" font-size="10.00" fill="grey"> elements</text>
</g>
<!-- Node3&#45;&gt;Node6 -->
<g id="edge9_Node000006_Node000003" class="edge">
<title>Node3&#45;&gt;Node6</title>
<g id="a_edge9_Node000006_Node000003"><a xlink:title=" ">
<path fill="none" stroke="#9a32cd" stroke-dasharray="5,2" d="M253.09,-475.32C280.92,-468.56 324.31,-453.85 349,-424.5 392.18,-373.17 380.8,-345.69 390,-279.25 398.23,-219.82 419.91,-196.26 390,-144.25 376.25,-120.34 347.91,-105.71 325.57,-97.45"/>
<polygon fill="#9a32cd" stroke="#9a32cd" points="252.35,-471.9 243.35,-477.49 253.87,-478.73 252.35,-471.9"/>
</a>
</g>
<text text-anchor="middle" x="390.38" y="-377.75" font-family="Times,serif" font-size="10.00" fill="grey"> g</text>
<text text-anchor="middle" x="390.38" y="-366.5" font-family="Times,serif" font-size="10.00" fill="grey">r</text>
<text text-anchor="middle" x="390.38" y="-355.25" font-family="Times,serif" font-size="10.00" fill="grey">s</text>
<text text-anchor="middle" x="390.38" y="-344" font-family="Times,serif" font-size="10.00" fill="grey">t</text>
<text text-anchor="middle" x="390.38" y="-332.75" font-family="Times,serif" font-size="10.00" fill="grey">u</text>
<text text-anchor="middle" x="390.38" y="-321.5" font-family="Times,serif" font-size="10.00" fill="grey">v</text>
<text text-anchor="middle" x="390.38" y="-310.25" font-family="Times,serif" font-size="10.00" fill="grey">x</text>
<text text-anchor="middle" x="390.38" y="-299" font-family="Times,serif" font-size="10.00" fill="grey">y</text>
</g>
<!-- Node7 -->
<g id="Node000007" class="node">
<title>Node7</title>
<g id="a_Node000007"><a xlink:title=" ">
<polygon fill="white" stroke="#666666" points="380.5,-221.38 295.5,-221.38 295.5,-202.12 380.5,-202.12 380.5,-221.38"/>
<text text-anchor="middle" x="338" y="-207.88" font-family="Times,serif" font-size="10.00">std::array&lt; T, 2 &gt;</text>
</a>
</g>
</g>
<!-- Node3&#45;&gt;Node7 -->
<g id="edge11_Node000007_Node000003" class="edge">
<title>Node3&#45;&gt;Node7</title>
<g id="a_edge11_Node000007_Node000003"><a xlink:title=" ">
<path fill="none" stroke="#9a32cd" stroke-dasharray="5,2" d="M251.09,-466.85C256.94,-463 262.96,-458.55 268,-453.75 294.4,-428.62 302.64,-421.16 316,-387.25 339.51,-327.59 339.25,-248.39 338.4,-221.85"/>
<polygon fill="#9a32cd" stroke="#9a32cd" points="249.57,-463.67 242.89,-471.89 253.24,-469.63 249.57,-463.67"/>
</a>
</g>
<text text-anchor="middle" x="326.38" y="-411" font-family="Times,serif" font-size="10.00" fill="grey"> elements</text>
</g>
<!-- Node4&#45;&gt;Node1 -->
<g id="edge3_Node000001_Node000004" class="edge">
<title>Node4&#45;&gt;Node1</title>
<g id="a_edge3_Node000001_Node000004"><a xlink:title=" ">
<path fill="none" stroke="#9a32cd" stroke-dasharray="5,2" d="M118.36,-190.45C127.58,-147.55 148.72,-49.15 155.13,-19.34"/>
<polygon fill="#9a32cd" stroke="#9a32cd" points="114.96,-189.64 116.28,-200.15 121.8,-191.11 114.96,-189.64"/>
</a>
</g>
<text text-anchor="middle" x="152.75" y="-83.5" font-family="Times,serif" font-size="10.00" fill="grey"> data</text>
</g>
<!-- Node5&#45;&gt;Node4 -->
<g id="edge5_Node000004_Node000005" class="edge">
<title>Node5&#45;&gt;Node4</title>
<g id="a_edge5_Node000004_Node000005"><a xlink:title=" ">
<path fill="none" stroke="orange" stroke-dasharray="5,2" d="M208.59,-396.98C205.7,-393.89 202.89,-390.59 200.5,-387.25 158.95,-329.25 127.13,-248.32 117.23,-221.65"/>
<polygon fill="orange" stroke="orange" points="205.99,-399.32 215.55,-403.88 210.92,-394.35 205.99,-399.32"/>
</a>
</g>
<text text-anchor="middle" x="218.25" y="-338.38" font-family="Times,serif" font-size="10.00" fill="grey"> &lt; T, 3 &gt;</text>
</g>
<!-- Node5&#45;&gt;Node7 -->
<g id="edge12_Node000007_Node000005" class="edge">
<title>Node5&#45;&gt;Node7</title>
<g id="a_edge12_Node000007_Node000005"><a xlink:title=" ">
<path fill="none" stroke="orange" stroke-dasharray="5,2" d="M234.96,-394.54C244.88,-371.03 262.82,-330.39 281.5,-297.25 297.62,-268.66 320.14,-237.01 331.25,-221.83"/>
<polygon fill="orange" stroke="orange" points="231.86,-392.89 231.24,-403.47 238.32,-395.59 231.86,-392.89"/>
</a>
</g>
<text text-anchor="middle" x="298.25" y="-338.38" font-family="Times,serif" font-size="10.00" fill="grey"> &lt; T, 2 &gt;</text>
</g>
<!-- Node6&#45;&gt;Node1 -->
<g id="edge7_Node000001_Node000006" class="edge">
<title>Node6&#45;&gt;Node1</title>
<g id="a_edge7_Node000001_Node000006"><a xlink:title=" ">
<path fill="none" stroke="#9a32cd" stroke-dasharray="5,2" d="M269.78,-71.66C253.12,-61.68 230.41,-48.33 210,-37.25 198.78,-31.16 185.99,-24.72 175.79,-19.7"/>
<polygon fill="#9a32cd" stroke="#9a32cd" points="267.62,-74.45 278,-76.61 271.24,-68.45 267.62,-74.45"/>
</a>
</g>
<text text-anchor="middle" x="255.62" y="-50.25" font-family="Times,serif" font-size="10.00" fill="grey"> xy</text>
<text text-anchor="middle" x="255.62" y="-39" font-family="Times,serif" font-size="10.00" fill="grey">yz</text>
</g>
<!-- Node6&#45;&gt;Node6 -->
<g id="edge13_Node000006_Node000006" class="edge">
<title>Node6&#45;&gt;Node6</title>
<g id="a_edge13_Node000006_Node000006"><a xlink:title=" ">
<path fill="none" stroke="#9a32cd" stroke-dasharray="5,2" d="M358.46,-91.77C362.54,-90.73 365,-89.27 365,-87.38 365,-84.1 357.63,-82.11 347.26,-81.42"/>
<polygon fill="#9a32cd" stroke="#9a32cd" points="358.17,-88.27 348.76,-93.12 359.14,-95.2 358.17,-88.27"/>
</a>
</g>
<text text-anchor="middle" x="375.88" y="-83.5" font-family="Times,serif" font-size="10.00" fill="grey"> @47</text>
</g>
<!-- Node7&#45;&gt;Node6 -->
<g id="edge10_Node000006_Node000007" class="edge">
<title>Node7&#45;&gt;Node6</title>
<g id="a_edge10_Node000006_Node000007"><a xlink:title=" ">
<path fill="none" stroke="#9a32cd" stroke-dasharray="5,2" d="M330.98,-191.22C321.32,-164.37 304.34,-117.15 297.25,-97.43"/>
<polygon fill="#9a32cd" stroke="#9a32cd" points="327.65,-192.3 334.32,-200.52 334.23,-189.93 327.65,-192.3"/>
</a>
</g>
<text text-anchor="middle" x="316.75" y="-116.75" font-family="Times,serif" font-size="10.00" fill="grey"> data</text>
</g>
</g>
</svg>

<g id="navigator" transform="translate(0 0)" fill="#404254">
  <rect fill="#f2f5e9" fill-opacity="0.5" stroke="#606060" stroke-width=".5" x="0" y="0" width="60" height="60"/>
  <use id="zoomplus" xlink:href="#zoomPlus" x="17" y="9" onmousedown="handleZoom(evt,'in')"/>
  <use id="zoomminus" xlink:href="#zoomMin" x="42" y="9" onmousedown="handleZoom(evt,'out')"/>
  <use id="reset" xlink:href="#resetDef" x="30" y="36" onmousedown="handleReset()"/>
   <use id="arrowup" xlink:href="#arrowUp" x="0" y="0" onmousedown="handlePan(0,-1)"/>
  <use id="arrowright" xlink:href="#arrowRight" x="0" y="0" onmousedown="handlePan(1,0)"/>
  <use id="arrowdown" xlink:href="#arrowDown" x="0" y="0" onmousedown="handlePan(0,1)"/>
  <use id="arrowleft" xlink:href="#arrowLeft" x="0" y="0" onmousedown="handlePan(-1,0)"/>
</g>
<svg viewBox="0 0 15 15" width="100%" height="30px" preserveAspectRatio="xMaxYMin meet">
 <g id="arrow_out" transform="scale(0.3 0.3)">
  <a xlink:href="structmal__math_1_1vec_3_013_00_01_t_01_4__coll__graph_org.svg" target="_base">
   <rect id="button" ry="5" rx="5" y="6" x="6" height="38" width="38"
        fill="#f2f5e9" fill-opacity="0.5" stroke="#606060" stroke-width="1.0"/>
   <path id="arrow"
     d="M 11.500037,31.436501 C 11.940474,20.09759 22.043105,11.32322 32.158766,21.979434 L 37.068811,17.246167 C 37.068811,17.246167 37.088388,32 37.088388,32 L 22.160133,31.978069 C 22.160133,31.978069 26.997745,27.140456 26.997745,27.140456 C 18.528582,18.264221 13.291696,25.230495 11.500037,31.436501 z"
     style="fill:#404040;"/>
  </a>
 </g>
</svg>

<style type='text/css'>
<![CDATA[
[data-mouse-over-selected='false'] { opacity: 0.7; }
[data-mouse-over-selected='true']  { opacity: 1.0; }
]]>
</style>
<script type="application/ecmascript"><![CDATA[
document.addEventListener('DOMContentLoaded', (event) => {
  highlightEdges();
  highlightAdjacentNodes();
});
]]></script>
</svg>
