<?xml version="1.0" encoding="UTF-8" standalone="no"?>
<!DOCTYPE svg PUBLIC "-//W3C//DTD SVG 1.1//EN"
 "http://www.w3.org/Graphics/SVG/1.1/DTD/svg11.dtd">
<!-- Generated by graphviz version 9.0.0 (20230911.1827)
 -->
<!-- Title: mal_math::Ray Pages: 1 -->
<svg width="347pt" height="382pt"
 viewBox="0.00 0.00 346.88 382.25" xmlns="http://www.w3.org/2000/svg" xmlns:xlink="http://www.w3.org/1999/xlink">
<g id="graph0" class="graph" transform="scale(1 1) rotate(0) translate(4 378.25)">
<title>mal_math::Ray</title>
<!-- Node1 -->
<g id="Node000001" class="node">
<title>Node1</title>
<g id="a_Node000001"><a xlink:title="Represents a geometric ray in 3D space.">
<polygon fill="#999999" stroke="#666666" points="158.88,-19.25 83.62,-19.25 83.62,0 158.88,0 158.88,-19.25"/>
<text text-anchor="middle" x="121.25" y="-5.75" font-family="Times,serif" font-size="10.00">mal_math::Ray</text>
</a>
</g>
</g>
<!-- Node2 -->
<g id="Node000002" class="node">
<title>Node2</title>
<g id="a_Node000002"><a xlink:href="../../dd/dce/structmal__math_1_1vec.html" target="_top" xlink:title=" ">
<polygon fill="white" stroke="#666666" points="246.25,-108.25 128.25,-108.25 128.25,-89 246.25,-89 246.25,-108.25"/>
<text text-anchor="middle" x="187.25" y="-94.75" font-family="Times,serif" font-size="10.00">mal_math::vec&lt; 3, float &gt;</text>
</a>
</g>
</g>
<!-- Node2&#45;&gt;Node1 -->
<g id="edge1_Node000001_Node000002" class="edge">
<title>Node2&#45;&gt;Node1</title>
<g id="a_edge1_Node000001_Node000002"><a xlink:title=" ">
<path fill="none" stroke="#9a32cd" stroke-dasharray="5,2" d="M173.57,-79.59C159.71,-61.32 138.84,-33.81 128.13,-19.69"/>
<polygon fill="#9a32cd" stroke="#9a32cd" points="170.69,-81.58 179.52,-87.44 176.27,-77.35 170.69,-81.58"/>
</a>
</g>
<text text-anchor="middle" x="195.12" y="-61.5" font-family="Times,serif" font-size="10.00" fill="grey"> direction_</text>
<text text-anchor="middle" x="195.12" y="-50.25" font-family="Times,serif" font-size="10.00" fill="grey">inv_direction_</text>
<text text-anchor="middle" x="195.12" y="-39" font-family="Times,serif" font-size="10.00" fill="grey">origin_</text>
</g>
<!-- Node3 -->
<g id="Node000003" class="node">
<title>Node3</title>
<g id="a_Node000003"><a xlink:title=" ">
<polygon fill="white" stroke="#666666" points="149.12,-241.25 45.38,-241.25 45.38,-222 149.12,-222 149.12,-241.25"/>
<text text-anchor="middle" x="97.25" y="-227.75" font-family="Times,serif" font-size="10.00">static constexpr size_t</text>
</a>
</g>
</g>
<!-- Node3&#45;&gt;Node2 -->
<g id="edge2_Node000002_Node000003" class="edge">
<title>Node3&#45;&gt;Node2</title>
<g id="a_edge2_Node000002_Node000003"><a xlink:title=" ">
<path fill="none" stroke="#9a32cd" stroke-dasharray="5,2" d="M156.99,-216.63C162.77,-213.28 168.04,-209.14 172.25,-204 195.33,-175.82 191.59,-128.38 188.78,-108.65"/>
<polygon fill="#9a32cd" stroke="#9a32cd" points="155.7,-213.37 148.23,-220.88 158.75,-219.66 155.7,-213.37"/>
</a>
</g>
<text text-anchor="middle" x="199.25" y="-161.25" font-family="Times,serif" font-size="10.00" fill="grey"> size</text>
</g>
<!-- Node7 -->
<g id="Node000007" class="node">
<title>Node7</title>
<g id="a_Node000007"><a xlink:href="../../dd/dce/structmal__math_1_1vec.html" target="_top" xlink:title="Definition of the mathematical vector with fixed size L and type T">
<polygon fill="white" stroke="#666666" points="150.62,-174.75 43.88,-174.75 43.88,-155.5 150.62,-155.5 150.62,-174.75"/>
<text text-anchor="middle" x="97.25" y="-161.25" font-family="Times,serif" font-size="10.00">mal_math::vec&lt; L, T &gt;</text>
</a>
</g>
</g>
<!-- Node3&#45;&gt;Node7 -->
<g id="edge8_Node000007_Node000003" class="edge">
<title>Node3&#45;&gt;Node7</title>
<g id="a_edge8_Node000007_Node000003"><a xlink:title=" ">
<path fill="none" stroke="#9a32cd" stroke-dasharray="5,2" d="M97.25,-210.15C97.25,-198.32 97.25,-184.04 97.25,-175.02"/>
<polygon fill="#9a32cd" stroke="#9a32cd" points="93.75,-210.14 97.25,-220.14 100.75,-210.14 93.75,-210.14"/>
</a>
</g>
<text text-anchor="middle" x="106.25" y="-194.5" font-family="Times,serif" font-size="10.00" fill="grey"> size</text>
</g>
<!-- Node8 -->
<g id="Node000008" class="node">
<title>Node8</title>
<g id="a_Node000008"><a xlink:href="../../dd/dce/structmal__math_1_1vec.html" target="_top" xlink:title=" ">
<polygon fill="white" stroke="#666666" points="110.5,-108.25 0,-108.25 0,-89 110.5,-89 110.5,-108.25"/>
<text text-anchor="middle" x="55.25" y="-94.75" font-family="Times,serif" font-size="10.00">mal_math::vec&lt; 3, int &gt;</text>
</a>
</g>
</g>
<!-- Node3&#45;&gt;Node8 -->
<g id="edge11_Node000008_Node000003" class="edge">
<title>Node3&#45;&gt;Node8</title>
<g id="a_edge11_Node000008_Node000003"><a xlink:title=" ">
<path fill="none" stroke="#9a32cd" stroke-dasharray="5,2" d="M64.04,-216.73C46.72,-207.56 27.14,-193.71 17.25,-174.75 4.89,-151.03 29.62,-122.83 44.73,-108.68"/>
<polygon fill="#9a32cd" stroke="#9a32cd" points="62.01,-219.63 72.53,-220.91 65.11,-213.35 62.01,-219.63"/>
</a>
</g>
<text text-anchor="middle" x="26.25" y="-161.25" font-family="Times,serif" font-size="10.00" fill="grey"> size</text>
</g>
<!-- Node4 -->
<g id="Node000004" class="node">
<title>Node4</title>
<g id="a_Node000004"><a xlink:title=" ">
<polygon fill="white" stroke="#666666" points="288,-241.25 192.5,-241.25 192.5,-222 288,-222 288,-241.25"/>
<text text-anchor="middle" x="240.25" y="-227.75" font-family="Times,serif" font-size="10.00">std::array&lt; T, size &gt;</text>
</a>
</g>
</g>
<!-- Node4&#45;&gt;Node2 -->
<g id="edge3_Node000002_Node000004" class="edge">
<title>Node4&#45;&gt;Node2</title>
<g id="a_edge3_Node000002_Node000004"><a xlink:title=" ">
<path fill="none" stroke="#9a32cd" stroke-dasharray="5,2" d="M250.56,-211.89C251.87,-209.27 253.13,-206.59 254.25,-204 267.92,-172.26 278.08,-151.27 254.25,-126.25 246.65,-118.27 236.36,-112.63 226.13,-108.67"/>
<polygon fill="#9a32cd" stroke="#9a32cd" points="247.55,-210.1 245.97,-220.58 253.74,-213.37 247.55,-210.1"/>
</a>
</g>
<text text-anchor="middle" x="278" y="-161.25" font-family="Times,serif" font-size="10.00" fill="grey"> data</text>
</g>
<!-- Node4&#45;&gt;Node7 -->
<g id="edge9_Node000007_Node000004" class="edge">
<title>Node4&#45;&gt;Node7</title>
<g id="a_edge9_Node000007_Node000004"><a xlink:title=" ">
<path fill="none" stroke="#9a32cd" stroke-dasharray="5,2" d="M209.69,-216.84C181.79,-204.25 141.35,-186.01 117.33,-175.18"/>
<polygon fill="#9a32cd" stroke="#9a32cd" points="208.13,-219.98 218.69,-220.9 211.01,-213.6 208.13,-219.98"/>
</a>
</g>
<text text-anchor="middle" x="188" y="-194.5" font-family="Times,serif" font-size="10.00" fill="grey"> data</text>
</g>
<!-- Node4&#45;&gt;Node8 -->
<g id="edge12_Node000008_Node000004" class="edge">
<title>Node4&#45;&gt;Node8</title>
<g id="a_edge12_Node000008_Node000004"><a xlink:title=" ">
<path fill="none" stroke="#9a32cd" stroke-dasharray="5,2" d="M235.94,-210.8C231.77,-194.8 224.28,-172.26 212.25,-155.5 200.23,-138.75 194.82,-135.21 176.25,-126.25 164.04,-120.36 134.54,-113.82 107.73,-108.69"/>
<polygon fill="#9a32cd" stroke="#9a32cd" points="232.43,-211.17 238.15,-220.09 239.24,-209.55 232.43,-211.17"/>
</a>
</g>
<text text-anchor="middle" x="233" y="-161.25" font-family="Times,serif" font-size="10.00" fill="grey"> data</text>
</g>
<!-- Node5 -->
<g id="Node000005" class="node">
<title>Node5</title>
<g id="a_Node000005"><a xlink:title=" ">
<polygon fill="white" stroke="#666666" points="239.65,-374.25 210.85,-374.25 210.85,-355 239.65,-355 239.65,-374.25"/>
<text text-anchor="middle" x="225.25" y="-360.75" font-family="Times,serif" font-size="10.00">T</text>
</a>
</g>
</g>
<!-- Node5&#45;&gt;Node4 -->
<g id="edge4_Node000004_Node000005" class="edge">
<title>Node5&#45;&gt;Node4</title>
<g id="a_edge4_Node000004_Node000005"><a xlink:title=" ">
<path fill="none" stroke="#9a32cd" stroke-dasharray="5,2" d="M220,-343.63C216.77,-328.41 213.88,-307 217.5,-288.5 220.92,-271.03 229.83,-252.12 235.43,-241.39"/>
<polygon fill="#9a32cd" stroke="#9a32cd" points="216.58,-344.37 222.3,-353.29 223.39,-342.75 216.58,-344.37"/>
</a>
</g>
<text text-anchor="middle" x="236.62" y="-294.25" font-family="Times,serif" font-size="10.00" fill="grey"> elements</text>
</g>
<!-- Node6 -->
<g id="Node000006" class="node">
<title>Node6</title>
<g id="a_Node000006"><a xlink:title=" ">
<polygon fill="white" stroke="#666666" points="338.88,-307.75 263.62,-307.75 263.62,-288.5 338.88,-288.5 338.88,-307.75"/>
<text text-anchor="middle" x="301.25" y="-294.25" font-family="Times,serif" font-size="10.00">std::array&lt; T &gt;</text>
</a>
</g>
</g>
<!-- Node5&#45;&gt;Node6 -->
<g id="edge6_Node000006_Node000005" class="edge">
<title>Node5&#45;&gt;Node6</title>
<g id="a_edge6_Node000006_Node000005"><a xlink:title=" ">
<path fill="none" stroke="#9a32cd" stroke-dasharray="5,2" d="M244.2,-347.54C258.92,-335.05 278.79,-318.19 290.77,-308.02"/>
<polygon fill="#9a32cd" stroke="#9a32cd" points="242.33,-344.54 236.97,-353.68 246.86,-349.88 242.33,-344.54"/>
</a>
</g>
<text text-anchor="middle" x="285.62" y="-327.5" font-family="Times,serif" font-size="10.00" fill="grey"> elements</text>
</g>
<!-- Node6&#45;&gt;Node4 -->
<g id="edge5_Node000004_Node000006" class="edge">
<title>Node6&#45;&gt;Node4</title>
<g id="a_edge5_Node000004_Node000006"><a xlink:title=" ">
<path fill="none" stroke="orange" stroke-dasharray="5,2" d="M285.03,-279.97C273.33,-267.6 258.01,-251.4 248.66,-241.52"/>
<polygon fill="orange" stroke="orange" points="282.31,-282.2 291.73,-287.06 287.4,-277.39 282.31,-282.2"/>
</a>
</g>
<text text-anchor="middle" x="296.75" y="-261" font-family="Times,serif" font-size="10.00" fill="grey"> &lt; T, size &gt;</text>
</g>
<!-- Node7&#45;&gt;Node2 -->
<g id="edge7_Node000002_Node000007" class="edge">
<title>Node7&#45;&gt;Node2</title>
<g id="a_edge7_Node000002_Node000007"><a xlink:title=" ">
<path fill="none" stroke="orange" stroke-dasharray="5,2" d="M108.06,-145.94C112.82,-139.09 118.89,-131.66 125.75,-126.25 135.26,-118.76 147.19,-112.97 158.01,-108.72"/>
<polygon fill="orange" stroke="orange" points="105.35,-143.68 102.91,-153.99 111.25,-147.45 105.35,-143.68"/>
</a>
</g>
<text text-anchor="middle" x="149.5" y="-128" font-family="Times,serif" font-size="10.00" fill="grey"> &lt; 3, float &gt;</text>
</g>
<!-- Node7&#45;&gt;Node8 -->
<g id="edge13_Node000008_Node000007" class="edge">
<title>Node7&#45;&gt;Node8</title>
<g id="a_edge13_Node000008_Node000007"><a xlink:title=" ">
<path fill="none" stroke="orange" stroke-dasharray="5,2" d="M70.85,-148.51C67.14,-145.29 63.75,-141.61 61.25,-137.5 55.93,-128.74 54.84,-116.81 54.81,-108.7"/>
<polygon fill="orange" stroke="orange" points="68.48,-151.11 78.59,-154.25 72.65,-145.48 68.48,-151.11"/>
</a>
</g>
<text text-anchor="middle" x="80.75" y="-128" font-family="Times,serif" font-size="10.00" fill="grey"> &lt; 3, int &gt;</text>
</g>
<!-- Node8&#45;&gt;Node1 -->
<g id="edge10_Node000001_Node000008" class="edge">
<title>Node8&#45;&gt;Node1</title>
<g id="a_edge10_Node000001_Node000008"><a xlink:title=" ">
<path fill="none" stroke="#9a32cd" stroke-dasharray="5,2" d="M68.93,-79.59C82.79,-61.32 103.66,-33.81 114.37,-19.69"/>
<polygon fill="#9a32cd" stroke="#9a32cd" points="66.23,-77.35 62.98,-87.44 71.81,-81.58 66.23,-77.35"/>
</a>
</g>
<text text-anchor="middle" x="111.88" y="-50.25" font-family="Times,serif" font-size="10.00" fill="grey"> sign_</text>
</g>
</g>
</svg>
