<?xml version="1.0" encoding="UTF-8" standalone="no"?>
<!DOCTYPE svg PUBLIC "-//W3C//DTD SVG 1.1//EN"
 "http://www.w3.org/Graphics/SVG/1.1/DTD/svg11.dtd">
<!-- Generated by graphviz version 9.0.0 (20230911.1827)
 -->
<!-- Title: include/math/matnxn.inl Pages: 1 -->
<!--zoomable 359 -->

<svg id="main" version="1.1" xmlns="http://www.w3.org/2000/svg" xmlns:xlink="http://www.w3.org/1999/xlink" xml:space="preserve" onload="init(evt)">
<style type="text/css"><![CDATA[
.node, .edge {opacity: 0.7;}
.node.selected, .edge.selected {opacity: 1;}
.edge:hover path { stroke: red; }
.edge:hover polygon { stroke: red; fill: red; }
]]></style>

<defs>
  <circle id="rim" cx="0" cy="0" r="7"/>
  <circle id="rim2" cx="0" cy="0" r="3.5"/>
  <g id="zoomPlus">
    <use xlink:href="#rim" fill="#404040"><set attributeName="fill" to="#808080" begin="zoomplus.mouseover" end="zoomplus.mouseout"/></use>
    <path d="M-4,0h8M0,-4v8" fill="none" stroke="white" stroke-width="1.5" pointer-events="none"/>
  </g>
  <g id="zoomMin">
    <use xlink:href="#rim" fill="#404040"><set attributeName="fill" to="#808080" begin="zoomminus.mouseover" end="zoomminus.mouseout"/></use>
    <path d="M-4,0h8" fill="none" stroke="white" stroke-width="1.5" pointer-events="none"/>
  </g>
  <g id="arrowUp" transform="translate(30 24)">
    <use xlink:href="#rim"/>
    <path pointer-events="none" fill="none" stroke="white" stroke-width="1.5" d="M0,-3.0v7 M-2.5,-0.5L0,-3.0L2.5,-0.5"/>
  </g>
  <g id="arrowRight" transform="rotate(90) translate(36 -43)">
    <use xlink:href="#rim"/>
    <path pointer-events="none" fill="none" stroke="white" stroke-width="1.5" d="M0,-3.0v7 M-2.5,-0.5L0,-3.0L2.5,-0.5"/>
  </g>
  <g id="arrowDown" transform="rotate(180) translate(-30 -48)">
    <use xlink:href="#rim"/>
    <path pointer-events="none" fill="none" stroke="white" stroke-width="1.5" d="M0,-3.0v7 M-2.5,-0.5L0,-3.0L2.5,-0.5"/>
  </g>
  <g id="arrowLeft" transform="rotate(270) translate(-36 17)">
    <use xlink:href="#rim"/>
    <path pointer-events="none" fill="none" stroke="white" stroke-width="1.5" d="M0,-3.0v7 M-2.5,-0.5L0,-3.0L2.5,-0.5"/>
  </g>
  <g id="resetDef">
    <use xlink:href="#rim2" fill="#404040"><set attributeName="fill" to="#808080" begin="reset.mouseover" end="reset.mouseout"/></use>
  </g>
</defs>
<script type="application/ecmascript">
var viewWidth = 862;
var viewHeight = 359;
var sectionId = 'dynsection-1';
</script>
<script type="application/ecmascript" xlink:href="../../svg.min.js"/>
<svg id="graph" class="graph">
<g id="viewport">
<title>include/math/matnxn.inl</title>
<!-- Node1 -->
<g id="Node000001" class="node">
<title>Node1</title>
<g id="a_Node000001"><a xlink:title=" ">
<polygon fill="#999999" stroke="#666666" points="468,-350.75 353.75,-350.75 353.75,-331.5 468,-331.5 468,-350.75"/>
<text text-anchor="middle" x="410.88" y="-337.25" font-family="Times,serif" font-size="10.00">include/math/matnxn.inl</text>
</a>
</g>
</g>
<!-- Node2 -->
<g id="Node000002" class="node">
<title>Node2</title>
<g id="a_Node000002"><a xlink:href="../../dd/dad/matnxn_8hpp.html" target="_top" xlink:title="Provides the definition of a generic NxN matrix for mathematical operations.">
<polygon fill="white" stroke="#666666" points="470.62,-295.5 351.12,-295.5 351.12,-276.25 470.62,-276.25 470.62,-295.5"/>
<text text-anchor="middle" x="410.88" y="-282" font-family="Times,serif" font-size="10.00">include/math/matnxn.hpp</text>
</a>
</g>
</g>
<!-- Node1&#45;&gt;Node2 -->
<g id="edge1_Node000001_Node000002" class="edge">
<title>Node1&#45;&gt;Node2</title>
<g id="a_edge1_Node000001_Node000002"><a xlink:title=" ">
<path fill="none" stroke="#63b8ff" d="M404.32,-320.17C403.83,-311.8 404.28,-302.5 405.67,-295.86"/>
<polygon fill="#63b8ff" stroke="#63b8ff" points="400.81,-320.34 405.52,-329.83 407.76,-319.47 400.81,-320.34"/>
</a>
</g>
</g>
<!-- Node2&#45;&gt;Node1 -->
<g id="edge34_Node000002_Node000001" class="edge">
<title>Node2&#45;&gt;Node1</title>
<g id="a_edge34_Node000002_Node000001"><a xlink:title=" ">
<path fill="none" stroke="#63b8ff" d="M417.45,-307.07C417.92,-315.46 417.45,-324.74 416.04,-331.33"/>
<polygon fill="#63b8ff" stroke="#63b8ff" points="420.95,-306.87 416.26,-297.36 414,-307.71 420.95,-306.87"/>
</a>
</g>
</g>
<!-- Node3 -->
<g id="Node000003" class="node">
<title>Node3</title>
<g id="a_Node000003"><a xlink:href="../../dc/dc2/mat_8hpp.html" target="_top" xlink:title="Provides matrix definitions tailored for various sizes and primitive types.">
<polygon fill="white" stroke="#666666" points="463.12,-240.25 358.62,-240.25 358.62,-221 463.12,-221 463.12,-240.25"/>
<text text-anchor="middle" x="410.88" y="-226.75" font-family="Times,serif" font-size="10.00">include/math/mat.hpp</text>
</a>
</g>
</g>
<!-- Node2&#45;&gt;Node3 -->
<g id="edge2_Node000002_Node000003" class="edge">
<title>Node2&#45;&gt;Node3</title>
<g id="a_edge2_Node000002_Node000003"><a xlink:title=" ">
<path fill="none" stroke="#63b8ff" d="M404.32,-264.92C403.83,-256.55 404.28,-247.25 405.67,-240.61"/>
<polygon fill="#63b8ff" stroke="#63b8ff" points="400.81,-265.09 405.52,-274.58 407.76,-264.22 400.81,-265.09"/>
</a>
</g>
</g>
<!-- Node3&#45;&gt;Node2 -->
<g id="edge24_Node000003_Node000002" class="edge">
<title>Node3&#45;&gt;Node2</title>
<g id="a_edge24_Node000003_Node000002"><a xlink:title=" ">
<path fill="none" stroke="#63b8ff" d="M417.45,-251.82C417.92,-260.21 417.45,-269.49 416.04,-276.08"/>
<polygon fill="#63b8ff" stroke="#63b8ff" points="420.95,-251.62 416.26,-242.11 414,-252.46 420.95,-251.62"/>
</a>
</g>
</g>
<!-- Node4 -->
<g id="Node000004" class="node">
<title>Node4</title>
<g id="a_Node000004"><a xlink:href="../../d4/d78/math_8hpp.html" target="_top" xlink:title="Provides various mathematical utilities, vector operations, and custom hash specializations.">
<polygon fill="white" stroke="#666666" points="423.12,-129.75 336.62,-129.75 336.62,-110.5 423.12,-110.5 423.12,-129.75"/>
<text text-anchor="middle" x="379.88" y="-116.25" font-family="Times,serif" font-size="10.00">include/math.hpp</text>
</a>
</g>
</g>
<!-- Node3&#45;&gt;Node4 -->
<g id="edge3_Node000003_Node000004" class="edge">
<title>Node3&#45;&gt;Node4</title>
<g id="a_edge3_Node000003_Node000004"><a xlink:title=" ">
<path fill="none" stroke="#63b8ff" d="M405.25,-209.93C398.48,-186.26 387.43,-147.55 382.45,-130.13"/>
<polygon fill="#63b8ff" stroke="#63b8ff" points="401.81,-210.64 407.92,-219.29 408.54,-208.71 401.81,-210.64"/>
</a>
</g>
</g>
<!-- Node12 -->
<g id="Node000012" class="node">
<title>Node12</title>
<g id="a_Node000012"><a xlink:href="../../d1/dea/mat_8cpp.html" target="_top" xlink:title=" ">
<polygon fill="white" stroke="#666666" points="382.75,-185 279,-185 279,-165.75 382.75,-165.75 382.75,-185"/>
<text text-anchor="middle" x="330.88" y="-171.5" font-family="Times,serif" font-size="10.00">include/math/mat.cpp</text>
</a>
</g>
</g>
<!-- Node3&#45;&gt;Node12 -->
<g id="edge19_Node000003_Node000012" class="edge">
<title>Node3&#45;&gt;Node12</title>
<g id="a_edge19_Node000003_Node000012"><a xlink:title=" ">
<path fill="none" stroke="#63b8ff" d="M387.82,-214.28C373.8,-204.95 356.37,-193.35 344.51,-185.45"/>
<polygon fill="#63b8ff" stroke="#63b8ff" points="385.78,-217.13 396.04,-219.75 389.66,-211.3 385.78,-217.13"/>
</a>
</g>
</g>
<!-- Node13 -->
<g id="Node000013" class="node">
<title>Node13</title>
<g id="a_Node000013"><a xlink:href="../../dc/d4a/mat__math_8hpp.html" target="_top" xlink:title="Defines various matrix mathematical operations.">
<polygon fill="white" stroke="#666666" points="260.88,-185 130.88,-185 130.88,-165.75 260.88,-165.75 260.88,-185"/>
<text text-anchor="middle" x="195.88" y="-171.5" font-family="Times,serif" font-size="10.00">include/math/mat_math.hpp</text>
</a>
</g>
</g>
<!-- Node3&#45;&gt;Node13 -->
<g id="edge20_Node000003_Node000013" class="edge">
<title>Node3&#45;&gt;Node13</title>
<g id="a_edge20_Node000003_Node000013"><a xlink:title=" ">
<path fill="none" stroke="#63b8ff" d="M357.77,-217.89C316.74,-208.11 261.48,-194.38 227.22,-185.43"/>
<polygon fill="#63b8ff" stroke="#63b8ff" points="356.92,-221.28 367.46,-220.18 358.53,-214.47 356.92,-221.28"/>
</a>
</g>
</g>
<!-- Node15 -->
<g id="Node000015" class="node">
<title>Node15</title>
<g id="a_Node000015"><a xlink:href="../../db/d65/quaternion_8hpp.html" target="_top" xlink:title="Quaternion operations and related mathematical functions.">
<polygon fill="white" stroke="#666666" points="571,-185 438.75,-185 438.75,-165.75 571,-165.75 571,-185"/>
<text text-anchor="middle" x="504.88" y="-171.5" font-family="Times,serif" font-size="10.00">include/math/quaternion.hpp</text>
</a>
</g>
</g>
<!-- Node3&#45;&gt;Node15 -->
<g id="edge25_Node000003_Node000015" class="edge">
<title>Node3&#45;&gt;Node15</title>
<g id="a_edge25_Node000003_Node000015"><a xlink:title=" ">
<path fill="none" stroke="#63b8ff" d="M436.53,-215.09C453.24,-205.63 474.51,-193.58 488.85,-185.45"/>
<polygon fill="#63b8ff" stroke="#63b8ff" points="435.11,-211.87 428.14,-219.85 438.56,-217.96 435.11,-211.87"/>
</a>
</g>
</g>
<!-- Node18 -->
<g id="Node000018" class="node">
<title>Node18</title>
<g id="a_Node000018"><a xlink:href="../../db/de9/rmatnxn_8hpp.html" target="_top" xlink:title="Specialized representation of matrices using reference semantics.">
<polygon fill="white" stroke="#666666" points="784.5,-185 661.25,-185 661.25,-165.75 784.5,-165.75 784.5,-185"/>
<text text-anchor="middle" x="722.88" y="-171.5" font-family="Times,serif" font-size="10.00">include/math/rmatnxn.hpp</text>
</a>
</g>
</g>
<!-- Node3&#45;&gt;Node18 -->
<g id="edge30_Node000003_Node000018" class="edge">
<title>Node3&#45;&gt;Node18</title>
<g id="a_edge30_Node000003_Node000018"><a xlink:title=" ">
<path fill="none" stroke="#63b8ff" d="M470.05,-218.57C525.81,-208.77 608.76,-194.63 664.32,-185.48"/>
<polygon fill="#63b8ff" stroke="#63b8ff" points="469.66,-215.09 460.42,-220.27 470.87,-221.98 469.66,-215.09"/>
</a>
</g>
</g>
<!-- Node5 -->
<g id="Node000005" class="node">
<title>Node5</title>
<g id="a_Node000005"><a xlink:href="../../d7/de4/box_8hpp.html" target="_top" xlink:title="Defines a templated bounding box class for 3D primitives.">
<polygon fill="white" stroke="#666666" points="103.75,-74.5 0,-74.5 0,-55.25 103.75,-55.25 103.75,-74.5"/>
<text text-anchor="middle" x="51.88" y="-61" font-family="Times,serif" font-size="10.00">include/math/box.hpp</text>
</a>
</g>
</g>
<!-- Node4&#45;&gt;Node5 -->
<g id="edge4_Node000004_Node000005" class="edge">
<title>Node4&#45;&gt;Node5</title>
<g id="a_edge4_Node000004_Node000005"><a xlink:title=" ">
<path fill="none" stroke="#63b8ff" d="M325.3,-111.08C263.32,-101.38 163.18,-85.13 102.77,-74.99"/>
<polygon fill="#63b8ff" stroke="#63b8ff" points="324.49,-114.49 334.91,-112.57 325.57,-107.58 324.49,-114.49"/>
</a>
</g>
</g>
<!-- Node6 -->
<g id="Node000006" class="node">
<title>Node6</title>
<g id="a_Node000006"><a xlink:href="../../d6/d02/intersection_8hpp.html" target="_top" xlink:title="Provides functionalities to represent and handle intersections in 3D space.">
<polygon fill="white" stroke="#666666" points="257.88,-74.5 121.88,-74.5 121.88,-55.25 257.88,-55.25 257.88,-74.5"/>
<text text-anchor="middle" x="189.88" y="-61" font-family="Times,serif" font-size="10.00">include/math/intersection.hpp</text>
</a>
</g>
</g>
<!-- Node4&#45;&gt;Node6 -->
<g id="edge6_Node000004_Node000006" class="edge">
<title>Node4&#45;&gt;Node6</title>
<g id="a_edge6_Node000004_Node000006"><a xlink:title=" ">
<path fill="none" stroke="#63b8ff" d="M331.57,-107.2C295.25,-97.44 246.91,-83.84 217.04,-74.95"/>
<polygon fill="#63b8ff" stroke="#63b8ff" points="330.4,-110.51 340.96,-109.7 332.21,-103.74 330.4,-110.51"/>
</a>
</g>
</g>
<!-- Node8 -->
<g id="Node000008" class="node">
<title>Node8</title>
<g id="a_Node000008"><a xlink:href="../../d1/df2/random_8hpp.html" target="_top" xlink:title="Provides functionality for random number generation and manipulation in vector spaces.">
<polygon fill="white" stroke="#666666" points="395.62,-74.5 276.12,-74.5 276.12,-55.25 395.62,-55.25 395.62,-74.5"/>
<text text-anchor="middle" x="335.88" y="-61" font-family="Times,serif" font-size="10.00">include/math/random.hpp</text>
</a>
</g>
</g>
<!-- Node4&#45;&gt;Node8 -->
<g id="edge10_Node000004_Node000008" class="edge">
<title>Node4&#45;&gt;Node8</title>
<g id="a_edge10_Node000004_Node000008"><a xlink:title=" ">
<path fill="none" stroke="#63b8ff" d="M359.67,-102.32C351.33,-93.23 342.71,-82.35 338.09,-74.86"/>
<polygon fill="#63b8ff" stroke="#63b8ff" points="356.91,-104.51 366.39,-109.25 361.93,-99.63 356.91,-104.51"/>
</a>
</g>
</g>
<!-- Node9 -->
<g id="Node000009" class="node">
<title>Node9</title>
<g id="a_Node000009"><a xlink:href="../../db/d1d/ray_8hpp.html" target="_top" xlink:title="Contains the definition of the Ray class.">
<polygon fill="white" stroke="#666666" points="691.62,-74.5 590.12,-74.5 590.12,-55.25 691.62,-55.25 691.62,-74.5"/>
<text text-anchor="middle" x="640.88" y="-61" font-family="Times,serif" font-size="10.00">include/math/ray.hpp</text>
</a>
</g>
</g>
<!-- Node4&#45;&gt;Node9 -->
<g id="edge12_Node000004_Node000009" class="edge">
<title>Node4&#45;&gt;Node9</title>
<g id="a_edge12_Node000004_Node000009"><a xlink:title=" ">
<path fill="none" stroke="#63b8ff" d="M430.23,-107.7C476.66,-97.9 545.07,-83.97 591.27,-74.93"/>
<polygon fill="#63b8ff" stroke="#63b8ff" points="429.75,-104.22 420.7,-109.72 431.21,-111.07 429.75,-104.22"/>
</a>
</g>
</g>
<!-- Node11 -->
<g id="Node000011" class="node">
<title>Node11</title>
<g id="a_Node000011"><a xlink:href="../../d9/d6c/triangle_8hpp.html" target="_top" xlink:title="Defines the Triangle structure and methods for ray&#45;triangle intersection.">
<polygon fill="white" stroke="#666666" points="571.62,-74.5 452.12,-74.5 452.12,-55.25 571.62,-55.25 571.62,-74.5"/>
<text text-anchor="middle" x="511.88" y="-61" font-family="Times,serif" font-size="10.00">include/math/triangle.hpp</text>
</a>
</g>
</g>
<!-- Node4&#45;&gt;Node11 -->
<g id="edge17_Node000004_Node000011" class="edge">
<title>Node4&#45;&gt;Node11</title>
<g id="a_edge17_Node000004_Node000011"><a xlink:title=" ">
<path fill="none" stroke="#63b8ff" d="M407.32,-105.65C429.87,-96.04 461.5,-83.38 484.15,-74.95"/>
<polygon fill="#63b8ff" stroke="#63b8ff" points="406.23,-102.31 398.44,-109.49 409.01,-108.73 406.23,-102.31"/>
</a>
</g>
</g>
<!-- Node5&#45;&gt;Node4 -->
<g id="edge5_Node000005_Node000004" class="edge">
<title>Node5&#45;&gt;Node4</title>
<g id="a_edge5_Node000005_Node000004"><a xlink:title=" ">
<path fill="none" stroke="#63b8ff" d="M115.39,-75.33C180.47,-85.56 279.78,-101.7 336.43,-111.27"/>
<polygon fill="#63b8ff" stroke="#63b8ff" points="115.97,-71.87 105.55,-73.78 114.88,-78.79 115.97,-71.87"/>
</a>
</g>
</g>
<!-- Node6&#45;&gt;Node4 -->
<g id="edge7_Node000006_Node000004" class="edge">
<title>Node6&#45;&gt;Node4</title>
<g id="a_edge7_Node000006_Node000004"><a xlink:title=" ">
<path fill="none" stroke="#63b8ff" d="M238.36,-77.85C274.72,-87.62 323.05,-101.22 352.86,-110.09"/>
<polygon fill="#63b8ff" stroke="#63b8ff" points="239.52,-74.54 228.95,-75.34 237.71,-81.3 239.52,-74.54"/>
</a>
</g>
</g>
<!-- Node7 -->
<g id="Node000007" class="node">
<title>Node7</title>
<g id="a_Node000007"><a xlink:href="../../d7/d82/plane_8hpp.html" target="_top" xlink:title="Provides the definition of the Plane structure and its associated operations.">
<polygon fill="white" stroke="#666666" points="479.12,-19.25 368.62,-19.25 368.62,0 479.12,0 479.12,-19.25"/>
<text text-anchor="middle" x="423.88" y="-5.75" font-family="Times,serif" font-size="10.00">include/math/plane.hpp</text>
</a>
</g>
</g>
<!-- Node6&#45;&gt;Node7 -->
<g id="edge8_Node000006_Node000007" class="edge">
<title>Node6&#45;&gt;Node7</title>
<g id="a_edge8_Node000006_Node000007"><a xlink:title=" ">
<path fill="none" stroke="#63b8ff" d="M240.91,-52.26C283.92,-42.47 344.6,-28.67 384.08,-19.68"/>
<polygon fill="#63b8ff" stroke="#63b8ff" points="240.29,-48.81 231.31,-54.45 241.84,-55.64 240.29,-48.81"/>
</a>
</g>
</g>
<!-- Node7&#45;&gt;Node4 -->
<g id="edge9_Node000007_Node000004" class="edge">
<title>Node7&#45;&gt;Node4</title>
<g id="a_edge9_Node000007_Node000004"><a xlink:title=" ">
<path fill="none" stroke="#63b8ff" d="M419.22,-30.33C415.9,-43.16 410.95,-60.12 404.88,-74.5 399.41,-87.42 391.17,-101.39 385.66,-110.19"/>
<polygon fill="#63b8ff" stroke="#63b8ff" points="422.53,-31.53 421.53,-20.99 415.73,-29.86 422.53,-31.53"/>
</a>
</g>
</g>
<!-- Node8&#45;&gt;Node4 -->
<g id="edge11_Node000008_Node000004" class="edge">
<title>Node8&#45;&gt;Node4</title>
<g id="a_edge11_Node000008_Node000004"><a xlink:title=" ">
<path fill="none" stroke="#63b8ff" d="M356.3,-82.91C364.64,-92.04 373.22,-102.9 377.78,-110.33"/>
<polygon fill="#63b8ff" stroke="#63b8ff" points="359.03,-80.7 349.56,-75.95 354,-85.57 359.03,-80.7"/>
</a>
</g>
</g>
<!-- Node9&#45;&gt;Node4 -->
<g id="edge13_Node000009_Node000004" class="edge">
<title>Node9&#45;&gt;Node4</title>
<g id="a_edge13_Node000009_Node000004"><a xlink:title=" ">
<path fill="none" stroke="#63b8ff" d="M590.56,-77.3C542.02,-87.54 469.45,-102.3 423.34,-111.27"/>
<polygon fill="#63b8ff" stroke="#63b8ff" points="591.2,-80.74 600.26,-75.24 589.75,-73.89 591.2,-80.74"/>
</a>
</g>
</g>
<!-- Node9&#45;&gt;Node7 -->
<g id="edge14_Node000009_Node000007" class="edge">
<title>Node9&#45;&gt;Node7</title>
<g id="a_edge14_Node000009_Node000007"><a xlink:title=" ">
<path fill="none" stroke="#63b8ff" d="M593.03,-52.13C553.21,-42.36 497.33,-28.65 460.87,-19.7"/>
<polygon fill="#63b8ff" stroke="#63b8ff" points="592.05,-55.5 602.59,-54.48 593.72,-48.7 592.05,-55.5"/>
</a>
</g>
</g>
<!-- Node10 -->
<g id="Node000010" class="node">
<title>Node10</title>
<g id="a_Node000010"><a xlink:href="../../d0/da1/sphere_8hpp.html" target="_top" xlink:title="Defines the Sphere structure and its associated functionality.">
<polygon fill="white" stroke="#666666" points="737.75,-19.25 622,-19.25 622,0 737.75,0 737.75,-19.25"/>
<text text-anchor="middle" x="679.88" y="-5.75" font-family="Times,serif" font-size="10.00">include/math/sphere.hpp</text>
</a>
</g>
</g>
<!-- Node9&#45;&gt;Node10 -->
<g id="edge15_Node000009_Node000010" class="edge">
<title>Node9&#45;&gt;Node10</title>
<g id="a_edge15_Node000009_Node000010"><a xlink:title=" ">
<path fill="none" stroke="#63b8ff" d="M654.01,-45.94C660.5,-37.09 668.04,-26.79 673.3,-19.61"/>
<polygon fill="#63b8ff" stroke="#63b8ff" points="651.29,-43.73 648.21,-53.86 656.94,-47.86 651.29,-43.73"/>
</a>
</g>
</g>
<!-- Node10&#45;&gt;Node4 -->
<g id="edge16_Node000010_Node000004" class="edge">
<title>Node10&#45;&gt;Node4</title>
<g id="a_edge16_Node000010_Node000004"><a xlink:title=" ">
<path fill="none" stroke="#63b8ff" d="M694.3,-28.63C703.63,-42.58 712.13,-61.63 700.88,-74.5 661.31,-119.73 492.31,-101.67 432.88,-110.5 429.83,-110.95 426.69,-111.43 423.53,-111.92"/>
<polygon fill="#63b8ff" stroke="#63b8ff" points="697.26,-26.75 688.53,-20.76 691.62,-30.9 697.26,-26.75"/>
</a>
</g>
</g>
<!-- Node11&#45;&gt;Node4 -->
<g id="edge18_Node000011_Node000004" class="edge">
<title>Node11&#45;&gt;Node4</title>
<g id="a_edge18_Node000011_Node000004"><a xlink:title=" ">
<path fill="none" stroke="#63b8ff" d="M484.32,-79.4C461.73,-89.02 430.1,-101.68 407.48,-110.09"/>
<polygon fill="#63b8ff" stroke="#63b8ff" points="485.42,-82.73 493.21,-75.55 482.64,-76.31 485.42,-82.73"/>
</a>
</g>
</g>
<!-- Node13&#45;&gt;Node3 -->
<g id="edge21_Node000013_Node000003" class="edge">
<title>Node13&#45;&gt;Node3</title>
<g id="a_edge21_Node000013_Node000003"><a xlink:title=" ">
<path fill="none" stroke="#63b8ff" d="M248.93,-188.1C289.99,-197.89 345.35,-211.64 379.62,-220.59"/>
<polygon fill="#63b8ff" stroke="#63b8ff" points="249.76,-184.7 239.22,-185.8 248.15,-191.51 249.76,-184.7"/>
</a>
</g>
</g>
<!-- Node14 -->
<g id="Node000014" class="node">
<title>Node14</title>
<g id="a_Node000014"><a xlink:href="../../d7/dab/mat__math_8inl.html" target="_top" xlink:title=" ">
<polygon fill="white" stroke="#666666" points="258.25,-129.75 133.5,-129.75 133.5,-110.5 258.25,-110.5 258.25,-129.75"/>
<text text-anchor="middle" x="195.88" y="-116.25" font-family="Times,serif" font-size="10.00">include/math/mat_math.inl</text>
</a>
</g>
</g>
<!-- Node13&#45;&gt;Node14 -->
<g id="edge22_Node000013_Node000014" class="edge">
<title>Node13&#45;&gt;Node14</title>
<g id="a_edge22_Node000013_Node000014"><a xlink:title=" ">
<path fill="none" stroke="#63b8ff" d="M189.32,-154.42C188.83,-146.05 189.28,-136.75 190.67,-130.11"/>
<polygon fill="#63b8ff" stroke="#63b8ff" points="185.81,-154.59 190.52,-164.08 192.76,-153.72 185.81,-154.59"/>
</a>
</g>
</g>
<!-- Node14&#45;&gt;Node13 -->
<g id="edge23_Node000014_Node000013" class="edge">
<title>Node14&#45;&gt;Node13</title>
<g id="a_edge23_Node000014_Node000013"><a xlink:title=" ">
<path fill="none" stroke="#63b8ff" d="M202.45,-141.32C202.92,-149.71 202.45,-158.99 201.04,-165.58"/>
<polygon fill="#63b8ff" stroke="#63b8ff" points="205.95,-141.12 201.26,-131.61 199,-141.96 205.95,-141.12"/>
</a>
</g>
</g>
<!-- Node15&#45;&gt;Node4 -->
<g id="edge26_Node000015_Node000004" class="edge">
<title>Node15&#45;&gt;Node4</title>
<g id="a_edge26_Node000015_Node000004"><a xlink:title=" ">
<path fill="none" stroke="#63b8ff" d="M473.25,-160.9C450.69,-151.29 420.97,-138.63 401.18,-130.2"/>
<polygon fill="#63b8ff" stroke="#63b8ff" points="471.71,-164.05 482.28,-164.75 474.45,-157.61 471.71,-164.05"/>
</a>
</g>
</g>
<!-- Node16 -->
<g id="Node000016" class="node">
<title>Node16</title>
<g id="a_Node000016"><a xlink:href="../../da/d59/quaternion_8cpp.html" target="_top" xlink:title=" ">
<polygon fill="white" stroke="#666666" points="717.62,-129.75 586.12,-129.75 586.12,-110.5 717.62,-110.5 717.62,-129.75"/>
<text text-anchor="middle" x="651.88" y="-116.25" font-family="Times,serif" font-size="10.00">include/math/quaternion.cpp</text>
</a>
</g>
</g>
<!-- Node15&#45;&gt;Node16 -->
<g id="edge27_Node000015_Node000016" class="edge">
<title>Node15&#45;&gt;Node16</title>
<g id="a_edge27_Node000015_Node000016"><a xlink:title=" ">
<path fill="none" stroke="#63b8ff" d="M540.63,-161.42C567.32,-151.75 603.12,-138.79 626.82,-130.2"/>
<polygon fill="#63b8ff" stroke="#63b8ff" points="539.44,-158.13 531.23,-164.83 541.83,-164.71 539.44,-158.13"/>
</a>
</g>
</g>
<!-- Node17 -->
<g id="Node000017" class="node">
<title>Node17</title>
<g id="a_Node000017"><a xlink:href="../../d8/d7f/quaternion_8inl.html" target="_top" xlink:title=" ">
<polygon fill="white" stroke="#666666" points="568.38,-129.75 441.38,-129.75 441.38,-110.5 568.38,-110.5 568.38,-129.75"/>
<text text-anchor="middle" x="504.88" y="-116.25" font-family="Times,serif" font-size="10.00">include/math/quaternion.inl</text>
</a>
</g>
</g>
<!-- Node15&#45;&gt;Node17 -->
<g id="edge28_Node000015_Node000017" class="edge">
<title>Node15&#45;&gt;Node17</title>
<g id="a_edge28_Node000015_Node000017"><a xlink:title=" ">
<path fill="none" stroke="#63b8ff" d="M498.32,-154.42C497.83,-146.05 498.28,-136.75 499.67,-130.11"/>
<polygon fill="#63b8ff" stroke="#63b8ff" points="494.81,-154.59 499.52,-164.08 501.76,-153.72 494.81,-154.59"/>
</a>
</g>
</g>
<!-- Node17&#45;&gt;Node15 -->
<g id="edge29_Node000017_Node000015" class="edge">
<title>Node17&#45;&gt;Node15</title>
<g id="a_edge29_Node000017_Node000015"><a xlink:title=" ">
<path fill="none" stroke="#63b8ff" d="M511.45,-141.32C511.92,-149.71 511.45,-158.99 510.04,-165.58"/>
<polygon fill="#63b8ff" stroke="#63b8ff" points="514.95,-141.12 510.26,-131.61 508,-141.96 514.95,-141.12"/>
</a>
</g>
</g>
<!-- Node18&#45;&gt;Node3 -->
<g id="edge31_Node000018_Node000003" class="edge">
<title>Node18&#45;&gt;Node3</title>
<g id="a_edge31_Node000018_Node000003"><a xlink:title=" ">
<path fill="none" stroke="#63b8ff" d="M663.75,-187.42C606.02,-197.57 519.09,-212.37 463.62,-221.48"/>
<polygon fill="#63b8ff" stroke="#63b8ff" points="664.16,-190.9 673.4,-185.72 662.95,-184.01 664.16,-190.9"/>
</a>
</g>
</g>
<!-- Node19 -->
<g id="Node000019" class="node">
<title>Node19</title>
<g id="a_Node000019"><a xlink:href="../../df/da5/rmatnxn_8inl.html" target="_top" xlink:title=" ">
<polygon fill="white" stroke="#666666" points="853.88,-129.75 735.88,-129.75 735.88,-110.5 853.88,-110.5 853.88,-129.75"/>
<text text-anchor="middle" x="794.88" y="-116.25" font-family="Times,serif" font-size="10.00">include/math/rmatnxn.inl</text>
</a>
</g>
</g>
<!-- Node18&#45;&gt;Node19 -->
<g id="edge32_Node000018_Node000019" class="edge">
<title>Node18&#45;&gt;Node19</title>
<g id="a_edge32_Node000018_Node000019"><a xlink:title=" ">
<path fill="none" stroke="#63b8ff" d="M738.47,-158.21C749.99,-149.03 765.42,-137.87 777.38,-130.2"/>
<polygon fill="#63b8ff" stroke="#63b8ff" points="736.5,-155.3 731.04,-164.38 740.97,-160.68 736.5,-155.3"/>
</a>
</g>
</g>
<!-- Node19&#45;&gt;Node18 -->
<g id="edge33_Node000019_Node000018" class="edge">
<title>Node19&#45;&gt;Node18</title>
<g id="a_edge33_Node000019_Node000018"><a xlink:title=" ">
<path fill="none" stroke="#63b8ff" d="M779.43,-137.18C767.87,-146.4 752.32,-157.65 740.31,-165.34"/>
<polygon fill="#63b8ff" stroke="#63b8ff" points="781.41,-140.08 786.87,-130.99 776.94,-134.69 781.41,-140.08"/>
</a>
</g>
</g>
</g>
</svg>

<g id="navigator" transform="translate(0 0)" fill="#404254">
  <rect fill="#f2f5e9" fill-opacity="0.5" stroke="#606060" stroke-width=".5" x="0" y="0" width="60" height="60"/>
  <use id="zoomplus" xlink:href="#zoomPlus" x="17" y="9" onmousedown="handleZoom(evt,'in')"/>
  <use id="zoomminus" xlink:href="#zoomMin" x="42" y="9" onmousedown="handleZoom(evt,'out')"/>
  <use id="reset" xlink:href="#resetDef" x="30" y="36" onmousedown="handleReset()"/>
   <use id="arrowup" xlink:href="#arrowUp" x="0" y="0" onmousedown="handlePan(0,-1)"/>
  <use id="arrowright" xlink:href="#arrowRight" x="0" y="0" onmousedown="handlePan(1,0)"/>
  <use id="arrowdown" xlink:href="#arrowDown" x="0" y="0" onmousedown="handlePan(0,1)"/>
  <use id="arrowleft" xlink:href="#arrowLeft" x="0" y="0" onmousedown="handlePan(-1,0)"/>
</g>
<svg viewBox="0 0 15 15" width="100%" height="30px" preserveAspectRatio="xMaxYMin meet">
 <g id="arrow_out" transform="scale(0.3 0.3)">
  <a xlink:href="matnxn_8inl__dep__incl_org.svg" target="_base">
   <rect id="button" ry="5" rx="5" y="6" x="6" height="38" width="38"
        fill="#f2f5e9" fill-opacity="0.5" stroke="#606060" stroke-width="1.0"/>
   <path id="arrow"
     d="M 11.500037,31.436501 C 11.940474,20.09759 22.043105,11.32322 32.158766,21.979434 L 37.068811,17.246167 C 37.068811,17.246167 37.088388,32 37.088388,32 L 22.160133,31.978069 C 22.160133,31.978069 26.997745,27.140456 26.997745,27.140456 C 18.528582,18.264221 13.291696,25.230495 11.500037,31.436501 z"
     style="fill:#404040;"/>
  </a>
 </g>
</svg>

<style type='text/css'>
<![CDATA[
[data-mouse-over-selected='false'] { opacity: 0.7; }
[data-mouse-over-selected='true']  { opacity: 1.0; }
]]>
</style>
<script type="application/ecmascript"><![CDATA[
document.addEventListener('DOMContentLoaded', (event) => {
  highlightEdges();
  highlightAdjacentNodes();
});
]]></script>
</svg>
