<?xml version="1.0" encoding="UTF-8" standalone="no"?>
<!DOCTYPE svg PUBLIC "-//W3C//DTD SVG 1.1//EN"
 "http://www.w3.org/Graphics/SVG/1.1/DTD/svg11.dtd">
<!-- Generated by graphviz version 9.0.0 (20230911.1827)
 -->
<!-- Title: mal_math::Sphere Pages: 1 -->
<svg width="287pt" height="360pt"
 viewBox="0.00 0.00 286.50 359.75" xmlns="http://www.w3.org/2000/svg" xmlns:xlink="http://www.w3.org/1999/xlink">
<g id="graph0" class="graph" transform="scale(1 1) rotate(0) translate(4 355.75)">
<title>mal_math::Sphere</title>
<!-- Node1 -->
<g id="Node000001" class="node">
<title>Node1</title>
<g id="a_Node000001"><a xlink:title="A geometric representation of a sphere in 3D space.">
<polygon fill="#999999" stroke="#666666" points="191.88,-19.25 103.88,-19.25 103.88,0 191.88,0 191.88,-19.25"/>
<text text-anchor="middle" x="147.88" y="-5.75" font-family="Times,serif" font-size="10.00">mal_math::Sphere</text>
</a>
</g>
</g>
<!-- Node2 -->
<g id="Node000002" class="node">
<title>Node2</title>
<g id="a_Node000002"><a xlink:href="../../dd/dce/structmal__math_1_1vec.html" target="_top" xlink:title=" ">
<polygon fill="white" stroke="#666666" points="159.88,-85.75 41.88,-85.75 41.88,-66.5 159.88,-66.5 159.88,-85.75"/>
<text text-anchor="middle" x="100.88" y="-72.25" font-family="Times,serif" font-size="10.00">mal_math::vec&lt; 3, float &gt;</text>
</a>
</g>
</g>
<!-- Node2&#45;&gt;Node1 -->
<g id="edge1_Node000001_Node000002" class="edge">
<title>Node2&#45;&gt;Node1</title>
<g id="a_edge1_Node000001_Node000002"><a xlink:title=" ">
<path fill="none" stroke="#9a32cd" stroke-dasharray="5,2" d="M114.17,-56.88C123.07,-44.66 134.4,-29.11 141.4,-19.52"/>
<polygon fill="#9a32cd" stroke="#9a32cd" points="111.36,-54.79 108.3,-64.93 117.02,-58.91 111.36,-54.79"/>
</a>
</g>
<text text-anchor="middle" x="144.75" y="-39" font-family="Times,serif" font-size="10.00" fill="grey"> position</text>
</g>
<!-- Node3 -->
<g id="Node000003" class="node">
<title>Node3</title>
<g id="a_Node000003"><a xlink:title=" ">
<polygon fill="white" stroke="#666666" points="103.75,-218.75 0,-218.75 0,-199.5 103.75,-199.5 103.75,-218.75"/>
<text text-anchor="middle" x="51.88" y="-205.25" font-family="Times,serif" font-size="10.00">static constexpr size_t</text>
</a>
</g>
</g>
<!-- Node3&#45;&gt;Node2 -->
<g id="edge2_Node000002_Node000003" class="edge">
<title>Node3&#45;&gt;Node2</title>
<g id="a_edge2_Node000002_Node000003"><a xlink:title=" ">
<path fill="none" stroke="#9a32cd" stroke-dasharray="5,2" d="M35.86,-190.53C23.81,-175.05 10.94,-152.06 20.88,-133 32.7,-110.32 58.41,-94.95 77.51,-86.17"/>
<polygon fill="#9a32cd" stroke="#9a32cd" points="32.97,-192.53 42.08,-197.94 38.33,-188.03 32.97,-192.53"/>
</a>
</g>
<text text-anchor="middle" x="29.88" y="-138.75" font-family="Times,serif" font-size="10.00" fill="grey"> size</text>
</g>
<!-- Node7 -->
<g id="Node000007" class="node">
<title>Node7</title>
<g id="a_Node000007"><a xlink:href="../../dd/dce/structmal__math_1_1vec.html" target="_top" xlink:title="Definition of the mathematical vector with fixed size L and type T">
<polygon fill="white" stroke="#666666" points="154.25,-152.25 47.5,-152.25 47.5,-133 154.25,-133 154.25,-152.25"/>
<text text-anchor="middle" x="100.88" y="-138.75" font-family="Times,serif" font-size="10.00">mal_math::vec&lt; L, T &gt;</text>
</a>
</g>
</g>
<!-- Node3&#45;&gt;Node7 -->
<g id="edge8_Node000007_Node000003" class="edge">
<title>Node3&#45;&gt;Node7</title>
<g id="a_edge8_Node000007_Node000003"><a xlink:title=" ">
<path fill="none" stroke="#9a32cd" stroke-dasharray="5,2" d="M65.09,-190.01C69.72,-183.72 74.99,-176.65 79.88,-170.25 84.45,-164.26 89.7,-157.6 93.81,-152.45"/>
<polygon fill="#9a32cd" stroke="#9a32cd" points="62.46,-187.68 59.37,-197.82 68.1,-191.82 62.46,-187.68"/>
</a>
</g>
<text text-anchor="middle" x="88.88" y="-172" font-family="Times,serif" font-size="10.00" fill="grey"> size</text>
</g>
<!-- Node4 -->
<g id="Node000004" class="node">
<title>Node4</title>
<g id="a_Node000004"><a xlink:title=" ">
<polygon fill="white" stroke="#666666" points="227.62,-218.75 132.12,-218.75 132.12,-199.5 227.62,-199.5 227.62,-218.75"/>
<text text-anchor="middle" x="179.88" y="-205.25" font-family="Times,serif" font-size="10.00">std::array&lt; T, size &gt;</text>
</a>
</g>
</g>
<!-- Node4&#45;&gt;Node2 -->
<g id="edge3_Node000002_Node000004" class="edge">
<title>Node4&#45;&gt;Node2</title>
<g id="a_edge3_Node000002_Node000004"><a xlink:title=" ">
<path fill="none" stroke="#9a32cd" stroke-dasharray="5,2" d="M179.61,-187.61C178.24,-164.54 172.66,-127.23 151.88,-103.75 145.12,-96.12 135.65,-90.35 126.71,-86.16"/>
<polygon fill="#9a32cd" stroke="#9a32cd" points="176.11,-187.68 179.96,-197.55 183.11,-187.43 176.11,-187.68"/>
</a>
</g>
<text text-anchor="middle" x="183.62" y="-138.75" font-family="Times,serif" font-size="10.00" fill="grey"> data</text>
</g>
<!-- Node4&#45;&gt;Node7 -->
<g id="edge9_Node000007_Node000004" class="edge">
<title>Node4&#45;&gt;Node7</title>
<g id="a_edge9_Node000007_Node000004"><a xlink:title=" ">
<path fill="none" stroke="#9a32cd" stroke-dasharray="5,2" d="M160.23,-192.08C145.03,-179.67 124.52,-162.93 112.02,-152.73"/>
<polygon fill="#9a32cd" stroke="#9a32cd" points="157.76,-194.59 167.72,-198.2 162.19,-189.16 157.76,-194.59"/>
</a>
</g>
<text text-anchor="middle" x="154.62" y="-172" font-family="Times,serif" font-size="10.00" fill="grey"> data</text>
</g>
<!-- Node5 -->
<g id="Node000005" class="node">
<title>Node5</title>
<g id="a_Node000005"><a xlink:title=" ">
<polygon fill="white" stroke="#666666" points="179.28,-351.75 150.47,-351.75 150.47,-332.5 179.28,-332.5 179.28,-351.75"/>
<text text-anchor="middle" x="164.88" y="-338.25" font-family="Times,serif" font-size="10.00">T</text>
</a>
</g>
</g>
<!-- Node5&#45;&gt;Node4 -->
<g id="edge4_Node000004_Node000005" class="edge">
<title>Node5&#45;&gt;Node4</title>
<g id="a_edge4_Node000004_Node000005"><a xlink:title=" ">
<path fill="none" stroke="#9a32cd" stroke-dasharray="5,2" d="M159.62,-321.13C156.39,-305.91 153.5,-284.5 157.12,-266 160.55,-248.53 169.46,-229.62 175.06,-218.89"/>
<polygon fill="#9a32cd" stroke="#9a32cd" points="156.2,-321.87 161.93,-330.79 163.01,-320.25 156.2,-321.87"/>
</a>
</g>
<text text-anchor="middle" x="175.25" y="-271.75" font-family="Times,serif" font-size="10.00" fill="grey"> elements</text>
</g>
<!-- Node6 -->
<g id="Node000006" class="node">
<title>Node6</title>
<g id="a_Node000006"><a xlink:title=" ">
<polygon fill="white" stroke="#666666" points="278.5,-285.25 203.25,-285.25 203.25,-266 278.5,-266 278.5,-285.25"/>
<text text-anchor="middle" x="240.88" y="-271.75" font-family="Times,serif" font-size="10.00">std::array&lt; T &gt;</text>
</a>
</g>
</g>
<!-- Node5&#45;&gt;Node6 -->
<g id="edge6_Node000006_Node000005" class="edge">
<title>Node5&#45;&gt;Node6</title>
<g id="a_edge6_Node000006_Node000005"><a xlink:title=" ">
<path fill="none" stroke="#9a32cd" stroke-dasharray="5,2" d="M183.83,-325.04C198.55,-312.55 218.41,-295.69 230.4,-285.52"/>
<polygon fill="#9a32cd" stroke="#9a32cd" points="181.96,-322.04 176.6,-331.18 186.49,-327.38 181.96,-322.04"/>
</a>
</g>
<text text-anchor="middle" x="225.25" y="-305" font-family="Times,serif" font-size="10.00" fill="grey"> elements</text>
</g>
<!-- Node6&#45;&gt;Node4 -->
<g id="edge5_Node000004_Node000006" class="edge">
<title>Node6&#45;&gt;Node4</title>
<g id="a_edge5_Node000004_Node000006"><a xlink:title=" ">
<path fill="none" stroke="orange" stroke-dasharray="5,2" d="M224.65,-257.47C212.95,-245.1 197.63,-228.9 188.28,-219.02"/>
<polygon fill="orange" stroke="orange" points="221.94,-259.7 231.35,-264.56 227.02,-254.89 221.94,-259.7"/>
</a>
</g>
<text text-anchor="middle" x="236.38" y="-238.5" font-family="Times,serif" font-size="10.00" fill="grey"> &lt; T, size &gt;</text>
</g>
<!-- Node7&#45;&gt;Node2 -->
<g id="edge7_Node000002_Node000007" class="edge">
<title>Node7&#45;&gt;Node2</title>
<g id="a_edge7_Node000002_Node000007"><a xlink:title=" ">
<path fill="none" stroke="orange" stroke-dasharray="5,2" d="M100.88,-121.15C100.88,-109.32 100.88,-95.04 100.88,-86.02"/>
<polygon fill="orange" stroke="orange" points="97.38,-121.14 100.88,-131.14 104.38,-121.14 97.38,-121.14"/>
</a>
</g>
<text text-anchor="middle" x="124.12" y="-105.5" font-family="Times,serif" font-size="10.00" fill="grey"> &lt; 3, float &gt;</text>
</g>
<!-- Node8 -->
<g id="Node000008" class="node">
<title>Node8</title>
<g id="a_Node000008"><a xlink:title=" ">
<polygon fill="white" stroke="#666666" points="211.88,-85.75 177.88,-85.75 177.88,-66.5 211.88,-66.5 211.88,-85.75"/>
<text text-anchor="middle" x="194.88" y="-72.25" font-family="Times,serif" font-size="10.00">float</text>
</a>
</g>
</g>
<!-- Node8&#45;&gt;Node1 -->
<g id="edge10_Node000001_Node000008" class="edge">
<title>Node8&#45;&gt;Node1</title>
<g id="a_edge10_Node000001_Node000008"><a xlink:title=" ">
<path fill="none" stroke="#9a32cd" stroke-dasharray="5,2" d="M181.58,-56.88C172.68,-44.66 161.35,-29.11 154.35,-19.52"/>
<polygon fill="#9a32cd" stroke="#9a32cd" points="178.73,-58.91 187.45,-64.93 184.39,-54.79 178.73,-58.91"/>
</a>
</g>
<text text-anchor="middle" x="187.38" y="-39" font-family="Times,serif" font-size="10.00" fill="grey"> radius</text>
</g>
</g>
</svg>
