<?xml version="1.0" encoding="UTF-8" standalone="no"?>
<!DOCTYPE svg PUBLIC "-//W3C//DTD SVG 1.1//EN"
 "http://www.w3.org/Graphics/SVG/1.1/DTD/svg11.dtd">
<!-- Generated by graphviz version 9.0.0 (20230911.1827)
 -->
<!-- Title: include/math/quaternion.inl Pages: 1 -->
<!--zoomable 414 -->

<svg id="main" version="1.1" xmlns="http://www.w3.org/2000/svg" xmlns:xlink="http://www.w3.org/1999/xlink" xml:space="preserve" onload="init(evt)">
<style type="text/css"><![CDATA[
.node, .edge {opacity: 0.7;}
.node.selected, .edge.selected {opacity: 1;}
.edge:hover path { stroke: red; }
.edge:hover polygon { stroke: red; fill: red; }
]]></style>

<defs>
  <circle id="rim" cx="0" cy="0" r="7"/>
  <circle id="rim2" cx="0" cy="0" r="3.5"/>
  <g id="zoomPlus">
    <use xlink:href="#rim" fill="#404040"><set attributeName="fill" to="#808080" begin="zoomplus.mouseover" end="zoomplus.mouseout"/></use>
    <path d="M-4,0h8M0,-4v8" fill="none" stroke="white" stroke-width="1.5" pointer-events="none"/>
  </g>
  <g id="zoomMin">
    <use xlink:href="#rim" fill="#404040"><set attributeName="fill" to="#808080" begin="zoomminus.mouseover" end="zoomminus.mouseout"/></use>
    <path d="M-4,0h8" fill="none" stroke="white" stroke-width="1.5" pointer-events="none"/>
  </g>
  <g id="arrowUp" transform="translate(30 24)">
    <use xlink:href="#rim"/>
    <path pointer-events="none" fill="none" stroke="white" stroke-width="1.5" d="M0,-3.0v7 M-2.5,-0.5L0,-3.0L2.5,-0.5"/>
  </g>
  <g id="arrowRight" transform="rotate(90) translate(36 -43)">
    <use xlink:href="#rim"/>
    <path pointer-events="none" fill="none" stroke="white" stroke-width="1.5" d="M0,-3.0v7 M-2.5,-0.5L0,-3.0L2.5,-0.5"/>
  </g>
  <g id="arrowDown" transform="rotate(180) translate(-30 -48)">
    <use xlink:href="#rim"/>
    <path pointer-events="none" fill="none" stroke="white" stroke-width="1.5" d="M0,-3.0v7 M-2.5,-0.5L0,-3.0L2.5,-0.5"/>
  </g>
  <g id="arrowLeft" transform="rotate(270) translate(-36 17)">
    <use xlink:href="#rim"/>
    <path pointer-events="none" fill="none" stroke="white" stroke-width="1.5" d="M0,-3.0v7 M-2.5,-0.5L0,-3.0L2.5,-0.5"/>
  </g>
  <g id="resetDef">
    <use xlink:href="#rim2" fill="#404040"><set attributeName="fill" to="#808080" begin="reset.mouseover" end="reset.mouseout"/></use>
  </g>
</defs>
<script type="application/ecmascript">
var viewWidth = 574;
var viewHeight = 414;
var sectionId = 'dynsection-0';
</script>
<script type="application/ecmascript" xlink:href="../../svg.min.js"/>
<svg id="graph" class="graph">
<g id="viewport">
<title>include/math/quaternion.inl</title>
<!-- Node1 -->
<g id="Node000001" class="node">
<title>Node1</title>
<g id="a_Node000001"><a xlink:title=" ">
<polygon fill="#999999" stroke="#666666" points="503.12,-406 376.12,-406 376.12,-386.75 503.12,-386.75 503.12,-406"/>
<text text-anchor="middle" x="439.62" y="-392.5" font-family="Times,serif" font-size="10.00">include/math/quaternion.inl</text>
</a>
</g>
</g>
<!-- Node2 -->
<g id="Node000002" class="node">
<title>Node2</title>
<g id="a_Node000002"><a xlink:href="../../db/d65/quaternion_8hpp.html" target="_top" xlink:title="Quaternion operations and related mathematical functions.">
<polygon fill="white" stroke="#666666" points="478,-350.75 401.25,-350.75 401.25,-331.5 478,-331.5 478,-350.75"/>
<text text-anchor="middle" x="439.62" y="-337.25" font-family="Times,serif" font-size="10.00">quaternion.hpp</text>
</a>
</g>
</g>
<!-- Node1&#45;&gt;Node2 -->
<g id="edge1_Node000001_Node000002" class="edge">
<title>Node1&#45;&gt;Node2</title>
<g id="a_edge1_Node000001_Node000002"><a xlink:title=" ">
<path fill="none" stroke="#63b8ff" d="M434.46,-386.58C433.05,-379.99 432.58,-370.71 433.05,-362.32"/>
<polygon fill="#63b8ff" stroke="#63b8ff" points="436.5,-362.96 434.24,-352.61 429.55,-362.12 436.5,-362.96"/>
</a>
</g>
</g>
<!-- Node2&#45;&gt;Node1 -->
<g id="edge55_Node000002_Node000001" class="edge">
<title>Node2&#45;&gt;Node1</title>
<g id="a_edge55_Node000002_Node000001"><a xlink:title=" ">
<path fill="none" stroke="#63b8ff" d="M444.83,-351.11C446.22,-357.75 446.67,-367.05 446.18,-375.42"/>
<polygon fill="#63b8ff" stroke="#63b8ff" points="442.74,-374.72 444.98,-385.08 449.69,-375.59 442.74,-374.72"/>
</a>
</g>
</g>
<!-- Node3 -->
<g id="Node000003" class="node">
<title>Node3</title>
<g id="a_Node000003"><a xlink:href="../../dc/dc2/mat_8hpp.html" target="_top" xlink:title="Provides matrix definitions tailored for various sizes and primitive types.">
<polygon fill="white" stroke="#666666" points="464.12,-295.5 415.12,-295.5 415.12,-276.25 464.12,-276.25 464.12,-295.5"/>
<text text-anchor="middle" x="439.62" y="-282" font-family="Times,serif" font-size="10.00">mat.hpp</text>
</a>
</g>
</g>
<!-- Node2&#45;&gt;Node3 -->
<g id="edge2_Node000002_Node000003" class="edge">
<title>Node2&#45;&gt;Node3</title>
<g id="a_edge2_Node000002_Node000003"><a xlink:title=" ">
<path fill="none" stroke="#63b8ff" d="M439.62,-331.33C439.62,-324.82 439.62,-315.67 439.62,-307.37"/>
<polygon fill="#63b8ff" stroke="#63b8ff" points="443.13,-307.37 439.63,-297.37 436.13,-307.37 443.13,-307.37"/>
</a>
</g>
</g>
<!-- Node4 -->
<g id="Node000004" class="node">
<title>Node4</title>
<g id="a_Node000004"><a xlink:href="../../df/dc2/vec__math_8hpp.html" target="_top" xlink:title="Contains a collection of mathematical operations and utility functions for vector objects.">
<polygon fill="white" stroke="#666666" points="275.12,-240.25 202.12,-240.25 202.12,-221 275.12,-221 275.12,-240.25"/>
<text text-anchor="middle" x="238.62" y="-226.75" font-family="Times,serif" font-size="10.00">vec_math.hpp</text>
</a>
</g>
</g>
<!-- Node3&#45;&gt;Node4 -->
<g id="edge3_Node000003_Node000004" class="edge">
<title>Node3&#45;&gt;Node4</title>
<g id="a_edge3_Node000003_Node000004"><a xlink:title=" ">
<path fill="none" stroke="#63b8ff" d="M414.98,-278.35C382.4,-269.71 324.39,-254.35 283.83,-243.6"/>
<polygon fill="#63b8ff" stroke="#63b8ff" points="284.92,-240.27 274.36,-241.09 283.13,-247.04 284.92,-240.27"/>
</a>
</g>
</g>
<!-- Node29 -->
<g id="Node000029" class="node">
<title>Node29</title>
<g id="a_Node000029"><a xlink:href="../../dd/dad/matnxn_8hpp.html" target="_top" xlink:title="Provides the definition of a generic NxN matrix for mathematical operations.">
<polygon fill="white" stroke="#666666" points="387.62,-240.25 323.62,-240.25 323.62,-221 387.62,-221 387.62,-240.25"/>
<text text-anchor="middle" x="355.62" y="-226.75" font-family="Times,serif" font-size="10.00">matnxn.hpp</text>
</a>
</g>
</g>
<!-- Node3&#45;&gt;Node29 -->
<g id="edge43_Node000003_Node000029" class="edge">
<title>Node3&#45;&gt;Node29</title>
<g id="a_edge43_Node000003_Node000029"><a xlink:title=" ">
<path fill="none" stroke="#63b8ff" d="M420.16,-275.84C406.14,-267.99 387.6,-256.45 373.88,-247.12"/>
<polygon fill="#63b8ff" stroke="#63b8ff" points="375.91,-244.27 365.71,-241.39 371.89,-250 375.91,-244.27"/>
</a>
</g>
</g>
<!-- Node31 -->
<g id="Node000031" class="node">
<title>Node31</title>
<g id="a_Node000031"><a xlink:href="../../db/de9/rmatnxn_8hpp.html" target="_top" xlink:title="Specialized representation of matrices using reference semantics.">
<polygon fill="white" stroke="#666666" points="473.5,-240.25 405.75,-240.25 405.75,-221 473.5,-221 473.5,-240.25"/>
<text text-anchor="middle" x="439.62" y="-226.75" font-family="Times,serif" font-size="10.00">rmatnxn.hpp</text>
</a>
</g>
</g>
<!-- Node3&#45;&gt;Node31 -->
<g id="edge47_Node000003_Node000031" class="edge">
<title>Node3&#45;&gt;Node31</title>
<g id="a_edge47_Node000003_Node000031"><a xlink:title=" ">
<path fill="none" stroke="#63b8ff" d="M434.46,-276.08C433.05,-269.49 432.58,-260.21 433.05,-251.82"/>
<polygon fill="#63b8ff" stroke="#63b8ff" points="436.5,-252.46 434.24,-242.11 429.55,-251.62 436.5,-252.46"/>
</a>
</g>
</g>
<!-- Node33 -->
<g id="Node000033" class="node">
<title>Node33</title>
<g id="a_Node000033"><a xlink:href="../../dc/d4a/mat__math_8hpp.html" target="_top" xlink:title="Defines various matrix mathematical operations.">
<polygon fill="white" stroke="#666666" points="565.88,-240.25 491.38,-240.25 491.38,-221 565.88,-221 565.88,-240.25"/>
<text text-anchor="middle" x="528.62" y="-226.75" font-family="Times,serif" font-size="10.00">mat_math.hpp</text>
</a>
</g>
</g>
<!-- Node3&#45;&gt;Node33 -->
<g id="edge51_Node000003_Node000033" class="edge">
<title>Node3&#45;&gt;Node33</title>
<g id="a_edge51_Node000003_Node000033"><a xlink:title=" ">
<path fill="none" stroke="#63b8ff" d="M449.51,-275.84C461.37,-267.73 481.22,-255.68 498.15,-246.21"/>
<polygon fill="#63b8ff" stroke="#63b8ff" points="499.8,-249.3 506.9,-241.43 496.45,-243.15 499.8,-249.3"/>
</a>
</g>
</g>
<!-- Node5 -->
<g id="Node000005" class="node">
<title>Node5</title>
<g id="a_Node000005"><a xlink:href="../../d7/d7c/vec_8hpp.html" target="_top" xlink:title=" ">
<polygon fill="white" stroke="#666666" points="308.38,-185 260.88,-185 260.88,-165.75 308.38,-165.75 308.38,-185"/>
<text text-anchor="middle" x="284.62" y="-171.5" font-family="Times,serif" font-size="10.00">vec.hpp</text>
</a>
</g>
</g>
<!-- Node4&#45;&gt;Node5 -->
<g id="edge4_Node000004_Node000005" class="edge">
<title>Node4&#45;&gt;Node5</title>
<g id="a_edge4_Node000004_Node000005"><a xlink:title=" ">
<path fill="none" stroke="#63b8ff" d="M246.22,-220.83C252.51,-213.55 261.64,-202.98 269.42,-193.98"/>
<polygon fill="#63b8ff" stroke="#63b8ff" points="271.99,-196.36 275.87,-186.5 266.69,-191.78 271.99,-196.36"/>
</a>
</g>
</g>
<!-- Node28 -->
<g id="Node000028" class="node">
<title>Node28</title>
<g id="a_Node000028"><a xlink:href="../../dc/d15/vec__math_8inl.html" target="_top" xlink:title=" ">
<polygon fill="white" stroke="#666666" points="242.5,-185 174.75,-185 174.75,-165.75 242.5,-165.75 242.5,-185"/>
<text text-anchor="middle" x="208.62" y="-171.5" font-family="Times,serif" font-size="10.00">vec_math.inl</text>
</a>
</g>
</g>
<!-- Node4&#45;&gt;Node28 -->
<g id="edge41_Node000004_Node000028" class="edge">
<title>Node4&#45;&gt;Node28</title>
<g id="a_edge41_Node000004_Node000028"><a xlink:title=" ">
<path fill="none" stroke="#63b8ff" d="M228.5,-220.83C223.2,-214.01 217.28,-204.31 212.99,-195.7"/>
<polygon fill="#63b8ff" stroke="#63b8ff" points="216.29,-194.51 209.09,-186.75 209.88,-197.31 216.29,-194.51"/>
</a>
</g>
</g>
<!-- Node6 -->
<g id="Node000006" class="node">
<title>Node6</title>
<g id="a_Node000006"><a xlink:href="../../d8/d24/math-common_8hpp.html" target="_top" xlink:title=" ">
<polygon fill="white" stroke="#666666" points="298.12,-74.5 207.12,-74.5 207.12,-55.25 298.12,-55.25 298.12,-74.5"/>
<text text-anchor="middle" x="252.62" y="-61" font-family="Times,serif" font-size="10.00">math&#45;common.hpp</text>
</a>
</g>
</g>
<!-- Node5&#45;&gt;Node6 -->
<g id="edge5_Node000005_Node000006" class="edge">
<title>Node5&#45;&gt;Node6</title>
<g id="a_edge5_Node000005_Node000006"><a xlink:title=" ">
<path fill="none" stroke="#63b8ff" d="M282.01,-165.5C276.9,-148.17 265.48,-109.48 258.48,-85.74"/>
<polygon fill="#63b8ff" stroke="#63b8ff" points="261.89,-84.93 255.71,-76.33 255.18,-86.91 261.89,-84.93"/>
</a>
</g>
</g>
<!-- Node14 -->
<g id="Node000014" class="node">
<title>Node14</title>
<g id="a_Node000014"><a xlink:href="../../d4/d44/rvec2_8hpp.html" target="_top" xlink:title="Definitions for the rvec&lt;2, T&gt; specialized template representing 2D vectors with reference&#45;like seman...">
<polygon fill="white" stroke="#666666" points="57.88,-129.75 1.38,-129.75 1.38,-110.5 57.88,-110.5 57.88,-129.75"/>
<text text-anchor="middle" x="29.62" y="-116.25" font-family="Times,serif" font-size="10.00">rvec2.hpp</text>
</a>
</g>
</g>
<!-- Node5&#45;&gt;Node14 -->
<g id="edge13_Node000005_Node000014" class="edge">
<title>Node5&#45;&gt;Node14</title>
<g id="a_edge13_Node000005_Node000014"><a xlink:title=" ">
<path fill="none" stroke="#63b8ff" d="M260.51,-167.9C257.53,-167.15 254.51,-166.42 251.62,-165.75 188.16,-151.09 113.85,-136.71 69.32,-128.39"/>
<polygon fill="#63b8ff" stroke="#63b8ff" points="70.08,-124.98 59.61,-126.59 68.8,-131.86 70.08,-124.98"/>
</a>
</g>
</g>
<!-- Node16 -->
<g id="Node000016" class="node">
<title>Node16</title>
<g id="a_Node000016"><a xlink:href="../../d9/dc3/rvec3_8hpp.html" target="_top" xlink:title="Provides the implementation of a 3D reference vector.">
<polygon fill="white" stroke="#666666" points="142.88,-129.75 86.38,-129.75 86.38,-110.5 142.88,-110.5 142.88,-129.75"/>
<text text-anchor="middle" x="114.62" y="-116.25" font-family="Times,serif" font-size="10.00">rvec3.hpp</text>
</a>
</g>
</g>
<!-- Node5&#45;&gt;Node16 -->
<g id="edge17_Node000005_Node000016" class="edge">
<title>Node5&#45;&gt;Node16</title>
<g id="a_edge17_Node000005_Node000016"><a xlink:title=" ">
<path fill="none" stroke="#63b8ff" d="M260.63,-166.86C232.92,-158.18 186.92,-143.77 153.96,-133.45"/>
<polygon fill="#63b8ff" stroke="#63b8ff" points="155.36,-130.22 144.77,-130.57 153.27,-136.9 155.36,-130.22"/>
</a>
</g>
</g>
<!-- Node18 -->
<g id="Node000018" class="node">
<title>Node18</title>
<g id="a_Node000018"><a xlink:href="../../d2/d88/rvec4_8hpp.html" target="_top" xlink:title="Defines a 4&#45;dimensional reference vector struct.">
<polygon fill="white" stroke="#666666" points="222.88,-129.75 166.38,-129.75 166.38,-110.5 222.88,-110.5 222.88,-129.75"/>
<text text-anchor="middle" x="194.62" y="-116.25" font-family="Times,serif" font-size="10.00">rvec4.hpp</text>
</a>
</g>
</g>
<!-- Node5&#45;&gt;Node18 -->
<g id="edge21_Node000005_Node000018" class="edge">
<title>Node5&#45;&gt;Node18</title>
<g id="a_edge21_Node000005_Node000018"><a xlink:title=" ">
<path fill="none" stroke="#63b8ff" d="M269.36,-165.34C255.78,-157.31 235.67,-145.41 219.73,-135.98"/>
<polygon fill="#63b8ff" stroke="#63b8ff" points="221.66,-133.05 211.27,-130.97 218.09,-139.08 221.66,-133.05"/>
</a>
</g>
</g>
<!-- Node20 -->
<g id="Node000020" class="node">
<title>Node20</title>
<g id="a_Node000020"><a xlink:href="../../dd/d91/vec2_8hpp.html" target="_top" xlink:title="Defines a 2D vector and provides its operations.">
<polygon fill="white" stroke="#666666" points="343,-129.75 290.25,-129.75 290.25,-110.5 343,-110.5 343,-129.75"/>
<text text-anchor="middle" x="316.62" y="-116.25" font-family="Times,serif" font-size="10.00">vec2.hpp</text>
</a>
</g>
</g>
<!-- Node5&#45;&gt;Node20 -->
<g id="edge25_Node000005_Node000020" class="edge">
<title>Node5&#45;&gt;Node20</title>
<g id="a_edge25_Node000005_Node000020"><a xlink:title=" ">
<path fill="none" stroke="#63b8ff" d="M289.91,-165.58C294.1,-158.61 300.1,-148.62 305.36,-139.87"/>
<polygon fill="#63b8ff" stroke="#63b8ff" points="308.3,-141.78 310.45,-131.41 302.3,-138.18 308.3,-141.78"/>
</a>
</g>
</g>
<!-- Node22 -->
<g id="Node000022" class="node">
<title>Node22</title>
<g id="a_Node000022"><a xlink:href="../../d9/dcd/vec3_8hpp.html" target="_top" xlink:title="Header file for the 3D vector definition.">
<polygon fill="white" stroke="#666666" points="418,-129.75 365.25,-129.75 365.25,-110.5 418,-110.5 418,-129.75"/>
<text text-anchor="middle" x="391.62" y="-116.25" font-family="Times,serif" font-size="10.00">vec3.hpp</text>
</a>
</g>
</g>
<!-- Node5&#45;&gt;Node22 -->
<g id="edge29_Node000005_Node000022" class="edge">
<title>Node5&#45;&gt;Node22</title>
<g id="a_edge29_Node000005_Node000022"><a xlink:title=" ">
<path fill="none" stroke="#63b8ff" d="M302.78,-165.34C319.3,-157.12 343.97,-144.84 363.12,-135.31"/>
<polygon fill="#63b8ff" stroke="#63b8ff" points="364.64,-138.47 372.03,-130.88 361.52,-132.2 364.64,-138.47"/>
</a>
</g>
</g>
<!-- Node24 -->
<g id="Node000024" class="node">
<title>Node24</title>
<g id="a_Node000024"><a xlink:href="../../dd/dc5/vec4_8hpp.html" target="_top" xlink:title="Contains the definition of the vec&lt;4, T&gt; structure.">
<polygon fill="white" stroke="#666666" points="491,-129.75 438.25,-129.75 438.25,-110.5 491,-110.5 491,-129.75"/>
<text text-anchor="middle" x="464.62" y="-116.25" font-family="Times,serif" font-size="10.00">vec4.hpp</text>
</a>
</g>
</g>
<!-- Node5&#45;&gt;Node24 -->
<g id="edge33_Node000005_Node000024" class="edge">
<title>Node5&#45;&gt;Node24</title>
<g id="a_edge33_Node000005_Node000024"><a xlink:title=" ">
<path fill="none" stroke="#63b8ff" d="M308.53,-167.3C338.82,-158.34 391.36,-142.8 427.04,-132.24"/>
<polygon fill="#63b8ff" stroke="#63b8ff" points="427.94,-135.63 436.53,-129.44 425.95,-128.92 427.94,-135.63"/>
</a>
</g>
</g>
<!-- Node26 -->
<g id="Node000026" class="node">
<title>Node26</title>
<g id="a_Node000026"><a xlink:href="../../d4/d02/vecn_8hpp.html" target="_top" xlink:title="Contains the definition of the generic vec&lt;L, T&gt; structure.">
<polygon fill="white" stroke="#666666" points="563,-129.75 510.25,-129.75 510.25,-110.5 563,-110.5 563,-129.75"/>
<text text-anchor="middle" x="536.62" y="-116.25" font-family="Times,serif" font-size="10.00">vecn.hpp</text>
</a>
</g>
</g>
<!-- Node5&#45;&gt;Node26 -->
<g id="edge37_Node000005_Node000026" class="edge">
<title>Node5&#45;&gt;Node26</title>
<g id="a_edge37_Node000005_Node000026"><a xlink:title=" ">
<path fill="none" stroke="#63b8ff" d="M308.73,-167.89C311.72,-167.14 314.74,-166.41 317.62,-165.75 394.7,-148.07 417.19,-147.16 499.12,-129.77"/>
<polygon fill="#63b8ff" stroke="#63b8ff" points="499.45,-133.29 508.49,-127.77 497.98,-126.44 499.45,-133.29"/>
</a>
</g>
</g>
<!-- Node7 -->
<g id="Node000007" class="node">
<title>Node7</title>
<g id="a_Node000007"><a xlink:title=" ">
<polygon fill="#e0e0e0" stroke="#999999" points="84.75,-19.25 48.5,-19.25 48.5,0 84.75,0 84.75,-19.25"/>
<text text-anchor="middle" x="66.62" y="-5.75" font-family="Times,serif" font-size="10.00">array</text>
</a>
</g>
</g>
<!-- Node6&#45;&gt;Node7 -->
<g id="edge6_Node000006_Node000007" class="edge">
<title>Node6&#45;&gt;Node7</title>
<g id="a_edge6_Node000006_Node000007"><a xlink:title=" ">
<path fill="none" stroke="#63b8ff" d="M219.57,-54.78C189.75,-46.53 144.42,-33.84 95.74,-19.52"/>
<polygon fill="#63b8ff" stroke="#63b8ff" points="97.01,-16.25 86.43,-16.78 95.03,-22.96 97.01,-16.25"/>
</a>
</g>
</g>
<!-- Node8 -->
<g id="Node000008" class="node">
<title>Node8</title>
<g id="a_Node000008"><a xlink:title=" ">
<polygon fill="#e0e0e0" stroke="#999999" points="150,-19.25 103.25,-19.25 103.25,0 150,0 150,-19.25"/>
<text text-anchor="middle" x="126.62" y="-5.75" font-family="Times,serif" font-size="10.00">assert.h</text>
</a>
</g>
</g>
<!-- Node6&#45;&gt;Node8 -->
<g id="edge7_Node000006_Node000008" class="edge">
<title>Node6&#45;&gt;Node8</title>
<g id="a_edge7_Node000006_Node000008"><a xlink:title=" ">
<path fill="none" stroke="#63b8ff" d="M231.25,-54.84C211.34,-46.43 181.39,-33.77 158.62,-24.15"/>
<polygon fill="#63b8ff" stroke="#63b8ff" points="160.07,-20.96 149.5,-20.29 157.35,-27.41 160.07,-20.96"/>
</a>
</g>
</g>
<!-- Node9 -->
<g id="Node000009" class="node">
<title>Node9</title>
<g id="a_Node000009"><a xlink:title=" ">
<polygon fill="#e0e0e0" stroke="#999999" points="209,-19.25 168.25,-19.25 168.25,0 209,0 209,-19.25"/>
<text text-anchor="middle" x="188.62" y="-5.75" font-family="Times,serif" font-size="10.00">cmath</text>
</a>
</g>
</g>
<!-- Node6&#45;&gt;Node9 -->
<g id="edge8_Node000006_Node000009" class="edge">
<title>Node6&#45;&gt;Node9</title>
<g id="a_edge8_Node000006_Node000009"><a xlink:title=" ">
<path fill="none" stroke="#63b8ff" d="M241.77,-54.84C232.52,-47.15 219,-35.9 207.92,-26.68"/>
<polygon fill="#63b8ff" stroke="#63b8ff" points="210.41,-24.2 200.48,-20.49 205.93,-29.58 210.41,-24.2"/>
</a>
</g>
</g>
<!-- Node10 -->
<g id="Node000010" class="node">
<title>Node10</title>
<g id="a_Node000010"><a xlink:title=" ">
<polygon fill="#e0e0e0" stroke="#999999" points="277.88,-19.25 227.38,-19.25 227.38,0 277.88,0 277.88,-19.25"/>
<text text-anchor="middle" x="252.62" y="-5.75" font-family="Times,serif" font-size="10.00">concepts</text>
</a>
</g>
</g>
<!-- Node6&#45;&gt;Node10 -->
<g id="edge9_Node000006_Node000010" class="edge">
<title>Node6&#45;&gt;Node10</title>
<g id="a_edge9_Node000006_Node000010"><a xlink:title=" ">
<path fill="none" stroke="#63b8ff" d="M252.62,-55.08C252.62,-48.57 252.62,-39.42 252.62,-31.12"/>
<polygon fill="#63b8ff" stroke="#63b8ff" points="256.13,-31.12 252.63,-21.12 249.13,-31.12 256.13,-31.12"/>
</a>
</g>
</g>
<!-- Node11 -->
<g id="Node000011" class="node">
<title>Node11</title>
<g id="a_Node000011"><a xlink:title=" ">
<polygon fill="#e0e0e0" stroke="#999999" points="346.88,-19.25 296.38,-19.25 296.38,0 346.88,0 346.88,-19.25"/>
<text text-anchor="middle" x="321.62" y="-5.75" font-family="Times,serif" font-size="10.00">numbers</text>
</a>
</g>
</g>
<!-- Node6&#45;&gt;Node11 -->
<g id="edge10_Node000006_Node000011" class="edge">
<title>Node6&#45;&gt;Node11</title>
<g id="a_edge10_Node000006_Node000011"><a xlink:title=" ">
<path fill="none" stroke="#63b8ff" d="M264.33,-54.84C274.4,-47.07 289.17,-35.67 301.19,-26.4"/>
<polygon fill="#63b8ff" stroke="#63b8ff" points="303.12,-29.33 308.89,-20.45 298.84,-23.79 303.12,-29.33"/>
</a>
</g>
</g>
<!-- Node12 -->
<g id="Node000012" class="node">
<title>Node12</title>
<g id="a_Node000012"><a xlink:title=" ">
<polygon fill="#e0e0e0" stroke="#999999" points="412.38,-19.25 364.88,-19.25 364.88,0 412.38,0 412.38,-19.25"/>
<text text-anchor="middle" x="388.62" y="-5.75" font-family="Times,serif" font-size="10.00">ostream</text>
</a>
</g>
</g>
<!-- Node6&#45;&gt;Node12 -->
<g id="edge11_Node000006_Node000012" class="edge">
<title>Node6&#45;&gt;Node12</title>
<g id="a_edge11_Node000006_Node000012"><a xlink:title=" ">
<path fill="none" stroke="#63b8ff" d="M275.7,-54.84C297.38,-46.35 330.11,-33.54 354.75,-23.89"/>
<polygon fill="#63b8ff" stroke="#63b8ff" points="356,-27.16 364.03,-20.25 353.44,-20.64 356,-27.16"/>
</a>
</g>
</g>
<!-- Node13 -->
<g id="Node000013" class="node">
<title>Node13</title>
<g id="a_Node000013"><a xlink:title=" ">
<polygon fill="#e0e0e0" stroke="#999999" points="489,-19.25 430.25,-19.25 430.25,0 489,0 489,-19.25"/>
<text text-anchor="middle" x="459.62" y="-5.75" font-family="Times,serif" font-size="10.00">type_traits</text>
</a>
</g>
</g>
<!-- Node6&#45;&gt;Node13 -->
<g id="edge12_Node000006_Node000013" class="edge">
<title>Node6&#45;&gt;Node13</title>
<g id="a_edge12_Node000006_Node000013"><a xlink:title=" ">
<path fill="none" stroke="#63b8ff" d="M287.74,-54.84C324.17,-45.47 381.06,-30.84 419.3,-21"/>
<polygon fill="#63b8ff" stroke="#63b8ff" points="419.77,-24.49 428.58,-18.61 418.03,-17.71 419.77,-24.49"/>
</a>
</g>
</g>
<!-- Node14&#45;&gt;Node6 -->
<g id="edge14_Node000014_Node000006" class="edge">
<title>Node14&#45;&gt;Node6</title>
<g id="a_edge14_Node000014_Node000006"><a xlink:title=" ">
<path fill="none" stroke="#63b8ff" d="M58.32,-112.27C95.01,-103.51 159.09,-88.21 203.58,-77.59"/>
<polygon fill="#63b8ff" stroke="#63b8ff" points="204.34,-81 213.25,-75.28 202.71,-74.2 204.34,-81"/>
</a>
</g>
</g>
<!-- Node15 -->
<g id="Node000015" class="node">
<title>Node15</title>
<g id="a_Node000015"><a xlink:href="../../dd/d72/rvec2_8inl.html" target="_top" xlink:title=" ">
<polygon fill="white" stroke="#666666" points="51.25,-74.5 0,-74.5 0,-55.25 51.25,-55.25 51.25,-74.5"/>
<text text-anchor="middle" x="25.62" y="-61" font-family="Times,serif" font-size="10.00">rvec2.inl</text>
</a>
</g>
</g>
<!-- Node14&#45;&gt;Node15 -->
<g id="edge15_Node000014_Node000015" class="edge">
<title>Node14&#45;&gt;Node15</title>
<g id="a_edge15_Node000014_Node000015"><a xlink:title=" ">
<path fill="none" stroke="#63b8ff" d="M23.8,-110.33C21.89,-103.74 20.73,-94.46 20.57,-86.07"/>
<polygon fill="#63b8ff" stroke="#63b8ff" points="24.05,-86.52 21.02,-76.37 17.06,-86.2 24.05,-86.52"/>
</a>
</g>
</g>
<!-- Node15&#45;&gt;Node14 -->
<g id="edge16_Node000015_Node000014" class="edge">
<title>Node15&#45;&gt;Node14</title>
<g id="a_edge16_Node000015_Node000014"><a xlink:title=" ">
<path fill="none" stroke="#63b8ff" d="M31.51,-74.86C33.37,-81.42 34.52,-90.59 34.68,-98.88"/>
<polygon fill="#63b8ff" stroke="#63b8ff" points="31.19,-98.66 34.2,-108.82 38.18,-99 31.19,-98.66"/>
</a>
</g>
</g>
<!-- Node16&#45;&gt;Node6 -->
<g id="edge18_Node000016_Node000006" class="edge">
<title>Node16&#45;&gt;Node6</title>
<g id="a_edge18_Node000016_Node000006"><a xlink:title=" ">
<path fill="none" stroke="#63b8ff" d="M138.03,-110.09C160.14,-101.56 193.54,-88.67 218.59,-79.01"/>
<polygon fill="#63b8ff" stroke="#63b8ff" points="219.62,-82.36 227.69,-75.5 217.1,-75.83 219.62,-82.36"/>
</a>
</g>
</g>
<!-- Node17 -->
<g id="Node000017" class="node">
<title>Node17</title>
<g id="a_Node000017"><a xlink:href="../../d7/d70/rvec3_8inl.html" target="_top" xlink:title=" ">
<polygon fill="white" stroke="#666666" points="120.25,-74.5 69,-74.5 69,-55.25 120.25,-55.25 120.25,-74.5"/>
<text text-anchor="middle" x="94.62" y="-61" font-family="Times,serif" font-size="10.00">rvec3.inl</text>
</a>
</g>
</g>
<!-- Node16&#45;&gt;Node17 -->
<g id="edge19_Node000016_Node000017" class="edge">
<title>Node16&#45;&gt;Node17</title>
<g id="a_edge19_Node000016_Node000017"><a xlink:title=" ">
<path fill="none" stroke="#63b8ff" d="M106.16,-110.33C102.23,-103.67 98.22,-94.24 95.55,-85.78"/>
<polygon fill="#63b8ff" stroke="#63b8ff" points="99,-85.17 93.16,-76.33 92.21,-86.88 99,-85.17"/>
</a>
</g>
</g>
<!-- Node17&#45;&gt;Node16 -->
<g id="edge20_Node000017_Node000016" class="edge">
<title>Node17&#45;&gt;Node16</title>
<g id="a_edge20_Node000017_Node000016"><a xlink:title=" ">
<path fill="none" stroke="#63b8ff" d="M103.21,-74.86C107.09,-81.5 111.04,-90.8 113.69,-99.17"/>
<polygon fill="#63b8ff" stroke="#63b8ff" points="110.29,-100.02 116.12,-108.86 117.08,-98.31 110.29,-100.02"/>
</a>
</g>
</g>
<!-- Node18&#45;&gt;Node6 -->
<g id="edge22_Node000018_Node000006" class="edge">
<title>Node18&#45;&gt;Node6</title>
<g id="a_edge22_Node000018_Node000006"><a xlink:title=" ">
<path fill="none" stroke="#63b8ff" d="M204.46,-110.09C212.68,-102.55 224.61,-91.6 234.54,-82.48"/>
<polygon fill="#63b8ff" stroke="#63b8ff" points="236.82,-85.14 241.82,-75.8 232.08,-79.98 236.82,-85.14"/>
</a>
</g>
</g>
<!-- Node19 -->
<g id="Node000019" class="node">
<title>Node19</title>
<g id="a_Node000019"><a xlink:href="../../d1/d9f/rvec4_8inl.html" target="_top" xlink:title=" ">
<polygon fill="white" stroke="#666666" points="189.25,-74.5 138,-74.5 138,-55.25 189.25,-55.25 189.25,-74.5"/>
<text text-anchor="middle" x="163.62" y="-61" font-family="Times,serif" font-size="10.00">rvec4.inl</text>
</a>
</g>
</g>
<!-- Node18&#45;&gt;Node19 -->
<g id="edge23_Node000018_Node000019" class="edge">
<title>Node18&#45;&gt;Node19</title>
<g id="a_edge23_Node000018_Node000019"><a xlink:title=" ">
<path fill="none" stroke="#63b8ff" d="M184.34,-110.33C178.91,-103.51 172.81,-93.81 168.36,-85.2"/>
<polygon fill="#63b8ff" stroke="#63b8ff" points="171.6,-83.89 164.28,-76.24 165.23,-86.79 171.6,-83.89"/>
</a>
</g>
</g>
<!-- Node19&#45;&gt;Node18 -->
<g id="edge24_Node000019_Node000018" class="edge">
<title>Node19&#45;&gt;Node18</title>
<g id="a_edge24_Node000019_Node000018"><a xlink:title=" ">
<path fill="none" stroke="#63b8ff" d="M174.06,-74.86C179.5,-81.73 185.6,-91.46 190.02,-100.04"/>
<polygon fill="#63b8ff" stroke="#63b8ff" points="186.74,-101.28 194.05,-108.95 193.12,-98.4 186.74,-101.28"/>
</a>
</g>
</g>
<!-- Node20&#45;&gt;Node6 -->
<g id="edge26_Node000020_Node000006" class="edge">
<title>Node20&#45;&gt;Node6</title>
<g id="a_edge26_Node000020_Node000006"><a xlink:title=" ">
<path fill="none" stroke="#63b8ff" d="M305.77,-110.09C296.52,-102.4 283,-91.15 271.92,-81.93"/>
<polygon fill="#63b8ff" stroke="#63b8ff" points="274.41,-79.45 264.48,-75.74 269.93,-84.83 274.41,-79.45"/>
</a>
</g>
</g>
<!-- Node21 -->
<g id="Node000021" class="node">
<title>Node21</title>
<g id="a_Node000021"><a xlink:href="../../d2/d56/vec2_8inl.html" target="_top" xlink:title=" ">
<polygon fill="white" stroke="#666666" points="363.38,-74.5 315.88,-74.5 315.88,-55.25 363.38,-55.25 363.38,-74.5"/>
<text text-anchor="middle" x="339.62" y="-61" font-family="Times,serif" font-size="10.00">vec2.inl</text>
</a>
</g>
</g>
<!-- Node20&#45;&gt;Node21 -->
<g id="edge27_Node000020_Node000021" class="edge">
<title>Node20&#45;&gt;Node21</title>
<g id="a_edge27_Node000020_Node000021"><a xlink:title=" ">
<path fill="none" stroke="#63b8ff" d="M315.26,-110.33C316.78,-103.36 320.65,-93.37 325.05,-84.62"/>
<polygon fill="#63b8ff" stroke="#63b8ff" points="327.94,-86.61 329.8,-76.18 321.84,-83.18 327.94,-86.61"/>
</a>
</g>
</g>
<!-- Node21&#45;&gt;Node20 -->
<g id="edge28_Node000021_Node000020" class="edge">
<title>Node21&#45;&gt;Node20</title>
<g id="a_edge28_Node000021_Node000020"><a xlink:title=" ">
<path fill="none" stroke="#63b8ff" d="M340.95,-74.86C339.41,-81.81 335.57,-91.67 331.23,-100.33"/>
<polygon fill="#63b8ff" stroke="#63b8ff" points="328.19,-98.58 326.33,-109.01 334.29,-102.02 328.19,-98.58"/>
</a>
</g>
</g>
<!-- Node22&#45;&gt;Node6 -->
<g id="edge30_Node000022_Node000006" class="edge">
<title>Node22&#45;&gt;Node6</title>
<g id="a_edge30_Node000022_Node000006"><a xlink:title=" ">
<path fill="none" stroke="#63b8ff" d="M368.05,-110.09C345.78,-101.56 312.13,-88.67 286.9,-79.01"/>
<polygon fill="#63b8ff" stroke="#63b8ff" points="288.32,-75.8 277.73,-75.49 285.82,-82.34 288.32,-75.8"/>
</a>
</g>
</g>
<!-- Node23 -->
<g id="Node000023" class="node">
<title>Node23</title>
<g id="a_Node000023"><a xlink:href="../../d3/dc9/vec3_8inl.html" target="_top" xlink:title=" ">
<polygon fill="white" stroke="#666666" points="429.38,-74.5 381.88,-74.5 381.88,-55.25 429.38,-55.25 429.38,-74.5"/>
<text text-anchor="middle" x="405.62" y="-61" font-family="Times,serif" font-size="10.00">vec3.inl</text>
</a>
</g>
</g>
<!-- Node22&#45;&gt;Node23 -->
<g id="edge31_Node000022_Node000023" class="edge">
<title>Node22&#45;&gt;Node23</title>
<g id="a_edge31_Node000022_Node000023"><a xlink:title=" ">
<path fill="none" stroke="#63b8ff" d="M388.77,-110.33C389.1,-103.59 391.16,-94.02 393.93,-85.49"/>
<polygon fill="#63b8ff" stroke="#63b8ff" points="397.15,-86.86 397.51,-76.27 390.63,-84.33 397.15,-86.86"/>
</a>
</g>
</g>
<!-- Node23&#45;&gt;Node22 -->
<g id="edge32_Node000023_Node000022" class="edge">
<title>Node23&#45;&gt;Node22</title>
<g id="a_edge32_Node000023_Node000022"><a xlink:title=" ">
<path fill="none" stroke="#63b8ff" d="M408.47,-74.86C408.11,-81.65 406.03,-91.24 403.24,-99.75"/>
<polygon fill="#63b8ff" stroke="#63b8ff" points="400.04,-98.33 399.65,-108.92 406.56,-100.88 400.04,-98.33"/>
</a>
</g>
</g>
<!-- Node24&#45;&gt;Node6 -->
<g id="edge34_Node000024_Node000006" class="edge">
<title>Node24&#45;&gt;Node6</title>
<g id="a_edge34_Node000024_Node000006"><a xlink:title=" ">
<path fill="none" stroke="#63b8ff" d="M437.78,-112.38C403.1,-103.67 342.18,-88.37 299.73,-77.71"/>
<polygon fill="#63b8ff" stroke="#63b8ff" points="300.84,-74.38 290.29,-75.33 299.13,-81.17 300.84,-74.38"/>
</a>
</g>
</g>
<!-- Node25 -->
<g id="Node000025" class="node">
<title>Node25</title>
<g id="a_Node000025"><a xlink:href="../../da/d28/vec4_8inl.html" target="_top" xlink:title=" ">
<polygon fill="white" stroke="#666666" points="495.38,-74.5 447.88,-74.5 447.88,-55.25 495.38,-55.25 495.38,-74.5"/>
<text text-anchor="middle" x="471.62" y="-61" font-family="Times,serif" font-size="10.00">vec4.inl</text>
</a>
</g>
</g>
<!-- Node24&#45;&gt;Node25 -->
<g id="edge35_Node000024_Node000025" class="edge">
<title>Node24&#45;&gt;Node25</title>
<g id="a_edge35_Node000024_Node000025"><a xlink:title=" ">
<path fill="none" stroke="#63b8ff" d="M460.61,-110.33C460.06,-103.67 460.84,-94.24 462.45,-85.78"/>
<polygon fill="#63b8ff" stroke="#63b8ff" points="465.78,-86.88 464.86,-76.33 459,-85.15 465.78,-86.88"/>
</a>
</g>
</g>
<!-- Node25&#45;&gt;Node24 -->
<g id="edge36_Node000025_Node000024" class="edge">
<title>Node25&#45;&gt;Node24</title>
<g id="a_edge36_Node000025_Node000024"><a xlink:title=" ">
<path fill="none" stroke="#63b8ff" d="M475.65,-74.86C476.18,-81.58 475.38,-91.02 473.75,-99.46"/>
<polygon fill="#63b8ff" stroke="#63b8ff" points="470.43,-98.31 471.33,-108.87 477.21,-100.06 470.43,-98.31"/>
</a>
</g>
</g>
<!-- Node26&#45;&gt;Node6 -->
<g id="edge38_Node000026_Node000006" class="edge">
<title>Node26&#45;&gt;Node6</title>
<g id="a_edge38_Node000026_Node000006"><a xlink:title=" ">
<path fill="none" stroke="#63b8ff" d="M509.98,-112.75C506.5,-111.96 502.98,-111.19 499.62,-110.5 434.7,-97.08 359.7,-83.85 309.54,-75.32"/>
<polygon fill="#63b8ff" stroke="#63b8ff" points="310.22,-71.89 299.77,-73.67 309.05,-78.79 310.22,-71.89"/>
</a>
</g>
</g>
<!-- Node27 -->
<g id="Node000027" class="node">
<title>Node27</title>
<g id="a_Node000027"><a xlink:href="../../d6/d8c/vecn_8inl.html" target="_top" xlink:title=" ">
<polygon fill="white" stroke="#666666" points="561.38,-74.5 513.88,-74.5 513.88,-55.25 561.38,-55.25 561.38,-74.5"/>
<text text-anchor="middle" x="537.62" y="-61" font-family="Times,serif" font-size="10.00">vecn.inl</text>
</a>
</g>
</g>
<!-- Node26&#45;&gt;Node27 -->
<g id="edge39_Node000026_Node000027" class="edge">
<title>Node26&#45;&gt;Node27</title>
<g id="a_edge39_Node000026_Node000027"><a xlink:title=" ">
<path fill="none" stroke="#63b8ff" d="M531.62,-110.33C530.34,-103.74 530.04,-94.46 530.67,-86.07"/>
<polygon fill="#63b8ff" stroke="#63b8ff" points="534.11,-86.75 532.04,-76.36 527.18,-85.77 534.11,-86.75"/>
</a>
</g>
</g>
<!-- Node27&#45;&gt;Node26 -->
<g id="edge40_Node000027_Node000026" class="edge">
<title>Node27&#45;&gt;Node26</title>
<g id="a_edge40_Node000027_Node000026"><a xlink:title=" ">
<path fill="none" stroke="#63b8ff" d="M542.66,-74.86C543.93,-81.5 544.21,-90.8 543.56,-99.17"/>
<polygon fill="#63b8ff" stroke="#63b8ff" points="540.13,-98.44 542.17,-108.83 547.06,-99.43 540.13,-98.44"/>
</a>
</g>
</g>
<!-- Node28&#45;&gt;Node4 -->
<g id="edge42_Node000028_Node000004" class="edge">
<title>Node28&#45;&gt;Node4</title>
<g id="a_edge42_Node000028_Node000004"><a xlink:title=" ">
<path fill="none" stroke="#63b8ff" d="M218.89,-185.36C224.21,-192.23 230.12,-201.96 234.38,-210.54"/>
<polygon fill="#63b8ff" stroke="#63b8ff" points="231.05,-211.66 238.24,-219.44 237.47,-208.88 231.05,-211.66"/>
</a>
</g>
</g>
<!-- Node29&#45;&gt;Node3 -->
<g id="edge44_Node000029_Node000003" class="edge">
<title>Node29&#45;&gt;Node3</title>
<g id="a_edge44_Node000029_Node000003"><a xlink:title=" ">
<path fill="none" stroke="#63b8ff" d="M375.17,-240.7C389.12,-248.52 407.52,-259.97 421.2,-269.26"/>
<polygon fill="#63b8ff" stroke="#63b8ff" points="419.16,-272.1 429.35,-274.97 423.17,-266.37 419.16,-272.1"/>
</a>
</g>
</g>
<!-- Node30 -->
<g id="Node000030" class="node">
<title>Node30</title>
<g id="a_Node000030"><a xlink:href="../../d3/df6/matnxn_8inl.html" target="_top" xlink:title=" ">
<polygon fill="white" stroke="#666666" points="385,-185 326.25,-185 326.25,-165.75 385,-165.75 385,-185"/>
<text text-anchor="middle" x="355.62" y="-171.5" font-family="Times,serif" font-size="10.00">matnxn.inl</text>
</a>
</g>
</g>
<!-- Node29&#45;&gt;Node30 -->
<g id="edge45_Node000029_Node000030" class="edge">
<title>Node29&#45;&gt;Node30</title>
<g id="a_edge45_Node000029_Node000030"><a xlink:title=" ">
<path fill="none" stroke="#63b8ff" d="M350.46,-220.83C349.05,-214.24 348.58,-204.96 349.05,-196.57"/>
<polygon fill="#63b8ff" stroke="#63b8ff" points="352.5,-197.21 350.24,-186.86 345.55,-196.37 352.5,-197.21"/>
</a>
</g>
</g>
<!-- Node30&#45;&gt;Node29 -->
<g id="edge46_Node000030_Node000029" class="edge">
<title>Node30&#45;&gt;Node29</title>
<g id="a_edge46_Node000030_Node000029"><a xlink:title=" ">
<path fill="none" stroke="#63b8ff" d="M360.83,-185.36C362.22,-192 362.67,-201.3 362.18,-209.67"/>
<polygon fill="#63b8ff" stroke="#63b8ff" points="358.74,-208.97 360.98,-219.33 365.69,-209.84 358.74,-208.97"/>
</a>
</g>
</g>
<!-- Node31&#45;&gt;Node3 -->
<g id="edge48_Node000031_Node000003" class="edge">
<title>Node31&#45;&gt;Node3</title>
<g id="a_edge48_Node000031_Node000003"><a xlink:title=" ">
<path fill="none" stroke="#63b8ff" d="M444.83,-240.61C446.22,-247.25 446.67,-256.55 446.18,-264.92"/>
<polygon fill="#63b8ff" stroke="#63b8ff" points="442.74,-264.22 444.98,-274.58 449.69,-265.09 442.74,-264.22"/>
</a>
</g>
</g>
<!-- Node32 -->
<g id="Node000032" class="node">
<title>Node32</title>
<g id="a_Node000032"><a xlink:href="../../df/da5/rmatnxn_8inl.html" target="_top" xlink:title=" ">
<polygon fill="white" stroke="#666666" points="470.88,-185 408.38,-185 408.38,-165.75 470.88,-165.75 470.88,-185"/>
<text text-anchor="middle" x="439.62" y="-171.5" font-family="Times,serif" font-size="10.00">rmatnxn.inl</text>
</a>
</g>
</g>
<!-- Node31&#45;&gt;Node32 -->
<g id="edge49_Node000031_Node000032" class="edge">
<title>Node31&#45;&gt;Node32</title>
<g id="a_edge49_Node000031_Node000032"><a xlink:title=" ">
<path fill="none" stroke="#63b8ff" d="M434.46,-220.83C433.05,-214.24 432.58,-204.96 433.05,-196.57"/>
<polygon fill="#63b8ff" stroke="#63b8ff" points="436.5,-197.21 434.24,-186.86 429.55,-196.37 436.5,-197.21"/>
</a>
</g>
</g>
<!-- Node32&#45;&gt;Node31 -->
<g id="edge50_Node000032_Node000031" class="edge">
<title>Node32&#45;&gt;Node31</title>
<g id="a_edge50_Node000032_Node000031"><a xlink:title=" ">
<path fill="none" stroke="#63b8ff" d="M444.83,-185.36C446.22,-192 446.67,-201.3 446.18,-209.67"/>
<polygon fill="#63b8ff" stroke="#63b8ff" points="442.74,-208.97 444.98,-219.33 449.69,-209.84 442.74,-208.97"/>
</a>
</g>
</g>
<!-- Node33&#45;&gt;Node3 -->
<g id="edge52_Node000033_Node000003" class="edge">
<title>Node33&#45;&gt;Node3</title>
<g id="a_edge52_Node000033_Node000003"><a xlink:title=" ">
<path fill="none" stroke="#63b8ff" d="M518.68,-240.7C506.79,-248.83 486.93,-260.88 470,-270.34"/>
<polygon fill="#63b8ff" stroke="#63b8ff" points="468.36,-267.25 461.27,-275.12 471.72,-273.39 468.36,-267.25"/>
</a>
</g>
</g>
<!-- Node34 -->
<g id="Node000034" class="node">
<title>Node34</title>
<g id="a_Node000034"><a xlink:href="../../d7/dab/mat__math_8inl.html" target="_top" xlink:title=" ">
<polygon fill="white" stroke="#666666" points="563.25,-185 494,-185 494,-165.75 563.25,-165.75 563.25,-185"/>
<text text-anchor="middle" x="528.62" y="-171.5" font-family="Times,serif" font-size="10.00">mat_math.inl</text>
</a>
</g>
</g>
<!-- Node33&#45;&gt;Node34 -->
<g id="edge53_Node000033_Node000034" class="edge">
<title>Node33&#45;&gt;Node34</title>
<g id="a_edge53_Node000033_Node000034"><a xlink:title=" ">
<path fill="none" stroke="#63b8ff" d="M523.46,-220.83C522.05,-214.24 521.58,-204.96 522.05,-196.57"/>
<polygon fill="#63b8ff" stroke="#63b8ff" points="525.5,-197.21 523.24,-186.86 518.55,-196.37 525.5,-197.21"/>
</a>
</g>
</g>
<!-- Node34&#45;&gt;Node33 -->
<g id="edge54_Node000034_Node000033" class="edge">
<title>Node34&#45;&gt;Node33</title>
<g id="a_edge54_Node000034_Node000033"><a xlink:title=" ">
<path fill="none" stroke="#63b8ff" d="M533.83,-185.36C535.22,-192 535.67,-201.3 535.18,-209.67"/>
<polygon fill="#63b8ff" stroke="#63b8ff" points="531.74,-208.97 533.98,-219.33 538.69,-209.84 531.74,-208.97"/>
</a>
</g>
</g>
</g>
</svg>

<g id="navigator" transform="translate(0 0)" fill="#404254">
  <rect fill="#f2f5e9" fill-opacity="0.5" stroke="#606060" stroke-width=".5" x="0" y="0" width="60" height="60"/>
  <use id="zoomplus" xlink:href="#zoomPlus" x="17" y="9" onmousedown="handleZoom(evt,'in')"/>
  <use id="zoomminus" xlink:href="#zoomMin" x="42" y="9" onmousedown="handleZoom(evt,'out')"/>
  <use id="reset" xlink:href="#resetDef" x="30" y="36" onmousedown="handleReset()"/>
   <use id="arrowup" xlink:href="#arrowUp" x="0" y="0" onmousedown="handlePan(0,-1)"/>
  <use id="arrowright" xlink:href="#arrowRight" x="0" y="0" onmousedown="handlePan(1,0)"/>
  <use id="arrowdown" xlink:href="#arrowDown" x="0" y="0" onmousedown="handlePan(0,1)"/>
  <use id="arrowleft" xlink:href="#arrowLeft" x="0" y="0" onmousedown="handlePan(-1,0)"/>
</g>
<svg viewBox="0 0 15 15" width="100%" height="30px" preserveAspectRatio="xMaxYMin meet">
 <g id="arrow_out" transform="scale(0.3 0.3)">
  <a xlink:href="quaternion_8inl__incl_org.svg" target="_base">
   <rect id="button" ry="5" rx="5" y="6" x="6" height="38" width="38"
        fill="#f2f5e9" fill-opacity="0.5" stroke="#606060" stroke-width="1.0"/>
   <path id="arrow"
     d="M 11.500037,31.436501 C 11.940474,20.09759 22.043105,11.32322 32.158766,21.979434 L 37.068811,17.246167 C 37.068811,17.246167 37.088388,32 37.088388,32 L 22.160133,31.978069 C 22.160133,31.978069 26.997745,27.140456 26.997745,27.140456 C 18.528582,18.264221 13.291696,25.230495 11.500037,31.436501 z"
     style="fill:#404040;"/>
  </a>
 </g>
</svg>

<style type='text/css'>
<![CDATA[
[data-mouse-over-selected='false'] { opacity: 0.7; }
[data-mouse-over-selected='true']  { opacity: 1.0; }
]]>
</style>
<script type="application/ecmascript"><![CDATA[
document.addEventListener('DOMContentLoaded', (event) => {
  highlightEdges();
  highlightAdjacentNodes();
});
]]></script>
</svg>
