<?xml version="1.0" encoding="UTF-8" standalone="no"?>
<!DOCTYPE svg PUBLIC "-//W3C//DTD SVG 1.1//EN"
 "http://www.w3.org/Graphics/SVG/1.1/DTD/svg11.dtd">
<!-- Generated by graphviz version 9.0.0 (20230911.1827)
 -->
<!-- Title: mal_math::TBox::Intersect Pages: 1 -->
<svg width="267pt" height="113pt"
 viewBox="0.00 0.00 267.25 112.88" xmlns="http://www.w3.org/2000/svg" xmlns:xlink="http://www.w3.org/1999/xlink">
<g id="graph0" class="graph" transform="scale(1 1) rotate(0) translate(4 108.88)">
<title>mal_math::TBox::Intersect</title>
<!-- Node1 -->
<g id="Node000001" class="node">
<title>Node1</title>
<g id="a_Node000001"><a xlink:title="Checks if a ray intersects with the box and updates the nearest intersection distance.">
<polygon fill="#999999" stroke="#666666" points="120.25,-56.25 0,-56.25 0,-37 120.25,-37 120.25,-56.25"/>
<text text-anchor="middle" x="60.12" y="-42.75" font-family="Times,serif" font-size="10.00">mal_math::TBox::Intersect</text>
</a>
</g>
</g>
<!-- Node2 -->
<g id="Node000002" class="node">
<title>Node2</title>
<g id="a_Node000002"><a xlink:href="../../dd/d4b/classmal__math_1_1_ray.html#aca65886193e6c139c058c1ed5688c9e2" target="_top" xlink:title="Retrieves the inverse of the ray&#39;s direction.">
<polygon fill="white" stroke="#666666" points="253.62,-104.88 161.88,-104.88 161.88,-74.38 253.62,-74.38 253.62,-104.88"/>
<text text-anchor="start" x="169.88" y="-91.38" font-family="Times,serif" font-size="10.00">mal_math::Ray::inv</text>
<text text-anchor="middle" x="207.75" y="-80.12" font-family="Times,serif" font-size="10.00">_direction</text>
</a>
</g>
</g>
<!-- Node1&#45;&gt;Node2 -->
<g id="edge1_Node000001_Node000002" class="edge">
<title>Node1&#45;&gt;Node2</title>
<g id="a_edge1_Node000001_Node000002"><a xlink:title=" ">
<path fill="none" stroke="#63b8ff" d="M95.27,-56.71C111.78,-61.58 132.04,-67.56 150.73,-73.08"/>
<polygon fill="#63b8ff" stroke="#63b8ff" points="149.48,-76.36 160.06,-75.84 151.46,-69.65 149.48,-76.36"/>
</a>
</g>
</g>
<!-- Node3 -->
<g id="Node000003" class="node">
<title>Node3</title>
<g id="a_Node000003"><a xlink:href="../../dd/d4b/classmal__math_1_1_ray.html#a9163e63dd91bd52a51aa8a60d0ffe94a" target="_top" xlink:title="Retrieves the ray&#39;s origin (const version).">
<polygon fill="white" stroke="#666666" points="259.25,-56.25 156.25,-56.25 156.25,-37 259.25,-37 259.25,-56.25"/>
<text text-anchor="middle" x="207.75" y="-42.75" font-family="Times,serif" font-size="10.00">mal_math::Ray::origin</text>
</a>
</g>
</g>
<!-- Node1&#45;&gt;Node3 -->
<g id="edge2_Node000001_Node000003" class="edge">
<title>Node1&#45;&gt;Node3</title>
<g id="a_edge2_Node000001_Node000003"><a xlink:title=" ">
<path fill="none" stroke="#63b8ff" d="M120.36,-46.62C128.38,-46.62 136.64,-46.62 144.72,-46.62"/>
<polygon fill="#63b8ff" stroke="#63b8ff" points="144.46,-50.13 154.46,-46.63 144.46,-43.13 144.46,-50.13"/>
</a>
</g>
</g>
<!-- Node4 -->
<g id="Node000004" class="node">
<title>Node4</title>
<g id="a_Node000004"><a xlink:href="../../dd/d4b/classmal__math_1_1_ray.html#a224f1e4e8f6196951c3079957e8b940c" target="_top" xlink:title="Retrieves the sign of the inverse direction for each axis.">
<polygon fill="white" stroke="#666666" points="255.5,-19.25 160,-19.25 160,0 255.5,0 255.5,-19.25"/>
<text text-anchor="middle" x="207.75" y="-5.75" font-family="Times,serif" font-size="10.00">mal_math::Ray::sign</text>
</a>
</g>
</g>
<!-- Node1&#45;&gt;Node4 -->
<g id="edge3_Node000001_Node000004" class="edge">
<title>Node1&#45;&gt;Node4</title>
<g id="a_edge3_Node000001_Node000004"><a xlink:title=" ">
<path fill="none" stroke="#63b8ff" d="M100.92,-36.51C117.93,-32.19 138,-27.09 156.06,-22.5"/>
<polygon fill="#63b8ff" stroke="#63b8ff" points="156.71,-25.95 165.54,-20.1 154.98,-19.17 156.71,-25.95"/>
</a>
</g>
</g>
</g>
</svg>
