<?xml version="1.0" encoding="UTF-8" standalone="no"?>
<!DOCTYPE svg PUBLIC "-//W3C//DTD SVG 1.1//EN"
 "http://www.w3.org/Graphics/SVG/1.1/DTD/svg11.dtd">
<!-- Generated by graphviz version 9.0.0 (20230911.1827)
 -->
<!-- Title: mal_math::TBox::radius Pages: 1 -->
<svg width="367pt" height="82pt"
 viewBox="0.00 0.00 367.25 82.25" xmlns="http://www.w3.org/2000/svg" xmlns:xlink="http://www.w3.org/1999/xlink">
<g id="graph0" class="graph" transform="scale(1 1) rotate(0) translate(4 78.25)">
<title>mal_math::TBox::radius</title>
<!-- Node1 -->
<g id="Node000001" class="node">
<title>Node1</title>
<g id="a_Node000001"><a xlink:title="Returns the radius of a sphere that tightly encloses the box.">
<polygon fill="#999999" stroke="#666666" points="110.5,-37.25 0,-37.25 0,-18 110.5,-18 110.5,-37.25"/>
<text text-anchor="middle" x="55.25" y="-23.75" font-family="Times,serif" font-size="10.00">mal_math::TBox::radius</text>
</a>
</g>
</g>
<!-- Node2 -->
<g id="Node000002" class="node">
<title>Node2</title>
<g id="a_Node000002"><a xlink:href="../../d1/d1d/namespacemal__math.html#a39c5199d92cd6fd327cd1719bd148dcc" target="_top" xlink:title="Computes the length (or magnitude) of a quaternion.">
<polygon fill="white" stroke="#666666" points="239.75,-56.25 154.75,-56.25 154.75,-37 239.75,-37 239.75,-56.25"/>
<text text-anchor="middle" x="197.25" y="-42.75" font-family="Times,serif" font-size="10.00">mal_math::length</text>
</a>
</g>
</g>
<!-- Node1&#45;&gt;Node2 -->
<g id="edge1_Node000001_Node000002" class="edge">
<title>Node1&#45;&gt;Node2</title>
<g id="a_edge1_Node000001_Node000002"><a xlink:title=" ">
<path fill="none" stroke="#63b8ff" d="M110.78,-35.03C121.49,-36.48 132.71,-38 143.37,-39.45"/>
<polygon fill="#63b8ff" stroke="#63b8ff" points="142.78,-42.9 153.16,-40.78 143.72,-35.96 142.78,-42.9"/>
</a>
</g>
</g>
<!-- Node5 -->
<g id="Node000005" class="node">
<title>Node5</title>
<g id="a_Node000005"><a xlink:href="../../d7/d3f/structmal__math_1_1_t_box.html#a7d0d9d46161b2ad34f7beabd34e73653" target="_top" xlink:title="Returns the dimensions of the box.">
<polygon fill="white" stroke="#666666" points="248,-19.25 146.5,-19.25 146.5,0 248,0 248,-19.25"/>
<text text-anchor="middle" x="197.25" y="-5.75" font-family="Times,serif" font-size="10.00">mal_math::TBox::size</text>
</a>
</g>
</g>
<!-- Node1&#45;&gt;Node5 -->
<g id="edge4_Node000001_Node000005" class="edge">
<title>Node1&#45;&gt;Node5</title>
<g id="a_edge4_Node000001_Node000005"><a xlink:title=" ">
<path fill="none" stroke="#63b8ff" d="M110.78,-20.61C118.71,-19.59 126.92,-18.54 134.98,-17.5"/>
<polygon fill="#63b8ff" stroke="#63b8ff" points="135.24,-21 144.71,-16.25 134.35,-14.06 135.24,-21"/>
</a>
</g>
</g>
<!-- Node3 -->
<g id="Node000003" class="node">
<title>Node3</title>
<g id="a_Node000003"><a xlink:href="../../d1/d1d/namespacemal__math.html#aab7b54d530da999aae378287a25da1c0" target="_top" xlink:title="Computes the dot product of two quaternions.">
<polygon fill="white" stroke="#666666" points="358.5,-74.25 284.75,-74.25 284.75,-55 358.5,-55 358.5,-74.25"/>
<text text-anchor="middle" x="321.62" y="-60.75" font-family="Times,serif" font-size="10.00">mal_math::dot</text>
</a>
</g>
</g>
<!-- Node2&#45;&gt;Node3 -->
<g id="edge2_Node000002_Node000003" class="edge">
<title>Node2&#45;&gt;Node3</title>
<g id="a_edge2_Node000002_Node000003"><a xlink:title=" ">
<path fill="none" stroke="#63b8ff" d="M240.02,-52.77C250.71,-54.34 262.28,-56.04 273.23,-57.65"/>
<polygon fill="#63b8ff" stroke="#63b8ff" points="272.45,-61.08 282.86,-59.07 273.47,-54.15 272.45,-61.08"/>
</a>
</g>
</g>
<!-- Node4 -->
<g id="Node000004" class="node">
<title>Node4</title>
<g id="a_Node000004"><a xlink:href="../../d1/d1d/namespacemal__math.html#a8578ea303028d0b058d33dc3aca926b3" target="_top" xlink:title=" ">
<polygon fill="white" stroke="#666666" points="359.25,-37.25 284,-37.25 284,-18 359.25,-18 359.25,-37.25"/>
<text text-anchor="middle" x="321.62" y="-23.75" font-family="Times,serif" font-size="10.00">mal_math::sqrt</text>
</a>
</g>
</g>
<!-- Node2&#45;&gt;Node4 -->
<g id="edge3_Node000002_Node000004" class="edge">
<title>Node2&#45;&gt;Node4</title>
<g id="a_edge3_Node000002_Node000004"><a xlink:title=" ">
<path fill="none" stroke="#63b8ff" d="M240.02,-40.14C250.4,-38.53 261.6,-36.79 272.26,-35.13"/>
<polygon fill="#63b8ff" stroke="#63b8ff" points="272.71,-38.61 282.05,-33.61 271.63,-31.69 272.71,-38.61"/>
</a>
</g>
</g>
</g>
</svg>
