<?xml version="1.0" encoding="UTF-8" standalone="no"?>
<!DOCTYPE svg PUBLIC "-//W3C//DTD SVG 1.1//EN"
 "http://www.w3.org/Graphics/SVG/1.1/DTD/svg11.dtd">
<!-- Generated by graphviz version 9.0.0 (20230911.1827)
 -->
<!-- Title: mal_math::TBox::Intersect Pages: 1 -->
<svg width="454pt" height="113pt"
 viewBox="0.00 0.00 454.25 112.88" xmlns="http://www.w3.org/2000/svg" xmlns:xlink="http://www.w3.org/1999/xlink">
<g id="graph0" class="graph" transform="scale(1 1) rotate(0) translate(4 108.88)">
<title>mal_math::TBox::Intersect</title>
<!-- Node1 -->
<g id="Node000001" class="node">
<title>Node1</title>
<g id="a_Node000001"><a xlink:title="Checks if a ray intersects with the box and updates the nearest intersection point.">
<polygon fill="#999999" stroke="#666666" points="120.25,-37.25 0,-37.25 0,-18 120.25,-18 120.25,-37.25"/>
<text text-anchor="middle" x="60.12" y="-23.75" font-family="Times,serif" font-size="10.00">mal_math::TBox::Intersect</text>
</a>
</g>
</g>
<!-- Node2 -->
<g id="Node000002" class="node">
<title>Node2</title>
<g id="a_Node000002"><a xlink:href="../../d7/d3f/structmal__math_1_1_t_box.html#a6756f91cb6380a1b177b2bac94777a47" target="_top" xlink:title="Checks if a ray intersects with the box and updates the nearest intersection distance.">
<polygon fill="white" stroke="#666666" points="291.88,-56.25 171.62,-56.25 171.62,-37 291.88,-37 291.88,-56.25"/>
<text text-anchor="middle" x="231.75" y="-42.75" font-family="Times,serif" font-size="10.00">mal_math::TBox::Intersect</text>
</a>
</g>
</g>
<!-- Node1&#45;&gt;Node2 -->
<g id="edge1_Node000001_Node000002" class="edge">
<title>Node1&#45;&gt;Node2</title>
<g id="a_edge1_Node000001_Node000002"><a xlink:title=" ">
<path fill="none" stroke="#63b8ff" d="M120.45,-34.27C133.16,-35.69 146.71,-37.21 159.81,-38.68"/>
<polygon fill="#63b8ff" stroke="#63b8ff" points="159.34,-42.15 169.67,-39.78 160.12,-35.19 159.34,-42.15"/>
</a>
</g>
</g>
<!-- Node6 -->
<g id="Node000006" class="node">
<title>Node6</title>
<g id="a_Node000006"><a xlink:href="../../dd/d4b/classmal__math_1_1_ray.html#a59f0a252d33b02418f99dd6a5e7725a9" target="_top" xlink:title="Computes a point along the ray based on the given parameter.">
<polygon fill="white" stroke="#666666" points="307.25,-19.25 156.25,-19.25 156.25,0 307.25,0 307.25,-19.25"/>
<text text-anchor="middle" x="231.75" y="-5.75" font-family="Times,serif" font-size="10.00">mal_math::Ray::PointAtParameter</text>
</a>
</g>
</g>
<!-- Node1&#45;&gt;Node6 -->
<g id="edge5_Node000001_Node000006" class="edge">
<title>Node1&#45;&gt;Node6</title>
<g id="a_edge5_Node000001_Node000006"><a xlink:title=" ">
<path fill="none" stroke="#63b8ff" d="M120.45,-21.33C128.33,-20.49 136.54,-19.62 144.76,-18.75"/>
<polygon fill="#63b8ff" stroke="#63b8ff" points="144.87,-22.26 154.44,-17.72 144.13,-15.3 144.87,-22.26"/>
</a>
</g>
</g>
<!-- Node3 -->
<g id="Node000003" class="node">
<title>Node3</title>
<g id="a_Node000003"><a xlink:href="../../dd/d4b/classmal__math_1_1_ray.html#aca65886193e6c139c058c1ed5688c9e2" target="_top" xlink:title="Retrieves the inverse of the ray&#39;s direction.">
<polygon fill="white" stroke="#666666" points="440.62,-104.88 348.88,-104.88 348.88,-74.38 440.62,-74.38 440.62,-104.88"/>
<text text-anchor="start" x="356.88" y="-91.38" font-family="Times,serif" font-size="10.00">mal_math::Ray::inv</text>
<text text-anchor="middle" x="394.75" y="-80.12" font-family="Times,serif" font-size="10.00">_direction</text>
</a>
</g>
</g>
<!-- Node2&#45;&gt;Node3 -->
<g id="edge2_Node000002_Node000003" class="edge">
<title>Node2&#45;&gt;Node3</title>
<g id="a_edge2_Node000002_Node000003"><a xlink:title=" ">
<path fill="none" stroke="#63b8ff" d="M270.5,-56.71C290.45,-62.04 315.35,-68.69 337.53,-74.61"/>
<polygon fill="#63b8ff" stroke="#63b8ff" points="336.48,-77.95 347.04,-77.15 338.28,-71.19 336.48,-77.95"/>
</a>
</g>
</g>
<!-- Node4 -->
<g id="Node000004" class="node">
<title>Node4</title>
<g id="a_Node000004"><a xlink:href="../../dd/d4b/classmal__math_1_1_ray.html#a9163e63dd91bd52a51aa8a60d0ffe94a" target="_top" xlink:title="Retrieves the ray&#39;s origin (const version).">
<polygon fill="white" stroke="#666666" points="446.25,-56.25 343.25,-56.25 343.25,-37 446.25,-37 446.25,-56.25"/>
<text text-anchor="middle" x="394.75" y="-42.75" font-family="Times,serif" font-size="10.00">mal_math::Ray::origin</text>
</a>
</g>
</g>
<!-- Node2&#45;&gt;Node4 -->
<g id="edge3_Node000002_Node000004" class="edge">
<title>Node2&#45;&gt;Node4</title>
<g id="a_edge3_Node000002_Node000004"><a xlink:title=" ">
<path fill="none" stroke="#63b8ff" d="M292.24,-46.62C305.13,-46.62 318.79,-46.62 331.77,-46.62"/>
<polygon fill="#63b8ff" stroke="#63b8ff" points="331.45,-50.13 341.45,-46.63 331.45,-43.13 331.45,-50.13"/>
</a>
</g>
</g>
<!-- Node5 -->
<g id="Node000005" class="node">
<title>Node5</title>
<g id="a_Node000005"><a xlink:href="../../dd/d4b/classmal__math_1_1_ray.html#a224f1e4e8f6196951c3079957e8b940c" target="_top" xlink:title="Retrieves the sign of the inverse direction for each axis.">
<polygon fill="white" stroke="#666666" points="442.5,-19.25 347,-19.25 347,0 442.5,0 442.5,-19.25"/>
<text text-anchor="middle" x="394.75" y="-5.75" font-family="Times,serif" font-size="10.00">mal_math::Ray::sign</text>
</a>
</g>
</g>
<!-- Node2&#45;&gt;Node5 -->
<g id="edge4_Node000002_Node000005" class="edge">
<title>Node2&#45;&gt;Node5</title>
<g id="a_edge4_Node000002_Node000005"><a xlink:title=" ">
<path fill="none" stroke="#63b8ff" d="M276.74,-36.51C295.91,-32.11 318.58,-26.9 338.84,-22.24"/>
<polygon fill="#63b8ff" stroke="#63b8ff" points="339.37,-25.71 348.33,-20.06 337.8,-18.89 339.37,-25.71"/>
</a>
</g>
</g>
</g>
</svg>
