<?xml version="1.0" encoding="UTF-8" standalone="no"?>
<!DOCTYPE svg PUBLIC "-//W3C//DTD SVG 1.1//EN"
 "http://www.w3.org/Graphics/SVG/1.1/DTD/svg11.dtd">
<!-- Generated by graphviz version 9.0.0 (20230911.1827)
 -->
<!-- Title: mal_math::TBox::expand Pages: 1 -->
<svg width="467pt" height="65pt"
 viewBox="0.00 0.00 467.25 65.25" xmlns="http://www.w3.org/2000/svg" xmlns:xlink="http://www.w3.org/1999/xlink">

<svg id="main" version="1.1" xmlns="http://www.w3.org/2000/svg" xmlns:xlink="http://www.w3.org/1999/xlink" xml:space="preserve" onload="init(evt)">
<style type="text/css"><![CDATA[
.node, .edge {opacity: 0.7;}
.node.selected, .edge.selected {opacity: 1;}
.edge:hover path { stroke: red; }
.edge:hover polygon { stroke: red; fill: red; }
]]></style>
<script type="application/ecmascript" xlink:href="../../svg.min.js"/>
<svg id="graph" class="graph">
<g id="graph0" class="graph" transform="scale(1 1) rotate(0) translate(4 61.25)">
<title>mal_math::TBox::expand</title>
<!-- Node1 -->
<g id="Node000001" class="node">
<title>Node1</title>
<g id="a_Node000001"><a xlink:title="Expands the box to include a point.">
<polygon fill="#999999" stroke="#666666" points="114.25,-38.25 0,-38.25 0,-19 114.25,-19 114.25,-38.25"/>
<text text-anchor="middle" x="57.12" y="-24.75" font-family="Times,serif" font-size="10.00">mal_math::TBox::expand</text>
</a>
</g>
</g>
<!-- Node2 -->
<g id="Node000002" class="node">
<title>Node2</title>
<g id="a_Node000002"><a xlink:href="../../d1/d1d/namespacemal__math.html#aaf8395dd0451e6ad4acc08131d8ef023" target="_top" xlink:title="Modifies left in&#45;place, setting each element to the maximum of itself and the corresponding element i...">
<polygon fill="white" stroke="#666666" points="230.75,-57.25 150.25,-57.25 150.25,-38 230.75,-38 230.75,-57.25"/>
<text text-anchor="middle" x="190.5" y="-43.75" font-family="Times,serif" font-size="10.00">mal_math::rmax</text>
</a>
</g>
</g>
<!-- Node1&#45;&gt;Node2 -->
<g id="edge1_Node000001_Node000002" class="edge">
<title>Node1&#45;&gt;Node2</title>
<g id="a_edge1_Node000001_Node000002"><a xlink:title=" ">
<path fill="none" stroke="#63b8ff" d="M114.6,-36.79C122.64,-37.96 130.86,-39.14 138.78,-40.29"/>
<polygon fill="#63b8ff" stroke="#63b8ff" points="138.21,-43.74 148.61,-41.71 139.21,-36.82 138.21,-43.74"/>
</a>
</g>
</g>
<!-- Node5 -->
<g id="Node000005" class="node">
<title>Node5</title>
<g id="a_Node000005"><a xlink:href="../../d1/d1d/namespacemal__math.html#a4447cd563a68bd32f6497735ee70a3b8" target="_top" xlink:title="Modifies left in&#45;place, setting each element to the minimum of itself and the corresponding element i...">
<polygon fill="white" stroke="#666666" points="346.5,-19.25 266.75,-19.25 266.75,0 346.5,0 346.5,-19.25"/>
<text text-anchor="middle" x="306.62" y="-5.75" font-family="Times,serif" font-size="10.00">mal_math::rmin</text>
</a>
</g>
</g>
<!-- Node1&#45;&gt;Node5 -->
<g id="edge5_Node000001_Node000005" class="edge">
<title>Node1&#45;&gt;Node5</title>
<g id="a_edge5_Node000001_Node000005"><a xlink:title=" ">
<path fill="none" stroke="#63b8ff" d="M114.6,-24.29C156.89,-21.04 214.24,-16.64 255.04,-13.51"/>
<polygon fill="#63b8ff" stroke="#63b8ff" points="255.14,-17.01 264.84,-12.76 254.6,-10.03 255.14,-17.01"/>
</a>
</g>
</g>
<!-- Node3 -->
<g id="Node000003" class="node">
<title>Node3</title>
<g id="a_Node000003"><a xlink:href="../../d1/d1d/namespacemal__math.html#aef6065b4c161e80e15f71159af8119ce" target="_top" xlink:title="Returns a new vector with each element being the minimum of the corresponding element in left and max...">
<polygon fill="white" stroke="#666666" points="344.62,-56.25 268.62,-56.25 268.62,-37 344.62,-37 344.62,-56.25"/>
<text text-anchor="middle" x="306.62" y="-42.75" font-family="Times,serif" font-size="10.00">mal_math::min</text>
</a>
</g>
</g>
<!-- Node2&#45;&gt;Node3 -->
<g id="edge2_Node000002_Node000003" class="edge">
<title>Node2&#45;&gt;Node3</title>
<g id="a_edge2_Node000002_Node000003"><a xlink:title=" ">
<path fill="none" stroke="#63b8ff" d="M231.1,-47.28C239.42,-47.21 248.29,-47.13 256.9,-47.05"/>
<polygon fill="#63b8ff" stroke="#63b8ff" points="256.92,-50.55 266.89,-46.96 256.86,-43.55 256.92,-50.55"/>
</a>
</g>
</g>
<!-- Node4 -->
<g id="Node000004" class="node">
<title>Node4</title>
<g id="a_Node000004"><a xlink:href="../../d1/d1d/namespacemal__math.html#a1772c0a8c3a9672ecf7b372fb536e492" target="_top" xlink:title="Returns a new vector with each element being the maximum of the corresponding element in left and min...">
<polygon fill="white" stroke="#666666" points="459.25,-56.25 382.5,-56.25 382.5,-37 459.25,-37 459.25,-56.25"/>
<text text-anchor="middle" x="420.88" y="-42.75" font-family="Times,serif" font-size="10.00">mal_math::max</text>
</a>
</g>
</g>
<!-- Node3&#45;&gt;Node4 -->
<g id="edge3_Node000003_Node000004" class="edge">
<title>Node3&#45;&gt;Node4</title>
<g id="a_edge3_Node000003_Node000004"><a xlink:title=" ">
<path fill="none" stroke="#63b8ff" d="M345,-40.22C353.34,-39.9 362.3,-39.8 371.02,-39.93"/>
<polygon fill="#63b8ff" stroke="#63b8ff" points="370.68,-43.42 380.76,-40.17 370.86,-36.42 370.68,-43.42"/>
</a>
</g>
</g>
<!-- Node4&#45;&gt;Node3 -->
<g id="edge4_Node000004_Node000003" class="edge">
<title>Node4&#45;&gt;Node3</title>
<g id="a_edge4_Node000004_Node000003"><a xlink:title=" ">
<path fill="none" stroke="#63b8ff" d="M382.28,-53.04C373.93,-53.35 364.97,-53.45 356.25,-53.32"/>
<polygon fill="#63b8ff" stroke="#63b8ff" points="356.6,-49.83 346.52,-53.07 356.42,-56.83 356.6,-49.83"/>
</a>
</g>
</g>
<!-- Node5&#45;&gt;Node4 -->
<g id="edge6_Node000005_Node000004" class="edge">
<title>Node5&#45;&gt;Node4</title>
<g id="a_edge6_Node000005_Node000004"><a xlink:title=" ">
<path fill="none" stroke="#63b8ff" d="M338.3,-19.74C350.67,-23.81 365.14,-28.58 378.43,-32.96"/>
<polygon fill="#63b8ff" stroke="#63b8ff" points="377.21,-36.25 387.8,-36.05 379.4,-29.6 377.21,-36.25"/>
</a>
</g>
</g>
</g>
</svg>
</svg>

<style type='text/css'>
<![CDATA[
[data-mouse-over-selected='false'] { opacity: 0.7; }
[data-mouse-over-selected='true']  { opacity: 1.0; }
]]>
</style>
<script type="application/ecmascript"><![CDATA[
document.addEventListener('DOMContentLoaded', (event) => {
  highlightEdges();
  highlightAdjacentNodes();
});
]]></script>
</svg>
