<?xml version="1.0" encoding="UTF-8" standalone="no"?>
<!DOCTYPE svg PUBLIC "-//W3C//DTD SVG 1.1//EN"
 "http://www.w3.org/Graphics/SVG/1.1/DTD/svg11.dtd">
<!-- Generated by graphviz version 9.0.0 (20230911.1827)
 -->
<!-- Title: include/math/sphere.hpp Pages: 1 -->
<!--zoomable 193 -->

<svg id="main" version="1.1" xmlns="http://www.w3.org/2000/svg" xmlns:xlink="http://www.w3.org/1999/xlink" xml:space="preserve" onload="init(evt)">
<style type="text/css"><![CDATA[
.node, .edge {opacity: 0.7;}
.node.selected, .edge.selected {opacity: 1;}
.edge:hover path { stroke: red; }
.edge:hover polygon { stroke: red; fill: red; }
]]></style>

<defs>
  <circle id="rim" cx="0" cy="0" r="7"/>
  <circle id="rim2" cx="0" cy="0" r="3.5"/>
  <g id="zoomPlus">
    <use xlink:href="#rim" fill="#404040"><set attributeName="fill" to="#808080" begin="zoomplus.mouseover" end="zoomplus.mouseout"/></use>
    <path d="M-4,0h8M0,-4v8" fill="none" stroke="white" stroke-width="1.5" pointer-events="none"/>
  </g>
  <g id="zoomMin">
    <use xlink:href="#rim" fill="#404040"><set attributeName="fill" to="#808080" begin="zoomminus.mouseover" end="zoomminus.mouseout"/></use>
    <path d="M-4,0h8" fill="none" stroke="white" stroke-width="1.5" pointer-events="none"/>
  </g>
  <g id="arrowUp" transform="translate(30 24)">
    <use xlink:href="#rim"/>
    <path pointer-events="none" fill="none" stroke="white" stroke-width="1.5" d="M0,-3.0v7 M-2.5,-0.5L0,-3.0L2.5,-0.5"/>
  </g>
  <g id="arrowRight" transform="rotate(90) translate(36 -43)">
    <use xlink:href="#rim"/>
    <path pointer-events="none" fill="none" stroke="white" stroke-width="1.5" d="M0,-3.0v7 M-2.5,-0.5L0,-3.0L2.5,-0.5"/>
  </g>
  <g id="arrowDown" transform="rotate(180) translate(-30 -48)">
    <use xlink:href="#rim"/>
    <path pointer-events="none" fill="none" stroke="white" stroke-width="1.5" d="M0,-3.0v7 M-2.5,-0.5L0,-3.0L2.5,-0.5"/>
  </g>
  <g id="arrowLeft" transform="rotate(270) translate(-36 17)">
    <use xlink:href="#rim"/>
    <path pointer-events="none" fill="none" stroke="white" stroke-width="1.5" d="M0,-3.0v7 M-2.5,-0.5L0,-3.0L2.5,-0.5"/>
  </g>
  <g id="resetDef">
    <use xlink:href="#rim2" fill="#404040"><set attributeName="fill" to="#808080" begin="reset.mouseover" end="reset.mouseout"/></use>
  </g>
</defs>
<script type="application/ecmascript">
var viewWidth = 700;
var viewHeight = 193;
var sectionId = 'dynsection-1';
</script>
<script type="application/ecmascript" xlink:href="../../svg.min.js"/>
<svg id="graph" class="graph">
<g id="viewport">
<title>include/math/sphere.hpp</title>
<!-- Node1 -->
<g id="Node000001" class="node">
<title>Node1</title>
<g id="a_Node000001"><a xlink:title="Defines the Sphere structure and its associated functionality.">
<polygon fill="#999999" stroke="#666666" points="497.75,-185 382,-185 382,-165.75 497.75,-165.75 497.75,-185"/>
<text text-anchor="middle" x="439.88" y="-171.5" font-family="Times,serif" font-size="10.00">include/math/sphere.hpp</text>
</a>
</g>
</g>
<!-- Node2 -->
<g id="Node000002" class="node">
<title>Node2</title>
<g id="a_Node000002"><a xlink:href="../../d4/d78/math_8hpp.html" target="_top" xlink:title="Provides various mathematical utilities, vector operations, and custom hash specializations.">
<polygon fill="white" stroke="#666666" points="448.12,-129.75 361.62,-129.75 361.62,-110.5 448.12,-110.5 448.12,-129.75"/>
<text text-anchor="middle" x="404.88" y="-116.25" font-family="Times,serif" font-size="10.00">include/math.hpp</text>
</a>
</g>
</g>
<!-- Node1&#45;&gt;Node2 -->
<g id="edge1_Node000001_Node000002" class="edge">
<title>Node1&#45;&gt;Node2</title>
<g id="a_edge1_Node000001_Node000002"><a xlink:title=" ">
<path fill="none" stroke="#63b8ff" d="M427.9,-156.15C422.12,-147.36 415.45,-137.21 410.78,-130.11"/>
<polygon fill="#63b8ff" stroke="#63b8ff" points="424.85,-157.88 433.26,-164.32 430.7,-154.04 424.85,-157.88"/>
</a>
</g>
</g>
<!-- Node3 -->
<g id="Node000003" class="node">
<title>Node3</title>
<g id="a_Node000003"><a xlink:href="../../d7/de4/box_8hpp.html" target="_top" xlink:title="Defines a templated bounding box class for 3D primitives.">
<polygon fill="white" stroke="#666666" points="103.75,-74.5 0,-74.5 0,-55.25 103.75,-55.25 103.75,-74.5"/>
<text text-anchor="middle" x="51.88" y="-61" font-family="Times,serif" font-size="10.00">include/math/box.hpp</text>
</a>
</g>
</g>
<!-- Node2&#45;&gt;Node3 -->
<g id="edge2_Node000002_Node000003" class="edge">
<title>Node2&#45;&gt;Node3</title>
<g id="a_edge2_Node000002_Node000003"><a xlink:title=" ">
<path fill="none" stroke="#63b8ff" d="M350.14,-111.6C282.98,-101.84 170.11,-84.82 104.11,-74.53"/>
<polygon fill="#63b8ff" stroke="#63b8ff" points="349.42,-115.04 359.82,-113.01 350.42,-108.11 349.42,-115.04"/>
</a>
</g>
</g>
<!-- Node4 -->
<g id="Node000004" class="node">
<title>Node4</title>
<g id="a_Node000004"><a xlink:href="../../d6/d02/intersection_8hpp.html" target="_top" xlink:title="Provides functionalities to represent and handle intersections in 3D space.">
<polygon fill="white" stroke="#666666" points="257.88,-74.5 121.88,-74.5 121.88,-55.25 257.88,-55.25 257.88,-74.5"/>
<text text-anchor="middle" x="189.88" y="-61" font-family="Times,serif" font-size="10.00">include/math/intersection.hpp</text>
</a>
</g>
</g>
<!-- Node2&#45;&gt;Node4 -->
<g id="edge4_Node000002_Node000004" class="edge">
<title>Node2&#45;&gt;Node4</title>
<g id="a_edge4_Node000002_Node000004"><a xlink:title=" ">
<path fill="none" stroke="#63b8ff" d="M351.77,-107.39C310.74,-97.61 255.48,-83.88 221.22,-74.93"/>
<polygon fill="#63b8ff" stroke="#63b8ff" points="350.92,-110.78 361.46,-109.68 352.53,-103.97 350.92,-110.78"/>
</a>
</g>
</g>
<!-- Node6 -->
<g id="Node000006" class="node">
<title>Node6</title>
<g id="a_Node000006"><a xlink:href="../../d1/df2/random_8hpp.html" target="_top" xlink:title="Provides functionality for random number generation and manipulation in vector spaces.">
<polygon fill="white" stroke="#666666" points="395.62,-74.5 276.12,-74.5 276.12,-55.25 395.62,-55.25 395.62,-74.5"/>
<text text-anchor="middle" x="335.88" y="-61" font-family="Times,serif" font-size="10.00">include/math/random.hpp</text>
</a>
</g>
</g>
<!-- Node2&#45;&gt;Node6 -->
<g id="edge8_Node000002_Node000006" class="edge">
<title>Node2&#45;&gt;Node6</title>
<g id="a_edge8_Node000002_Node000006"><a xlink:title=" ">
<path fill="none" stroke="#63b8ff" d="M378.76,-103.74C365.58,-94.34 350.77,-82.66 342.22,-74.77"/>
<polygon fill="#63b8ff" stroke="#63b8ff" points="376.49,-106.43 386.71,-109.23 380.47,-100.67 376.49,-106.43"/>
</a>
</g>
</g>
<!-- Node7 -->
<g id="Node000007" class="node">
<title>Node7</title>
<g id="a_Node000007"><a xlink:href="../../db/d1d/ray_8hpp.html" target="_top" xlink:title="Contains the definition of the Ray class.">
<polygon fill="white" stroke="#666666" points="691.62,-74.5 590.12,-74.5 590.12,-55.25 691.62,-55.25 691.62,-74.5"/>
<text text-anchor="middle" x="640.88" y="-61" font-family="Times,serif" font-size="10.00">include/math/ray.hpp</text>
</a>
</g>
</g>
<!-- Node2&#45;&gt;Node7 -->
<g id="edge10_Node000002_Node000007" class="edge">
<title>Node2&#45;&gt;Node7</title>
<g id="a_edge10_Node000002_Node000007"><a xlink:title=" ">
<path fill="none" stroke="#63b8ff" d="M450.93,-107.45C492.74,-97.66 553.92,-83.9 595.52,-74.93"/>
<polygon fill="#63b8ff" stroke="#63b8ff" points="450.35,-103.99 441.42,-109.68 451.96,-110.8 450.35,-103.99"/>
</a>
</g>
</g>
<!-- Node8 -->
<g id="Node000008" class="node">
<title>Node8</title>
<g id="a_Node000008"><a xlink:href="../../d9/d6c/triangle_8hpp.html" target="_top" xlink:title="Defines the Triangle structure and methods for ray&#45;triangle intersection.">
<polygon fill="white" stroke="#666666" points="533.62,-74.5 414.12,-74.5 414.12,-55.25 533.62,-55.25 533.62,-74.5"/>
<text text-anchor="middle" x="473.88" y="-61" font-family="Times,serif" font-size="10.00">include/math/triangle.hpp</text>
</a>
</g>
</g>
<!-- Node2&#45;&gt;Node8 -->
<g id="edge14_Node000002_Node000008" class="edge">
<title>Node2&#45;&gt;Node8</title>
<g id="a_edge14_Node000002_Node000008"><a xlink:title=" ">
<path fill="none" stroke="#63b8ff" d="M419.89,-102.68C430.86,-93.55 445.48,-82.54 456.89,-74.95"/>
<polygon fill="#63b8ff" stroke="#63b8ff" points="417.76,-99.9 412.51,-109.1 422.35,-105.18 417.76,-99.9"/>
</a>
</g>
</g>
<!-- Node3&#45;&gt;Node2 -->
<g id="edge3_Node000003_Node000002" class="edge">
<title>Node3&#45;&gt;Node2</title>
<g id="a_edge3_Node000003_Node000002"><a xlink:title=" ">
<path fill="none" stroke="#63b8ff" d="M115.17,-74.64C186.24,-85.03 299.55,-102.14 361.35,-111.83"/>
<polygon fill="#63b8ff" stroke="#63b8ff" points="116.03,-71.23 105.63,-73.26 115.02,-78.16 116.03,-71.23"/>
</a>
</g>
</g>
<!-- Node4&#45;&gt;Node2 -->
<g id="edge5_Node000004_Node000002" class="edge">
<title>Node4&#45;&gt;Node2</title>
<g id="a_edge5_Node000004_Node000002"><a xlink:title=" ">
<path fill="none" stroke="#63b8ff" d="M242.93,-77.6C283.99,-87.39 339.35,-101.14 373.62,-110.09"/>
<polygon fill="#63b8ff" stroke="#63b8ff" points="243.76,-74.2 233.22,-75.3 242.15,-81.01 243.76,-74.2"/>
</a>
</g>
</g>
<!-- Node5 -->
<g id="Node000005" class="node">
<title>Node5</title>
<g id="a_Node000005"><a xlink:href="../../d7/d82/plane_8hpp.html" target="_top" xlink:title="Provides the definition of the Plane structure and its associated operations.">
<polygon fill="white" stroke="#666666" points="617.12,-19.25 506.62,-19.25 506.62,0 617.12,0 617.12,-19.25"/>
<text text-anchor="middle" x="561.88" y="-5.75" font-family="Times,serif" font-size="10.00">include/math/plane.hpp</text>
</a>
</g>
</g>
<!-- Node4&#45;&gt;Node5 -->
<g id="edge6_Node000004_Node000005" class="edge">
<title>Node4&#45;&gt;Node5</title>
<g id="a_edge6_Node000004_Node000005"><a xlink:title=" ">
<path fill="none" stroke="#63b8ff" d="M264.55,-53.19C335.94,-42.97 441.94,-27.79 506.2,-18.59"/>
<polygon fill="#63b8ff" stroke="#63b8ff" points="264.3,-49.69 254.9,-54.57 265.29,-56.61 264.3,-49.69"/>
</a>
</g>
</g>
<!-- Node5&#45;&gt;Node2 -->
<g id="edge7_Node000005_Node000002" class="edge">
<title>Node5&#45;&gt;Node2</title>
<g id="a_edge7_Node000005_Node000002"><a xlink:title=" ">
<path fill="none" stroke="#63b8ff" d="M560.71,-30.69C558.87,-44.67 554.26,-62.84 542.88,-74.5 518.07,-99.9 478.72,-110.86 448.38,-115.58"/>
<polygon fill="#63b8ff" stroke="#63b8ff" points="564.19,-31.11 561.6,-20.83 557.22,-30.48 564.19,-31.11"/>
</a>
</g>
</g>
<!-- Node6&#45;&gt;Node2 -->
<g id="edge9_Node000006_Node000002" class="edge">
<title>Node6&#45;&gt;Node2</title>
<g id="a_edge9_Node000006_Node000002"><a xlink:title=" ">
<path fill="none" stroke="#63b8ff" d="M362.01,-81.27C375.11,-90.61 389.82,-102.21 398.39,-110.09"/>
<polygon fill="#63b8ff" stroke="#63b8ff" points="364.33,-78.62 354.11,-75.81 360.35,-84.38 364.33,-78.62"/>
</a>
</g>
</g>
<!-- Node7&#45;&gt;Node1 -->
<g id="edge13_Node000007_Node000001" class="edge">
<title>Node7&#45;&gt;Node1</title>
<g id="a_edge13_Node000007_Node000001"><a xlink:title=" ">
<path fill="none" stroke="#63b8ff" d="M613.9,-80.43C571.75,-103.19 491.47,-146.52 456.67,-165.31"/>
<polygon fill="#63b8ff" stroke="#63b8ff" points="615.52,-83.54 622.66,-75.71 612.2,-77.38 615.52,-83.54"/>
</a>
</g>
</g>
<!-- Node7&#45;&gt;Node2 -->
<g id="edge11_Node000007_Node000002" class="edge">
<title>Node7&#45;&gt;Node2</title>
<g id="a_edge11_Node000007_Node000002"><a xlink:title=" ">
<path fill="none" stroke="#63b8ff" d="M594.57,-77.61C552.16,-87.53 490,-101.52 448.46,-110.45"/>
<polygon fill="#63b8ff" stroke="#63b8ff" points="595.3,-81.03 604.23,-75.34 593.7,-74.22 595.3,-81.03"/>
</a>
</g>
</g>
<!-- Node7&#45;&gt;Node5 -->
<g id="edge12_Node000007_Node000005" class="edge">
<title>Node7&#45;&gt;Node5</title>
<g id="a_edge12_Node000007_Node000005"><a xlink:title=" ">
<path fill="none" stroke="#63b8ff" d="M618.11,-48.53C604.27,-39.2 587.05,-27.6 575.34,-19.7"/>
<polygon fill="#63b8ff" stroke="#63b8ff" points="615.97,-51.31 626.22,-54 619.88,-45.5 615.97,-51.31"/>
</a>
</g>
</g>
<!-- Node8&#45;&gt;Node2 -->
<g id="edge15_Node000008_Node000002" class="edge">
<title>Node8&#45;&gt;Node2</title>
<g id="a_edge15_Node000008_Node000002"><a xlink:title=" ">
<path fill="none" stroke="#63b8ff" d="M459,-82.2C447.99,-91.37 433.26,-102.47 421.8,-110.09"/>
<polygon fill="#63b8ff" stroke="#63b8ff" points="461.15,-84.97 466.39,-75.77 456.55,-79.69 461.15,-84.97"/>
</a>
</g>
</g>
</g>
</svg>

<g id="navigator" transform="translate(0 0)" fill="#404254">
  <rect fill="#f2f5e9" fill-opacity="0.5" stroke="#606060" stroke-width=".5" x="0" y="0" width="60" height="60"/>
  <use id="zoomplus" xlink:href="#zoomPlus" x="17" y="9" onmousedown="handleZoom(evt,'in')"/>
  <use id="zoomminus" xlink:href="#zoomMin" x="42" y="9" onmousedown="handleZoom(evt,'out')"/>
  <use id="reset" xlink:href="#resetDef" x="30" y="36" onmousedown="handleReset()"/>
   <use id="arrowup" xlink:href="#arrowUp" x="0" y="0" onmousedown="handlePan(0,-1)"/>
  <use id="arrowright" xlink:href="#arrowRight" x="0" y="0" onmousedown="handlePan(1,0)"/>
  <use id="arrowdown" xlink:href="#arrowDown" x="0" y="0" onmousedown="handlePan(0,1)"/>
  <use id="arrowleft" xlink:href="#arrowLeft" x="0" y="0" onmousedown="handlePan(-1,0)"/>
</g>
<svg viewBox="0 0 15 15" width="100%" height="30px" preserveAspectRatio="xMaxYMin meet">
 <g id="arrow_out" transform="scale(0.3 0.3)">
  <a xlink:href="sphere_8hpp__dep__incl_org.svg" target="_base">
   <rect id="button" ry="5" rx="5" y="6" x="6" height="38" width="38"
        fill="#f2f5e9" fill-opacity="0.5" stroke="#606060" stroke-width="1.0"/>
   <path id="arrow"
     d="M 11.500037,31.436501 C 11.940474,20.09759 22.043105,11.32322 32.158766,21.979434 L 37.068811,17.246167 C 37.068811,17.246167 37.088388,32 37.088388,32 L 22.160133,31.978069 C 22.160133,31.978069 26.997745,27.140456 26.997745,27.140456 C 18.528582,18.264221 13.291696,25.230495 11.500037,31.436501 z"
     style="fill:#404040;"/>
  </a>
 </g>
</svg>

<style type='text/css'>
<![CDATA[
[data-mouse-over-selected='false'] { opacity: 0.7; }
[data-mouse-over-selected='true']  { opacity: 1.0; }
]]>
</style>
<script type="application/ecmascript"><![CDATA[
document.addEventListener('DOMContentLoaded', (event) => {
  highlightEdges();
  highlightAdjacentNodes();
});
]]></script>
</svg>
