<?xml version="1.0" encoding="UTF-8" standalone="no"?>
<!DOCTYPE svg PUBLIC "-//W3C//DTD SVG 1.1//EN"
 "http://www.w3.org/Graphics/SVG/1.1/DTD/svg11.dtd">
<!-- Generated by graphviz version 9.0.0 (20230911.1827)
 -->
<!-- Title: include/math/vecn.hpp Pages: 1 -->
<!--zoomable 414 -->

<svg id="main" version="1.1" xmlns="http://www.w3.org/2000/svg" xmlns:xlink="http://www.w3.org/1999/xlink" xml:space="preserve" onload="init(evt)">
<style type="text/css"><![CDATA[
.node, .edge {opacity: 0.7;}
.node.selected, .edge.selected {opacity: 1;}
.edge:hover path { stroke: red; }
.edge:hover polygon { stroke: red; fill: red; }
]]></style>

<defs>
  <circle id="rim" cx="0" cy="0" r="7"/>
  <circle id="rim2" cx="0" cy="0" r="3.5"/>
  <g id="zoomPlus">
    <use xlink:href="#rim" fill="#404040"><set attributeName="fill" to="#808080" begin="zoomplus.mouseover" end="zoomplus.mouseout"/></use>
    <path d="M-4,0h8M0,-4v8" fill="none" stroke="white" stroke-width="1.5" pointer-events="none"/>
  </g>
  <g id="zoomMin">
    <use xlink:href="#rim" fill="#404040"><set attributeName="fill" to="#808080" begin="zoomminus.mouseover" end="zoomminus.mouseout"/></use>
    <path d="M-4,0h8" fill="none" stroke="white" stroke-width="1.5" pointer-events="none"/>
  </g>
  <g id="arrowUp" transform="translate(30 24)">
    <use xlink:href="#rim"/>
    <path pointer-events="none" fill="none" stroke="white" stroke-width="1.5" d="M0,-3.0v7 M-2.5,-0.5L0,-3.0L2.5,-0.5"/>
  </g>
  <g id="arrowRight" transform="rotate(90) translate(36 -43)">
    <use xlink:href="#rim"/>
    <path pointer-events="none" fill="none" stroke="white" stroke-width="1.5" d="M0,-3.0v7 M-2.5,-0.5L0,-3.0L2.5,-0.5"/>
  </g>
  <g id="arrowDown" transform="rotate(180) translate(-30 -48)">
    <use xlink:href="#rim"/>
    <path pointer-events="none" fill="none" stroke="white" stroke-width="1.5" d="M0,-3.0v7 M-2.5,-0.5L0,-3.0L2.5,-0.5"/>
  </g>
  <g id="arrowLeft" transform="rotate(270) translate(-36 17)">
    <use xlink:href="#rim"/>
    <path pointer-events="none" fill="none" stroke="white" stroke-width="1.5" d="M0,-3.0v7 M-2.5,-0.5L0,-3.0L2.5,-0.5"/>
  </g>
  <g id="resetDef">
    <use xlink:href="#rim2" fill="#404040"><set attributeName="fill" to="#808080" begin="reset.mouseover" end="reset.mouseout"/></use>
  </g>
</defs>
<script type="application/ecmascript">
var viewWidth = 1491;
var viewHeight = 414;
var sectionId = 'dynsection-1';
</script>
<script type="application/ecmascript" xlink:href="../../svg.min.js"/>
<svg id="graph" class="graph">
<g id="viewport">
<title>include/math/vecn.hpp</title>
<!-- Node1 -->
<g id="Node000001" class="node">
<title>Node1</title>
<g id="a_Node000001"><a xlink:title="Contains the definition of the generic vec&lt;L, T&gt; structure.">
<polygon fill="#999999" stroke="#666666" points="616.12,-406 507.88,-406 507.88,-386.75 616.12,-386.75 616.12,-406"/>
<text text-anchor="middle" x="562" y="-392.5" font-family="Times,serif" font-size="10.00">include/math/vecn.hpp</text>
</a>
</g>
</g>
<!-- Node2 -->
<g id="Node000002" class="node">
<title>Node2</title>
<g id="a_Node000002"><a xlink:href="../../d7/d7c/vec_8hpp.html" target="_top" xlink:title=" ">
<polygon fill="white" stroke="#666666" points="553.5,-350.75 450.5,-350.75 450.5,-331.5 553.5,-331.5 553.5,-350.75"/>
<text text-anchor="middle" x="502" y="-337.25" font-family="Times,serif" font-size="10.00">include/math/vec.hpp</text>
</a>
</g>
</g>
<!-- Node1&#45;&gt;Node2 -->
<g id="edge1_Node000001_Node000002" class="edge">
<title>Node1&#45;&gt;Node2</title>
<g id="a_edge1_Node000001_Node000002"><a xlink:title=" ">
<path fill="none" stroke="#63b8ff" d="M537.81,-379.44C526.39,-370.14 513.92,-358.76 506.84,-351.02"/>
<polygon fill="#63b8ff" stroke="#63b8ff" points="535.39,-381.99 545.41,-385.41 539.7,-376.48 535.39,-381.99"/>
</a>
</g>
</g>
<!-- Node37 -->
<g id="Node000037" class="node">
<title>Node37</title>
<g id="a_Node000037"><a xlink:href="../../d6/d8c/vecn_8inl.html" target="_top" xlink:title=" ">
<polygon fill="white" stroke="#666666" points="674.5,-350.75 571.5,-350.75 571.5,-331.5 674.5,-331.5 674.5,-350.75"/>
<text text-anchor="middle" x="623" y="-337.25" font-family="Times,serif" font-size="10.00">include/math/vecn.inl</text>
</a>
</g>
</g>
<!-- Node1&#45;&gt;Node37 -->
<g id="edge66_Node000001_Node000037" class="edge">
<title>Node1&#45;&gt;Node37</title>
<g id="a_edge66_Node000001_Node000037"><a xlink:title=" ">
<path fill="none" stroke="#63b8ff" d="M574.92,-378.57C584.52,-369.48 597.35,-358.6 607.5,-351.11"/>
<polygon fill="#63b8ff" stroke="#63b8ff" points="572.58,-375.97 567.98,-385.51 577.53,-380.92 572.58,-375.97"/>
</a>
</g>
</g>
<!-- Node2&#45;&gt;Node1 -->
<g id="edge65_Node000002_Node000001" class="edge">
<title>Node2&#45;&gt;Node1</title>
<g id="a_edge65_Node000002_Node000001"><a xlink:title=" ">
<path fill="none" stroke="#63b8ff" d="M526.17,-358.04C537.64,-367.39 550.19,-378.84 557.26,-386.58"/>
<polygon fill="#63b8ff" stroke="#63b8ff" points="528.55,-355.46 518.52,-352.04 524.23,-360.97 528.55,-355.46"/>
</a>
</g>
</g>
<!-- Node3 -->
<g id="Node000003" class="node">
<title>Node3</title>
<g id="a_Node000003"><a xlink:href="../../d4/d44/rvec2_8hpp.html" target="_top" xlink:title="Definitions for the rvec&lt;2, T&gt; specialized template representing 2D vectors with reference&#45;like seman...">
<polygon fill="white" stroke="#666666" points="112,-295.5 0,-295.5 0,-276.25 112,-276.25 112,-295.5"/>
<text text-anchor="middle" x="56" y="-282" font-family="Times,serif" font-size="10.00">include/math/rvec2.hpp</text>
</a>
</g>
</g>
<!-- Node2&#45;&gt;Node3 -->
<g id="edge2_Node000002_Node000003" class="edge">
<title>Node2&#45;&gt;Node3</title>
<g id="a_edge2_Node000002_Node000003"><a xlink:title=" ">
<path fill="none" stroke="#63b8ff" d="M438.77,-333.72C361.5,-325.3 227.15,-309.88 112.35,-295.54"/>
<polygon fill="#63b8ff" stroke="#63b8ff" points="438.38,-337.2 448.7,-334.8 439.14,-330.24 438.38,-337.2"/>
</a>
</g>
</g>
<!-- Node5 -->
<g id="Node000005" class="node">
<title>Node5</title>
<g id="a_Node000005"><a xlink:href="../../d9/dc3/rvec3_8hpp.html" target="_top" xlink:title="Provides the implementation of a 3D reference vector.">
<polygon fill="white" stroke="#666666" points="242,-295.5 130,-295.5 130,-276.25 242,-276.25 242,-295.5"/>
<text text-anchor="middle" x="186" y="-282" font-family="Times,serif" font-size="10.00">include/math/rvec3.hpp</text>
</a>
</g>
</g>
<!-- Node2&#45;&gt;Node5 -->
<g id="edge6_Node000002_Node000005" class="edge">
<title>Node2&#45;&gt;Node5</title>
<g id="a_edge6_Node000002_Node000005"><a xlink:title=" ">
<path fill="none" stroke="#63b8ff" d="M438.82,-330.38C378.74,-320.58 289.74,-305.57 234.88,-295.99"/>
<polygon fill="#63b8ff" stroke="#63b8ff" points="438.14,-333.82 448.57,-331.97 439.26,-326.91 438.14,-333.82"/>
</a>
</g>
</g>
<!-- Node7 -->
<g id="Node000007" class="node">
<title>Node7</title>
<g id="a_Node000007"><a xlink:href="../../d2/d88/rvec4_8hpp.html" target="_top" xlink:title="Defines a 4&#45;dimensional reference vector struct.">
<polygon fill="white" stroke="#666666" points="372,-295.5 260,-295.5 260,-276.25 372,-276.25 372,-295.5"/>
<text text-anchor="middle" x="316" y="-282" font-family="Times,serif" font-size="10.00">include/math/rvec4.hpp</text>
</a>
</g>
</g>
<!-- Node2&#45;&gt;Node7 -->
<g id="edge10_Node000002_Node000007" class="edge">
<title>Node2&#45;&gt;Node7</title>
<g id="a_edge10_Node000002_Node000007"><a xlink:title=" ">
<path fill="none" stroke="#63b8ff" d="M454.13,-328.07C418.6,-318.32 371.56,-304.8 342.48,-295.95"/>
<polygon fill="#63b8ff" stroke="#63b8ff" points="453.2,-331.44 463.77,-330.69 455.04,-324.69 453.2,-331.44"/>
</a>
</g>
</g>
<!-- Node9 -->
<g id="Node000009" class="node">
<title>Node9</title>
<g id="a_Node000009"><a xlink:href="../../d8/def/vec_8cpp.html" target="_top" xlink:title=" ">
<polygon fill="white" stroke="#666666" points="492.12,-295.5 389.88,-295.5 389.88,-276.25 492.12,-276.25 492.12,-295.5"/>
<text text-anchor="middle" x="441" y="-282" font-family="Times,serif" font-size="10.00">include/math/vec.cpp</text>
</a>
</g>
</g>
<!-- Node2&#45;&gt;Node9 -->
<g id="edge14_Node000002_Node000009" class="edge">
<title>Node2&#45;&gt;Node9</title>
<g id="a_edge14_Node000002_Node000009"><a xlink:title=" ">
<path fill="none" stroke="#63b8ff" d="M483.11,-323.64C472.58,-314.44 459.88,-303.35 451.19,-295.77"/>
<polygon fill="#63b8ff" stroke="#63b8ff" points="480.68,-326.16 490.51,-330.1 485.28,-320.88 480.68,-326.16"/>
</a>
</g>
</g>
<!-- Node10 -->
<g id="Node000010" class="node">
<title>Node10</title>
<g id="a_Node000010"><a xlink:href="../../dd/d91/vec2_8hpp.html" target="_top" xlink:title="Defines a 2D vector and provides its operations.">
<polygon fill="white" stroke="#666666" points="618.12,-295.5 509.88,-295.5 509.88,-276.25 618.12,-276.25 618.12,-295.5"/>
<text text-anchor="middle" x="564" y="-282" font-family="Times,serif" font-size="10.00">include/math/vec2.hpp</text>
</a>
</g>
</g>
<!-- Node2&#45;&gt;Node10 -->
<g id="edge15_Node000002_Node000010" class="edge">
<title>Node2&#45;&gt;Node10</title>
<g id="a_edge15_Node000002_Node000010"><a xlink:title=" ">
<path fill="none" stroke="#63b8ff" d="M515.24,-323.32C525.01,-314.23 538.04,-303.35 548.33,-295.86"/>
<polygon fill="#63b8ff" stroke="#63b8ff" points="512.84,-320.77 508.15,-330.27 517.74,-325.77 512.84,-320.77"/>
</a>
</g>
</g>
<!-- Node12 -->
<g id="Node000012" class="node">
<title>Node12</title>
<g id="a_Node000012"><a xlink:href="../../d9/dcd/vec3_8hpp.html" target="_top" xlink:title="Header file for the 3D vector definition.">
<polygon fill="white" stroke="#666666" points="744.12,-295.5 635.88,-295.5 635.88,-276.25 744.12,-276.25 744.12,-295.5"/>
<text text-anchor="middle" x="690" y="-282" font-family="Times,serif" font-size="10.00">include/math/vec3.hpp</text>
</a>
</g>
</g>
<!-- Node2&#45;&gt;Node12 -->
<g id="edge19_Node000002_Node000012" class="edge">
<title>Node2&#45;&gt;Node12</title>
<g id="a_edge19_Node000002_Node000012"><a xlink:title=" ">
<path fill="none" stroke="#63b8ff" d="M539.66,-327.82C572.57,-318.09 619.93,-304.73 652.73,-295.95"/>
<polygon fill="#63b8ff" stroke="#63b8ff" points="538.71,-324.45 530.13,-330.66 540.71,-331.16 538.71,-324.45"/>
</a>
</g>
</g>
<!-- Node14 -->
<g id="Node000014" class="node">
<title>Node14</title>
<g id="a_Node000014"><a xlink:href="../../dd/dc5/vec4_8hpp.html" target="_top" xlink:title="Contains the definition of the vec&lt;4, T&gt; structure.">
<polygon fill="white" stroke="#666666" points="870.12,-295.5 761.88,-295.5 761.88,-276.25 870.12,-276.25 870.12,-295.5"/>
<text text-anchor="middle" x="816" y="-282" font-family="Times,serif" font-size="10.00">include/math/vec4.hpp</text>
</a>
</g>
</g>
<!-- Node2&#45;&gt;Node14 -->
<g id="edge23_Node000002_Node000014" class="edge">
<title>Node2&#45;&gt;Node14</title>
<g id="a_edge23_Node000002_Node000014"><a xlink:title=" ">
<path fill="none" stroke="#63b8ff" d="M561.51,-329.08C619.09,-319.03 705.53,-304.4 761.4,-295.27"/>
<polygon fill="#63b8ff" stroke="#63b8ff" points="561.13,-325.6 551.88,-330.77 562.34,-332.49 561.13,-325.6"/>
</a>
</g>
</g>
<!-- Node16 -->
<g id="Node000016" class="node">
<title>Node16</title>
<g id="a_Node000016"><a xlink:href="../../df/dc2/vec__math_8hpp.html" target="_top" xlink:title="Contains a collection of mathematical operations and utility functions for vector objects.">
<polygon fill="white" stroke="#666666" points="1075.25,-295.5 946.75,-295.5 946.75,-276.25 1075.25,-276.25 1075.25,-295.5"/>
<text text-anchor="middle" x="1011" y="-282" font-family="Times,serif" font-size="10.00">include/math/vec_math.hpp</text>
</a>
</g>
</g>
<!-- Node2&#45;&gt;Node16 -->
<g id="edge27_Node000002_Node000016" class="edge">
<title>Node2&#45;&gt;Node16</title>
<g id="a_edge27_Node000002_Node000016"><a xlink:title=" ">
<path fill="none" stroke="#63b8ff" d="M564.76,-331.21C706.78,-314.14 861.52,-299.86 946.59,-292.39"/>
<polygon fill="#63b8ff" stroke="#63b8ff" points="564.7,-327.69 555.19,-332.37 565.54,-334.64 564.7,-327.69"/>
</a>
</g>
</g>
<!-- Node3&#45;&gt;Node2 -->
<g id="edge5_Node000003_Node000002" class="edge">
<title>Node3&#45;&gt;Node2</title>
<g id="a_edge5_Node000003_Node000002"><a xlink:title=" ">
<path fill="none" stroke="#63b8ff" d="M123.82,-294.72C125.91,-294.99 127.97,-295.25 130,-295.5 244.33,-309.78 378.13,-325.14 450.1,-333.6"/>
<polygon fill="#63b8ff" stroke="#63b8ff" points="124.36,-291.26 113.99,-293.46 123.47,-298.2 124.36,-291.26"/>
</a>
</g>
</g>
<!-- Node4 -->
<g id="Node000004" class="node">
<title>Node4</title>
<g id="a_Node000004"><a xlink:href="../../dd/d72/rvec2_8inl.html" target="_top" xlink:title=" ">
<polygon fill="white" stroke="#666666" points="109.38,-240.25 2.63,-240.25 2.63,-221 109.38,-221 109.38,-240.25"/>
<text text-anchor="middle" x="56" y="-226.75" font-family="Times,serif" font-size="10.00">include/math/rvec2.inl</text>
</a>
</g>
</g>
<!-- Node3&#45;&gt;Node4 -->
<g id="edge3_Node000003_Node000004" class="edge">
<title>Node3&#45;&gt;Node4</title>
<g id="a_edge3_Node000003_Node000004"><a xlink:title=" ">
<path fill="none" stroke="#63b8ff" d="M49.44,-264.92C48.95,-256.55 49.4,-247.25 50.79,-240.61"/>
<polygon fill="#63b8ff" stroke="#63b8ff" points="45.94,-265.09 50.65,-274.58 52.88,-264.22 45.94,-265.09"/>
</a>
</g>
</g>
<!-- Node4&#45;&gt;Node3 -->
<g id="edge4_Node000004_Node000003" class="edge">
<title>Node4&#45;&gt;Node3</title>
<g id="a_edge4_Node000004_Node000003"><a xlink:title=" ">
<path fill="none" stroke="#63b8ff" d="M62.57,-251.82C63.04,-260.21 62.58,-269.49 61.17,-276.08"/>
<polygon fill="#63b8ff" stroke="#63b8ff" points="66.07,-251.62 61.39,-242.11 59.12,-252.46 66.07,-251.62"/>
</a>
</g>
</g>
<!-- Node5&#45;&gt;Node2 -->
<g id="edge9_Node000005_Node000002" class="edge">
<title>Node5&#45;&gt;Node2</title>
<g id="a_edge9_Node000005_Node000002"><a xlink:title=" ">
<path fill="none" stroke="#63b8ff" d="M253.51,-297.33C313.53,-307.14 399.73,-321.68 453.27,-331.03"/>
<polygon fill="#63b8ff" stroke="#63b8ff" points="254.18,-293.89 243.75,-295.73 253.05,-300.8 254.18,-293.89"/>
</a>
</g>
</g>
<!-- Node6 -->
<g id="Node000006" class="node">
<title>Node6</title>
<g id="a_Node000006"><a xlink:href="../../d7/d70/rvec3_8inl.html" target="_top" xlink:title=" ">
<polygon fill="white" stroke="#666666" points="239.38,-240.25 132.62,-240.25 132.62,-221 239.38,-221 239.38,-240.25"/>
<text text-anchor="middle" x="186" y="-226.75" font-family="Times,serif" font-size="10.00">include/math/rvec3.inl</text>
</a>
</g>
</g>
<!-- Node5&#45;&gt;Node6 -->
<g id="edge7_Node000005_Node000006" class="edge">
<title>Node5&#45;&gt;Node6</title>
<g id="a_edge7_Node000005_Node000006"><a xlink:title=" ">
<path fill="none" stroke="#63b8ff" d="M179.44,-264.92C178.95,-256.55 179.4,-247.25 180.79,-240.61"/>
<polygon fill="#63b8ff" stroke="#63b8ff" points="175.94,-265.09 180.65,-274.58 182.88,-264.22 175.94,-265.09"/>
</a>
</g>
</g>
<!-- Node6&#45;&gt;Node5 -->
<g id="edge8_Node000006_Node000005" class="edge">
<title>Node6&#45;&gt;Node5</title>
<g id="a_edge8_Node000006_Node000005"><a xlink:title=" ">
<path fill="none" stroke="#63b8ff" d="M192.57,-251.82C193.04,-260.21 192.58,-269.49 191.17,-276.08"/>
<polygon fill="#63b8ff" stroke="#63b8ff" points="196.07,-251.62 191.39,-242.11 189.12,-252.46 196.07,-251.62"/>
</a>
</g>
</g>
<!-- Node7&#45;&gt;Node2 -->
<g id="edge13_Node000007_Node000002" class="edge">
<title>Node7&#45;&gt;Node2</title>
<g id="a_edge13_Node000007_Node000002"><a xlink:title=" ">
<path fill="none" stroke="#63b8ff" d="M363.58,-298.85C399.21,-308.62 446.52,-322.22 475.66,-331.09"/>
<polygon fill="#63b8ff" stroke="#63b8ff" points="364.96,-295.6 354.39,-296.35 363.12,-302.36 364.96,-295.6"/>
</a>
</g>
</g>
<!-- Node8 -->
<g id="Node000008" class="node">
<title>Node8</title>
<g id="a_Node000008"><a xlink:href="../../d1/d9f/rvec4_8inl.html" target="_top" xlink:title=" ">
<polygon fill="white" stroke="#666666" points="369.38,-240.25 262.62,-240.25 262.62,-221 369.38,-221 369.38,-240.25"/>
<text text-anchor="middle" x="316" y="-226.75" font-family="Times,serif" font-size="10.00">include/math/rvec4.inl</text>
</a>
</g>
</g>
<!-- Node7&#45;&gt;Node8 -->
<g id="edge11_Node000007_Node000008" class="edge">
<title>Node7&#45;&gt;Node8</title>
<g id="a_edge11_Node000007_Node000008"><a xlink:title=" ">
<path fill="none" stroke="#63b8ff" d="M309.44,-264.92C308.95,-256.55 309.4,-247.25 310.79,-240.61"/>
<polygon fill="#63b8ff" stroke="#63b8ff" points="305.94,-265.09 310.65,-274.58 312.88,-264.22 305.94,-265.09"/>
</a>
</g>
</g>
<!-- Node8&#45;&gt;Node7 -->
<g id="edge12_Node000008_Node000007" class="edge">
<title>Node8&#45;&gt;Node7</title>
<g id="a_edge12_Node000008_Node000007"><a xlink:title=" ">
<path fill="none" stroke="#63b8ff" d="M322.57,-251.82C323.04,-260.21 322.58,-269.49 321.17,-276.08"/>
<polygon fill="#63b8ff" stroke="#63b8ff" points="326.07,-251.62 321.39,-242.11 319.12,-252.46 326.07,-251.62"/>
</a>
</g>
</g>
<!-- Node10&#45;&gt;Node2 -->
<g id="edge16_Node000010_Node000002" class="edge">
<title>Node10&#45;&gt;Node2</title>
<g id="a_edge16_Node000010_Node000002"><a xlink:title=" ">
<path fill="none" stroke="#63b8ff" d="M550.67,-303.76C540.94,-312.82 527.98,-323.63 517.73,-331.09"/>
<polygon fill="#63b8ff" stroke="#63b8ff" points="553.05,-306.33 557.75,-296.83 548.15,-301.33 553.05,-306.33"/>
</a>
</g>
</g>
<!-- Node11 -->
<g id="Node000011" class="node">
<title>Node11</title>
<g id="a_Node000011"><a xlink:href="../../d2/d56/vec2_8inl.html" target="_top" xlink:title=" ">
<polygon fill="white" stroke="#666666" points="615.5,-240.25 512.5,-240.25 512.5,-221 615.5,-221 615.5,-240.25"/>
<text text-anchor="middle" x="564" y="-226.75" font-family="Times,serif" font-size="10.00">include/math/vec2.inl</text>
</a>
</g>
</g>
<!-- Node10&#45;&gt;Node11 -->
<g id="edge17_Node000010_Node000011" class="edge">
<title>Node10&#45;&gt;Node11</title>
<g id="a_edge17_Node000010_Node000011"><a xlink:title=" ">
<path fill="none" stroke="#63b8ff" d="M557.44,-264.92C556.95,-256.55 557.4,-247.25 558.79,-240.61"/>
<polygon fill="#63b8ff" stroke="#63b8ff" points="553.94,-265.09 558.65,-274.58 560.88,-264.22 553.94,-265.09"/>
</a>
</g>
</g>
<!-- Node11&#45;&gt;Node10 -->
<g id="edge18_Node000011_Node000010" class="edge">
<title>Node11&#45;&gt;Node10</title>
<g id="a_edge18_Node000011_Node000010"><a xlink:title=" ">
<path fill="none" stroke="#63b8ff" d="M570.57,-251.82C571.04,-260.21 570.58,-269.49 569.17,-276.08"/>
<polygon fill="#63b8ff" stroke="#63b8ff" points="574.07,-251.62 569.39,-242.11 567.12,-252.46 574.07,-251.62"/>
</a>
</g>
</g>
<!-- Node12&#45;&gt;Node2 -->
<g id="edge20_Node000012_Node000002" class="edge">
<title>Node12&#45;&gt;Node2</title>
<g id="a_edge20_Node000012_Node000002"><a xlink:title=" ">
<path fill="none" stroke="#63b8ff" d="M652.17,-299.23C619.21,-308.98 571.86,-322.33 539.11,-331.09"/>
<polygon fill="#63b8ff" stroke="#63b8ff" points="653.14,-302.6 661.73,-296.38 651.14,-295.89 653.14,-302.6"/>
</a>
</g>
</g>
<!-- Node13 -->
<g id="Node000013" class="node">
<title>Node13</title>
<g id="a_Node000013"><a xlink:href="../../d3/dc9/vec3_8inl.html" target="_top" xlink:title=" ">
<polygon fill="white" stroke="#666666" points="741.5,-240.25 638.5,-240.25 638.5,-221 741.5,-221 741.5,-240.25"/>
<text text-anchor="middle" x="690" y="-226.75" font-family="Times,serif" font-size="10.00">include/math/vec3.inl</text>
</a>
</g>
</g>
<!-- Node12&#45;&gt;Node13 -->
<g id="edge21_Node000012_Node000013" class="edge">
<title>Node12&#45;&gt;Node13</title>
<g id="a_edge21_Node000012_Node000013"><a xlink:title=" ">
<path fill="none" stroke="#63b8ff" d="M683.44,-264.92C682.95,-256.55 683.4,-247.25 684.79,-240.61"/>
<polygon fill="#63b8ff" stroke="#63b8ff" points="679.94,-265.09 684.65,-274.58 686.88,-264.22 679.94,-265.09"/>
</a>
</g>
</g>
<!-- Node13&#45;&gt;Node12 -->
<g id="edge22_Node000013_Node000012" class="edge">
<title>Node13&#45;&gt;Node12</title>
<g id="a_edge22_Node000013_Node000012"><a xlink:title=" ">
<path fill="none" stroke="#63b8ff" d="M696.57,-251.82C697.04,-260.21 696.58,-269.49 695.17,-276.08"/>
<polygon fill="#63b8ff" stroke="#63b8ff" points="700.07,-251.62 695.39,-242.11 693.12,-252.46 700.07,-251.62"/>
</a>
</g>
</g>
<!-- Node14&#45;&gt;Node2 -->
<g id="edge24_Node000014_Node000002" class="edge">
<title>Node14&#45;&gt;Node2</title>
<g id="a_edge24_Node000014_Node000002"><a xlink:title=" ">
<path fill="none" stroke="#63b8ff" d="M756.29,-297.95C697.8,-308.16 609.69,-323.07 553.99,-332.15"/>
<polygon fill="#63b8ff" stroke="#63b8ff" points="756.84,-301.41 766.09,-296.23 755.63,-294.51 756.84,-301.41"/>
</a>
</g>
</g>
<!-- Node15 -->
<g id="Node000015" class="node">
<title>Node15</title>
<g id="a_Node000015"><a xlink:href="../../da/d28/vec4_8inl.html" target="_top" xlink:title=" ">
<polygon fill="white" stroke="#666666" points="867.5,-240.25 764.5,-240.25 764.5,-221 867.5,-221 867.5,-240.25"/>
<text text-anchor="middle" x="816" y="-226.75" font-family="Times,serif" font-size="10.00">include/math/vec4.inl</text>
</a>
</g>
</g>
<!-- Node14&#45;&gt;Node15 -->
<g id="edge25_Node000014_Node000015" class="edge">
<title>Node14&#45;&gt;Node15</title>
<g id="a_edge25_Node000014_Node000015"><a xlink:title=" ">
<path fill="none" stroke="#63b8ff" d="M809.44,-264.92C808.95,-256.55 809.4,-247.25 810.79,-240.61"/>
<polygon fill="#63b8ff" stroke="#63b8ff" points="805.94,-265.09 810.65,-274.58 812.88,-264.22 805.94,-265.09"/>
</a>
</g>
</g>
<!-- Node15&#45;&gt;Node14 -->
<g id="edge26_Node000015_Node000014" class="edge">
<title>Node15&#45;&gt;Node14</title>
<g id="a_edge26_Node000015_Node000014"><a xlink:title=" ">
<path fill="none" stroke="#63b8ff" d="M822.57,-251.82C823.04,-260.21 822.58,-269.49 821.17,-276.08"/>
<polygon fill="#63b8ff" stroke="#63b8ff" points="826.07,-251.62 821.39,-242.11 819.12,-252.46 826.07,-251.62"/>
</a>
</g>
</g>
<!-- Node17 -->
<g id="Node000017" class="node">
<title>Node17</title>
<g id="a_Node000017"><a xlink:href="../../dc/dc2/mat_8hpp.html" target="_top" xlink:title="Provides matrix definitions tailored for various sizes and primitive types.">
<polygon fill="white" stroke="#666666" points="990.25,-240.25 885.75,-240.25 885.75,-221 990.25,-221 990.25,-240.25"/>
<text text-anchor="middle" x="938" y="-226.75" font-family="Times,serif" font-size="10.00">include/math/mat.hpp</text>
</a>
</g>
</g>
<!-- Node16&#45;&gt;Node17 -->
<g id="edge28_Node000016_Node000017" class="edge">
<title>Node16&#45;&gt;Node17</title>
<g id="a_edge28_Node000016_Node000017"><a xlink:title=" ">
<path fill="none" stroke="#63b8ff" d="M989.53,-269.22C976.72,-259.87 960.9,-248.33 950.2,-240.52"/>
<polygon fill="#63b8ff" stroke="#63b8ff" points="987.25,-271.88 997.39,-274.95 991.38,-266.23 987.25,-271.88"/>
</a>
</g>
</g>
<!-- Node36 -->
<g id="Node000036" class="node">
<title>Node36</title>
<g id="a_Node000036"><a xlink:href="../../dc/d15/vec__math_8inl.html" target="_top" xlink:title=" ">
<polygon fill="white" stroke="#666666" points="1131.62,-240.25 1008.38,-240.25 1008.38,-221 1131.62,-221 1131.62,-240.25"/>
<text text-anchor="middle" x="1070" y="-226.75" font-family="Times,serif" font-size="10.00">include/math/vec_math.inl</text>
</a>
</g>
</g>
<!-- Node16&#45;&gt;Node36 -->
<g id="edge63_Node000016_Node000036" class="edge">
<title>Node16&#45;&gt;Node36</title>
<g id="a_edge63_Node000016_Node000036"><a xlink:title=" ">
<path fill="none" stroke="#63b8ff" d="M1023.29,-268.07C1032.55,-258.98 1044.97,-248.1 1054.84,-240.61"/>
<polygon fill="#63b8ff" stroke="#63b8ff" points="1021.04,-265.36 1016.63,-274.99 1026.09,-270.22 1021.04,-265.36"/>
</a>
</g>
</g>
<!-- Node18 -->
<g id="Node000018" class="node">
<title>Node18</title>
<g id="a_Node000018"><a xlink:href="../../d4/d78/math_8hpp.html" target="_top" xlink:title="Provides various mathematical utilities, vector operations, and custom hash specializations.">
<polygon fill="white" stroke="#666666" points="1052.25,-129.75 965.75,-129.75 965.75,-110.5 1052.25,-110.5 1052.25,-129.75"/>
<text text-anchor="middle" x="1009" y="-116.25" font-family="Times,serif" font-size="10.00">include/math.hpp</text>
</a>
</g>
</g>
<!-- Node17&#45;&gt;Node18 -->
<g id="edge29_Node000017_Node000018" class="edge">
<title>Node17&#45;&gt;Node18</title>
<g id="a_edge29_Node000017_Node000018"><a xlink:title=" ">
<path fill="none" stroke="#63b8ff" d="M973.17,-215.44C986.13,-208.33 999.47,-198.33 1007,-185 1016.82,-167.61 1013.82,-143.1 1011.17,-130.07"/>
<polygon fill="#63b8ff" stroke="#63b8ff" points="971.71,-212.26 964.34,-219.86 974.84,-218.52 971.71,-212.26"/>
</a>
</g>
</g>
<!-- Node26 -->
<g id="Node000026" class="node">
<title>Node26</title>
<g id="a_Node000026"><a xlink:href="../../d1/dea/mat_8cpp.html" target="_top" xlink:title=" ">
<polygon fill="white" stroke="#666666" points="859.88,-185 756.12,-185 756.12,-165.75 859.88,-165.75 859.88,-185"/>
<text text-anchor="middle" x="808" y="-171.5" font-family="Times,serif" font-size="10.00">include/math/mat.cpp</text>
</a>
</g>
</g>
<!-- Node17&#45;&gt;Node26 -->
<g id="edge45_Node000017_Node000026" class="edge">
<title>Node17&#45;&gt;Node26</title>
<g id="a_edge45_Node000017_Node000026"><a xlink:title=" ">
<path fill="none" stroke="#63b8ff" d="M905.43,-216.28C881.93,-206.66 850.83,-193.92 830.16,-185.45"/>
<polygon fill="#63b8ff" stroke="#63b8ff" points="903.97,-219.47 914.55,-220.02 906.62,-212.99 903.97,-219.47"/>
</a>
</g>
</g>
<!-- Node27 -->
<g id="Node000027" class="node">
<title>Node27</title>
<g id="a_Node000027"><a xlink:href="../../dc/d4a/mat__math_8hpp.html" target="_top" xlink:title="Defines various matrix mathematical operations.">
<polygon fill="white" stroke="#666666" points="738,-185 608,-185 608,-165.75 738,-165.75 738,-185"/>
<text text-anchor="middle" x="673" y="-171.5" font-family="Times,serif" font-size="10.00">include/math/mat_math.hpp</text>
</a>
</g>
</g>
<!-- Node17&#45;&gt;Node27 -->
<g id="edge46_Node000017_Node000027" class="edge">
<title>Node17&#45;&gt;Node27</title>
<g id="a_edge46_Node000017_Node000027"><a xlink:title=" ">
<path fill="none" stroke="#63b8ff" d="M876.43,-218.38C826,-208.58 756.24,-194.53 712.85,-185.43"/>
<polygon fill="#63b8ff" stroke="#63b8ff" points="875.55,-221.78 886.03,-220.24 876.88,-214.91 875.55,-221.78"/>
</a>
</g>
</g>
<!-- Node29 -->
<g id="Node000029" class="node">
<title>Node29</title>
<g id="a_Node000029"><a xlink:href="../../dd/dad/matnxn_8hpp.html" target="_top" xlink:title="Provides the definition of a generic NxN matrix for mathematical operations.">
<polygon fill="white" stroke="#666666" points="997.75,-185 878.25,-185 878.25,-165.75 997.75,-165.75 997.75,-185"/>
<text text-anchor="middle" x="938" y="-171.5" font-family="Times,serif" font-size="10.00">include/math/matnxn.hpp</text>
</a>
</g>
</g>
<!-- Node17&#45;&gt;Node29 -->
<g id="edge50_Node000017_Node000029" class="edge">
<title>Node17&#45;&gt;Node29</title>
<g id="a_edge50_Node000017_Node000029"><a xlink:title=" ">
<path fill="none" stroke="#63b8ff" d="M931.44,-209.67C930.95,-201.3 931.4,-192 932.79,-185.36"/>
<polygon fill="#63b8ff" stroke="#63b8ff" points="927.94,-209.84 932.65,-219.33 934.88,-208.97 927.94,-209.84"/>
</a>
</g>
</g>
<!-- Node31 -->
<g id="Node000031" class="node">
<title>Node31</title>
<g id="a_Node000031"><a xlink:href="../../db/d65/quaternion_8hpp.html" target="_top" xlink:title="Quaternion operations and related mathematical functions.">
<polygon fill="white" stroke="#666666" points="1202.12,-185 1069.88,-185 1069.88,-165.75 1202.12,-165.75 1202.12,-185"/>
<text text-anchor="middle" x="1136" y="-171.5" font-family="Times,serif" font-size="10.00">include/math/quaternion.hpp</text>
</a>
</g>
</g>
<!-- Node17&#45;&gt;Node31 -->
<g id="edge54_Node000017_Node000031" class="edge">
<title>Node17&#45;&gt;Node31</title>
<g id="a_edge54_Node000017_Node000031"><a xlink:title=" ">
<path fill="none" stroke="#63b8ff" d="M982.36,-217.7C1018.64,-207.94 1069.19,-194.34 1102.25,-185.45"/>
<polygon fill="#63b8ff" stroke="#63b8ff" points="981.8,-214.22 973.05,-220.2 983.62,-220.98 981.8,-214.22"/>
</a>
</g>
</g>
<!-- Node34 -->
<g id="Node000034" class="node">
<title>Node34</title>
<g id="a_Node000034"><a xlink:href="../../db/de9/rmatnxn_8hpp.html" target="_top" xlink:title="Specialized representation of matrices using reference semantics.">
<polygon fill="white" stroke="#666666" points="1414.62,-185 1291.38,-185 1291.38,-165.75 1414.62,-165.75 1414.62,-185"/>
<text text-anchor="middle" x="1353" y="-171.5" font-family="Times,serif" font-size="10.00">include/math/rmatnxn.hpp</text>
</a>
</g>
</g>
<!-- Node17&#45;&gt;Node34 -->
<g id="edge59_Node000017_Node000034" class="edge">
<title>Node17&#45;&gt;Node34</title>
<g id="a_edge59_Node000017_Node000034"><a xlink:title=" ">
<path fill="none" stroke="#63b8ff" d="M1001.62,-219.45C1104.29,-205.81 1221.16,-191.35 1290.98,-183.14"/>
<polygon fill="#63b8ff" stroke="#63b8ff" points="1001.41,-215.95 991.96,-220.74 1002.34,-222.89 1001.41,-215.95"/>
</a>
</g>
</g>
<!-- Node19 -->
<g id="Node000019" class="node">
<title>Node19</title>
<g id="a_Node000019"><a xlink:href="../../d7/de4/box_8hpp.html" target="_top" xlink:title="Defines a templated bounding box class for 3D primitives.">
<polygon fill="white" stroke="#666666" points="732.88,-74.5 629.12,-74.5 629.12,-55.25 732.88,-55.25 732.88,-74.5"/>
<text text-anchor="middle" x="681" y="-61" font-family="Times,serif" font-size="10.00">include/math/box.hpp</text>
</a>
</g>
</g>
<!-- Node18&#45;&gt;Node19 -->
<g id="edge30_Node000018_Node000019" class="edge">
<title>Node18&#45;&gt;Node19</title>
<g id="a_edge30_Node000018_Node000019"><a xlink:title=" ">
<path fill="none" stroke="#63b8ff" d="M954.15,-111.51C952.07,-111.17 950.01,-110.83 948,-110.5 872.2,-98.09 784.64,-83.97 730.96,-75"/>
<polygon fill="#63b8ff" stroke="#63b8ff" points="953.52,-114.95 963.95,-113.11 954.65,-108.04 953.52,-114.95"/>
</a>
</g>
</g>
<!-- Node20 -->
<g id="Node000020" class="node">
<title>Node20</title>
<g id="a_Node000020"><a xlink:href="../../d6/d02/intersection_8hpp.html" target="_top" xlink:title="Provides functionalities to represent and handle intersections in 3D space.">
<polygon fill="white" stroke="#666666" points="887,-74.5 751,-74.5 751,-55.25 887,-55.25 887,-74.5"/>
<text text-anchor="middle" x="819" y="-61" font-family="Times,serif" font-size="10.00">include/math/intersection.hpp</text>
</a>
</g>
</g>
<!-- Node18&#45;&gt;Node20 -->
<g id="edge32_Node000018_Node000020" class="edge">
<title>Node18&#45;&gt;Node20</title>
<g id="a_edge32_Node000018_Node000020"><a xlink:title=" ">
<path fill="none" stroke="#63b8ff" d="M960.7,-107.2C924.37,-97.44 876.04,-83.84 846.16,-74.95"/>
<polygon fill="#63b8ff" stroke="#63b8ff" points="959.53,-110.51 970.09,-109.7 961.33,-103.74 959.53,-110.51"/>
</a>
</g>
</g>
<!-- Node22 -->
<g id="Node000022" class="node">
<title>Node22</title>
<g id="a_Node000022"><a xlink:href="../../d1/df2/random_8hpp.html" target="_top" xlink:title="Provides functionality for random number generation and manipulation in vector spaces.">
<polygon fill="white" stroke="#666666" points="1024.75,-74.5 905.25,-74.5 905.25,-55.25 1024.75,-55.25 1024.75,-74.5"/>
<text text-anchor="middle" x="965" y="-61" font-family="Times,serif" font-size="10.00">include/math/random.hpp</text>
</a>
</g>
</g>
<!-- Node18&#45;&gt;Node22 -->
<g id="edge36_Node000018_Node000022" class="edge">
<title>Node18&#45;&gt;Node22</title>
<g id="a_edge36_Node000018_Node000022"><a xlink:title=" ">
<path fill="none" stroke="#63b8ff" d="M988.79,-102.32C980.45,-93.23 971.84,-82.35 967.22,-74.86"/>
<polygon fill="#63b8ff" stroke="#63b8ff" points="986.04,-104.51 995.51,-109.25 991.06,-99.63 986.04,-104.51"/>
</a>
</g>
</g>
<!-- Node23 -->
<g id="Node000023" class="node">
<title>Node23</title>
<g id="a_Node000023"><a xlink:href="../../db/d1d/ray_8hpp.html" target="_top" xlink:title="Contains the definition of the Ray class.">
<polygon fill="white" stroke="#666666" points="1320.75,-74.5 1219.25,-74.5 1219.25,-55.25 1320.75,-55.25 1320.75,-74.5"/>
<text text-anchor="middle" x="1270" y="-61" font-family="Times,serif" font-size="10.00">include/math/ray.hpp</text>
</a>
</g>
</g>
<!-- Node18&#45;&gt;Node23 -->
<g id="edge38_Node000018_Node000023" class="edge">
<title>Node18&#45;&gt;Node23</title>
<g id="a_edge38_Node000018_Node000023"><a xlink:title=" ">
<path fill="none" stroke="#63b8ff" d="M1059.35,-107.7C1105.79,-97.9 1174.19,-83.97 1220.39,-74.93"/>
<polygon fill="#63b8ff" stroke="#63b8ff" points="1058.88,-104.22 1049.82,-109.72 1060.33,-111.07 1058.88,-104.22"/>
</a>
</g>
</g>
<!-- Node25 -->
<g id="Node000025" class="node">
<title>Node25</title>
<g id="a_Node000025"><a xlink:href="../../d9/d6c/triangle_8hpp.html" target="_top" xlink:title="Defines the Triangle structure and methods for ray&#45;triangle intersection.">
<polygon fill="white" stroke="#666666" points="1200.75,-74.5 1081.25,-74.5 1081.25,-55.25 1200.75,-55.25 1200.75,-74.5"/>
<text text-anchor="middle" x="1141" y="-61" font-family="Times,serif" font-size="10.00">include/math/triangle.hpp</text>
</a>
</g>
</g>
<!-- Node18&#45;&gt;Node25 -->
<g id="edge43_Node000018_Node000025" class="edge">
<title>Node18&#45;&gt;Node25</title>
<g id="a_edge43_Node000018_Node000025"><a xlink:title=" ">
<path fill="none" stroke="#63b8ff" d="M1036.44,-105.65C1059,-96.04 1090.63,-83.38 1113.27,-74.95"/>
<polygon fill="#63b8ff" stroke="#63b8ff" points="1035.35,-102.31 1027.56,-109.49 1038.13,-108.73 1035.35,-102.31"/>
</a>
</g>
</g>
<!-- Node19&#45;&gt;Node18 -->
<g id="edge31_Node000019_Node000018" class="edge">
<title>Node19&#45;&gt;Node18</title>
<g id="a_edge31_Node000019_Node000018"><a xlink:title=" ">
<path fill="none" stroke="#63b8ff" d="M744.29,-74.93C802.04,-83.87 889.46,-97.97 965.28,-110.38"/>
<polygon fill="#63b8ff" stroke="#63b8ff" points="745.06,-71.51 734.65,-73.44 744,-78.43 745.06,-71.51"/>
</a>
</g>
</g>
<!-- Node20&#45;&gt;Node18 -->
<g id="edge33_Node000020_Node000018" class="edge">
<title>Node20&#45;&gt;Node18</title>
<g id="a_edge33_Node000020_Node000018"><a xlink:title=" ">
<path fill="none" stroke="#63b8ff" d="M867.48,-77.85C903.85,-87.62 952.17,-101.22 981.99,-110.09"/>
<polygon fill="#63b8ff" stroke="#63b8ff" points="868.64,-74.54 858.08,-75.34 866.84,-81.3 868.64,-74.54"/>
</a>
</g>
</g>
<!-- Node21 -->
<g id="Node000021" class="node">
<title>Node21</title>
<g id="a_Node000021"><a xlink:href="../../d7/d82/plane_8hpp.html" target="_top" xlink:title="Provides the definition of the Plane structure and its associated operations.">
<polygon fill="white" stroke="#666666" points="1108.25,-19.25 997.75,-19.25 997.75,0 1108.25,0 1108.25,-19.25"/>
<text text-anchor="middle" x="1053" y="-5.75" font-family="Times,serif" font-size="10.00">include/math/plane.hpp</text>
</a>
</g>
</g>
<!-- Node20&#45;&gt;Node21 -->
<g id="edge34_Node000020_Node000021" class="edge">
<title>Node20&#45;&gt;Node21</title>
<g id="a_edge34_Node000020_Node000021"><a xlink:title=" ">
<path fill="none" stroke="#63b8ff" d="M870.04,-52.26C913.05,-42.47 973.72,-28.67 1013.2,-19.68"/>
<polygon fill="#63b8ff" stroke="#63b8ff" points="869.41,-48.81 860.44,-54.45 870.96,-55.64 869.41,-48.81"/>
</a>
</g>
</g>
<!-- Node21&#45;&gt;Node18 -->
<g id="edge35_Node000021_Node000018" class="edge">
<title>Node21&#45;&gt;Node18</title>
<g id="a_edge35_Node000021_Node000018"><a xlink:title=" ">
<path fill="none" stroke="#63b8ff" d="M1048.35,-30.33C1045.02,-43.16 1040.08,-60.12 1034,-74.5 1028.54,-87.42 1020.29,-101.39 1014.78,-110.19"/>
<polygon fill="#63b8ff" stroke="#63b8ff" points="1051.65,-31.53 1050.65,-20.99 1044.86,-29.86 1051.65,-31.53"/>
</a>
</g>
</g>
<!-- Node22&#45;&gt;Node18 -->
<g id="edge37_Node000022_Node000018" class="edge">
<title>Node22&#45;&gt;Node18</title>
<g id="a_edge37_Node000022_Node000018"><a xlink:title=" ">
<path fill="none" stroke="#63b8ff" d="M985.42,-82.91C993.77,-92.04 1002.35,-102.9 1006.9,-110.33"/>
<polygon fill="#63b8ff" stroke="#63b8ff" points="988.15,-80.7 978.68,-75.95 983.12,-85.57 988.15,-80.7"/>
</a>
</g>
</g>
<!-- Node23&#45;&gt;Node18 -->
<g id="edge39_Node000023_Node000018" class="edge">
<title>Node23&#45;&gt;Node18</title>
<g id="a_edge39_Node000023_Node000018"><a xlink:title=" ">
<path fill="none" stroke="#63b8ff" d="M1219.68,-77.3C1171.14,-87.54 1098.57,-102.3 1052.47,-111.27"/>
<polygon fill="#63b8ff" stroke="#63b8ff" points="1220.33,-80.74 1229.39,-75.24 1218.88,-73.89 1220.33,-80.74"/>
</a>
</g>
</g>
<!-- Node23&#45;&gt;Node21 -->
<g id="edge40_Node000023_Node000021" class="edge">
<title>Node23&#45;&gt;Node21</title>
<g id="a_edge40_Node000023_Node000021"><a xlink:title=" ">
<path fill="none" stroke="#63b8ff" d="M1222.16,-52.13C1182.34,-42.36 1126.45,-28.65 1089.99,-19.7"/>
<polygon fill="#63b8ff" stroke="#63b8ff" points="1221.17,-55.5 1231.72,-54.48 1222.84,-48.7 1221.17,-55.5"/>
</a>
</g>
</g>
<!-- Node24 -->
<g id="Node000024" class="node">
<title>Node24</title>
<g id="a_Node000024"><a xlink:href="../../d0/da1/sphere_8hpp.html" target="_top" xlink:title="Defines the Sphere structure and its associated functionality.">
<polygon fill="white" stroke="#666666" points="1366.88,-19.25 1251.12,-19.25 1251.12,0 1366.88,0 1366.88,-19.25"/>
<text text-anchor="middle" x="1309" y="-5.75" font-family="Times,serif" font-size="10.00">include/math/sphere.hpp</text>
</a>
</g>
</g>
<!-- Node23&#45;&gt;Node24 -->
<g id="edge41_Node000023_Node000024" class="edge">
<title>Node23&#45;&gt;Node24</title>
<g id="a_edge41_Node000023_Node000024"><a xlink:title=" ">
<path fill="none" stroke="#63b8ff" d="M1283.14,-45.94C1289.62,-37.09 1297.16,-26.79 1302.42,-19.61"/>
<polygon fill="#63b8ff" stroke="#63b8ff" points="1280.42,-43.73 1277.33,-53.86 1286.07,-47.86 1280.42,-43.73"/>
</a>
</g>
</g>
<!-- Node24&#45;&gt;Node18 -->
<g id="edge42_Node000024_Node000018" class="edge">
<title>Node24&#45;&gt;Node18</title>
<g id="a_edge42_Node000024_Node000018"><a xlink:title=" ">
<path fill="none" stroke="#63b8ff" d="M1323.43,-28.64C1332.76,-42.58 1341.26,-61.63 1330,-74.5 1290.28,-119.89 1120.65,-101.56 1061,-110.5 1058.28,-110.91 1055.49,-111.34 1052.68,-111.78"/>
<polygon fill="#63b8ff" stroke="#63b8ff" points="1326.39,-26.75 1317.65,-20.76 1320.75,-30.9 1326.39,-26.75"/>
</a>
</g>
</g>
<!-- Node25&#45;&gt;Node18 -->
<g id="edge44_Node000025_Node000018" class="edge">
<title>Node25&#45;&gt;Node18</title>
<g id="a_edge44_Node000025_Node000018"><a xlink:title=" ">
<path fill="none" stroke="#63b8ff" d="M1113.44,-79.4C1090.85,-89.02 1059.22,-101.68 1036.61,-110.09"/>
<polygon fill="#63b8ff" stroke="#63b8ff" points="1114.55,-82.73 1122.34,-75.55 1111.77,-76.31 1114.55,-82.73"/>
</a>
</g>
</g>
<!-- Node27&#45;&gt;Node17 -->
<g id="edge47_Node000027_Node000017" class="edge">
<title>Node27&#45;&gt;Node17</title>
<g id="a_edge47_Node000027_Node000017"><a xlink:title=" ">
<path fill="none" stroke="#63b8ff" d="M734.37,-187.58C784.74,-197.37 854.51,-211.42 897.98,-220.53"/>
<polygon fill="#63b8ff" stroke="#63b8ff" points="735.26,-184.18 724.78,-185.72 733.93,-191.06 735.26,-184.18"/>
</a>
</g>
</g>
<!-- Node28 -->
<g id="Node000028" class="node">
<title>Node28</title>
<g id="a_Node000028"><a xlink:href="../../d7/dab/mat__math_8inl.html" target="_top" xlink:title=" ">
<polygon fill="white" stroke="#666666" points="735.38,-129.75 610.62,-129.75 610.62,-110.5 735.38,-110.5 735.38,-129.75"/>
<text text-anchor="middle" x="673" y="-116.25" font-family="Times,serif" font-size="10.00">include/math/mat_math.inl</text>
</a>
</g>
</g>
<!-- Node27&#45;&gt;Node28 -->
<g id="edge48_Node000027_Node000028" class="edge">
<title>Node27&#45;&gt;Node28</title>
<g id="a_edge48_Node000027_Node000028"><a xlink:title=" ">
<path fill="none" stroke="#63b8ff" d="M666.44,-154.42C665.95,-146.05 666.4,-136.75 667.79,-130.11"/>
<polygon fill="#63b8ff" stroke="#63b8ff" points="662.94,-154.59 667.65,-164.08 669.88,-153.72 662.94,-154.59"/>
</a>
</g>
</g>
<!-- Node28&#45;&gt;Node27 -->
<g id="edge49_Node000028_Node000027" class="edge">
<title>Node28&#45;&gt;Node27</title>
<g id="a_edge49_Node000028_Node000027"><a xlink:title=" ">
<path fill="none" stroke="#63b8ff" d="M679.57,-141.32C680.04,-149.71 679.58,-158.99 678.17,-165.58"/>
<polygon fill="#63b8ff" stroke="#63b8ff" points="683.07,-141.12 678.39,-131.61 676.12,-141.96 683.07,-141.12"/>
</a>
</g>
</g>
<!-- Node29&#45;&gt;Node17 -->
<g id="edge51_Node000029_Node000017" class="edge">
<title>Node29&#45;&gt;Node17</title>
<g id="a_edge51_Node000029_Node000017"><a xlink:title=" ">
<path fill="none" stroke="#63b8ff" d="M944.57,-196.57C945.04,-204.96 944.58,-214.24 943.17,-220.83"/>
<polygon fill="#63b8ff" stroke="#63b8ff" points="948.07,-196.37 943.39,-186.86 941.12,-197.21 948.07,-196.37"/>
</a>
</g>
</g>
<!-- Node30 -->
<g id="Node000030" class="node">
<title>Node30</title>
<g id="a_Node000030"><a xlink:href="../../d3/df6/matnxn_8inl.html" target="_top" xlink:title=" ">
<polygon fill="white" stroke="#666666" points="948.12,-129.75 833.88,-129.75 833.88,-110.5 948.12,-110.5 948.12,-129.75"/>
<text text-anchor="middle" x="891" y="-116.25" font-family="Times,serif" font-size="10.00">include/math/matnxn.inl</text>
</a>
</g>
</g>
<!-- Node29&#45;&gt;Node30 -->
<g id="edge52_Node000029_Node000030" class="edge">
<title>Node29&#45;&gt;Node30</title>
<g id="a_edge52_Node000029_Node000030"><a xlink:title=" ">
<path fill="none" stroke="#63b8ff" d="M916.61,-157.33C907.79,-148.25 898.65,-137.45 893.67,-130.02"/>
<polygon fill="#63b8ff" stroke="#63b8ff" points="914.13,-159.8 923.73,-164.28 919.02,-154.79 914.13,-159.8"/>
</a>
</g>
</g>
<!-- Node30&#45;&gt;Node29 -->
<g id="edge53_Node000030_Node000029" class="edge">
<title>Node30&#45;&gt;Node29</title>
<g id="a_edge53_Node000030_Node000029"><a xlink:title=" ">
<path fill="none" stroke="#63b8ff" d="M912.11,-137.88C921.05,-147.06 930.38,-158.07 935.41,-165.58"/>
<polygon fill="#63b8ff" stroke="#63b8ff" points="914.82,-135.64 905.22,-131.17 909.94,-140.65 914.82,-135.64"/>
</a>
</g>
</g>
<!-- Node31&#45;&gt;Node18 -->
<g id="edge55_Node000031_Node000018" class="edge">
<title>Node31&#45;&gt;Node18</title>
<g id="a_edge55_Node000031_Node000018"><a xlink:title=" ">
<path fill="none" stroke="#63b8ff" d="M1103.87,-160.9C1080.95,-151.29 1050.75,-138.63 1030.65,-130.2"/>
<polygon fill="#63b8ff" stroke="#63b8ff" points="1102.48,-164.12 1113.06,-164.76 1105.19,-157.66 1102.48,-164.12"/>
</a>
</g>
</g>
<!-- Node32 -->
<g id="Node000032" class="node">
<title>Node32</title>
<g id="a_Node000032"><a xlink:href="../../da/d59/quaternion_8cpp.html" target="_top" xlink:title=" ">
<polygon fill="white" stroke="#666666" points="1201.75,-129.75 1070.25,-129.75 1070.25,-110.5 1201.75,-110.5 1201.75,-129.75"/>
<text text-anchor="middle" x="1136" y="-116.25" font-family="Times,serif" font-size="10.00">include/math/quaternion.cpp</text>
</a>
</g>
</g>
<!-- Node31&#45;&gt;Node32 -->
<g id="edge56_Node000031_Node000032" class="edge">
<title>Node31&#45;&gt;Node32</title>
<g id="a_edge56_Node000031_Node000032"><a xlink:title=" ">
<path fill="none" stroke="#63b8ff" d="M1136,-154.13C1136,-145.84 1136,-136.67 1136,-130.11"/>
<polygon fill="#63b8ff" stroke="#63b8ff" points="1132.5,-154.07 1136,-164.07 1139.5,-154.07 1132.5,-154.07"/>
</a>
</g>
</g>
<!-- Node33 -->
<g id="Node000033" class="node">
<title>Node33</title>
<g id="a_Node000033"><a xlink:href="../../d8/d7f/quaternion_8inl.html" target="_top" xlink:title=" ">
<polygon fill="white" stroke="#666666" points="1346.5,-129.75 1219.5,-129.75 1219.5,-110.5 1346.5,-110.5 1346.5,-129.75"/>
<text text-anchor="middle" x="1283" y="-116.25" font-family="Times,serif" font-size="10.00">include/math/quaternion.inl</text>
</a>
</g>
</g>
<!-- Node31&#45;&gt;Node33 -->
<g id="edge57_Node000031_Node000033" class="edge">
<title>Node31&#45;&gt;Node33</title>
<g id="a_edge57_Node000031_Node000033"><a xlink:title=" ">
<path fill="none" stroke="#63b8ff" d="M1166.21,-161.29C1191.54,-151.64 1227.35,-138.75 1252.71,-130.2"/>
<polygon fill="#63b8ff" stroke="#63b8ff" points="1165.2,-157.93 1157.13,-164.8 1167.72,-164.46 1165.2,-157.93"/>
</a>
</g>
</g>
<!-- Node33&#45;&gt;Node31 -->
<g id="edge58_Node000033_Node000031" class="edge">
<title>Node33&#45;&gt;Node31</title>
<g id="a_edge58_Node000033_Node000031"><a xlink:title=" ">
<path fill="none" stroke="#63b8ff" d="M1252.66,-134.26C1227.29,-143.92 1191.48,-156.81 1166.15,-165.34"/>
<polygon fill="#63b8ff" stroke="#63b8ff" points="1253.69,-137.61 1261.76,-130.75 1251.17,-131.08 1253.69,-137.61"/>
</a>
</g>
</g>
<!-- Node34&#45;&gt;Node17 -->
<g id="edge60_Node000034_Node000017" class="edge">
<title>Node34&#45;&gt;Node17</title>
<g id="a_edge60_Node000034_Node000017"><a xlink:title=" ">
<path fill="none" stroke="#63b8ff" d="M1279.87,-186.14C1210.01,-194.96 1101.93,-208.44 1008,-221 1002.38,-221.75 996.47,-222.56 990.56,-223.37"/>
<polygon fill="#63b8ff" stroke="#63b8ff" points="1280.19,-189.62 1289.67,-184.9 1279.31,-182.68 1280.19,-189.62"/>
</a>
</g>
</g>
<!-- Node35 -->
<g id="Node000035" class="node">
<title>Node35</title>
<g id="a_Node000035"><a xlink:href="../../df/da5/rmatnxn_8inl.html" target="_top" xlink:title=" ">
<polygon fill="white" stroke="#666666" points="1483,-129.75 1365,-129.75 1365,-110.5 1483,-110.5 1483,-129.75"/>
<text text-anchor="middle" x="1424" y="-116.25" font-family="Times,serif" font-size="10.00">include/math/rmatnxn.inl</text>
</a>
</g>
</g>
<!-- Node34&#45;&gt;Node35 -->
<g id="edge61_Node000034_Node000035" class="edge">
<title>Node34&#45;&gt;Node35</title>
<g id="a_edge61_Node000034_Node000035"><a xlink:title=" ">
<path fill="none" stroke="#63b8ff" d="M1368.63,-157.93C1379.94,-148.8 1394.98,-137.79 1406.67,-130.2"/>
<polygon fill="#63b8ff" stroke="#63b8ff" points="1366.38,-155.25 1360.99,-164.37 1370.89,-160.61 1366.38,-155.25"/>
</a>
</g>
</g>
<!-- Node35&#45;&gt;Node34 -->
<g id="edge62_Node000035_Node000034" class="edge">
<title>Node35&#45;&gt;Node34</title>
<g id="a_edge62_Node000035_Node000034"><a xlink:title=" ">
<path fill="none" stroke="#63b8ff" d="M1408.85,-137.18C1397.47,-146.4 1382.13,-157.65 1370.26,-165.34"/>
<polygon fill="#63b8ff" stroke="#63b8ff" points="1410.78,-140.13 1416.17,-131 1406.27,-134.78 1410.78,-140.13"/>
</a>
</g>
</g>
<!-- Node36&#45;&gt;Node16 -->
<g id="edge64_Node000036_Node000016" class="edge">
<title>Node36&#45;&gt;Node16</title>
<g id="a_edge64_Node000036_Node000016"><a xlink:title=" ">
<path fill="none" stroke="#63b8ff" d="M1057.34,-248.79C1048.14,-257.79 1035.95,-268.45 1026.23,-275.84"/>
<polygon fill="#63b8ff" stroke="#63b8ff" points="1059.84,-251.24 1064.28,-241.61 1054.81,-246.37 1059.84,-251.24"/>
</a>
</g>
</g>
<!-- Node37&#45;&gt;Node1 -->
<g id="edge67_Node000037_Node000001" class="edge">
<title>Node37&#45;&gt;Node1</title>
<g id="a_edge67_Node000037_Node000001"><a xlink:title=" ">
<path fill="none" stroke="#63b8ff" d="M609.99,-359.01C600.42,-368.07 587.67,-378.88 577.56,-386.34"/>
<polygon fill="#63b8ff" stroke="#63b8ff" points="612.31,-361.63 616.92,-352.09 607.37,-356.68 612.31,-361.63"/>
</a>
</g>
</g>
</g>
</svg>

<g id="navigator" transform="translate(0 0)" fill="#404254">
  <rect fill="#f2f5e9" fill-opacity="0.5" stroke="#606060" stroke-width=".5" x="0" y="0" width="60" height="60"/>
  <use id="zoomplus" xlink:href="#zoomPlus" x="17" y="9" onmousedown="handleZoom(evt,'in')"/>
  <use id="zoomminus" xlink:href="#zoomMin" x="42" y="9" onmousedown="handleZoom(evt,'out')"/>
  <use id="reset" xlink:href="#resetDef" x="30" y="36" onmousedown="handleReset()"/>
   <use id="arrowup" xlink:href="#arrowUp" x="0" y="0" onmousedown="handlePan(0,-1)"/>
  <use id="arrowright" xlink:href="#arrowRight" x="0" y="0" onmousedown="handlePan(1,0)"/>
  <use id="arrowdown" xlink:href="#arrowDown" x="0" y="0" onmousedown="handlePan(0,1)"/>
  <use id="arrowleft" xlink:href="#arrowLeft" x="0" y="0" onmousedown="handlePan(-1,0)"/>
</g>
<svg viewBox="0 0 15 15" width="100%" height="30px" preserveAspectRatio="xMaxYMin meet">
 <g id="arrow_out" transform="scale(0.3 0.3)">
  <a xlink:href="vecn_8hpp__dep__incl_org.svg" target="_base">
   <rect id="button" ry="5" rx="5" y="6" x="6" height="38" width="38"
        fill="#f2f5e9" fill-opacity="0.5" stroke="#606060" stroke-width="1.0"/>
   <path id="arrow"
     d="M 11.500037,31.436501 C 11.940474,20.09759 22.043105,11.32322 32.158766,21.979434 L 37.068811,17.246167 C 37.068811,17.246167 37.088388,32 37.088388,32 L 22.160133,31.978069 C 22.160133,31.978069 26.997745,27.140456 26.997745,27.140456 C 18.528582,18.264221 13.291696,25.230495 11.500037,31.436501 z"
     style="fill:#404040;"/>
  </a>
 </g>
</svg>

<style type='text/css'>
<![CDATA[
[data-mouse-over-selected='false'] { opacity: 0.7; }
[data-mouse-over-selected='true']  { opacity: 1.0; }
]]>
</style>
<script type="application/ecmascript"><![CDATA[
document.addEventListener('DOMContentLoaded', (event) => {
  highlightEdges();
  highlightAdjacentNodes();
});
]]></script>
</svg>
